<svg xmlns="http://www.w3.org/2000/svg" viewBox="0 0 283.5 283.5" id="adminBuildin"><path fill="#D1D3D4" stroke="#939598" stroke-width="1.623" stroke-miterlimit="10" d="M140.1,279.3l119-68.5	c2.6-1.5,2.6-5.3,0-6.8l-119-68.9c-1.2-0.7-2.7-0.7-3.9,0L16.7,204.4c-2.6,1.5-2.6,5.3,0,6.8l119.5,68.1	C137.4,280,138.9,280,140.1,279.3z"/><g stroke-width="1.024" stroke-miterlimit="10"><path fill="#FCBC56" stroke="#5B5755" d="M170.5 238.3L170.5 131.3 71.3 73.5 71.2 180.5z"/><path fill="#F7923F" stroke="#5B5755" d="M170.5,131.3v107l64.5-37.1V96.9 c0-1.3-1.4-2.1-2.5-1.5L170.5,131.3z"/><path fill="#FFD998" stroke="#5B5755" d="M170.2 139.5L63.2 77.2 135.1 37.4 241.6 98.9z"/><path fill="#F7923F" stroke="#5B5755" d="M148.9 225.8L127 238.3 127 139.5 148.9 137.3z"/><path fill="#FCBC56" stroke="#5B5755" d="M127 238.3L127 139.7 71.2 106.8 71.2 205.4z"/><path fill="#FFD998" stroke="#5B5755" d="M63.3,110.4l63.7,37.2l21.8-12.1 c0.1,0,0.1-0.1,0-0.2L83.5,98.9L63.3,110.4C63.3,110.3,63.3,110.4,63.3,110.4z"/><path fill="#FCBC56" stroke="#5B5755" d="M63.2 110.9v3.6l63.7 36.8v-3.5l-63.4-37C63.4 110.7 63.2 110.8 63.2 110.9zM63.2 77.3v3.6l107.2 62.5-.2-4L63.4 77.3C63.3 77.2 63.2 77.3 63.2 77.3z"/><path fill="#F7923F" stroke="#5B5755" d="M148.9 135.7l0 3.7-21.9 12v-3.5l21.7-12.4C148.8 135.5 148.9 135.6 148.9 135.7zM241.6 103.1L241.6 98.9 170.2 139.5 170.5 143.4zM120.8 234.7L99.1 246.7 99.1 181 120.8 167.9z"/><path fill="#FCBC56" stroke="#5B5755" d="M99.1,246.7l-42.5-25.2l-0.1-65.4 c0,0,0,0,0,0L99.1,181V246.7z"/><path fill="#FFD998" stroke="#5B5755" d="M56.5,156.1l21.3-12.6l43,24.5L99.1,181 L56.5,156.1C56.5,156.1,56.5,156.1,56.5,156.1z"/><path fill="#E2E2E1" stroke="#555655" d="M71.2 119.1L71.2 140.6 127 172.6 127 151.5z"/><path fill="#BABABA" stroke="#555655" d="M148.9 160.3L148.9 139.5 127 151.5 127 172.6z"/><path fill="#E2E2E1" stroke="#555655" d="M156.7 135.4L156.7 156.1 170.5 164 170.5 143.4z"/><path fill="#BABABA" stroke="#555655" d="M220.1 135.4L220.1 115.7 170.5 143.4 170.5 164z"/><path fill="#E2E2E1" stroke="#555655" d="M63.2 167.9L90.8 185.1 90.8 201.4 63.2 184.6zM156.7 164.9l13.5 7.7V189l-13.8-8.3c-.2-.1-.3-.3-.3-.5v-14.9C156.1 164.9 156.4 164.7 156.7 164.9z"/><path fill="#BABABA" stroke="#555655" d="M177.7 168.3v15.2c0 .5.6.9 1 .6l40.4-23.3c.6-.3.9-.9.9-1.6v-14.7c0-.4-.5-.7-.9-.5l-41.2 23.8C177.9 167.8 177.7 168 177.7 168.3zM220.1 191.9v-14.8c0-.2-.2-.3-.3-.2l-41.7 24.2c-.2.1-.3.4-.3.6v14.7c0 .5.6.9 1 .6l40.8-24.2C219.9 192.7 220.1 192.3 220.1 191.9z"/><path fill="#E2E2E1" stroke="#555655" d="M170.2,205.5l-1-0.6L157,197 c-0.1-0.1-0.3,0-0.3,0.2v16c0,0.5,0.3,0.9,0.7,1.2l12.9,7.4V205.5z"/><path fill="#BABABA" stroke="#555655" d="M63.3 225.5L56.5 229.8 77.8 242 84.9 238.3z"/><g stroke="#555655"><path fill="#E2E2E1" d="M66.3,225.7l-0.4-32.2 c0-0.8,0.9-1.4,1.6-1l15.8,8.9c0.3,0.2,0.5,0.5,0.5,0.9l0.4,32.4c0,0.8-0.9,1.4-1.6,0.9l-15.8-9.1 C66.6,226.5,66.4,226.1,66.3,225.7z"/><path fill="#E2E2E1" d="M68.3,227l-0.3-25.1 c0-0.6,0.7-1.1,1.2-0.7l12.3,6.9c0.3,0.1,0.4,0.4,0.4,0.7l0.3,25.2c0,0.6-0.7,1.1-1.3,0.7l-12.3-7.1 C68.5,227.6,68.3,227.3,68.3,227z"/><path fill="none" d="M73.6 203.7L74.1 230.9"/></g></g><path d="M130.6 47.2l4.9 2.8c1.3.8 2.2 1.4 2.8 1.9.5.5.8 1 .8 1.4 0 .4-.1.8-.5 1.1-.3.3-1 .8-2 1.4l-1.4.8c-1 .6-1.9.9-2.6 1.1-.7.1-1.5.1-2.4-.2-.9-.2-1.9-.7-2.9-1.3l-1.3-.7-6.4 3.7-4.8-2.8L130.6 47.2zM132.7 51.5l-4 2.3c.1.1.2.2.3.2.4.3.8.4 1.2.4.4 0 .8-.2 1.4-.5l1.3-.8c.5-.3.8-.6.8-.8C133.6 52.2 133.3 51.9 132.7 51.5zM142.4 54l3.4 2c2.3 1.3 3.7 2.2 4.4 2.8.7.6.9 1.2.8 1.8-.1.6-.8 1.4-2.2 2.1-1.2.7-2.2 1.1-3 1.1-.8 0-1.7-.2-2.9-.8.8.7 1.1 1.2 1.1 1.6 0 .4-.1.7-.3.9-.2.2-.9.7-2.2 1.4l-4.2 2.4-4.5-2.6 5.3-3c.8-.5 1.3-.8 1.3-1 0-.2-.3-.5-.9-.9l-7.1 4.1-4.8-2.8L142.4 54zM144.5 58.3l-3.5 2c.5.3 1 .5 1.3.5.3.1.9-.1 1.6-.5l.9-.5c.5-.3.7-.5.7-.8C145.3 58.9 145 58.6 144.5 58.3zM156.8 73c-1.6.9-2.8 1.5-3.5 1.9-.7.3-1.6.5-2.6.6-1 0-2.1-.1-3.1-.4-1.1-.3-2.1-.7-3.2-1.3-1-.6-1.7-1.2-2.3-1.8-.5-.6-.7-1.2-.7-1.8.1-.6.4-1.1.9-1.5.6-.4 1.7-1.1 3.3-2.1l2.7-1.6c1.6-.9 2.8-1.5 3.5-1.9.7-.3 1.6-.5 2.6-.6 1 0 2.1.1 3.1.4 1.1.3 2.1.7 3.2 1.3 1 .6 1.7 1.2 2.3 1.8.5.6.7 1.2.7 1.8-.1.6-.4 1.1-.9 1.5-.6.4-1.7 1.1-3.3 2.1L156.8 73zM157.2 67.2c.7-.4 1.2-.7 1.3-.9.1-.2 0-.3-.3-.5-.3-.1-.5-.2-.8-.2-.3 0-.9.3-1.7.7l-7.4 4.3c-.9.5-1.4.9-1.6 1.1-.1.2 0 .4.3.5.3.2.7.2 1 .1.3-.1 1-.4 1.9-.9L157.2 67.2zM167.8 68.7l8.2 4.7-3.2 1.8-3.3-1.9-3 1.7 3 1.7-3 1.7-3-1.7-6.6 3.8-4.8-2.8L167.8 68.7zM186.9 79.7l-3.2 1.8-2.9-1.7-12.6 7.3-4.8-2.8 12.6-7.3-2.9-1.6 3.2-1.8L186.9 79.7zM188 80.3l8.1 4.6-3.2 1.8-3.2-1.9-3 1.7 3 1.7-3 1.7-3-1.7-3.5 2 3.5 2-3.2 1.8-8.4-4.8L188 80.3zM202.2 96.5l-4.8-2.8 2.7-1.6c.8-.5 1.2-.8 1.3-1 .1-.2 0-.4-.4-.6-.4-.2-.8-.3-1.1-.2-.3.1-.9.3-1.7.8l-7.3 4.2c-.8.4-1.2.8-1.3 1-.1.2 0 .4.4.6.4.2.7.3 1.1.2.3-.1 1-.4 1.8-.9l2-1.1 4.8 2.8-.6.4c-1.6.9-2.9 1.5-3.9 1.8-1 .2-2.2.2-3.6 0-1.4-.2-2.8-.8-4.2-1.5-1.4-.8-2.4-1.6-2.8-2.4-.5-.8-.5-1.5 0-2.1.5-.6 1.5-1.4 3-2.3l4.6-2.7c1.1-.7 2-1.1 2.7-1.4.7-.3 1.5-.4 2.5-.5 1 0 2 .1 3.1.4 1.1.3 2.2.7 3.2 1.3 1.4.8 2.4 1.6 2.8 2.4.5.8.5 1.5.1 2.1-.4.6-1.4 1.3-2.8 2.1L202.2 96.5zM221.9 99.9l-15.8 9.1-4.8-2.8 6.6-3.8-1.4-.8-6.6 3.8-4.8-2.8 15.8-9.1 4.8 2.8-5.7 3.3 1.4.8 5.7-3.3L221.9 99.9z"/><g stroke="#000" stroke-miterlimit="10"><path stroke-width=".291" d="M90.3,155.6l-1.1,0.7c-0.3-0.1-0.6-0.2-1-0.3 c-0.4-0.1-0.9-0.2-1.4-0.3l0-0.9c0,0,0-0.1-0.1-0.1l-2.9,0c0,0-0.1,0-0.1,0.1l0,0.9c-0.5,0.1-0.9,0.2-1.4,0.3 c-0.3,0.1-0.7,0.2-1,0.3l-1.1-0.7c0,0-0.1,0-0.1,0l-2.1,1.2c0,0,0,0.1,0,0.1l1.1,0.7c-0.5,0.4-0.8,0.9-1,1.4l-1.7,0 c0,0-0.1,0-0.1,0.1l0.1,1.7c0,0,0,0,0.1,0l1.6,0c0.2,0.5,0.5,0.9,1,1.3l-1.3,0.7c0,0,0,0.1,0,0.1l2.1,1.2c0,0,0.1,0,0.1,0l1.3-0.7 c0.3,0.1,0.6,0.2,0.9,0.3c0.5,0.1,0.9,0.2,1.4,0.3l0,1c0,0,0,0.1,0.1,0.1l2.9,0c0,0,0.1,0,0.1,0l0-1c0.4-0.1,0.9-0.2,1.3-0.3 c0.3-0.1,0.7-0.2,1-0.3l1.2,0.7c0,0,0.1,0,0.1,0l2.1-1.2c0,0,0-0.1,0-0.1l-1.2-0.7c0.4-0.4,0.8-0.8,0.9-1.3l1.7,0 c0,0,0.1,0,0.1-0.1c0,0,0-1.7-0.1-1.7l-1.6,0c-0.2-0.5-0.5-0.9-0.9-1.3l1.2-0.7c0,0,0-0.1,0-0.1l-2.1-1.2 C90.4,155.5,90.4,155.5,90.3,155.6z"/><path fill="#E6E7E8" stroke-width=".203" d="M88.4,157.9c1.7,1,1.7,2.6,0,3.6 c-1.7,1-4.5,1-6.2,0c-1.7-1-1.7-2.6,0-3.6C83.9,156.9,86.6,156.9,88.4,157.9z"/><path stroke-width=".291" d="M86.8,158.8c0.8,0.5,0.8,1.3,0,1.8s-2.2,0.5-3.1,0 c-0.8-0.5-0.8-1.3,0-1.8C84.6,158.3,86,158.3,86.8,158.8z"/></g><g stroke="#000" stroke-miterlimit="10"><path stroke-width=".291" d="M110,117.9l-1.1,0.7c-0.3-0.1-0.6-0.2-1-0.3 c-0.4-0.1-0.9-0.2-1.4-0.3l0-0.9c0,0,0-0.1-0.1-0.1l-2.9,0c0,0-0.1,0-0.1,0.1l0,0.9c-0.5,0.1-0.9,0.2-1.4,0.3 c-0.3,0.1-0.7,0.2-1,0.3l-1.1-0.7c0,0-0.1,0-0.1,0l-2.1,1.2c0,0,0,0.1,0,0.1l1.1,0.7c-0.5,0.4-0.8,0.9-1,1.4l-1.7,0 c0,0-0.1,0-0.1,0.1l0.1,1.7c0,0,0,0,0.1,0l1.6,0c0.2,0.5,0.5,0.9,1,1.3l-1.3,0.7c0,0,0,0.1,0,0.1l2.1,1.2c0,0,0.1,0,0.1,0l1.3-0.7 c0.3,0.1,0.6,0.2,0.9,0.3c0.5,0.1,0.9,0.2,1.4,0.3l0,1c0,0,0,0.1,0.1,0.1l2.9,0c0,0,0.1,0,0.1,0l0-1c0.4-0.1,0.9-0.2,1.3-0.3 c0.3-0.1,0.7-0.2,1-0.3l1.2,0.7c0,0,0.1,0,0.1,0l2.1-1.2c0,0,0-0.1,0-0.1l-1.2-0.7c0.4-0.4,0.8-0.8,0.9-1.3l1.7,0 c0,0,0.1,0,0.1-0.1c0,0,0-1.7-0.1-1.7l-1.6,0c-0.2-0.5-0.5-0.9-0.9-1.3l1.2-0.7c0,0,0-0.1,0-0.1l-2.1-1.2 C110.1,117.9,110.1,117.9,110,117.9z"/><path fill="#E6E7E8" stroke-width=".203" d="M108,120.3c1.7,1,1.7,2.6,0,3.6 s-4.5,1-6.2,0c-1.7-1-1.7-2.6,0-3.6C103.6,119.3,106.3,119.3,108,120.3z"/><path stroke-width=".291" d="M106.5,121.2c0.8,0.5,0.8,1.3,0,1.8 c-0.9,0.5-2.2,0.5-3.1,0c-0.8-0.5-0.8-1.3,0-1.8C104.3,120.7,105.7,120.7,106.5,121.2z"/></g><g><path fill="#FFF" stroke="#000" stroke-width="1.259" stroke-miterlimit="10" d="M180.2,125.6l-94-54.3 c-1.2-0.7-1.2-1.9,0-2.6l13-7.5c1.3-0.7,3.3-0.7,4.1,0.2l94,54.3c1.6,0.5,1.6,1.6,0.4,2.4l-13,7.5 C183.4,126.3,181.4,126.3,180.2,125.6z"/><g fill="#F5A722"><path d="M102.6 63.8l6.1 3.5-2.4 1.4-2.4-1.4-2.3 1.3 2.3 1.3-2.3 1.3-2.3-1.3-2.6 1.5 2.7 1.5L97 74.4l-6.3-3.7L102.6 63.8zM118.1 72.8l-12 6.9-3.2-1.8 3.5-4.2-5.4 3.1L98 75l12-6.9 3.1 1.8-3.3 4.3 5.4-3.1L118.1 72.8zM123.6 81l-3.7-2.1 1.1-.6c.7-.4 1.1-.7 1.2-.8.1-.1 0-.3-.2-.4-.2-.1-.5-.2-.7-.1-.2 0-.6.2-1.3.6l-5.7 3.3c-.5.3-.8.5-.9.7-.1.1 0 .3.2.4.3.2.5.2.8.1.3-.1.7-.2 1.3-.6l1.4-.8-.7-.4 1.8-1 4.3 2.5-6.4 3.7-2.3-1.3.5-.7c-.6.1-1.2 0-1.8-.1-.6-.1-1.1-.3-1.6-.6-.6-.4-1.1-.8-1.3-1.2-.3-.5-.4-.9-.3-1.2.1-.4.3-.7.7-1 .3-.3.9-.7 1.7-1.1l3.6-2.1c1.1-.7 2-1.1 2.7-1.3.7-.2 1.6-.2 2.7-.1 1.1.1 2.2.5 3.3 1.2 1.1.6 1.8 1.2 2.1 1.9.3.6.3 1.1 0 1.6-.3.4-.9.9-1.9 1.5L123.6 81zM133 81.4l-12 6.9-3.7-2.1 12-6.9L133 81.4zM142.7 87l-12 6.9-3.2-1.8 3.5-4.2-5.4 3.1-3.1-1.8 12-6.9 3.1 1.8-3.3 4.3 5.4-3.1L142.7 87zM144.1 87.8l6.1 3.5-2.4 1.4-2.4-1.4-2.3 1.3 2.3 1.3-2.3 1.3-2.3-1.3-2.6 1.5 2.7 1.5-2.4 1.4-6.3-3.7L144.1 87.8zM151.5 92.1l6.1 3.5-2.4 1.4-2.4-1.4-2.3 1.3 2.3 1.3-2.3 1.3-2.3-1.3-2.6 1.5 2.7 1.5-2.4 1.4-6.3-3.7L151.5 92.1zM158.9 96.3l2.6 1.5c1.7 1 2.8 1.7 3.3 2.1.5.4.7.9.6 1.4-.1.5-.6 1-1.7 1.6-.9.5-1.7.8-2.3.8-.6 0-1.3-.2-2.2-.6.6.5.9.9.8 1.2 0 .3-.1.5-.2.7s-.7.5-1.7 1.1l-3.2 1.8-3.4-2 4-2.3c.6-.4 1-.6 1-.8 0-.2-.2-.4-.7-.7l-5.4 3.1-3.7-2.1L158.9 96.3zM160.5 99.6l-2.7 1.5c.4.2.7.4 1 .4s.7-.1 1.2-.4l.7-.4c.4-.2.5-.4.5-.6C161.2 100.1 160.9 99.9 160.5 99.6zM172.1 104l-12 6.9-3.7-2.1 12-6.9L172.1 104zM181.7 109.5l-12 6.9-3.2-1.8 3.5-4.2-5.4 3.1-3.1-1.8 12-6.9 3.1 1.8-3.3 4.3 5.4-3.1L181.7 109.5zM187.2 117.8l-3.7-2.1 1.1-.6c.7-.4 1.1-.7 1.2-.8.1-.1 0-.3-.2-.4-.2-.1-.5-.2-.7-.1-.2 0-.6.2-1.3.6l-5.7 3.3c-.5.3-.8.5-.9.7-.1.1 0 .3.2.4.3.2.5.2.8.1.3-.1.7-.2 1.3-.6l1.4-.8L180 117l1.8-1 4.3 2.5-6.4 3.7-2.3-1.3.5-.7c-.6.1-1.2 0-1.8-.1-.6-.1-1.1-.3-1.6-.6-.6-.4-1.1-.8-1.3-1.2-.3-.5-.4-.9-.3-1.2.1-.4.3-.7.7-1 .3-.3.9-.7 1.7-1.1l3.6-2.1c1.1-.7 2-1.1 2.7-1.3.7-.2 1.6-.2 2.7-.1 1.1.1 2.2.5 3.3 1.2 1.1.6 1.8 1.2 2.1 1.9.3.6.3 1.1 0 1.6-.3.4-.9.9-1.9 1.5L187.2 117.8z"/></g></g></svg>