<svg xmlns="http://www.w3.org/2000/svg" viewBox="0 0 283.5 283.5" id="cooling"><path fill="#D1D3D4" stroke="#939598" stroke-width="1.623" stroke-miterlimit="10" d="M7.3,214.4l91.9,52.9c1.2,0.7,2.7,0.7,4,0	l174-100.7c2.6-1.5,2.6-5.3,0-6.9l-96-54.9c-1.2-0.7-2.8-0.7-4,0L7.3,207.6C4.7,209.2,4.7,212.9,7.3,214.4z"/><path fill="#FFDA99" stroke="#545453" stroke-width="1.281" stroke-miterlimit="10" d="M116.9,79.9l36.2,21.1l36.2-20.8	c0.2-0.1,0.2-0.4,0-0.5l-35.4-20.5c-0.4-0.2-0.9-0.2-1.3,0L116.9,79.9C116.9,79.9,116.9,79.9,116.9,79.9z"/><path fill="#FDBD56" d="M153.3,90.8c-6,0-11.7-1.4-15.9-3.8c-4.6-2.6-7-6.3-6.8-10.1l0-0.1V71c-0.2-3.7,2.2-7.2,6.7-9.8 c4.1-2.4,10.2-3.8,16.1-3.8c5.8,0,11.2,1.3,15.6,3.9c4.2,2.4,6.6,5.7,6.8,9.2l0,0l0,6.3c0,0.1,0,0.1,0,0.2 c0.3,3.8-2.1,7.5-6.7,10.1C164.9,89.5,159.3,90.8,153.3,90.8C153.3,90.8,153.3,90.8,153.3,90.8z"/><path fill="#545453" d="M153.4,58c5.2,0,10.6,1.1,15.3,3.8c4.2,2.4,6.4,5.6,6.5,8.7c0,0,0,0,0,0v6.2c0,0,0,0.1,0,0.1 c0.3,3.5-1.8,7-6.3,9.6c-4.3,2.5-9.8,3.7-15.5,3.7c-5.6,0-11.3-1.2-15.6-3.7c-4.6-2.7-6.7-6.2-6.5-9.6c0,0,0-0.1,0-0.1V71 c-0.1-3.3,2-6.7,6.4-9.2C141.3,59.6,147.2,58,153.4,58 M153.4,56.7c-6.1,0-12.2,1.5-16.5,3.9c-4.7,2.7-7.2,6.4-7,10.4v5.7 c0,0.1,0,0.1,0,0.2c-0.3,4,2.3,7.9,7.1,10.7c4.4,2.5,10.2,3.9,16.3,3.9c6.1,0,11.8-1.4,16.1-3.9c4.7-2.7,7.3-6.6,7-10.6 c0-0.1,0-0.2,0-0.3v-6.2v-0.2l0,0c-0.2-3.7-2.7-7.1-7.1-9.6C164.8,58.1,159.3,56.7,153.4,56.7L153.4,56.7z"/><path fill="#F7923F" stroke="#545453" stroke-width="1.281" stroke-miterlimit="10" d="M116.7,153.7v-73c0-0.4,0.4-0.6,0.7-0.4	l35.4,20.6c0,0,0.1,0.1,0.1,0.1l0.2,73.2c0,0.1-0.1,0.2-0.2,0.1l-36.1-20.6C116.7,153.8,116.7,153.7,116.7,153.7z"/><path fill="#FDBD56" stroke="#545453" stroke-width="1.281" stroke-miterlimit="10" d="M189.7,153.7V80c0-0.1-0.1-0.1-0.1-0.1	l-36.5,21c0,0,0,0,0,0.1v73.4c0,0.1,0.1,0.1,0.1,0.1L189.7,153.7C189.7,153.8,189.7,153.8,189.7,153.7z"/><path fill="#F7923F" d="M153.3,84c-6,0-11.7-1.4-15.9-3.8c-4.4-2.5-6.8-5.9-6.8-9.6c0-3.6,2.4-7,6.7-9.5c4.2-2.4,9.8-3.8,15.8-3.8 c6,0,11.7,1.4,15.9,3.8c4.4,2.5,6.8,5.9,6.8,9.6c0,3.6-2.4,7-6.7,9.5C164.9,82.7,159.3,84,153.3,84z"/><path fill="#545453" d="M153,58c5.6,0,11.3,1.2,15.6,3.7c8.6,5,8.7,13,0.1,17.9c-4.3,2.5-9.8,3.7-15.5,3.7 c-5.6,0-11.3-1.2-15.6-3.7c-8.6-5-8.7-13-0.1-17.9C141.8,59.3,147.4,58,153,58 M153,56.7L153,56.7c-6.1,0-11.8,1.4-16.1,3.9 c-4.5,2.6-7,6.2-7,10c0,3.9,2.5,7.5,7.1,10.1c4.4,2.5,10.2,3.9,16.3,3.9c6.1,0,11.8-1.4,16.1-3.9c4.5-2.6,7-6.2,7-10 c0-3.9-2.5-7.5-7.1-10.1C164.9,58.1,159.1,56.7,153,56.7L153,56.7z"/><path fill="#FFDA99" stroke="#545453" stroke-width=".316" stroke-miterlimit="10" d="M168.8,67.1c-8.6-4.2-22.5-4.2-31.1,0	c-2.7,1.3-5.4,3-6.4,4.7c-0.3-2.7,0.7-6.8,6.3-10.1c8.6-5.1,23.3-5.1,31.2,0c5.9,3.8,6.7,7.3,6.3,10.4	C174.1,70.5,171.4,68.5,168.8,67.1z"/><path fill="none" stroke="#545453" stroke-width=".809" d="M156.3,110.4v27.7c0,0.1,0.2,0.2,0.3,0.2l29.8-17.2	c0.1,0,0.1-0.1,0.1-0.2V93c0-0.1-0.2-0.2-0.3-0.2l-29.8,17.5C156.3,110.3,156.3,110.4,156.3,110.4z"/><g fill="#545453"><path d="M158.3 120v1c0 .6.7 1 1.3.7l8.7-5c.3-.1.4-.4.4-.7l0-1c0-.6-.7-1-1.3-.7l-8.7 5C158.4 119.4 158.3 119.7 158.3 120zM158.3 124.5v1c0 .6.7 1 1.3.7l8.7-5c.3-.1.4-.4.4-.7l0-1c0-.6-.7-1-1.3-.7l-8.7 5C158.4 123.9 158.3 124.2 158.3 124.5zM158.3 128.9v1c0 .6.7 1 1.3.7l8.7-5c.3-.1.4-.4.4-.7l0-1c0-.6-.7-1-1.3-.7l-8.7 5C158.4 128.4 158.3 128.6 158.3 128.9zM158.3 133.4v1c0 .6.7 1 1.3.7l8.7-5c.3-.1.4-.4.4-.7l0-1c0-.6-.7-1-1.3-.7l-8.7 5C158.4 132.8 158.3 133.1 158.3 133.4zM158.3 115.5v1c0 .6.7 1 1.3.7l8.7-5c.3-.1.4-.4.4-.7l0-1c0-.6-.7-1-1.3-.7l-8.7 5C158.4 114.9 158.3 115.2 158.3 115.5zM158.3 111.1v1c0 .6.7 1 1.3.7l8.7-5c.3-.1.4-.4.4-.7l0-1c0-.6-.7-1-1.3-.7l-8.7 5C158.4 110.5 158.3 110.8 158.3 111.1z"/></g><g fill="#545453"><path d="M170.1 113.2v1c0 .6.7 1 1.3.7l8.7-5c.3-.1.4-.4.4-.7l0-1c0-.6-.7-1-1.3-.7l-8.7 5C170.3 112.6 170.1 112.9 170.1 113.2zM170.1 117.7v1c0 .6.7 1 1.3.7l8.7-5c.3-.1.4-.4.4-.7l0-1c0-.6-.7-1-1.3-.7l-8.7 5C170.3 117.1 170.1 117.4 170.1 117.7zM170.1 122.1v1c0 .6.7 1 1.3.7l8.7-5c.3-.1.4-.4.4-.7l0-1c0-.6-.7-1-1.3-.7l-8.7 5C170.3 121.6 170.1 121.8 170.1 122.1zM170.1 126.6v1c0 .6.7 1 1.3.7l8.7-5c.3-.1.4-.4.4-.7l0-1c0-.6-.7-1-1.3-.7l-8.7 5C170.3 126 170.1 126.3 170.1 126.6zM170.1 108.7v1c0 .6.7 1 1.3.7l8.7-5c.3-.1.4-.4.4-.7l0-1c0-.6-.7-1-1.3-.7l-8.7 5C170.3 108.1 170.1 108.4 170.1 108.7zM170.1 104.3v1c0 .6.7 1 1.3.7l8.7-5c.3-.1.4-.4.4-.7l0-1c0-.6-.7-1-1.3-.7l-8.7 5C170.3 103.7 170.1 104 170.1 104.3z"/></g><path fill="#FFDA99" stroke="#545453" stroke-width=".316" stroke-miterlimit="10" d="M152.7,71c0,0,0.8-3.3,4.8-5.7	c4-2.4,9.6-3.1,9.6-3.1s-0.8,3.3-4.8,5.7C158.4,70.4,152.7,71,152.7,71z"/><path fill="#FFDA99" stroke="#545453" stroke-width=".356" stroke-miterlimit="10" d="M174.7,71.6c0,0-4.9,2.7-11,2.7	s-11-2.7-11-2.7s4.9-2.7,11-2.7S174.7,71.6,174.7,71.6z"/><path fill="#FFDA99" stroke="#545453" stroke-width=".316" stroke-miterlimit="10" d="M153.4,71c0,0-0.8-3.3-4.8-5.7	c-4-2.4-9.6-3.1-9.6-3.1s0.8,3.3,4.8,5.7C147.8,70.4,153.4,71,153.4,71z"/><path fill="#FFDA99" stroke="#545453" stroke-width=".351" stroke-miterlimit="10" d="M132.1,71.5c0,0,4.8,2.7,10.7,2.7	s10.7-2.7,10.7-2.7s-4.8-2.7-10.7-2.7S132.1,71.5,132.1,71.5z"/><path fill="#FFDA99" stroke="#545453" stroke-width=".316" stroke-miterlimit="10" d="M153.1 70.7c0 0-2.7-2.7-2.8-6.1 0-3.4 2.6-6.1 2.6-6.1s2.7 2.7 2.8 6.1S153.1 70.7 153.1 70.7zM153.1 82.9c0 0-2.7-2.7-2.8-6.1s2.6-6.1 2.6-6.1 2.7 2.7 2.8 6.1C155.8 80.1 153.1 82.9 153.1 82.9z"/><path fill="#FFDA99" stroke="#545453" stroke-width=".316" stroke-miterlimit="10" d="M151.5,71.2c0,0,3.3-0.9,7.3,1.3	s7.4,6.9,7.4,6.9s-3.3,0.9-7.3-1.3C154.9,75.8,151.5,71.2,151.5,71.2z"/><path fill="#FFDA99" stroke="#545453" stroke-width=".316" stroke-miterlimit="10" d="M139,79.1c0,0,3.3,0.9,7.3-1.3	c4.1-2.3,7.4-6.9,7.4-6.9s-3.3-0.9-7.3,1.3C142.4,74.5,139,79.1,139,79.1z"/><path fill="#FFEBCC" d="M168.7,79.8c-8.6,4.9-22.5,4.9-31.1-0.1s-8.7-13-0.1-17.9c8.6-4.9,22.5-4.9,31.1,0.1S177.3,74.9,168.7,79.8 z" opacity=".7"/><path fill="none" stroke="#545453" stroke-width=".809" d="M119.8,120.9V93.2c0-0.1,0.2-0.2,0.3-0.2l29.8,17.2 c0.1,0,0.1,0.1,0.1,0.2v28c0,0.1-0.2,0.2-0.3,0.2l-29.8-17.5C119.8,121,119.8,121,119.8,120.9z"/><g fill="#545453"><path d="M121.7 111.4v-1c0-.6.7-1 1.3-.7l8.7 5c.3.1.4.4.4.7l0 1c0 .6-.7 1-1.3.7l-8.7-5C121.9 111.9 121.7 111.7 121.7 111.4zM121.7 106.8v-1c0-.6.7-1 1.3-.7l8.7 5c.3.1.4.4.4.7l0 1c0 .6-.7 1-1.3.7l-8.7-5C121.9 107.4 121.7 107.1 121.7 106.8zM121.7 102.4v-1c0-.6.7-1 1.3-.7l8.7 5c.3.1.4.4.4.7l0 1c0 .6-.7 1-1.3.7l-8.7-5C121.9 103 121.7 102.7 121.7 102.4zM121.7 97.9v-1c0-.6.7-1 1.3-.7l8.7 5c.3.1.4.4.4.7l0 1c0 .6-.7 1-1.3.7l-8.7-5C121.9 98.5 121.7 98.2 121.7 97.9zM121.7 115.9v-1c0-.6.7-1 1.3-.7l8.7 5c.3.1.4.4.4.7l0 1c0 .6-.7 1-1.3.7l-8.7-5C121.9 116.4 121.7 116.2 121.7 115.9zM121.7 120.2v-1c0-.6.7-1 1.3-.7l8.7 5c.3.1.4.4.4.7l0 1c0 .6-.7 1-1.3.7l-8.7-5C121.9 120.8 121.7 120.5 121.7 120.2z"/></g><g fill="#545453"><path d="M133.6 118.2v-1c0-.6.7-1 1.3-.7l8.7 5c.3.1.4.4.4.7l0 1c0 .6-.7 1-1.3.7l-8.7-5C133.7 118.7 133.6 118.5 133.6 118.2zM133.6 113.6v-1c0-.6.7-1 1.3-.7l8.7 5c.3.1.4.4.4.7l0 1c0 .6-.7 1-1.3.7l-8.7-5C133.7 114.2 133.6 113.9 133.6 113.6zM133.6 109.2v-1c0-.6.7-1 1.3-.7l8.7 5c.3.1.4.4.4.7l0 1c0 .6-.7 1-1.3.7l-8.7-5C133.7 109.8 133.6 109.5 133.6 109.2zM133.6 104.7v-1c0-.6.7-1 1.3-.7l8.7 5c.3.1.4.4.4.7l0 1c0 .6-.7 1-1.3.7l-8.7-5C133.7 105.3 133.6 105 133.6 104.7zM133.6 122.7v-1c0-.6.7-1 1.3-.7l8.7 5c.3.1.4.4.4.7l0 1c0 .6-.7 1-1.3.7l-8.7-5C133.7 123.2 133.6 123 133.6 122.7zM133.6 127v-1c0-.6.7-1 1.3-.7l8.7 5c.3.1.4.4.4.7l0 1c0 .6-.7 1-1.3.7l-8.7-5C133.7 127.6 133.6 127.3 133.6 127z"/></g><path fill="#F7923F" d="M153.1,73.8c-1.1,0-2-0.2-2.8-0.7c-0.8-0.5-1.2-1.1-1.2-1.8l0-1c0-0.7,0.4-1.3,1.2-1.7 c0.7-0.4,1.8-0.7,2.8-0.7c1,0,2,0.2,2.7,0.7c0.7,0.4,1.2,1,1.2,1.6l0,1.1c0.1,0.7-0.4,1.3-1.2,1.8 C155.1,73.5,154.1,73.8,153.1,73.8L153.1,73.8z"/><path fill="#545453" d="M153.1,68c0.9,0,1.9,0.2,2.7,0.7c0.7,0.4,1.1,1,1.1,1.5c0,0,0,0,0,0v1.1c0,0,0,0,0,0 c0.1,0.6-0.3,1.2-1.1,1.7c-0.7,0.4-1.7,0.6-2.7,0.6c-1,0-2-0.2-2.7-0.7c-0.8-0.5-1.2-1.1-1.1-1.7c0,0,0,0,0,0v-1 c0-0.6,0.3-1.2,1.1-1.6C151,68.3,152,68,153.1,68 M153.1,67.8c-1.1,0-2.1,0.3-2.9,0.7c-0.8,0.5-1.3,1.1-1.2,1.8l0,1v0l0,0 c0,0.7,0.4,1.4,1.2,1.9c0.8,0.4,1.8,0.7,2.9,0.7c1.1,0,2.1-0.2,2.8-0.7c0.8-0.5,1.3-1.2,1.2-1.9l0,0v-1.1v0l0,0 c0-0.6-0.5-1.2-1.2-1.7C155.1,68,154.1,67.8,153.1,67.8L153.1,67.8z"/><path fill="#FFDA99" d="M153.1,72.3c-1.1,0-2-0.2-2.8-0.7c-0.8-0.4-1.2-1-1.2-1.7c0-0.6,0.4-1.2,1.2-1.7c0.7-0.4,1.7-0.7,2.8-0.7 c1.1,0,2,0.2,2.8,0.7c0.8,0.4,1.2,1,1.2,1.7c0,0.6-0.4,1.2-1.2,1.7C155.1,72,154.1,72.3,153.1,72.3z"/><path fill="#545453" d="M153,67.7c1,0,2,0.2,2.7,0.7c1.5,0.9,1.5,2.3,0,3.2c-0.7,0.4-1.7,0.6-2.7,0.6c-1,0-2-0.2-2.7-0.7 c-1.5-0.9-1.5-2.3,0-3.2C151.1,67.9,152,67.7,153,67.7 M153,67.5L153,67.5c-1.1,0-2.1,0.2-2.8,0.7c-0.8,0.5-1.2,1.1-1.2,1.8 c0,0.7,0.4,1.3,1.3,1.8c0.8,0.4,1.8,0.7,2.9,0.7c1.1,0,2.1-0.2,2.8-0.7c0.8-0.5,1.2-1.1,1.2-1.8c0-0.7-0.4-1.3-1.3-1.8 C155.1,67.7,154.1,67.5,153,67.5L153,67.5z"/><path fill="#FFDA99" stroke="#545453" stroke-width="1.281" stroke-miterlimit="10" d="M71.3,106.6l36.2,21.1l36.2-20.8 c0.2-0.1,0.2-0.4,0-0.5l-35.4-20.5c-0.4-0.2-0.9-0.2-1.3,0L71.3,106.6C71.3,106.6,71.3,106.6,71.3,106.6z"/><path fill="#FDBD56" d="M107.8,117.5c-6,0-11.7-1.4-15.9-3.8c-4.6-2.6-7-6.3-6.8-10.1l0-0.1v-5.8c-0.2-3.7,2.2-7.2,6.7-9.8 c4.1-2.4,10.2-3.8,16.1-3.8c5.8,0,11.2,1.3,15.6,3.9c4.2,2.4,6.6,5.7,6.8,9.2l0,0l0,0.1v6.2c0,0.1,0,0.1,0,0.2 c0.3,3.8-2.1,7.5-6.7,10.1C119.3,116.2,113.7,117.5,107.8,117.5C107.8,117.5,107.8,117.5,107.8,117.5z"/><path fill="#545453" d="M107.8,84.7c5.2,0,10.6,1.1,15.3,3.8c4.2,2.4,6.4,5.6,6.5,8.7c0,0,0,0,0,0v6.2c0,0,0,0.1,0,0.1 c0.3,3.5-1.8,7-6.3,9.6c-4.3,2.5-9.8,3.7-15.5,3.7c-5.6,0-11.3-1.2-15.6-3.7c-4.6-2.7-6.7-6.2-6.5-9.6c0,0,0-0.1,0-0.1v-5.8 c-0.1-3.3,2-6.7,6.4-9.2C95.8,86.3,101.6,84.7,107.8,84.7 M107.8,83.4c-6.1,0-12.2,1.5-16.5,3.9c-4.7,2.7-7.2,6.4-7,10.4v5.7 c0,0.1,0,0.1,0,0.2c-0.3,4,2.3,7.9,7.1,10.7c4.4,2.5,10.2,3.9,16.3,3.9c6.1,0,11.8-1.4,16.1-3.9c4.7-2.7,7.3-6.6,7-10.6 c0-0.1,0-0.2,0-0.3v-6.2v-0.2l0,0c-0.2-3.7-2.7-7.1-7.1-9.6C119.3,84.8,113.8,83.4,107.8,83.4L107.8,83.4z"/><path fill="#F7923F" stroke="#545453" stroke-width="1.281" stroke-miterlimit="10" d="M71.1,180.4v-73.3c0-0.3,0.3-0.4,0.5-0.3 l35.7,20.8l0.2,73.5c0,0,0,0,0,0L71.1,180.4z"/><path fill="#FDBD56" stroke="#545453" stroke-width="1.281" stroke-miterlimit="10" d="M144.2,180.4v-73.7c0-0.1-0.1-0.1-0.1-0.1 l-36.5,21c0,0,0,0,0,0.1v73.4c0,0.1,0.1,0.1,0.1,0.1L144.2,180.4C144.2,180.5,144.2,180.4,144.2,180.4z"/><path fill="#F7923F" d="M107.8,110.7c-6,0-11.7-1.4-15.9-3.8c-4.4-2.5-6.8-5.9-6.8-9.6c0-3.6,2.4-7,6.7-9.5 c4.2-2.4,9.8-3.8,15.8-3.8c6,0,11.7,1.4,15.9,3.8c4.4,2.5,6.8,5.9,6.8,9.6c0,3.6-2.4,7-6.7,9.5 C119.3,109.4,113.7,110.7,107.8,110.7z"/><path fill="#545453" d="M107.5,84.7c5.6,0,11.3,1.2,15.6,3.7c8.6,5,8.7,13,0.1,17.9c-4.3,2.5-9.8,3.7-15.5,3.7 c-5.6,0-11.3-1.2-15.6-3.7c-8.6-5-8.7-13-0.1-17.9C96.3,85.9,101.9,84.7,107.5,84.7 M107.5,83.4L107.5,83.4 c-6.1,0-11.8,1.4-16.1,3.9c-4.5,2.6-7,6.2-7,10c0,3.9,2.5,7.5,7.1,10.1c4.4,2.5,10.2,3.9,16.3,3.9c6.1,0,11.8-1.4,16.1-3.9 c4.5-2.6,7-6.2,7-10c0-3.9-2.5-7.5-7.1-10.1C119.4,84.8,113.6,83.4,107.5,83.4L107.5,83.4z"/><path fill="#FFDA99" stroke="#545453" stroke-width=".316" stroke-miterlimit="10" d="M123.2,93.8c-8.6-4.2-22.5-4.2-31.1,0 c-2.7,1.3-5.4,3-6.4,4.7c-0.3-2.7,0.7-6.8,6.3-10.1c8.6-5.1,23.3-5.1,31.2,0c5.9,3.8,6.7,7.3,6.3,10.4 C128.5,97.2,125.9,95.1,123.2,93.8z"/><path fill="none" stroke="#545453" stroke-width=".809" d="M110.8,137.1v27.7c0,0.1,0.2,0.2,0.3,0.2l29.8-17.2 c0.1,0,0.1-0.1,0.1-0.2v-28c0-0.1-0.2-0.2-0.3-0.2l-29.8,17.5C110.8,137,110.8,137,110.8,137.1z"/><g fill="#545453"><path d="M112.7 146.6v1c0 .6.7 1 1.3.7l8.7-5c.3-.1.4-.4.4-.7l0-1c0-.6-.7-1-1.3-.7l-8.7 5C112.9 146 112.7 146.3 112.7 146.6zM112.7 151.2v1c0 .6.7 1 1.3.7l8.7-5c.3-.1.4-.4.4-.7l0-1c0-.6-.7-1-1.3-.7l-8.7 5C112.9 150.6 112.7 150.9 112.7 151.2zM112.7 155.6v1c0 .6.7 1 1.3.7l8.7-5c.3-.1.4-.4.4-.7l0-1c0-.6-.7-1-1.3-.7l-8.7 5C112.9 155 112.7 155.3 112.7 155.6zM112.7 160.1v1c0 .6.7 1 1.3.7l8.7-5c.3-.1.4-.4.4-.7l0-1c0-.6-.7-1-1.3-.7l-8.7 5C112.9 159.5 112.7 159.8 112.7 160.1zM112.7 142.1v1c0 .6.7 1 1.3.7l8.7-5c.3-.1.4-.4.4-.7l0-1c0-.6-.7-1-1.3-.7l-8.7 5C112.9 141.6 112.7 141.8 112.7 142.1zM112.7 137.8v1c0 .6.7 1 1.3.7l8.7-5c.3-.1.4-.4.4-.7l0-1c0-.6-.7-1-1.3-.7l-8.7 5C112.9 137.2 112.7 137.5 112.7 137.8z"/></g><g fill="#545453"><path d="M124.6 139.8v1c0 .6.7 1 1.3.7l8.7-5c.3-.1.4-.4.4-.7l0-1c0-.6-.7-1-1.3-.7l-8.7 5C124.7 139.2 124.6 139.5 124.6 139.8zM124.6 144.4v1c0 .6.7 1 1.3.7l8.7-5c.3-.1.4-.4.4-.7l0-1c0-.6-.7-1-1.3-.7l-8.7 5C124.7 143.8 124.6 144.1 124.6 144.4zM124.6 148.8v1c0 .6.7 1 1.3.7l8.7-5c.3-.1.4-.4.4-.7l0-1c0-.6-.7-1-1.3-.7l-8.7 5C124.7 148.2 124.6 148.5 124.6 148.8zM124.6 153.3v1c0 .6.7 1 1.3.7l8.7-5c.3-.1.4-.4.4-.7l0-1c0-.6-.7-1-1.3-.7l-8.7 5C124.7 152.7 124.6 153 124.6 153.3zM124.6 135.3v1c0 .6.7 1 1.3.7l8.7-5c.3-.1.4-.4.4-.7l0-1c0-.6-.7-1-1.3-.7l-8.7 5C124.7 134.8 124.6 135 124.6 135.3zM124.6 131v1c0 .6.7 1 1.3.7l8.7-5c.3-.1.4-.4.4-.7l0-1c0-.6-.7-1-1.3-.7l-8.7 5C124.7 130.4 124.6 130.7 124.6 131z"/></g><path fill="#FFDA99" stroke="#545453" stroke-width=".316" stroke-miterlimit="10" d="M107.2,97.7c0,0,0.8-3.3,4.8-5.7 c4-2.4,9.6-3.1,9.6-3.1s-0.8,3.3-4.8,5.7C112.8,97,107.2,97.7,107.2,97.7z"/><path fill="#FFDA99" stroke="#545453" stroke-width=".356" stroke-miterlimit="10" d="M129.1,98.2c0,0-4.9,2.7-11,2.7 c-6.1,0-11-2.7-11-2.7s4.9-2.7,11-2.7C124.2,95.5,129.1,98.2,129.1,98.2z"/><path fill="#FFDA99" stroke="#545453" stroke-width=".316" stroke-miterlimit="10" d="M107.9,97.7c0,0-0.8-3.3-4.8-5.7 c-4-2.4-9.6-3.1-9.6-3.1s0.8,3.3,4.8,5.7C102.2,97,107.9,97.7,107.9,97.7z"/><path fill="#FFDA99" stroke="#545453" stroke-width=".351" stroke-miterlimit="10" d="M86.5,98.2c0,0,4.8,2.7,10.7,2.7 c5.9,0,10.7-2.7,10.7-2.7s-4.8-2.7-10.7-2.7C91.3,95.5,86.5,98.2,86.5,98.2z"/><path fill="#FFDA99" stroke="#545453" stroke-width=".316" stroke-miterlimit="10" d="M107.6 97.4c0 0-2.7-2.7-2.8-6.1s2.6-6.1 2.6-6.1 2.7 2.7 2.8 6.1S107.6 97.4 107.6 97.4zM107.6 109.6c0 0-2.7-2.7-2.8-6.1s2.6-6.1 2.6-6.1 2.7 2.7 2.8 6.1C110.3 106.8 107.6 109.6 107.6 109.6z"/><path fill="#FFDA99" stroke="#545453" stroke-width=".316" stroke-miterlimit="10" d="M106,97.9c0,0,3.3-0.9,7.3,1.3 s7.4,6.9,7.4,6.9s-3.3,0.9-7.3-1.3C109.3,102.5,106,97.9,106,97.9z"/><path fill="#FFDA99" stroke="#545453" stroke-width=".316" stroke-miterlimit="10" d="M93.5,105.8c0,0,3.3,0.9,7.3-1.3 c4.1-2.3,7.4-6.9,7.4-6.9s-3.3-0.9-7.3,1.3S93.5,105.8,93.5,105.8z"/><path fill="#FFEBCC" d="M123.2,106.5c-8.6,4.9-22.5,4.9-31.1-0.1c-8.6-5-8.7-13-0.1-17.9c8.6-4.9,22.5-4.9,31.1,0.1 C131.7,93.5,131.8,101.5,123.2,106.5z" opacity=".7"/><g><path fill="none" stroke="#545453" stroke-width=".809" d="M74.2,147.6v-27.7c0-0.1,0.2-0.2,0.3-0.2l29.8,17.2 c0.1,0,0.1,0.1,0.1,0.2v28c0,0.1-0.2,0.2-0.3,0.2l-29.8-17.5C74.3,147.7,74.2,147.6,74.2,147.6z"/><g fill="#545453"><path d="M76.2 138v-1c0-.6.7-1 1.3-.7l8.7 5c.3.1.4.4.4.7l0 1c0 .6-.7 1-1.3.7l-8.7-5C76.3 138.6 76.2 138.3 76.2 138zM76.2 133.5v-1c0-.6.7-1 1.3-.7l8.7 5c.3.1.4.4.4.7l0 1c0 .6-.7 1-1.3.7l-8.7-5C76.3 134.1 76.2 133.8 76.2 133.5zM76.2 129.1v-1c0-.6.7-1 1.3-.7l8.7 5c.3.1.4.4.4.7l0 1c0 .6-.7 1-1.3.7l-8.7-5C76.3 129.6 76.2 129.4 76.2 129.1zM76.2 124.6v-1c0-.6.7-1 1.3-.7l8.7 5c.3.1.4.4.4.7l0 1c0 .6-.7 1-1.3.7l-8.7-5C76.3 125.2 76.2 124.9 76.2 124.6zM76.2 142.5v-1c0-.6.7-1 1.3-.7l8.7 5c.3.1.4.4.4.7l0 1c0 .6-.7 1-1.3.7l-8.7-5C76.3 143.1 76.2 142.8 76.2 142.5zM76.2 146.9v-1c0-.6.7-1 1.3-.7l8.7 5c.3.1.4.4.4.7l0 1c0 .6-.7 1-1.3.7l-8.7-5C76.3 147.4 76.2 147.2 76.2 146.9z"/></g><g fill="#545453"><path d="M88 144.8v-1c0-.6.7-1 1.3-.7l8.7 5c.3.1.4.4.4.7l0 1c0 .6-.7 1-1.3.7l-8.7-5C88.2 145.4 88 145.1 88 144.8zM88 140.3v-1c0-.6.7-1 1.3-.7l8.7 5c.3.1.4.4.4.7l0 1c0 .6-.7 1-1.3.7l-8.7-5C88.2 140.9 88 140.6 88 140.3zM88 135.9v-1c0-.6.7-1 1.3-.7l8.7 5c.3.1.4.4.4.7l0 1c0 .6-.7 1-1.3.7l-8.7-5C88.2 136.4 88 136.2 88 135.9zM88 131.4v-1c0-.6.7-1 1.3-.7l8.7 5c.3.1.4.4.4.7l0 1c0 .6-.7 1-1.3.7l-8.7-5C88.2 132 88 131.7 88 131.4zM88 149.3v-1c0-.6.7-1 1.3-.7l8.7 5c.3.1.4.4.4.7l0 1c0 .6-.7 1-1.3.7l-8.7-5C88.2 149.9 88 149.6 88 149.3zM88 153.7v-1c0-.6.7-1 1.3-.7l8.7 5c.3.1.4.4.4.7l0 1c0 .6-.7 1-1.3.7l-8.7-5C88.2 154.2 88 154 88 153.7z"/></g></g><g><path fill="#F7923F" d="M107.5,100.5c-1.1,0-2-0.2-2.8-0.7c-0.8-0.5-1.2-1.1-1.2-1.8l0-1c0-0.7,0.4-1.3,1.2-1.7 c0.7-0.4,1.8-0.7,2.8-0.7c1,0,2,0.2,2.7,0.7c0.7,0.4,1.2,1,1.2,1.6l0,1.1c0.1,0.7-0.4,1.3-1.2,1.8 C109.6,100.2,108.6,100.5,107.5,100.5L107.5,100.5z"/><path fill="#545453" d="M107.5,94.7c0.9,0,1.9,0.2,2.7,0.7c0.7,0.4,1.1,1,1.1,1.5c0,0,0,0,0,0V98c0,0,0,0,0,0 c0.1,0.6-0.3,1.2-1.1,1.7c-0.7,0.4-1.7,0.6-2.7,0.6c-1,0-2-0.2-2.7-0.7c-0.8-0.5-1.2-1.1-1.1-1.7c0,0,0,0,0,0v-1 c0-0.6,0.3-1.2,1.1-1.6C105.4,95,106.5,94.7,107.5,94.7 M107.5,94.5c-1.1,0-2.1,0.3-2.9,0.7c-0.8,0.5-1.3,1.1-1.2,1.8l0,1v0l0,0 c0,0.7,0.4,1.4,1.2,1.9c0.8,0.4,1.8,0.7,2.9,0.7c1.1,0,2.1-0.2,2.8-0.7c0.8-0.5,1.3-1.2,1.2-1.9l0,0v-1.1v0l0,0 c0-0.6-0.5-1.2-1.2-1.7C109.6,94.7,108.6,94.5,107.5,94.5L107.5,94.5z"/><g><path fill="#FFDA99" d="M107.5,98.9c-1.1,0-2-0.2-2.8-0.7c-0.8-0.4-1.2-1-1.2-1.7c0-0.6,0.4-1.2,1.2-1.7c0.7-0.4,1.7-0.7,2.8-0.7 c1.1,0,2,0.2,2.8,0.7c0.8,0.4,1.2,1,1.2,1.7c0,0.6-0.4,1.2-1.2,1.7C109.6,98.7,108.6,98.9,107.5,98.9z"/><path fill="#545453" d="M107.5,94.4c1,0,2,0.2,2.7,0.7c1.5,0.9,1.5,2.3,0,3.2c-0.7,0.4-1.7,0.6-2.7,0.6c-1,0-2-0.2-2.7-0.7 c-1.5-0.9-1.5-2.3,0-3.2C105.5,94.6,106.5,94.4,107.5,94.4 M107.5,94.1c-1.1,0-2.1,0.2-2.8,0.7c-0.8,0.5-1.2,1.1-1.2,1.8 c0,0.7,0.4,1.3,1.3,1.8c0.8,0.4,1.8,0.7,2.9,0.7c1.1,0,2.1-0.2,2.8-0.7c0.8-0.5,1.2-1.1,1.2-1.8c0-0.7-0.4-1.3-1.3-1.8 C109.6,94.4,108.6,94.1,107.5,94.1L107.5,94.1z"/></g></g><g><path fill="#FFDA99" stroke="#545453" stroke-width="1.281" stroke-miterlimit="10" d="M26.1,132.6l36.2,21.1l36.2-20.8 c0.2-0.1,0.2-0.4,0-0.5l-35.4-20.5c-0.4-0.2-0.9-0.2-1.3,0L26.1,132.6C26.1,132.6,26.1,132.6,26.1,132.6z"/><path fill="#FDBD56" d="M62.5,143.5c-6,0-11.7-1.4-15.9-3.8c-4.6-2.6-7-6.3-6.8-10.1l0-0.1v-5.8c-0.2-3.7,2.2-7.2,6.7-9.8 c4.1-2.4,10.2-3.8,16.1-3.8c5.8,0,11.2,1.3,15.6,3.9c4.2,2.4,6.6,5.7,6.8,9.2l0,0l0,0.1v6.2c0,0.1,0,0.1,0,0.2 c0.3,3.8-2.1,7.5-6.7,10.1C74,142.2,68.4,143.5,62.5,143.5C62.5,143.5,62.5,143.5,62.5,143.5z"/><path fill="#545453" d="M62.6,110.7c5.2,0,10.6,1.1,15.3,3.8c4.2,2.4,6.4,5.6,6.5,8.7c0,0,0,0,0,0v6.2c0,0,0,0.1,0,0.1 c0.3,3.5-1.8,7-6.3,9.6c-4.3,2.5-9.8,3.7-15.5,3.7c-5.6,0-11.3-1.2-15.6-3.7c-4.6-2.7-6.7-6.2-6.5-9.6c0,0,0-0.1,0-0.1v-5.8 c-0.1-3.3,2-6.7,6.4-9.2C50.5,112.3,56.4,110.7,62.6,110.7 M62.6,109.4c-6.1,0-12.2,1.5-16.5,3.9c-4.7,2.7-7.2,6.4-7,10.4v5.7 c0,0.1,0,0.1,0,0.2c-0.3,4,2.3,7.9,7.1,10.7c4.4,2.5,10.2,3.9,16.3,3.9c6.1,0,11.8-1.4,16.1-3.9c4.7-2.7,7.3-6.6,7-10.6 c0-0.1,0-0.2,0-0.3v-6.2v-0.2l0,0c-0.2-3.7-2.7-7.1-7.1-9.6C74,110.8,68.5,109.4,62.6,109.4L62.6,109.4z"/><path fill="#F7923F" stroke="#545453" stroke-width="1.281" stroke-miterlimit="10" d="M25.9,206.5v-73.3c0-0.3,0.3-0.4,0.5-0.3 l35.7,20.8l0.2,72.6c0,0.4-0.5,0.7-0.8,0.5L25.9,206.5z"/><path fill="#FDBD56" stroke="#545453" stroke-width="1.281" stroke-miterlimit="10" d="M98.9,206.4v-73.7c0-0.1-0.1-0.1-0.1-0.1 l-36.5,21c0,0,0,0,0,0.1v73.4c0,0,0.1,0.1,0.1,0.1L98.9,206.4C98.9,206.5,98.9,206.4,98.9,206.4z"/><path fill="#F7923F" d="M62.5,136.7c-6,0-11.7-1.4-15.9-3.8c-4.4-2.5-6.8-5.9-6.8-9.6c0-3.6,2.4-7,6.7-9.5 c4.2-2.4,9.8-3.8,15.8-3.8c6,0,11.7,1.4,15.9,3.8c4.4,2.5,6.8,5.9,6.8,9.6c0,3.6-2.4,7-6.7,9.5C74,135.4,68.4,136.7,62.5,136.7z"/><path fill="#545453" d="M62.2,110.7c5.6,0,11.3,1.2,15.6,3.7c8.6,5,8.7,13,0.1,17.9c-4.3,2.5-9.8,3.7-15.5,3.7 c-5.6,0-11.3-1.2-15.6-3.7c-8.6-5-8.7-13-0.1-17.9C51,111.9,56.6,110.7,62.2,110.7 M62.2,109.4L62.2,109.4 c-6.1,0-11.8,1.4-16.1,3.9c-4.5,2.6-7,6.2-7,10c0,3.9,2.5,7.5,7.1,10.1c4.4,2.5,10.2,3.9,16.3,3.9c6.1,0,11.8-1.4,16.1-3.9 c4.5-2.6,7-6.2,7-10c0-3.9-2.5-7.5-7.1-10.1C74.1,110.8,68.3,109.4,62.2,109.4L62.2,109.4z"/><path fill="#FFDA99" stroke="#545453" stroke-width=".316" stroke-miterlimit="10" d="M77.9,119.8c-8.6-4.2-22.5-4.2-31.1,0 c-2.7,1.3-5.4,3-6.4,4.7c-0.3-2.7,0.7-6.8,6.3-10.1c8.6-5.1,23.3-5.1,31.2,0c5.9,3.8,6.7,7.3,6.3,10.4 C83.3,123.2,80.6,121.1,77.9,119.8z"/><path fill="none" stroke="#545453" stroke-width=".809" d="M65.5,163.1v27.7c0,0.1,0.2,0.2,0.3,0.2l29.8-17.2 c0.1,0,0.1-0.1,0.1-0.2v-28c0-0.1-0.2-0.2-0.3-0.2l-29.8,17.5C65.5,163,65.5,163,65.5,163.1z"/><g fill="#545453"><path d="M67.4 172.6v1c0 .6.7 1 1.3.7l8.7-5c.3-.1.4-.4.4-.7l0-1c0-.6-.7-1-1.3-.7l-8.7 5C67.6 172.1 67.4 172.3 67.4 172.6zM67.4 177.2v1c0 .6.7 1 1.3.7l8.7-5c.3-.1.4-.4.4-.7l0-1c0-.6-.7-1-1.3-.7l-8.7 5C67.6 176.6 67.4 176.9 67.4 177.2zM67.4 181.6v1c0 .6.7 1 1.3.7l8.7-5c.3-.1.4-.4.4-.7l0-1c0-.6-.7-1-1.3-.7l-8.7 5C67.6 181 67.4 181.3 67.4 181.6zM67.4 186.1v1c0 .6.7 1 1.3.7l8.7-5c.3-.1.4-.4.4-.7l0-1c0-.6-.7-1-1.3-.7l-8.7 5C67.6 185.5 67.4 185.8 67.4 186.1zM67.4 168.1v1c0 .6.7 1 1.3.7l8.7-5c.3-.1.4-.4.4-.7l0-1c0-.6-.7-1-1.3-.7l-8.7 5C67.6 167.6 67.4 167.8 67.4 168.1zM67.4 163.8v1c0 .6.7 1 1.3.7l8.7-5c.3-.1.4-.4.4-.7l0-1c0-.6-.7-1-1.3-.7l-8.7 5C67.6 163.2 67.4 163.5 67.4 163.8z"/></g><g fill="#545453"><path d="M79.3 165.8v1c0 .6.7 1 1.3.7l8.7-5c.3-.1.4-.4.4-.7l0-1c0-.6-.7-1-1.3-.7l-8.7 5C79.5 165.3 79.3 165.5 79.3 165.8zM79.3 170.4v1c0 .6.7 1 1.3.7l8.7-5c.3-.1.4-.4.4-.7l0-1c0-.6-.7-1-1.3-.7l-8.7 5C79.5 169.8 79.3 170.1 79.3 170.4zM79.3 174.8v1c0 .6.7 1 1.3.7l8.7-5c.3-.1.4-.4.4-.7l0-1c0-.6-.7-1-1.3-.7l-8.7 5C79.5 174.2 79.3 174.5 79.3 174.8zM79.3 179.3v1c0 .6.7 1 1.3.7l8.7-5c.3-.1.4-.4.4-.7l0-1c0-.6-.7-1-1.3-.7l-8.7 5C79.5 178.7 79.3 179 79.3 179.3zM79.3 161.3v1c0 .6.7 1 1.3.7l8.7-5c.3-.1.4-.4.4-.7l0-1c0-.6-.7-1-1.3-.7l-8.7 5C79.5 160.8 79.3 161 79.3 161.3zM79.3 157v1c0 .6.7 1 1.3.7l8.7-5c.3-.1.4-.4.4-.7l0-1c0-.6-.7-1-1.3-.7l-8.7 5C79.5 156.4 79.3 156.7 79.3 157z"/></g><path fill="#FFDA99" stroke="#545453" stroke-width=".316" stroke-miterlimit="10" d="M61.9,123.7c0,0,0.8-3.3,4.8-5.7 c4-2.4,9.6-3.1,9.6-3.1s-0.8,3.3-4.8,5.7C67.6,123,61.9,123.7,61.9,123.7z"/><path fill="#FFDA99" stroke="#545453" stroke-width=".356" stroke-miterlimit="10" d="M83.8,124.2c0,0-4.9,2.7-11,2.7 c-6.1,0-11-2.7-11-2.7s4.9-2.7,11-2.7C78.9,121.5,83.8,124.2,83.8,124.2z"/><path fill="#FFDA99" stroke="#545453" stroke-width=".316" stroke-miterlimit="10" d="M62.6,123.7c0,0-0.8-3.3-4.8-5.7 c-4-2.4-9.6-3.1-9.6-3.1s0.8,3.3,4.8,5.7C57,123,62.6,123.7,62.6,123.7z"/><path fill="#FFDA99" stroke="#545453" stroke-width=".351" stroke-miterlimit="10" d="M41.3,124.2c0,0,4.8,2.7,10.7,2.7 s10.7-2.7,10.7-2.7s-4.8-2.7-10.7-2.7S41.3,124.2,41.3,124.2z"/><path fill="#FFDA99" stroke="#545453" stroke-width=".316" stroke-miterlimit="10" d="M62.3 123.4c0 0-2.7-2.7-2.8-6.1s2.6-6.1 2.6-6.1 2.7 2.7 2.8 6.1C65 120.6 62.3 123.4 62.3 123.4zM62.3 135.6c0 0-2.7-2.7-2.8-6.1 0-3.4 2.6-6.1 2.6-6.1s2.7 2.7 2.8 6.1C65 132.8 62.3 135.6 62.3 135.6z"/><path fill="#FFDA99" stroke="#545453" stroke-width=".316" stroke-miterlimit="10" d="M60.7,123.9c0,0,3.3-0.9,7.3,1.3 c4.1,2.3,7.4,6.9,7.4,6.9s-3.3,0.9-7.3-1.3C64.1,128.5,60.7,123.9,60.7,123.9z"/><path fill="#FFDA99" stroke="#545453" stroke-width=".316" stroke-miterlimit="10" d="M48.2,131.8c0,0,3.3,0.9,7.3-1.3 s7.4-6.9,7.4-6.9s-3.3-0.9-7.3,1.3S48.2,131.8,48.2,131.8z"/><path fill="#FFEBCC" d="M77.9,132.5c-8.6,4.9-22.5,4.9-31.1-0.1c-8.6-5-8.7-13-0.1-17.9c8.6-4.9,22.5-4.9,31.1,0.1 C86.4,119.5,86.5,127.5,77.9,132.5z" opacity=".7"/><g><path fill="none" stroke="#545453" stroke-width=".809" d="M29,173.6v-27.7c0-0.1,0.2-0.2,0.3-0.2l29.8,17.2 c0.1,0,0.1,0.1,0.1,0.2v28c0,0.1-0.2,0.2-0.3,0.2l-29.8-17.5C29,173.7,29,173.6,29,173.6z"/><g fill="#545453"><path d="M30.9 164.1v-1c0-.6.7-1 1.3-.7l8.7 5c.3.1.4.4.4.7l0 1c0 .6-.7 1-1.3.7l-8.7-5C31.1 164.6 30.9 164.4 30.9 164.1zM30.9 159.5v-1c0-.6.7-1 1.3-.7l8.7 5c.3.1.4.4.4.7l0 1c0 .6-.7 1-1.3.7l-8.7-5C31.1 160.1 30.9 159.8 30.9 159.5zM30.9 155.1v-1c0-.6.7-1 1.3-.7l8.7 5c.3.1.4.4.4.7l0 1c0 .6-.7 1-1.3.7l-8.7-5C31.1 155.7 30.9 155.4 30.9 155.1zM30.9 150.6v-1c0-.6.7-1 1.3-.7l8.7 5c.3.1.4.4.4.7l0 1c0 .6-.7 1-1.3.7l-8.7-5C31.1 151.2 30.9 150.9 30.9 150.6zM30.9 168.5v-1c0-.6.7-1 1.3-.7l8.7 5c.3.1.4.4.4.7l0 1c0 .6-.7 1-1.3.7l-8.7-5C31.1 169.1 30.9 168.8 30.9 168.5zM30.9 172.9v-1c0-.6.7-1 1.3-.7l8.7 5c.3.1.4.4.4.7l0 1c0 .6-.7 1-1.3.7l-8.7-5C31.1 173.5 30.9 173.2 30.9 172.9z"/></g><g fill="#545453"><path d="M42.8 170.8v-1c0-.6.7-1 1.3-.7l8.7 5c.3.1.4.4.4.7l0 1c0 .6-.7 1-1.3.7l-8.7-5C42.9 171.4 42.8 171.1 42.8 170.8zM42.8 166.3v-1c0-.6.7-1 1.3-.7l8.7 5c.3.1.4.4.4.7l0 1c0 .6-.7 1-1.3.7l-8.7-5C42.9 166.9 42.8 166.6 42.8 166.3zM42.8 161.9v-1c0-.6.7-1 1.3-.7l8.7 5c.3.1.4.4.4.7l0 1c0 .6-.7 1-1.3.7l-8.7-5C42.9 162.4 42.8 162.2 42.8 161.9zM42.8 157.4v-1c0-.6.7-1 1.3-.7l8.7 5c.3.1.4.4.4.7l0 1c0 .6-.7 1-1.3.7l-8.7-5C42.9 158 42.8 157.7 42.8 157.4zM42.8 175.3v-1c0-.6.7-1 1.3-.7l8.7 5c.3.1.4.4.4.7l0 1c0 .6-.7 1-1.3.7l-8.7-5C42.9 175.9 42.8 175.6 42.8 175.3zM42.8 179.7v-1c0-.6.7-1 1.3-.7l8.7 5c.3.1.4.4.4.7l0 1c0 .6-.7 1-1.3.7l-8.7-5C42.9 180.3 42.8 180 42.8 179.7z"/></g></g><g><path fill="#F7923F" d="M62.3,126.5c-1.1,0-2-0.2-2.8-0.7c-0.8-0.5-1.2-1.1-1.2-1.8l0-1c0-0.7,0.4-1.3,1.2-1.7 c0.7-0.4,1.8-0.7,2.8-0.7c1,0,2,0.2,2.7,0.7c0.7,0.4,1.2,1,1.2,1.6l0,1.1c0.1,0.7-0.4,1.3-1.2,1.8 C64.3,126.2,63.3,126.5,62.3,126.5L62.3,126.5z"/><path fill="#545453" d="M62.3,120.7c0.9,0,1.9,0.2,2.7,0.7c0.7,0.4,1.1,1,1.1,1.5c0,0,0,0,0,0v1.1c0,0,0,0,0,0 c0.1,0.6-0.3,1.2-1.1,1.7c-0.7,0.4-1.7,0.6-2.7,0.6c-1,0-2-0.2-2.7-0.7c-0.8-0.5-1.2-1.1-1.1-1.7c0,0,0,0,0,0v-1 c0-0.6,0.3-1.2,1.1-1.6C60.2,121,61.2,120.7,62.3,120.7 M62.3,120.5c-1.1,0-2.1,0.3-2.9,0.7c-0.8,0.5-1.3,1.1-1.2,1.8l0,1v0l0,0 c0,0.7,0.4,1.4,1.2,1.9c0.8,0.4,1.8,0.7,2.9,0.7c1.1,0,2.1-0.2,2.8-0.7c0.8-0.5,1.3-1.2,1.2-1.9l0,0v-1.1v0l0,0 c0-0.6-0.5-1.2-1.2-1.7C64.3,120.7,63.3,120.5,62.3,120.5L62.3,120.5z"/><g><path fill="#FFDA99" d="M62.3,125c-1.1,0-2-0.2-2.8-0.7c-0.8-0.4-1.2-1-1.2-1.7c0-0.6,0.4-1.2,1.2-1.7c0.7-0.4,1.7-0.7,2.8-0.7 c1.1,0,2,0.2,2.8,0.7c0.8,0.4,1.2,1,1.2,1.7c0,0.6-0.4,1.2-1.2,1.7C64.3,124.7,63.3,125,62.3,125z"/><path fill="#545453" d="M62.2,120.4c1,0,2,0.2,2.7,0.7c1.5,0.9,1.5,2.3,0,3.2c-0.7,0.4-1.7,0.6-2.7,0.6c-1,0-2-0.2-2.7-0.7 c-1.5-0.9-1.5-2.3,0-3.2C60.3,120.6,61.2,120.4,62.2,120.4 M62.2,120.2L62.2,120.2c-1.1,0-2.1,0.2-2.8,0.7 c-0.8,0.5-1.2,1.1-1.2,1.8c0,0.7,0.4,1.3,1.3,1.8c0.8,0.4,1.8,0.7,2.9,0.7c1.1,0,2.1-0.2,2.8-0.7c0.8-0.5,1.2-1.1,1.2-1.8 c0-0.7-0.4-1.3-1.3-1.8C64.3,120.4,63.3,120.2,62.2,120.2L62.2,120.2z"/></g></g></g><path fill="#F7923F" stroke="#545453" stroke-width=".542" stroke-miterlimit="10" d="M39,189.8l15.6,9v17.9c0,0,0,0,0,0L39,207.7	L39,189.8C39,189.8,39,189.8,39,189.8z"/><path fill="#FDBD56" stroke="#545453" stroke-width=".542" stroke-miterlimit="10" d="M57.4,197.2l-15.8-8.9l-2.6,1.5c0,0,0,0,0,0	l15.6,9L57.4,197.2C57.4,197.2,57.4,197.2,57.4,197.2z"/><path fill="#F7923F" stroke="#545453" stroke-width=".542" stroke-miterlimit="10" d="M91.1 201.2L91.1 205.8 95.7 203.3 95.7 198.6zM136.7 174.7L136.7 179.4 141.3 176.9 141.3 172.1zM183.1 148.7L183.1 153.4 187.7 150.9 187.7 146.1z"/><path fill="none" stroke="#939598" stroke-width="2.526" stroke-linecap="round" stroke-miterlimit="10" d="M56,217.2v12.5	c0,0.6,0.3,1.1,0.8,1.4l17.9,10.7c0.5,0.3,1.2,0.3,1.7,0l48.5-28.1c1.1-0.7,1.1-2.3-0.1-2.9l-0.1,0c-1.2-0.6-1.2-2.3-0.1-2.9	l14.8-8.4c0.5-0.3,1.1-0.3,1.6,0l3.3,1.7c0.5,0.3,1.1,0.3,1.6,0l69.9-40.4c1.1-0.6,1.1-2.2,0-2.9l-14.6-8.6"/><path fill="#FDBD56" stroke="#545453" stroke-width=".542" stroke-miterlimit="10" d="M54.6 198.9L54.6 216.8 54.6 216.8 57.4 215.1 57.4 197.2 57.4 197.2z"/><path fill="none" stroke="#939598" stroke-width="6.316" stroke-linecap="round" stroke-miterlimit="10" d="M95.4,203.5l14.7,8.1	c0.3,0.2,1.2-0.7,1.3-1.1l0.6-1.7c0.4-1.1,1.2-2.1,2.2-2.7l98.4-57.9"/><path fill="none" stroke="#6D6E71" stroke-width="2.842" stroke-linecap="round" stroke-miterlimit="10" d="M114.4 206.6L214.2 148.5M93.6 203.4L108.6 211.8M111.3 211.8L112.5 209"/><path fill="none" stroke="#E6E7E8" stroke-width=".947" stroke-linecap="round" stroke-miterlimit="10" d="M93.8 201.7L108.6 210.1M133.1 222L140.5 219.6M114.7 204.8L214.4 146.8M110.4 210.4L111.9 207.6"/><g stroke="#000" stroke-miterlimit="10"><path stroke-width=".381" d="M83.6,199.5l-1.5,0.9c-0.1-0.4-0.2-0.7-0.3-1 c-0.2-0.4-0.3-0.7-0.6-1l1-1.7c0-0.1,0-0.1,0-0.1l-1.9-1.1c0,0-0.1,0-0.1,0.1l-1,1.7c-0.4,0-0.8,0-1.2,0c-0.3,0.1-0.7,0.1-1,0.3 v-1.7c0-0.1,0-0.1-0.1,0l-2.7,1.6c0,0-0.1,0.1-0.1,0.1v1.7c-0.8,0.7-1.5,1.4-2.2,2.3l-1.1-0.6c0,0-0.1,0-0.1,0.1l-1.9,3.3 c0,0.1,0,0.1,0,0.1l1.1,0.6c-0.4,1-0.7,2-0.9,2.9l-1.6,0.9c0,0-0.1,0.1-0.1,0.1v3.1c0,0.1,0,0.1,0.1,0l1.7-1 c0.1,0.3,0.2,0.6,0.3,0.9c0.2,0.4,0.4,0.8,0.6,1.1l-1.1,1.9c0,0.1,0,0.1,0,0.1l1.9,1.1c0,0,0.1,0,0.1-0.1l1.2-2c0.4,0,0.7,0,1.1,0 c0.3-0.1,0.7-0.1,1-0.3v1.8c0,0.1,0,0.1,0.1,0l2.7-1.6c0,0,0.1-0.1,0.1-0.1v-1.8c0.7-0.6,1.4-1.4,2.1-2.2l1.1,0.6 c0,0,0.1,0,0.1-0.1l1.9-3.3c0-0.1,0-0.1,0-0.1l-1.1-0.6c0.4-1,0.7-2,0.9-3l1.5-0.9c0,0,0.1-0.1,0.1-0.1L83.6,199.5 C83.6,199.5,83.6,199.5,83.6,199.5z"/><path fill="#E6E7E8" stroke-width=".265" d="M79.6,203.4c0,2.6-1.8,5.7-4.1,7 s-4.1,0.3-4.1-2.3s1.8-5.7,4.1-7C77.8,199.7,79.6,200.8,79.6,203.4z"/><path stroke-width=".381" d="M77.6,204.6c0,1.3-0.9,2.8-2,3.5c-1.1,0.6-2,0.1-2-1.2 s0.9-2.8,2-3.5C76.7,202.8,77.6,203.3,77.6,204.6z"/></g><g stroke="#000" stroke-miterlimit="10"><path stroke-width=".381" d="M127.8,175.4l-1.5,0.9c-0.1-0.4-0.2-0.7-0.3-1 c-0.2-0.4-0.3-0.7-0.6-1l1-1.7c0-0.1,0-0.1,0-0.1l-1.9-1.1c0,0-0.1,0-0.1,0.1l-1,1.7c-0.4,0-0.8,0-1.2,0c-0.3,0.1-0.7,0.1-1,0.3 v-1.7c0-0.1,0-0.1-0.1,0l-2.7,1.6c0,0-0.1,0.1-0.1,0.1v1.7c-0.8,0.7-1.5,1.4-2.2,2.3l-1.1-0.6c0,0-0.1,0-0.1,0.1l-1.9,3.3 c0,0.1,0,0.1,0,0.1l1.1,0.6c-0.4,1-0.7,2-0.9,2.9l-1.6,0.9c0,0-0.1,0.1-0.1,0.1v3.1c0,0.1,0,0.1,0.1,0l1.7-1 c0.1,0.3,0.2,0.6,0.3,0.9c0.2,0.4,0.4,0.8,0.6,1.1l-1.1,1.9c0,0.1,0,0.1,0,0.1l1.9,1.1c0,0,0.1,0,0.1-0.1l1.2-2c0.4,0,0.7,0,1.1,0 c0.3-0.1,0.7-0.1,1-0.3v1.8c0,0.1,0,0.1,0.1,0l2.7-1.6c0,0,0.1-0.1,0.1-0.1v-1.8c0.7-0.6,1.4-1.4,2.1-2.2l1.1,0.6 c0,0,0.1,0,0.1-0.1l1.9-3.3c0-0.1,0-0.1,0-0.1l-1.1-0.6c0.4-1,0.7-2,0.9-3l1.5-0.9c0,0,0.1-0.1,0.1-0.1L127.8,175.4 C127.9,175.4,127.9,175.3,127.8,175.4z"/><path fill="#E6E7E8" stroke-width=".265" d="M123.9,179.2c0,2.6-1.8,5.7-4.1,7 c-2.2,1.3-4.1,0.3-4.1-2.3s1.8-5.7,4.1-7C122.1,175.6,123.9,176.7,123.9,179.2z"/><path stroke-width=".381" d="M121.8,180.4c0,1.3-0.9,2.8-2,3.5c-1.1,0.6-2,0.1-2-1.2 s0.9-2.8,2-3.5C120.9,178.6,121.8,179.2,121.8,180.4z"/></g><g stroke="#000" stroke-miterlimit="10"><path stroke-width=".381" d="M173.8,149.3l-1.5,0.9c-0.1-0.4-0.2-0.7-0.3-1 c-0.2-0.4-0.3-0.7-0.6-1l1-1.7c0-0.1,0-0.1,0-0.1l-1.9-1.1c0,0-0.1,0-0.1,0.1l-1,1.7c-0.4,0-0.8,0-1.2,0c-0.3,0.1-0.7,0.1-1,0.3 v-1.7c0-0.1,0-0.1-0.1,0l-2.7,1.6c0,0-0.1,0.1-0.1,0.1v1.7c-0.8,0.7-1.5,1.4-2.2,2.3l-1.1-0.6c0,0-0.1,0-0.1,0.1l-1.9,3.3 c0,0.1,0,0.1,0,0.1l1.1,0.6c-0.4,1-0.7,2-0.9,2.9l-1.6,0.9c0,0-0.1,0.1-0.1,0.1v3.1c0,0.1,0,0.1,0.1,0l1.7-1 c0.1,0.3,0.2,0.6,0.3,0.9c0.2,0.4,0.4,0.8,0.6,1.1l-1.1,1.9c0,0.1,0,0.1,0,0.1l1.9,1.1c0,0,0.1,0,0.1-0.1l1.2-2c0.4,0,0.7,0,1.1,0 c0.3-0.1,0.7-0.1,1-0.3v1.8c0,0.1,0,0.1,0.1,0l2.7-1.6c0,0,0.1-0.1,0.1-0.1V162c0.7-0.6,1.4-1.4,2.1-2.2l1.1,0.6c0,0,0.1,0,0.1-0.1 l1.9-3.3c0-0.1,0-0.1,0-0.1l-1.1-0.6c0.4-1,0.7-2,0.9-3l1.5-0.9c0,0,0.1-0.1,0.1-0.1L173.8,149.3 C173.9,149.2,173.9,149.2,173.8,149.3z"/><path fill="#E6E7E8" stroke-width=".265" d="M169.9,153.1c0,2.6-1.8,5.7-4.1,7 c-2.2,1.3-4.1,0.3-4.1-2.3s1.8-5.7,4.1-7C168.1,149.5,169.9,150.5,169.9,153.1z"/><path stroke-width=".381" d="M167.9,154.3c0,1.3-0.9,2.8-2,3.5s-2,0.1-2-1.2 s0.9-2.8,2-3.5C167,152.5,167.9,153,167.9,154.3z"/></g><g><path d="M91.3 247.4l3.3-1.9c.9-.5 1.7-.9 2.3-1.1.6-.2 1.1-.3 1.6-.3.5 0 .9.1 1.3.2.4.1 1 .4 1.6.8l.9.5c.7.4 1.1.7 1.3 1 .1.3.1.6-.2 1-.3.4-.8.7-1.5 1.2l-.9.5 4.4 2.5-3.3 1.9L91.3 247.4zM96.4 246.6l2.8 1.6c.1-.1.2-.1.3-.1.3-.2.5-.3.4-.5 0-.1-.2-.3-.6-.6l-.9-.5c-.4-.2-.7-.3-.9-.3C97.2 246.2 96.9 246.3 96.4 246.6zM99.4 242.7l2.3-1.4c1.6-.9 2.7-1.5 3.3-1.7.7-.3 1.4-.4 2.1-.3.8 0 1.6.3 2.5.9.8.5 1.3.9 1.3 1.2 0 .3-.3.7-.9 1.1.8-.3 1.4-.4 1.9-.4.5 0 .8 0 1.1.1s.8.4 1.7.9l2.9 1.7-3.1 1.8-3.6-2.1c-.6-.3-1-.5-1.2-.5-.2 0-.6.1-1.1.4l4.9 2.8-3.3 1.9L99.4 242.7zM104.5 241.9l2.4 1.4c.4-.2.6-.4.7-.5.1-.1-.1-.3-.6-.6l-.6-.3c-.3-.2-.6-.3-.9-.3C105.2 241.5 104.9 241.7 104.5 241.9zM122 237c1.1.6 1.8 1.1 2.2 1.4.4.3.6.6.7 1 .1.4-.1.8-.4 1.2-.3.4-.9.8-1.6 1.3-.7.4-1.4.7-2.1.9-.7.2-1.5.3-2.2.3-.7 0-1.3-.2-1.8-.4-.5-.2-1.3-.7-2.4-1.3l-1.9-1.1c-1.1-.6-1.8-1.1-2.2-1.4-.4-.3-.6-.6-.7-1-.1-.4.1-.8.4-1.2.3-.4.9-.8 1.6-1.3.7-.4 1.4-.7 2.1-.9.7-.2 1.5-.3 2.2-.3.7 0 1.3.2 1.8.4.5.2 1.3.7 2.4 1.3L122 237zM115.1 236.9c-.5-.3-.9-.5-1.1-.5s-.4 0-.6.1c-.2.1-.2.2-.2.3 0 .1.3.3.9.7l5.1 2.9c.6.4 1 .6 1.3.6.2.1.4 0 .6-.1.2-.1.3-.3.2-.4-.1-.1-.5-.4-1.1-.8L115.1 236.9zM116.8 232.6l5.6-3.2 2.2 1.3-2.3 1.3 2.1 1.2 2-1.2 2.1 1.2-2 1.2 4.6 2.6-3.3 1.9L116.8 232.6zM129.9 225.1l2.2 1.3-2 1.1 8.7 5-3.3 1.9-8.7-5-2 1.1-2.2-1.3L129.9 225.1zM130.7 224.6l5.5-3.2 2.2 1.3-2.2 1.3 2.1 1.2 2.1-1.2 2.1 1.2-2.1 1.2 2.4 1.4 2.4-1.4 2.2 1.3-5.7 3.3L130.7 224.6zM149.8 219l-3.3 1.9-1.9-1.1c-.5-.3-.9-.5-1.1-.5-.2 0-.4 0-.7.2-.3.2-.4.3-.3.4.1.1.4.4 1 .7l5 2.9c.5.3.9.5 1.1.5.2.1.5 0 .7-.1.2-.1.3-.3.2-.4-.1-.1-.4-.4-1-.7l-1.4-.8 3.3-1.9.4.2c1.1.6 1.8 1.2 2.1 1.5.3.4.3.9 0 1.4-.3.6-.9 1.1-1.8 1.7-1 .6-1.9.9-2.8 1.1-.9.2-1.8.2-2.5 0-.7-.2-1.6-.6-2.7-1.2l-3.2-1.8c-.8-.5-1.3-.8-1.7-1.1-.3-.3-.5-.6-.6-1 0-.4.1-.8.4-1.2.3-.4.9-.9 1.6-1.3 1-.6 1.9-.9 2.9-1.1 1-.2 1.8-.2 2.5 0 .7.2 1.5.5 2.5 1.1L149.8 219zM153.9 211.2l10.8 6.3-3.3 1.9-4.6-2.6-1 .6 4.6 2.6-3.3 1.9-10.8-6.3 3.3-1.9 3.9 2.2 1-.6-3.9-2.2L153.9 211.2z"/><path fill="#FFF" stroke="#000" stroke-width="1.141" stroke-miterlimit="10" d="M258.1,166.1l-85.3,49.2 c-1.1,0.6-2.9,0.6-4.1,0l-11.8-6.8c-1.1-0.6-1.1-1.6,0.1-2c0.3-0.1,0.5-0.2,0.7-0.4l84.3-48.7c0.2-0.1,0.4-0.3,0.6-0.4 c0.8-0.7,2.5-0.7,3.5,0l11.8,6.8C259.2,164.4,259.3,165.5,258.1,166.1z"/><g fill="#F5A722"><path d="M161.7 206.6l5.5-3.2 2.2 1.3-2.2 1.3 2.1 1.2 2.1-1.2 2.1 1.2-2.1 1.2 2.4 1.4 2.4-1.4 2.2 1.3-5.7 3.3L161.7 206.6zM175.8 198.5l10.8 6.3-2.9 1.7-6.7-1.9 4.9 2.8-2.8 1.6-10.8-6.3 2.8-1.6 6.7 1.7-4.9-2.8L175.8 198.5zM188.8 195.6l-3.3 1.9-1-.6c-.6-.4-1-.6-1.3-.6-.2-.1-.4 0-.7.1-.2.1-.3.2-.2.4.1.1.4.3.9.7l5.2 3c.5.3.8.4 1.1.5.2 0 .5 0 .7-.1.2-.1.3-.3.2-.4-.1-.2-.4-.4-.9-.7l-1.3-.7-.7.4-1.6-1 3.9-2.2 5.8 3.4-2.1 1.2-1.1-.3c.1.3.1.6-.1.9-.2.3-.5.6-1 .8-.6.3-1.2.6-1.9.7-.7.1-1.4.2-2 .1-.6-.1-1.1-.2-1.5-.3-.4-.2-1-.5-1.8-.9L181 200c-1-.6-1.7-1.1-2.1-1.4-.3-.3-.4-.8-.2-1.4.2-.6.8-1.2 1.8-1.7 1-.6 1.9-.9 2.9-1.1 1-.2 1.8-.2 2.5 0 .7.2 1.4.5 2.3 1L188.8 195.6zM189.4 190.6l10.8 6.3-3.3 1.9-10.8-6.3L189.4 190.6zM198.1 185.6l10.8 6.3-2.9 1.7-6.7-1.9 4.9 2.8-2.8 1.6-10.8-6.3 2.8-1.6 6.7 1.7-4.9-2.8L198.1 185.6zM199.4 184.8l5.5-3.2 2.2 1.3-2.2 1.3 2.1 1.2 2.1-1.2 2.1 1.2-2.1 1.2 2.4 1.4 2.4-1.4 2.2 1.3-5.7 3.3L199.4 184.8zM206.1 181l5.5-3.2 2.2 1.3-2.2 1.3 2.1 1.2 2.1-1.2 2.1 1.2-2.1 1.2 2.4 1.4 2.4-1.4 2.2 1.3-5.7 3.3L206.1 181zM212.8 177.1l2.3-1.4c1.6-.9 2.7-1.5 3.3-1.7.7-.3 1.4-.4 2.1-.3.8 0 1.6.3 2.5.9.8.5 1.3.9 1.3 1.2 0 .3-.3.7-.9 1.1.8-.3 1.4-.4 1.9-.4.5 0 .8 0 1.1.1s.8.4 1.7.9l2.9 1.7-3.1 1.8-3.6-2.1c-.6-.3-1-.5-1.2-.5-.2 0-.6.1-1.1.4l4.9 2.8-3.3 1.9L212.8 177.1zM218 176.3l2.4 1.4c.4-.2.6-.4.7-.5.1-.1-.1-.3-.6-.6l-.6-.3c-.3-.2-.6-.3-.9-.3C218.7 175.9 218.4 176.1 218 176.3zM224.8 170.2l10.8 6.3-3.3 1.9-10.8-6.3L224.8 170.2zM233.5 165.2l10.8 6.3-2.9 1.7-6.7-1.9 4.9 2.8-2.8 1.6-10.8-6.3 2.8-1.6 6.7 1.7-4.9-2.8L233.5 165.2zM246.4 162.3l-3.3 1.9-1-.6c-.6-.4-1-.6-1.3-.6-.2-.1-.4 0-.7.1-.2.1-.3.2-.2.4.1.1.4.3.9.7l5.2 3c.5.3.8.4 1.1.5.2 0 .5 0 .7-.1.2-.1.3-.3.2-.4-.1-.2-.4-.4-.9-.7l-1.3-.7-.7.4-1.6-1 3.9-2.2 5.8 3.4-2.1 1.2-1.1-.3c.1.3.1.6-.1.9-.2.3-.5.6-1 .8-.6.3-1.2.6-1.9.7-.7.1-1.4.2-2 .1-.6-.1-1.1-.2-1.5-.3-.4-.2-1-.5-1.8-.9l-3.2-1.9c-1-.6-1.7-1.1-2.1-1.4-.3-.3-.4-.8-.2-1.4.2-.6.8-1.2 1.8-1.7 1-.6 1.9-.9 2.9-1.1 1-.2 1.8-.2 2.5 0 .7.2 1.4.5 2.3 1L246.4 162.3z"/></g></g></svg>