<svg xmlns="http://www.w3.org/2000/svg" viewBox="0 0 283.5 283.5" id="ctp"><path opacity=".4" fill="#FDBD56" stroke="#545453" stroke-width=".555" stroke-miterlimit="10" d="M269,162.3l-158.5,91 c-0.6,0.4-1.4,0.4-2.1,0l-95.8-55.7c-1.4-0.8-1.4-2.8,0-3.6L171,103.8c0.6-0.4,1.4-0.4,2.1,0l95.9,54.9 C270.4,159.5,270.4,161.5,269,162.3z"/><g fill="#808285" stroke="#545453" stroke-width="3.975" stroke-miterlimit="10"><path opacity=".5" d="M172.1,45l0.1,55.1 l97.7,56.4c0.4,0.2,1-0.1,1-0.6v-56l-98.5-55.1C172.3,44.8,172.1,44.9,172.1,45z"/><path opacity=".2" d="M270.9 99L276.9 95.7 172.1 36.5 4.9 131.4 12.6 135.8 172.2 43.7z"/><path opacity=".5" d="M12.9,191.7l0.1-55.4 l157.4-90.5c0.1-0.1,0.3,0,0.3,0.1v55.7L12.9,191.7z"/></g><path fill="none" stroke="#808285" stroke-width="2.929" stroke-linecap="round" stroke-miterlimit="10" d="M120.2 144.4L198.6 99.6"/><g stroke="#545453" stroke-width=".155" stroke-miterlimit="10"><path fill="#E6E7E8" d="M222.4,148.7c0.2-0.1,0.4-0.2,0.6-0.3 c0.7-0.5,1.8-0.4,2.9,0.3c2.2,1.3,4.1,4.4,4.1,7c0,1.4-0.5,2.3-1.4,2.7c-0.2,0.1-0.4,0.2-0.6,0.3c-0.7,0.5-1.8,0.4-2.9-0.3 c-2.2-1.3-4.1-4.4-4.1-7C221,150,221.6,149,222.4,148.7z"/><path fill="#BCBEC0" d="M221,151.4c0,2.6,1.8,5.7,4.1,7 s4.1,0.3,4.1-2.3s-1.8-5.7-4.1-7S221,148.8,221,151.4z"/></g><path fill="none" stroke="#808285" stroke-width="2.929" stroke-linecap="round" stroke-miterlimit="10" d="M105 181.9v-12c0-.9.5-1.7 1.2-2.1l25.3-14.9c1.6-1 3.7.2 3.7 2.1l0 8.9M213 159.9L165.1 132.5M225.1 153.5L171.6 184.3 128.7 209M141.4 201.6v-11.3c0-.9.5-1.7 1.2-2.1l25.3-14.9c1.6-1 3.7.2 3.7 2.1l0 8.9M166.2 147.4l19.9 11.5c1.6.9 3.7-.2 3.7-2.1l.2-8.8c0-.9.5-1.7 1.2-2.1l29-16.7"/><path fill="#E6E7E8" stroke="#D1D3D4" stroke-width="2.929" stroke-linecap="round" stroke-miterlimit="10" d="M214 125.7L166.1 98.3"/><path fill="none" stroke="#808285" stroke-width="2.929" stroke-linecap="round" stroke-miterlimit="10" d="M160.6,175.8v-46.9 c0-2,1.1-3.9,2.9-4.9l0.8-0.4c3.8-2.1,3.8-7.5,0.1-9.7l-23-13.1c-1.7-1-3.8-1-5.4,0l-13,7.2c-1.8,1-2.9,2.8-2.9,4.9l0,31"/><path fill="none" stroke="#BCBEC0" stroke-width="2.929" stroke-linecap="round" stroke-miterlimit="10" d="M171.6,152.8v7.4 c0,1.9,2.1,3.1,3.7,2.1l28.9-16.7c1.6-1,3.7,0.2,3.7,2.1v14"/><path fill="none" stroke="#E6E7E8" stroke-width="2.929" stroke-linecap="round" stroke-miterlimit="10" d="M155.6,104.3l8.2,4.5 c1.7,0.9,1.7,3.3,0.1,4.3l-50,29.5"/><path fill="none" stroke="#808285" stroke-width="2.929" stroke-linecap="round" stroke-miterlimit="10" d="M60.4,178.6v9 c0,2.8,2.3,5,5,5h19.9c1.2,0,2.4-0.3,3.4-0.9l79.1-46.5c1.7-1,1.6-3.4-0.1-4.3l-8.2-4.5"/><path fill="#E6E7E8" stroke="#D1D3D4" stroke-width="2.929" stroke-linecap="round" stroke-miterlimit="10" d="M228.3 119.5L132 175.2"/><g stroke="#545453" stroke-miterlimit="10"><path fill="#F7923F" stroke-width=".234" d="M133.1,130c0,0.3,0.3,0.6,0.6,0.6l0,0 c0.3,0,0.6-0.3,0.6-0.6v-4.3c0-0.3-0.3-0.6-0.6-0.6l0,0c-0.3,0-0.6,0.3-0.6,0.6V130z"/><path fill="#F7923F" stroke-width=".234" d="M130.8,122.9c0-1.5,1.1-3.4,2.4-4.2 c0.7-0.4,1.4-0.4,1.8-0.1l1.5,0.8c0,0,0,0,0,0c0.4,0.2,0.7,0.8,0.7,1.6c0,1.5-1.1,3.4-2.4,4.2c-0.7,0.4-1.2,0.4-1.7,0.2 c0,0,0,0,0,0l-1.6-0.9c0,0,0,0,0,0c0,0-0.1-0.1-0.1-0.1C131,124.1,130.8,123.6,130.8,122.9z"/><path fill="#FFEBCC" stroke-width=".217" d="M132.4,123.8c0,1.5,1.1,2.1,2.4,1.4 c1.3-0.8,2.4-2.6,2.4-4.2c0-1.5-1.1-2.1-2.4-1.4C133.5,120.4,132.4,122.3,132.4,123.8z"/></g><g stroke="#545453" stroke-width=".155" stroke-miterlimit="10"><path fill="#E6E7E8" d="M112.4,157.4c0.2-0.1,0.4-0.2,0.6-0.3 c0.7-0.5,1.8-0.4,2.9,0.3c2.2,1.3,4.1,4.4,4.1,7c0,1.4-0.5,2.3-1.4,2.7c-0.2,0.1-0.4,0.2-0.6,0.3c-0.7,0.5-1.8,0.4-2.9-0.3 c-2.2-1.3-4.1-4.4-4.1-7C111.1,158.7,111.6,157.7,112.4,157.4z"/><path fill="#BCBEC0" d="M111,160.1c0,2.6,1.8,5.7,4.1,7 c2.2,1.3,4.1,0.3,4.1-2.3s-1.8-5.7-4.1-7C112.9,156.4,111,157.5,111,160.1z"/></g><g stroke="#545453" stroke-width=".155" stroke-miterlimit="10"><path fill="#E6E7E8" d="M199.2,161.7c0.2-0.1,0.4-0.2,0.6-0.3 c0.7-0.5,1.8-0.4,2.9,0.3c2.2,1.3,4.1,4.4,4.1,7c0,1.4-0.5,2.3-1.4,2.7c-0.2,0.1-0.4,0.2-0.6,0.3c-0.7,0.5-1.8,0.4-2.9-0.3 c-2.2-1.3-4.1-4.4-4.1-7C197.9,163,198.4,162.1,199.2,161.7z"/><path fill="#BCBEC0" d="M197.8,164.4c0,2.6,1.8,5.7,4.1,7 c2.2,1.3,4.1,0.3,4.1-2.3c0-2.6-1.8-5.7-4.1-7C199.6,160.8,197.8,161.8,197.8,164.4z"/></g><path fill="#BCBEC0" stroke="#545453" stroke-width=".077" stroke-miterlimit="10" d="M198.7,165.4c0,0.3,0.2,0.5,0.5,0.5 l0,0c0.3,0,0.5-0.2,0.5-0.5v-8.3c0-0.3-0.2-0.5-0.5-0.5l0,0c-0.3,0-0.5,0.2-0.5,0.5V165.4z"/><path fill="#F7923F" stroke="#545453" stroke-width=".155" stroke-miterlimit="10" d="M200.1 164.6c-.4.3-.6.8-.4 1.1l.1.1c.2.3.7.4 1.2.1l2-1.2c.4-.3.6-.8.4-1.1l-.1-.1c-.2-.3-.7-.4-1.2-.1L200.1 164.6zM202 170.8c-.4.3-.6.8-.4 1.1l.1.1c.2.3.7.4 1.2.1l2-1.2c.4-.3.6-.8.4-1.1l-.1-.1c-.2-.3-.7-.4-1.2-.1L202 170.8zM201.7 167.3c-.4.3-.6.8-.4 1.1l.1.1c.2.3.7.4 1.2.1l2-1.2c.4-.3.6-.8.4-1.1l-.1-.1c-.2-.3-.7-.4-1.2-.1L201.7 167.3z"/><g stroke="#545453" stroke-width=".155" stroke-miterlimit="10"><path fill="#E6E7E8" d="M194.7,164.3c0.2-0.1,0.4-0.2,0.6-0.3 c0.7-0.5,1.8-0.4,2.9,0.3c2.2,1.3,4.1,4.4,4.1,7c0,1.4-0.5,2.3-1.4,2.7c-0.2,0.1-0.4,0.2-0.6,0.3c-0.7,0.5-1.8,0.4-2.9-0.3 c-2.2-1.3-4.1-4.4-4.1-7C193.3,165.6,193.9,164.7,194.7,164.3z"/><path fill="#BCBEC0" d="M193.3,167c0,2.6,1.8,5.7,4.1,7 s4.1,0.3,4.1-2.3s-1.8-5.7-4.1-7S193.3,164.5,193.3,167z"/></g><g stroke="#545453" stroke-width=".155" stroke-miterlimit="10"><path fill="#F7923F" d="M196.7,156c0,0.1,0,0.2,0,0.3 c0,0.4,0.3,0.7,0.8,1c1,0.5,2.5,0.5,3.5-0.1c0.5-0.3,0.7-0.7,0.7-1.1c0-0.1,0-0.2,0-0.3c0-0.4-0.3-0.7-0.8-1 c-1-0.5-2.5-0.5-3.5,0.1C196.9,155.2,196.7,155.6,196.7,156z"/><path fill="#FDBD56" d="M201,154.9c-0.9-0.6-2.5-0.6-3.5-0.1 s-1,1.4-0.1,2c0.9,0.6,2.5,0.6,3.5,0.1S201.9,155.5,201,154.9z"/></g><path fill="none" stroke="#BCBEC0" stroke-width=".465" stroke-linecap="round" stroke-miterlimit="10" d="M203.6,151.3l-2.4,1.5 c0,0-0.1,0-0.1-0.1l1-2"/><g stroke-miterlimit="10"><g stroke="#545453" stroke-width=".155"><path fill="#E6E7E8" d="M196.9,108.4c-0.2-0.1-0.4-0.2-0.6-0.3 c-0.7-0.5-1.8-0.4-2.9,0.3c-2.2,1.3-4.1,4.4-4.1,7c0,1.4,0.5,2.3,1.4,2.7c0.2,0.1,0.4,0.2,0.6,0.3c0.7,0.5,1.8,0.4,2.9-0.3 c2.2-1.3,4.1-4.4,4.1-7C198.3,109.7,197.8,108.8,196.9,108.4z"/><path fill="#BCBEC0" d="M198.3,111.1c0,2.6-1.8,5.7-4.1,7 c-2.2,1.3-4.1,0.3-4.1-2.3c0-2.6,1.8-5.7,4.1-7S198.3,108.5,198.3,111.1z"/></g><path fill="#BCBEC0" stroke="#545453" stroke-width=".077" d="M197.5,112.1 c0,0.3-0.2,0.5-0.5,0.5l0,0c-0.3,0-0.5-0.2-0.5-0.5v-8.3c0-0.3,0.2-0.5,0.5-0.5l0,0c0.3,0,0.5,0.2,0.5,0.5V112.1z"/><path fill="#F7923F" stroke="#545453" stroke-width=".155" d="M196.1 111.3c.4.3.6.8.4 1.1l-.1.1c-.2.3-.7.4-1.2.1l-2-1.2c-.4-.3-.6-.8-.4-1.1l.1-.1c.2-.3.7-.4 1.2-.1L196.1 111.3zM194.2 117.5c.4.3.6.8.4 1.1l-.1.1c-.2.3-.7.4-1.2.1l-2-1.2c-.4-.3-.6-.8-.4-1.1l.1-.1c.2-.3.7-.4 1.2-.1L194.2 117.5zM194.5 114c.4.3.6.8.4 1.1l-.1.1c-.2.3-.7.4-1.2.1l-2-1.2c-.4-.3-.6-.8-.4-1.1l.1-.1c.2-.3.7-.4 1.2-.1L194.5 114z"/><path fill="#E6E7E8" stroke="#545453" stroke-width=".155" d="M201.4,111c-0.2-0.1-0.4-0.2-0.6-0.3 c-0.7-0.5-1.8-0.4-2.9,0.3c-2.2,1.3-4.1,4.4-4.1,7c0,1.4,0.5,2.3,1.4,2.7c0.2,0.1,0.4,0.2,0.6,0.3c0.7,0.5,1.8,0.4,2.9-0.3 c2.2-1.3,4.1-4.4,4.1-7C202.8,112.4,202.3,111.4,201.4,111z"/><path fill="#BCBEC0" stroke="#545453" stroke-width=".155" d="M202.8,113.8c0,2.6-1.8,5.7-4.1,7 c-2.2,1.3-4.1,0.3-4.1-2.3c0-2.6,1.8-5.7,4.1-7S202.8,111.2,202.8,113.8z"/><path fill="#F7923F" stroke="#545453" stroke-width=".155" d="M194.5,103.4c0,0.1,0,0.2,0,0.3 c0,0.4,0.3,0.7,0.8,1c1,0.5,2.5,0.5,3.5-0.1c0.5-0.3,0.7-0.7,0.7-1.1c0-0.1,0-0.2,0-0.3c0-0.4-0.3-0.7-0.8-1 c-1-0.5-2.5-0.5-3.5,0.1C194.7,102.6,194.5,103,194.5,103.4z"/><path fill="#FDBD56" stroke="#545453" stroke-width=".155" d="M195.2,102.2c0.9-0.6,2.5-0.6,3.5-0.1 c1,0.5,1,1.4,0.1,2c-0.9,0.6-2.5,0.6-3.5,0.1C194.3,103.7,194.2,102.8,195.2,102.2z"/><g fill="#BCBEC0" stroke="#545453" stroke-width=".077"><path d="M197,102.9l-1.6-2.6 c0,0-0.1,0-0.1,0l-0.4,0.2c0,0-0.1,0-0.1,0.1l0.2,1.8l1.2,0.6c0.1,0.1,0.2-0.1,0.2-0.2l-0.2-0.4L197,102.9z"/><path d="M195.1,102.4 C195.1,102.4,195.1,102.4,195.1,102.4l-0.3-1.8c0-0.1,0.1-0.1,0.1-0.1l1.5,2.3c0,0.1,0,0.2-0.1,0.1L195.1,102.4z"/></g><g fill="#FDBD56" stroke="#545453" stroke-width=".077"><path d="M195.9,102.4c0,0,0,0.1,0,0.1 c0,0.2,0.1,0.3,0.3,0.4c0.4,0.2,1.1,0.2,1.5,0c0.2-0.1,0.3-0.3,0.3-0.5c0,0,0-0.1,0-0.1c0-0.2-0.1-0.3-0.3-0.4 c-0.4-0.2-1.1-0.2-1.5,0C196,102.1,195.9,102.3,195.9,102.4z"/><path d="M196.2,102c0.4-0.2,1.1-0.3,1.5,0 s0.4,0.6,0,0.9s-1.1,0.3-1.5,0S195.8,102.2,196.2,102z"/></g><path fill="none" stroke="#808285" stroke-width=".465" stroke-linecap="round" d="M192.6,98.9l2.4,1.5 c0,0,0.1,0,0.1-0.1l-1-2"/></g><g stroke-miterlimit="10"><g stroke="#545453" stroke-width=".155"><path fill="#E6E7E8" d="M148.7,149.3c0.2-0.1,0.4-0.2,0.6-0.3 c0.7-0.5,1.8-0.4,2.9,0.3c2.2,1.3,4.1,4.4,4.1,7c0,1.4-0.5,2.3-1.4,2.7c-0.2,0.1-0.4,0.2-0.6,0.3c-0.7,0.5-1.8,0.4-2.9-0.3 c-2.2-1.3-4.1-4.4-4.1-7C147.3,150.6,147.8,149.6,148.7,149.3z"/><path fill="#BCBEC0" d="M147.3,152c0,2.6,1.8,5.7,4.1,7 c2.2,1.3,4.1,0.3,4.1-2.3s-1.8-5.7-4.1-7C149.1,148.4,147.3,149.4,147.3,152z"/></g><path fill="#BCBEC0" stroke="#545453" stroke-width=".077" d="M148.1,153c0,0.3,0.2,0.5,0.5,0.5 l0,0c0.3,0,0.5-0.2,0.5-0.5v-8.3c0-0.3-0.2-0.5-0.5-0.5l0,0c-0.3,0-0.5,0.2-0.5,0.5V153z"/><path fill="#F7923F" stroke="#545453" stroke-width=".155" d="M149.5 152.2c-.4.3-.6.8-.4 1.1l.1.1c.2.3.7.4 1.2.1l2-1.2c.4-.3.6-.8.4-1.1l-.1-.1c-.2-.3-.7-.4-1.2-.1L149.5 152.2zM151.4 158.4c-.4.3-.6.8-.4 1.1l.1.1c.2.3.7.4 1.2.1l2-1.2c.4-.3.6-.8.4-1.1l-.1-.1c-.2-.3-.7-.4-1.2-.1L151.4 158.4zM151.1 154.9c-.4.3-.6.8-.4 1.1l.1.1c.2.3.7.4 1.2.1l2-1.2c.4-.3.6-.8.4-1.1l-.1-.1c-.2-.3-.7-.4-1.2-.1L151.1 154.9z"/><path fill="#E6E7E8" stroke="#545453" stroke-width=".155" d="M144.2,151.9c0.2-0.1,0.4-0.2,0.6-0.3 c0.7-0.5,1.8-0.4,2.9,0.3c2.2,1.3,4.1,4.4,4.1,7c0,1.4-0.5,2.3-1.4,2.7c-0.2,0.1-0.4,0.2-0.6,0.3c-0.7,0.5-1.8,0.4-2.9-0.3 c-2.2-1.3-4.1-4.4-4.1-7C142.8,153.2,143.3,152.3,144.2,151.9z"/><path fill="#BCBEC0" stroke="#545453" stroke-width=".155" d="M142.8,154.6c0,2.6,1.8,5.7,4.1,7 s4.1,0.3,4.1-2.3s-1.8-5.7-4.1-7S142.8,152,142.8,154.6z"/><path fill="#F7923F" stroke="#545453" stroke-width=".155" d="M151.1,144.2c0,0.1,0,0.2,0,0.3 c0,0.4-0.3,0.7-0.8,1c-1,0.5-2.5,0.5-3.5-0.1c-0.5-0.3-0.7-0.7-0.7-1.1c0-0.1,0-0.2,0-0.3c0-0.4,0.3-0.7,0.8-1 c1-0.5,2.5-0.5,3.5,0.1C150.9,143.4,151.1,143.8,151.1,144.2z"/><path fill="#FDBD56" stroke="#545453" stroke-width=".155" d="M150.4,143.1c-0.9-0.6-2.5-0.6-3.5-0.1 s-1,1.4-0.1,2c0.9,0.6,2.5,0.6,3.5,0.1S151.4,143.7,150.4,143.1z"/><g fill="#BCBEC0" stroke="#545453" stroke-width=".077"><path d="M149.4,143.3l-0.2,0.4 c-0.1,0.1,0.1,0.2,0.2,0.2l1.2-0.6l0.2-1.8c0,0,0-0.1-0.1-0.1l-0.4-0.2c0,0-0.1,0-0.1,0l-1.6,2.6L149.4,143.3z"/><path d="M150.5,143.3 C150.5,143.3,150.5,143.3,150.5,143.3l0.3-1.8c0-0.1-0.1-0.1-0.1-0.1l-1.5,2.3c0,0.1,0,0.2,0.1,0.1L150.5,143.3z"/></g><g fill="#FDBD56" stroke="#545453" stroke-width=".077"><path d="M149.7,143.3c0,0,0,0.1,0,0.1 c0,0.2-0.1,0.3-0.3,0.4c-0.4,0.2-1.1,0.2-1.5,0c-0.2-0.1-0.3-0.3-0.3-0.5c0,0,0-0.1,0-0.1c0-0.2,0.1-0.3,0.3-0.4 c0.4-0.2,1.1-0.2,1.5,0C149.6,143,149.7,143.1,149.7,143.3z"/><path d="M149.4,142.8 c-0.4-0.2-1.1-0.3-1.5,0c-0.4,0.2-0.4,0.6,0,0.9c0.4,0.2,1.1,0.3,1.5,0C149.8,143.5,149.8,143.1,149.4,142.8z"/></g><path fill="none" stroke="#808285" stroke-width=".465" stroke-linecap="round" d="M153,139.8l-2.4,1.5 c0,0-0.1,0-0.1-0.1l1-2"/></g><path fill="none" stroke="#545453" stroke-width="1.464" stroke-linecap="round" stroke-miterlimit="10" d="M72 171.5L72 185.7"/><path fill="none" stroke="#808285" stroke-width="2.929" stroke-linecap="round" stroke-miterlimit="10" d="M146.7 157.5L135.1 164.2"/><path fill="#F7923F" stroke="#545453" stroke-width=".234" stroke-miterlimit="10" d="M179,146.3c0,0.3,0.3,0.6,0.6,0.6l0,0 c0.3,0,0.6-0.3,0.6-0.6V142c0-0.3-0.3-0.6-0.6-0.6l0,0c-0.3,0-0.6,0.3-0.6,0.6V146.3z"/><path fill="#F7923F" stroke="#545453" stroke-width=".234" stroke-miterlimit="10" d="M176.6,139.2c0-1.5,1.1-3.4,2.4-4.2 c0.7-0.4,1.4-0.4,1.8-0.1l1.5,0.8c0,0,0,0,0,0c0.4,0.2,0.7,0.8,0.7,1.6c0,1.5-1.1,3.4-2.4,4.2c-0.7,0.4-1.2,0.4-1.7,0.2 c0,0,0,0,0,0l-1.6-0.9c0,0,0,0,0,0c0,0-0.1-0.1-0.1-0.1C176.8,140.4,176.6,139.9,176.6,139.2z"/><path fill="#FFEBCC" stroke="#545453" stroke-width=".217" stroke-miterlimit="10" d="M178.2,140.2c0,1.5,1.1,2.1,2.4,1.4 c1.3-0.8,2.4-2.6,2.4-4.2s-1.1-2.1-2.4-1.4C179.3,136.8,178.2,138.6,178.2,140.2z"/><g stroke="#545453" stroke-miterlimit="10"><path fill="#F7923F" stroke-width=".234" d="M144,185.6c0,0.3,0.3,0.6,0.6,0.6l0,0 c0.3,0,0.6-0.3,0.6-0.6v-4.3c0-0.3-0.3-0.6-0.6-0.6l0,0c-0.3,0-0.6,0.3-0.6,0.6V185.6z"/><path fill="#F7923F" stroke-width=".234" d="M141.6,178.5c0-1.5,1.1-3.4,2.4-4.2 c0.7-0.4,1.4-0.4,1.8-0.1l1.5,0.8c0,0,0,0,0,0c0.4,0.2,0.7,0.8,0.7,1.6c0,1.5-1.1,3.4-2.4,4.2c-0.7,0.4-1.2,0.4-1.7,0.2 c0,0,0,0,0,0l-1.6-0.9c0,0,0,0,0,0c0,0-0.1-0.1-0.1-0.1C141.8,179.7,141.6,179.1,141.6,178.5z"/><path fill="#FFEBCC" stroke-width=".217" d="M143.3,179.4c0,1.5,1.1,2.1,2.4,1.4 c1.3-0.8,2.4-2.6,2.4-4.2s-1.1-2.1-2.4-1.4C144.4,176,143.3,177.8,143.3,179.4z"/></g><path fill="#E6E7E8" stroke="#D1D3D4" stroke-width="2.929" stroke-linecap="round" stroke-miterlimit="10" d="M204.4 120.1L199.2 117"/><path fill="none" stroke="#808285" stroke-width="2.929" stroke-linecap="round" stroke-miterlimit="10" d="M114.6 162.8L108.9 166.1"/><g stroke="#545453" stroke-width=".155" stroke-miterlimit="10"><path fill="#E6E7E8" d="M122.9,151c0.2-0.1,0.4-0.2,0.6-0.3 c0.7-0.5,1.8-0.4,2.9,0.3c2.2,1.3,4.1,4.4,4.1,7c0,1.4-0.5,2.3-1.4,2.7c-0.2,0.1-0.4,0.2-0.6,0.3c-0.7,0.5-1.8,0.4-2.9-0.3 c-2.2-1.3-4.1-4.4-4.1-7C121.5,152.3,122.1,151.3,122.9,151z"/><path fill="#BCBEC0" d="M121.5,153.7c0,2.6,1.8,5.7,4.1,7 s4.1,0.3,4.1-2.3s-1.8-5.7-4.1-7C123.3,150.1,121.5,151.1,121.5,153.7z"/></g><path fill="none" stroke="#808285" stroke-width="2.72" stroke-linecap="round" stroke-miterlimit="10" d="M125.1 156.7L121.2 158.9"/><g fill="#BCBEC0" stroke="#545453" stroke-width=".077" stroke-miterlimit="10"><path d="M200,154.8l-0.2,0.4 c-0.1,0.1,0.1,0.2,0.2,0.2l1.2-0.6l0.2-1.8c0,0,0-0.1-0.1-0.1l-0.4-0.2c0,0-0.1,0-0.1,0l-1.6,2.6L200,154.8z"/><path d="M201,154.8 C201.1,154.8,201.1,154.8,201,154.8l0.3-1.8c0-0.1-0.1-0.1-0.1-0.1l-1.5,2.3c0,0.1,0,0.2,0.1,0.1L201,154.8z"/></g><g fill="#FDBD56" stroke="#545453" stroke-width=".077" stroke-miterlimit="10"><path d="M200.2,154.8c0,0,0,0.1,0,0.1 c0,0.2-0.1,0.3-0.3,0.4c-0.4,0.2-1.1,0.2-1.5,0c-0.2-0.1-0.3-0.3-0.3-0.5c0,0,0-0.1,0-0.1c0-0.2,0.1-0.3,0.3-0.4 c0.4-0.2,1.1-0.2,1.5,0C200.2,154.5,200.2,154.6,200.2,154.8z"/><path d="M199.9,154.3 c-0.4-0.2-1.1-0.3-1.5,0c-0.4,0.2-0.4,0.6,0,0.9s1.1,0.3,1.5,0C200.3,155,200.3,154.6,199.9,154.3z"/></g><path fill="none" stroke="#808285" stroke-width="2.929" stroke-linecap="round" stroke-miterlimit="10" d="M184.7 176.9L196.8 169.7"/><path fill="#F7923F" stroke="#545453" stroke-width=".849" stroke-miterlimit="10" d="M72,162.8C72,162.8,72,162.7,72,162.8v-0.4 c0,0,0,0,0,0c-0.2-1.6-1.3-3.1-3.4-4.3c-4.6-2.6-11.9-2.6-16.5,0c-2.6,1.5-3.7,3.5-3.3,5.4v14.7c-0.3,1.9,0.8,4,3.4,5.5 c4.6,2.6,11.9,2.6,16.5,0c2.3-1.3,3.4-3.1,3.4-4.8c0,0,0,0,0,0V162.8z"/><path fill="#FDBD56" stroke="#545453" stroke-width=".849" stroke-miterlimit="10" d="M71.8,161.1c-0.4-2.3-6.6-6.5-6.6-6.5H65 c-0.2-0.3-0.6-0.6-1-0.9c-1.9-1.1-4.9-1.1-6.8,0c-0.5,0.3-0.8,0.6-1,0.9H56c0,0-7.2,4.5-7.1,6.8c-0.6,2.1,0.5,4.3,3.3,5.9 c4.6,2.6,11.9,2.6,16.5,0C71.6,165.6,72.6,163.2,71.8,161.1z"/><path fill="#FFDA99" stroke="#545453" stroke-width=".849" stroke-miterlimit="10" d="M63.8,157.4c-1.9,1.1-4.9,1.1-6.8,0 s-1.9-2.8,0-3.9c1.9-1.1,4.9-1.1,6.8,0C65.7,154.6,65.7,156.3,63.8,157.4z"/><path fill="none" stroke="#F36E25" stroke-width="5.751" stroke-linecap="round" stroke-miterlimit="10" d="M65.8 171.8L65.8 181.5"/><path fill="#545453" stroke="#FDCE81" stroke-width="2.21" stroke-linecap="round" stroke-miterlimit="10" d="M52.5 169.2L52.5 181.9"/><path fill="none" stroke="#545453" stroke-width="1.464" stroke-linecap="round" stroke-miterlimit="10" d="M48.8 177.9L48.8 192.2M69 183.4L69 197.6"/><path fill="none" stroke="#808285" stroke-width="2.929" stroke-linecap="round" stroke-miterlimit="10" d="M96.4,185.1V98.7 c0-1.3,1.3-2.1,2.5-1.5l7.6,4.1c0.5,0.3,1.1,0.3,1.6,0l3.2-1.8L153.8,76c1.1-0.6,1.1-2.2,0-2.9l-9.8-5.8"/><path fill="none" stroke="#E6E7E8" stroke-width="2.929" stroke-linecap="round" stroke-miterlimit="10" d="M97.4,110.9l9.9,5.1 c1,0.5,1.6,1.5,1.6,2.6v34.4c0,2.2-2.4,3.7-4.4,2.6l-7.1-3.8"/><g stroke-miterlimit="10"><g stroke="#545453" stroke-width=".155"><path fill="#E6E7E8" d="M119.5,87.9c0.2-0.1,0.4-0.2,0.6-0.3 c0.7-0.5,1.8-0.4,2.9,0.3c2.2,1.3,4.1,4.4,4.1,7c0,1.4-0.5,2.3-1.4,2.7c-0.2,0.1-0.4,0.2-0.6,0.3c-0.7,0.5-1.8,0.4-2.9-0.3 c-2.2-1.3-4.1-4.4-4.1-7C118.1,89.2,118.7,88.3,119.5,87.9z"/><path fill="#BCBEC0" d="M118.1,90.6c0,2.6,1.8,5.7,4.1,7 c2.2,1.3,4.1,0.3,4.1-2.3s-1.8-5.7-4.1-7C119.9,87,118.1,88,118.1,90.6z"/></g><path fill="#BCBEC0" stroke="#545453" stroke-width=".077" d="M118.9,91.6c0,0.3,0.2,0.5,0.5,0.5 l0,0c0.3,0,0.5-0.2,0.5-0.5v-8.3c0-0.3-0.2-0.5-0.5-0.5l0,0c-0.3,0-0.5,0.2-0.5,0.5V91.6z"/><path fill="#F7923F" stroke="#545453" stroke-width=".155" d="M120.3 90.8c-.4.3-.6.8-.4 1.1L120 92c.2.3.7.4 1.2.1l2-1.2c.4-.3.6-.8.4-1.1l-.1-.1c-.2-.3-.7-.4-1.2-.1L120.3 90.8zM122.2 97c-.4.3-.6.8-.4 1.1l.1.1c.2.3.7.4 1.2.1l2-1.2c.4-.3.6-.8.4-1.1l-.1-.1c-.2-.3-.7-.4-1.2-.1L122.2 97zM121.9 93.5c-.4.3-.6.8-.4 1.1l.1.1c.2.3.7.4 1.2.1l2-1.2c.4-.3.6-.8.4-1.1l-.1-.1c-.2-.3-.7-.4-1.2-.1L121.9 93.5z"/><path fill="#E6E7E8" stroke="#545453" stroke-width=".155" d="M115,90.5c0.2-0.1,0.4-0.2,0.6-0.3 c0.7-0.5,1.8-0.4,2.9,0.3c2.2,1.3,4.1,4.4,4.1,7c0,1.4-0.5,2.3-1.4,2.7c-0.2,0.1-0.4,0.2-0.6,0.3c-0.7,0.5-1.8,0.4-2.9-0.3 c-2.2-1.3-4.1-4.4-4.1-7C113.6,91.9,114.2,90.9,115,90.5z"/><path fill="#BCBEC0" stroke="#545453" stroke-width=".155" d="M113.6,93.2c0,2.6,1.8,5.7,4.1,7 s4.1,0.3,4.1-2.3s-1.8-5.7-4.1-7C115.4,89.6,113.6,90.7,113.6,93.2z"/><path fill="#F7923F" stroke="#545453" stroke-width=".155" d="M121.9,82.9c0,0.1,0,0.2,0,0.3 c0,0.4-0.3,0.7-0.8,1c-1,0.5-2.5,0.5-3.5-0.1c-0.5-0.3-0.7-0.7-0.7-1.1c0-0.1,0-0.2,0-0.3c0-0.4,0.3-0.7,0.8-1 c1-0.5,2.5-0.5,3.5,0.1C121.7,82.1,122,82.5,121.9,82.9z"/><path fill="#FDBD56" stroke="#545453" stroke-width=".155" d="M121.2,81.7c-0.9-0.6-2.5-0.6-3.5-0.1 c-1,0.5-1,1.4-0.1,2c0.9,0.6,2.5,0.6,3.5,0.1S122.2,82.3,121.2,81.7z"/><g fill="#BCBEC0" stroke="#545453" stroke-width=".077"><path d="M120.3,81.9l-0.2,0.4 c-0.1,0.1,0.1,0.2,0.2,0.2l1.2-0.6l0.2-1.8c0,0,0-0.1-0.1-0.1l-0.4-0.2c0,0-0.1,0-0.1,0l-1.6,2.6L120.3,81.9z"/><path d="M121.3,81.9 C121.4,81.9,121.4,81.9,121.3,81.9l0.3-1.8c0-0.1-0.1-0.1-0.1-0.1l-1.5,2.3c0,0.1,0,0.2,0.1,0.1L121.3,81.9z"/></g><g fill="#FDBD56" stroke="#545453" stroke-width=".077"><path d="M120.5,81.9c0,0,0,0.1,0,0.1 c0,0.2-0.1,0.3-0.3,0.4c-0.4,0.2-1.1,0.2-1.5,0c-0.2-0.1-0.3-0.3-0.3-0.5c0,0,0-0.1,0-0.1c0-0.2,0.1-0.3,0.3-0.4 c0.4-0.2,1.1-0.2,1.5,0C120.4,81.6,120.5,81.8,120.5,81.9z"/><path d="M120.2,81.5 c-0.4-0.2-1.1-0.3-1.5,0c-0.4,0.2-0.4,0.6,0,0.9c0.4,0.2,1.1,0.3,1.5,0S120.6,81.7,120.2,81.5z"/></g><path fill="none" stroke="#808285" stroke-width=".465" stroke-linecap="round" d="M123.9,78.4l-2.4,1.5 c0,0-0.1,0-0.1-0.1l1-2"/></g><g stroke="#545453" stroke-width=".155" stroke-miterlimit="10"><path fill="#E6E7E8" d="M114.7,137.1c0,0.2,0,0.5,0,0.7 c0,0.9-0.6,1.7-1.8,2.4c-2.3,1.2-5.9,1.1-8.1-0.3c-1.2-0.7-1.7-1.7-1.6-2.6c0-0.2,0-0.5,0-0.7c0-0.9,0.6-1.7,1.8-2.4 c2.3-1.2,5.9-1.1,8.1,0.3C114.3,135.3,114.8,136.2,114.7,137.1z"/><path fill="#BCBEC0" d="M113.1,134.4c-2.2-1.3-5.8-1.4-8.1-0.1 c-2.3,1.3-2.3,3.4-0.1,4.7c2.2,1.3,5.8,1.4,8.1,0.1S115.3,135.8,113.1,134.4z"/></g><g stroke="#545453" stroke-width=".155" stroke-miterlimit="10"><path fill="#E6E7E8" d="M114.7,130.5c0,0.2,0,0.5,0,0.7 c0,0.9-0.6,1.7-1.8,2.4c-2.3,1.2-5.9,1.1-8.1-0.3c-1.2-0.7-1.7-1.7-1.6-2.6c0-0.2,0-0.5,0-0.7c0-0.9,0.6-1.7,1.8-2.4 c2.3-1.2,5.9-1.1,8.1,0.3C114.3,128.6,114.8,129.6,114.7,130.5z"/><path fill="#BCBEC0" d="M113.1,127.8c-2.2-1.3-5.8-1.4-8.1-0.1 c-2.3,1.3-2.3,3.4-0.1,4.7c2.2,1.3,5.8,1.4,8.1,0.1C115.3,131.2,115.3,129.1,113.1,127.8z"/></g><path fill="none" stroke="#E6E7E8" stroke-width="2.929" stroke-linecap="round" stroke-miterlimit="10" d="M108.8 136.5L108.8 128.9"/><g stroke="#545453" stroke-width=".155" stroke-miterlimit="10"><path fill="#E6E7E8" d="M114.7,130.5c0,0.2,0,0.5,0,0.7 c0,0.9-0.6,1.7-1.8,2.4c-2.3,1.2-5.9,1.1-8.1-0.3c-1.2-0.7-1.7-1.7-1.6-2.6c0-0.2,0-0.5,0-0.7c0-0.9,0.6-1.7,1.8-2.4 c2.3-1.2,5.9-1.1,8.1,0.3C114.3,128.6,114.8,129.6,114.7,130.5z"/><path fill="#BCBEC0" d="M113.1,127.8c-2.2-1.3-5.8-1.4-8.1-0.1 c-2.3,1.3-2.3,3.4-0.1,4.7c2.2,1.3,5.8,1.4,8.1,0.1C115.3,131.2,115.3,129.1,113.1,127.8z"/></g><g stroke="#545453" stroke-miterlimit="10"><path fill="#F7923F" stroke-width=".234" d="M137.4,83.4c0,0.3,0.3,0.6,0.6,0.6l0,0 c0.3,0,0.6-0.3,0.6-0.6v-4.3c0-0.3-0.3-0.6-0.6-0.6l0,0c-0.3,0-0.6,0.3-0.6,0.6V83.4z"/><path fill="#F7923F" stroke-width=".234" d="M135.1,76.3c0-1.5,1.1-3.4,2.4-4.2 c0.7-0.4,1.4-0.4,1.8-0.1l1.5,0.8c0,0,0,0,0,0c0.4,0.2,0.7,0.8,0.7,1.6c0,1.5-1.1,3.4-2.4,4.2c-0.7,0.4-1.2,0.4-1.7,0.2 c0,0,0,0,0,0l-1.6-0.9c0,0,0,0,0,0c0,0-0.1-0.1-0.1-0.1C135.3,77.5,135.1,77,135.1,76.3z"/><path fill="#FFEBCC" stroke-width=".217" d="M136.7,77.3c0,1.5,1.1,2.1,2.4,1.4 c1.3-0.8,2.4-2.6,2.4-4.2s-1.1-2.1-2.4-1.4C137.8,73.9,136.7,75.7,136.7,77.3z"/></g><path fill="none" stroke="#808285" stroke-width="2.929" stroke-linecap="round" stroke-miterlimit="10" d="M110.9 99.7L116.9 96.4"/><path fill="none" stroke="#E6E7E8" stroke-width="2.929" stroke-linecap="round" stroke-miterlimit="10" d="M109 128.9L109 121.3M162.5 56.6l26.7 15.6c1.5.9 1.5 3.1 0 3.9l-56.7 32.7"/><g stroke="#000" stroke-miterlimit="10"><path stroke-width=".104" d="M62.2,153.9l-0.4,0.2c-0.1,0-0.2-0.1-0.4-0.1 c-0.2,0-0.3-0.1-0.5-0.1l0-0.3c0,0,0,0,0,0l-1,0c0,0,0,0,0,0l0,0.3c-0.2,0-0.3,0.1-0.5,0.1c-0.1,0-0.2,0.1-0.3,0.1l-0.4-0.2 c0,0,0,0,0,0l-0.7,0.4c0,0,0,0,0,0l0.4,0.2c-0.2,0.2-0.3,0.3-0.3,0.5l-0.6,0c0,0,0,0,0,0l0,0.6c0,0,0,0,0,0l0.6,0 c0.1,0.2,0.2,0.3,0.3,0.5l-0.4,0.3c0,0,0,0,0,0l0.7,0.4c0,0,0,0,0,0l0.5-0.3c0.1,0,0.2,0.1,0.3,0.1c0.2,0,0.3,0.1,0.5,0.1l0,0.3 c0,0,0,0,0,0l1,0c0,0,0,0,0,0l0-0.4c0.2,0,0.3-0.1,0.5-0.1c0.1,0,0.2-0.1,0.3-0.1l0.4,0.3c0,0,0,0,0,0l0.7-0.4c0,0,0,0,0,0 l-0.4-0.3c0.2-0.1,0.3-0.3,0.3-0.5l0.6,0c0,0,0,0,0,0l0-0.6c0,0,0,0,0,0l-0.6,0c-0.1-0.2-0.2-0.3-0.3-0.5l0.4-0.2c0,0,0,0,0,0 L62.2,153.9C62.2,153.9,62.2,153.9,62.2,153.9z"/><path fill="#E6E7E8" stroke-width=".073" d="M61.5,154.7c0.6,0.4,0.6,0.9,0,1.3 s-1.6,0.4-2.2,0c-0.6-0.4-0.6-0.9,0-1.3C59.9,154.3,60.9,154.3,61.5,154.7z"/><path stroke-width=".104" d="M61,155c0.3,0.2,0.3,0.5,0,0.6c-0.3,0.2-0.8,0.2-1.1,0 c-0.3-0.2-0.3-0.5,0-0.6C60.2,154.9,60.7,154.9,61,155z"/></g><path fill="#FFF" stroke="#000" stroke-width=".73" stroke-miterlimit="10" d="M75.9,134.5l-54.5,31.5 c-0.7,0.4-1.3,0.1-1.3-0.8v-8.7c0-0.8,0.5-1.7,1.2-1.9c0.1,0,0.3-0.1,0.4-0.2l53.9-31.1c0.1-0.1,0.3-0.2,0.4-0.3 c0.6-0.5,1.2-0.2,1.2,0.6v8.7C77.2,133,76.6,134,75.9,134.5z"/><g fill="#F5A722"><path d="M22.7 155.5l3.5-2v1.6l-1.4.8v1.5l1.3-.8v1.5l-1.3.8v1.8l1.6-.9v1.6l-3.7 2.1V155.5zM31.7 150.3v8l-1.9 1.1-1.1-3v3.6l-1.8 1v-8l1.8-1 1.2 2.9v-3.6L31.7 150.3zM37.4 149.9l-2.1 1.2v-.7c0-.5 0-.7-.1-.8 0-.1-.1-.1-.3 0-.1.1-.2.2-.3.3 0 .1-.1.4-.1.8v3.8c0 .4 0 .6.1.7 0 .1.1.1.3 0 .2-.1.3-.2.3-.4.1-.2.1-.4.1-.8v-.9l-.4.2v-1.2l2.5-1.4v4.3l-1.3.8-.2-.5c-.1.3-.3.6-.5.9-.2.3-.5.5-.8.6-.4.2-.7.3-1 .3-.3 0-.5-.1-.7-.2-.2-.2-.3-.4-.3-.6 0-.3-.1-.7-.1-1.2v-2.4c0-.8 0-1.3.1-1.7.1-.4.3-.9.7-1.4.4-.5.9-1 1.5-1.3.6-.4 1.1-.5 1.5-.5.4 0 .7.2.8.4.1.3.2.7.2 1.4V149.9zM40.3 145.3v8l-2.1 1.2v-8L40.3 145.3zM45.9 142v8l-1.9 1.1-1.1-3v3.6l-1.8 1v-8l1.8-1 1.2 2.9v-3.6L45.9 142zM46.7 141.6l3.5-2v1.6l-1.4.8v1.5l1.3-.8v1.5l-1.3.8v1.8l1.6-.9v1.6l-3.7 2.1V141.6zM51 139.1l3.5-2v1.6l-1.4.8v1.5l1.3-.8v1.5l-1.3.8v1.8l1.6-.9v1.6l-3.7 2.1V139.1zM55.3 136.6l1.5-.9c1-.6 1.7-.9 2-1.1.4-.1.6-.1.9.1.2.2.3.6.3 1.3 0 .6-.1 1.1-.2 1.4-.2.3-.5.6-.9.9.4-.1.7-.2.8-.1.1.1.2.2.3.3 0 .1.1.5.1 1.2v2.1l-2 1.1v-2.7c0-.4 0-.7-.1-.7-.1-.1-.2 0-.5.2v3.6l-2.1 1.2V136.6zM57.4 136.8v1.8c.2-.1.4-.3.5-.4.1-.1.1-.4.1-.7V137c0-.3 0-.4-.1-.4C57.8 136.6 57.7 136.6 57.4 136.8zM63 132.2v8l-2.1 1.2v-8L63 132.2zM68.5 129v8l-1.9 1.1-1.1-3v3.6l-1.8 1v-8l1.8-1 1.2 2.9V130L68.5 129zM74.2 128.6l-2.1 1.2v-.7c0-.5 0-.7-.1-.8 0-.1-.1-.1-.3 0-.1.1-.2.2-.3.3 0 .1-.1.4-.1.8v3.8c0 .4 0 .6.1.7 0 .1.1.1.3 0 .2-.1.3-.2.3-.4.1-.2.1-.4.1-.8v-.9l-.4.2v-1.2l2.5-1.4v4.3l-1.3.8-.2-.5c-.1.3-.3.6-.5.9-.2.3-.5.5-.8.6-.4.2-.7.3-1 .3-.3 0-.5-.1-.7-.2-.2-.2-.3-.4-.3-.6 0-.3-.1-.7-.1-1.2v-2.4c0-.8 0-1.3.1-1.7.1-.4.3-.9.7-1.4.4-.5.9-1 1.5-1.3.6-.4 1.1-.5 1.5-.5.4 0 .7.2.8.4.1.3.2.7.2 1.4V128.6z"/></g><path d="M21.6 141l2.9-1.7c.8-.4 1.4-.7 1.8-.9s.7-.1.9 0c.2.1.4.3.4.6.1.3.1.8.1 1.4v.9c0 .7-.1 1.2-.2 1.6-.1.4-.4.8-.8 1.2-.4.4-.9.8-1.5 1.1l-.8.4v4.3l-2.9 1.6V141zM24.5 141.2v2.7c.1 0 .2-.1.2-.1.3-.2.4-.3.5-.5.1-.2.2-.5.2-.9v-.9c0-.4-.1-.6-.2-.6C25.1 140.9 24.8 141 24.5 141.2zM28.6 137l2-1.2c1.3-.8 2.3-1.3 2.7-1.4.5-.2.9-.1 1.2.1.3.2.5.8.5 1.7 0 .8-.1 1.5-.3 1.9-.2.4-.6.8-1.3 1.2.6-.2.9-.2 1.1-.1.2.1.3.3.4.4s.1.7.1 1.6v2.8l-2.6 1.5V142c0-.6 0-.9-.1-1-.1-.1-.3 0-.7.2v4.9l-2.9 1.6V137zM31.4 137.2v2.4c.3-.2.5-.4.7-.5.1-.2.2-.5.2-1v-.6c0-.3-.1-.5-.2-.6C32 136.9 31.8 137 31.4 137.2zM42.6 135.2c0 1.1 0 1.9-.1 2.3-.1.5-.2 1-.5 1.5-.3.5-.6 1-1.1 1.5-.5.5-1 .9-1.6 1.2-.6.3-1.1.5-1.6.6-.5.1-.8 0-1.1-.2-.3-.2-.5-.5-.5-.9-.1-.4-.1-1.2-.1-2.3v-1.8c0-1.1 0-1.9.1-2.3.1-.5.2-1 .5-1.5.3-.5.6-1 1.1-1.5.5-.5 1-.9 1.6-1.2.6-.3 1.1-.5 1.6-.6.5-.1.8 0 1.1.2.3.2.5.5.5.9.1.4.1 1.2.1 2.3V135.2zM39.7 133.3c0-.5 0-.8-.1-.9-.1-.1-.2-.1-.3 0-.1.1-.3.2-.3.4-.1.2-.1.5-.1 1.1v5c0 .6 0 1 .1 1.1.1.1.2.1.4 0 .2-.1.3-.3.4-.5.1-.2.1-.6.1-1.3V133.3zM43.6 128.3l4.8-2.8v2.2l-2 1.1v2l1.8-1v2.1l-1.8 1v4.5l-2.9 1.6V128.3zM54.9 121.8v2.2l-1.7 1v8.6l-2.9 1.6v-8.6l-1.7 1v-2.2L54.9 121.8zM55.5 121.4l4.8-2.7v2.2l-1.9 1.1v2l1.8-1v2.1l-1.8 1v2.4l2.1-1.2v2.2l-4.9 2.9V121.4zM67.9 118.9l-2.9 1.6v-1.9c0-.5 0-.9-.1-1-.1-.1-.2-.1-.4 0-.2.1-.4.3-.4.5-.1.2-.1.6-.1 1.1v5c0 .5 0 .8.1 1 .1.1.2.1.4 0 .2-.1.4-.3.4-.5.1-.2.1-.6.1-1.2v-1.4l2.9-1.6v.4c0 1.1-.1 2-.2 2.5-.2.6-.5 1.2-1.1 1.8-.5.7-1.2 1.2-2 1.7-.8.5-1.5.7-2.1.7-.5 0-.9-.2-1.1-.6-.2-.4-.3-1.2-.3-2.2v-3.1c0-.8 0-1.4.1-1.8.1-.4.2-.9.5-1.4.3-.5.6-1 1.1-1.5.5-.5 1-.9 1.6-1.3.8-.5 1.5-.7 2.1-.7.5 0 .9.2 1.1.6.2.4.3 1.1.3 2.1V118.9zM75.5 109.9v10.8l-2.9 1.6v-4.5l-.9.5v4.5l-2.9 1.6v-10.8l2.9-1.6v3.9l.9-.5v-3.9L75.5 109.9z"/><g stroke="#000" stroke-miterlimit="10"><path stroke-width=".542" d="M231.3,101l-2-1.2c-0.1-0.6-0.2-1.3-0.3-1.9 c-0.2-0.8-0.4-1.7-0.7-2.5l1.4-0.9c0,0,0-0.1,0-0.2l-2.5-4.7c0-0.1-0.1-0.1-0.2-0.1l-1.4,0.9c-0.5-0.7-1-1.3-1.6-1.9 c-0.4-0.5-0.9-0.9-1.3-1.2l0.1-2.5c0-0.1,0-0.2-0.1-0.2l-3.7-2.1c-0.1,0-0.1,0-0.1,0.1l-0.1,2.5c-1.1-0.3-2.1-0.4-3-0.2l-1.5-2.7 c0-0.1-0.1-0.1-0.2-0.1l-2.7,1.8c0,0,0,0.1,0,0.2l1.4,2.6c-0.6,0.8-1,1.7-1.3,2.9l-2.2-1.3c-0.1,0-0.1,0-0.1,0.1l-0.2,4.5 c0,0.1,0,0.2,0.1,0.2l2.3,1.3c0.1,0.6,0.2,1.1,0.3,1.7c0.2,0.9,0.4,1.7,0.8,2.6l-1.6,0.9c0,0,0,0.1,0,0.2l2.5,4.7 c0,0.1,0.1,0.1,0.2,0.1l1.7-1c0.5,0.6,1,1.2,1.5,1.8c0.4,0.5,0.9,0.9,1.3,1.2l-0.1,2.7c0,0.1,0,0.2,0.1,0.2l3.7,2.1 c0.1,0,0.1,0,0.1-0.1l0.1-2.7c1,0.3,2,0.4,2.9,0.2l1.4,2.7c0,0.1,0.1,0.1,0.2,0.1l2.7-1.7c0,0,0-0.1,0-0.2l-1.4-2.6 c0.6-0.7,1.1-1.7,1.4-2.8l2.1,1.2c0.1,0,0.1,0,0.1-0.1l0.2-4.5C231.4,101.1,231.4,101,231.3,101z"/><path fill="#E6E7E8" stroke-width=".377" d="M225.8,100.2c-0.1,3.7-2.7,5.3-5.8,3.6 c-3.1-1.8-5.4-6.2-5.3-10c0.1-3.7,2.7-5.3,5.8-3.6S226,96.4,225.8,100.2z"/><path stroke-width=".542" d="M223.1,98.7c-0.1,1.9-1.4,2.7-2.9,1.8s-2.7-3.1-2.6-5 c0.1-1.9,1.4-2.7,2.9-1.8C222,94.6,223.1,96.8,223.1,98.7z"/></g></svg>