<svg xmlns="http://www.w3.org/2000/svg" viewBox="0 0 3401.6 810.5"><switch><g><path fill="#FFEBCC" stroke="#545453" stroke-width="6" stroke-miterlimit="10" d="M-19.5 463.2L-1870.4 376.1 -3421.6 482.6 -2166 810.5z"/><path fill="#939598" stroke="#000" stroke-width="5.09" stroke-miterlimit="10" d="M466,222.7l859.4,246.1v50.5 c0,0.8-1.2,1.5-2.1,1.2L427.4,236.1l35.2-16.7C496.5,230.8,498,232.4,466,222.7z"/><path fill="none" stroke="#414042" stroke-width="5.09" stroke-miterlimit="10" d="M549.3,224.6L166,293.8 c-0.4,0.1-0.8-0.2-0.8-0.4V125.1l209-91.1l175,52.4V224.6z"/><g fill="#D1D3D4" stroke="#000" stroke-width="5.09" stroke-miterlimit="10"><path d="M517,209.7l-18.3,8.3l9.3,2.5 c2.6-0.5,5-0.9,7.2-1.3L517,209.7z"/><path d="M536.4,228.1l-8.1-11.1 c-2,0.2-6.5,1-13.1,2.2l-0.6,3.1l-6.6-1.8c-80.9,14.8-362.4,71-362.4,71S840,640.7,841,640.2l428.4-216L536.4,228.1z M258.4,302.9L549,245.4l621.6,180.5L848.9,574.5L258.4,302.9z"/></g><path fill="#F7923F" stroke="#545453" stroke-width="6" stroke-miterlimit="10" d="M1412.4,465.6L871,808.5 c-1,0.6-2.3-0.1-2.3-1.3v-74.5l540-312.5c1.7-1,3.8,0.3,3.8,2.2V465.6z"/><path fill="#F1F2F2" stroke="#414042" stroke-width="5.09" stroke-miterlimit="10" d="M1410.3,422.1L526,201.4L43.9,272.6 c-0.2,0-0.3,0.4-0.1,0.5l824.8,461.1L1411,421.4C1412.9,420.2,1412.5,417.3,1410.3,422.1z M1265.9,428.4L844.2,640.3 c0,0-0.1,0-0.1,0L165.1,299c-0.1-0.1-0.1-0.2,0-0.2l382.2-68.9c0,0,0,0,0.1,0l718.4,196.9C1266.6,426.9,1266.7,428,1265.9,428.4z"/><path fill="#6D6E71" stroke="#000" stroke-width="5.41" stroke-miterlimit="10" d="M691.2 287.1L677.7 290.6 677.7 115.6 691.2 113.6z"/><path fill="#6D6E71" stroke="#000" stroke-width="5.09" stroke-miterlimit="10" d="M609.1 243.7L595 246.4 595 100.5 609.1 99zM767.1 289.3L752.5 292.9 752.5 126.4 767.1 124.4zM551.4 226.6L537.5 227.1 537.5 88.5 551.4 89.1z"/><path fill="none" stroke="#414042" stroke-width="5.09" stroke-miterlimit="10" d="M446.7,201.3L677.9,76.6 c0.2-0.1,0.5-0.2,0.8-0.1l189.7,63.2c1,0.3,0.9,1.8-0.2,1.9l-420.9,61.5C446.3,203.3,445.8,201.8,446.7,201.3z"/><path fill="none" stroke="#414042" stroke-width="5.09" stroke-miterlimit="10" d="M355.1,176.6L582.7,61.6 c0.1-0.1,0.2-0.1,0.3,0l182.3,59.6c0.4,0.1,0.4,0.8-0.1,0.8l-409.8,55.3C354.9,177.4,354.7,176.8,355.1,176.6z"/><path fill="none" stroke="#414042" stroke-width="5.09" stroke-miterlimit="10" d="M286.8,156.5L505.9,51.9 c0.1,0,0.2-0.1,0.3,0L689.3,113c0.4,0.1,0.4,0.8-0.1,0.8l-402.1,43.5C286.6,157.4,286.4,156.8,286.8,156.5z"/><path fill="none" stroke="#414042" stroke-width="5.09" stroke-miterlimit="10" d="M220,136.3l210.8-93.9 c0.3-0.1,0.6-0.1,0.9,0l171.8,54.8c1.3,0.4,1.1,2.3-0.2,2.4l-382.6,39.1C219.2,138.8,218.7,136.9,220,136.3z"/><path fill="#6D6E71" stroke="#000" stroke-width="5.09" stroke-miterlimit="10" d="M872.4 317L857.9 321.1 857.9 143.3 872.4 141zM1111 383.8L1096.8 389.4 1096.8 180.3 1111 177.2z"/><path fill="#808285" stroke="#000" stroke-width="5.09" stroke-miterlimit="10" d="M980.6 348.3L965.8 353.2 965.8 157.6 980.6 154.9z"/><path fill="#FFF" stroke="#000" stroke-width=".85" stroke-miterlimit="10" d="M846.7 637.5L847.6 318.3"/><path fill="#6D6E71" stroke="#000" stroke-width="5.09" stroke-miterlimit="10" d="M549 245.4L548.3 275.4 314 327.4 260.3 303.7z"/><path fill="none" stroke="#414042" stroke-width="5.09" stroke-miterlimit="10" d="M685.2,272.5L933,106.8l185.7,68.8 l-433.2,97.5C685.1,273.2,684.9,272.7,685.2,272.5z"/><path fill="#A7A9AC" stroke="#000" stroke-width="5.09" stroke-miterlimit="10" d="M874.3 626.3L847.4 639.7 847.4 312.8 1094.2 128.2 874.3 305.3z"/><path fill="#6D6E71" stroke="#000" stroke-width="5.09" stroke-miterlimit="10" d="M1266.6 427.1L1253.2 433.9 1253.2 205.4 1266.6 201.6z"/><path fill="none" stroke="#414042" stroke-width="5.09" stroke-miterlimit="10" d="M550,232.5L791.8,88.9l188.4,65.5 c0,0,0,0,0,0L550.5,234C549.7,234.1,549.2,232.9,550,232.5z"/><path fill="#A7A9AC" stroke="#000" stroke-width="5.09" stroke-miterlimit="10" d="M701.2,547.3l-18.5,7.4 c-2.4,0.9-4.9-0.8-4.9-3.3V289.4c0-0.4,0.3-14.8,0.7-14.9L933,106.8L704.5,267.6c-0.8,0.6-1.1,1.5-1.1,2.5c0,0,0,0,0,0V544 C703.4,545.5,702.5,546.8,701.2,547.3z"/><path fill="#A7A9AC" stroke="#000" stroke-width="5.09" stroke-miterlimit="10" d="M574.3 481.3L548.9 489.7 548.9 233.1 792.3 88.1 574.3 228.4zM431.2 42.3L213 139.5 213 318.3 234.2 314.2 234.2 137.1z"/><path fill="#FFDA99" stroke="#545453" stroke-width="6" stroke-miterlimit="10" d="M44.9,271.4l824.6,463.1v74.5 c0,1.2-1.3,1.9-2.3,1.3L44.5,304.8v-33.2C44.5,271.4,44.7,271.3,44.9,271.4z"/><path fill="#A7A9AC" stroke="#000" stroke-width="5.09" stroke-miterlimit="10" d="M284.6 157.6L279.6 158.2 279.6 351.9 301.8 347 301.8 155.5 506.1 51.8z"/><path fill="#A7A9AC" stroke="#000" stroke-width="5.09" stroke-miterlimit="10" d="M582.8 61.5L352.9 177.7 353 181.6 353 388.8 376.1 383.1 376.1 176.6z"/><path fill="#F1F2F2" stroke="#414042" stroke-width="5.09" stroke-miterlimit="10" d="M548.9 328.9L846.7 437.5 846.7 424.5 548.9 318.6zM549.3 412.4L847.4 542.9 847.4 529.9 549.3 402.1z"/><path fill="#FFF" stroke="#000" stroke-width="5.09" stroke-miterlimit="10" d="M2973.7,208.2L2075.2,469v50.6 c0,0.8,1.2,1.5,2.1,1.2l897-284.8v-27.5C2974.2,208.3,2973.9,208.2,2973.7,208.2z"/><path fill="#939598" stroke="#000" stroke-width="5.09" stroke-miterlimit="10" d="M2973.3,208.4l-897.4,260.4v50.5 c0,0.8,1.2,1.5,2.1,1.2l895.8-284.5v-27.5C2973.8,208.4,2973.6,208.3,2973.3,208.4z"/><path fill="#A7A9AC" stroke="#939598" stroke-width="5.09" stroke-miterlimit="10" d="M2225.7 426.9L2842.3 244.5 3034.3 358.5 2825.8 448.5 2552.8 576z"/><path fill="#F7923F" stroke="#545453" stroke-width="6" stroke-miterlimit="10" d="M1987.9,465.6l541.4,342.9 c1,0.6,2.3-0.1,2.3-1.3v-74.5l-540-312.5c-1.7-1-3.8,0.3-3.8,2.2V465.6z"/><path fill="#FFF" stroke="#000" stroke-width="5.09" stroke-miterlimit="10" d="M2852,225.6l383.2,69.2 c0.4,0.1,0.8-0.2,0.8-0.4V126.1L3027,35l-175,52.4V225.6z"/><path fill="#D1D3D4" d="M2862.7,196.1l-28.8,52.7l-608.3,178.1l321.7,148.6l693.6-319c0.2-0.1,9.8,36,9.8,36 s-694.5,349.2-695.5,348.7l-429.7-216.7L2862.7,196.1z"/><path fill="#F1F2F2" stroke="#000" stroke-width="5.09" stroke-miterlimit="10" d="M1989.3,421.4l542.4,312.9l824.8-461.1 c0.2-0.1,0.2-0.4-0.1-0.5l-482.1-76.6l-884.4,220.7C1987.8,417.3,1987.4,420.2,1989.3,421.4z M2134.5,426.7l718.4-196.9 c0,0,0,0,0.1,0l382.2,68.9c0.1,0,0.1,0.2,0,0.2l-679,341.3c0,0-0.1,0-0.1,0l-421.7-211.9C2133.6,428,2133.7,426.9,2134.5,426.7z"/><path fill="#6D6E71" stroke="#000" stroke-width="5.09" stroke-miterlimit="10" d="M2852.3,89.8l-702.6,108 c-12,1.8-20.9,12.2-20.9,24.4l0.4,189.8c0,8.9,8.4,15.3,17,13l690.4-190.8c10.7-2.9,18-12.6,18-23.7v-121 C2854.6,88.8,2853.5,89.6,2852.3,89.8z"/><path fill="#6D6E71" stroke="#000" stroke-width="5.09" stroke-miterlimit="10" d="M2527.9 317L2542.4 321.1 2542.4 143.3 2527.9 141z"/><path fill="#6D6E71" stroke="#000" stroke-width="5.41" stroke-miterlimit="10" d="M2709.1 289.1L2722.6 292.6 2722.6 117.6 2709.1 115.6z"/><path fill="#808285" stroke="#000" stroke-width="5.09" stroke-miterlimit="10" d="M2419.7 347.3L2434.5 352.2 2434.5 156.6 2419.7 153.9z"/><path fill="none" stroke="#000" stroke-width="5.09" stroke-miterlimit="10" d="M2850.5,91c0,0-715.8,106.2-710.6,107.5 l416.6,116.2c-3.1-0.8-2.8-0.8-2.5-0.8c0,0,672.4-190.5,670.4-190.7l-373.5-37.3C2850.8,85.9,2850.7,91,2850.5,91z"/><path fill="#58595B" stroke="#000" stroke-width="5.09" stroke-miterlimit="10" d="M2141.6,193.8l166.8-67.6 c0.1,0,0.2-0.1,0.3-0.1l306.9-39c0.3,0,0.5,0,0.8,0.2l52.6,29.1c1.1,0.6,0.8,2.2-0.4,2.4l-526.2,78 C2140.6,197,2139.9,194.5,2141.6,193.8z"/><path fill="#6D6E71" stroke="#000" stroke-width="5.09" stroke-miterlimit="10" d="M2791.2 246.7L2805.3 249.4 2805.3 103.5 2791.2 102z"/><path fill="#FFF" stroke="#000" stroke-width=".85" stroke-miterlimit="10" d="M2553.5 637.5L2552.7 318.3"/><path fill="#6D6E71" stroke="#000" stroke-width="5.09" stroke-miterlimit="10" d="M2289.3 383.8L2303.5 389.4 2303.5 180.3 2289.3 177.2zM2633.2 289.3L2647.8 292.9 2647.8 126.4 2633.2 124.4z"/><path fill="none" stroke="#414042" stroke-width="5.09" stroke-miterlimit="10" d="M2715.1,272.5l-247.8-165.7l-185.7,68.8 l433.2,97.5C2715.2,273.2,2715.4,272.7,2715.1,272.5z"/><path fill="#A7A9AC" stroke="#000" stroke-width="5.09" stroke-miterlimit="10" d="M2526 626.3L2552.9 639.7 2552.9 312.8 2306 128.2 2526 305.3z"/><path fill="none" stroke="#000" stroke-width="5.09" stroke-miterlimit="10" d="M2716.3 74.3L2527.9 140.1"/><path fill="#FFF" stroke="#000" stroke-width="5.09" stroke-miterlimit="10" d="M3214.8 290.5L3235.2 294.2 3235.2 126 3214.8 123.9zM2848.8 224.6L2862.7 227.1 2862.7 88.5 2848.8 87.1zM2133.3 426l.1.1c4.4 2.2 9.6-1 9.6-5.9V207.4c0-3-2-5.6-4.8-6.4l-.1 0c-4.2-1.2-8.4 2-8.4 6.4v212.7C2129.7 422.6 2131.1 424.8 2133.3 426z"/><path fill="none" stroke="#414042" stroke-width="5.09" stroke-miterlimit="10" d="M2853.7 233.9L2608 88.1 2419.5 153.6z"/><path fill="#A7A9AC" stroke="#000" stroke-width="5.09" stroke-miterlimit="10" d="M2699.1,547.3l18.5,7.4 c2.4,0.9,4.9-0.8,4.9-3.3V275.4c0-0.4-0.3-0.8-0.7-0.9l-254.6-167.7l228.5,160.8c0.8,0.6,1.1,1.5,1.1,2.5c0,0,0,0,0,0V544 C2696.9,545.5,2697.7,546.8,2699.1,547.3z"/><path fill="#A7A9AC" stroke="#000" stroke-width="5.09" stroke-miterlimit="10" d="M2826 481.3L2851.4 489.7 2851.4 233.1 2608 88.1 2826 228.4z"/><path fill="#FFF" stroke="#000" stroke-width="5.09" stroke-miterlimit="10" d="M2934.3 426.7L2958.4 433.6 2958.4 203.9 2934.3 200.1zM3024.1 383.1L3047.3 388.8 3047.3 178.9 3024.1 175.7zM3098.4 347L3120.6 351.9 3120.6 158.2 3098.4 155.5zM3166.1 314.2L3187.3 318.3 3187.3 139.5 3166.1 137.1z"/><path fill="#F1F2F2" stroke="#000" stroke-width="5.09" stroke-miterlimit="10" d="M2853.7,233.9l380-109 c1.3-0.4,1.5-2.2,0.2-2.8l-204.6-89.3L2608,88.1L2853.7,233.9z"/><path fill="#FFF" stroke="#414042" stroke-width="5.09" stroke-miterlimit="10" d="M3185.3 140.4L2969.1 42.3"/><path fill="#FFDA99" stroke="#545453" stroke-width="6" stroke-miterlimit="10" d="M3355.4,271.4l-824.6,463.1v74.5 c0,1.2,1.3,1.9,2.3,1.3l822.6-505.5v-33.2C3355.7,271.4,3355.5,271.3,3355.4,271.4z"/><path fill="#FFF" stroke="#414042" stroke-width="5.09" stroke-miterlimit="10" d="M3118.8 159.1L2894.2 51.8M3049.4 178.7L2817.4 61.5"/><path fill="none" stroke="#414042" stroke-width="5.09" stroke-miterlimit="10" d="M2958.6 206.3L2718.8 75.7"/><path fill="#D1D3D4" stroke="#000" stroke-width="5.09" stroke-miterlimit="10" d="M3233.4,124.5l-382.1,107.7L2852,492 l382.7-192.1V124.3C3234.8,123.3,3234.1,124.3,3233.4,124.5z"/><path fill="#A7A9AC" stroke="#000" stroke-width="5.09" stroke-miterlimit="10" d="M2128,199.1c-0.3,0.1-0.6,0.5-0.6,0.8 v225l424.3,214.6c0.5,0.2,1-0.1,1-0.6V313l-247.2-185.2L2128,199.1z M2222,243.3l83.5,26.7l-0.1-141.5c0-0.3,0.3-0.4,0.6-0.3 L2552.7,313l-0.2,325.9l-134.8-67.5L2222,472.6V243.3z"/><path fill="#F1F2F2" stroke="#414042" stroke-width="5.09" stroke-miterlimit="10" d="M2851.4 328.9L2553.5 437.5 2553.5 424.5 2851.4 318.6zM2851 412.4L2552.9 542.9 2552.9 529.9 2851 402.1z"/><path fill="none" stroke="#D1D3D4" stroke-width="5.09" stroke-linecap="round" stroke-miterlimit="10" d="M2484.2 261.7L2782.1 191.5M2408.4 204.1L2706.3 146.5M2328.4 141.9L2627.2 99.1"/><path fill="#FFDA99" stroke="#545453" stroke-width="6" stroke-miterlimit="10" d="M3225 192.1L2862.7 316.2 2862.7 256.8 3225 151.7z"/><path fill="#FDBD56" stroke="#545453" stroke-width="6" stroke-miterlimit="10" d="M2962.5 294.9L2904.3 316.8 2904.3 464.6 2962.5 435zM3093.3 252.1L3052.3 267.6 3052.3 391.1 3093.3 370.1zM3200.2 215.2L3170.5 226.4 3170.5 331 3200.2 315.9z"/><path fill="none" stroke="#414042" stroke-width="5.09" stroke-linecap="round" stroke-miterlimit="10" d="M2951.5 231.1L2951.5 285.8M3044.3 204.1L3044.3 252.1M3118.8 185.7L3118.8 229M3185.3 164L3185.3 204"/><path fill="#A7A9AC" stroke="#000" stroke-width="5.09" stroke-miterlimit="10" d="M166.1 125.2L166.1 295.4 186.5 291.8 186.5 153.8 186.6 154 186.5 124.2 374.6 33.7zM466 200.1L681.5 75.7 441.8 203.9 441.8 433.6 466 426.7 466 212.7z"/><path fill="none" stroke="#000" stroke-width="5.09" stroke-miterlimit="10" d="M549.8,89c0,0,723.4,108.7,718.2,110 L843.8,314.7c3.1-0.8,2.8-0.8,2.5-0.8c0,0-683.1-187.7-681.1-187.9C165.1,126,549.6,89,549.8,89z"/><path fill="none" stroke="#000" stroke-width="5.09" stroke-miterlimit="10" d="M1094.7,128.4l171.1,69.7 c0.7,0.3,0.7,1.3-0.1,1.5L850.3,312.8c-0.9,0.2-1.4-0.9-0.7-1.4l244.2-182.8C1094.1,128.3,1094.4,128.3,1094.7,128.4z"/><path fill="none" stroke="#414042" stroke-width="14" stroke-linecap="round" stroke-miterlimit="10" d="M374.6 33.7L1093.9 128.5"/></g></switch></svg>