<svg width="118" height="118" xmlns="http://www.w3.org/2000/svg" xmlns:xlink="http://www.w3.org/1999/xlink"><defs><filter x="-10.7%" y="-4.3%" width="121.4%" height="117.4%" filterUnits="objectBoundingBox" id="a"><feOffset dy="2" in="SourceAlpha" result="shadowOffsetOuter1"/><feGaussianBlur stdDeviation="1" in="shadowOffsetOuter1" result="shadowBlurOuter1"/><feColorMatrix values="0 0 0 0 1 0 0 0 0 1 0 0 0 0 1 0 0 0 1 0" in="shadowBlurOuter1"/></filter><filter x="-5.3%" y="-27.1%" width="110.7%" height="208.3%" filterUnits="objectBoundingBox" id="c"><feOffset dy="2" in="SourceAlpha" result="shadowOffsetOuter1"/><feGaussianBlur stdDeviation="1" in="shadowOffsetOuter1" result="shadowBlurOuter1"/><feColorMatrix values="0 0 0 0 1 0 0 0 0 1 0 0 0 0 1 0 0 0 1 0" in="shadowBlurOuter1"/></filter><filter x="-6.1%" y="-11.8%" width="112.2%" height="147%" filterUnits="objectBoundingBox" id="e"><feOffset dy="2" in="SourceAlpha" result="shadowOffsetOuter1"/><feGaussianBlur stdDeviation="1" in="shadowOffsetOuter1" result="shadowBlurOuter1"/><feColorMatrix values="0 0 0 0 1 0 0 0 0 1 0 0 0 0 1 0 0 0 1 0" in="shadowBlurOuter1"/></filter><path d="M38.19 68.216c.025-1.368.152-2.616.38-3.743.228-1.127.659-2.09 1.292-2.888s1.52-1.412 2.66-1.843c1.14-.431 2.635-.646 4.484-.646 1.773 0 3.217.19 4.332.57 1.115.38 1.995.906 2.641 1.577a5.339 5.339 0 011.33 2.337c.241.887.361 1.837.361 2.85 0 1.824-.304 3.357-.912 4.598a12.608 12.608 0 01-2.432 3.382l-4.18 4.066c-.304.304-.64.646-1.007 1.026-.367.38-.614.773-.741 1.178h9.272V86H37.962c0-1.9.285-3.692.855-5.377.57-1.685 1.628-3.325 3.173-4.921l4.712-4.788c.684-.684 1.172-1.336 1.463-1.957.291-.621.437-1.438.437-2.451 0-1.14-.165-1.925-.494-2.356-.329-.431-.773-.646-1.33-.646-.253 0-.494.044-.722.133-.228.089-.437.26-.627.513s-.342.614-.456 1.083c-.114.469-.171 1.083-.171 1.843v1.14H38.19zm20.368-8.588h15.618v5.32H63.954l-.304 4.522c.659-.608 1.4-1.089 2.223-1.444s1.742-.532 2.755-.532c2.204 0 3.876.697 5.016 2.09 1.14 1.393 1.71 3.547 1.71 6.46 0 1.773-.146 3.312-.437 4.617-.291 1.305-.779 2.388-1.463 3.249-.684.861-1.59 1.495-2.717 1.9-1.127.405-2.527.608-4.199.608-3.116 0-5.364-.659-6.745-1.976-1.381-1.317-2.071-3.192-2.071-5.624v-.874h6.612v.912c0 1.267.171 2.128.513 2.584.342.456.817.684 1.425.684.355 0 .652-.057.893-.171.241-.114.45-.374.627-.779s.304-.988.38-1.748c.076-.76.114-1.786.114-3.078 0-1.52-.171-2.578-.513-3.173-.342-.595-.842-.893-1.501-.893-.583 0-1.051.177-1.406.532-.355.355-.532.937-.532 1.748H57.95l.608-14.934zM53.28 99.84c0-.347.027-.642.08-.885a1.42 1.42 0 01.265-.595c.123-.153.285-.265.485-.335s.447-.105.74-.105.54.035.74.105c.2.07.362.182.485.335.123.153.212.352.265.595.053.243.08.538.08.885s-.027.642-.08.885a1.42 1.42 0 01-.265.595c-.123.153-.285.265-.485.335s-.447.105-.74.105-.54-.035-.74-.105c-.2-.07-.362-.182-.485-.335a1.42 1.42 0 01-.265-.595 4.218 4.218 0 01-.08-.885zm4.3 3.38c0-.347.027-.642.08-.885a1.42 1.42 0 01.265-.595c.123-.153.285-.265.485-.335s.447-.105.74-.105.54.035.74.105c.2.07.362.182.485.335.123.153.212.352.265.595.053.243.08.538.08.885s-.027.642-.08.885a1.42 1.42 0 01-.265.595c-.123.153-.285.26-.485.32s-.447.09-.74.09-.54-.03-.74-.09c-.2-.06-.362-.167-.485-.32s-.212-.352-.265-.595a4.218 4.218 0 01-.08-.885zm-3.08-3.38l.015.56c.01.147.027.262.05.345.023.083.058.14.105.17l.18.045.18-.045c.047-.03.082-.087.105-.17a1.81 1.81 0 00.05-.345l.015-.56-.015-.565-.05-.34c-.023-.083-.058-.14-.105-.17l-.18-.045-.18.045c-.047.03-.082.087-.105.17l-.05.34-.015.565zm3.53-1.92h1.1l-3.17 7.19h-1.1l3.17-7.19zm.77 5.3l.015.56c.01.147.027.262.05.345.023.083.058.14.105.17l.18.045.18-.045c.047-.03.082-.087.105-.17a1.81 1.81 0 00.05-.345l.015-.56-.015-.565-.05-.34c-.023-.083-.058-.14-.105-.17l-.18-.045-.18.045c-.047.03-.082.087-.105.17l-.05.34-.015.565z" id="b"/><path d="M22.055 52.11c-.52 0-.947-.065-1.28-.195a1.584 1.584 0 01-.78-.635c-.187-.293-.315-.673-.385-1.14a11.784 11.784 0 01-.105-1.71c0-.68.042-1.257.125-1.73.083-.473.225-.857.425-1.15.2-.293.463-.505.79-.635s.73-.195 1.21-.195c.42 0 .777.053 1.07.16.293.107.532.258.715.455.183.197.317.433.4.71.083.277.125.588.125.935v.45h-1.8v-.4c0-.407-.04-.683-.12-.83-.08-.147-.21-.22-.39-.22a.49.49 0 00-.335.11c-.083.073-.147.203-.19.39a4.28 4.28 0 00-.085.755c-.013.317-.02.715-.02 1.195 0 .48.007.878.02 1.195.013.317.042.568.085.755.043.187.107.317.19.39a.49.49 0 00.335.11.443.443 0 00.28-.085.552.552 0 00.17-.285c.04-.133.068-.312.085-.535.017-.223.025-.505.025-.845h1.8v.53c0 .507-.067.918-.2 1.235-.133.317-.31.565-.53.745-.22.18-.472.303-.755.37-.283.067-.575.1-.875.1zm5.32 0c-.467 0-.86-.053-1.18-.16a1.836 1.836 0 01-.775-.475 1.848 1.848 0 01-.425-.785 4.092 4.092 0 01-.13-1.09v-.22h1.8l.015.615c.01.183.037.342.08.475a.703.703 0 00.185.31c.08.073.19.11.33.11a.51.51 0 00.28-.07c.073-.047.132-.137.175-.27a2.61 2.61 0 00.095-.56c.02-.24.033-.553.04-.94h-1.18v-1.44h1.19c-.007-.32-.018-.585-.035-.795-.017-.21-.048-.377-.095-.5s-.107-.21-.18-.26a.487.487 0 00-.28-.075.43.43 0 00-.325.12.732.732 0 00-.17.31c-.037.127-.058.27-.065.43l-.01.48h-1.79v-.18c0-.393.038-.74.115-1.04.077-.3.207-.553.39-.76.183-.207.427-.362.73-.465.303-.103.678-.155 1.125-.155.58 0 1.035.092 1.365.275.33.183.58.438.75.765.17.327.277.715.32 1.165.043.45.065.942.065 1.475 0 .493-.017.963-.05 1.41-.033.447-.128.84-.285 1.18-.157.34-.397.612-.72.815-.323.203-.775.305-1.355.305zm3.01-7.25h1.86v2.74h.02l1.38-2.74h1.98l-1.8 3.12 2.02 4.02h-2.12l-1.09-2.49-.39.6V52h-1.86v-7.14zm7.77 7.25c-.473 0-.873-.065-1.2-.195a1.696 1.696 0 01-.79-.635c-.2-.293-.343-.673-.43-1.14-.087-.467-.13-1.037-.13-1.71 0-.667.043-1.235.13-1.705.087-.47.23-.853.43-1.15.2-.297.463-.513.79-.65s.727-.205 1.2-.205.873.068 1.2.205c.327.137.59.353.79.65.2.297.343.68.43 1.15.087.47.13 1.038.13 1.705 0 .673-.043 1.243-.13 1.71-.087.467-.23.847-.43 1.14-.2.293-.463.505-.79.635s-.727.195-1.2.195zm0-1.23a.49.49 0 00.335-.11c.083-.073.147-.203.19-.39a4.28 4.28 0 00.085-.755c.013-.317.02-.715.02-1.195 0-.48-.007-.878-.02-1.195a4.28 4.28 0 00-.085-.755c-.043-.187-.107-.317-.19-.39-.083-.073-.195-.11-.335-.11s-.252.037-.335.11c-.083.073-.147.203-.19.39a4.28 4.28 0 00-.085.755c-.013.317-.02.715-.02 1.195 0 .48.007.878.02 1.195.013.317.042.568.085.755.043.187.107.317.19.39a.49.49 0 00.335.11zm3.22-6.02h1.86v2.62h1.14v-2.62h1.86V52h-1.86v-2.94h-1.14V52h-1.86v-7.14zm8.08 7.25c-.473 0-.873-.065-1.2-.195a1.696 1.696 0 01-.79-.635c-.2-.293-.343-.673-.43-1.14-.087-.467-.13-1.037-.13-1.71 0-.667.043-1.235.13-1.705.087-.47.23-.853.43-1.15.2-.297.463-.513.79-.65s.727-.205 1.2-.205.873.068 1.2.205c.327.137.59.353.79.65.2.297.343.68.43 1.15.087.47.13 1.038.13 1.705 0 .673-.043 1.243-.13 1.71-.087.467-.23.847-.43 1.14-.2.293-.463.505-.79.635s-.727.195-1.2.195zm0-1.23a.49.49 0 00.335-.11c.083-.073.147-.203.19-.39a4.28 4.28 0 00.085-.755c.013-.317.02-.715.02-1.195 0-.48-.007-.878-.02-1.195a4.28 4.28 0 00-.085-.755c-.043-.187-.107-.317-.19-.39-.083-.073-.195-.11-.335-.11s-.252.037-.335.11c-.083.073-.147.203-.19.39a4.28 4.28 0 00-.085.755c-.013.317-.02.715-.02 1.195 0 .48.007.878.02 1.195.013.317.042.568.085.755.043.187.107.317.19.39a.49.49 0 00.335.11zm3.15-6.02h2.66l.75 4.23h.02l.75-4.23h2.66V52h-1.74v-5.32h-.02l-.99 5.32h-1.34l-.99-5.32h-.02V52h-1.74v-7.14zm7.65 0h1.79v4.01l1.2-4.01h2.08V52h-1.79v-4.26L62.315 52h-2.06v-7.14zm5.88 0h2.66l.75 4.23h.02l.75-4.23h2.66V52h-1.74v-5.32h-.02l-.99 5.32h-1.34l-.99-5.32h-.02V52h-1.74v-7.14zm10.31 0h2.81c.667 0 1.158.162 1.475.485.317.323.475.755.475 1.295 0 .187-.022.368-.065.545-.043.177-.11.337-.2.48-.09.143-.205.265-.345.365-.14.1-.31.17-.51.21v.02c.233.02.433.082.6.185.167.103.303.232.41.385.107.153.185.322.235.505.05.183.075.368.075.555 0 .313-.04.598-.12.855-.08.257-.205.478-.375.665-.17.187-.392.332-.665.435a2.811 2.811 0 01-.99.155h-2.81v-7.14zm2.38 5.8a.613.613 0 00.46-.215c.133-.143.2-.365.2-.665 0-.28-.067-.493-.2-.64a.606.606 0 00-.46-.22h-.52v1.74h.52zm-.07-3c.193 0 .34-.072.44-.215a.86.86 0 00.15-.505c0-.2-.05-.373-.15-.52a.498.498 0 00-.44-.22h-.45v1.46h.45zm4.44-2.8h2.34l1.74 7.14h-1.98l-.19-1.25h-1.48l-.19 1.25h-1.95l1.71-7.14zm1.69 4.49l-.51-3.03h-.02l-.51 3.03h1.04zm2.63-4.49h2.66l.75 4.23h.02l.75-4.23h2.66V52h-1.74v-5.32h-.02l-.99 5.32h-1.34l-.99-5.32h-.02V52h-1.74v-7.14z" id="d"/><path d="M24.37 33.96h.96c.28-.56.513-1.13.7-1.71.187-.58.337-1.183.45-1.81.113-.627.19-1.287.23-1.98.04-.693.06-1.447.06-2.26v-3.48h9.08v11.24h1.26v5.78h-3.4V37h-5.94v2.74h-3.4v-5.78zm7.78 0v-8.28h-1.88V27a24 24 0 01-.34 4.04c-.107.613-.227 1.17-.36 1.67-.133.5-.267.917-.4 1.25h2.98zm5.92-11.24h8.46v3.04h-4.74v2.44h4.44v2.92h-4.44v2.84h4.92V37h-8.64V22.72zm10 0h3.72v5.24h2.28v-5.24h3.72V37h-3.72v-5.88h-2.28V37h-3.72V22.72zm11.48 0h3.72v5.12h1.46c1.627 0 2.81.397 3.55 1.19.74.793 1.11 1.897 1.11 3.31 0 .907-.14 1.66-.42 2.26-.28.6-.643 1.077-1.09 1.43a4.08 4.08 0 01-1.51.75 6.67 6.67 0 01-1.7.22h-5.12V22.72zm4.22 11.6c.667 0 1.133-.157 1.4-.47.267-.313.4-.803.4-1.47 0-.747-.163-1.25-.49-1.51-.327-.26-.77-.39-1.33-.39h-.48v3.84h.5zm6.98-11.6h8.02v3.04h-4.3V37h-3.72V22.72zm8.86 0h3.58v8.02l2.4-8.02h4.16V37h-3.58v-8.52L83.73 37h-4.12V22.72z" id="f"/></defs><g fill="none"><path d="M59 116c31.48 0 57-25.52 57-57S90.48 2 59 2 2 27.52 2 59s25.52 57 57 57z" stroke="#000" stroke-width="4" fill="#eee" stroke-dasharray="1,1"/><g transform="translate(2 2)"><use fill="#000" filter="url(#a)" xlink:href="#b"/><use fill="#5E5E5F" xlink:href="#b"/></g><g transform="translate(2 2)"><use fill="#000" filter="url(#c)" xlink:href="#d"/><use fill="#5E5E5F" xlink:href="#d"/></g><g transform="translate(2 2)"><use fill="#000" filter="url(#e)" xlink:href="#f"/><use fill="#5E5E5F" xlink:href="#f"/></g></g></svg>