<svg width="118" height="118" xmlns="http://www.w3.org/2000/svg" xmlns:xlink="http://www.w3.org/1999/xlink"><defs><filter x="-18.5%" y="-4.3%" width="137%" height="117.1%" filterUnits="objectBoundingBox" id="a"><feOffset dy="2" in="SourceAlpha" result="shadowOffsetOuter1"/><feGaussianBlur stdDeviation="1" in="shadowOffsetOuter1" result="shadowBlurOuter1"/><feColorMatrix values="0 0 0 0 1 0 0 0 0 1 0 0 0 0 1 0 0 0 1 0" in="shadowBlurOuter1"/></filter><filter x="-4.5%" y="-18.8%" width="109%" height="175.3%" filterUnits="objectBoundingBox" id="c"><feOffset dy="2" in="SourceAlpha" result="shadowOffsetOuter1"/><feGaussianBlur stdDeviation="1" in="shadowOffsetOuter1" result="shadowBlurOuter1"/><feColorMatrix values="0 0 0 0 1 0 0 0 0 1 0 0 0 0 1 0 0 0 1 0" in="shadowBlurOuter1"/></filter><filter x="-5.5%" y="-13.5%" width="111%" height="154.1%" filterUnits="objectBoundingBox" id="e"><feOffset dy="2" in="SourceAlpha" result="shadowOffsetOuter1"/><feGaussianBlur stdDeviation="1" in="shadowOffsetOuter1" result="shadowBlurOuter1"/><feColorMatrix values="0 0 0 0 1 0 0 0 0 1 0 0 0 0 1 0 0 0 1 0" in="shadowBlurOuter1"/></filter><path d="M46.728 74.664l8.512-16.036h7.676v16.264h2.356v5.092h-2.356V85h-6.612v-5.016h-9.576v-5.32zm9.804.228v-8.968h-.076l-4.408 8.968h4.484zM45.48 96.86h4.01v1.52h-2.15V104h-1.86v-7.14zm6.77 7.25c-.473 0-.873-.065-1.2-.195a1.696 1.696 0 01-.79-.635c-.2-.293-.343-.673-.43-1.14-.087-.467-.13-1.037-.13-1.71 0-.667.043-1.235.13-1.705.087-.47.23-.853.43-1.15.2-.297.463-.513.79-.65s.727-.205 1.2-.205.873.068 1.2.205c.327.137.59.353.79.65.2.297.343.68.43 1.15.087.47.13 1.038.13 1.705 0 .673-.043 1.243-.13 1.71-.087.467-.23.847-.43 1.14-.2.293-.463.505-.79.635s-.727.195-1.2.195zm0-1.23a.49.49 0 00.335-.11c.083-.073.147-.203.19-.39a4.28 4.28 0 00.085-.755c.013-.317.02-.715.02-1.195 0-.48-.007-.878-.02-1.195a4.28 4.28 0 00-.085-.755c-.043-.187-.107-.317-.19-.39-.083-.073-.195-.11-.335-.11s-.252.037-.335.11c-.083.073-.147.203-.19.39a4.28 4.28 0 00-.085.755c-.013.317-.02.715-.02 1.195 0 .48.007.878.02 1.195.013.317.042.568.085.755.043.187.107.317.19.39a.49.49 0 00.335.11zm2.68-.4h.48c.14-.28.257-.565.35-.855.093-.29.168-.592.225-.905.057-.313.095-.643.115-.99.02-.347.03-.723.03-1.13v-1.74h4.54v5.62h.63v2.89h-1.7V104h-2.97v1.37h-1.7v-2.89zm3.89 0v-4.14h-.94V99a12 12 0 01-.17 2.02 9.449 9.449 0 01-.18.835c-.067.25-.133.458-.2.625h1.49zm4.23-5.62h2.34l1.74 7.14h-1.98l-.19-1.25h-1.48l-.19 1.25h-1.95l1.71-7.14zm1.69 4.49l-.51-3.03h-.02l-.51 3.03h1.04z" id="b"/><path d="M12.545 43.86h2.81c.667 0 1.158.162 1.475.485.317.323.475.755.475 1.295 0 .187-.022.368-.065.545-.043.177-.11.337-.2.48-.09.143-.205.265-.345.365-.14.1-.31.17-.51.21v.02c.233.02.433.082.6.185.167.103.303.232.41.385.107.153.185.322.235.505.05.183.075.368.075.555 0 .313-.04.598-.12.855-.08.257-.205.478-.375.665-.17.187-.392.332-.665.435a2.811 2.811 0 01-.99.155h-2.81v-7.14zm2.38 5.8a.613.613 0 00.46-.215c.133-.143.2-.365.2-.665 0-.28-.067-.493-.2-.64a.606.606 0 00-.46-.22h-.52v1.74h.52zm-.07-3c.193 0 .34-.072.44-.215a.86.86 0 00.15-.505c0-.2-.05-.373-.15-.52a.498.498 0 00-.44-.22h-.45v1.46h.45zm4.44-2.8h2.34l1.74 7.14h-1.98l-.19-1.25h-1.48l-.19 1.25h-1.95l1.71-7.14zm1.69 4.49l-.51-3.03h-.02l-.51 3.03h1.04zm2.7-4.49h1.86v5.62h1.05v-5.62h1.86v5.62h1.05v-5.62h1.86V51h-7.68v-7.14zm8.56 0h1.79v4.01l1.2-4.01h2.08V51h-1.79v-4.26L34.305 51h-2.06v-7.14zm7.08 3.52l-1.57-3.52h2.08l.59 2.07h.02l.59-2.07h2.08l-1.55 3.52 1.67 3.62h-2.08l-.71-2.15h-.02l-.71 2.15h-2.05l1.66-3.62zm6.83-3.52h1.79v4.01l1.2-4.01h2.08V51h-1.79v-4.26L48.215 51h-2.06v-7.14zm5.95 0h1.86v2.62h1.14v-2.62h1.86V51h-1.86v-2.94h-1.14V51h-1.86v-7.14zm5.8 0h2.81c.667 0 1.158.162 1.475.485.317.323.475.755.475 1.295 0 .187-.022.368-.065.545-.043.177-.11.337-.2.48-.09.143-.205.265-.345.365-.14.1-.31.17-.51.21v.02c.233.02.433.082.6.185.167.103.303.232.41.385.107.153.185.322.235.505.05.183.075.368.075.555 0 .313-.04.598-.12.855-.08.257-.205.478-.375.665-.17.187-.392.332-.665.435a2.811 2.811 0 01-.99.155h-2.81v-7.14zm2.38 5.8a.613.613 0 00.46-.215c.133-.143.2-.365.2-.665 0-.28-.067-.493-.2-.64a.606.606 0 00-.46-.22h-.52v1.74h.52zm-.07-3c.193 0 .34-.072.44-.215a.86.86 0 00.15-.505c0-.2-.05-.373-.15-.52a.498.498 0 00-.44-.22h-.45v1.46h.45zm3.37-2.8h4.23v1.52h-2.37v1.22h2.22v1.46h-2.22v1.42h2.46V51h-4.32v-7.14zm7.34 7.25c-.52 0-.947-.065-1.28-.195a1.584 1.584 0 01-.78-.635c-.187-.293-.315-.673-.385-1.14a11.784 11.784 0 01-.105-1.71c0-.68.042-1.257.125-1.73.083-.473.225-.857.425-1.15.2-.293.463-.505.79-.635s.73-.195 1.21-.195c.42 0 .777.053 1.07.16.293.107.532.258.715.455.183.197.317.433.4.71.083.277.125.588.125.935v.45h-1.8v-.4c0-.407-.04-.683-.12-.83-.08-.147-.21-.22-.39-.22a.49.49 0 00-.335.11c-.083.073-.147.203-.19.39a4.28 4.28 0 00-.085.755c-.013.317-.02.715-.02 1.195 0 .48.007.878.02 1.195.013.317.042.568.085.755.043.187.107.317.19.39a.49.49 0 00.335.11.443.443 0 00.28-.085.552.552 0 00.17-.285c.04-.133.068-.312.085-.535.017-.223.025-.505.025-.845h1.8v.53c0 .507-.067.918-.2 1.235-.133.317-.31.565-.53.745-.22.18-.472.303-.755.37-.283.067-.575.1-.875.1zm3.97-5.67h-1.38v-1.58h4.64v1.58h-1.4V51h-1.86v-5.56zm3.68-1.58h1.79v4.01l1.2-4.01h2.08V51h-1.79v-4.26L80.635 51h-2.06v-7.14zm9.74 7.14h-3.79v-7.14h1.86v5.62h1.14v-5.62h1.86v5.62h.63v2.89h-1.7V51zm2.18-7.14h1.79v4.01l1.2-4.01h2.08V51h-1.79v-4.26L92.555 51h-2.06v-7.14zm5.95 7.14v-7.14h1.79v4.01l1.2-4.01h2.08V51h-1.79v-4.26L98.505 51h-2.06zm2.56-7.64c-.527 0-.922-.145-1.185-.435-.263-.29-.408-.685-.435-1.185h.87c.06.467.307.7.74.7.447 0 .7-.233.76-.7h.87c-.027.5-.173.895-.44 1.185-.267.29-.66.435-1.18.435z" id="d"/><path d="M21.06 23.72h5.62c1.333 0 2.317.323 2.95.97s.95 1.51.95 2.59c0 .373-.043.737-.13 1.09-.087.353-.22.673-.4.96-.18.287-.41.53-.69.73-.28.2-.62.34-1.02.42v.04c.467.04.867.163 1.2.37.333.207.607.463.82.77.213.307.37.643.47 1.01.1.367.15.737.15 1.11 0 .627-.08 1.197-.24 1.71-.16.513-.41.957-.75 1.33-.34.373-.783.663-1.33.87-.547.207-1.207.31-1.98.31h-5.62V23.72zm4.76 11.6c.347 0 .653-.143.92-.43.267-.287.4-.73.4-1.33 0-.56-.133-.987-.4-1.28-.267-.293-.573-.44-.92-.44h-1.04v3.48h1.04zm-.14-6c.387 0 .68-.143.88-.43.2-.287.3-.623.3-1.01 0-.4-.1-.747-.3-1.04-.2-.293-.493-.44-.88-.44h-.9v2.92h.9zm11.42 8.9c-.947 0-1.747-.13-2.4-.39a3.391 3.391 0 01-1.58-1.27c-.4-.587-.687-1.347-.86-2.28-.173-.933-.26-2.073-.26-3.42 0-1.333.087-2.47.26-3.41.173-.94.46-1.707.86-2.3.4-.593.927-1.027 1.58-1.3.653-.273 1.453-.41 2.4-.41.947 0 1.747.137 2.4.41.653.273 1.18.707 1.58 1.3.4.593.687 1.36.86 2.3.173.94.26 2.077.26 3.41 0 1.347-.087 2.487-.26 3.42-.173.933-.46 1.693-.86 2.28-.4.587-.927 1.01-1.58 1.27s-1.453.39-2.4.39zm0-2.46c.28 0 .503-.073.67-.22.167-.147.293-.407.38-.78.087-.373.143-.877.17-1.51.027-.633.04-1.43.04-2.39 0-.96-.013-1.757-.04-2.39-.027-.633-.083-1.137-.17-1.51-.087-.373-.213-.633-.38-.78-.167-.147-.39-.22-.67-.22s-.503.073-.67.22c-.167.147-.293.407-.38.78-.087.373-.143.877-.17 1.51a58.05 58.05 0 00-.04 2.39c0 .96.013 1.757.04 2.39.027.633.083 1.137.17 1.51.087.373.213.633.38.78.167.147.39.22.67.22zm10.56 2.46c-.787 0-1.477-.077-2.07-.23-.593-.153-1.09-.4-1.49-.74-.4-.34-.7-.79-.9-1.35-.2-.56-.3-1.24-.3-2.04v-.16h3.58v.14c0 .733.09 1.237.27 1.51.18.273.477.41.89.41.213 0 .397-.027.55-.08a.742.742 0 00.38-.31c.1-.153.173-.367.22-.64.047-.273.07-.63.07-1.07 0-.32-.013-.59-.04-.81-.027-.22-.093-.393-.2-.52-.107-.127-.267-.217-.48-.27-.213-.053-.507-.08-.88-.08h-.38l-.46.02v-2.6l.4.02h.34c.347 0 .623-.027.83-.08a.788.788 0 00.47-.31c.107-.153.173-.367.2-.64.027-.273.04-.623.04-1.05 0-.533-.093-.897-.28-1.09-.187-.193-.44-.29-.76-.29-.227 0-.41.053-.55.16-.14.107-.25.247-.33.42-.08.173-.133.37-.16.59-.027.22-.04.443-.04.67h-3.52v-.1c0-1.44.38-2.51 1.14-3.21.76-.7 1.947-1.05 3.56-1.05 1.587 0 2.75.317 3.49.95.74.633 1.11 1.617 1.11 2.95 0 .347-.04.683-.12 1.01-.08.327-.21.63-.39.91-.18.28-.41.523-.69.73-.28.207-.62.357-1.02.45.907.16 1.56.513 1.96 1.06.4.547.6 1.32.6 2.32 0 .8-.117 1.48-.35 2.04a3.39 3.39 0 01-1.01 1.37c-.44.353-.97.607-1.59.76a8.74 8.74 0 01-2.09.23zm6.6-14.5h5.62c1.333 0 2.317.323 2.95.97s.95 1.51.95 2.59c0 .373-.043.737-.13 1.09-.087.353-.22.673-.4.96-.18.287-.41.53-.69.73-.28.2-.62.34-1.02.42v.04c.467.04.867.163 1.2.37.333.207.607.463.82.77.213.307.37.643.47 1.01.1.367.15.737.15 1.11 0 .627-.08 1.197-.24 1.71-.16.513-.41.957-.75 1.33-.34.373-.783.663-1.33.87-.547.207-1.207.31-1.98.31h-5.62V23.72zm4.76 11.6c.347 0 .653-.143.92-.43.267-.287.4-.73.4-1.33 0-.56-.133-.987-.4-1.28-.267-.293-.573-.44-.92-.44h-1.04v3.48h1.04zm-.14-6c.387 0 .68-.143.88-.43.2-.287.3-.623.3-1.01 0-.4-.1-.747-.3-1.04-.2-.293-.493-.44-.88-.44h-.9v2.92h.9zm6.6-5.6h5.58c.707 0 1.32.113 1.84.34.52.227.95.537 1.29.93.34.393.59.86.75 1.4.16.54.24 1.117.24 1.73 0 1.493-.397 2.607-1.19 3.34-.793.733-1.957 1.1-3.49 1.1h-1.3V38h-3.72V23.72zm4.42 6.16c.467 0 .823-.14 1.07-.42.247-.28.37-.72.37-1.32 0-1.16-.48-1.74-1.44-1.74h-.7v3.48h.7zm8-6.16h4.68L86.06 38H82.1l-.38-2.5h-2.96l-.38 2.5h-3.9l3.42-14.28zm3.38 8.98l-1.02-6.06h-.04L79.2 32.7h2.08zm6.18-5.82H84.7v-3.16h9.28v3.16h-2.8V38h-3.72V26.88z" id="f"/></defs><g fill="none"><path d="M59 116c31.48 0 57-25.52 57-57S90.48 2 59 2 2 27.52 2 59s25.52 57 57 57z" stroke="#000" stroke-width="4" fill="#eee" stroke-dasharray="1,1"/><g transform="translate(2 2)"><use fill="#000" filter="url(#a)" xlink:href="#b"/><use fill="#5E5E5F" xlink:href="#b"/></g><g transform="translate(2 2)"><use fill="#000" filter="url(#c)" xlink:href="#d"/><use fill="#5E5E5F" xlink:href="#d"/></g><g transform="translate(2 2)"><use fill="#000" filter="url(#e)" xlink:href="#f"/><use fill="#5E5E5F" xlink:href="#f"/></g></g></svg>