<svg width="118" height="118" xmlns="http://www.w3.org/2000/svg" xmlns:xlink="http://www.w3.org/1999/xlink"><defs><filter x="-13.4%" y="-4.2%" width="126.4%" height="117%" filterUnits="objectBoundingBox" id="a"><feOffset dy="2" in="SourceAlpha" result="shadowOffsetOuter1"/><feGaussianBlur stdDeviation="1" in="shadowOffsetOuter1" result="shadowBlurOuter1"/><feColorMatrix values="0 0 0 0 1 0 0 0 0 1 0 0 0 0 1 0 0 0 1 0" in="shadowBlurOuter1"/></filter><filter x="-4.4%" y="-23.1%" width="108.8%" height="192.5%" filterUnits="objectBoundingBox" id="c"><feOffset dy="2" in="SourceAlpha" result="shadowOffsetOuter1"/><feGaussianBlur stdDeviation="1" in="shadowOffsetOuter1" result="shadowBlurOuter1"/><feColorMatrix values="0 0 0 0 1 0 0 0 0 1 0 0 0 0 1 0 0 0 1 0" in="shadowBlurOuter1"/></filter><filter x="-7.1%" y="-14%" width="114.1%" height="156%" filterUnits="objectBoundingBox" id="e"><feOffset dy="2" in="SourceAlpha" result="shadowOffsetOuter1"/><feGaussianBlur stdDeviation="1" in="shadowOffsetOuter1" result="shadowBlurOuter1"/><feColorMatrix values="0 0 0 0 1 0 0 0 0 1 0 0 0 0 1 0 0 0 1 0" in="shadowBlurOuter1"/></filter><path d="M47.646 68.228c.076-2.812.811-4.864 2.204-6.156 1.393-1.317 3.471-1.976 6.232-1.976 1.647 0 3.015.165 4.104.494 1.089.329 1.957.811 2.603 1.444.646.633 1.102 1.412 1.368 2.337.266.925.399 1.982.399 3.173 0 .532-.063 1.083-.19 1.653-.127.57-.336 1.102-.627 1.596s-.678.931-1.159 1.311c-.481.38-1.077.646-1.786.798v.076c1.571.304 2.673.994 3.306 2.071.633 1.077.95 2.35.95 3.819 0 3.04-.735 5.225-2.204 6.555-1.469 1.33-3.661 1.995-6.574 1.995-1.52 0-2.844-.127-3.971-.38-1.127-.253-2.058-.709-2.793-1.368-.735-.659-1.279-1.539-1.634-2.641s-.532-2.464-.532-4.085h6.612c0 .76.044 1.393.133 1.9.089.507.209.937.361 1.292.304.659.836.988 1.596.988.405 0 .735-.057.988-.171.253-.114.45-.329.589-.646.139-.317.234-.747.285-1.292.051-.545.076-1.235.076-2.071 0-1.317-.209-2.204-.627-2.66-.418-.456-1.07-.684-1.957-.684h-1.786v-4.408h1.026c.532 0 .988-.051 1.368-.152.38-.101.697-.291.95-.57.253-.279.443-.665.57-1.159.127-.494.19-1.134.19-1.919 0-1.14-.146-1.906-.437-2.299-.291-.393-.741-.589-1.349-.589-.684 0-1.172.266-1.463.798-.291.532-.437 1.507-.437 2.926h-6.384zM41.64 100.62h1.97l.84 3.6.84-3.6h1.97V106h-1.29v-3.82l-.95 3.82h-1.14l-.95-3.82V106h-1.29v-5.38zm8.42 5.49c-.5 0-.89-.085-1.17-.255-.28-.17-.487-.39-.62-.66s-.215-.575-.245-.915a11.6 11.6 0 01-.045-1.02c0-.36.025-.707.075-1.04.05-.333.15-.63.3-.89s.365-.467.645-.62c.28-.153.653-.23 1.12-.23.4 0 .728.065.985.195s.458.313.605.55c.147.237.247.523.3.86.053.337.08.712.08 1.125v.31h-2.73v.43c0 .16.012.315.035.465.023.15.062.283.115.4.053.117.123.21.21.28.087.07.193.105.32.105.233 0 .403-.083.51-.25.107-.167.18-.42.22-.76h1.24c-.027.627-.192 1.103-.495 1.43-.303.327-.788.49-1.455.49zm.71-3.41a5.964 5.964 0 00-.04-.545 1.393 1.393 0 00-.105-.4.56.56 0 00-.21-.25.635.635 0 00-.345-.085.588.588 0 00-.345.095.68.68 0 00-.215.25 1.229 1.229 0 00-.115.345 2.124 2.124 0 00-.035.38v.21h1.41zm3.9 3.41c-.347 0-.648-.043-.905-.13a1.361 1.361 0 01-.64-.45c-.17-.213-.298-.5-.385-.86-.087-.36-.13-.813-.13-1.36 0-.553.053-1.012.16-1.375.107-.363.257-.653.45-.87.193-.217.423-.368.69-.455.267-.087.56-.13.88-.13.64 0 1.122.187 1.445.56.323.373.485.88.485 1.52H55.4l-.025-.385a1.368 1.368 0 00-.09-.35c-.043-.103-.107-.187-.19-.25s-.188-.095-.315-.095a.679.679 0 00-.415.115.702.702 0 00-.235.34c-.053.15-.09.342-.11.575-.02.233-.03.503-.03.81 0 .333.01.618.03.855.02.237.057.432.11.585.053.153.128.265.225.335s.222.105.375.105c.233 0 .403-.1.51-.3.107-.2.16-.52.16-.96h1.32c0 .707-.158 1.245-.475 1.615-.317.37-.842.555-1.575.555zm3.58-2.24a1.487 1.487 0 01-.735-.55c-.177-.253-.265-.583-.265-.99 0-.593.165-1.027.495-1.3.33-.273.765-.41 1.305-.41h2.27V106h-1.37v-1.99h-.38l-.98 1.99h-1.58l1.24-2.13zm1.71-.84v-1.42h-.56c-.273 0-.477.057-.61.17-.133.113-.2.297-.2.55 0 .253.06.433.18.54.12.107.307.16.56.16h.63zm5.73 2.97h-3.45v-5.38h1.38v4.34h1.32v-4.34h1.38v4.34h.62v2.29h-1.25V106zm2.9.11c-.24 0-.443-.043-.61-.13a1.095 1.095 0 01-.4-.345 1.5 1.5 0 01-.22-.485 2.166 2.166 0 01-.07-.55c0-.253.027-.472.08-.655a1.26 1.26 0 01.245-.47c.11-.13.25-.238.42-.325.17-.087.375-.163.615-.23l.78-.21c.207-.053.35-.127.43-.22.08-.093.12-.23.12-.41 0-.207-.048-.368-.145-.485-.097-.117-.262-.175-.495-.175-.213 0-.373.063-.48.19-.107.127-.16.297-.16.51v.15h-1.24v-.13c0-.307.05-.567.15-.78.1-.213.235-.385.405-.515.17-.13.37-.223.6-.28.23-.057.475-.085.735-.085.407 0 .738.04.995.12.257.08.455.193.595.34.14.147.235.322.285.525.05.203.075.425.075.665v2.83c0 .253.012.45.035.59.023.14.068.29.135.45h-1.32a1.116 1.116 0 01-.105-.275l-.065-.285h-.02c-.16.28-.345.462-.555.545-.21.083-.482.125-.815.125zm.54-.91c.093 0 .19-.015.29-.045a.8.8 0 00.48-.4.838.838 0 00.08-.385v-1.06a1.226 1.226 0 01-.3.175l-.29.095c-.28.06-.48.16-.6.3-.12.14-.18.33-.18.57 0 .207.04.383.12.53.08.147.213.22.4.22z" id="b"/><path d="M12.57 44.86h4.86V52h-1.86v-5.62h-1.14V52h-1.86v-7.14zm8.08 7.25c-.473 0-.873-.065-1.2-.195a1.696 1.696 0 01-.79-.635c-.2-.293-.343-.673-.43-1.14-.087-.467-.13-1.037-.13-1.71 0-.667.043-1.235.13-1.705.087-.47.23-.853.43-1.15.2-.297.463-.513.79-.65s.727-.205 1.2-.205.873.068 1.2.205c.327.137.59.353.79.65.2.297.343.68.43 1.15.087.47.13 1.038.13 1.705 0 .673-.043 1.243-.13 1.71-.087.467-.23.847-.43 1.14-.2.293-.463.505-.79.635s-.727.195-1.2.195zm0-1.23a.49.49 0 00.335-.11c.083-.073.147-.203.19-.39a4.28 4.28 0 00.085-.755c.013-.317.02-.715.02-1.195 0-.48-.007-.878-.02-1.195a4.28 4.28 0 00-.085-.755c-.043-.187-.107-.317-.19-.39-.083-.073-.195-.11-.335-.11s-.252.037-.335.11c-.083.073-.147.203-.19.39a4.28 4.28 0 00-.085.755c-.013.317-.02.715-.02 1.195 0 .48.007.878.02 1.195.013.317.042.568.085.755.043.187.107.317.19.39a.49.49 0 00.335.11zm5.56 1.23c-.52 0-.947-.065-1.28-.195a1.584 1.584 0 01-.78-.635c-.187-.293-.315-.673-.385-1.14a11.784 11.784 0 01-.105-1.71c0-.68.042-1.257.125-1.73.083-.473.225-.857.425-1.15.2-.293.463-.505.79-.635s.73-.195 1.21-.195c.42 0 .777.053 1.07.16.293.107.532.258.715.455.183.197.317.433.4.71.083.277.125.588.125.935v.45h-1.8v-.4c0-.407-.04-.683-.12-.83-.08-.147-.21-.22-.39-.22a.49.49 0 00-.335.11c-.083.073-.147.203-.19.39a4.28 4.28 0 00-.085.755c-.013.317-.02.715-.02 1.195 0 .48.007.878.02 1.195.013.317.042.568.085.755.043.187.107.317.19.39a.49.49 0 00.335.11.443.443 0 00.28-.085.552.552 0 00.17-.285c.04-.133.068-.312.085-.535.017-.223.025-.505.025-.845h1.8v.53c0 .507-.067.918-.2 1.235-.133.317-.31.565-.53.745-.22.18-.472.303-.755.37-.283.067-.575.1-.875.1zm3.97-5.67H28.8v-1.58h4.64v1.58h-1.4V52h-1.86v-5.56zm3.61-1.58h2.79c.353 0 .66.057.92.17.26.113.475.268.645.465.17.197.295.43.375.7.08.27.12.558.12.865 0 .747-.198 1.303-.595 1.67-.397.367-.978.55-1.745.55h-.65V52h-1.86v-7.14zM36 47.94c.233 0 .412-.07.535-.21.123-.14.185-.36.185-.66 0-.58-.24-.87-.72-.87h-.35v1.74H36zm5.57 4.17c-.473 0-.873-.065-1.2-.195a1.696 1.696 0 01-.79-.635c-.2-.293-.343-.673-.43-1.14-.087-.467-.13-1.037-.13-1.71 0-.667.043-1.235.13-1.705.087-.47.23-.853.43-1.15.2-.297.463-.513.79-.65s.727-.205 1.2-.205.873.068 1.2.205c.327.137.59.353.79.65.2.297.343.68.43 1.15.087.47.13 1.038.13 1.705 0 .673-.043 1.243-.13 1.71-.087.467-.23.847-.43 1.14-.2.293-.463.505-.79.635s-.727.195-1.2.195zm0-1.23a.49.49 0 00.335-.11c.083-.073.147-.203.19-.39a4.28 4.28 0 00.085-.755c.013-.317.02-.715.02-1.195 0-.48-.007-.878-.02-1.195a4.28 4.28 0 00-.085-.755c-.043-.187-.107-.317-.19-.39-.083-.073-.195-.11-.335-.11s-.252.037-.335.11c-.083.073-.147.203-.19.39a4.28 4.28 0 00-.085.755c-.013.317-.02.715-.02 1.195 0 .48.007.878.02 1.195.013.317.042.568.085.755.043.187.107.317.19.39a.49.49 0 00.335.11zm3.22-6.02h1.79v4.01l1.2-4.01h2.08V52h-1.79v-4.26L46.85 52h-2.06v-7.14zm5.88 0h2.66l.75 4.23h.02l.75-4.23h2.66V52h-1.74v-5.32h-.02L54.76 52h-1.34l-.99-5.32h-.02V52h-1.74v-7.14zm12.59 7.25c-.52 0-.947-.065-1.28-.195a1.584 1.584 0 01-.78-.635c-.187-.293-.315-.673-.385-1.14a11.784 11.784 0 01-.105-1.71c0-.68.042-1.257.125-1.73.083-.473.225-.857.425-1.15.2-.293.463-.505.79-.635s.73-.195 1.21-.195c.42 0 .777.053 1.07.16.293.107.532.258.715.455.183.197.317.433.4.71.083.277.125.588.125.935v.45h-1.8v-.4c0-.407-.04-.683-.12-.83-.08-.147-.21-.22-.39-.22a.49.49 0 00-.335.11c-.083.073-.147.203-.19.39a4.28 4.28 0 00-.085.755c-.013.317-.02.715-.02 1.195 0 .48.007.878.02 1.195.013.317.042.568.085.755.043.187.107.317.19.39a.49.49 0 00.335.11.443.443 0 00.28-.085.552.552 0 00.17-.285c.04-.133.068-.312.085-.535.017-.223.025-.505.025-.845h1.8v.53c0 .507-.067.918-.2 1.235-.133.317-.31.565-.53.745-.22.18-.472.303-.755.37-.283.067-.575.1-.875.1zm2.96-7.25h1.86v2.74h.02l1.38-2.74h1.98l-1.8 3.12L71.68 52h-2.12l-1.09-2.49-.39.6V52h-1.86v-7.14zm6 7.2l-.185-.005-.22-.015-.225-.02-.18-.03v-1.47l.12.015.12.005c.12 0 .225-.012.315-.035.09-.023.168-.092.235-.205.067-.113.12-.288.16-.525.04-.237.073-.565.1-.985.027-.42.045-.95.055-1.59.01-.64.015-1.42.015-2.34H77V52h-1.86v-5.66h-.86c0 1.153-.022 2.098-.065 2.835-.043.737-.137 1.32-.28 1.75-.143.43-.352.727-.625.89-.273.163-.637.245-1.09.245zm6.83-7.2h2.34L83.13 52h-1.98l-.19-1.25h-1.48L79.29 52h-1.95l1.71-7.14zm1.69 4.49l-.51-3.03h-.02l-.51 3.03h1.04zm2.36 1.13h.48c.14-.28.257-.565.35-.855.093-.29.168-.592.225-.905.057-.313.095-.643.115-.99.02-.347.03-.723.03-1.13v-1.74h4.54v5.62h.63v2.89h-1.7V52H84.8v1.37h-1.7v-2.89zm3.89 0v-4.14h-.94V47a12 12 0 01-.17 2.02 9.449 9.449 0 01-.18.835c-.067.25-.133.458-.2.625h1.49zm7.62 1.63c-.393 0-.738-.038-1.035-.115a1.845 1.845 0 01-.745-.37c-.2-.17-.35-.395-.45-.675-.1-.28-.15-.62-.15-1.02v-.08h1.79v.07c0 .367.045.618.135.755.09.137.238.205.445.205a.831.831 0 00.275-.04.37.37 0 00.19-.155.846.846 0 00.11-.32 3.34 3.34 0 00.035-.535l-.02-.405a.484.484 0 00-.1-.26.445.445 0 00-.24-.135 1.88 1.88 0 00-.44-.04h-.19l-.23.01v-1.3l.2.01h.17c.173 0 .312-.013.415-.04a.394.394 0 00.235-.155.672.672 0 00.1-.32c.013-.137.02-.312.02-.525 0-.267-.047-.448-.14-.545a.502.502 0 00-.38-.145.444.444 0 00-.275.08.541.541 0 00-.165.21.975.975 0 00-.08.295l-.02.335h-1.76v-.05c0-.72.19-1.255.57-1.605.38-.35.973-.525 1.78-.525.793 0 1.375.158 1.745.475.37.317.555.808.555 1.475 0 .173-.02.342-.06.505-.04.163-.105.315-.195.455-.09.14-.205.262-.345.365-.14.103-.31.178-.51.225.453.08.78.257.98.53.2.273.3.66.3 1.16 0 .4-.058.74-.175 1.02-.117.28-.285.508-.505.685-.22.177-.485.303-.795.38-.31.077-.658.115-1.045.115zm4.31-7.25h2.34L103 52h-1.98l-.19-1.25h-1.48L99.16 52h-1.95l1.71-7.14zm1.69 4.49l-.51-3.03h-.02l-.51 3.03h1.04z" id="d"/><path d="M29.21 24.72h5.62c1.333 0 2.317.323 2.95.97s.95 1.51.95 2.59c0 .373-.043.737-.13 1.09-.087.353-.22.673-.4.96-.18.287-.41.53-.69.73-.28.2-.62.34-1.02.42v.04c.467.04.867.163 1.2.37.333.207.607.463.82.77.213.307.37.643.47 1.01.1.367.15.737.15 1.11 0 .627-.08 1.197-.24 1.71-.16.513-.41.957-.75 1.33-.34.373-.783.663-1.33.87-.547.207-1.207.31-1.98.31h-5.62V24.72zm4.76 11.6c.347 0 .653-.143.92-.43.267-.287.4-.73.4-1.33 0-.56-.133-.987-.4-1.28-.267-.293-.573-.44-.92-.44h-1.04v3.48h1.04zm-.14-6c.387 0 .68-.143.88-.43.2-.287.3-.623.3-1.01 0-.4-.1-.747-.3-1.04-.2-.293-.493-.44-.88-.44h-.9v2.92h.9zm6.6-5.6h5.58c.707 0 1.32.113 1.84.34.52.227.95.537 1.29.93.34.393.59.86.75 1.4.16.54.24 1.117.24 1.73 0 1.493-.397 2.607-1.19 3.34-.793.733-1.957 1.1-3.49 1.1h-1.3V39h-3.72V24.72zm4.42 6.16c.467 0 .823-.14 1.07-.42.247-.28.37-.72.37-1.32 0-1.16-.48-1.74-1.44-1.74h-.7v3.48h.7zm6.46-6.16h8.46v3.04h-4.74v2.44h4.44v2.92h-4.44v2.84h4.92V39h-8.64V24.72zm9.86 0h5.32l1.5 8.46h.04l1.5-8.46h5.32V39h-3.48V28.36h-.04L69.35 39h-2.68l-1.98-10.64h-.04V39h-3.48V24.72zm16.94 8.42c-.653-.347-1.157-.847-1.51-1.5s-.53-1.46-.53-2.42c0-.92.137-1.67.41-2.25.273-.58.633-1.037 1.08-1.37.447-.333.95-.563 1.51-.69s1.127-.19 1.7-.19h5.14V39h-3.72v-5.3h-.58l-2.1 5.3h-4.04l2.64-5.86zm4.2-2.1v-3.62h-.84c-.627 0-1.063.147-1.31.44-.247.293-.37.76-.37 1.4 0 .707.15 1.18.45 1.42.3.24.717.36 1.25.36h.82z" id="f"/></defs><g fill="none"><path d="M59 116c31.48 0 57-25.52 57-57S90.48 2 59 2 2 27.52 2 59s25.52 57 57 57z" stroke="#000" stroke-width="4" fill="#eee" stroke-dasharray="1,1"/><g transform="translate(2 2)"><use fill="#000" filter="url(#a)" xlink:href="#b"/><use fill="#5E5E5F" xlink:href="#b"/></g><g transform="translate(2 2)"><use fill="#000" filter="url(#c)" xlink:href="#d"/><use fill="#5E5E5F" xlink:href="#d"/></g><g transform="translate(2 2)"><use fill="#000" filter="url(#e)" xlink:href="#f"/><use fill="#5E5E5F" xlink:href="#f"/></g></g></svg>