<svg width="118" height="118" xmlns="http://www.w3.org/2000/svg" xmlns:xlink="http://www.w3.org/1999/xlink"><defs><filter x="-10.5%" y="-4.3%" width="120.9%" height="117.4%" filterUnits="objectBoundingBox" id="a"><feOffset dy="2" in="SourceAlpha" result="shadowOffsetOuter1"/><feGaussianBlur stdDeviation="1" in="shadowOffsetOuter1" result="shadowBlurOuter1"/><feColorMatrix values="0 0 0 0 1 0 0 0 0 1 0 0 0 0 1 0 0 0 1 0" in="shadowBlurOuter1"/></filter><filter x="-4.6%" y="-23.1%" width="109.2%" height="192.5%" filterUnits="objectBoundingBox" id="c"><feOffset dy="2" in="SourceAlpha" result="shadowOffsetOuter1"/><feGaussianBlur stdDeviation="1" in="shadowOffsetOuter1" result="shadowBlurOuter1"/><feColorMatrix values="0 0 0 0 1 0 0 0 0 1 0 0 0 0 1 0 0 0 1 0" in="shadowBlurOuter1"/></filter><filter x="-6.8%" y="-11%" width="113.7%" height="143.9%" filterUnits="objectBoundingBox" id="e"><feOffset dy="2" in="SourceAlpha" result="shadowOffsetOuter1"/><feGaussianBlur stdDeviation="1" in="shadowOffsetOuter1" result="shadowBlurOuter1"/><feColorMatrix values="0 0 0 0 1 0 0 0 0 1 0 0 0 0 1 0 0 0 1 0" in="shadowBlurOuter1"/></filter><path d="M36.848 75.664l8.512-16.036h7.676v16.264h2.356v5.092h-2.356V86h-6.612v-5.016h-9.576v-5.32zm9.804.228v-8.968h-.076l-4.408 8.968h4.484zM63.79 77.26c0 1.9.165 3.186.494 3.857.329.671.861 1.007 1.596 1.007.735 0 1.267-.336 1.596-1.007.329-.671.494-1.957.494-3.857v-8.892c0-1.9-.165-3.186-.494-3.857-.329-.671-.861-1.007-1.596-1.007-.735 0-1.267.336-1.596 1.007-.329.671-.494 1.957-.494 3.857v8.892zm-7.068-4.446c0-2.711.184-4.953.551-6.726.367-1.773.925-3.179 1.672-4.218.747-1.039 1.697-1.761 2.85-2.166s2.514-.608 4.085-.608c1.571 0 2.932.203 4.085.608 1.153.405 2.103 1.127 2.85 2.166.747 1.039 1.305 2.445 1.672 4.218.367 1.773.551 4.015.551 6.726 0 2.736-.184 4.984-.551 6.745-.367 1.761-.925 3.154-1.672 4.18-.747 1.026-1.697 1.729-2.85 2.109-1.153.38-2.514.57-4.085.57-1.571 0-2.932-.19-4.085-.57-1.153-.38-2.103-1.083-2.85-2.109-.747-1.026-1.305-2.419-1.672-4.18-.367-1.761-.551-4.009-.551-6.745zM52.28 99.84c0-.347.027-.642.08-.885a1.42 1.42 0 01.265-.595c.123-.153.285-.265.485-.335s.447-.105.74-.105.54.035.74.105c.2.07.362.182.485.335.123.153.212.352.265.595.053.243.08.538.08.885s-.027.642-.08.885a1.42 1.42 0 01-.265.595c-.123.153-.285.265-.485.335s-.447.105-.74.105-.54-.035-.74-.105c-.2-.07-.362-.182-.485-.335a1.42 1.42 0 01-.265-.595 4.218 4.218 0 01-.08-.885zm4.3 3.38c0-.347.027-.642.08-.885a1.42 1.42 0 01.265-.595c.123-.153.285-.265.485-.335s.447-.105.74-.105.54.035.74.105c.2.07.362.182.485.335.123.153.212.352.265.595.053.243.08.538.08.885s-.027.642-.08.885a1.42 1.42 0 01-.265.595c-.123.153-.285.26-.485.32s-.447.09-.74.09-.54-.03-.74-.09c-.2-.06-.362-.167-.485-.32s-.212-.352-.265-.595a4.218 4.218 0 01-.08-.885zm-3.08-3.38l.015.56c.01.147.027.262.05.345.023.083.058.14.105.17l.18.045.18-.045c.047-.03.082-.087.105-.17a1.81 1.81 0 00.05-.345l.015-.56-.015-.565-.05-.34c-.023-.083-.058-.14-.105-.17l-.18-.045-.18.045c-.047.03-.082.087-.105.17l-.05.34-.015.565zm3.53-1.92h1.1l-3.17 7.19h-1.1l3.17-7.19zm.77 5.3l.015.56c.01.147.027.262.05.345.023.083.058.14.105.17l.18.045.18-.045c.047-.03.082-.087.105-.17a1.81 1.81 0 00.05-.345l.015-.56-.015-.565-.05-.34c-.023-.083-.058-.14-.105-.17l-.18-.045-.18.045c-.047.03-.082.087-.105.17l-.05.34-.015.565z" id="b"/><path d="M16.13 52.11c-.52 0-.947-.065-1.28-.195a1.584 1.584 0 01-.78-.635c-.187-.293-.315-.673-.385-1.14a11.784 11.784 0 01-.105-1.71c0-.68.042-1.257.125-1.73.083-.473.225-.857.425-1.15.2-.293.463-.505.79-.635s.73-.195 1.21-.195c.42 0 .777.053 1.07.16.293.107.532.258.715.455.183.197.317.433.4.71.083.277.125.588.125.935v.45h-1.8v-.4c0-.407-.04-.683-.12-.83-.08-.147-.21-.22-.39-.22a.49.49 0 00-.335.11c-.083.073-.147.203-.19.39a4.28 4.28 0 00-.085.755c-.013.317-.02.715-.02 1.195 0 .48.007.878.02 1.195.013.317.042.568.085.755.043.187.107.317.19.39a.49.49 0 00.335.11.443.443 0 00.28-.085.552.552 0 00.17-.285c.04-.133.068-.312.085-.535.017-.223.025-.505.025-.845h1.8v.53c0 .507-.067.918-.2 1.235-.133.317-.31.565-.53.745-.22.18-.472.303-.755.37-.283.067-.575.1-.875.1zm2.96-7.25h1.86v2.74h.02l1.38-2.74h1.98l-1.8 3.12L24.55 52h-2.12l-1.09-2.49-.39.6V52h-1.86v-7.14zm6 7.2l-.185-.005-.22-.015-.225-.02-.18-.03v-1.47l.12.015.12.005c.12 0 .225-.012.315-.035.09-.023.168-.092.235-.205.067-.113.12-.288.16-.525.04-.237.073-.565.1-.985.027-.42.045-.95.055-1.59.01-.64.015-1.42.015-2.34h4.47V52h-1.86v-5.66h-.86c0 1.153-.022 2.098-.065 2.835-.043.737-.137 1.32-.28 1.75-.143.43-.352.727-.625.89-.273.163-.637.245-1.09.245zm6.83-7.2h2.34L36 52h-1.98l-.19-1.25h-1.48L32.16 52h-1.95l1.71-7.14zm1.69 4.49l-.51-3.03h-.02l-.51 3.03h1.04zm2.36 1.13h.48c.14-.28.257-.565.35-.855.093-.29.168-.592.225-.905.057-.313.095-.643.115-.99.02-.347.03-.723.03-1.13v-1.74h4.54v5.62h.63v2.89h-1.7V52h-2.97v1.37h-1.7v-2.89zm3.89 0v-4.14h-.94V47a12 12 0 01-.17 2.02 9.449 9.449 0 01-.18.835c-.067.25-.133.458-.2.625h1.49zm4.23-5.62h2.34L48.17 52h-1.98L46 50.75h-1.48L44.33 52h-1.95l1.71-7.14zm1.69 4.49l-.51-3.03h-.02l-.51 3.03h1.04zm5.3-4.49h4.46v1.48h-2.6v1.27h.84c.74 0 1.297.177 1.67.53.373.353.56.897.56 1.63 0 .44-.065.803-.195 1.09-.13.287-.302.515-.515.685a1.87 1.87 0 01-.725.355c-.27.067-.545.1-.825.1h-2.67v-7.14zm2.22 5.79c.3 0 .508-.067.625-.2.117-.133.175-.353.175-.66 0-.34-.072-.563-.215-.67-.143-.107-.342-.16-.595-.16h-.35v1.69h.36zm5.72 1.46c-.473 0-.873-.065-1.2-.195a1.696 1.696 0 01-.79-.635c-.2-.293-.343-.673-.43-1.14-.087-.467-.13-1.037-.13-1.71 0-.667.043-1.235.13-1.705.087-.47.23-.853.43-1.15.2-.297.463-.513.79-.65s.727-.205 1.2-.205.873.068 1.2.205c.327.137.59.353.79.65.2.297.343.68.43 1.15.087.47.13 1.038.13 1.705 0 .673-.043 1.243-.13 1.71-.087.467-.23.847-.43 1.14-.2.293-.463.505-.79.635s-.727.195-1.2.195zm0-1.23a.49.49 0 00.335-.11c.083-.073.147-.203.19-.39a4.28 4.28 0 00.085-.755c.013-.317.02-.715.02-1.195 0-.48-.007-.878-.02-1.195a4.28 4.28 0 00-.085-.755c-.043-.187-.107-.317-.19-.39-.083-.073-.195-.11-.335-.11s-.252.037-.335.11c-.083.073-.147.203-.19.39a4.28 4.28 0 00-.085.755c-.013.317-.02.715-.02 1.195 0 .48.007.878.02 1.195.013.317.042.568.085.755.043.187.107.317.19.39a.49.49 0 00.335.11zm3.39 1.18l-.185-.005-.22-.015-.225-.02-.18-.03v-1.47l.12.015.12.005c.12 0 .225-.012.315-.035.09-.023.168-.092.235-.205.067-.113.12-.288.16-.525.04-.237.073-.565.1-.985.027-.42.045-.95.055-1.59.01-.64.015-1.42.015-2.34h4.47V52h-1.86v-5.66h-.86c0 1.153-.022 2.098-.065 2.835-.043.737-.137 1.32-.28 1.75-.143.43-.352.727-.625.89-.273.163-.637.245-1.09.245zm5.66-7.2h1.86v2.56h.73c.813 0 1.405.198 1.775.595.37.397.555.948.555 1.655 0 .453-.07.83-.21 1.13-.14.3-.322.538-.545.715a2.021 2.021 0 01-.755.375c-.28.073-.563.11-.85.11h-2.56v-7.14zm2.11 5.8c.333 0 .567-.078.7-.235.133-.157.2-.402.2-.735 0-.373-.082-.625-.245-.755-.163-.13-.385-.195-.665-.195h-.24v1.92h.25zm3.45-5.8h1.86v5.62h1.05v-5.62h1.86v5.62h1.05v-5.62h1.86V52h-7.68v-7.14zm8.56 0h4.23v1.52h-2.37v1.22h2.22v1.46h-2.22v1.42h2.46V52h-4.32v-7.14zm7.6 0h1.86v2.62h1.14v-2.62h1.86V52h-1.86v-2.94h-1.14V52h-1.86v-7.14zm6.91 0h2.34l1.74 7.14H98.8l-.19-1.25h-1.48L96.94 52h-1.95l1.71-7.14zm1.69 4.49l-.51-3.03h-.02l-.51 3.03h1.04z" id="d"/><path d="M32.72 38.22c-.947 0-1.747-.13-2.4-.39a3.391 3.391 0 01-1.58-1.27c-.4-.587-.687-1.347-.86-2.28-.173-.933-.26-2.073-.26-3.42 0-1.333.087-2.47.26-3.41.173-.94.46-1.707.86-2.3.4-.593.927-1.027 1.58-1.3.653-.273 1.453-.41 2.4-.41.947 0 1.747.137 2.4.41.653.273 1.18.707 1.58 1.3.4.593.687 1.36.86 2.3.173.94.26 2.077.26 3.41 0 1.347-.087 2.487-.26 3.42-.173.933-.46 1.693-.86 2.28-.4.587-.927 1.01-1.58 1.27s-1.453.39-2.4.39zm0-2.46c.28 0 .503-.073.67-.22.167-.147.293-.407.38-.78.087-.373.143-.877.17-1.51.027-.633.04-1.43.04-2.39 0-.96-.013-1.757-.04-2.39-.027-.633-.083-1.137-.17-1.51-.087-.373-.213-.633-.38-.78-.167-.147-.39-.22-.67-.22s-.503.073-.67.22c-.167.147-.293.407-.38.78-.087.373-.143.877-.17 1.51a58.05 58.05 0 00-.04 2.39c0 .96.013 1.757.04 2.39.027.633.083 1.137.17 1.51.087.373.213.633.38.78.167.147.39.22.67.22zm6.44-12.04h8.92v2.96h-5.2v2.54h1.68c1.48 0 2.593.353 3.34 1.06.747.707 1.12 1.793 1.12 3.26 0 .88-.13 1.607-.39 2.18-.26.573-.603 1.03-1.03 1.37-.427.34-.91.577-1.45.71-.54.133-1.09.2-1.65.2h-5.34V23.72zM43.6 35.3c.6 0 1.017-.133 1.25-.4.233-.267.35-.707.35-1.32 0-.68-.143-1.127-.43-1.34-.287-.213-.683-.32-1.19-.32h-.7v3.38h.72zm7.84-8.54h-2.6v-3.04h6.32v5.12h1.46c1.627 0 2.81.397 3.55 1.19.74.793 1.11 1.897 1.11 3.31 0 .907-.14 1.66-.42 2.26-.28.6-.643 1.077-1.09 1.43a4.08 4.08 0 01-1.51.75 6.67 6.67 0 01-1.7.22h-5.12V26.76zm4.22 8.56c.667 0 1.133-.157 1.4-.47.267-.313.4-.803.4-1.47 0-.747-.163-1.25-.49-1.51-.327-.26-.77-.39-1.33-.39h-.48v3.84h.5zm6.9-11.6h8.46v3.04h-4.74v2.44h4.44v2.92h-4.44v2.84h4.92V38h-8.64V23.72zm7.28-3.74v2.8h-2.68v-2.8h2.68zm-3.64 0v2.8h-2.62v-2.8h2.62zm6.22 3.74h5.32l1.5 8.46h.04l1.5-8.46h5.32V38h-3.48V27.36h-.04L80.6 38h-2.68l-1.98-10.64h-.04V38h-3.48V23.72z" id="f"/></defs><g fill="none"><path d="M59 116c31.48 0 57-25.52 57-57S90.48 2 59 2 2 27.52 2 59s25.52 57 57 57z" stroke="#000" stroke-width="4" fill="#eee" stroke-dasharray="1,1"/><g transform="translate(2 2)"><use fill="#000" filter="url(#a)" xlink:href="#b"/><use fill="#5E5E5F" xlink:href="#b"/></g><g transform="translate(2 2)"><use fill="#000" filter="url(#c)" xlink:href="#d"/><use fill="#5E5E5F" xlink:href="#d"/></g><g transform="translate(2 2)"><use fill="#000" filter="url(#e)" xlink:href="#f"/><use fill="#5E5E5F" xlink:href="#f"/></g></g></svg>