<svg xmlns="http://www.w3.org/2000/svg" viewBox="0 0 283.5 283.5" id="facadeWorks"><path fill="#D1D3D4" stroke="#808285" stroke-width="2.009" stroke-miterlimit="10" d="M134.6 258.7L274.8 178c4.8-2.7 4.7-9.6-.1-12.3l-121.5-67c-2.1-1.2-4.7-1.2-6.8 0L6.9 177.1c-4.8 2.7-4.8 9.5-.1 12.2l120.7 69.4c2.2 1.3 4.9 1.3 7.1 0z"/><g stroke-miterlimit="10"><path fill="#F7923F" stroke="#545553" stroke-width=".697" d="M36.9 184.3l-2.3 1.4v-37.6h2.3z"/><path fill="#FCBC56" stroke="#545553" stroke-width=".697" d="M34.6 185.7l-2.3-1.4v-36.2h2.3z"/><path fill="#B7B7B8" stroke="#545553" stroke-width="1.394" d="M45.7 180.9l84.1 47.4v-96.2L45.7 82.8z"/><path fill="#7D7D7D" stroke="#545553" stroke-width="1.394" d="M141 81.9l-11.3 50.7h.1v95.7l106-59.1v-99z"/><path fill="#E2E2E1" stroke="#555655" stroke-width="1.394" d="M129.8 132.5L141 82.8 64.8 36.3 45.7 82.8z"/><path fill="#E2E2E1" stroke="#555655" stroke-width="1.394" d="M235.2 70.3l-95.7 11.5-74.7-45.4 97.1-7.9L235.2 70c.2 0 .2.3 0 .3z"/><path fill="#F7923F" stroke="#545553" stroke-width=".697" d="M68 202.9l-2.3 1.4v-37.6H68zM247 172.3l-2.4 1.3V136h2.4z"/><path fill="#FCBC56" stroke="#545553" stroke-width=".697" d="M244.6 173.6l-2.3-1.3V136h2.3z"/><path fill="#F7923F" stroke="#545553" stroke-width=".697" d="M131.2 239.2l-2.3 1.4v-37.7h2.3z"/><path fill="#FCBC56" stroke="#545553" stroke-width=".697" d="M128.9 240.6l-2.3-1.4v-36.3h2.3zM65.7 204.3l-2.3-1.4v-36.2h2.3z"/><path fill="#F7923F" stroke="#545553" stroke-width=".697" d="M98.2 221.1l-2.3 1.3v-37.6h2.3zM173.5 215l-2.3 1.4v-37.6h2.3z"/><path fill="#FCBC56" stroke="#545553" stroke-width=".697" d="M171.2 216.4l-2.3-1.4v-36.2h2.3zM95.9 222.4l-2.3-1.3v-36.3h2.3z"/><path fill="#F7923F" stroke="#545553" stroke-width=".697" d="M215.8 190.8l-2.3 1.4v-37.6h2.3z"/><path fill="#FCBC56" stroke="#545553" stroke-width=".697" d="M213.5 192.2l-2.3-1.4v-36.2h2.3z"/><path fill="#FCBC56" stroke="#545553" stroke-width=".929" d="M45.7 135.8l-22.3 13.7 106.4 60.4 126-73-20-11.6.2 12.6-106.2 59.9-84.1-47.4z"/><path fill="#F7923F" stroke="#545553" stroke-width=".697" d="M131.2 204.3l-2.3 1.4v-27.9h2.3z"/><path fill="#FCBC56" stroke="#545553" stroke-width=".697" d="M128.9 205.7l-2.3-1.4v-25.1h2.3z"/><path fill="#F7923F" stroke="#545553" stroke-width=".697" d="M68 168.1l-2.3 1.4v-27.9H68z"/><path fill="#FCBC56" stroke="#545553" stroke-width=".697" d="M65.7 169.5l-2.3-1.4V143h2.3z"/><path fill="#F7923F" stroke="#545553" stroke-width=".697" d="M247 137.4l-2.4 1.4v-27.9h2.4z"/><path fill="#FCBC56" stroke="#545553" stroke-width=".697" d="M244.6 138.8l-2.3-1.4v-25.1h2.3z"/><path fill="#F7923F" stroke="#545553" stroke-width=".697" d="M98.2 186.2l-2.3 1.4v-27.9h2.3z"/><path fill="#FCBC56" stroke="#545553" stroke-width=".697" d="M95.9 187.6l-2.3-1.4v-25.1h2.3z"/><path fill="#F7923F" stroke="#545553" stroke-width=".697" d="M173.5 180.2l-2.3 1.3v-27.8h2.3z"/><path fill="#FCBC56" stroke="#545553" stroke-width=".697" d="M171.2 181.5l-2.3-1.3v-25.1h2.3z"/><path fill="#F7923F" stroke="#545553" stroke-width=".697" d="M36.9 149.5l-2.3 1.4V123h2.3z"/><path fill="#FCBC56" stroke="#545553" stroke-width=".697" d="M34.6 150.9l-2.3-1.4v-25.1h2.3z"/><path fill="#F7923F" stroke="#545553" stroke-width=".697" d="M215.8 156l-2.3 1.4v-27.9h2.3z"/><path fill="#FCBC56" stroke="#545553" stroke-width=".697" d="M213.5 157.4l-2.3-1.4v-25.1h2.3z"/><path fill="#FCBC56" stroke="#545553" stroke-width=".929" d="M45.7 112.1l-22.3 13.7 106.4 60.4 126-73-20-11.6.2 12.6-106.2 59.9-84.1-47.4z"/><path fill="#F7923F" stroke="#545553" stroke-width=".697" d="M36.9 125.3l-2.3 1.4V98.8h2.3z"/><path fill="#FCBC56" stroke="#545553" stroke-width=".697" d="M34.6 126.7l-2.3-1.4v-25.1h2.3z"/><path fill="#F7923F" stroke="#545553" stroke-width=".697" d="M68 143.9l-2.3 1.4v-27.9H68z"/><path fill="#FCBC56" stroke="#545553" stroke-width=".697" d="M65.7 145.3l-2.3-1.4v-25.1h2.3z"/><path fill="#F7923F" stroke="#545553" stroke-width=".697" d="M98.2 162l-2.3 1.4v-27.9h2.3z"/><path fill="#FCBC56" stroke="#545553" stroke-width=".697" d="M95.9 163.4l-2.3-1.4v-25.1h2.3z"/><g stroke-width="1.394"><path fill="none" stroke="#545553" d="M172.6 123l-6-2.8M172.7 90l-33.1 19.3.4 33.2 32.7-19.4z"/><path fill="#E2E2E1" stroke="#555655" d="M168.5 120.9L140 137.8l-.4-28.8 28.6-16.3.3 28.3-.3-27.7"/></g><g stroke-width="1.394"><path fill="none" stroke="#545553" d="M209.7 103.5l-5.2-2.4M209.8 75.1l-18.6 11.2.5 28.3 18.1-11.1z"/><path fill="#E2E2E1" stroke="#555655" d="M206.2 101.7l-14.5 8.3-.7-24.1 15-8.4.2 24.3L206 78"/></g><path fill="#F7923F" stroke="#545553" stroke-width=".697" d="M131.2 180.2l-2.3 1.3v-27.8h2.3z"/><path fill="#FCBC56" stroke="#545553" stroke-width=".697" d="M128.9 181.5l-2.3-1.3v-25.1h2.3z"/><path fill="#F7923F" stroke="#545553" stroke-width=".697" d="M247 113.2l-2.4 1.4V86.7h2.4z"/><path fill="#FCBC56" stroke="#545553" stroke-width=".697" d="M244.6 114.6l-2.3-1.4V88.1h2.3z"/><path fill="#F7923F" stroke="#545553" stroke-width=".697" d="M173.5 156l-2.3 1.4v-27.9h2.3z"/><path fill="#FCBC56" stroke="#545553" stroke-width=".697" d="M171.2 157.4l-2.3-1.4v-25.1h2.3z"/><path fill="#F7923F" stroke="#545553" stroke-width=".697" d="M215.8 131.8l-2.3 1.4v-27.9h2.3z"/><path fill="#FCBC56" stroke="#545553" stroke-width=".697" d="M213.5 133.2l-2.3-1.4v-25.1h2.3z"/><path fill="#FCBC56" stroke="#545553" stroke-width=".929" d="M45.7 90.7l-22.3 13.7 106.4 60.4 126-72.9-20-11.7.2 12.6-106.2 59.9-84.1-47.4z"/></g><path d="M50.8 95.2l1.6.9c.4.2.8.5 1 .7.2.2.4.4.5.6.1.2.2.4.2.6 0 .2.1.5.1.9v.5c0 .4 0 .6-.1.8-.1.1-.2.2-.4.1-.2 0-.5-.1-.8-.3l-.4-.2v2.4l-1.6-.9v-6.1zm1.5 2v1.5l.1.1c.1.1.2.1.3.1.1 0 .1-.2.1-.4V98c0-.2 0-.4-.1-.5 0-.1-.2-.2-.4-.3zM54.6 97.5l1.1.6c.7.4 1.2.7 1.5 1 .3.2.5.5.6.8s.2.7.2 1.3c0 .5-.1.7-.2.8-.1.1-.3.1-.7-.1.3.3.5.5.6.7.1.2.2.3.2.5v2.5l-1.5-.8v-2c0-.3 0-.5-.1-.6-.1-.1-.2-.2-.4-.3v2.7l-1.6-.9v-6.2zm1.6 1.9v1.3c.2.1.3.1.4.1.1 0 .1-.1.1-.4v-.3c0-.2 0-.3-.1-.4-.1-.1-.2-.2-.4-.3zM62.3 105.4v1.2c0 .2-.1.4-.3.5-.2.1-.4.2-.6.1-.3 0-.6-.2-.9-.4-.3-.2-.6-.4-.9-.7-.3-.3-.5-.5-.6-.8-.2-.3-.3-.6-.3-.8v-2.3-1.2c0-.2.1-.4.3-.5.2-.1.4-.2.6-.1.3 0 .6.2.9.4.3.2.6.4.9.7.3.3.5.5.6.8.2.3.3.6.3.8v2.3zm-1.6-2.9v-.6c0-.1-.1-.2-.2-.2s-.1-.1-.2 0c0 0-.1.2-.1.5v3.5c0 .1.1.2.2.2.1.1.2.1.2 0v-3.4zM62.9 102.3l2.7 1.5v1.2l-1.1-.6v1.1l1 .6v1.1l-1-.6v2.5l-1.6-.9v-5.9zM69.1 105.8v1.2l-.9-.5v4.8l-1.6-.9v-4.8l-.9-.5v-1.2l3.4 1.9zM69.5 106.1l2.6 1.5v1.2l-1.1-.6v1.1l1 .6v1.1l-1-.6v1.3l1.2.7v1.2l-2.7-1.6v-5.9zM76.3 112.6l-1.6-.9v-1c0-.3 0-.5-.1-.6 0-.1-.1-.2-.2-.2-.1-.1-.2-.1-.2 0s-.1.3-.1.6v2.8c0 .3 0 .5.1.6 0 .1.1.2.2.3.1.1.2.1.2 0s.1-.3.1-.6v-.7l1.6.9v.2c0 .6 0 1-.1 1.2-.1.2-.3.3-.6.3s-.7-.1-1.1-.4c-.5-.3-.8-.6-1.1-.9-.3-.3-.5-.7-.6-1-.1-.3-.1-.8-.1-1.4V110v-.9c0-.2.1-.4.3-.5.1-.1.4-.2.6-.1.3 0 .6.2.9.4.5.3.8.6 1.1.9.3.4.5.7.6 1s.1.8.1 1.3v.5zM80.5 112.4v6l-1.6-.9V115l-.5-.3v2.5l-1.6-.9v-6l1.6.9v2.1l.5.3v-2.1l1.6.9z"/><g><path fill="#FFF" stroke="#000" stroke-width=".52" stroke-miterlimit="10" d="M123.9 144.6l-40.5-23.4c-.5-.3-1-1.1-1-1.7V113c0-.6.4-.8.9-.5.1.1.2.2.3.2l40.1 23.1c.1.1.2.1.3.2.5.2.9.9.9 1.4v6.5c-.1.8-.5 1-1 .7z"/><g fill="#F5A722"><path d="M84 114.4l2.6 1.5v1.2l-1.1-.6v1.1l1 .6v1.1l-1-.6v1.3l1.2.7v1.2l-2.7-1.6v-5.9zM90.7 118.3v6l-1.4-.8-.8-3.2v2.7l-1.3-.8v-6l1.3.8.9 3.2v-2.7l1.3.8zM95 122.9l-1.6-.9v-.5-.7c0-.1-.1-.2-.2-.3-.1-.1-.2-.1-.2 0s-.1.2-.1.5v2.9c0 .3 0 .5.1.6 0 .1.1.2.2.2.1.1.2.1.2 0s.1-.2.1-.5v-.7l-.3-.2v-.9l1.8 1.1v3.2l-1-.6-.1-.5c-.1.1-.2.2-.4.2s-.4-.1-.6-.2c-.3-.2-.5-.4-.7-.6-.2-.3-.4-.5-.5-.8-.1-.3-.2-.5-.2-.7v-2.7c0-.6 0-1 .1-1.2.1-.2.2-.4.5-.4s.7.1 1.1.3c.5.3.8.6 1.1.9.3.4.5.7.6 1 .1.3.1.7.1 1.2v.3zM97.2 122v6l-1.6-.9v-6l1.6.9zM101.3 124.4v6l-1.4-.8-.8-3.2v2.7l-1.3-.8v-6l1.3.8.9 3.2v-2.7l1.3.8zM101.9 124.7l2.6 1.5v1.2l-1.1-.6v1.1l1 .6v1.1l-1-.6v1.3l1.2.7v1.2l-2.7-1.6v-5.9zM105.1 126.6l2.6 1.5v1.2l-1.1-.6v1.1l1 .6v1.1l-1-.6v1.3l1.2.7v1.2l-2.7-1.6v-5.9zM108.3 128.4l1.1.6c.7.4 1.2.7 1.5 1 .3.2.5.5.6.8.2.3.2.7.2 1.3 0 .5-.1.7-.2.8-.1.1-.3.1-.7-.1.3.3.5.5.6.7.1.2.2.3.2.5v2.5l-1.5-.8v-2c0-.3 0-.5-.1-.6-.1-.1-.2-.2-.4-.3v2.7l-1.6-.9v-6.2zm1.6 1.9v1.3c.2.1.3.1.4.1.1 0 .1-.1.1-.4v-.3c0-.2 0-.3-.1-.4-.1-.1-.2-.2-.4-.3zM114 131.7v6l-1.6-.9v-6l1.6.9zM118.2 134.1v6l-1.4-.8-.8-3.2v2.7l-1.3-.8v-6l1.3.8.9 3.2v-2.7l1.3.8zM122.4 138.7l-1.6-.9v-.5-.7c0-.1-.1-.2-.2-.3-.1-.1-.2-.1-.2 0s-.1.2-.1.5v2.9c0 .3 0 .5.1.6 0 .1.1.2.2.2.1.1.2.1.2 0s.1-.2.1-.5v-.7l-.3-.2v-.9l1.8 1.1v3.2l-1-.6-.1-.5c-.1.1-.2.2-.4.2s-.4-.1-.6-.2c-.3-.2-.5-.4-.7-.6-.2-.3-.4-.5-.5-.8-.1-.3-.2-.5-.2-.7v-2.7c0-.6 0-1 .1-1.2.1-.2.2-.4.5-.4s.7.1 1.1.3c.5.3.8.6 1.1.9.3.4.5.7.6 1 .1.3.1.7.1 1.2v.3z"/></g></g><g stroke="#000" stroke-miterlimit="10"><path stroke-width=".335" d="M155.2 86.4l-1.3.8c-.1-.3-.1-.6-.3-.9-.1-.4-.3-.7-.5-.9l.9-1.5v-.1l-1.7-1s-.1 0-.1.1l-.9 1.5h-1.1c-.3 0-.6.1-.9.2v-1.5s0-.1-.1 0l-2.4 1.4-.1.1v1.5c-.7.6-1.3 1.3-1.9 2l-1-.5s-.1 0-.1.1l-1.6 2.9v.1l1 .5c-.4.9-.6 1.7-.8 2.6l-1.4.8-.1.1v2.7s0 .1.1 0l1.5-.8c.1.3.1.5.2.8.1.4.3.7.5 1l-1 1.7v.1l1.7 1s.1 0 .1-.1l1-1.8h1c.3 0 .6-.1.9-.2v1.6s0 .1.1 0l2.4-1.4.1-.1v-1.6c.7-.5 1.3-1.2 1.8-1.9l.9.6s.1 0 .1-.1l1.7-2.9v-.1l-.9-.5c.4-.9.6-1.7.8-2.6l1.3-.8.1-.1v-2.8c.1 0 .1 0 0 0z"/><path fill="#E6E7E8" stroke-width=".233" d="M151.7 89.8c0 2.3-1.6 5-3.6 6.2s-3.6.2-3.6-2c0-2.3 1.6-5 3.6-6.2s3.6-.2 3.6 2z"/><path stroke-width=".335" d="M150 90.9c0 1.1-.8 2.5-1.8 3.1s-1.8.1-1.8-1 .8-2.5 1.8-3.1 1.8-.1 1.8 1z"/></g></svg>