<svg xmlns="http://www.w3.org/2000/svg" viewBox="0 0 283.5 283.5" id="floorWorks"><path fill="#BCBEC0" stroke="#6D6E71" stroke-width="1.008" stroke-miterlimit="10" d="M7.8 188.7l138.5 79.7c2.5 1.5 5.7 1.5 8.2 0L273.9 199c5.5-3.2 5.4-11.1 0-14.2l-139.5-80c-2.6-1.5-5.7-1.4-8.2 0L7.7 174.5c-5.4 3.2-5.4 11 .1 14.2z"/><path fill="#939598" stroke="#545553" stroke-width=".932" stroke-miterlimit="10" d="M35.9 153.6v25.2l95.1 55 20.5-13.1 21.4 13.1 63.4-36.8-.5-12.2 10.8-6v-25.2z"/><path fill="#939598" stroke="#545553" stroke-width=".932" stroke-miterlimit="10" d="M246.8 94.5v58.1c0 .5-.3 1-.7 1.3l-17.7 11.3c-1 .6-2.2 0-2.3-1.2l-4-56.2c0-.6.2-1.1.7-1.4l21.6-13.1c1.1-.7 2.4 0 2.4 1.2z"/><path fill="#FFD998" stroke="#545553" stroke-width="1.398" stroke-miterlimit="10" d="M234.9 152.2l-93.7-51.3-30.8 15.9-10.7-3.7-25.6 13-2.3 10.7-26.1 22.9 84.8 49.4 21.4-12.6 21 12.1 56.9-32.6-9.3-9.8z"/><path fill="#939598" stroke="#545553" stroke-width=".932" stroke-miterlimit="10" d="M98.1 56.3V117l-42.4 26.6V68.5c0-.3.2-.5.4-.6l41.2-12.2c.4-.1.8.2.8.6z"/><path fill="#E2E2E1" stroke="#555655" stroke-width=".932" stroke-miterlimit="10" d="M35.6 92.5v60.8l9.8 6.5v-62l-9.2-5.7c-.2-.1-.6.1-.6.4z"/><path fill="#939598" stroke="#545553" stroke-width=".932" stroke-miterlimit="10" d="M87.8 135.2v-60c0-.5-.5-.8-.9-.5L45.7 99.1l-.2 60.8 42.3-24.7z"/><path fill="#E2E2E1" stroke="#555655" stroke-width=".932" stroke-miterlimit="10" d="M99.2 56.2l9.7 6.1c.2.1.3.4.3.6v60.4c0 .1-.1.2-.2.1L98.1 117l-.1-.1V56.8c.1-.6.7-.9 1.2-.6z"/><path fill="#939598" stroke="#545553" stroke-width=".932" stroke-miterlimit="10" d="M141 44.9v60l-31.6 18.6c-.1 0-.1 0-.1-.1V62.8c0-.2.1-.4.3-.5l30.5-17.9c.4-.3.9 0 .9.5z"/><path fill="#E2E2E1" stroke="#555655" stroke-width=".932" stroke-miterlimit="10" d="M141 44.9v60l85.3 49.9V93.7l-84.4-49.3c-.4-.3-.9 0-.9.5z"/><path fill="#E2E2E1" stroke="#555655" stroke-width=".932" stroke-miterlimit="10" d="M245.9 92.3L141 30.8l-32.1 18.7c-.2.1-.4.1-.6 0l-10.1-5.7c-.2-.1-.4-.1-.6 0L56.8 67.3c-.4.2-.4.8 0 1l9.4 5.5c.4.2.4.8 0 1L35.9 92.5l9.8 6.5 41.5-24.6c.4-.2.4-.8 0-1l-8.9-5c-.4-.2-.4-.8 0-1L98 55.9c.2-.1.4-.1.6 0l10.6 6.6c.2.1.4.1.6 0l31.1-18.3c.2-.1.4-.1.6 0l84.7 49.5-20 13.2 19.6 10.6 10.7-6.1-10.3-6.1 19.7-12.1c.4-.1.4-.7 0-.9z"/><path fill="#E2E2E1" stroke="#555655" stroke-width=".932" stroke-miterlimit="10" d="M206.2 108.4v58.3c0 .1.1.3.2.3l18.8 11.2c.3.1.6 0 .6-.3v-60.2c0-.1-.1-.3-.2-.3l-18-9.8c-.6-.4-1.4.1-1.4.8z"/><path fill="#939598" stroke="#545553" stroke-width=".932" stroke-miterlimit="10" d="M236.5 172.4v-60.7c0-.1-.1-.2-.2-.1l-10.4 5.9-.1.1v60.7c0 .1.1.2.2.1l10.4-5.9c.1 0 .1 0 .1-.1z"/><path fill="#F7923F" stroke="#545553" stroke-width=".932" stroke-miterlimit="10" d="M151.7 196.3v-22.4l-21.4 13.5v21.9zM173.1 187.4v21.4l52.7-30.3v-21.4z"/><path fill="#FCBC56" stroke="#545553" stroke-width=".932" stroke-miterlimit="10" d="M151.7 174.8l21.4 12.6v21.4l-21.4-12.5z"/><path fill="#F7923F" stroke="#545553" stroke-width=".932" stroke-miterlimit="10" d="M182.5 108.8v19.7c0 .4-.2.8-.6 1l-82.1 48.1c-.8.4-1.7-.1-1.7-1v-18.8c0-.4.2-.8.6-1l82.1-49c.7-.5 1.7.1 1.7 1z"/><path fill="#FCBC56" stroke="#545553" stroke-width=".932" stroke-miterlimit="10" d="M213.9 150.1l-41.6 24.7h-.2l-21.3-12.5h-.2l-20.3 12.5h-.2L99 156.9c-.1-.1-.1-.2 0-.3l83.1-48.7c.1-.1.1-.2 0-.3l-9.2-5.4h-.2l-83.5 49H89l-32.8-18.9H56l-10.4 6.1c-.1.1-.1.2 0 .3l84 48.7h.2l21.7-12.5h.2l21.3 12.5h.2l52.3-30.1c.1-.1.1-.2 0-.3l-11.5-6.8c0-.1-.1-.1-.1-.1z"/><path fill="#FCBC56" stroke="#545553" stroke-width=".932" stroke-miterlimit="10" d="M45.4 138.5v21.4l85.1 49.2-.2-21.7z"/><path fill="#E2E2E1" stroke="#555655" stroke-width=".932" stroke-miterlimit="10" d="M130.3 208.8v24.7l-94.7-55v-25.1zM151.7 196.3v24.2l21.4 13v-24.7z"/><g fill="#B7B7B8" stroke="#545553" stroke-width="2.696" stroke-linecap="round" stroke-miterlimit="10"><path d="M230.9 119.9l8.9 5M230.9 130.3l8.9 5M230.9 140l8.9 5M230.9 150.7l8.5 4.7M230.9 160l8.5 5.4M230.9 170.4l8.9 5"/></g><g fill="#B7B7B8" stroke="#545553" stroke-width="2.696" stroke-linecap="round" stroke-miterlimit="10"><path d="M40.3 99.9l-8.9 5M40.3 110.3l-8.9 5M40.3 119.9l-8.9 5M40.3 130.7l-8.5 4.6M40.3 139.9l-8.5 5.4M40.3 150.3l-8.9 5"/></g><g stroke="#000" stroke-miterlimit="10"><path stroke-width=".346" d="M169.4 194.5l-1.3-.8c-.1-.4-.1-.8-.3-1.2-.1-.5-.3-1-.5-1.6l.9-.5v-.1l-1.7-3-.1-.1-.9.5c-.3-.4-.7-.9-1.1-1.2-.3-.3-.6-.6-.9-.8v-1.6s0-.1-.1-.1l-2.4-1.4h-.1v1.6c-.7-.2-1.4-.3-2-.2l-1-1.7-.1-.1-1.7 1.1v.1l1 1.7c-.4.5-.6 1.1-.8 1.8l-1.5-.9h-.1v2.8s0 .1.1.1l1.5.9c.1.4.1.7.2 1.1.1.5.3 1.1.6 1.6l-1 .5v.1l1.7 3 .1.1 1.1-.6c.3.4.7.8 1 1.2.3.3.6.6.9.8v1.7s0 .1.1.1l2.4 1.4h.1v-1.7c.7.2 1.3.3 1.9.2l1 1.7.1.1 1.7-1v-.1l-1-1.7c.4-.4.7-1 .8-1.7l1.4.8h.1v-2.8s0-.1-.1-.1z"/><path fill="#E6E7E8" stroke-width=".24" d="M165.9 193.9c0 2.3-1.6 3.3-3.7 2.1-2-1.2-3.7-4-3.7-6.4 0-2.3 1.6-3.3 3.7-2.1 2 1.2 3.7 4 3.7 6.4z"/><path stroke-width=".346" d="M164 192.8c0 1.2-.8 1.6-1.8 1-1-.6-1.8-2-1.8-3.2s.8-1.6 1.8-1c1 .7 1.8 2.1 1.8 3.2z"/></g><path d="M55.1 148.4l3.6 2.1c1 .6 1.7 1.1 2.3 1.5s.9.9 1.2 1.3c.3.4.4.9.5 1.4.1.5.1 1.1.1 2v1.2c0 .9-.1 1.5-.3 1.7-.2.3-.5.4-1 .3-.5-.1-1.1-.3-1.9-.8l-1-.6v5.5l-3.6-2.1v-13.5zm3.6 4.4v3.5c.1.1.2.1.3.2.3.2.6.2.7.2.1-.1.2-.4.2-.9v-1.1c0-.5-.1-.8-.2-1-.2-.4-.5-.6-1-.9zM63.9 153.5l2.6 1.5c1.7 1 2.9 1.7 3.5 2.2.6.5 1.1 1.1 1.5 1.8.4.7.6 1.7.6 2.9 0 1.1-.1 1.7-.4 1.9-.3.2-.8.1-1.6-.3.7.6 1.2 1.1 1.4 1.5.2.4.4.8.5 1.1.1.3.1 1 .1 2.1v3.6l-3.3-1.9v-4.5c0-.7-.1-1.2-.2-1.5-.1-.2-.4-.5-.9-.8v6.1l-3.6-2.1v-13.6zm3.6 4.4v3c.4.2.7.3.9.3.2 0 .2-.3.2-.9v-.7c0-.4-.1-.8-.2-1-.2-.3-.4-.5-.9-.7zM81.6 171.6c0 1.4 0 2.3-.1 2.9-.1.5-.3.9-.6 1.2-.3.3-.8.4-1.4.3-.6-.1-1.3-.4-2.1-.8-.7-.4-1.4-.9-2-1.5-.6-.6-1.1-1.2-1.4-1.9-.4-.7-.6-1.3-.6-1.9-.1-.6-.1-1.6-.1-3v-2.3c0-1.4 0-2.3.1-2.9.1-.5.3-.9.6-1.2.3-.3.8-.4 1.4-.3.6.1 1.3.4 2.1.8.7.4 1.4.9 2 1.5.6.6 1.1 1.2 1.4 1.9.4.7.6 1.3.6 1.9.1.6.1 1.6.1 3v2.3zm-3.6-6.5c0-.6 0-1.1-.1-1.3-.1-.2-.2-.4-.4-.5-.2-.1-.3-.1-.4 0-.1.1-.1.5-.1 1.2v6.4c0 .8 0 1.3.1 1.5.1.2.2.4.5.5.2.1.4.1.5 0 .1-.2.1-.7.1-1.5v-6.3zM83 164.4l6.1 3.5v2.7l-2.5-1.4v2.6l2.2 1.3v2.6l-2.2-1.3v5.7L83 178v-13.6zM97.2 172.7v2.7l-2.1-1.2V185l-3.6-2.1V172l-2.1-1.2v-2.7l7.8 4.6zM98 173.1l6 3.5v2.7l-2.4-1.4v2.6l2.3 1.3v2.6l-2.3-1.3v3l2.6 1.5v2.7l-6.2-3.6v-13.6zM113.7 188.1l-3.6-2.1v-2.4c0-.7 0-1.1-.1-1.4-.1-.2-.2-.4-.5-.6-.3-.2-.5-.2-.6 0-.1.2-.1.6-.1 1.3v6.3c0 .7 0 1.1.1 1.4.1.2.3.5.5.6.3.2.4.2.5 0 .1-.2.1-.6.1-1.4v-1.7l3.6 2.1v.5c0 1.4-.1 2.4-.3 2.8-.2.5-.7.7-1.3.8-.7 0-1.5-.2-2.6-.8-1.1-.6-1.9-1.3-2.6-2.1-.7-.8-1.1-1.6-1.4-2.3-.2-.8-.3-1.9-.3-3.2v-4c0-1 0-1.7.1-2.2.1-.5.3-.8.6-1.1.3-.3.8-.3 1.4-.3.6.1 1.3.4 2.1.8 1.1.6 1.9 1.3 2.6 2.1.7.8 1.1 1.6 1.4 2.3.2.7.3 1.7.3 3v1.6zM123.3 187.7v13.6l-3.6-2.1v-5.7l-1.1-.6v5.7l-3.6-2.1v-13.6l3.6 2.1v4.9l1.1.6v-4.9l3.6 2.1z"/><g><path fill="#FFF" stroke="#000" stroke-width=".909" stroke-miterlimit="10" d="M123.2 225.1l-67.9-39.2c-.9-.5-1.6-1.8-1.6-2.8v-10.8c0-1 .6-1.4 1.4-.8.2.1.4.3.5.4l67.2 38.8c.2.1.4.2.5.3.8.3 1.4 1.4 1.4 2.4v10.8c.1.9-.6 1.4-1.5.9z"/><g fill="#F5A722"><path d="M56.5 174.4l4.4 2.5v2l-1.8-1v1.9l1.6 1v1.9l-1.6-1v2.2L61 185v2l-4.6-2.6v-10zM67.7 180.9v10l-2.3-1.3-1.4-5.3v4.5l-2.2-1.3v-10l2.2 1.3 1.5 5.3v-4.5l2.2 1.3zM74.8 188.7l-2.6-1.5v-.9c0-.6 0-.9-.1-1.1-.1-.2-.2-.3-.4-.4-.2-.1-.3-.1-.3 0-.1.1-.1.4-.1.9v4.8c0 .4 0 .8.1.9.1.2.2.3.4.4.2.1.3.1.4 0 .1-.1.1-.4.1-.9v-1.2l-.5-.3v-1.5l3.1 1.8v5.4l-1.7-1-.2-.9c-.2.2-.4.3-.7.3-.3 0-.6-.1-1-.3-.4-.3-.9-.6-1.2-1-.4-.4-.7-.9-.9-1.3-.2-.4-.3-.8-.4-1.2-.1-.4-.1-.9-.1-1.6v-3c0-1 .1-1.6.2-2 .1-.4.4-.6.9-.7.5-.1 1.1.1 1.9.6.8.4 1.4 1 1.9 1.6.5.6.8 1.2 1 1.7s.2 1.2.2 2v.4zM78.5 187.1v10l-2.6-1.5v-10l2.6 1.5zM85.4 191.1v10l-2.3-1.3-1.4-5.3v4.5l-2.2-1.3v-10l2.2 1.3 1.5 5.3v-4.5l2.2 1.3zM86.5 191.7l4.4 2.5v2l-1.8-1v1.9l1.6 1v1.9l-1.6-1v2.2l1.9 1.1v2l-4.6-2.6v-10zM91.8 194.8l4.4 2.5v2l-1.8-1v1.9l1.6 1v1.9l-1.6-1v2.2l1.9 1.1v2l-4.6-2.6v-10zM97.2 197.9L99 199c1.2.7 2.1 1.3 2.5 1.6.4.3.8.8 1.1 1.3.3.5.4 1.2.4 2.1 0 .8-.1 1.2-.3 1.4-.2.2-.6.1-1.2-.2.5.4.9.8 1.1 1.1.2.3.3.6.3.8s.1.7.1 1.5v2.6l-2.4-1.4v-3.3c0-.5 0-.9-.1-1.1-.1-.2-.3-.4-.7-.6v4.5l-2.6-1.5v-9.9zm2.6 3.2v2.2c.3.2.5.3.6.2.1 0 .2-.2.2-.7v-.5c0-.3-.1-.6-.2-.7-.1-.1-.3-.3-.6-.5zM106.7 203.4v10l-2.6-1.5v-10l2.6 1.5zM113.7 207.4v10l-2.3-1.3-1.4-5.3v4.5l-2.2-1.3v-10l2.2 1.3 1.5 5.3v-4.5l2.2 1.3zM120.8 215.2l-2.6-1.5v-.9c0-.6 0-.9-.1-1.1-.1-.2-.2-.3-.4-.4-.2-.1-.3-.1-.3 0-.1.1-.1.4-.1.9v4.8c0 .4 0 .8.1.9.1.2.2.3.4.4.2.1.3.1.4 0 .1-.1.1-.4.1-.9v-1.2l-.5-.3v-1.5l3.1 1.8v5.4l-1.7-1-.2-.9c-.2.2-.4.3-.7.3-.3 0-.6-.1-1-.3-.4-.3-.9-.6-1.2-1-.4-.4-.7-.9-.9-1.3-.2-.4-.3-.8-.4-1.2-.1-.4-.1-.9-.1-1.6v-3c0-1 .1-1.6.2-2 .1-.4.4-.6.9-.7.5-.1 1.1.1 1.9.6.8.4 1.4 1 1.9 1.6.5.6.8 1.2 1 1.7.2.5.2 1.2.2 2v.4z"/></g></g></svg>