<svg width="627" height="247" xmlns="http://www.w3.org/2000/svg"><g fill="none" fill-rule="evenodd"><path d="M229.97 14.118l355.428 92.82v17.994c0 .285-.475.535-.832.428L229.97 36l-.198-21.81c-143.08 21.81.119-.072.198-.072z" stroke="#000" stroke-width="1.095" fill="#939598"/><path d="M72.755 29.753L230.5 14.5v20.513c0 .2-42.71 6.862-128.128 19.987-10.047-6.312-19.919-14.727-29.617-25.247z" stroke="#000" stroke-width="1.095" fill="#939598"/><path d="M625.59 108.51L378.6 244.965c-.456.24-1.049-.04-1.049-.517v-29.647l246.35-124.358c.776-.398 1.734.12 1.734.875v17.192h-.046z" stroke="#545453" fill="#F7923F"/><path d="M230.5 13v12.3l286.604 67.77-146.76 59.134L53.92 25.3c.21 7.134-.37 12.868-1.745 17.201 209.405 90.699 314.26 135.982 314.564 135.85L562.77 92.113 230.5 13z" stroke="#000" stroke-width="1.095" fill="#D1D3D4"/><path stroke="#000" stroke-width="1.095" fill="#D1D3D4" d="M255 19.5L230.5 15 81.333 36l21.068 8z"/><path d="M624.631 89.05L221.164 1.223 1.228 31.706c-.091 0-.137.16-.046.199L377.46 215.398 624.905 90.88c.913-.438.73-1.592-.274-1.83zm-65.876 4.616l-192.38 84.365h-.047L56.566 42.21c-.046-.039-.046-.079 0-.079l174.361-27.458h.046L558.71 93.03c.32.08.365.517.045.636z" stroke="#000" stroke-width="1.095" fill="#F1F2F2" fill-rule="nonzero"/><path d="M1.73 31.189l376.186 184.289v29.647c0 .477-.593.756-1.05.517L1.548 44.48V31.268c0-.04.092-.12.183-.08z" stroke="#545453" fill="#FFDA99"/><path fill="#D8D8D8" fill-rule="nonzero" d="M230.526 36l259.458 67-119.172 48L120 52z"/></g></svg>