<svg xmlns="http://www.w3.org/2000/svg" viewBox="0 0 283.5 283.5" id="gasProviding"><path fill="#E6E7E8" stroke="#6D6E71" stroke-width="1.359" stroke-miterlimit="10" d="M5.1,150l205.5,119.2c0.8,0.5,1.8,0.5,2.6,0	l65.3-37.4c1.8-1,1.8-3.5,0-4.6L75.3,107.5c-0.8-0.5-1.8-0.5-2.6,0L5.1,145.4C3.3,146.4,3.3,148.9,5.1,150z"/><path fill="#FFDA99" stroke="#545453" stroke-width="1.903" stroke-miterlimit="10" d="M120.6,96.7l38.8-22.1	c0.2-0.1,0.2-0.3,0-0.4L73.6,25.2c-0.2-0.1-0.5-0.1-0.7,0l-38.6,22c-0.1,0.1-0.1,0.2,0,0.3L120.6,96.7z"/><path fill="#F7923F" stroke="#545453" stroke-width="1.903" stroke-miterlimit="10" d="M120.6,160.2l39.1-22.7V74.8	c0-0.2-0.2-0.3-0.4-0.2l-38.8,22.1L120.6,160.2z"/><path fill="#FDBD56" stroke="#545453" stroke-width="1.903" stroke-miterlimit="10" d="M34.1,47.5V110l86.5,50.2l0-63.5L34.3,47.4	C34.2,47.3,34.1,47.4,34.1,47.5z"/><path fill="none" stroke="#545453" stroke-width="4.077" stroke-miterlimit="10" d="M159.7 174.9l0-34c0-1.5-1.7-2.5-3-1.7l-36.1 21 0 37.6c0 .1.1.2.2.1l38.2-21.9C159.4 175.8 159.7 175.4 159.7 174.9zM35.2 148.4l85.1 49.6c.1.1.2 0 .2-.1v-37.6l-86.5-50.1c-.1-.1 0 29.7 0 36.3C34.1 147.2 34.5 148 35.2 148.4z"/><path fill="none" stroke="#FDBD56" stroke-width="12.232" stroke-linecap="round" stroke-miterlimit="10" d="M137.1,130.6l74,42.7	c7.2,4.1,11.6,11.8,11.6,20v49.8"/><path fill="none" stroke="#FCBD56" stroke-width="4.077" stroke-linecap="round" stroke-miterlimit="10" d="M156.2,116.5l74,42.7	c7.2,4.1,11.6,11.8,11.6,20v57.7"/><path fill="none" stroke="#545453" stroke-width="3.897" stroke-linecap="round" stroke-miterlimit="10" d="M75.9 171.6L75.9 134.4"/><path fill="none" stroke="#F7923F" stroke-width="2.718" stroke-linecap="round" stroke-miterlimit="10" d="M226.1 191L226.1 244.5"/><path fill="none" stroke="#F7923F" stroke-width="1.631" stroke-linecap="round" stroke-miterlimit="10" d="M243 182.2L243 235.6"/><path fill="#FFF" stroke="#000" stroke-width="1.027" stroke-miterlimit="10" d="M115.3,115L38.6,70.7c-1-0.6-1.8-2-1.8-3.2 V55.3c0-1.1,0.7-1.6,1.6-0.9c0.2,0.2,0.4,0.3,0.6,0.4l75.9,43.8c0.2,0.1,0.4,0.2,0.6,0.3c0.9,0.3,1.6,1.6,1.6,2.7v12.3 C117.1,115.1,116.3,115.6,115.3,115z"/><g fill="#F5A722"><path d="M39.9 57.8l5 2.9v2.3l-2-1.1v2.1l1.9 1.1v2.1L42.9 66v2.5l2.2 1.3V72l-5.2-3V57.8zM52.6 65.1v11.3l-2.6-1.5-1.6-6V74l-2.5-1.4V61.3l2.5 1.4 1.7 6v-5.1L52.6 65.1zM60.6 73.9l-3-1.7v-1c0-.6 0-1.1-.1-1.3-.1-.2-.2-.4-.4-.5-.2-.1-.3-.1-.4 0-.1.1-.1.4-.1 1v5.4c0 .5 0 .9.1 1.1.1.2.2.4.4.5.2.1.4.1.4 0 .1-.1.1-.5.1-1V75l-.6-.3v-1.7l3.5 2v6l-1.9-1.1-.3-1c-.2.2-.5.3-.8.3-.3 0-.7-.1-1.1-.4-.5-.3-1-.7-1.4-1.2-.4-.5-.8-1-1-1.5-.2-.5-.4-.9-.4-1.4-.1-.4-.1-1-.1-1.8v-3.3c0-1.1.1-1.8.2-2.2s.5-.7 1-.8c.6-.1 1.3.1 2.2.6.9.5 1.6 1.1 2.2 1.8.6.7 1 1.3 1.1 1.9.2.6.3 1.3.3 2.3V73.9zM64.7 72.1v11.3l-3-1.7V70.4L64.7 72.1zM72.6 76.7v11.3L70 86.4l-1.6-6v5.1l-2.5-1.4V72.8l2.5 1.4 1.7 6v-5.1L72.6 76.7zM73.8 77.3l5 2.9v2.3l-2-1.1v2.1l1.9 1.1v2.1l-1.9-1.1v2.5l2.2 1.3v2.3l-5.2-3V77.3zM79.8 80.8l5 2.9V86l-2-1.1v2.1l1.9 1.1v2.1l-1.9-1.1v2.5l2.2 1.3v2.3l-5.2-3V80.8zM85.8 84.3l2.1 1.2c1.4.8 2.4 1.4 2.9 1.8.5.4.9.9 1.2 1.5.3.6.5 1.4.5 2.4 0 .9-.1 1.4-.3 1.6-.2.2-.7.1-1.3-.2.6.5 1 .9 1.2 1.3.2.4.3.7.4.9 0 .2.1.8.1 1.7v3l-2.8-1.6v-3.7c0-.6 0-1-.1-1.2-.1-.2-.4-.4-.8-.7v5.1l-3-1.7V84.3zM88.8 88v2.5c.3.2.6.3.7.3.1 0 .2-.3.2-.8v-.6c0-.4-.1-.6-.2-.8C89.4 88.3 89.1 88.2 88.8 88zM96.6 90.5v11.3l-3-1.7V88.8L96.6 90.5zM104.5 95.1v11.3l-2.6-1.5-1.6-6v5.1l-2.5-1.4V91.2l2.5 1.4 1.7 6v-5.1L104.5 95.1zM112.5 103.9l-3-1.7v-1c0-.6 0-1.1-.1-1.3-.1-.2-.2-.4-.4-.5-.2-.1-.3-.1-.4 0-.1.1-.1.4-.1 1v5.4c0 .5 0 .9.1 1.1.1.2.2.4.4.5.2.1.4.1.4 0 .1-.1.1-.5.1-1V105l-.6-.3v-1.7l3.5 2v6l-1.9-1.1-.3-1c-.2.2-.5.3-.8.3-.3 0-.7-.1-1.1-.4-.5-.3-1-.7-1.4-1.2-.4-.5-.8-1-1-1.5-.2-.5-.4-.9-.4-1.4s-.1-1-.1-1.8v-3.3c0-1.1.1-1.8.2-2.2.1-.4.5-.7 1-.8.6-.1 1.3.1 2.2.6.9.5 1.6 1.1 2.2 1.8.6.7 1 1.3 1.1 1.9.2.6.3 1.3.3 2.3V103.9z"/></g><g stroke="#000" stroke-miterlimit="10"><path stroke-width=".468" d="M83.8,116.2l-1.8-1.1c-0.1-0.5-0.2-1.1-0.3-1.6 c-0.2-0.7-0.4-1.4-0.7-2.1l1.2-0.7c0,0,0-0.1,0-0.2l-2.3-4c0-0.1-0.1-0.1-0.1-0.1l-1.2,0.7c-0.5-0.6-1-1.2-1.5-1.7 c-0.4-0.4-0.8-0.8-1.2-1.1v-2.1c0-0.1,0-0.1-0.1-0.2l-3.3-1.9c-0.1,0-0.1,0-0.1,0.1v2.1c-1-0.3-1.9-0.4-2.7-0.3l-1.4-2.3 c0-0.1-0.1-0.1-0.1-0.1l-2.3,1.4c0,0,0,0.1,0,0.2l1.3,2.3c-0.5,0.6-0.9,1.4-1.1,2.4l-2-1.2c-0.1,0-0.1,0-0.1,0.1v3.8 c0,0.1,0,0.1,0.1,0.2l2,1.2c0.1,0.5,0.2,1,0.3,1.5c0.2,0.7,0.4,1.5,0.8,2.2l-1.4,0.7c0,0,0,0.1,0,0.2l2.3,4.1 c0,0.1,0.1,0.1,0.1,0.1l1.5-0.8c0.4,0.6,0.9,1.1,1.4,1.6c0.4,0.4,0.8,0.8,1.2,1.1v2.3c0,0.1,0,0.1,0.1,0.2l3.3,1.9 c0.1,0,0.1,0,0.1-0.1v-2.3c0.9,0.3,1.8,0.4,2.6,0.3l1.3,2.3c0,0.1,0.1,0.1,0.1,0.1l2.4-1.3c0,0,0-0.1,0-0.2l-1.3-2.3 c0.5-0.6,0.9-1.4,1.1-2.4l1.9,1.1c0.1,0,0.1,0,0.1-0.1v-3.8C83.9,116.3,83.9,116.2,83.8,116.2z"/><path fill="#E6E7E8" stroke-width=".325" d="M79,115.3c0,3.2-2.2,4.4-5,2.8 s-5-5.4-5-8.6c0-3.2,2.2-4.4,5-2.8S79,112.2,79,115.3z"/><path stroke-width=".468" d="M76.5,114c0,1.6-1.1,2.2-2.5,1.4c-1.4-0.8-2.5-2.7-2.5-4.3 c0-1.6,1.1-2.2,2.5-1.4C75.4,110.5,76.5,112.4,76.5,114z"/></g><g><path d="M73.1 29l4.1 2.4c1.1.6 1.9 1.2 2.3 1.6.4.4.7.8.7 1.1 0 .3-.1.6-.4.9-.3.3-.9.7-1.7 1.2L77 36.8c-.9.5-1.6.8-2.2.9-.6.1-1.3.1-2-.1-.8-.2-1.6-.6-2.5-1.1l-1.1-.6L63.8 39l-4.1-2.4L73.1 29zM74.9 32.6l-3.4 2c.1.1.2.1.3.2.4.2.7.3 1 .3.3 0 .7-.2 1.2-.4l1.1-.6c.5-.3.7-.5.6-.7C75.7 33.2 75.4 32.9 74.9 32.6zM83 34.7l2.9 1.7c1.9 1.1 3.2 1.9 3.7 2.4.6.5.8 1 .7 1.5-.1.5-.7 1.1-1.8 1.8-1 .6-1.9.9-2.5.9-.7 0-1.5-.2-2.4-.7.6.6.9 1 .9 1.3 0 .3-.1.6-.3.8-.2.2-.8.6-1.9 1.2l-3.5 2L75 45.5l4.4-2.6c.7-.4 1.1-.7 1.1-.9 0-.2-.2-.4-.8-.7l-6 3.5-4.1-2.4L83 34.7zM84.8 38.4l-3 1.7c.5.3.8.4 1.1.5.3 0 .7-.1 1.3-.4l.7-.4c.4-.2.6-.5.6-.6C85.6 38.9 85.3 38.6 84.8 38.4zM95.2 50.7c-1.3.8-2.3 1.3-3 1.6-.6.3-1.4.4-2.2.5-.9 0-1.7-.1-2.6-.3-.9-.2-1.8-.6-2.7-1.1-.8-.5-1.5-1-1.9-1.5-.4-.5-.6-1-.6-1.5.1-.5.3-.9.8-1.3.5-.4 1.4-.9 2.8-1.7l2.3-1.3c1.3-.8 2.3-1.3 3-1.6.6-.3 1.4-.4 2.2-.5.9 0 1.7.1 2.6.3.9.2 1.8.6 2.7 1.1.8.5 1.5 1 1.9 1.5.4.5.6 1 .6 1.5-.1.5-.3.9-.8 1.3-.5.4-1.4.9-2.8 1.7L95.2 50.7zM95.5 45.9c.6-.4 1-.6 1.1-.8.1-.1 0-.3-.2-.4-.2-.1-.4-.2-.7-.2-.3 0-.7.2-1.4.6L88 48.7c-.8.4-1.2.7-1.3.9-.1.1 0 .3.2.5.3.2.6.2.8.1.3-.1.8-.3 1.6-.8L95.5 45.9zM104.5 47.1l6.9 4-2.7 1.5-2.8-1.6-2.5 1.5 2.5 1.5-2.5 1.5-2.5-1.5-5.6 3.2-4.1-2.4L104.5 47.1zM120.6 56.4l-2.7 1.5-2.4-1.4-10.7 6.2-4.1-2.4 10.7-6.2-2.4-1.4 2.7-1.5L120.6 56.4zM121.5 56.9l6.8 3.9-2.7 1.5-2.7-1.6-2.5 1.5 2.5 1.5-2.5 1.5-2.5-1.5-2.9 1.7 3 1.7-2.7 1.5-7.1-4.1L121.5 56.9zM133.5 70.5l-4.1-2.4 2.3-1.3c.7-.4 1.1-.7 1.1-.8s0-.3-.3-.5c-.3-.2-.6-.3-.9-.2-.3.1-.8.3-1.5.7l-6.2 3.6c-.6.4-1 .6-1.1.8-.1.2 0 .3.3.5.3.2.6.2.9.2.3-.1.8-.3 1.5-.7l1.7-1 4.1 2.4-.5.3c-1.4.8-2.5 1.3-3.3 1.5-.8.2-1.8.2-3 0-1.2-.2-2.4-.6-3.5-1.3-1.2-.7-2-1.4-2.4-2-.4-.7-.4-1.2 0-1.8.4-.5 1.3-1.2 2.6-1.9l3.9-2.2c1-.6 1.7-.9 2.3-1.2.6-.2 1.3-.4 2.1-.4.8 0 1.7.1 2.6.3.9.2 1.8.6 2.7 1.1 1.2.7 2 1.4 2.4 2.1.4.7.4 1.3.1 1.7-.3.5-1.1 1.1-2.4 1.8L133.5 70.5zM150.1 73.4l-13.3 7.7-4.1-2.4 5.6-3.2-1.2-.7-5.6 3.2-4.1-2.4 13.3-7.7 4.1 2.4-4.8 2.8 1.2.7 4.8-2.8L150.1 73.4z"/></g></svg>