<svg xmlns="http://www.w3.org/2000/svg" viewBox="0 0 283.5 283.5" id="hotel"><path fill="#D1D3D4" stroke="#939598" stroke-width="1.623" stroke-miterlimit="10" d="M20.2,206.1l122.9,71.5	c1.5,0.9,3.4,0.9,4.9,0l114.4-65.8c3.2-1.9,3.2-6.5,0-8.4l-122.2-71.7c-1.5-0.9-3.4-0.9-4.9,0l-115.2,66	C17,199.6,17,204.2,20.2,206.1z"/><path fill="#FCBC56" stroke="#5B5755" stroke-width="1.11" stroke-miterlimit="10" d="M91.4 51.9v142.4c0 .1.1.2.2.3l92.3 53c.2.1.6 0 .6-.3V103.7c0-.1-.1-.2-.2-.3L91.9 51.6C91.7 51.5 91.4 51.7 91.4 51.9zM33.1 57.6v143.8c0 .1.1.2.2.3l22.6 12.8c.2.1.6 0 .6-.3V70.4c0-.1-.1-.2-.2-.3L33.6 57.3C33.4 57.1 33.1 57.3 33.1 57.6z"/><path fill="#F7923F" stroke="#5B5755" stroke-width="1.11" stroke-miterlimit="10" d="M56.4,70.4l-0.3,143.8	c0,0.3,0.3,0.5,0.6,0.3l34.6-19.1c0.1-0.1,0.2-0.2,0.2-0.3V51.3c0-0.3-0.3-0.5-0.6-0.3L56.6,70C56.5,70.1,56.4,70.2,56.4,70.4z"/><path fill="#FCBC56" stroke="#5B5755" stroke-width="1.11" stroke-miterlimit="10" d="M114.2,69l0.3,144.9c0,0,0,0.1,0.1,0.1	l4.3,2.5c0.1,0,0.2,0,0.2-0.1V70.5c0,0,0-0.1-0.1-0.1l-4.1-1.9C114.6,68.3,114.2,68.6,114.2,69z"/><path fill="#F7923F" stroke="#5B5755" stroke-width="1.11" stroke-miterlimit="10" d="M123.5,213.8c0,0.1,0,0.1-0.1,0.2l-3.9,2.3	c-0.1,0.1-0.3,0-0.3-0.2V70.6c0-0.1,0-0.2,0.1-0.2l3.9-1.6C123.3,68.7,123.5,213.8,123.5,213.8z"/><path fill="#FFD998" stroke="#5B5755" stroke-width="1.11" stroke-miterlimit="10" d="M242,70.2L126.6,5.1c-0.1-0.1-0.3-0.1-0.4,0	l-92.6,52c-0.2,0.1-0.2,0.5,0,0.6L56.2,70c0.1,0.1,0.2,0.1,0.4,0l34.6-18.9c0.1-0.1,0.3-0.1,0.4,0l26.8,15.1l-3.9,2	c-0.1,0.1-0.1,0.2,0,0.3l4.6,2.1c0,0,0,0,0.1,0c0,0,2.4-1.3,3.6-1.9l5.8,3.2l18.3,10.3l-4.3,2.2c0,0,0,0.1,0,0.1l4.8,2.1	c0,0,0,0,0,0l3.9-1.9l32.9,18.6c0.1,0.1,0.3,0.1,0.4,0L242,70.9C242.3,70.7,242.3,70.4,242,70.2z"/><path fill="#FCBC56" stroke="#5B5755" stroke-width="1.11" stroke-miterlimit="10" d="M142.5,84.6l0.3,145.6c0,0,0,0,0,0l4.5,2.6	c0,0,0,0,0,0V86.8c0,0,0,0,0,0l-4.7-2.2C142.6,84.5,142.5,84.6,142.5,84.6z"/><path fill="#F7923F" stroke="#5B5755" stroke-width="1.11" stroke-miterlimit="10" d="M151.7,84.9v145.2c0,0.1,0,0.1-0.1,0.2	l-3.9,2.3c-0.1,0.1-0.3,0-0.3-0.2V86.9c0-0.1,0-0.2,0.1-0.2l3.9-2C151.6,84.6,151.7,84.7,151.7,84.9z"/><path fill="#E2E2E1" stroke="#555655" stroke-width="1.11" stroke-miterlimit="10" d="M65.8 72L82.4 62.2 82.4 193.5 65.8 203.3zM192.4 92.7L198.7 58 122.7 13.7 94.6 35.6zM48.6 52.2L60.9 45c1.3-.8 2.9-.8 4.3 0l12.7 7.3c.6.4.6 1.3 0 1.7l-12.8 7.5c-1.1.7-2.5.7-3.7 0l-12.8-7.5C48 53.5 48 52.6 48.6 52.2zM126.4 82.3l12.3 7.2c1.3.8 2.1 2.2 2.1 3.7l-.1 14.6c0 .7-.8 1.2-1.4.8l-12.8-7.5c-1.1-.7-1.8-1.9-1.8-3.2l.3-14.9C124.9 82.4 125.7 82 126.4 82.3zM126.4 106.4l12.3 7.2c1.3.8 2.1 2.2 2.1 3.7l-.1 14.6c0 .7-.8 1.2-1.4.8l-12.8-7.5c-1.1-.7-1.8-1.9-1.8-3.2l.3-14.9C124.9 106.5 125.7 106 126.4 106.4zM126.4 131.8l12.3 7.2c1.3.8 2.1 2.2 2.1 3.7l-.1 14.6c0 .7-.8 1.2-1.4.8l-12.8-7.5c-1.1-.7-1.8-1.9-1.8-3.2l.3-14.9C124.9 131.9 125.7 131.5 126.4 131.8zM126.4 158l12.3 7.2c1.3.8 2.1 2.2 2.1 3.7l-.1 14.6c0 .7-.8 1.2-1.4.8l-12.8-7.5c-1.1-.7-1.8-1.9-1.8-3.2l.3-14.9C124.9 158.1 125.7 157.7 126.4 158zM125.1 213.7v-29.3c0-.8.8-1.2 1.5-.8l14.3 8.3c.3.2.5.5.5.8v29.4c0 .8-.8 1.2-1.5.8l-14.3-8.5C125.3 214.4 125.1 214.1 125.1 213.7z"/><path fill="#E2E2E1" stroke="#555655" stroke-width="1.11" stroke-miterlimit="10" d="M126.9,214.9v-22.7c0-0.6,0.6-1,1.1-0.7	l11.1,6.5c0.2,0.1,0.4,0.4,0.4,0.7v22.9c0,0.6-0.6,1-1.1,0.7l-11.1-6.6C127,215.4,126.9,215.2,126.9,214.9z"/><path fill="none" stroke="#555655" stroke-width="1.11" stroke-miterlimit="10" d="M132 193.8L132.1 218.5"/><path fill="#BABABA" stroke="#555655" stroke-width="1.11" stroke-miterlimit="10" d="M225.6 73.6L192.4 92.7 198.7 58z"/><path fill="#E2E2E1" stroke="#555655" stroke-width="1.11" stroke-miterlimit="10" d="M111.9 72L94.7 62c0 0 0 0 0 0v8l17.1 9.6c0 0 .1 0 .1 0L111.9 72zM111.9 83.4l-17.2-10c0 0 0 0 0 0v8l17.1 9.6c0 0 .1 0 .1 0L111.9 83.4zM111.9 95.8l-17.2-10c0 0 0 0 0 0v8l17.1 9.6c0 0 .1 0 .1 0L111.9 95.8zM111.9 107.5l-17.2-10c0 0 0 0 0 0v8l17.1 9.6c0 0 .1 0 .1 0L111.9 107.5zM111.9 118.9l-17.2-10c0 0 0 0 0 0v8l17.1 9.6c0 0 .1 0 .1 0L111.9 118.9zM111.9 129.6l-17.2-10c0 0 0 0 0 0v8l17.1 9.6c0 0 .1 0 .1 0L111.9 129.6zM111.9 141.4l-17.2-10c0 0 0 0 0 0v8l17.1 9.6c0 0 .1 0 .1 0L111.9 141.4zM111.9 152.6l-17.2-10c0 0 0 0 0 0v8l17.1 9.6c0 0 .1 0 .1 0L111.9 152.6zM111.9 163.6l-17.2-10c0 0 0 0 0 0v8l17.1 9.6c0 0 .1 0 .1 0L111.9 163.6zM111.9 174.4l-17.2-10c0 0 0 0 0 0v8l17.1 9.6c0 0 .1 0 .1 0L111.9 174.4zM111.9 184.7l-17.2-10c0 0 0 0 0 0v8l17.1 9.6c0 0 .1 0 .1 0L111.9 184.7zM111.9 195l-17.2-10c0 0 0 0 0 0v8l17.1 9.6c0 0 .1 0 .1 0L111.9 195zM174.5 104l-17.2-10c0 0 0 0 0 0v8l17.1 9.6c0 0 .1 0 .1 0L174.5 104zM174.5 115.5l-17.2-10c0 0 0 0 0 0v8l17.1 9.6c0 0 .1 0 .1 0L174.5 115.5zM174.5 127.8l-17.2-10c0 0 0 0 0 0v8l17.1 9.6c0 0 .1 0 .1 0L174.5 127.8zM174.5 139.5l-17.2-10c0 0 0 0 0 0v8l17.1 9.6c0 0 .1 0 .1 0L174.5 139.5zM174.5 150.9l-17.2-10c0 0 0 0 0 0v8l17.1 9.6c0 0 .1 0 .1 0L174.5 150.9zM174.5 161.6l-17.2-10c0 0 0 0 0 0v8l17.1 9.6c0 0 .1 0 .1 0L174.5 161.6zM174.5 173.4l-17.2-10c0 0 0 0 0 0v8l17.1 9.6c0 0 .1 0 .1 0L174.5 173.4zM174.5 184.6l-17.2-10c0 0 0 0 0 0v8l17.1 9.6c0 0 .1 0 .1 0L174.5 184.6zM174.5 195.6l-17.2-10c0 0 0 0 0 0v8l17.1 9.6c0 0 .1 0 .1 0L174.5 195.6zM174.5 206.4l-17.2-10c0 0 0 0 0 0v8l17.1 9.6c0 0 .1 0 .1 0L174.5 206.4zM174.5 216.7l-17.2-10c0 0 0 0 0 0v8l17.1 9.6c0 0 .1 0 .1 0L174.5 216.7zM174.5 227l-17.2-10c0 0 0 0 0 0v8l17.1 9.6c0 0 .1 0 .1 0L174.5 227z"/><path fill="#F7923F" stroke="#5B5755" stroke-width="1.11" stroke-miterlimit="10" d="M185,103.8v144.1c0,0.3,0.3,0.5,0.6,0.3	l57.5-33.3c0.1-0.1,0.2-0.2,0.2-0.3V71.3c0-0.3-0.3-0.5-0.6-0.3l-57.5,32.5C185.1,103.5,185,103.6,185,103.8z"/><path stroke="#000" stroke-width="1.16" stroke-miterlimit="10" d="M240.5,189.4l-2.7,1.5c-0.1-0.6-0.3-1.2-0.5-1.8	c-0.3-0.7-0.6-1.3-1-1.9l1.8-3.1c0.1-0.1,0.1-0.2,0-0.2l-3.4-1.9c-0.1,0-0.1,0-0.2,0.1l-1.8,3.1c-0.7-0.1-1.4-0.1-2.1,0.1	c-0.6,0.1-1.2,0.3-1.7,0.4v-3.1c0-0.1-0.1-0.1-0.1-0.1l-4.8,2.8c-0.1,0-0.1,0.2-0.1,0.2v3.1c-1.4,1.2-2.7,2.6-3.9,4.1l-2-1	c-0.1,0-0.1,0-0.2,0.1l-3.3,5.9c-0.1,0.1-0.1,0.2,0,0.2l2,1c-0.7,1.7-1.2,3.5-1.5,5.2l-2.9,1.7c-0.1,0-0.1,0.2-0.1,0.2v5.5	c0,0.1,0.1,0.1,0.1,0.1l3-1.7c0.1,0.6,0.3,1.1,0.5,1.6c0.3,0.7,0.6,1.4,1.1,1.9l-2,3.4c-0.1,0.1-0.1,0.2,0,0.2l3.4,2	c0.1,0,0.1,0,0.2-0.1l2.1-3.6c0.6,0.1,1.3,0.1,2-0.1c0.6-0.1,1.2-0.3,1.7-0.4v3.3c0,0.1,0.1,0.1,0.1,0.1l4.8-2.8	c0.1,0,0.1-0.2,0.1-0.2v-3.3c1.3-1.1,2.6-2.4,3.7-3.9l1.9,1.1c0.1,0,0.1,0,0.2-0.1l3.4-5.9c0.1-0.1,0.1-0.2,0-0.2l-1.9-1.1	c0.7-1.7,1.3-3.5,1.6-5.3l2.7-1.6c0.1,0,0.1-0.2,0.1-0.2v-5.5C240.7,189.4,240.6,189.3,240.5,189.4z"/><path fill="#E6E7E8" stroke="#000" stroke-width=".806" stroke-miterlimit="10" d="M233.5,196.3c0,4.6-3.2,10.2-7.2,12.5	s-7.2,0.5-7.2-4.1c0-4.6,3.2-10.2,7.2-12.5C230.2,189.8,233.5,191.7,233.5,196.3z"/><path stroke="#000" stroke-width="1.16" stroke-miterlimit="10" d="M229.9,198.4c0,2.3-1.6,5.1-3.6,6.2c-2,1.2-3.6,0.2-3.6-2.1	s1.6-5.1,3.6-6.2C228.3,195.2,229.9,196.1,229.9,198.4z"/><path d="M192 230.5v-6.3c0-1.7.1-3.1.3-4.1.2-1 .5-1.9.9-2.6.4-.7.8-1.3 1.4-1.7.5-.5 1.4-1 2.5-1.7l1.6-.9c1.1-.7 2-1 2.5-1 .5 0 .9.4 1.2 1 .3.7.4 1.7.4 3.1v1.7l7.2-4.2v6.2L192 230.5zM195.1 222.5l4.6-2.6c0-.2 0-.3 0-.5 0-.6-.1-.9-.3-1-.2-.1-.6 0-1.3.4l-1.5.8c-.6.4-1 .7-1.2 1.1C195.2 221.1 195.1 221.7 195.1 222.5zM192 215.3v-4.4c0-2.9.1-5 .3-6.1.2-1.1.6-2.2 1.3-3.3s1.8-2 3.3-2.9c1.4-.8 2.3-1.1 2.8-.9.5.2.8.9.9 2.2.2-1.4.5-2.4.9-3 .4-.6.7-1.1 1.1-1.4.3-.3 1.2-.9 2.6-1.7l4.7-2.7v5.8l-6 3.4c-1 .6-1.6 1-1.8 1.3-.2.3-.3.9-.3 1.8l8.1-4.7v6.2L192 215.3zM195.1 207.3l4-2.3c0-.7-.1-1.2-.2-1.3-.1-.2-.6-.1-1.4.4l-1 .6c-.6.3-.9.7-1.1 1.1C195.2 206 195.1 206.6 195.1 207.3zM202.5 178.7c1.8-1 3.1-1.7 3.8-2 .7-.3 1.4-.4 2.1-.1.6.2 1.1.8 1.4 1.6.3.8.5 1.9.5 3.3 0 1.3-.2 2.5-.5 3.7-.3 1.2-.8 2.3-1.4 3.3-.6 1-1.3 1.7-2 2.3-.7.5-2 1.3-3.9 2.4l-3.1 1.8c-1.8 1-3.1 1.7-3.8 2-.7.3-1.4.4-2.1.1s-1.1-.8-1.4-1.6c-.3-.8-.5-1.9-.5-3.3 0-1.3.2-2.5.5-3.7.3-1.2.8-2.3 1.4-3.3.6-1 1.3-1.7 2-2.3.7-.5 2-1.3 3.9-2.4L202.5 178.7zM196.6 188.3c-.8.5-1.4.9-1.6 1.1-.2.3-.3.6-.3 1 0 .3.1.5.3.6.2.1.7-.2 1.7-.7l8.4-4.8c1-.6 1.7-1 1.9-1.3.2-.3.4-.6.4-1 0-.4-.1-.6-.4-.6-.3 0-.9.4-2 1L196.6 188.3zM192 182.4v-10.6l3.6-2.1v4.3l3.4-2v-3.9l3.4-2v3.9l7.5-4.3v6.2L192 182.4zM192 157.8l3.6-2.1v3.7l14.3-8.3v6.2l-14.3 8.3v3.7l-3.6 2.1V157.8zM192 156.3V146l3.6-2.1v4.2l3.4-2v-3.9l3.4-2v3.9l3.9-2.3v-4.6l3.6-2.1V146L192 156.3zM199.8 124.7v6.2l-3.1 1.8c-.9.5-1.5.9-1.7 1.2-.2.3-.3.6-.3 1.1 0 .5.1.8.4.7.3 0 .9-.3 1.8-.8l8.3-4.8c.9-.5 1.4-.9 1.7-1.2.3-.3.4-.7.4-1.2 0-.5-.1-.7-.4-.7-.3 0-.9.3-1.9.9l-2.3 1.3V123l.7-.4c1.9-1.1 3.2-1.7 3.9-1.8.8-.1 1.5.3 2 1.1.6.9.9 2.2.9 3.9 0 1.8-.2 3.5-.7 4.9-.5 1.5-1.2 2.7-2.1 3.5-.9.9-2.2 1.8-3.9 2.9l-5.2 3c-1.3.7-2.3 1.2-2.9 1.5-.6.3-1.3.3-1.9 0-.6-.2-1.1-.8-1.4-1.6-.3-.8-.5-1.9-.5-3.3 0-1.8.3-3.5.8-5 .5-1.5 1.2-2.7 2-3.5.8-.8 2-1.7 3.7-2.7L199.8 124.7zM192 112.6l17.9-10.3v6.2l-7.5 4.3v1.9l7.5-4.3v6.2L192 126.9v-6.2l6.4-3.7v-1.9l-6.4 3.7V112.6z"/><g><path fill="#FFF" stroke="#000" stroke-width=".952" stroke-miterlimit="10" d="M234.1,88.2v81.6c0,1.1-0.8,2.4-1.7,2.9 l-9.9,5.7c-0.9,0.5-1.6,0.2-1.5-0.9c0-0.2,0-0.5,0-0.7V96.1c0-0.2,0-0.4,0-0.6c-0.2-0.9,0.6-2.1,1.5-2.6l9.9-5.7 C233.4,86.7,234.1,87.1,234.1,88.2z"/><g fill="#F5A722"><path d="M223.1 174.2v-5.3l1.8-1.1v2.1l1.7-1v-2l1.7-1v2l2-1.2v-2.3l1.8-1.1v5.5L223.1 174.2zM223.1 160.7l9.1-5.3v2.8l-4.1 4 4.1-2.4v2.6l-9.1 5.3v-2.6l4.1-4.1-4.1 2.4V160.7zM226.4 150.2v3.2l-.8.5c-.5.3-.8.5-1 .7-.1.1-.2.3-.2.5 0 .2.1.3.2.3.1 0 .4-.1.9-.4l4.4-2.5c.4-.2.7-.4.8-.6.1-.1.2-.3.2-.5 0-.2-.1-.3-.2-.3-.1 0-.4.1-.9.4l-1.1.6v.6l-1.4.8v-3.7l4.9-2.8v2l-.7.7c.3.1.5.2.6.5.1.2.2.6.2 1 0 .5-.1 1.1-.3 1.7-.2.6-.4 1.1-.7 1.5-.3.4-.6.7-.9 1-.3.2-.8.5-1.4.9l-2.7 1.6c-.9.5-1.5.8-1.9.9-.4.1-.8-.1-1.1-.5-.3-.4-.5-1.1-.5-2 0-.9.1-1.8.4-2.6.3-.8.6-1.4 1-1.8.4-.4 1-.8 1.7-1.3L226.4 150.2zM223.1 147.8l9.1-5.3v3.2l-9.1 5.3V147.8zM223.1 139.4l9.1-5.3v2.8l-4.1 4 4.1-2.4v2.6l-9.1 5.3v-2.6l4.1-4.1-4.1 2.4V139.4zM223.1 138.2v-5.3l1.8-1.1v2.1l1.7-1v-2l1.7-1v2l2-1.2v-2.3l1.8-1.1v5.5L223.1 138.2zM223.1 131.8v-5.3l1.8-1.1v2.1l1.7-1v-2l1.7-1v2l2-1.2v-2.3l1.8-1.1v5.5L223.1 131.8zM223.1 125.4v-2.2c0-1.5 0-2.5.1-3.1.1-.6.3-1.1.7-1.7.4-.5.9-1 1.7-1.5.7-.4 1.2-.6 1.4-.5.2.1.4.5.4 1.1.1-.7.3-1.2.5-1.5.2-.3.4-.6.5-.7.2-.1.6-.4 1.3-.9l2.4-1.4v2.9l-3 1.7c-.5.3-.8.5-.9.7-.1.2-.2.5-.2.9l4.1-2.4v3.2L223.1 125.4zM224.6 121.3l2-1.2c0-.4 0-.6-.1-.7s-.3 0-.7.2l-.5.3c-.3.2-.5.3-.6.5C224.7 120.6 224.6 120.9 224.6 121.3zM223.1 113.9l9.1-5.3v3.2l-9.1 5.3V113.9zM223.1 105.5l9.1-5.3v2.8l-4.1 4 4.1-2.4v2.6l-9.1 5.3V110l4.1-4.1-4.1 2.4V105.5zM226.4 95.1v3.2l-.8.5c-.5.3-.8.5-1 .7-.1.1-.2.3-.2.5 0 .2.1.3.2.3.1 0 .4-.1.9-.4l4.4-2.5c.4-.2.7-.4.8-.6.1-.1.2-.3.2-.5 0-.2-.1-.3-.2-.3-.1 0-.4.1-.9.4l-1.1.6v.6l-1.4.8v-3.7l4.9-2.8v2l-.7.7c.3.1.5.2.6.5.1.2.2.6.2 1 0 .5-.1 1.1-.3 1.7-.2.6-.4 1.1-.7 1.5-.3.4-.6.7-.9 1-.3.2-.8.5-1.4.9l-2.7 1.6c-.9.5-1.5.8-1.9.9-.4.1-.8-.1-1.1-.5-.3-.4-.5-1.1-.5-2 0-.9.1-1.8.4-2.6.3-.8.6-1.4 1-1.8.4-.4 1-.8 1.7-1.3L226.4 95.1z"/></g></g></svg>