<svg xmlns="http://www.w3.org/2000/svg" viewBox="0 0 283.5 283.5" id="home"><path fill="#E2E2E1" d="M8.8,213.6l71.5,41.2c0.1,0.1,0.3,0.1,0.5,0.1l120.4,0.2c0.2,0,0.3,0,0.5-0.1c4.1-2.4,62.5-36,72.3-41.9	c0.6-0.4,0.6-1.3,0-1.7l-88.4-51.3c-0.2-0.1-0.4-0.1-0.6-0.1l-97.8,6.8c-0.1,0-0.3,0.1-0.4,0.1l-78,44.9	C8.1,212.3,8.1,213.2,8.8,213.6z"/><path fill="#B7B7B8" stroke="#545553" stroke-width="1.272" stroke-miterlimit="10" d="M9.5,191.1l71.5,41.2	c0.3,0.2,0.7,0.3,1.1,0.3l119.7,0.2c0.4,0,0.8-0.1,1.2-0.3c6.7-3.9,73.8-42.6,73.3-42.6l0.1-28.8c0-2-1.4-3.8-3.4-4.3l-83.7-20.7	c-0.3-0.1-0.6-0.1-0.8,0L10.4,158.7c-1.2,0.1-2,1.1-2,2.3v28.2C8.4,190,8.8,190.7,9.5,191.1z"/><path fill="#FFD998" stroke="#545553" stroke-width="1.272" stroke-miterlimit="10" d="M213.1,181.4c-16.6,9.6-43.7,9.6-60.4-0.1	c-16.7-9.7-16.8-25.3-0.2-34.9c16.6-9.6,43.7-9.6,60.4,0.1S229.7,171.8,213.1,181.4z"/><path fill="#FFEACC" stroke="#696A6A" stroke-width="1.272" stroke-miterlimit="10" d="M142.1,81.5l133.5,75.7c0.4,0.2,0.4,0.8,0,1	l-73.1,43c-0.1,0.1-0.2,0.1-0.3,0.1l-120.9-0.3c-0.1,0-0.2,0-0.3-0.1L9.1,159.4c-0.8-0.5-0.8-1.6,0-2l132.4-75.9	C141.7,81.4,141.9,81.4,142.1,81.5z"/><path fill="#FFD998" stroke="#545553" stroke-width="1.272" stroke-miterlimit="10" d="M160.9,106.7l19.1-11.1	c0.5-0.3,1.2-0.3,1.7,0l69.3,41.4c1.1,0.7,1.1,2.3,0,2.9l-17.8,9.9c-0.5,0.3-1.1,0.3-1.6,0l-70.5-40.3	C159.7,109,159.7,107.4,160.9,106.7z"/><path fill="#FCBC56" stroke="#545553" stroke-width="1.272" stroke-miterlimit="10" d="M230.7,174.2l-71.4-40.3	c-0.4-0.2-0.6-0.6-0.6-1.1l-0.1-21.9c0-1,1-1.6,1.9-1.1l71.4,40.7c0.4,0.2,0.6,0.6,0.6,1.1l0.1,21.4	C232.6,174,231.6,174.6,230.7,174.2z"/><path fill="#FFD998" stroke="#545553" stroke-width="1.272" stroke-miterlimit="10" d="M187.5,74.8c0.5-0.3,1.1-0.3,1.6,0l0,0	l69.3,40.3c1.1,0.6,1.1,2.2,0,2.8l-3.3,1.8c-0.5,0.3-1.1,0.3-1.5,0l-70-39.7c-1.1-0.6-1.1-2.1,0-2.7L187.5,74.8z"/><path fill="#FCBC56" stroke="#545553" stroke-width="1.272" stroke-miterlimit="10" d="M181 94.5L181 80.6c0-.9.9-1.4 1.7-1l70.8 40.1c.4.2.6.6.6 1l-.4 15.6c0 .9-1 1.4-1.7.9l-70.4-41.9C181.3 95.2 181 94.9 181 94.5zM84.2 32c0 11-7.8 24.5-17.4 30.1-9.6 5.6-17.4 1.1-17.4-9.9 0-1.8.2-3.7.6-5.5.4-1.8.9-3.5 1.5-5.3 3-7.9 8.7-15.4 15.3-19.3 6.6-3.8 12.3-2.9 15.3 1.6.7 1 1.2 2.2 1.5 3.5C84 28.6 84.2 30.2 84.2 32z"/><path fill="#E2E2E1" d="M60.1,61.7c-5.4,0-8.8-4.4-8.8-11.1c0-1.8,0.2-3.8,0.7-5.7c0.4-1.8,1.1-3.7,1.9-5.6 c2.8-6.4,7.5-11.9,12.5-14.8c2.4-1.4,4.8-2.1,7-2.1c2.4,0,4.5,0.9,6.1,2.6c0.9,1,1.5,2.1,2,3.5c0.5,1.5,0.7,3.2,0.7,5 c0,9.6-6.8,21.3-15.2,26.1C64.7,61,62.3,61.7,60.1,61.7z"/><path fill="#555655" d="M73.4,23c2.3,0,4.2,0.8,5.6,2.4c0.8,0.9,1.4,2,1.9,3.3c0.5,1.4,0.7,3,0.7,4.8c0,9.4-6.6,20.9-14.8,25.6 c-2.4,1.4-4.7,2-6.7,2c-4.8,0-8.2-3.8-8.2-10.5c0-1.8,0.2-3.7,0.7-5.6c0.4-1.8,1.1-3.7,1.9-5.5c2.7-6,7.2-11.6,12.3-14.5 C69.2,23.6,71.4,23,73.4,23 M73.4,21.7L73.4,21.7c-2.3,0-4.8,0.7-7.3,2.2c-5.1,3-9.9,8.6-12.8,15.1c-0.8,1.9-1.5,3.8-1.9,5.7 c-0.5,2-0.7,4-0.7,5.9c0,7.2,3.7,11.8,9.4,11.8c2.3,0,4.8-0.7,7.3-2.2c8.5-4.9,15.5-16.9,15.5-26.7c0-1.9-0.3-3.7-0.8-5.2 c-0.5-1.5-1.2-2.7-2.1-3.8C78.3,22.7,76,21.7,73.4,21.7L73.4,21.7z"/><path opacity=".12" fill="#010101" d="M124.1 115.2L84 115.3 84 89.8 120.8 89.8z"/><path fill="#FCBC56" stroke="#545553" stroke-width="1.272" stroke-miterlimit="10" d="M50.8 147.8l7-4.3v-58l-7.2 4.4 0 57.8C50.5 147.8 50.7 147.9 50.8 147.8zM108.7 115.1l-7.2 3.6c-.1.1-.3 0-.3-.2V59.3l7.4-3.4V115.1z"/><path opacity=".12" fill="#010101" d="M232.6 175.1L246.8 174.7 275.6 158 259.1 147 240.8 152.8zM58.7 161L11.2 157 49.3 135.1z"/><path fill="#F7923F" stroke="#545553" stroke-width="1.272" stroke-miterlimit="10" d="M235.2,173.7l24.9-14.2	c0.5-0.3,0.9-0.9,0.9-0.9l0-37.9c0-1.9-1.4-2.8-2.6-2.1l-3.1,1.7c-0.5,0.3-0.9,0.9-0.9,1.5l-0.4,16.2c0,0.6-0.4,1.2-0.9,1.5	l-19.5,10.9c-0.5,0.3-0.9,0.9-0.9,1.5l0,20.3C232.6,173.6,234.1,174.4,235.2,173.7z"/><g stroke="#545553" stroke-width="1.272" stroke-miterlimit="10"><path fill="#F7923F" d="M108.8,105.8l13.5,7.9 c0.5,0.3,1.1-0.1,1.1-0.7V63.8l-14.7-8.6V105.8z"/><path fill="#FFD998" d="M151.4,47.6l-27.5,16 c-0.2,0.1-0.5,0.1-0.8,0L110,55.9c-0.5-0.3-0.5-1.1,0-1.4l27.8-15.8c0.2-0.1,0.5-0.1,0.8,0l12.8,7.5 C151.9,46.6,151.9,47.3,151.4,47.6z"/><path fill="#FCBC56" d="M152.3,97.5L124.2,114 c-0.3,0.2-0.6,0-0.6-0.4V64.1c0-0.2,0.1-0.3,0.2-0.4l28.2-16.4c0.3-0.2,0.6,0,0.6,0.4v49.5C152.5,97.3,152.5,97.5,152.3,97.5z"/></g><path fill="#FFF" stroke="#545553" stroke-width="1.272" stroke-miterlimit="10" d="M123.5 80.7L152.5 63.8M123.5 97.4L152.5 80.7M138.3 55.2L138 105.9"/><path fill="#F7923F" stroke="#545553" stroke-width="1.272" stroke-miterlimit="10" d="M86.7 110.7L86.7 59.3 101.3 60.1 101.6 118.7zM35.2 149l21.9 11.2c.4.2.8-.1.8-.5l-.2-7.6-7.2-4.1 0-58.1L37 81.6c-.8-.5-1.8.1-1.8 1V149z"/><path fill="#FCBC56" stroke="#545553" stroke-width="1.272" stroke-miterlimit="10" d="M115.7,127.6l-57,32.6	c-0.3,0.2-0.8,0-0.8-0.4l-0.2-7.7l57.1-32.7c0.4-0.2,0.9,0.1,0.9,0.5V127.6z"/><path fill="#FFD998" stroke="#545553" stroke-width="1.272" stroke-miterlimit="10" d="M35.1 84.9L48.6 93c.7.4 1.5.4 2.2 0l61.7-34.9c1.5-.8 1.5-3 0-3.8l-14.3-8.1c-.7-.4-1.5-.4-2.2 0l-61 35C33.7 81.9 33.7 84 35.1 84.9zM101.3 118.8l-14.6-8.1L58 127.4l-.2 16-6.7 4.2c-.2.1-.2.5 0 .6l6.7 3.8 57.6-33.1c.1-.1.1-.3 0-.3l-6.6-3.6L101.3 118.8z"/><path fill="#F7923F" stroke="#545553" stroke-width="1.272" stroke-miterlimit="10" d="M86.7 72.7L86.7 110.7 58 127.4 57.7 89.2z"/><path fill="#FFF" d="M80.9,28.7L52.6,45c0.4-1.8,1.1-3.7,1.9-5.5L79,25.4C79.8,26.3,80.5,27.4,80.9,28.7z"/><path fill="none" stroke="#FFF" stroke-width="1.272" stroke-linecap="round" stroke-miterlimit="10" d="M52.4 50.4L81.1 34"/><path d="M83.9 212.2h2.5c.7 0 1.2 0 1.6.1s.6.2.8.4c.2.2.3.4.4.6.1.2.1.6.1 1.1v.7c0 .5-.1.9-.2 1.1-.1.2-.4.4-.7.6-.3.1-.8.2-1.3.2h-.7v3.3h-2.5V212.2zM86.4 213.6v2.1c.1 0 .1 0 .2 0 .2 0 .4 0 .5-.1.1-.1.1-.3.1-.6v-.7c0-.3-.1-.5-.2-.5C87 213.7 86.8 213.6 86.4 213.6zM90 212.2h1.8c1.2 0 2 0 2.4.1.4.1.8.3 1 .6.3.3.4.8.4 1.5 0 .6-.1 1.1-.3 1.3-.2.2-.6.4-1.1.4.5.1.8.2 1 .4.2.2.3.3.3.5 0 .1.1.6.1 1.2v2.2h-2.3v-2.7c0-.4 0-.7-.1-.8-.1-.1-.3-.2-.6-.2v3.7H90V212.2zM92.5 213.6v1.8c.3 0 .5 0 .6-.1.1-.1.2-.3.2-.6v-.5c0-.3-.1-.4-.2-.5C93 213.7 92.8 213.6 92.5 213.6zM102.3 217c0 .8 0 1.4-.1 1.8 0 .3-.2.7-.4.9-.2.3-.6.5-1 .7-.4.2-.9.2-1.4.2-.5 0-1-.1-1.4-.2-.4-.1-.7-.4-1-.6-.2-.3-.4-.6-.4-.9 0-.3-.1-.9-.1-1.8v-1.4c0-.8 0-1.4.1-1.8 0-.3.2-.7.4-.9.2-.3.6-.5 1-.7.4-.2.9-.2 1.4-.2.5 0 1 .1 1.4.2.4.1.7.4 1 .6.2.3.4.6.4.9 0 .3.1.9.1 1.8V217zM99.8 214.3c0-.4 0-.6-.1-.7 0-.1-.2-.2-.3-.2-.1 0-.2 0-.3.1-.1.1-.1.3-.1.8v3.8c0 .5 0 .8.1.9 0 .1.2.2.3.2.2 0 .3-.1.3-.2 0-.1.1-.4.1-.9V214.3zM103.2 212.2h4.2v1.6h-1.7v1.6h1.5v1.6h-1.5v3.4h-2.5V212.2zM113 212.2v1.6h-1.5v6.6h-2.5v-6.6h-1.5v-1.6H113zM113.6 212.2h4.2v1.6h-1.7v1.6h1.6v1.6h-1.6v1.8h1.8v1.6h-4.3V212.2zM124.5 215.8H122v-1.4c0-.4 0-.7-.1-.8-.1-.1-.2-.2-.4-.2-.2 0-.3.1-.4.2-.1.1-.1.4-.1.8v3.8c0 .4 0 .7.1.8.1.1.2.2.4.2.2 0 .3-.1.4-.2.1-.1.1-.4.1-.9v-1h2.5v.3c0 .9-.1 1.5-.2 1.8-.1.4-.4.7-.9.9-.5.3-1.1.4-1.8.4-.7 0-1.3-.1-1.8-.3-.5-.2-.8-.5-.9-.9-.2-.4-.2-1-.2-1.8v-2.4c0-.6 0-1 .1-1.3 0-.3.2-.6.4-.9.2-.3.6-.5 1-.6.4-.2.9-.2 1.4-.2.7 0 1.3.1 1.8.4.5.2.8.5.9.9.1.4.2.9.2 1.7V215.8zM131.1 212.2v8.2h-2.5V217h-.7v3.4h-2.5v-8.2h2.5v2.9h.7v-2.9H131.1z"/><path fill="#FFF" stroke="#000" stroke-width=".802" stroke-miterlimit="10" d="M199.7,222.1h-64.2c-0.8,0-1.5-0.7-1.5-1.6	v-8.9c0-0.8,0.6-1.5,1.4-1.3c0.2,0,0.3,0,0.5,0h63.5c0.2,0,0.3,0,0.5,0c0.8-0.2,1.4,0.5,1.4,1.3v8.9	C201.2,221.4,200.5,222.1,199.7,222.1z"/><path fill="#F5A722" d="M137.1 212.1h4.2v1.6h-1.7v1.6h1.6v1.6h-1.6v1.8h1.8v1.6h-4.3V212.1zM147.7 212.1v8.2h-2.2l-1.3-3.7v3.7h-2.1v-8.2h2.1l1.4 3.7v-3.7H147.7zM154.4 215.2h-2.5v-.7c0-.5 0-.8-.1-.9 0-.1-.2-.2-.3-.2-.2 0-.3.1-.3.2-.1.1-.1.4-.1.8v3.9c0 .4 0 .6.1.7.1.1.2.2.3.2.2 0 .3-.1.4-.2.1-.1.1-.4.1-.8v-1h-.5v-1.2h2.9v4.4h-1.6l-.2-.6c-.2.3-.4.4-.6.6-.3.1-.6.2-.9.2-.4 0-.8-.1-1.2-.3-.4-.2-.6-.4-.8-.6-.2-.3-.3-.5-.4-.8 0-.3-.1-.7-.1-1.3v-2.4c0-.8 0-1.4.1-1.7.1-.4.4-.7.8-1 .5-.3 1.1-.4 1.8-.4.7 0 1.3.1 1.8.4s.8.6.9.9c.1.4.2.9.2 1.5V215.2zM157.8 212.1v8.2h-2.5v-8.2H157.8zM164.4 212.1v8.2h-2.2l-1.3-3.7v3.7h-2.1v-8.2h2.1l1.4 3.7v-3.7H164.4zM165.4 212.1h4.2v1.6h-1.7v1.6h1.6v1.6h-1.6v1.8h1.8v1.6h-4.3V212.1zM170.4 212.1h4.2v1.6h-1.7v1.6h1.6v1.6h-1.6v1.8h1.8v1.6h-4.3V212.1zM175.5 212.1h1.8c1.2 0 2 0 2.4.1.4.1.8.3 1 .6.3.3.4.8.4 1.5 0 .6-.1 1.1-.3 1.3-.2.2-.6.4-1.1.4.5.1.8.2 1 .4.2.2.3.3.3.5 0 .1.1.6.1 1.2v2.2h-2.3v-2.7c0-.4 0-.7-.1-.8-.1-.1-.3-.2-.6-.2v3.7h-2.5V212.1zM178 213.5v1.8c.3 0 .5 0 .6-.1.1-.1.2-.3.2-.6v-.5c0-.3-.1-.4-.2-.5C178.5 213.6 178.3 213.5 178 213.5zM184.5 212.1v8.2H182v-8.2H184.5zM191.1 212.1v8.2h-2.2l-1.3-3.7v3.7h-2.1v-8.2h2.1l1.4 3.7v-3.7H191.1zM197.8 215.2h-2.5v-.7c0-.5 0-.8-.1-.9 0-.1-.2-.2-.3-.2-.2 0-.3.1-.3.2-.1.1-.1.4-.1.8v3.9c0 .4 0 .6.1.7.1.1.2.2.3.2.2 0 .3-.1.4-.2.1-.1.1-.4.1-.8v-1h-.5v-1.2h2.9v4.4h-1.6l-.2-.6c-.2.3-.4.4-.6.6-.3.1-.6.2-.9.2-.4 0-.8-.1-1.2-.3-.4-.2-.6-.4-.8-.6-.2-.3-.3-.5-.4-.8 0-.3-.1-.7-.1-1.3v-2.4c0-.8 0-1.4.1-1.7.1-.4.4-.7.8-1 .5-.3 1.1-.4 1.8-.4.7 0 1.3.1 1.8.4.5.3.8.6.9.9.1.4.2.9.2 1.5V215.2z"/><path stroke="#000" stroke-width=".435" stroke-miterlimit="10" d="M76.7,213.1l-1.7-1c-0.1-0.5-0.2-1-0.3-1.5 c-0.2-0.7-0.4-1.3-0.7-2l1.1-0.7c0,0,0-0.1,0-0.2L73,204c0-0.1-0.1-0.1-0.1-0.1l-1.1,0.7c-0.4-0.6-0.9-1.1-1.4-1.5 c-0.4-0.4-0.7-0.7-1.1-1v-2c0-0.1,0-0.1-0.1-0.2l-3.1-1.8c-0.1,0-0.1,0-0.1,0.1v2c-0.9-0.3-1.7-0.4-2.5-0.2l-1.3-2.1 c0-0.1-0.1-0.1-0.1-0.1l-2.1,1.3c0,0,0,0.1,0,0.2l1.3,2.1c-0.5,0.6-0.8,1.3-1,2.2l-1.9-1.1c-0.1,0-0.1,0-0.1,0.1v3.5 c0,0.1,0,0.1,0.1,0.2l1.9,1.1c0.1,0.4,0.2,0.9,0.3,1.4c0.2,0.7,0.4,1.4,0.7,2.1l-1.3,0.7c0,0,0,0.1,0,0.1l2.1,3.8 c0,0.1,0.1,0.1,0.1,0.1l1.4-0.7c0.4,0.5,0.8,1,1.3,1.5c0.4,0.4,0.7,0.7,1.1,1v2.1c0,0.1,0,0.1,0.1,0.2l3.1,1.8c0.1,0,0.1,0,0.1-0.1 v-2.1c0.9,0.3,1.7,0.4,2.4,0.3l1.2,2.1c0,0.1,0.1,0.1,0.1,0.1l2.2-1.2c0,0,0-0.1,0-0.1L74,218c0.5-0.6,0.8-1.3,1-2.2l1.7,1 c0.1,0,0.1,0,0.1-0.1v-3.5C76.8,213.2,76.8,213.1,76.7,213.1z"/><path fill="#E6E7E8" stroke="#000" stroke-width=".303" stroke-miterlimit="10" d="M72.2,212.3c0,2.9-2.1,4.1-4.6,2.6	s-4.6-5.1-4.6-8c0-2.9,2.1-4.1,4.6-2.6S72.2,209.3,72.2,212.3z"/><path stroke="#000" stroke-width=".435" stroke-miterlimit="10" d="M69.9,211c0,1.5-1,2.1-2.3,1.3c-1.3-0.7-2.3-2.5-2.3-4	c0-1.5,1-2.1,2.3-1.3C68.9,207.7,69.9,209.5,69.9,211z"/></svg>