<svg xmlns="http://www.w3.org/2000/svg" viewBox="0 0 283.5 283.5" id="itp"><path opacity=".4" fill="#FDBD56" stroke="#545453" stroke-width=".724" stroke-miterlimit="10" d="M250.9 230.5L180.3 271.5 26.1 182.3 96 141.8z"/><path opacity=".1" fill="#58595B" stroke="#000" stroke-width="1.723" stroke-linecap="round" stroke-miterlimit="10" d="M253.5,227.6V98.9c0-0.7-0.4-1.4-1-1.8L100.2,9.5c-1.4-0.8-3.1,0.2-3.1,1.8v127.7c0,0.7,0.4,1.4,1,1.8l152.2,88.7 C251.7,230.2,253.5,229.2,253.5,227.6z"/><path opacity=".1" fill="#58595B" stroke="#000" stroke-width="1.723" stroke-linecap="round" stroke-miterlimit="10" d="M94,9.5L25.2,48.8c-0.6,0.4-1,1.1-1,1.8v128c0,1.6,1.7,2.6,3.1,1.8L96,140.7c0.6-0.4,1-1.1,1-1.8V11.3C97.1,9.7,95.4,8.7,94,9.5z"/><g stroke-miterlimit="10"><path fill="none" stroke="#CB5927" stroke-width="1.092" d="M214.7,117.1v26.8c0,1.7-1.9,2.8-3.4,1.9 l-76.9-44.5"/><path fill="none" stroke="#F7923F" stroke-width="1.092" d="M193.7,90.2v62.9c0,4.1-4.4,6.6-7.9,4.6 l-50.2-28.9"/><g stroke="#545453" stroke-width=".202"><path fill="#E6E7E8" d="M44.6,158.3c-0.3-0.1-0.6-0.3-0.8-0.4 c-1-0.6-2.3-0.5-3.8,0.3c-2.9,1.7-5.3,5.8-5.3,9.2c0,1.8,0.7,3.1,1.8,3.5c0.3,0.1,0.6,0.3,0.8,0.4c1,0.6,2.3,0.5,3.8-0.3 c2.9-1.7,5.3-5.8,5.3-9.2C46.4,160,45.7,158.7,44.6,158.3z"/><path fill="#BCBEC0" d="M46.5,161.8c0,3.4-2.4,7.5-5.3,9.2 s-5.3,0.3-5.3-3s2.4-7.5,5.3-9.2S46.5,158.4,46.5,161.8z"/></g><path fill="#BCBEC0" stroke="#808285" stroke-width="1.365" stroke-linecap="round" d="M115.9,82.8 l18.5,11c0.8,0.5,1.3,1.3,1.3,2.3v57.7c0,2-2.2,3.3-3.9,2.3l-18.5-10.7c-0.8-0.5-1.3-1.3-1.3-2.3V85.1 C111.9,83,114.1,81.8,115.9,82.8z"/><path fill="#BCBEC0" stroke="#545453" stroke-width=".21" d="M130.4,116.3c0,1.5-1,2.1-2.3,1.3 c-1.3-0.7-2.3-2.6-2.3-4s1-2.1,2.3-1.3C129.3,113,130.4,114.8,130.4,116.3z"/><path fill="none" stroke="#E6E7E8" stroke-width="3.821" stroke-linecap="round" d="M127.7,97.9 l-10.7,5.9c-2.2,1.2-2.2,4.3-0.1,5.6l65.3,38.5"/><path fill="none" stroke="#808285" stroke-width="3.821" stroke-linecap="round" d="M57.9 174.1L120.4 138.3"/><path fill="none" stroke="#808285" stroke-width="3.821" stroke-linecap="round" d="M42.2 165.7L111.9 206 167.9 238.2"/><path fill="none" stroke="#808285" stroke-width="3.821" stroke-linecap="round" d="M151.4,228.5v-14.8 c0-1.1-0.6-2.2-1.6-2.8l-33-19.4c-2.2-1.3-4.9,0.3-4.9,2.8l0,11.7"/><path fill="none" stroke="#808285" stroke-width="3.821" stroke-linecap="round" d="M198,202.3v-15.6 c0-1.1-0.6-2.2-1.6-2.8l-33-19.4c-2.2-1.3-4.9,0.3-4.9,2.8l0,11.7"/><path fill="none" stroke="#808285" stroke-width="3.821" stroke-linecap="round" d="M127.7,143.4 l-10.7,5.9c-2.2,1.2-2.2,4.3-0.1,5.6l105.2,61.9"/><path fill="none" stroke="#A7A9AC" stroke-width="3.821" stroke-linecap="round" d="M120.4,157L93,172.8 c-2.1,1.2-4.8-0.3-4.8-2.7l-0.2-11.5c0-1.1-0.6-2.2-1.6-2.7l-37.9-21.8"/><path fill="#E6E7E8" stroke="#D1D3D4" stroke-width="3.821" stroke-linecap="round" d="M56.7 129.4L119.2 93.7"/><path fill="none" stroke="#BCBEC0" stroke-width="3.821" stroke-linecap="round" d="M111.9,164.9v9.6 c0,2.5-2.7,4-4.8,2.8l-37.7-21.8c-2.2-1.2-4.8,0.3-4.8,2.8v18.2"/><path fill="#E6E7E8" stroke="#D1D3D4" stroke-width="3.821" stroke-linecap="round" d="M38 121.4L163.7 194.1"/><g stroke="#545453" stroke-width=".724"><path fill="#FFDA99" d="M178.5,59.2c-0.2-0.1-0.6-0.1-0.8,0 l-3.5,2c0,0,0,0.1,0,0.1L200,76l3.6-2.1c0,0,0-0.1,0-0.1L178.5,59.2z"/><path fill="#F7923F" d="M200.1,93.7l3.6-2.1c0,0,0,0,0-0.1V73.9 c0,0,0,0-0.1,0L200,76L200.1,93.7C200,93.7,200,93.7,200.1,93.7z"/><path fill="#FDBD56" d="M174.2,61.3L200,76v17.6 c0,0-0.1,0.1-0.1,0.1l-25.8-14.8V61.4C174.1,61.3,174.2,61.3,174.2,61.3z"/></g><g stroke="#545453"><path fill="#F7923F" stroke-width=".305" d="M162.1,135.1c0,0.4-0.3,0.8-0.8,0.8l0,0 c-0.4,0-0.8-0.3-0.8-0.8v-5.6c0-0.4,0.3-0.8,0.8-0.8l0,0c0.4,0,0.8,0.3,0.8,0.8V135.1z"/><path fill="#F7923F" stroke-width=".305" d="M165.2,125.8c0-2-1.4-4.4-3.1-5.4 c-0.9-0.5-1.8-0.6-2.4-0.1l-2,1.1c0,0,0,0,0,0c-0.6,0.3-0.9,1-0.9,2c0,2,1.4,4.4,3.1,5.4c0.9,0.5,1.6,0.5,2.2,0.2c0,0,0,0,0,0 l2.2-1.2c0,0,0,0,0,0c0,0,0.1-0.1,0.1-0.1C164.9,127.4,165.2,126.7,165.2,125.8z"/><path fill="#FFEBCC" stroke-width=".283" d="M163.1,127c0,2-1.4,2.8-3.1,1.8 c-1.7-1-3.1-3.4-3.1-5.4c0-2,1.4-2.8,3.1-1.8C161.6,122.6,163.1,125,163.1,127z"/></g><g stroke="#545453" stroke-width=".724"><path fill="#FFDA99" d="M211.6,96.1c-0.2-0.1-0.6-0.1-0.8,0 l-3.5,2c0,0,0,0.1,0,0.1l25.8,14.7l3.6-2.1c0,0,0-0.1,0-0.1L211.6,96.1z"/><path fill="#F7923F" d="M233.1,130.6l3.6-2.1c0,0,0,0,0-0.1 v-17.6c0,0,0,0-0.1,0l-3.6,2.1L233.1,130.6C233,130.6,233,130.6,233.1,130.6z"/><path fill="#FDBD56" d="M207.2,98.2l25.7,14.7v17.6 c0,0-0.1,0.1-0.1,0.1l-25.8-14.8V98.3C207.1,98.2,207.2,98.2,207.2,98.2z"/></g><g stroke="#545453" stroke-width=".202"><path fill="#E6E7E8" d="M189.1,170.8c-0.3-0.1-0.6-0.3-0.8-0.4 c-1-0.6-2.3-0.5-3.8,0.3c-2.9,1.7-5.3,5.8-5.3,9.2c0,1.8,0.7,3.1,1.8,3.5c0.3,0.1,0.6,0.3,0.8,0.4c1,0.6,2.3,0.5,3.8-0.3 c2.9-1.7,5.3-5.8,5.3-9.2C190.9,172.5,190.2,171.3,189.1,170.8z"/><path fill="#BCBEC0" d="M191,174.3c0,3.4-2.4,7.5-5.3,9.2 s-5.3,0.3-5.3-3s2.4-7.5,5.3-9.2S191,170.9,191,174.3z"/></g><g stroke="#545453" stroke-width=".202"><path fill="#E6E7E8" d="M76.7,175.9c-0.3-0.1-0.6-0.3-0.8-0.4 c-1-0.6-2.3-0.5-3.8,0.3c-2.9,1.7-5.3,5.8-5.3,9.2c0,1.8,0.7,3.1,1.8,3.5c0.3,0.1,0.6,0.3,0.8,0.4c1,0.6,2.3,0.5,3.8-0.3 c2.9-1.7,5.3-5.8,5.3-9.2C78.5,177.6,77.8,176.4,76.7,175.9z"/><path fill="#BCBEC0" d="M78.5,179.4c0,3.4-2.4,7.5-5.3,9.2 s-5.3,0.3-5.3-3s2.4-7.5,5.3-9.2S78.5,176.1,78.5,179.4z"/></g><path fill="#BCBEC0" stroke="#545453" stroke-width=".101" d="M77.5,180.7c0,0.4-0.3,0.7-0.7,0.7l0,0 c-0.4,0-0.7-0.3-0.7-0.7v-10.8c0-0.4,0.3-0.7,0.7-0.7l0,0c0.4,0,0.7,0.3,0.7,0.7V180.7z"/><path fill="#F7923F" stroke="#545453" stroke-width=".202" d="M75.6,179.7c0.6,0.3,0.8,1,0.6,1.4 l-0.1,0.1c-0.3,0.4-0.9,0.5-1.5,0.2l-2.6-1.6c-0.6-0.3-0.8-1-0.6-1.4l0.1-0.1c0.3-0.4,0.9-0.5,1.5-0.2L75.6,179.7z"/><path fill="#F7923F" stroke="#545453" stroke-width=".202" d="M73.1,187.7c0.6,0.3,0.8,1,0.6,1.4 l-0.1,0.1c-0.3,0.4-0.9,0.5-1.5,0.2l-2.6-1.6c-0.6-0.3-0.8-1-0.6-1.4l0.1-0.1c0.3-0.4,0.9-0.5,1.5-0.2L73.1,187.7z"/><path fill="#F7923F" stroke="#545453" stroke-width=".202" d="M73.5,183.2c0.6,0.3,0.8,1,0.6,1.4 l-0.1,0.1c-0.3,0.4-0.9,0.5-1.5,0.2l-2.6-1.6c-0.6-0.3-0.8-1-0.6-1.4l0.1-0.1c0.3-0.4,0.9-0.5,1.5-0.2L73.5,183.2z"/><g stroke="#545453" stroke-width=".202"><path fill="#E6E7E8" d="M82.6,179.3c-0.3-0.1-0.6-0.3-0.8-0.4 c-1-0.6-2.3-0.5-3.8,0.3c-2.9,1.7-5.3,5.8-5.3,9.2c0,1.8,0.7,3.1,1.8,3.5c0.3,0.1,0.6,0.3,0.8,0.4c1,0.6,2.3,0.5,3.8-0.3 c2.9-1.7,5.3-5.8,5.3-9.2C84.4,181.1,83.7,179.8,82.6,179.3z"/><path fill="#BCBEC0" d="M84.4,182.9c0,3.4-2.4,7.5-5.3,9.2 s-5.3,0.3-5.3-3c0-3.4,2.4-7.5,5.3-9.2C82,178.2,84.4,179.5,84.4,182.9z"/></g><path fill="#F7923F" stroke="#545453" stroke-width=".202" d="M73.6,169.3c0,0.1,0,0.3,0,0.4 c0,0.5,0.3,1,1,1.3c1.3,0.7,3.3,0.6,4.6-0.1c0.7-0.4,1-0.9,0.9-1.5c0-0.1,0-0.3,0-0.4c0-0.5-0.3-1-1-1.3c-1.3-0.7-3.3-0.6-4.6,0.1 C73.8,168.3,73.5,168.8,73.6,169.3z"/><path fill="#FDBD56" stroke="#545453" stroke-width=".202" d="M74.4,167.8c1.2-0.8,3.3-0.8,4.6-0.1 s1.3,1.9,0.1,2.6s-3.3,0.8-4.6,0.1S73.2,168.6,74.4,167.8z"/><g fill="#BCBEC0" stroke="#545453" stroke-width=".101"><path d="M76.8,168.8l-2.1-3.4c0,0-0.1,0-0.1,0 l-0.5,0.3c-0.1,0-0.1,0.1-0.1,0.1l0.3,2.3l1.5,0.8c0.1,0.1,0.3-0.1,0.2-0.2l-0.3-0.5L76.8,168.8z"/><path d="M74.3,168.1 C74.3,168.1,74.3,168.1,74.3,168.1l-0.4-2.3c0-0.1,0.1-0.2,0.1-0.1l1.9,3c0.1,0.1,0,0.2-0.1,0.2L74.3,168.1z"/></g><g fill="#FDBD56" stroke="#545453" stroke-width=".101"><path d="M75.4,168.1c0,0.1,0,0.1,0,0.2 c0,0.2,0.1,0.4,0.4,0.6c0.5,0.3,1.4,0.3,1.9-0.1c0.3-0.2,0.4-0.4,0.4-0.6c0-0.1,0-0.1,0-0.2c0-0.2-0.1-0.4-0.4-0.6 c-0.5-0.3-1.4-0.3-1.9,0.1C75.5,167.7,75.4,167.9,75.4,168.1z"/><path d="M75.8,167.5c0.5-0.3,1.4-0.3,1.9-0.1 c0.5,0.3,0.6,0.8,0,1.1c-0.5,0.3-1.4,0.3-1.9,0.1C75.2,168.3,75.2,167.8,75.8,167.5z"/></g><path fill="none" stroke="#BCBEC0" stroke-width=".606" stroke-linecap="round" d="M71,163.5l3.2,1.9 c0,0,0.1,0,0.1-0.1l-1.3-2.7"/><g stroke="#545453" stroke-width=".202"><path fill="#E6E7E8" d="M78.9,106.9c0.3-0.1,0.6-0.3,0.8-0.4 c1-0.6,2.3-0.5,3.8,0.3c2.9,1.7,5.3,5.8,5.3,9.2c0,1.8-0.7,3.1-1.8,3.5c-0.3,0.1-0.6,0.3-0.8,0.4c-1,0.6-2.3,0.5-3.8-0.3 c-2.9-1.7-5.3-5.8-5.3-9.2C77.1,108.6,77.8,107.4,78.9,106.9z"/><path fill="#BCBEC0" d="M77,110.5c0,3.4,2.4,7.5,5.3,9.2 c2.9,1.7,5.3,0.3,5.3-3c0-3.4-2.4-7.5-5.3-9.2C79.4,105.7,77,107.1,77,110.5z"/></g><path fill="#BCBEC0" stroke="#545453" stroke-width=".101" d="M78.1,111.8c0,0.4,0.3,0.7,0.7,0.7l0,0 c0.4,0,0.7-0.3,0.7-0.7V101c0-0.4-0.3-0.7-0.7-0.7l0,0c-0.4,0-0.7,0.3-0.7,0.7V111.8z"/><path fill="#F7923F" stroke="#545453" stroke-width=".202" d="M80,110.7c-0.6,0.3-0.8,1-0.6,1.4 l0.1,0.1c0.3,0.4,0.9,0.5,1.5,0.2l2.6-1.6c0.6-0.3,0.8-1,0.6-1.4l-0.1-0.1c-0.3-0.4-0.9-0.5-1.5-0.2L80,110.7z"/><path fill="#F7923F" stroke="#545453" stroke-width=".202" d="M82.5,118.8c-0.6,0.3-0.8,1-0.6,1.4 l0.1,0.1c0.3,0.4,0.9,0.5,1.5,0.2l2.6-1.6c0.6-0.3,0.8-1,0.6-1.4l-0.1-0.1c-0.3-0.4-0.9-0.5-1.5-0.2L82.5,118.8z"/><path fill="#F7923F" stroke="#545453" stroke-width=".202" d="M82,114.3c-0.6,0.3-0.8,1-0.6,1.4 l0.1,0.1c0.3,0.4,0.9,0.5,1.5,0.2l2.6-1.6c0.6-0.3,0.8-1,0.6-1.4l-0.1-0.1c-0.3-0.4-0.9-0.5-1.5-0.2L82,114.3z"/><path fill="#E6E7E8" stroke="#545453" stroke-width=".202" d="M73,110.4c0.3-0.1,0.6-0.3,0.8-0.4 c1-0.6,2.3-0.5,3.8,0.3c2.9,1.7,5.3,5.8,5.3,9.2c0,1.8-0.7,3.1-1.8,3.5c-0.3,0.1-0.6,0.3-0.8,0.4c-1,0.6-2.3,0.5-3.8-0.3 c-2.9-1.7-5.3-5.8-5.3-9.2C71.2,112.1,71.9,110.8,73,110.4z"/><path fill="#BCBEC0" stroke="#545453" stroke-width=".202" d="M71.2,113.9c0,3.4,2.4,7.5,5.3,9.2 c2.9,1.7,5.3,0.3,5.3-3s-2.4-7.5-5.3-9.2C73.5,109.2,71.2,110.5,71.2,113.9z"/><path fill="#F7923F" stroke="#545453" stroke-width=".202" d="M82,100.3c0,0.1,0,0.3,0,0.4 c0,0.5-0.3,1-1,1.3c-1.3,0.7-3.3,0.6-4.6-0.1c-0.7-0.4-1-0.9-0.9-1.5c0-0.1,0-0.3,0-0.4c0-0.5,0.3-1,1-1.3 c1.3-0.7,3.3-0.6,4.6,0.1C81.8,99.3,82.1,99.8,82,100.3z"/><path fill="#FDBD56" stroke="#545453" stroke-width=".202" d="M81.2,98.9c-1.2-0.8-3.3-0.8-4.6-0.1 s-1.3,1.9-0.1,2.6s3.3,0.8,4.6,0.1C82.4,100.8,82.4,99.6,81.2,98.9z"/><g fill="#BCBEC0" stroke="#545453" stroke-width=".101"><path d="M79.9,99.1l-0.3,0.5 c-0.1,0.1,0.1,0.3,0.2,0.2l1.5-0.8l0.3-2.3c0-0.1,0-0.1-0.1-0.1L81,96.4c0,0-0.1-0.1-0.1,0l-2.1,3.4L79.9,99.1z"/><path d="M81.3,99.1 C81.3,99.1,81.3,99.1,81.3,99.1l0.4-2.3c0-0.1-0.1-0.2-0.1-0.1l-1.9,3c-0.1,0.1,0,0.2,0.1,0.2L81.3,99.1z"/></g><g fill="#FDBD56" stroke="#545453" stroke-width=".101"><path d="M80.2,99.2c0,0.1,0,0.1,0,0.2 c0,0.2-0.1,0.4-0.4,0.6c-0.5,0.3-1.4,0.3-1.9-0.1c-0.3-0.2-0.4-0.4-0.4-0.6c0-0.1,0-0.1,0-0.2c0-0.2,0.1-0.4,0.4-0.6 c0.5-0.3,1.4-0.3,1.9,0.1C80.1,98.7,80.2,98.9,80.2,99.2z"/><path d="M79.8,98.5c-0.5-0.3-1.4-0.3-1.9-0.1 c-0.5,0.3-0.6,0.8,0,1.1c0.5,0.3,1.4,0.3,1.9,0.1C80.3,99.3,80.4,98.8,79.8,98.5z"/></g><path fill="none" stroke="#808285" stroke-width=".606" stroke-linecap="round" d="M84.6,94.5l-3.2,1.9 c0,0-0.1,0-0.1-0.1l1.3-2.7"/><path fill="none" stroke="#808285" stroke-width="3.821" stroke-linecap="round" d="M79.1 186.9L94.3 195.8"/><g stroke="#545453" stroke-width=".202"><path fill="#E6E7E8" d="M141.9,160.3c-0.3-0.1-0.6-0.3-0.8-0.4 c-1-0.6-2.3-0.5-3.8,0.3c-2.9,1.7-5.3,5.8-5.3,9.2c0,1.8,0.7,3.1,1.8,3.5c0.3,0.1,0.6,0.3,0.8,0.4c1,0.6,2.3,0.5,3.8-0.3 c2.9-1.7,5.3-5.8,5.3-9.2C143.7,162,143,160.7,141.9,160.3z"/><path fill="#BCBEC0" d="M143.7,163.8c0,3.4-2.4,7.5-5.3,9.2 c-2.9,1.7-5.3,0.3-5.3-3s2.4-7.5,5.3-9.2S143.7,160.4,143.7,163.8z"/></g><path fill="#BCBEC0" stroke="#545453" stroke-width=".101" d="M142.6,165.1c0,0.4-0.3,0.7-0.7,0.7l0,0 c-0.4,0-0.7-0.3-0.7-0.7v-10.8c0-0.4,0.3-0.7,0.7-0.7l0,0c0.4,0,0.7,0.3,0.7,0.7V165.1z"/><path fill="#F7923F" stroke="#545453" stroke-width=".202" d="M140.8,164c0.6,0.3,0.8,1,0.6,1.4 l-0.1,0.1c-0.3,0.4-0.9,0.5-1.5,0.2l-2.6-1.6c-0.6-0.3-0.8-1-0.6-1.4l0.1-0.1c0.3-0.4,0.9-0.5,1.5-0.2L140.8,164z"/><path fill="#F7923F" stroke="#545453" stroke-width=".202" d="M138.3,172.1c0.6,0.3,0.8,1,0.6,1.4 l-0.1,0.1c-0.3,0.4-0.9,0.5-1.5,0.2l-2.6-1.6c-0.6-0.3-0.8-1-0.6-1.4l0.1-0.1c0.3-0.4,0.9-0.5,1.5-0.2L138.3,172.1z"/><path fill="#F7923F" stroke="#545453" stroke-width=".202" d="M138.7,167.6c0.6,0.3,0.8,1,0.6,1.4 l-0.1,0.1c-0.3,0.4-0.9,0.5-1.5,0.2l-2.6-1.6c-0.6-0.3-0.8-1-0.6-1.4l0.1-0.1c0.3-0.4,0.9-0.5,1.5-0.2L138.7,167.6z"/><path fill="#E6E7E8" stroke="#545453" stroke-width=".202" d="M147.7,163.7c-0.3-0.1-0.6-0.3-0.8-0.4 c-1-0.6-2.3-0.5-3.8,0.3c-2.9,1.7-5.3,5.8-5.3,9.2c0,1.8,0.7,3.1,1.8,3.5c0.3,0.1,0.6,0.3,0.8,0.4c1,0.6,2.3,0.5,3.8-0.3 c2.9-1.7,5.3-5.8,5.3-9.2C149.5,165.4,148.8,164.2,147.7,163.7z"/><path fill="#BCBEC0" stroke="#545453" stroke-width=".202" d="M149.6,167.2c0,3.4-2.4,7.5-5.3,9.2 s-5.3,0.3-5.3-3s2.4-7.5,5.3-9.2S149.6,163.8,149.6,167.2z"/><path fill="#F7923F" stroke="#545453" stroke-width=".202" d="M138.7,153.7c0,0.1,0,0.3,0,0.4 c0,0.5,0.3,1,1,1.3c1.3,0.7,3.3,0.6,4.6-0.1c0.7-0.4,1-0.9,0.9-1.5c0-0.1,0-0.3,0-0.4c0-0.5-0.3-1-1-1.3c-1.3-0.7-3.3-0.6-4.6,0.1 C138.9,152.6,138.6,153.1,138.7,153.7z"/><path fill="#FDBD56" stroke="#545453" stroke-width=".202" d="M139.6,152.2c1.2-0.8,3.3-0.8,4.6-0.1 s1.3,1.9,0.1,2.6c-1.2,0.8-3.3,0.8-4.6,0.1S138.3,152.9,139.6,152.2z"/><g fill="#BCBEC0" stroke="#545453" stroke-width=".101"><path d="M142,153.1l-2.1-3.4c0,0-0.1,0-0.1,0 l-0.5,0.3c-0.1,0-0.1,0.1-0.1,0.1l0.3,2.3l1.5,0.8c0.1,0.1,0.3-0.1,0.2-0.2l-0.3-0.5L142,153.1z"/><path d="M139.5,152.5 C139.4,152.4,139.4,152.4,139.5,152.5l-0.4-2.3c0-0.1,0.1-0.2,0.1-0.1l1.9,3c0.1,0.1,0,0.2-0.1,0.2L139.5,152.5z"/></g><g fill="#FDBD56" stroke="#545453" stroke-width=".101"><path d="M140.5,152.5c0,0.1,0,0.1,0,0.2 c0,0.2,0.1,0.4,0.4,0.6c0.5,0.3,1.4,0.3,1.9-0.1c0.3-0.2,0.4-0.4,0.4-0.6c0-0.1,0-0.1,0-0.2c0-0.2-0.1-0.4-0.4-0.6 c-0.5-0.3-1.4-0.3-1.9,0.1C140.6,152,140.5,152.2,140.5,152.5z"/><path d="M140.9,151.8c0.5-0.3,1.4-0.3,1.9-0.1 c0.5,0.3,0.6,0.8,0,1.1c-0.5,0.3-1.4,0.3-1.9,0.1C140.4,152.7,140.4,152.2,140.9,151.8z"/></g><path fill="none" stroke="#808285" stroke-width=".606" stroke-linecap="round" d="M136.2,147.8l3.2,1.9 c0,0,0.1,0,0.1-0.1l-1.3-2.7"/><path fill="none" stroke="#808285" stroke-width="3.821" stroke-linecap="round" d="M144.4 170.9L159.6 179.8"/><path fill="#F7923F" stroke="#545453" stroke-width=".305" d="M102.3,156.4c0,0.4-0.3,0.8-0.8,0.8l0,0 c-0.4,0-0.8-0.3-0.8-0.8v-5.6c0-0.4,0.3-0.8,0.8-0.8l0,0c0.4,0,0.8,0.3,0.8,0.8V156.4z"/><path fill="#F7923F" stroke="#545453" stroke-width=".305" d="M105.4,147.2c0-2-1.4-4.4-3.1-5.4 c-0.9-0.5-1.8-0.6-2.4-0.1l-2,1.1c0,0,0,0,0,0c-0.6,0.3-0.9,1-0.9,2c0,2,1.4,4.4,3.1,5.4c0.9,0.5,1.6,0.5,2.2,0.2c0,0,0,0,0,0 l2.2-1.2c0,0,0,0,0,0c0,0,0.1-0.1,0.1-0.1C105.2,148.7,105.4,148.1,105.4,147.2z"/><path fill="#FFEBCC" stroke="#545453" stroke-width=".283" d="M103.3,148.4c0,2-1.4,2.8-3.1,1.8 c-1.7-1-3.1-3.4-3.1-5.4s1.4-2.8,3.1-1.8S103.3,146.4,103.3,148.4z"/><g stroke="#545453"><path fill="#F7923F" stroke-width=".305" d="M148,207.6c0,0.4-0.3,0.8-0.8,0.8l0,0 c-0.4,0-0.8-0.3-0.8-0.8v-5.6c0-0.4,0.3-0.8,0.8-0.8l0,0c0.4,0,0.8,0.3,0.8,0.8V207.6z"/><path fill="#F7923F" stroke-width=".305" d="M151.1,198.3c0-2-1.4-4.4-3.1-5.4 c-0.9-0.5-1.8-0.6-2.4-0.1l-2,1.1c0,0,0,0,0,0c-0.6,0.3-0.9,1-0.9,2c0,2,1.4,4.4,3.1,5.4c0.9,0.5,1.6,0.5,2.2,0.2c0,0,0,0,0,0 l2.2-1.2c0,0,0,0,0,0c0,0,0.1-0.1,0.1-0.1C150.8,199.9,151.1,199.2,151.1,198.3z"/><path fill="#FFEBCC" stroke-width=".283" d="M148.9,199.5c0,2-1.4,2.8-3.1,1.8 c-1.7-1-3.1-3.4-3.1-5.4c0-2,1.4-2.8,3.1-1.8C147.5,195.1,148.9,197.5,148.9,199.5z"/></g><path fill="#E6E7E8" stroke="#D1D3D4" stroke-width="3.821" stroke-linecap="round" d="M69.1 122.2L76 118.1"/><path fill="none" stroke="#808285" stroke-width="3.821" stroke-linecap="round" d="M186.3 177.8L193.7 182.3"/><g stroke="#545453" stroke-width=".202"><path fill="#E6E7E8" d="M175.5,162.5c-0.3-0.1-0.6-0.3-0.8-0.4 c-1-0.6-2.3-0.5-3.8,0.3c-2.9,1.7-5.3,5.8-5.3,9.2c0,1.8,0.7,3.1,1.8,3.5c0.3,0.1,0.6,0.3,0.8,0.4c1,0.6,2.3,0.5,3.8-0.3 c2.9-1.7,5.3-5.8,5.3-9.2C177.3,164.2,176.6,162.9,175.5,162.5z"/><path fill="#BCBEC0" d="M177.3,166c0,3.4-2.4,7.5-5.3,9.2 s-5.3,0.3-5.3-3s2.4-7.5,5.3-9.2C174.9,161.3,177.3,162.6,177.3,166z"/></g><path fill="none" stroke="#808285" stroke-width="3.548" stroke-linecap="round" d="M172.6 169.9L177.7 172.9"/><path fill="#BCBEC0" stroke="#545453" stroke-width=".21" d="M130.4,107.4c0,1.5-1,2.1-2.3,1.3 c-1.3-0.7-2.3-2.6-2.3-4c0-1.5,1-2.1,2.3-1.3C129.3,104.2,130.4,106,130.4,107.4z"/><path fill="#BCBEC0" stroke="#545453" stroke-width=".21" d="M130.4,126c0,1.5-1,2.1-2.3,1.3 c-1.3-0.7-2.3-2.6-2.3-4c0-1.5,1-2.1,2.3-1.3C129.3,122.7,130.4,124.5,130.4,126z"/><path fill="#BCBEC0" stroke="#545453" stroke-width=".21" d="M130.4,135.4c0,1.5-1,2.1-2.3,1.3 c-1.3-0.7-2.3-2.6-2.3-4s1-2.1,2.3-1.3C129.3,132.1,130.4,133.9,130.4,135.4z"/></g><g stroke="#000" stroke-miterlimit="10"><path stroke-width=".274" d="M192.8,79.2l-1.1-0.6c0-0.3-0.1-0.6-0.2-1 c-0.1-0.4-0.2-0.8-0.4-1.2l0.7-0.4c0,0,0-0.1,0-0.1l-1.4-2.4c0,0-0.1-0.1-0.1,0l-0.7,0.4c-0.3-0.3-0.6-0.7-0.9-1 c-0.2-0.2-0.5-0.4-0.7-0.6V71c0,0,0-0.1-0.1-0.1l-1.9-1.1c0,0-0.1,0-0.1,0v1.2c-0.6-0.2-1.1-0.2-1.6-0.2l-0.8-1.4 c0,0-0.1-0.1-0.1,0l-1.3,0.8c0,0,0,0.1,0,0.1l0.8,1.3c-0.3,0.4-0.5,0.8-0.6,1.4l-1.2-0.7c0,0-0.1,0-0.1,0v2.2c0,0,0,0.1,0.1,0.1 l1.2,0.7c0,0.3,0.1,0.6,0.2,0.9c0.1,0.4,0.3,0.9,0.4,1.3l-0.8,0.4c0,0,0,0.1,0,0.1l1.4,2.4c0,0,0.1,0.1,0.1,0l0.9-0.5 c0.3,0.3,0.5,0.6,0.8,0.9c0.2,0.2,0.5,0.4,0.7,0.6v1.3c0,0,0,0.1,0.1,0.1l1.9,1.1c0,0,0.1,0,0.1,0V83c0.5,0.2,1,0.2,1.5,0.2 l0.8,1.3c0,0,0.1,0.1,0.1,0l1.4-0.8c0,0,0-0.1,0-0.1l-0.8-1.3c0.3-0.4,0.5-0.8,0.7-1.4l1.1,0.6c0,0,0.1,0,0.1,0v-2.2 C192.9,79.3,192.9,79.2,192.8,79.2z"/><path fill="#E6E7E8" stroke-width=".191" d="M190,78.7c0,1.9-1.3,2.6-2.9,1.7 c-1.6-0.9-2.9-3.2-2.9-5c0-1.9,1.3-2.6,2.9-1.7C188.7,74.6,190,76.8,190,78.7z"/><path stroke-width=".274" d="M188.5,77.9c0,0.9-0.7,1.3-1.5,0.8 c-0.8-0.5-1.5-1.6-1.5-2.5s0.7-1.3,1.5-0.8C187.9,75.8,188.5,77,188.5,77.9z"/></g><path fill="#FFF" stroke="#000" stroke-width=".793" stroke-miterlimit="10" d="M89.8,44.4L30.6,78.7 c-0.8,0.4-1.4,0.1-1.4-0.8v-9.5c0-0.9,0.6-1.9,1.3-2.1c0.2-0.1,0.3-0.1,0.5-0.2l58.6-33.8c0.2-0.1,0.3-0.2,0.5-0.3 c0.7-0.6,1.3-0.2,1.3,0.7V42C91.2,42.9,90.6,44,89.8,44.4z"/><g fill="#F5A722"><path d="M32,67.3l3.8-2.2v1.7l-1.5,0.9v1.7l1.4-0.8v1.7L34.3,71v1.9l1.7-1v1.7L32,76V67.3z"/><path d="M41.8,61.6v8.7l-2,1.2l-1.2-3.3v4l-1.9,1.1v-8.7l1.9-1.1l1.3,3.2v-3.9L41.8,61.6z"/><path d="M48,61.2l-2.3,1.3v-0.8c0-0.5,0-0.8-0.1-0.9c0-0.1-0.1-0.1-0.3,0c-0.1,0.1-0.2,0.2-0.3,0.3 c-0.1,0.1-0.1,0.4-0.1,0.9v4.2c0,0.4,0,0.6,0.1,0.7c0.1,0.1,0.2,0.1,0.3,0c0.2-0.1,0.3-0.2,0.3-0.4c0.1-0.2,0.1-0.5,0.1-0.9v-1 l-0.5,0.3v-1.3l2.7-1.6v4.7l-1.4,0.8l-0.2-0.5c-0.2,0.4-0.4,0.7-0.6,0.9c-0.2,0.3-0.5,0.5-0.8,0.7c-0.4,0.2-0.7,0.3-1.1,0.4 c-0.3,0-0.6-0.1-0.8-0.2c-0.2-0.2-0.3-0.4-0.3-0.7c0-0.3-0.1-0.7-0.1-1.3v-2.6c0-0.8,0-1.5,0.1-1.9c0.1-0.4,0.4-0.9,0.8-1.5 s1-1,1.7-1.4c0.7-0.4,1.2-0.6,1.7-0.6c0.4,0,0.7,0.2,0.9,0.5c0.1,0.3,0.2,0.8,0.2,1.5V61.2z"/><path d="M51.2,56.2v8.7l-2.3,1.3v-8.7L51.2,56.2z"/><path d="M57.2,52.7v8.7l-2,1.2L54,59.3v4l-1.9,1.1v-8.7l1.9-1.1l1.3,3.2v-3.9L57.2,52.7z"/><path d="M58.2,52.2l3.8-2.2v1.7l-1.5,0.9v1.7l1.4-0.8V55l-1.4,0.8v1.9l1.7-1v1.7l-4,2.3V52.2z"/><path d="M62.8,49.5l3.8-2.2V49l-1.5,0.9v1.7l1.4-0.8v1.7l-1.4,0.8v1.9l1.7-1v1.7l-4,2.3V49.5z"/><path d="M67.5,46.8l1.6-0.9c1.1-0.6,1.8-1,2.2-1.2c0.4-0.1,0.7-0.1,0.9,0.1c0.2,0.2,0.4,0.7,0.4,1.4 c0,0.7-0.1,1.2-0.3,1.5c-0.2,0.3-0.5,0.7-1,1c0.5-0.2,0.8-0.2,0.9-0.1c0.2,0.1,0.3,0.2,0.3,0.3c0,0.1,0.1,0.6,0.1,1.3v2.3 l-2.1,1.2v-2.9c0-0.5,0-0.7-0.1-0.8c-0.1-0.1-0.3,0-0.6,0.2v3.9l-2.3,1.3V46.8z M69.8,46.9v1.9c0.3-0.1,0.4-0.3,0.5-0.4 c0.1-0.1,0.2-0.4,0.2-0.8v-0.5c0-0.3-0.1-0.4-0.2-0.5C70.2,46.7,70,46.8,69.8,46.9z"/><path d="M75.8,42v8.7L73.5,52v-8.7L75.8,42z"/><path d="M81.9,38.5v8.7l-2,1.2l-1.2-3.3v4l-1.9,1.1v-8.7l1.9-1.1l1.3,3.2v-3.9L81.9,38.5z"/><path d="M88.1,38.1l-2.3,1.3v-0.8c0-0.5,0-0.8-0.1-0.9c0-0.1-0.1-0.1-0.3,0c-0.1,0.1-0.2,0.2-0.3,0.3 c-0.1,0.1-0.1,0.4-0.1,0.9v4.2c0,0.4,0,0.6,0.1,0.7c0.1,0.1,0.2,0.1,0.3,0c0.2-0.1,0.3-0.2,0.3-0.4c0.1-0.2,0.1-0.5,0.1-0.9v-1 l-0.5,0.3v-1.3l2.7-1.6v4.7l-1.4,0.8l-0.2-0.5c-0.2,0.4-0.4,0.7-0.6,0.9c-0.2,0.3-0.5,0.5-0.8,0.7c-0.4,0.2-0.7,0.3-1.1,0.4 c-0.3,0-0.6-0.1-0.8-0.2c-0.2-0.2-0.3-0.4-0.3-0.7c0-0.3-0.1-0.7-0.1-1.3v-2.6c0-0.8,0-1.5,0.1-1.9c0.1-0.4,0.4-0.9,0.8-1.5 s1-1,1.7-1.4c0.7-0.4,1.2-0.6,1.7-0.6c0.4,0,0.7,0.2,0.9,0.5c0.1,0.3,0.2,0.8,0.2,1.5V38.1z"/></g><path d="M30.9,51.6l3.1-1.8c0.8-0.5,1.5-0.8,1.9-0.9c0.5-0.1,0.8-0.1,1,0c0.2,0.1,0.4,0.3,0.5,0.6c0.1,0.3,0.1,0.8,0.1,1.6v1 c0,0.7-0.1,1.3-0.2,1.8c-0.2,0.4-0.4,0.9-0.9,1.3c-0.4,0.4-1,0.8-1.6,1.2L34,56.8v4.7l-3.1,1.8V51.6z M34,51.8v3 c0.1,0,0.2-0.1,0.2-0.1c0.3-0.2,0.5-0.3,0.6-0.5c0.1-0.2,0.2-0.5,0.2-1v-1c0-0.4-0.1-0.6-0.2-0.7C34.6,51.4,34.4,51.5,34,51.8z"/><path d="M38.4,47.2l2.2-1.3c1.5-0.8,2.5-1.4,3-1.5c0.5-0.2,0.9-0.1,1.3,0.1c0.3,0.3,0.5,0.9,0.5,1.9c0,0.9-0.1,1.6-0.3,2 c-0.2,0.4-0.7,0.9-1.4,1.4c0.6-0.2,1-0.2,1.2-0.1c0.2,0.1,0.3,0.3,0.4,0.5c0.1,0.2,0.1,0.7,0.1,1.7v3.1l-2.9,1.7v-3.9 c0-0.6-0.1-1-0.2-1.1c-0.1-0.1-0.4,0-0.8,0.2v5.3l-3.1,1.8V47.2z M41.5,47.4V50c0.3-0.2,0.6-0.4,0.7-0.6c0.1-0.2,0.2-0.5,0.2-1 v-0.6c0-0.4-0.1-0.6-0.2-0.6C42.1,47.1,41.9,47.2,41.5,47.4z"/><path d="M53.6,45.3c0,1.2,0,2-0.1,2.6c-0.1,0.5-0.2,1.1-0.5,1.6c-0.3,0.6-0.7,1.1-1.2,1.6c-0.5,0.5-1.1,1-1.8,1.3 c-0.6,0.4-1.2,0.6-1.7,0.7c-0.5,0.1-0.9,0-1.2-0.2c-0.3-0.2-0.5-0.6-0.6-1c-0.1-0.4-0.1-1.3-0.1-2.5v-2c0-1.2,0-2,0.1-2.6 c0.1-0.5,0.2-1.1,0.5-1.6c0.3-0.6,0.7-1.1,1.2-1.6c0.5-0.5,1.1-1,1.8-1.3c0.6-0.4,1.2-0.6,1.7-0.7c0.5-0.1,0.9,0,1.2,0.2 c0.3,0.2,0.5,0.6,0.6,1c0.1,0.4,0.1,1.3,0.1,2.5V45.3z M50.5,43.2c0-0.5,0-0.9-0.1-1c-0.1-0.1-0.2-0.1-0.4,0 c-0.2,0.1-0.3,0.2-0.4,0.4c-0.1,0.2-0.1,0.6-0.1,1.2v5.5c0,0.7,0,1.1,0.1,1.2c0.1,0.1,0.2,0.1,0.4,0c0.2-0.1,0.3-0.3,0.4-0.5 c0.1-0.2,0.1-0.7,0.1-1.4V43.2z"/><path d="M54.8,37.7l5.2-3v2.3l-2.1,1.2v2.2l1.9-1.1v2.2l-1.9,1.1v4.9l-3.1,1.8V37.7z"/><path d="M67,30.7V33l-1.8,1.1v9.4l-3.1,1.8v-9.4l-1.8,1.1v-2.3L67,30.7z"/><path d="M67.7,30.3l5.2-3v2.3l-2.1,1.2V33l1.9-1.1v2.2l-1.9,1.1v2.6l2.3-1.3v2.3L67.7,42V30.3z"/><path d="M81.2,27.6l-3.1,1.8v-2c0-0.6,0-0.9-0.1-1.1c-0.1-0.1-0.2-0.1-0.4,0c-0.3,0.1-0.4,0.3-0.5,0.5C77,27.1,77,27.5,77,28.1 v5.4c0,0.6,0,0.9,0.1,1.1c0.1,0.1,0.2,0.1,0.5,0c0.2-0.1,0.4-0.3,0.5-0.5c0.1-0.2,0.1-0.6,0.1-1.3v-1.5l3.1-1.8V30 c0,1.2-0.1,2.1-0.3,2.7c-0.2,0.6-0.6,1.3-1.2,2c-0.6,0.7-1.3,1.3-2.2,1.8c-0.9,0.5-1.7,0.8-2.2,0.8c-0.6,0-1-0.2-1.2-0.7 c-0.2-0.5-0.3-1.3-0.3-2.4v-3.4c0-0.8,0-1.5,0.1-2c0.1-0.5,0.2-1,0.5-1.5c0.3-0.6,0.7-1.1,1.2-1.6c0.5-0.5,1.1-1,1.8-1.4 c0.9-0.5,1.7-0.8,2.3-0.8c0.6,0,1,0.2,1.2,0.6c0.2,0.4,0.3,1.2,0.3,2.3V27.6z"/><path d="M89.5,17.7v11.7l-3.1,1.8v-4.9l-0.9,0.5v4.9l-3.1,1.8V21.8l3.1-1.8v4.2l0.9-0.5v-4.2L89.5,17.7z"/><g stroke="#000" stroke-miterlimit="10"><path stroke-width=".274" d="M225.9,116.5l-1.1-0.6c0-0.3-0.1-0.6-0.2-1 c-0.1-0.4-0.2-0.8-0.4-1.2l0.7-0.4c0,0,0-0.1,0-0.1l-1.4-2.4c0,0-0.1-0.1-0.1,0l-0.7,0.4c-0.3-0.3-0.6-0.7-0.9-1 c-0.2-0.2-0.5-0.4-0.7-0.6v-1.2c0,0,0-0.1-0.1-0.1l-1.9-1.1c0,0-0.1,0-0.1,0v1.2c-0.6-0.2-1.1-0.2-1.6-0.2l-0.8-1.4 c0,0-0.1-0.1-0.1,0l-1.3,0.8c0,0,0,0.1,0,0.1l0.8,1.3c-0.3,0.4-0.5,0.8-0.6,1.4l-1.2-0.7c0,0-0.1,0-0.1,0v2.2c0,0,0,0.1,0.1,0.1 l1.2,0.7c0,0.3,0.1,0.6,0.2,0.9c0.1,0.4,0.3,0.9,0.4,1.3l-0.8,0.4c0,0,0,0.1,0,0.1l1.4,2.4c0,0,0.1,0.1,0.1,0l0.9-0.5 c0.3,0.3,0.5,0.6,0.8,0.9c0.2,0.2,0.5,0.4,0.7,0.6v1.3c0,0,0,0.1,0.1,0.1l1.9,1.1c0,0,0.1,0,0.1,0v-1.3c0.5,0.2,1,0.2,1.5,0.2 l0.8,1.3c0,0,0.1,0.1,0.1,0l1.4-0.8c0,0,0-0.1,0-0.1l-0.8-1.3c0.3-0.4,0.5-0.8,0.7-1.4l1.1,0.6c0,0,0.1,0,0.1,0v-2.2 C225.9,116.6,225.9,116.5,225.9,116.5z"/><path fill="#E6E7E8" stroke-width=".191" d="M223,116c0,1.9-1.3,2.6-2.9,1.7 c-1.6-0.9-2.9-3.2-2.9-5c0-1.9,1.3-2.6,2.9-1.7C221.7,111.9,223,114.1,223,116z"/><path stroke-width=".274" d="M221.5,115.2c0,0.9-0.7,1.3-1.5,0.8 c-0.8-0.5-1.5-1.6-1.5-2.5c0-0.9,0.7-1.3,1.5-0.8C220.9,113.1,221.5,114.3,221.5,115.2z"/></g></svg>