<svg xmlns="http://www.w3.org/2000/svg" viewBox="0 0 283.5 283.5" id="livingBuilding"><path fill="#D1D3D4" stroke="#939598" stroke-width="1.623" stroke-miterlimit="10" d="M277.3,145.1l-98.2-55.6 c-2-1.1-4.4-1.1-6.4,0L13.1,181.2c-4.3,2.5-4.3,8.8,0,11.2l98.1,55.8c2,1.1,4.4,1.1,6.4,0l159.6-91.9 C281.7,153.8,281.7,147.5,277.3,145.1z"/><path fill="#FCBC56" stroke="#5B5755" stroke-width="1.216" stroke-miterlimit="10" d="M76.3,188.8v-35.6l-56.4-33.3 c-0.1,0-0.1,0-0.1,0.1l0,36.2L76.3,188.8z"/><path fill="#FCBC56" d="M76.4,189.3c-0.4,0-0.7-0.3-0.7-0.7v-35.7l87.3-50.6l0.2,0c0.4,0,0.7,0.3,0.7,0.7v35.7l-87.2,50.7 L76.4,189.3z"/><path fill="#5B5755" d="M163.2,102.9C163.2,102.9,163.2,102.9,163.2,102.9l0.1,35.4L119,164l-7.8,4.5l-6.4,3.7l-28.3,16.4 c0,0,0,0-0.1,0c-0.1,0-0.1,0-0.1-0.1v-35.4l58.5-34l6.4-3.7L163.2,102.9C163.1,102.9,163.1,102.9,163.2,102.9 M163.2,101.7h-0.3 l-0.3,0.2l-21.9,12.7l-6.4,3.7l-58.5,34l-0.6,0.4v0.7v35.4c0,0.7,0.6,1.3,1.3,1.3c0.2,0,0.5-0.1,0.7-0.2l28.3-16.5l6.4-3.7 l7.8-4.5l44.2-25.7l0.6-0.4v-0.7v-35.4C164.4,102.2,163.9,101.7,163.2,101.7L163.2,101.7z"/><path fill="#FCBC56" stroke="#5B5755" stroke-width="1.216" stroke-miterlimit="10" d="M194.8,120.7v35.1c0,0.2,0.2,0.3,0.3,0.2 l56.4-32.3l0-35.8L194.8,120.7z"/><path fill="#F37E23" stroke="#5B5755" stroke-width="1.216" stroke-miterlimit="10" d="M30.1,186.2l0-24l56.5,32.6l0,23.9 c0,0.1-0.1,0.1-0.1,0.1L30.1,186.2z"/><path fill="#FCBC56" stroke="#5B5755" stroke-width="1.216" stroke-miterlimit="10" d="M163.8 150.8l-77.2 44.1 0 23.9c0 .1.1.1.2.1l77.2-44.5v-23.4C164 150.8 163.9 150.7 163.8 150.8zM194.8 168.5l5 26c0 .1.2.2.3.1l77.1-44-5.1-27.1c0 0 0 0-.1 0L194.8 168.5z"/><path fill="#F7923F" stroke="#5B5755" stroke-width="1.216" stroke-miterlimit="10" d="M163.1 102.9L194.8 120.7 194.8 156.2 163.2 138.3zM164 174.3l35.7 20.5c0 0 .1 0 .1-.1l-5-26.2-30.6-17.8c-.1 0-.2 0-.2.1V174.3z"/><path fill="none" stroke="#696A6A" stroke-width="1.216" stroke-miterlimit="10" d="M163.2 132.7L194.8 150.7 194.8 126.8 163.2 108.6z"/><path fill="#FFD998" stroke="#5B5755" stroke-width="1.216" stroke-miterlimit="10" d="M251.6,112l20.2,11.3 c0.1,0.1,0.1,0.3,0,0.3l-77,44.9L164,150.7l-77.3,44.2l-10.4-6l86.9-50.5l31.6,17.9l56.8-32.5V112z"/><path fill="#E2E2E1" stroke="#555655" stroke-width="1.216" stroke-miterlimit="10" d="M81.3 156.3L81.3 180 163.2 132.7 194.8 150.7 246.2 120.7 246.2 97 194.8 126.8 163.2 108.6zM205.1 174.1l25.7-14.4c0 0 .1 0 .1 0l.1 11.3-25.7 15c-.1 0-.1 0-.1-.1V174.1zM272 147.1l-12.1 7-6.1 3.6-5.1 2.9-2.5 1.4c0 0 0 0 0 0v-11.9l12.4-7 5-2.8 6-3.4h0l2.2-1.2c.1 0 .1 0 .1.1L272 147.1z"/><path opacity=".2" fill="#231F20" stroke="#231F20" stroke-width="1.216" stroke-miterlimit="10" d="M163.7 102.9L194.3 120.7 194.3 156.2 163.8 138.3z"/><path fill="#FFD998" stroke="#5B5755" stroke-width="1.216" stroke-miterlimit="10" d="M225.7,156.2l-25.9,14.9c0,0,0,0,0,0 l5.3,2.9l25.7-14.4c0,0,0-0.1,0-0.1L225.7,156.2z"/><path fill="#F7923F" stroke="#5B5755" stroke-width="1.216" stroke-miterlimit="10" d="M199.9,171.3l5.2,14.7c0,0,0,0,0,0v-11.9 L199.9,171.3C199.9,171.2,199.8,171.2,199.9,171.3z"/><path fill="#FFD998" stroke="#5B5755" stroke-width="1.216" stroke-miterlimit="10" d="M251.6 87.9l-88.1-50.5L19.9 119.8c-.1 0-.1.1 0 .2l56.4 33.3 86.9-50.4 31.6 17.9L251.6 87.9zM241.6 147.7l4.6 2.4 25.7-14.4c0 0 0 0 0 0l-5-3-25.4 14.7C241.5 147.5 241.5 147.6 241.6 147.7z"/><path fill="#F7923F" stroke="#5B5755" stroke-width="1.216" stroke-miterlimit="10" d="M246,161.6l-4.6-14c0,0,0-0.1,0.1-0.1 l4.7,2.5v11.5C246.2,161.7,246.1,161.7,246,161.6z"/><path fill="none" stroke="#696A6A" stroke-width="1.216" stroke-miterlimit="10" d="M50.2 114.9L86.6 135.7 122.2 114.9 86.6 94.1z"/><path fill="#BCBEC0" stroke="#696A6A" stroke-width="1.216" stroke-miterlimit="10" d="M50.6 114.9L86.5 99.8 86.6 135.7z"/><path opacity=".4" fill="#BCBEC0" stroke="#696A6A" stroke-width="1.216" stroke-miterlimit="10" d="M122.2 114.9L86.6 135.7 86.6 99.6z"/><path opacity=".5" fill="#A7A9AC" stroke="#696A6A" stroke-width="1.216" stroke-miterlimit="10" d="M86.6,94.4l0,5.3l-36.5,15.1 l36.2-20.6C86.5,94.2,86.6,94.3,86.6,94.4z"/><path opacity=".5" fill="#D1D3D4" stroke="#696A6A" stroke-width="1.216" stroke-miterlimit="10" d="M86.6,99.8l35.6,15.1 L86.8,94.2c-0.1,0-0.2,0-0.2,0.1L86.6,99.8z"/><path opacity=".2" fill="none" stroke="#696A6A" stroke-width="1.216" stroke-miterlimit="10" d="M55.3 117.6L86.6 99.8 117.4 117.8 122.2 114.9 86.6 94.1 50.2 114.9z"/><path d="M95.3 90.8l4-2.3c1.1-.6 2-1.1 2.7-1.3.7-.3 1.4-.4 1.9-.4.6 0 1.1.1 1.6.2.5.2 1.1.5 1.9.9l1.1.6c.8.5 1.3.9 1.5 1.2.2.3.1.7-.2 1.1-.3.4-.9.9-1.8 1.4l-1.1.6 5.2 3-3.9 2.3L95.3 90.8zM101.4 89.8l3.3 1.9c.1-.1.2-.1.3-.2.4-.2.5-.4.5-.6 0-.2-.3-.4-.7-.7l-1.1-.6c-.4-.3-.8-.4-1.1-.4C102.3 89.4 101.9 89.5 101.4 89.8zM104.9 85.3l2.8-1.6c1.9-1.1 3.2-1.8 4-2.1.8-.3 1.6-.4 2.5-.4.9.1 1.9.4 3 1 1 .6 1.5 1.1 1.6 1.4.1.4-.3.8-1.1 1.4.9-.4 1.7-.5 2.2-.5.5 0 1 .1 1.3.2.3.1 1 .4 2 1l3.4 2-3.7 2.1-4.3-2.5c-.7-.4-1.2-.6-1.5-.6-.3 0-.7.1-1.3.4l5.8 3.4-3.9 2.3L104.9 85.3zM111 84.3l2.9 1.7c.4-.3.7-.5.8-.6.1-.2-.2-.4-.7-.7l-.7-.4c-.4-.2-.8-.3-1.1-.3C111.8 83.9 111.5 84 111 84.3zM131.7 78.5c1.3.7 2.2 1.3 2.6 1.7.5.4.7.8.8 1.2.1.5-.1 1-.5 1.5-.4.5-1 1-1.9 1.5-.8.5-1.7.8-2.5 1.1-.9.2-1.7.3-2.6.3-.8 0-1.6-.2-2.2-.4-.6-.3-1.6-.8-2.9-1.5l-2.2-1.3c-1.3-.7-2.2-1.3-2.6-1.7-.5-.4-.7-.8-.8-1.2-.1-.5.1-1 .5-1.5.4-.5 1-1 1.9-1.5.8-.5 1.7-.8 2.5-1.1.9-.2 1.7-.3 2.6-.3.8 0 1.6.2 2.2.4.6.3 1.6.8 2.9 1.5L131.7 78.5zM123.6 78.3c-.6-.3-1-.5-1.3-.6-.2-.1-.5 0-.7.1-.2.1-.3.2-.3.4 0 .1.4.4 1 .8l6 3.5c.7.4 1.2.7 1.5.7.2.1.5 0 .8-.1.3-.2.3-.3.2-.5-.1-.2-.6-.5-1.3-.9L123.6 78.3zM125.7 73.3l6.7-3.9 2.6 1.5-2.7 1.6 2.4 1.4 2.4-1.4 2.5 1.4-2.4 1.4 5.4 3.1-3.9 2.3L125.7 73.3zM141.2 64.3l2.6 1.5-2.3 1.3 10.3 6-3.9 2.3-10.3-6-2.3 1.3-2.6-1.5L141.2 64.3zM142.1 63.8l6.6-3.8 2.6 1.5-2.6 1.5 2.4 1.4 2.5-1.4 2.5 1.4-2.5 1.4 2.8 1.6 2.9-1.7 2.6 1.5-6.8 3.9L142.1 63.8zM164.9 57.1l-3.9 2.3-2.2-1.3c-.7-.4-1.1-.6-1.3-.6-.2 0-.5 0-.8.2-.3.2-.4.4-.3.5.1.2.5.4 1.1.8l6 3.5c.6.4 1.1.6 1.4.6.3.1.6 0 .9-.2.3-.2.4-.3.3-.5-.1-.2-.5-.4-1.2-.9l-1.6-.9 3.9-2.3.5.3c1.3.8 2.2 1.4 2.5 1.8.3.5.3 1 0 1.7-.3.7-1.1 1.3-2.2 2-1.2.7-2.3 1.1-3.4 1.3-1.1.2-2.1.2-3 0s-1.9-.7-3.2-1.4l-3.8-2.2c-.9-.5-1.6-1-2-1.3-.4-.3-.6-.7-.7-1.2-.1-.5.1-1 .5-1.5.4-.5 1-1 1.9-1.5 1.2-.7 2.3-1.1 3.4-1.3 1.1-.2 2.1-.2 2.9 0 .8.2 1.8.6 3 1.3L164.9 57.1zM169.7 47.9l12.9 7.4-3.9 2.3-5.4-3.1-1.2.7 5.4 3.1-3.9 2.3-12.9-7.4 3.9-2.3 4.6 2.7 1.2-.7-4.6-2.7L169.7 47.9z"/><g><path fill="#FFF" stroke="#000" stroke-width=".969" stroke-miterlimit="10" d="M201.5,67.8l-72.4,41.8 c-0.9,0.5-2.5,0.5-3.5,0l-10-5.8c-0.9-0.5-1-1.3,0.1-1.7c0.2-0.1,0.4-0.2,0.6-0.3l71.6-41.4c0.2-0.1,0.4-0.2,0.5-0.4 c0.7-0.6,2.1-0.6,3,0l10,5.8C202.4,66.3,202.4,67.2,201.5,67.8z"/><g fill="#F5A722"><path d="M120 101.9l4.7-2.7 1.8 1.1-1.9 1.1 1.7 1 1.8-1 1.8 1-1.8 1 2 1.2 2.1-1.2 1.8 1.1-4.9 2.8L120 101.9zM131.9 94.9l9.2 5.3-2.5 1.4-5.7-1.6 4.2 2.4-2.4 1.4-9.2-5.3 2.4-1.4 5.7 1.5-4.1-2.4L131.9 94.9zM142.9 92.5l-2.8 1.6-.8-.5c-.5-.3-.9-.5-1.1-.5-.2 0-.4 0-.6.1-.2.1-.2.2-.2.3.1.1.3.3.8.6l4.4 2.6c.4.2.7.4.9.4.2 0 .4 0 .6-.1.2-.1.3-.2.2-.4-.1-.1-.3-.3-.8-.6l-1.1-.6-.6.3-1.4-.8 3.3-1.9 4.9 2.9-1.8 1-.9-.2c.1.3.1.5-.1.8-.1.3-.4.5-.8.7-.5.3-1 .5-1.6.6-.6.1-1.2.2-1.7.1-.5 0-.9-.1-1.3-.3-.4-.2-.9-.4-1.5-.8l-2.7-1.6c-.9-.5-1.5-.9-1.8-1.2-.3-.3-.3-.7-.1-1.2.2-.5.7-1 1.5-1.5.8-.5 1.7-.8 2.5-.9.8-.1 1.5-.2 2.1 0 .6.1 1.2.4 2 .9L142.9 92.5zM143.4 88.3l9.2 5.3-2.8 1.6-9.2-5.3L143.4 88.3zM150.8 84l9.2 5.3-2.5 1.4-5.7-1.6 4.2 2.4-2.4 1.4-9.2-5.3 2.4-1.4 5.7 1.5-4.1-2.4L150.8 84zM152 83.4l4.7-2.7 1.8 1.1-1.9 1.1 1.7 1 1.8-1 1.8 1-1.8 1 2 1.2 2.1-1.2 1.8 1.1-4.9 2.8L152 83.4zM157.7 80.1l4.7-2.7 1.8 1.1-1.9 1.1 1.7 1 1.8-1 1.8 1-1.8 1 2 1.2 2.1-1.2 1.8 1.1-4.9 2.8L157.7 80.1zM163.3 76.8l2-1.1c1.3-.8 2.3-1.3 2.8-1.5.6-.2 1.2-.3 1.8-.3.7 0 1.4.3 2.2.7.7.4 1.1.8 1.1 1 0 .3-.2.6-.8 1 .7-.3 1.2-.4 1.6-.4.4 0 .7 0 .9.1.2.1.7.3 1.4.7l2.4 1.4-2.6 1.5-3.1-1.8c-.5-.3-.8-.4-1.1-.4-.2 0-.5.1-.9.3l4.2 2.4-2.8 1.6L163.3 76.8zM167.7 76.1l2 1.2c.3-.2.5-.3.6-.4.1-.1-.1-.3-.5-.5l-.5-.3c-.3-.2-.5-.2-.8-.2C168.3 75.8 168.1 75.9 167.7 76.1zM173.5 70.9l9.2 5.3-2.8 1.6-9.2-5.3L173.5 70.9zM180.9 66.7l9.2 5.3-2.5 1.4-5.7-1.6 4.2 2.4-2.4 1.4-9.2-5.3 2.4-1.4 5.7 1.5-4.1-2.4L180.9 66.7zM191.9 64.2l-2.8 1.6-.8-.5c-.5-.3-.9-.5-1.1-.5-.2 0-.4 0-.6.1-.2.1-.2.2-.2.3.1.1.3.3.8.6l4.4 2.6c.4.2.7.4.9.4.2 0 .4 0 .6-.1.2-.1.3-.2.2-.4-.1-.1-.3-.3-.8-.6l-1.1-.6-.6.3-1.4-.8 3.3-1.9 4.9 2.9-1.8 1-.9-.2c.1.3.1.5-.1.8-.1.3-.4.5-.8.7-.5.3-1 .5-1.6.6-.6.1-1.2.2-1.7.1-.5 0-.9-.1-1.3-.3-.4-.2-.9-.4-1.5-.8l-2.7-1.6c-.9-.5-1.5-.9-1.8-1.2-.3-.3-.3-.7-.1-1.2s.7-1 1.5-1.5c.8-.5 1.7-.8 2.5-.9.8-.1 1.5-.2 2.1 0 .6.1 1.2.4 2 .9L191.9 64.2z"/></g></g><g stroke="#000" stroke-miterlimit="10"><path stroke-width=".771" d="M216.6,80.4l-3,1.7c-0.8-0.3-1.7-0.6-2.6-0.9 c-1.2-0.3-2.4-0.6-3.6-0.7l0-2.3c0-0.1-0.1-0.1-0.2-0.1l-7.7,0c-0.1,0-0.2,0.1-0.2,0.1l0,2.3c-1.2,0.2-2.4,0.4-3.6,0.7 c-0.9,0.2-1.7,0.5-2.5,0.8l-3-1.7c-0.1-0.1-0.2-0.1-0.3,0l-5.5,3.1c-0.1,0.1-0.1,0.1,0,0.2l3,1.7c-1.3,1.1-2.1,2.4-2.6,3.6 l-4.4,0.1c-0.1,0-0.2,0.1-0.2,0.1l0.1,4.5c0,0.1,0.1,0.1,0.2,0.1l4.3-0.1c0.5,1.2,1.3,2.4,2.5,3.5l-3.3,1.9 c-0.1,0.1-0.1,0.1,0,0.2l5.4,3.1c0.1,0.1,0.2,0.1,0.3,0l3.4-1.9c0.7,0.3,1.5,0.5,2.4,0.8c1.2,0.3,2.5,0.6,3.8,0.7l-0.1,2.6 c0,0.1,0.1,0.1,0.2,0.1l7.7,0.1c0.1,0,0.2-0.1,0.2-0.1l0.1-2.7c1.2-0.2,2.3-0.4,3.4-0.7c0.9-0.2,1.7-0.5,2.5-0.8l3.2,1.9 c0.1,0.1,0.2,0.1,0.3,0l5.5-3.1c0.1-0.1,0.1-0.1,0-0.2l-3.2-1.9c1.2-1.1,2-2.2,2.5-3.4l4.4,0c0.1,0,0.2-0.1,0.2-0.1 c0,0,0-4.6-0.2-4.6l-4.3,0c-0.4-1.2-1.3-2.4-2.5-3.5l3.1-1.8c0.1-0.1,0.1-0.1,0-0.2l-5.4-3.1C216.9,80.4,216.7,80.4,216.6,80.4z"/><path fill="#E6E7E8" stroke-width=".536" d="M211.4,86.7c4.5,2.6,4.5,6.8-0.1,9.5 c-4.5,2.6-11.9,2.6-16.4,0c-4.5-2.6-4.5-6.8,0.1-9.5C199.6,84.1,206.9,84,211.4,86.7z"/><path stroke-width=".771" d="M207.4,89.1c2.2,1.3,2.2,3.4,0,4.7 c-2.3,1.3-5.9,1.3-8.2,0c-2.2-1.3-2.2-3.4,0-4.7C201.5,87.8,205.1,87.8,207.4,89.1z"/></g></svg>