<svg xmlns="http://www.w3.org/2000/svg" viewBox="0 0 283.5 283.5" id="lowVoltageWorks"><path fill="#BCBEC0" stroke="#6D6E71" stroke-width="1.421" stroke-miterlimit="10" d="M82.5,10.2l112.7,64.5v199.9 c0,0.5-0.5,0.8-0.9,0.5L81.9,210.5l0.4-200.1C82.2,10.2,82.4,10.2,82.5,10.2z"/><path fill="#D1D3D4" stroke="#545453" stroke-width="1.62" stroke-linecap="round" stroke-miterlimit="10" d="M98.1,31.9 l80.5,46.5c1.3,0.7,2.1,2.1,2.1,3.6v163.2c0,1.5-1.6,2.4-2.9,1.7L94,198.2c-1.3-0.7-2.1-2.1-2.1-3.6V35.5 C91.9,32.3,95.3,30.3,98.1,31.9z"/><path fill="#FFDA99" stroke="#545453" stroke-width="1.441" stroke-miterlimit="10" d="M121.3,139c-0.5-0.3-1.1-0.3-1.6,0l-7,3.9 c-0.1,0.1-0.1,0.2,0,0.2l51.3,29.2l7.2-4.3c0.1,0,0-0.1,0-0.1L121.3,139z"/><path fill="#F7923F" stroke="#545453" stroke-width="1.441" stroke-miterlimit="10" d="M164.2,207.5l7.1-4.2c0,0,0.1-0.1,0.1-0.1 v-35.1c0-0.1-0.1-0.1-0.1-0.1l-7.2,4.3v35.1C164,207.5,164.1,207.6,164.2,207.5z"/><path fill="#FFDA99" stroke="#545453" stroke-width="1.441" stroke-miterlimit="10" d="M121.3,65.4c-0.5-0.3-1.1-0.3-1.6,0l-7,3.9 c-0.1,0.1-0.1,0.2,0,0.2l51.3,29.2l7.2-4.3c0.1,0,0-0.1,0-0.1L121.3,65.4z"/><path fill="#F7923F" stroke="#545453" stroke-width="1.441" stroke-miterlimit="10" d="M164.1,134l7.1-4.2c0,0,0.1-0.1,0.1-0.1 V94.5c0-0.1-0.1-0.1-0.1-0.1l-7.2,4.3v35.1C163.9,133.9,164,134,164.1,134z"/><path fill="#A7A9AC" stroke="#545453" stroke-width="1.62" stroke-linecap="round" stroke-miterlimit="10" d="M98.1,31.9l8.6,5v149 c0,1.5,0.8,2.8,2.1,3.6l71.9,41.8v13.9c0,1.5-1.6,2.4-2.9,1.7L94,198.2c-1.3-0.7-2.1-2.1-2.1-3.6V35.5 C91.9,32.3,95.3,30.3,98.1,31.9z"/><path fill="none" stroke="#545453" stroke-width="1.62" stroke-linecap="round" stroke-miterlimit="10" d="M106.7,187.3 c0.3,0.9,1,1.7,1.8,2.2l71.9,41.8v13.9c0,1.5-1.6,2.4-2.9,1.7l-83.8-48.7c-0.9-0.5-1.6-1.4-1.9-2.4L106.7,187.3z"/><path fill="none" stroke="#545453" stroke-width=".519" stroke-linecap="round" stroke-miterlimit="10" d="M141.9 211.2c2 1.2 2 3 0 4.2-2 1.2-5.3 1.2-7.2 0-2-1.2-2-3 0-4.2C136.6 210 139.9 210 141.9 211.2zM126.8 203.5c2 1.2 2 3 0 4.2-2 1.2-5.3 1.2-7.2 0-2-1.2-2-3 0-4.2S124.8 202.3 126.8 203.5zM154.8 219.3c2 1.2 2 3 0 4.2-2 1.2-5.3 1.2-7.2 0-2-1.2-2-3 0-4.2C149.6 218.2 152.9 218.2 154.8 219.3z"/><path fill="none" stroke="#939598" stroke-width="1.62" stroke-linecap="round" stroke-miterlimit="10" d="M119.6 176.7c0 0-.5 16.7 2.6 30.9M126 180.2c0 0-.2 23.6-1.7 27.3M135 184.3c0 0-2 19.2 2 31.3M138.2 215.5c0 0 3.5-10.2 3.7-26.5"/><path fill="none" stroke="#545453" stroke-width="1.62" stroke-linecap="round" stroke-miterlimit="10" d="M149.7,192.8 c0,0-10.8,4.3-0.4,30.8"/><path fill="none" stroke="#6D6E71" stroke-width="1.441" stroke-linecap="round" stroke-miterlimit="10" d="M134.2,113.2v21.2 c0,1.9-2.1,3.1-3.7,2.2l-24.2-13.5c-1.7-0.9-3.8,0.3-3.8,2.2l-0.1,64.6c0,1.8,0.9,3.4,2.4,4.4l17.2,13.3c0.1,0,0,0.1-0.1,0.1 l-20.3-13.6c-1-0.6-1.6-1.6-1.6-2.7l-0.3-74.3c0-2,2.1-3.2,3.8-2.2l12.5,7.1c1.7,1,3.8-0.3,3.7-2.2l-0.1-16.5"/><path fill="none" stroke="#6D6E71" stroke-width="1.441" stroke-linecap="round" stroke-miterlimit="10" d="M152.5,122.4v26.4 c0,1.9-2.1,3.1-3.7,2.2l-35.3-20.1c-1.7-1-3.8,0.3-3.8,2.2l0,54.8c0,2.5,1,4.8,2.7,6.6l11.4,13.4"/><path fill="none" stroke="#939598" stroke-width="1.62" stroke-linecap="round" stroke-miterlimit="10" d="M164,168v-9.2 c0-1.5,1.6-2.4,2.9-1.6l5.3,3.2c1.8,1.1,2.9,3,2.9,5.1v65.3c0,1.6-1.7,2.6-3.1,1.8l-17.8-9.7"/><path fill="none" stroke="#939598" stroke-width="1.62" stroke-linecap="round" stroke-miterlimit="10" d="M156.9 163.7v-15.3c0-1.5 1.6-2.4 2.8-1.6l15.2 8.9c1.8 1.1 2.9 3 2.9 5.1l-.4 75.1c0 1.6-1.8 2.6-3.2 1.8l-22.1-13.8M118.7 76.1l-6.6-3.8c-1.5-.9-2.4-2.4-2.4-4.1V60c0-2.4 2.6-3.8 4.6-2.6l42.1 24.5c1 .6 2.3-.1 2.3-1.3V66.9"/><path fill="none" stroke="#939598" stroke-width="1.62" stroke-linecap="round" stroke-miterlimit="10" d="M118.2,87.6l-10.9-6.2 c-1.5-0.9-2.4-2.4-2.4-4.2V53.5c0-2.3,2.5-3.8,4.6-2.6L154,76.6c1,0.6,2.3-0.1,2.3-1.3v-9.6"/><path fill="none" stroke="#939598" stroke-width="1.62" stroke-linecap="round" stroke-miterlimit="10" d="M119.4,98.7l-15.5-8.4 c-1.5-0.8-2.5-2.5-2.5-4.2V46.4c0-2.3,2.5-3.8,4.6-2.7l43.7,24.9c1,0.6,2.3-0.2,2.3-1.3v-4.2"/><path fill="#FDBD56" stroke="#545453" stroke-width="1.441" stroke-miterlimit="10" d="M112.7 69.5l51.3 29.2v35.1c0 .1-.1.2-.2.1l-51.3-29.4V69.7C112.5 69.6 112.6 69.5 112.7 69.5zM112.7 143.1l51.3 29.2v35.1c0 .1-.1.2-.2.1l-51.3-29.4v-34.9C112.5 143.2 112.6 143.1 112.7 143.1z"/><path fill="#FFDA99" stroke="#6D6E71" stroke-width="1.441" stroke-linecap="round" stroke-miterlimit="10" d="M160.6 92.5L160.6 68M164.3 94.4L164.3 71"/><path d="M115 74.7l2.4 1.4c.7.4 1.2.7 1.5 1 .4.3.6.6.8.9s.3.6.4.9c.1.3.1.8.1 1.3v.8c0 .6-.1 1-.2 1.2-.1.2-.3.3-.7.2-.3 0-.8-.2-1.3-.5l-.7-.4v3.7l-2.4-1.4V74.7zM117.5 77.7V80c.1 0 .1.1.2.1.2.1.4.2.5.1.1-.1.1-.3.1-.6v-.8c0-.3 0-.5-.1-.7C118 78 117.8 77.8 117.5 77.7zM121 78.1l1.7 1c1.1.7 1.9 1.2 2.3 1.5.4.3.7.7 1 1.2.3.5.4 1.1.4 1.9 0 .7-.1 1.1-.3 1.3-.2.1-.5.1-1.1-.2.5.4.8.7 1 1 .2.3.3.5.3.7 0 .2.1.7.1 1.4v2.4l-2.3-1.3v-3.1c0-.5 0-.8-.1-1-.1-.2-.3-.3-.6-.5v4.1l-2.4-1.4V78.1zM123.4 81.1v2c.3.2.5.2.6.2.1 0 .2-.2.2-.6v-.5c0-.3-.1-.5-.2-.7C123.9 81.4 123.7 81.3 123.4 81.1zM132.9 90.4c0 .9 0 1.6-.1 1.9 0 .4-.2.6-.4.8-.2.2-.5.2-.9.2-.4-.1-.9-.2-1.4-.5-.5-.3-.9-.6-1.3-1-.4-.4-.7-.8-1-1.3-.2-.5-.4-.9-.4-1.3 0-.4-.1-1.1-.1-2v-1.6c0-.9 0-1.6.1-1.9 0-.4.2-.6.4-.8.2-.2.5-.2.9-.2.4.1.9.2 1.4.5.5.3.9.6 1.3 1 .4.4.7.8 1 1.3.2.5.4.9.4 1.3 0 .4.1 1.1.1 2V90.4zM130.4 85.9c0-.4 0-.7-.1-.9 0-.1-.1-.3-.3-.4-.1-.1-.2-.1-.3 0-.1.1-.1.3-.1.8v4.3c0 .5 0 .9.1 1 0 .2.1.3.3.4.2.1.3.1.3 0 0-.1.1-.4.1-1V85.9zM133.8 85.5l4.1 2.4v1.8l-1.7-1v1.7l1.5.9v1.7l-1.5-.9v3.9l-2.4-1.4V85.5zM143.4 91.1v1.8l-1.4-.8v7.3l-2.4-1.4v-7.3l-1.4-.8V88L143.4 91.1zM143.9 91.4l4 2.3v1.8l-1.6-.9v1.7l1.5.9V99l-1.5-.9v2l1.8 1v1.8l-4.2-2.4V91.4zM154.5 101.5l-2.4-1.4v-1.6c0-.5 0-.8-.1-.9-.1-.1-.2-.3-.3-.4-.2-.1-.3-.1-.4 0-.1.1-.1.4-.1.9v4.3c0 .4 0 .8.1.9.1.2.2.3.4.4.2.1.3.1.4 0 .1-.1.1-.4.1-.9v-1.2l2.4 1.4v.4c0 1-.1 1.6-.2 1.9-.1.3-.4.5-.9.5-.5 0-1-.2-1.7-.5-.7-.4-1.3-.9-1.8-1.4-.5-.5-.8-1-.9-1.6-.1-.5-.2-1.3-.2-2.2v-2.7c0-.7 0-1.1.1-1.4 0-.3.2-.5.4-.7.2-.2.5-.2 1-.2.4.1.9.2 1.4.5.7.4 1.3.9 1.8 1.4.5.5.8 1.1.9 1.5.1.5.2 1.2.2 2V101.5zM160.9 101.2v9.2l-2.4-1.4v-3.9l-.7-.4v3.9l-2.4-1.4V98l2.4 1.4v3.3l.7.4v-3.3L160.9 101.2z"/><g><path fill="#FFF" stroke="#000" stroke-width=".568" stroke-miterlimit="10" d="M159.1,125l-44.3-25.6 c-0.6-0.3-1-1.2-1-1.8v-7.1c0-0.6,0.4-0.9,0.9-0.5c0.1,0.1,0.2,0.2,0.3,0.2l43.8,25.3c0.1,0.1,0.2,0.1,0.3,0.2 c0.5,0.2,0.9,0.9,0.9,1.6v7.1C160.1,125.1,159.7,125.4,159.1,125z"/><g fill="#F5A722"><path d="M115.6 92l2.9 1.7V95l-1.1-.7v1.2l1.1.6v1.2l-1.1-.6v1.4l1.3.7v1.3l-3-1.7V92zM122.9 96.3v6.5l-1.5-.9-.9-3.5v3l-1.4-.8V94l1.4.8 1 3.5v-2.9L122.9 96.3zM127.5 101.3l-1.7-1v-.6c0-.4 0-.6 0-.7 0-.1-.1-.2-.2-.3-.1-.1-.2-.1-.2 0 0 .1-.1.3-.1.6v3.1c0 .3 0 .5.1.6 0 .1.1.2.2.3.1.1.2.1.3 0 0-.1.1-.3.1-.6V102l-.3-.2v-1l2 1.2v3.5l-1.1-.6-.2-.6c-.1.1-.3.2-.4.2-.2 0-.4-.1-.6-.2-.3-.2-.6-.4-.8-.7-.3-.3-.4-.6-.6-.8-.1-.3-.2-.5-.2-.8 0-.2 0-.6 0-1V99c0-.6 0-1.1.1-1.3.1-.2.3-.4.6-.4.3 0 .7.1 1.3.4.5.3.9.6 1.3 1 .3.4.5.8.6 1.1.1.3.2.8.2 1.3V101.3zM129.9 100.3v6.5l-1.7-1v-6.5L129.9 100.3zM134.5 102.9v6.5l-1.5-.9-.9-3.5v3l-1.4-.8v-6.5l1.4.8 1 3.5v-2.9L134.5 102.9zM135.1 103.3l2.9 1.7v1.3l-1.1-.7v1.2l1.1.6v1.2l-1.1-.6v1.4l1.3.7v1.3l-3-1.7V103.3zM138.6 105.3l2.9 1.7v1.3l-1.1-.7v1.2l1.1.6v1.2l-1.1-.6v1.4l1.3.7v1.3l-3-1.7V105.3zM142.1 107.3l1.2.7c.8.5 1.4.8 1.6 1 .3.2.5.5.7.9.2.4.3.8.3 1.4 0 .5-.1.8-.2.9-.1.1-.4.1-.8-.1.3.3.6.5.7.7.1.2.2.4.2.5 0 .1 0 .5 0 1v1.7l-1.6-.9V113c0-.3 0-.6-.1-.7-.1-.1-.2-.2-.4-.4v2.9l-1.7-1V107.3zM143.8 109.4v1.4c.2.1.3.2.4.2.1 0 .1-.2.1-.4v-.4c0-.2 0-.4-.1-.5C144.2 109.7 144 109.6 143.8 109.4zM148.3 110.9v6.5l-1.7-1v-6.5L148.3 110.9zM152.9 113.6v6.5l-1.5-.9-.9-3.5v3l-1.4-.8v-6.5l1.4.8 1 3.5v-2.9L152.9 113.6zM157.5 118.6l-1.7-1V117c0-.4 0-.6 0-.7 0-.1-.1-.2-.2-.3-.1-.1-.2-.1-.2 0 0 .1-.1.3-.1.6v3.1c0 .3 0 .5.1.6 0 .1.1.2.2.3.1.1.2.1.3 0s.1-.3.1-.6v-.8l-.3-.2v-1l2 1.2v3.5l-1.1-.6-.2-.6c-.1.1-.3.2-.4.2-.2 0-.4-.1-.6-.2-.3-.2-.6-.4-.8-.7-.3-.3-.4-.6-.6-.8-.1-.3-.2-.5-.2-.8 0-.2 0-.6 0-1v-1.9c0-.6 0-1.1.1-1.3.1-.2.3-.4.6-.4.3 0 .7.1 1.3.4.5.3.9.6 1.3 1 .3.4.5.8.6 1.1.1.3.2.8.2 1.3V118.6z"/></g></g><g stroke="#000" stroke-miterlimit="10"><path stroke-width=".568" d="M149,179.1l-2.2-1.3c-0.1-0.6-0.2-1.3-0.4-2 c-0.2-0.9-0.5-1.7-0.9-2.6l1.5-0.8c0,0,0-0.1,0-0.2l-2.8-4.9c0-0.1-0.1-0.1-0.2-0.1l-1.5,0.9c-0.6-0.7-1.2-1.4-1.8-2 c-0.5-0.5-1-0.9-1.5-1.3v-2.6c0-0.1-0.1-0.2-0.1-0.2l-4-2.3c-0.1,0-0.1,0-0.1,0.1v2.6c-1.2-0.4-2.3-0.5-3.3-0.3l-1.7-2.8 c0-0.1-0.1-0.1-0.2-0.1l-2.8,1.7c0,0,0,0.1,0,0.2l1.6,2.7c-0.6,0.8-1,1.7-1.3,2.9l-2.4-1.4c-0.1,0-0.1,0-0.1,0.1v4.6 c0,0.1,0.1,0.2,0.1,0.2l2.5,1.4c0.1,0.6,0.2,1.2,0.4,1.8c0.2,0.9,0.5,1.8,0.9,2.7l-1.7,0.9c0,0,0,0.1,0,0.2l2.8,4.9 c0,0.1,0.1,0.1,0.2,0.1l1.8-0.9c0.5,0.7,1.1,1.3,1.7,1.9c0.5,0.5,1,0.9,1.5,1.3v2.7c0,0.1,0.1,0.2,0.1,0.2l4,2.3 c0.1,0,0.1,0,0.1-0.1v-2.8c1.1,0.4,2.2,0.5,3.1,0.3l1.6,2.8c0,0.1,0.1,0.1,0.2,0.1l2.9-1.6c0,0,0-0.1,0-0.2l-1.6-2.8 c0.6-0.7,1.1-1.7,1.3-2.9l2.3,1.3c0.1,0,0.1,0,0.1-0.1v-4.6C149.1,179.2,149.1,179.1,149,179.1z"/><path fill="#E6E7E8" stroke-width=".395" d="M143.1,178.1c0,3.8-2.7,5.4-6.1,3.5 c-3.3-1.9-6.1-6.6-6.1-10.4s2.7-5.4,6.1-3.5C140.4,169.5,143.1,174.2,143.1,178.1z"/><path stroke-width=".568" d="M140.1,176.4c0,1.9-1.4,2.7-3,1.7c-1.7-1-3-3.3-3-5.2 c0-1.9,1.4-2.7,3-1.7C138.8,172.1,140.1,174.5,140.1,176.4z"/></g><path fill="#D1D3D4" stroke="#6D6E71" stroke-width="1.065" stroke-miterlimit="10" d="M92.2,4.5l-9.7,5.4c-0.1,0.1-0.1,0.2,0,0.3 l112.7,64.5l9.1-5.4c0.2-0.1,0.2-0.5,0-0.6L92.2,4.5z"/><path fill="#939598" stroke="#6D6E71" stroke-width="1.065" stroke-miterlimit="10" d="M204.2,69.3l-9,5.4v199.9 c0,0.5,0.5,0.8,0.9,0.5l7.8-4.8c0.5-0.3,0.9-0.9,0.9-1.5V69.7C204.7,69.4,204.4,69.2,204.2,69.3z"/></svg>