<svg xmlns="http://www.w3.org/2000/svg" viewBox="0 0 283.5 283.5" id="malls"><path fill="#D1D3D4" stroke="#939598" stroke-width="1.623" stroke-miterlimit="10" d="M277.4,116.6L211.9,82	c-1.7-0.9-3.7-0.9-5.4,0L9.2,190.1c-3.9,2.1-4,7.7-0.2,10l68.1,40.3c1.8,1.1,4,1.1,5.8,0l194.7-113.6	C281.5,124.4,281.4,118.7,277.4,116.6z"/><g stroke-width=".976" stroke-miterlimit="10"><path fill="#FCBC56" stroke="#5B5755" d="M207.7,151.2v-42.2 c0-0.5,0.3-1,0.7-1.2L264.7,75c0.9-0.5,2.1,0.1,2.1,1.2v42.5c0,0.5-0.3,1-0.7,1.2l-56.4,32.5l-2.1,1.5l0.2-3"/><path fill="#E2E2E1" stroke="#555655" d="M265 116.2l-8.8 5.1-4.5 2.6-3.7 2.2-1.8 1c0 0 0 0 0 0v-8.7l9.1-5.1 3.6-2 4.4-2.5h0l1.6-.9c0 0 .1 0 .1 0L265 116.2zM264.9 78.1C264.9 78 264.9 78 264.9 78.1l-1.7.8h0l-4.4 2.5-3.3 1.9 0 8.5.6-.3 8.8-5.1L264.9 78.1zM221.4 131.2C221.4 131.1 221.3 131.1 221.4 131.2l-1.7.8h0l-4.4 2.5-3.3 1.9 0 8.5.6-.3 8.8-5.1L221.4 131.2zM249.7 109.4l-8.8 5.1-4.5 2.6-3.7 2.2-1.8 1c0 0 0 0 0 0v-8.7l9.1-5.1 3.6-2 4.4-2.5h0l1.6-.9c0 0 .1 0 .1 0L249.7 109.4zM230.8 106.6l-8.8 5.1-4.5 2.6-3.7 2.2-1.8 1c0 0 0 0 0 0v-8.7l9.1-5.1 3.6-2 4.4-2.5h0l1.6-.9c0 0 .1 0 .1 0L230.8 106.6z"/><path fill="#F7923F" stroke="#5B5755" d="M207.7,153.4l-2.1-1.1l-58.4-33.9 c-0.4-0.3-0.7-0.7-0.7-1.2V76.2c0-1.1,1.2-1.8,2.1-1.2l18.1,10.4l40.3,22.3c0.4,0.2,0.7,0.7,0.7,1.2v42.2V153.4z"/><path fill="#FFD998" stroke="#5B5755" d="M148.5,71.9l58.4-33.6 c0.4-0.3,1-0.2,1.4,0l56.4,34.3c0.9,0.6,0.9,1.9,0,2.4l-56.4,32.7c-0.4,0.3-1,0.3-1.4,0l-58.4-33.4 C147.6,73.7,147.6,72.4,148.5,71.9z"/><g stroke="#5B5755"><path fill="#FCBC56" d="M207.5,133.3c2-8.4-2.3-17.2-12.9-23.6 c-17.8-10.8-46.6-10.8-64.3-0.1c-10.6,6.4-14.8,15.3-12.7,23.7v11.2c-2.2,8.4,2.1,17.4,12.9,23.9c17.8,10.8,46.6,10.8,64.3,0.1 c10.5-6.4,14.8-15.1,12.7-23.4V133.3z"/><path fill="#FFD998" d="M194.8,148.6 c-17.7,10.7-46.5,10.7-64.3-0.1c-17.8-10.8-17.9-28.2-0.2-38.9s46.5-10.7,64.3,0.1S212.5,137.9,194.8,148.6z"/></g><path fill="#FCBC56" stroke="#5B5755" d="M85.7,222.1v-42.2c0-0.5,0.3-1,0.7-1.2 l56.4-32.7c0.9-0.5,2.1,0.1,2.1,1.2v42.5c0,0.5-0.3,1-0.7,1.2l-56.4,32.5L85.7,222.1L85.7,222.1"/><path fill="#E2E2E1" stroke="#555655" d="M143.1 187.1l-8.8 5.1-4.5 2.6L126 197l-1.8 1c0 0 0 0 0 0v-8.7l9.1-5.1 3.6-2 4.4-2.5h0l1.6-.9c0 0 .1 0 .1 0L143.1 187.1zM143 149C143 148.9 143 148.9 143 149l-1.7.8h0l-4.4 2.5-3.3 1.9 0 8.5.6-.3 8.8-5.1L143 149zM99.5 202.1C99.5 202 99.4 202 99.5 202.1l-1.7.8h0l-4.4 2.5-3.3 1.9 0 8.5.6-.3 8.8-5.1L99.5 202.1zM127.8 180.3l-8.8 5.1-4.5 2.6-3.7 2.2-1.8 1c0 0 0 0 0 0v-8.7l9.1-5.1 3.6-2 4.4-2.5h0l1.6-.9c0 0 .1 0 .1 0L127.8 180.3zM108.9 177.5l-8.8 5.1-4.5 2.6-3.7 2.2-1.8 1c0 0 0 0 0 0v-8.7l9.1-5.1 3.6-2 4.4-2.5h0l1.6-.9c0 0 .1 0 .1 0L108.9 177.5z"/><path fill="#FFD998" stroke="#5B5755" d="M26.6,142.8L85,109.1 c0.4-0.3,1-0.2,1.4,0l56.4,34.3c0.9,0.6,0.9,1.9,0,2.4l-56.4,32.7c-0.4,0.3-1,0.3-1.4,0l-58.4-33.4 C25.7,144.7,25.7,143.3,26.6,142.8z"/><path fill="#F7923F" stroke="#5B5755" d="M84.7,223.3l1-1.2v-42.2 c0-0.5-0.3-1-0.7-1.2l-40.3-22.3l-18.1-10.4c-0.9-0.5-2.1,0.1-2.1,1.2v41.1c0,0.5,0.3,1,0.7,1.2l58.4,33.9H84.7z"/><path opacity=".31" fill="#231F20" stroke="#5B5755" d="M86.5 109.2L148.5 74.3 207.7 106.9 144.9 143.9"/><path opacity=".6" fill="#231F20" stroke="#5B5755" d="M144.9 143.9L144.9 154.1 206.6 118 206.6 107.5z"/><path fill="#FCBC56" stroke="#5B5755" d="M207.7,151v-42.2c0-0.5,0.3-1,0.7-1.2 l56.4-32.7c0.9-0.5,2.1,0.1,2.1,1.2v42.5c0,0.5-0.3,1-0.7,1.2l-56.4,32.5l-2.1,1.5l0.2-3"/><path fill="#E2E2E1" stroke="#555655" d="M265 116l-8.8 5.1-4.5 2.6-3.7 2.2-1.8 1c0 0 0 0 0 0v-8.7l9.1-5.1 3.6-2 4.4-2.5h0l1.6-.9c0 0 .1 0 .1 0L265 116zM264.9 77.9C264.9 77.8 264.9 77.8 264.9 77.9l-1.7.8h0l-4.4 2.5-3.3 1.9 0 8.5.6-.3 8.8-5.1L264.9 77.9zM221.4 131C221.4 130.9 221.3 130.9 221.4 131l-1.7.8h0l-4.4 2.5-3.3 1.9 0 8.5.6-.3 8.8-5.1L221.4 131zM249.7 109.2l-8.8 5.1-4.5 2.6-3.7 2.2-1.8 1c0 0 0 0 0 0v-8.7l9.1-5.1 3.6-2 4.4-2.5h0l1.6-.9c0 0 .1 0 .1 0L249.7 109.2zM230.8 106.4l-8.8 5.1-4.5 2.6-3.7 2.2-1.8 1c0 0 0 0 0 0v-8.7l9.1-5.1 3.6-2 4.4-2.5h0l1.6-.9c0 0 .1 0 .1 0L230.8 106.4z"/><path fill="#F7923F" stroke="#5B5755" d="M207.7,153.2l-2.1-1.1l-58.4-33.9 c-0.4-0.3-0.7-0.7-0.7-1.2V76c0-1.1,1.2-1.8,2.1-1.2l18.1,10.4l40.3,22.3c0.4,0.2,0.7,0.7,0.7,1.2V151V153.2z"/><path fill="#FFD998" stroke="#5B5755" d="M148.5,71.7L206.9,38 c0.4-0.3,1-0.2,1.4,0l56.4,34.3c0.9,0.6,0.9,1.9,0,2.4l-56.4,32.7c-0.4,0.3-1,0.3-1.4,0l-58.4-33.4 C147.6,73.6,147.6,72.2,148.5,71.7z"/><g stroke="#5B5755"><path fill="#FCBC56" d="M207.5,133.1c2-8.4-2.3-17.2-12.9-23.6 c-17.8-10.8-46.6-10.8-64.3-0.1c-10.6,6.4-14.8,15.3-12.7,23.7v11.2c-2.2,8.4,2.1,17.4,12.9,23.9c17.8,10.8,46.6,10.8,64.3,0.1 c10.5-6.4,14.8-15.1,12.7-23.4V133.1z"/><path fill="#FFD998" d="M194.8,148.4 c-17.7,10.7-46.5,10.7-64.3-0.1s-17.9-28.2-0.2-38.9s46.5-10.7,64.3,0.1S212.5,137.7,194.8,148.4z"/></g><g><path fill="#FCBC56" stroke="#5B5755" d="M85.7,221.9v-42.2c0-0.5,0.3-1,0.7-1.2 l56.4-32.7c0.9-0.5,2.1,0.1,2.1,1.2v42.5c0,0.5-0.3,1-0.7,1.2l-56.4,32.5L85.7,221.9L85.7,221.9"/><path fill="#E2E2E1" stroke="#555655" d="M143.1 186.9l-8.8 5.1-4.5 2.6-3.7 2.2-1.8 1c0 0 0 0 0 0v-8.7l9.1-5.1 3.6-2 4.4-2.5h0l1.6-.9c0 0 .1 0 .1 0L143.1 186.9zM143 148.8C143 148.7 143 148.7 143 148.8l-1.7.8h0l-4.4 2.5-3.3 1.9 0 8.5.6-.3 8.8-5.1L143 148.8zM99.5 201.9C99.5 201.9 99.4 201.8 99.5 201.9l-1.7.8h0l-4.4 2.5-3.3 1.9 0 8.5.6-.3 8.8-5.1L99.5 201.9zM127.8 180.1l-8.8 5.1-4.5 2.6-3.7 2.2-1.8 1c0 0 0 0 0 0v-8.7l9.1-5.1 3.6-2 4.4-2.5h0l1.6-.9c0 0 .1 0 .1 0L127.8 180.1zM108.9 177.3l-8.8 5.1-4.5 2.6-3.7 2.2-1.8 1c0 0 0 0 0 0v-8.7l9.1-5.1 3.6-2 4.4-2.5h0l1.6-.9c0 0 .1 0 .1 0L108.9 177.3z"/><path fill="#FFD998" stroke="#5B5755" d="M26.6,142.6L85,108.9 c0.4-0.3,1-0.2,1.4,0l56.4,34.3c0.9,0.6,0.9,1.9,0,2.4l-56.4,32.7c-0.4,0.3-1,0.3-1.4,0L26.6,145 C25.7,144.5,25.7,143.1,26.6,142.6z"/><path fill="#F7923F" stroke="#5B5755" d="M84.7,223.1l1-1.2v-42.2 c0-0.5-0.3-1-0.7-1.2l-40.3-22.3l-18.1-10.4c-0.9-0.5-2.1,0.1-2.1,1.2V188c0,0.5,0.3,1,0.7,1.2l58.4,33.9H84.7z"/></g><path opacity=".31" fill="#231F20" stroke="#5B5755" d="M86.5 109L148.5 74.1 207.7 106.7 144.9 143.7"/><path opacity=".6" fill="#231F20" stroke="#5B5755" d="M144.9 143.7L144.9 153.9 206.6 117.8 206.6 107.3z"/><g stroke="#555655"><path fill="#E2E2E1" d="M197.8,165.1v-20.3c0-0.5-0.6-0.8-1-0.6 l-9.9,5.7c-0.2,0.1-0.3,0.3-0.3,0.6V171c0,0.5,0.6,0.8,1,0.6l9.9-5.9C197.7,165.6,197.8,165.4,197.8,165.1z"/><path fill="#E2E2E1" d="M196.6,165.9v-15.7 c0-0.4-0.4-0.7-0.8-0.5l-7.7,4.5c-0.2,0.1-0.3,0.3-0.3,0.5v15.8c0,0.4,0.4,0.7,0.8,0.5l7.7-4.6 C196.5,166.3,196.6,166.1,196.6,165.9z"/><path fill="none" d="M193 151.4L193 168.4"/></g></g><g stroke="#000" stroke-miterlimit="10"><path stroke-width="1.071" d="M225.8,56.1l-4.2,2.4c-1.1-0.4-2.4-0.8-3.7-1.2 c-1.6-0.4-3.3-0.8-5-1l0-3.2c0-0.1-0.1-0.2-0.3-0.2l-10.7,0c-0.2,0-0.3,0.1-0.3,0.2l0,3.2c-1.7,0.2-3.4,0.6-5,1 c-1.2,0.3-2.4,0.7-3.5,1.1l-4.2-2.4c-0.1-0.1-0.3-0.1-0.5,0l-7.6,4.4c-0.1,0.1-0.1,0.2,0,0.3l4.2,2.4c-1.7,1.6-2.9,3.3-3.6,5 l-6.1,0.1c-0.2,0-0.3,0.1-0.3,0.2l0.2,6.2c0,0.1,0.1,0.2,0.3,0.2l6-0.1c0.7,1.7,1.8,3.3,3.5,4.8l-4.6,2.7c-0.1,0.1-0.1,0.2,0,0.3 l7.6,4.4c0.1,0.1,0.3,0.1,0.5,0l4.7-2.7c1,0.4,2.1,0.7,3.3,1.1c1.7,0.5,3.4,0.8,5.2,1l-0.1,3.6c0,0.1,0.1,0.2,0.3,0.2l10.7,0.1 c0.2,0,0.3-0.1,0.3-0.2l0.1-3.8c1.6-0.2,3.2-0.6,4.7-1c1.2-0.3,2.4-0.7,3.5-1.1l4.5,2.6c0.1,0.1,0.3,0.1,0.5,0l7.6-4.4 c0.1-0.1,0.1-0.2,0-0.3l-4.5-2.6c1.6-1.5,2.8-3.1,3.5-4.7l6.1,0c0.2,0,0.3-0.1,0.3-0.2c0,0,0-6.4-0.2-6.4l-6,0 c-0.6-1.7-1.8-3.4-3.4-4.9l4.3-2.5c0.1-0.1,0.1-0.2,0-0.3l-7.6-4.4C226.1,56,225.9,56,225.8,56.1z"/><path fill="#E6E7E8" stroke-width=".744" d="M218.5,64.7c6.3,3.6,6.2,9.5-0.1,13.1 c-6.3,3.6-16.5,3.7-22.8,0c-6.3-3.6-6.2-9.5,0.1-13.1C202.1,61.1,212.2,61.1,218.5,64.7z"/><path stroke-width="1.071" d="M212.9,68.1c3.1,1.8,3.1,4.7,0,6.5 c-3.1,1.8-8.2,1.8-11.3,0c-3.1-1.8-3.1-4.7,0-6.5C204.7,66.3,209.8,66.3,212.9,68.1z"/></g><path fill="#FFF" stroke="#000" stroke-width=".687" stroke-miterlimit="10" d="M82.1,192.5l-53.5-30.9 c-0.7-0.4-1.3-1.4-1.3-2.2v-8.6c0-0.8,0.5-1.1,1.1-0.6c0.1,0.1,0.3,0.2,0.4,0.3l53,30.6c0.1,0.1,0.3,0.2,0.4,0.2 c0.6,0.2,1.1,1.1,1.1,1.9v8.6C83.3,192.6,82.8,192.9,82.1,192.5z"/><g fill="#F5A722"><path d="M29.4 152.6l3.5 2v1.6l-1.4-.8v1.5l1.3.8v1.5l-1.3-.8v1.7L33 161v1.6l-3.6-2.1V152.6zM38.3 157.7v7.9l-1.8-1.1-1.1-4.2v3.6l-1.7-1V155l1.7 1 1.2 4.2v-3.5L38.3 157.7zM43.9 163.8l-2.1-1.2v-.7c0-.5 0-.7-.1-.9 0-.1-.1-.2-.3-.3-.1-.1-.2-.1-.3 0 0 .1-.1.3-.1.7v3.8c0 .4 0 .6.1.7 0 .1.1.2.3.3.2.1.3.1.3 0 .1-.1.1-.3.1-.7v-.9l-.4-.2v-1.2l2.4 1.4v4.2l-1.3-.8-.2-.7c-.1.2-.3.2-.5.2-.2 0-.5-.1-.8-.3-.3-.2-.7-.5-1-.8-.3-.3-.5-.7-.7-1-.2-.3-.3-.7-.3-.9 0-.3-.1-.7-.1-1.3V161c0-.8 0-1.3.1-1.6.1-.3.3-.5.7-.5.4-.1.9.1 1.5.4.6.4 1.1.8 1.5 1.2.4.5.7.9.8 1.3.1.4.2.9.2 1.6V163.8zM46.8 162.6v7.9l-2.1-1.2v-7.9L46.8 162.6zM52.3 165.8v7.9l-1.8-1.1-1.1-4.2v3.6l-1.7-1v-7.9l1.7 1 1.2 4.2v-3.5L52.3 165.8zM53.1 166.3l3.5 2v1.6l-1.4-.8v1.5l1.3.8v1.5l-1.3-.8v1.7l1.5.9v1.6l-3.6-2.1V166.3zM57.3 168.7l3.5 2v1.6l-1.4-.8v1.5l1.3.8v1.5l-1.3-.8v1.7l1.5.9v1.6l-3.6-2.1V168.7zM61.5 171.1L63 172c1 .6 1.6 1 2 1.3.3.3.6.6.8 1.1s.3 1 .3 1.7c0 .6-.1 1-.2 1.1-.2.1-.5.1-.9-.1.4.3.7.6.8.9.1.3.2.5.3.6 0 .2.1.6.1 1.2v2.1l-1.9-1.1v-2.6c0-.4 0-.7-.1-.8-.1-.1-.2-.3-.5-.5v3.5l-2.1-1.2V171.1zM63.6 173.7v1.7c.2.1.4.2.5.2.1 0 .1-.2.1-.5v-.4c0-.2 0-.4-.1-.6C64 173.9 63.8 173.8 63.6 173.7zM69 175.5v7.9l-2.1-1.2v-7.9L69 175.5zM74.5 178.6v7.9l-1.8-1.1-1.1-4.2v3.6l-1.7-1v-7.9l1.7 1 1.2 4.2v-3.5L74.5 178.6zM80.1 184.8l-2.1-1.2v-.7c0-.5 0-.7-.1-.9 0-.1-.1-.2-.3-.3-.1-.1-.2-.1-.3 0 0 .1-.1.3-.1.7v3.8c0 .4 0 .6.1.7 0 .1.1.2.3.3.2.1.3.1.3 0 .1-.1.1-.3.1-.7v-.9l-.4-.2v-1.2l2.4 1.4v4.2l-1.3-.8-.2-.7c-.1.2-.3.2-.5.2-.2 0-.5-.1-.8-.3-.3-.2-.7-.5-1-.8-.3-.3-.5-.7-.7-1-.2-.3-.3-.7-.3-.9 0-.3-.1-.7-.1-1.3v-2.3c0-.8 0-1.3.1-1.6.1-.3.3-.5.7-.5.4-.1.9.1 1.5.4.6.4 1.1.8 1.5 1.2.4.5.7.9.8 1.3.1.4.2.9.2 1.6V184.8z"/></g><g><path d="M42.7 137.7l2.8 1.6c.8.4 1.3.8 1.6 1.1.3.3.5.6.5.8 0 .2-.1.4-.3.6-.2.2-.6.5-1.2.8l-.8.5c-.6.3-1.1.5-1.5.6-.4.1-.9 0-1.4-.1-.5-.1-1.1-.4-1.7-.7l-.8-.4-3.7 2.1-2.8-1.6L42.7 137.7zM44 140.2l-2.3 1.3c.1 0 .1.1.2.1.3.1.5.2.7.2.2 0 .5-.1.8-.3l.8-.4c.3-.2.5-.3.4-.5C44.5 140.6 44.3 140.4 44 140.2zM49.6 141.7l2 1.1c1.3.8 2.2 1.3 2.6 1.6.4.3.5.7.5 1-.1.4-.5.8-1.3 1.2-.7.4-1.3.6-1.7.6-.5 0-1-.1-1.7-.5.4.4.7.7.6.9 0 .2-.1.4-.2.5-.1.1-.5.4-1.3.8l-2.4 1.4L44 149l3-1.8c.5-.3.7-.5.8-.6 0-.1-.2-.3-.5-.5l-4.1 2.4-2.8-1.6L49.6 141.7zM50.8 144.2l-2 1.2c.3.2.6.3.8.3.2 0 .5-.1.9-.3l.5-.3c.3-.2.4-.3.4-.4C51.3 144.5 51.1 144.4 50.8 144.2zM57.9 152.7c-.9.5-1.6.9-2 1.1-.4.2-.9.3-1.5.3-.6 0-1.2 0-1.8-.2-.6-.2-1.2-.4-1.8-.8-.6-.3-1-.7-1.3-1-.3-.4-.4-.7-.4-1.1 0-.3.2-.6.5-.9.3-.2 1-.6 1.9-1.2L53 148c.9-.5 1.6-.9 2-1.1.4-.2.9-.3 1.5-.3.6 0 1.2 0 1.8.2.6.2 1.2.4 1.8.8.6.3 1 .7 1.3 1 .3.4.4.7.4 1.1 0 .3-.2.6-.5.9-.3.2-1 .6-1.9 1.2L57.9 152.7zM58.1 149.3c.4-.2.7-.4.7-.5.1-.1 0-.2-.2-.3-.1-.1-.3-.1-.5-.1-.2 0-.5.2-1 .4l-4.3 2.5c-.5.3-.8.5-.9.6-.1.1 0 .2.2.3.2.1.4.1.6.1.2-.1.6-.2 1.1-.5L58.1 149.3zM64.3 150.2l4.7 2.7-1.8 1.1-1.9-1.1-1.7 1 1.7 1-1.7 1-1.7-1-3.8 2.2-2.8-1.6L64.3 150.2zM75.4 156.6l-1.8 1.1-1.7-1-7.3 4.2-2.8-1.6 7.3-4.2-1.7-1 1.8-1.1L75.4 156.6zM76 156.9l4.7 2.7-1.8 1.1-1.9-1.1-1.7 1 1.7 1-1.7 1-1.7-1-2 1.2 2.1 1.2-1.8 1.1-4.9-2.8L76 156.9zM84.2 166.3l-2.8-1.6 1.6-.9c.5-.3.7-.5.8-.6.1-.1 0-.2-.2-.3-.2-.1-.4-.2-.6-.1-.2 0-.5.2-1 .5l-4.3 2.5c-.4.3-.7.4-.8.6-.1.1 0 .2.2.4.2.1.4.2.6.1.2 0 .6-.2 1.1-.5l1.2-.7 2.8 1.6-.4.2c-.9.5-1.7.9-2.3 1-.6.1-1.2.1-2.1 0-.8-.1-1.6-.4-2.4-.9-.8-.5-1.4-.9-1.6-1.4-.3-.5-.3-.9 0-1.2.3-.4.9-.8 1.8-1.3l2.7-1.5c.7-.4 1.2-.7 1.6-.8.4-.2.9-.3 1.4-.3.6 0 1.2 0 1.8.2.6.2 1.3.4 1.9.8.8.5 1.4.9 1.6 1.4.3.5.3.9 0 1.2-.2.3-.8.7-1.6 1.2L84.2 166.3zM95.6 168.3l-9.2 5.3-2.8-1.6 3.8-2.2-.8-.5-3.8 2.2-2.8-1.6 9.2-5.3 2.8 1.6-3.3 1.9.8.5 3.3-1.9L95.6 168.3z"/></g></svg>