<svg xmlns="http://www.w3.org/2000/svg" viewBox="0 0 3401.6 1043.8"><switch><g><path fill="#FFEBCC" stroke="#545453" stroke-width="6" stroke-miterlimit="10" d="M3402.1 696.5L1551.1 609.4 0 716 1255.6 1043.8z"/><path fill="none" stroke="#000" stroke-width="4" stroke-miterlimit="10" d="M0 606.1L2369.7 606.1"/><path fill="#FFF" d="M735.1,856.5c-3.1-1.8-11.6-1.8-14.8-3.5c-21.9-6-28.7-21.7-27-20.6c12.6,8.6-16.3-32.6-17.2-39.1 c-2.6-17.5,7.5-8.2-9-36.9c-4.1-7.1,1.6-27.6-1.7-35c-2.2-5-8.5-11.8-8.5-11.8c0.1-24.6,0.1-55.1-8.7-53.9 c-0.2-4.3,0-9.8-6.8-15.2c0,0,7.5-11.8,1.3-28.4c-1.9-5.2,1.5-17.6,0-21.2c-11.5-28.6-3.9-60.2-6.8-65.8 c1.1-28.6-2.1-17.8-1-46.4c0.1-2-8.3-39.9-17.1-56.1c-2.3-4.3,6.5-15.5,6.5-15.5l7.9,11.7c0,0,36.8-27.4,41.9-36.2 c4.8-8.3,9.4-3.9,9.4-3.9s7.4-15.6-1.2-22.1c2.5-2.7-40.7-3.6-40.7-3.6l43.1-58.1l24.1,21.5c0,0,0.6-14,1.5-34.2 c0.1-2.8,0.2-5.7,0.4-8.7c0.1-2.7,0.2-5.5,0.4-8.4c0.1-2.3,0.2-4.7,0.3-7.1c0.3-7,0.6-14.3,0.9-21.6c0.3-5.9,0.8-17.6,0.8-17.6 s3.2-69.6,3.7-77.3c1.6-22.9,0.5-46.9-20.3-61.1c-11.8-8-27.4-9-40-2.4c-9.7,5.1-15.8,14-20.6,23.5c-2.3,4.4-4.5,8.9-6.8,13.3 c-7.6-0.7-15.4,1.6-21.4,7.8c-3.4,3.5-6.7,7.1-9.9,10.8c-3.9,0.1-7.8,0.2-11.6,0.6c-16.5,1.7-31,6.3-46,13.2 c-24.9,11.3-46,30.9-63.9,51.1c-19.6,22.1-60.8,62.9-63.3,88.7c-1.8,18,28.6,46.2,28.6,46.2c10,27.5-13.6,52.1-4.4,68.7 c1,1.8-6-6.4,3.4,6.5c-0.1,0.7-1.1,23.5-1.2,24.2c-2.8,23.9-0.6,40.5-1.9,64.5c-0.6,12.5,1.1,24.8,0.9,37.4 c-0.2,11.7,3.1,23.7,4.5,35.3c1,8.8,0.3,14.8,2,27.4c3.2,33.4,0.1,69.9-2.2,86.4c-9.4,66.1,3.3,73.1,3.6,73 c-15.1,7.6-8.4,76.7-8.4,76.7l-0.4,43.6l5.8-4c1.3,15,13.3,24.4,29.2,26.1c67.6,7,29.3-45.8,29.3-45.8s4.2-15.5,4.7-19.8 c2.4-23.1-5.1-44.2-5.1-59.3c0-17.8,9.4-28.1,11.6-39.6c4.8-25.3,4.6-40.9,4.6-44.2c-0.1-15.8-0.9-25.5,0.1-42.2 c0.9-14.4,4.9-28.2,7-42.6c1.6-10.9,16.5-52.3,16.5-52.3c5.1,6.7,4.3,17.2,9.1,24.1c1.1,4.3,4,16.8,4.8,21.2 c0,0.1,2.7,13,4.7,17.7c1,2.3,1.8,4.8,2.1,7.3c1.2,9.4,5.1,19.5,5.9,28.9c1.7,20,5.1,30,7.8,44.5c0.3,1.9,2.9,19,4.5,20 c2.3,27.3,15.9,52.3,20.8,79.3c2.1,11.8,10.1,36.5,10.1,36.5c21.4,6.6-1.4,33.8,11.9,44.1c9.4,7.3,60,9.1,66.2,12.6 c0,0,38.8,9.2,56.8-9.7C750.6,873.9,745.8,862.6,735.1,856.5z"/><path d="M2793.8 448.2c25.8-12.3 43.5-37.8 71.9-44.9 13.8-3.5 28.3-1.1 41.6-6.9 11.2-5 19.6-14.7 29.7-21.4 6.2-4.1 13.1-6.8 20.6-6.7 8.8 0 15.4 5.7 19.8 12.8 2.9 4.7 4.9 10 7.5 14.9 2.5 4.6 5.7 8.8 9.2 12.8 13.7 15.5 34.3 24.8 54.9 25.4 21.8.7 43.6-10.5 52-31.3 5.4-13.5 8.5-27.7 22-35.5 12.6-7.3 27-3.7 39.1 2.5 22.9 11.9 44.5 34.2 72.6 25.1 12.7-4.1 22.5-15.4 32.9-23.3 13.4-10 28.3-12.7 44.7-11.1 30.1 3 58.2 16.6 88.9 13.2 1.3-.1 1.3-2.2 0-2-31.8 3.5-61.3-11-92.6-13.6-14.2-1.2-27.4 1.8-39.3 9.7-12 8-21.5 19.8-35.2 25-29.5 11.1-53.8-18.6-78.6-28.4-10.2-4.1-21-4.6-31.2-.2-11 4.7-17 15-20.9 25.7-2.4 6.5-4.4 13.1-7.8 19.1-3.8 6.5-9.5 11.7-15.9 15.5-10 5.9-21.8 8-33.3 7.4-23-1.1-45.3-14.5-57.7-33.7-5.7-8.8-8.2-20.6-17.1-27.1-10.2-7.5-22.7-5.4-33.1.5-10.7 6-18.9 15.6-29.6 21.6-13.3 7.5-29.3 4.8-43.7 8-28.6 6.4-46.7 32.9-72.3 45.2C2791.6 447 2792.6 448.7 2793.8 448.2L2793.8 448.2zM2541.2 450.8c23.3-7.1 46.8-14.1 71.2-16 25.3-2 49.9 4.5 73.6 13 1.2.4 1.8-1.5.5-2-23.3-8.4-47.3-14.6-72.3-13.2-25.2 1.4-49.6 8.9-73.6 16.2C2539.5 449.2 2540 451.2 2541.2 450.8L2541.2 450.8zM1794.1 541.9c-1.4 4.1-1.4 8.5-2.2 12.8-.4 2.6-1.3 5.9-4.5 6-2.6.2-3.1-3.4-3.2-5.2-.6-5.7 1.9-13.9-1.8-19-4.2-5.7-15.9 1.8-20 4.1-6.2 3.5-11.1 4.8-17.8 1.7-6.9-3.2-12.9-8.2-18.8-13-9.7-7.9-19.9-15.4-32.7-16.5-10.5-.9-18.8 5.6-25.4 13-7 7.9-13.1 17.7-23.6 21.3-12.8 4.4-28.8-3.7-39.7-9.9-12.9-7.4-35.5-25-49.1-9.7-4.9 5.5-6.8 13.8-8.7 20.8-1.6 6-2.3 15.5-6.8 20.1-2.6 2.7-6.8-4-8-5.5-2.4-3-4.7-4.9-8.7-4.6-5.4.5-10.9 2.9-16.4 3.7-7 1.1-14 1.2-21.1.8-26.6-1.2-52.2-10-78.4-13.8-11.7-1.7-23.7-2.5-35.4-.8-13.3 1.9-25.5 7.2-37.7 12.6-27.7 12.3-54.9 26.3-85.9 27.2-14.6.4-29.2-2.2-43-6.9-6.9-2.4-13.4-5.5-19.8-9.1-5.9-3.4-11.4-7.8-17.8-10.2-10.7-4-21.1-1.1-29.7 5.9-4.8 3.9-8.9 8.4-12.8 13.2-1.7 2.1-2.9 4.5-5.6 5.1-3 .7-6.2 1-9.3 1.1-21.6.8-42.4-10.4-62-17.9-17.2-6.5-36.6-12.1-53.9-2.9-9.1 4.8-14.2 13.7-21.1 21-5.3 5.6-11.2 6.6-18.5 5.7-6.2-.7-12.4-1.1-18.6-1.2-15.9-.3-31.8.8-47.6 2-32 2.5-63.9 6.3-95.7 10.3-1.1.1-1.2 1.9 0 1.8 42.2-5.3 84.7-10.7 127.2-12.1 8.7-.3 17.4-.3 26 .2 7.4.5 15.3 2.8 22.3-.6 8.5-4.1 13.2-14.2 19.9-20.5 7.9-7.4 18.7-10.1 29.2-9.6 21.2 1 41.2 12.7 60.8 19.6 9.5 3.3 19.4 5.8 29.5 6.1 4.5.1 9-.4 13.3-1.5 2.3-.5 2.8-2.2 4.3-4.1 2.2-2.8 4.5-5.6 7-8.2 4.6-4.9 10-9.3 16.2-11.9 7.7-3.2 15.6-1.5 22.8 2.2 6 3.1 11.5 7.2 17.5 10.4 6.1 3.2 12.4 5.8 18.9 7.9 26.7 8.8 54.8 7.1 81.2-1.9 13.5-4.6 26.4-10.8 39.4-16.7 13.1-6 26.5-12.3 40.8-14.9 26.4-4.7 53.4 3.2 79 8.6 12.3 2.6 24.7 4.8 37.2 5.5 12.5.7 24.4-1 36.5-4.4 8.7-2.4 9.5 11.7 17.2 10.4 4.3-.7 5.8-9.1 6.6-12.3 2.3-8.3 3.8-16.9 7.6-24.7 4.8-10 14.3-12 24.3-8.7 10.9 3.6 20.4 10.9 30.5 16.3 9.4 5.1 22.6 10.5 33.5 8.2 22.1-4.7 27-35.6 51.4-34.9 19.7.5 33 19.8 49.1 28.5 5.6 3 10.8 4 16.7 1.2 5.5-2.6 15-10.6 21.4-7.4 3.7 1.8 2 11.8 2 15 0 2.9-.2 7.8 2.5 9.6 9.5 6.4 9.7-15.6 11-19.3C1796.2 541.3 1794.4 540.8 1794.1 541.9L1794.1 541.9zM1813.8 505.7c11.1 6.9 23.5 10.9 36.5 12 6.2.5 12.4.1 18.5-.8 7.4-1.1 14.4-4 21.8-5.4 15.1-2.8 24.8 8.8 35.6 17.1 8.1 6.2 17.1 9.7 27.2 10.4 19.3 1.4 39.4-8.5 49.2-25.3 3.4-5.7 4.6-12.4 9.5-17.2 5.3-5.2 13.8-5.4 20.5-3.9 13.7 3.1 22.5 16.4 30.6 26.7 7.6 9.7 16.7 19.1 29.2 21.5 10.8 2.1 21.6-2.7 29.9-9.2 8.6-6.7 12.9-15 14.3-25.6 1.2-9.2.2-22.1 8.6-28.4 11.3-8.5 29.6-5.5 42.2-2.4 13.9 3.4 28.2 8.6 41.1 14.6 7.6 3.5 20.3 10.6 27.2 2.6 2.8-3.2 4.2-7.7 6.5-11.2 1.7-2.7 3.4-4.1 6.2-2.3 1.9 1.2 3.5 3 5 4.6 3.7 3.6 10.5 8.6 12.7.6 1.1-3.9-1.4-8.7-2.5-12.3-2.6-8.6 3.3-18.1 12.5-19.3 6.8-.9 11.7 6 16.6 9.5 5 3.6 10 4.6 16 3.1 6.9-1.7 12.7-6.7 19.9-7.6 6.1-.8 15.3 1.7 14.7 9.3-.1 1.2 1.7 1.2 1.8 0 .7-8.4-8.4-11.3-15.3-11.2-5 .1-9.5 2.7-13.9 4.7-3.9 1.9-7.8 3.4-12.1 3.8-4.7.4-8.6-2.4-12-5.2-6.9-5.8-15.3-12.2-23.9-4.8-3.1 2.7-6.4 6.9-6.8 11.2-.4 4.8 1.7 9.2 3 13.8.7 2.5 1 8.4-3.2 7.6-1.8-.3-3.5-2.1-4.7-3.2-2.6-2.4-4.9-5.2-8-6.9-6.4-3.4-10.4 9.3-12.6 13-4.2 7.1-12.4 4.4-18.7 2-6.8-2.6-13.2-5.9-20-8.4-13.2-4.9-26.5-9.9-40.5-12-10.5-1.5-24-1.2-32.9 5.5-6.5 4.8-7.1 14.5-7.8 21.8-.5 5.1-1 10.2-2.3 15.2-1.7 6.4-6.3 11.4-11.1 15.7-11.4 10.2-27.3 13.3-40.7 5.4-21-12.4-28.6-45.1-56.9-44.7-4.6.1-9 1.6-12.7 4.3-5 3.6-6.9 9.9-9.3 15.2-4.5 10.2-13.3 17.8-23.1 22.6-11.7 5.7-25.7 6.7-38.1 2.9-13.6-4.2-21.8-16.4-34.1-22.8-14.1-7.3-29.5 2.1-43.8 3.6-17 1.8-34.5-2.6-48.9-11.7C1813.7 503.6 1812.8 505.1 1813.8 505.7L1813.8 505.7zM1793.3 538.2c4.5-9.7.4-19.6-.8-29.6-.8-6.5.9-13.2 6.6-17 6.3-4.3 16 4.3 9.9 10.1-.8.8.4 2.1 1.3 1.3 3-2.8 2.9-7.3.4-10.5-3.3-4.3-7.9-4.8-12.6-2.4-6 3.1-7.7 10.7-7.6 16.8.2 10.4 5.9 20.3 1.2 30.5C1791.3 538.3 1792.9 539.2 1793.3 538.2L1793.3 538.2z"/><path fill="#58595B" d="M726,112c0,0-6.9-25.2-31-35c-5.4-2.2-19.8-7.8-27.6-7.1c-27,2.3-35.7,18.3-41.3,30.4 c-4,8.6-4.9,9.4-10.7,25.8c-2.4,6.9-5.6,19.4,6.1,22.1c11.1,2.6,0.6-20.1,7.5-21.6c8.1-1.8,25.6-8.8,28.8,32.5 c0.5,5.9,0.5-17.2,17.6-22.3c0,0-7.3-17.1,3-33.5C695.1,77,707.8,134.4,726,112z"/><path d="M625.5,216.3c-2-4.1-12.9-1.8-16.2-1.5c-2,0.2-3.9,0.4-5.9,0.7c-0.7,0.1-1.5,0.2-2.2,0.3c-1.4,0.2-0.6,0.3-1-0.7 c-2.6-7-4.9-14.2-6.7-21.5c-6.2-25.7-2.4-58.9,23.8-72.2c1.4-0.7,0.2-2.7-1.2-2c-14.5,7.4-23,21.8-26.3,37.4 c-4.4,20.4,1.6,41.6,8.8,60.6c0.2,0.5,0.6,0.9,1.1,0.9c3.6-0.3,7.2-0.8,10.7-1.2c2-0.2,11.9-1.9,13.1,0.4 C624.2,218.8,626.2,217.6,625.5,216.3L625.5,216.3z"/><path d="M610.1 126.1c-2.7 27.3.8 54.8 10.3 80.6.5 1.4 2.8.8 2.3-.6-9.4-25.6-12.9-52.8-10.2-79.9C612.6 124.6 610.2 124.6 610.1 126.1L610.1 126.1zM596.7 136.7c-26.1 1.8-52.4 7.1-76.5 17.4-22.5 9.6-44 25.5-50.9 50-.4 1.5 1.9 2.1 2.3.6 7.1-25.2 29.7-40.3 52.7-49.8 22.8-9.5 47.9-14.2 72.5-15.9C598.2 138.9 598.2 136.6 596.7 136.7L596.7 136.7z"/><path d="M490.8 177.9c7.1-1.9 14.3-.4 20 4.1 5.9 4.7 8.2 12.8 10.4 19.7 4.9 15.2 7.9 31 9.2 46.9.6 7.6.2 15.3-3.1 22.3-3.1 6.4-9 11-15.1 14.2-14.7 7.6-32.4 4.8-48 2.4-1.5-.2-2.1 2-.6 2.3 16.7 2.5 34 4.8 49.8-2.7 14.9-7.1 20.2-21.2 19.5-36.9-.8-18.9-5.3-38.2-11.6-55.9-4.8-13.4-16.4-22.7-31.1-18.7C488.7 176 489.3 178.3 490.8 177.9L490.8 177.9zM650.5 137.2c-4.2-3.2-11.1-10.1-16.5-4.8-5 4.8-5.8 12.1-4.7 18.7 1.1 6.2 5.6 13.3 12.1 14.6 4.7.9 8-3.8 6-7.9-.7-1.4-2.7-.2-2 1.2-1.6 1.4-3.2 2.8-4.7 4.1-1.6-.6-2.9-1.6-4-2.8-1.4-1.3-2.3-2.9-3.2-4.6-1.8-3.3-2.3-7.2-2.3-10.9.1-4.2 1.8-8.9 5.3-11.4 3.8-2.7 10.1 3.7 12.8 5.8C650.5 140.1 651.7 138.1 650.5 137.2L650.5 137.2zM608 285.4c-5.4 1.3-11 .6-16.4 1-1.5.1-1.5 2.5 0 2.4 5.7-.4 11.5.2 17.1-1.1C610.1 287.3 609.5 285.1 608 285.4L608 285.4z"/><path d="M606.6 287.6c-1.4 7.3-3.8 14.3-6.8 21.2-2.7 6.3-6.2 14.9-12 18.8-4.6 3.1-8.9-1.6-8.2-6.2.2-1.5.9-3 1.4-4.4 1.3-3.4 2.6-6.8 3.8-10.2 2.4-6.6 4.7-13.3 7.3-19.8.6-1.4-1.7-2-2.3-.6-3.9 9.9-7.2 20.1-11.1 30-1.9 4.7-3.2 13.9 4.4 14.4 8.5.5 12.3-8.2 15.7-14.5 4.6-8.8 8.1-18.3 10-28C609.1 286.7 606.8 286.1 606.6 287.6L606.6 287.6zM414.1 273.7c10.6-10.9 18.7-23.8 28.2-35.6 4.7-5.8 10-10.9 14.9-16.5 5-5.8 9.6-12.1 14.2-18.3.9-1.2-1.1-2.4-2-1.2-4.8 6.5-9.7 13-15 19.1-4.8 5.6-10.1 10.7-14.8 16.5-9.2 11.4-17 23.8-27.2 34.3C411.4 273.2 413.1 274.8 414.1 273.7L414.1 273.7z"/><path d="M500.8,251c-1.1-1.6-1-3.4-2-4.8c-1-1.4-2.1-2.7-3.3-4c-3.4-3.9-6.6-8-9.6-12.1c-5.5-7.5-10.4-15.6-14.4-24 c-0.7-1.4-2.7-0.2-2,1.2c4,8.5,9,16.4,14.4,24c2.5,3.4,5.1,6.7,7.8,10c1.7,2.1,4.6,4.5,5.4,7c0.6,1.6,0.7,2.5,1.7,3.9 C499.6,253.4,501.7,252.3,500.8,251L500.8,251z"/><path d="M499 250.8c-13.7 13.8-27.1 29.3-45.3 37.1-1.4.6-.2 2.6 1.2 2 18.4-7.9 32-23.5 45.8-37.4C501.7 251.4 500 249.7 499 250.8L499 250.8zM412.2 272.6c-.9 6.9.3 13.7-.6 20.6-.2 1.5 2.1 2.1 2.3.6.9-6.9-.3-13.7.6-20.6C414.6 271.7 412.4 271.1 412.2 272.6L412.2 272.6z"/><path d="M523.2 381.4c-11.1-5-22.5-8.4-34.2-11.5-7.3-1.9-14.2-4.7-18.8-10.9-3.5-4.6-5.7-9.7-10.1-13.6-4.1-3.7-9.2-6.5-13.5-9.9-4.6-3.7-8.9-7.8-12.9-12.1-8.3-9-14.9-19.4-19.9-30.6-.6-1.4-2.6-.2-2 1.2 4.7 10.4 10.8 20 18.1 28.6 8.4 9.9 18.6 16.4 28.5 24.4 4.9 4 6.9 10 10.9 14.7 3.5 4 7.7 6.4 12.5 8.4 5.9 2.3 12.3 3.4 18.4 5.2 7.5 2.2 14.7 4.9 21.8 8.1C523.4 384.1 524.6 382.1 523.2 381.4L523.2 381.4zM543.6 345.6c-24.7-15.1-45.4-35.2-65.9-55.4-1.1-1.1-2.7.6-1.7 1.7 20.7 20.3 41.6 40.5 66.4 55.8C543.7 348.5 544.9 346.4 543.6 345.6L543.6 345.6z"/><path d="M622.5,407.3c-1.8,4.6-5.1,8.7-7.5,13.1c-2.5,4.6-4.9,9.2-7.7,13.5c-7.3,11.4-17.5,16.8-30.7,18.9 c-24.7,3.9-51.2-0.2-74.6-8.1c-11.6-3.9-22.7-9.2-33.2-15.4c-10.6-6.3-22-13.8-29.1-24.2c-8.6-12.6-0.8-24.6,3.3-37.1 c3.9-11.9,2.9-24.6-1.5-36.2c-0.5-1.4-2.8-0.8-2.3,0.6c5.8,15.4,3.9,29.6-2.2,44.5c-4.7,11.5-5.3,21.5,2.4,31.8 c7.1,9.5,18.2,16.5,28.1,22.6c11.1,6.8,23,12.1,35.3,16.2c24.5,8.2,52.4,11.6,77.9,7c11.4-2.1,20.2-7.7,27-17.1 c3.3-4.6,5.9-9.7,8.6-14.6c2.7-5,6.4-9.6,8.4-14.9C625.4,406.5,623.1,405.9,622.5,407.3L622.5,407.3z"/><path d="M632.3 420.2c-8.8-18.3-22.5-33.3-40-43.5-1.3-.8-2.5 1.3-1.2 2 17.2 10.1 30.6 24.7 39.2 42.7C630.9 422.7 632.9 421.5 632.3 420.2L632.3 420.2zM681.5 378.6c-16.9-3.3-34.1-4.2-51.2-5.4-19-1.3-38-2.7-57-4-1.5-.1-1.5 2.2 0 2.4 17.7 1.2 35.4 2.5 53 3.7 18.2 1.3 36.6 2.1 54.5 5.6C682.4 381.1 683 378.9 681.5 378.6L681.5 378.6z"/><path d="M684,380c3.6-6.7,4.8-16.7-0.5-22.9c-1.7-2-6.5-1.5-8.7-1.7c-6.4-0.6-12.7-1.1-19.1-1.6c-26.4-2.3-52.8-4.6-79.3-6.8 c-1.5-0.1-1.5,2.2,0,2.4c20.7,1.8,41.3,3.6,62,5.3c10.2,0.9,20.4,1.8,30.6,2.6c3.7,0.3,11.4-0.6,13.7,2.8 c3.5,5.3,1.8,13.6-0.9,18.7C681.3,380.2,683.3,381.4,684,380L684,380z"/><path d="M575.4 348.5c1 7-1.8 14.7-3.2 21.5-.3 1.5 2 2.1 2.3.6 1.5-7.3 4.2-15.3 3.2-22.8C577.5 346.3 575.2 347 575.4 348.5L575.4 348.5zM640 251.6c-3-10.4-11.7-18.1-22.4-19.7-1.5-.2-2.1 2-.6 2.3 9.9 1.5 18 8.4 20.8 18.1C638.1 253.7 640.4 253.1 640 251.6L640 251.6z"/><path d="M625.8 217c-5.6 3.4-9.4 8.9-10.3 15.4-.2 1.5 2.1 2.1 2.3.6.8-5.9 4.1-11 9.2-14C628.3 218.3 627.1 216.2 625.8 217L625.8 217zM627 352.6c0-7.4-.2-14.9.1-22.3.3-8.6 2-17 3.6-25.4 3.3-17 6.6-34 9.9-51 .3-1.5-2-2.1-2.3-.6-3.3 17-6.6 34-9.9 51-1.4 7.4-2.8 14.8-3.5 22.4-.8 8.6-.4 17.3-.4 25.9C624.6 354.1 627 354.1 627 352.6L627 352.6zM599.1 259.1c-17 2.1-34-.8-49.3-8.4-1.4-.7-2.5 1.4-1.2 2 15.7 7.8 33.1 10.8 50.5 8.7C600.6 261.3 600.6 258.9 599.1 259.1L599.1 259.1zM596.9 268.1c-15.9 7.3-34.6 5.6-49-4.3-1.3-.9-2.4 1.2-1.2 2 15.1 10.4 34.7 12 51.4 4.3C599.5 269.5 598.3 267.5 596.9 268.1L596.9 268.1z"/><path d="M547.4 251.9c1.7 3.8 1.2 7.9-.9 11.4-.8 1.3 1.2 2.5 2 1.2 2.7-4.2 2.9-9.2.9-13.7C548.9 249.4 546.8 250.6 547.4 251.9L547.4 251.9zM598.8 259.2c-.7 0-1.5-.1-2 .6-.7 1-1.1 2.1-1.4 3.3-.6 2.3-.2 4.7.7 6.9.6 1.4 2.6.2 2-1.2-1.1-2.6-.8-5.4.7-7.8-.3.2-.7.4-1 .6.3 0 .6 0 .9 0C600.3 261.5 600.3 259.2 598.8 259.2L598.8 259.2zM572.7 315.8c-13.1 2.6-29.9 5-37.9-8.7-4-6.9.2-14.4 4-20.3 3.9-6 8.1-12 12.1-18 .9-1.3-1.2-2.4-2-1.2-4.9 7.3-10.3 14.5-14.7 22.2-3.4 5.9-4.3 12.2-1.4 18.4 7.2 15.1 27.4 12.4 40.5 9.8C574.8 317.8 574.2 315.5 572.7 315.8L572.7 315.8zM575.7 352.7c-3.3.1-6.9-4-9.7-5.7-2.7-1.6-5.8-2.5-8.9-3-5.8-1-11.6.5-16.7 3.4-11.7 6.7-16 20.8-17.7 33.2-.2 1.5 2.2 1.5 2.4 0 1.7-12.6 6.1-25.3 17.8-31.9 6.3-3.6 14.1-3.3 20.6-.4 4.4 1.9 7.2 6.9 12.3 6.7C577.2 355 577.2 352.7 575.7 352.7L575.7 352.7z"/><path d="M594.5 373.5c0 2.2-7.9 4.6-9.9 5.6-3 1.6-5.6 3.9-8.1 6.1-6.5 6-13.4 10.8-22.6 11.6-5.9.5-11.3-2.3-16.4-4.8-4.9-2.4-11-5.4-13.9-10.2-.8-1.3-2.8-.1-2 1.2 3.2 5.2 9.5 8.4 14.8 11.1 6.1 3.1 12.1 5.6 19.2 5 9-.8 16.4-6.2 22.7-12.2 4.4-4.1 9.2-7.1 15-8.8 2.1-.6 3.6-2.5 3.6-4.7C596.8 372 594.5 372 594.5 373.5L594.5 373.5zM576 369.3c-3.7.6-7.3.5-11-.1-1.3-.2-2.5-.6-3.8-.9-3.1-1.5-3.7-2.4-1.8-2.7.6-.2 1.3-.3 1.9-.5 4.7-1.1 9.6-1.4 14.1-2.9 1.4-.5.8-2.8-.6-2.3-3.9 1.3-8 1.8-12.1 2.5-2.2.4-6.7.4-6.7 3.5 0 3.6 4.4 4.6 7.1 5.3 4.4 1.1 9.1 1 13.6.3C578.1 371.3 577.4 369.1 576 369.3L576 369.3z"/><path d="M542.5 382c6.7 1.8 13.3 2.2 20.2 1.2 1.5-.2.9-2.5-.6-2.3-6.4.9-12.7.4-18.9-1.2C541.7 379.3 541.1 381.6 542.5 382L542.5 382zM544.9 391.5c4.6-.2 9.2-.3 13.8-.5 1.5-.1 1.5-2.4 0-2.4-4.6.2-9.2.3-13.8.5C543.4 389.3 543.4 391.6 544.9 391.5L544.9 391.5zM573.4 381.7c3.6.1 7.1.2 10.7.2 1.5 0 1.5-2.3 0-2.4-3.6-.1-7.1-.2-10.7-.2C571.9 379.3 571.9 381.7 573.4 381.7L573.4 381.7zM641.5 253c1.7 10.9 3.4 21.7 5.2 32.6.1.6.9 1 1.4.8 11.8-3.5 22-10.3 32.2-17.1 2.6-1.8 5.2-3.5 7.8-5.3 2.5-1.7 5.9-3.3 8.1-5.4 1-1 .2-3.9.1-5.2-.1-3-.3-6-.4-9.1-.1-1.5-2.4-1.5-2.4 0 .1 2.6 2 11.8-.4 13.4-5.2 3.5-10.4 7-15.7 10.5-9.5 6.4-19 12.6-30 15.9.5.3 1 .5 1.4.8-1.7-10.9-3.4-21.7-5.2-32.6C643.5 250.9 641.2 251.5 641.5 253L641.5 253z"/><path d="M695.1 242.7c-8.6-.3-16.9 1.5-25.2 3.1-9 1.8-18 3.5-27 5.3-1.5.3-.9 2.6.6 2.3 8.4-1.6 16.7-3.3 25.1-4.9 8.8-1.7 17.5-3.7 26.5-3.4C696.6 245.1 696.6 242.7 695.1 242.7L695.1 242.7zM642.2 268.9c-2.6 15.2-3.8 30.6-3.5 46.1.1 4.3-.3 9.3 5.2 9.3 2.9 0 6.2-1.3 9.1-2 4.3-1 8.7-2 13-2.9 1.5-.3.9-2.6-.6-2.3-5.6 1.3-11.1 2.5-16.7 3.8-3.6.8-7.3.9-7.5-4-.1-3.2-.1-6.4-.1-9.6.1-12.7 1.3-25.3 3.4-37.8C644.7 268.1 642.4 267.5 642.2 268.9L642.2 268.9zM699 167.5c-.4 2.7-.8 4.7 1.8 6.3 2.6 1.5 6.6 1.9 9.5 2.8 2.5.7 3.5 1.5 5.7.3 3.9-2.1 3.7-7.8 3.2-11.4-1.1-8-.6-13.8 3.2-21 2.6-4.8 5.7-8.9 6.2-14.5.5-5.3 0-10.6-1.1-15.9-2.4-11.5-8.1-21-17-28.6-9.3-7.9-21-12.8-32.8-15.5-13.2-3-25.7-.6-36.4 7.6-9.8 7.5-16 18.7-20.7 29.9-5.7 13.5-9.5 27.7-11.7 42.2-.2 1.5 2 2.1 2.3.6 3.3-22.2 10-46.8 24.7-64.3 7.7-9.1 18.3-14.7 30.3-15 11.6-.3 23.8 4.3 33.7 9.9 17.8 10 29.9 30.4 26 51.3-1 5.1-4.8 9.5-7 14.1-1.7 3.6-2.8 7.4-2.9 11.4-.2 5.3 2.5 10.6.1 15.7-1.6 3.3-8.5 0-10.8-.7-2.8-.8-4.6-1.6-4.2-4.6C701.5 166.7 699.2 166 699 167.5L699 167.5zM710.8 185.4c-2.6-1.8-6.3-1.3-9.2-1-2.8.3-11 2.7-13-.3-.9-1.2-2.9-.1-2 1.2 4.9 7 16.8-2.1 23.1 2.1C710.9 188.3 712.1 186.3 710.8 185.4L710.8 185.4z"/><path d="M641.6,136.9c-4.1,2.2-7.6,6.2-7.5,11.1c0,1.7,1.2,4,2.3,5.3c1.6,1.8,4.4,0.5,5.9,2.1c1,1.1,2.7-0.5,1.7-1.7 c-2-2.2-5-0.6-6.7-3.6c-2.6-4.5,1.8-9.2,5.5-11.2C644.2,138.2,643,136.2,641.6,136.9L641.6,136.9z"/><path d="M611 136.6c2.5 4.9 5.1 11 10.7 12.9 3.6 1.2 7.1-2.1 7-5.6-.1-3.5-1.8-6.8-1.2-10.3.2-1.3.5-2.5.9-3.7 1-3.4 4-3.1 6.6-3.2 7.5-.3 12.3 2.3 16.1 8.9 3 5.1 3.7 10.4 4.2 16.2.2 2-.4 6.6 1.3 8.3 2.2 2.2 4-4 4.2-4.9 2.3-7.9 7-14 14.8-17.1.6-.2 1-.8.8-1.4-2.9-9.8-2.9-20.5 1.4-29.9 1.7-3.8 4.6-6.9 8.6-8.2 6.5-2 12.1 5 15.5 9.4 3.5 4.6 8.1 10.7 14.5 11.1 4.8.3 9.2-2 10.6-6.8.4-1.5-1.8-2.1-2.3-.6-2.3 7.8-11.2 5-15.6 1.2-3.4-3-5.8-7.1-8.8-10.5-3.7-4.4-10.3-8.2-16.1-5.6-14.1 6.2-13.8 28.3-10.2 40.5.3-.5.5-1 .8-1.4-4.8 1.9-8.7 4.8-12 8.9-1.3 1.7-2.4 3.6-3.2 5.5-.5 1.4-1 2.8-1.4 4.3-.3 1.2-.1 5.8-.5 2.2-1.1-9.6-1.2-17.6-7.1-25.8-2.3-3.2-5.7-5.6-9.7-6.3-3.2-.5-8.8-1.2-11.8.4-3 1.7-4.2 5.9-4.4 9.2-.1 3.6 1.7 7 1.2 10.6-2.3.2-4.7.3-7 .5-1-1.1-1.9-2.2-2.7-3.5-1.4-2-2.4-4.3-3.6-6.5C612.4 134.1 610.3 135.3 611 136.6L611 136.6zM711.4 176.6c-.6 2.6-1.3 5.2-1.8 7.8-.3 1.5 2 2.1 2.3.6.6-2.6 1.3-5.2 1.8-7.8C713.9 175.7 711.7 175.1 711.4 176.6L711.4 176.6zM648.8 167.7c-5.4 17.7 15.8 31.6 28.9 38.6 6.9 3.7 15.5 8 23.2 4.8 5.3-2.2 7-8.9 3.2-13.2-1-1.1-2.7.5-1.7 1.7 3.9 4.4-.4 9-4.7 10.2-3.2.9-6.8-.3-9.9-1.4-5.8-2-11.2-5.1-16.4-8.4-10.2-6.5-24.6-17.9-20.4-31.7C651.5 166.8 649.2 166.2 648.8 167.7L648.8 167.7z"/><path d="M709.5 185.8c-4.2 2.1-7.6 7.8-7.6 12.5 0 1.5 2.4 1.5 2.4 0 0-3.9 2.9-8.7 6.4-10.5C712 187.1 710.8 185.1 709.5 185.8L709.5 185.8zM724.3 127.1c-4.8 1.6-9.6 2.6-14.7 2.9-1.5.1-1.5 2.4 0 2.4 5.2-.3 10.3-1.3 15.3-3C726.4 128.9 725.8 126.6 724.3 127.1L724.3 127.1zM721.2 122.1c-3.9.6-7.7 1.2-11.6 1.8-1.5.2-.9 2.5.6 2.3 3.9-.6 7.7-1.2 11.6-1.8C723.4 124.1 722.7 121.9 721.2 122.1L721.2 122.1zM715.5 141.9c-5.7 1.4-10.9 1.5-16.7 1-4.2-.4-8.2 1.4-11.9 2.9-1.4.6-.8 2.8.6 2.3 5.1-2 9.2-3 14.7-2.5 4.6.5 9.4-.3 13.9-1.4C717.6 143.8 716.9 141.5 715.5 141.9L715.5 141.9z"/><path d="M704.1,146.6c-6.1-0.8-12.1,0.4-17.5,3.3c-1.3,0.7-0.2,2.7,1.2,2c5.1-2.7,10.6-3.7,16.3-2.9 C705.6,149.2,705.6,146.8,704.1,146.6L704.1,146.6z"/><path d="M696.4 150.5c0 .1 0 .2 0 .4 0-.3 0-.3 0-.1 0 .3-.1.5-.2.8 0 .2-.1.4-.2.5-.1.2 0 .1.1-.3-.1.3.4-.5.2-.3.3-.2.7-.4 1-.6 0 0 0 0 0 0 .4 0 .8 0 1.2 0 0 0 0 0 0 0 .3.2.7.4 1 .6.4 1 .6 1.2.5.8-.3-1.3-1.7-2-2.9-1.6-1.3.4-1.9 1.6-1.6 2.9.5 2.2 3.5 2.6 4.6.6.6-1.1.8-2.5.9-3.7.1-1.3-1.2-2.4-2.4-2.4C697.4 148.2 696.5 149.3 696.4 150.5L696.4 150.5zM667.1 197.8c-14.2 2.7-37.2 11.6-47.5-3.3-.9-1.2-2.9-.1-2 1.2 11.2 16.2 34.7 7.3 50.1 4.4C669.2 199.8 668.6 197.6 667.1 197.8L667.1 197.8z"/><path d="M668.1,201.1c0.5,9,4.2,17,8.1,24.9c0.3-0.6,0.7-1.2,1-1.8c-2.3,0.1-17.5,2.2-17.8-1.2c-0.2-3.3,1.3-7.5,1.8-10.7 c0.6-3.3,1.2-6.5,1.7-9.8c0.3-1.5-2-2.1-2.3-0.6c-0.8,4.6-1.6,9.2-2.4,13.7c-0.4,2.2-2.2,7-1,9.3c1.1,2.1,2.6,2.4,4.8,2.4 c5,0,10.1-0.4,15.1-0.7c0.9,0,1.4-1,1-1.8c-3.7-7.6-7.3-15.2-7.8-23.8C670.4,199.6,668,199.6,668.1,201.1L668.1,201.1z"/><path d="M656.7,219.8c-2.4-1.4-4.6-3.7-7.4-2.9c-0.7,0.2-0.9,0.8-0.8,1.4c0.4,2.5,2.9,10.3-0.2,11.5c-3.7,1.4-7.5,2.6-11.3,4 c-1.4,0.5-0.8,2.8,0.6,2.3c2.8-1,5.6-2,8.5-3c1.9-0.7,3.9-1.1,5.3-2.5c1-1,0.8-2.8,0.7-4c-0.4-3-0.9-5.9-1.4-8.9 c-0.3,0.5-0.5,1-0.8,1.4c1.6-0.5,4.3,1.9,5.6,2.7C656.9,222.6,658.1,220.6,656.7,219.8L656.7,219.8z"/><path d="M625.9,218.2c8.6,10.4,13.1,23.3,12.9,36.8c0,1.5,2.3,1.5,2.4,0c0.2-14.2-4.6-27.6-13.6-38.5 C626.6,215.4,624.9,217,625.9,218.2L625.9,218.2z"/><path d="M648.4 203.1c-6 7-8.9 17.4-12.5 25.7-.6 1.4 1.4 2.6 2 1.2 1.8-4.1 3.7-8.3 5.5-12.4 1.9-4.4 3.5-9.1 6.7-12.8C651.1 203.6 649.4 202 648.4 203.1L648.4 203.1zM628.5 218.7c-1.7-4.6-4.4-8.8-6.1-13.4-.5-1.4-2.8-.8-2.3.6 1.7 4.6 4.4 8.8 6.1 13.4C626.7 220.7 629 220.1 628.5 218.7L628.5 218.7zM705.4 191.7c-.2 14.7-.4 29.4-.6 44-.3 15.3-2.6 28.8-10.5 42.1-15.2 25.8-33.8 50.2-52.3 73.7-.9 1.2.7 2.9 1.7 1.7 18.7-23.7 37-48.3 52.7-74.1 7.5-12.4 10.2-25.3 10.7-39.7.6-15.9.5-31.8.7-47.7C707.7 190.2 705.4 190.2 705.4 191.7L705.4 191.7z"/><path d="M690.6 260.3c-.4 7.6-.8 15.3-1.2 22.9-.1 1.5 2.3 1.5 2.4 0 .4-7.6.8-15.3 1.2-22.9C693.1 258.8 690.7 258.8 690.6 260.3L690.6 260.3zM637.5 265.5c-6-4.1-13-5.9-20.2-5-1.5.2-1.5 2.5 0 2.4 6.8-.9 13.3.7 19 4.6C637.5 268.4 638.7 266.3 637.5 265.5L637.5 265.5zM607.6 264.3c-3.6 1.3-7.1 2.4-10.7 3.7-1.4.5-.8 2.8.6 2.3 3.6-1.3 7.1-2.4 10.7-3.7C609.7 266.1 609 263.8 607.6 264.3L607.6 264.3zM539.2 314.4c-7 5.1-12 11.9-14.9 20-.5 1.4 1.8 2 2.3.6 2.7-7.5 7.4-13.9 13.9-18.6C541.6 315.5 540.4 313.5 539.2 314.4L539.2 314.4zM492.8 371.8c-5.5 5.7-10.3 11.9-14.5 18.6-2.3 3.8-4.4 7.8-6.2 11.8-1.7 3.8-2.7 7.9-6 10.7.6.1 1.2.2 1.8.2-5.3-7.7-12-13.9-20.1-18.6 0 .7 0 1.4 0 2 3.6-1.9 5.5-4.8 5.9-8.9.1-.7-.6-1.1-1.2-1.2-4.3-.5 1-5.6 1.5-6.1 1.1-1.1 2-2.3 3-3.5 1.8-2.3 3-5.1 4-7.9 2.1-6 1.8-12.8-.3-18.8-.5-1.4-2.8-.8-2.3.6 3.4 9.8 1.1 20.4-6.1 27.8-2.7 2.8-6.5 9.3.1 10.1-.4-.4-.8-.8-1.2-1.2-.3 3.3-1.9 5.4-4.7 6.8-.8.4-.7 1.6 0 2 7.8 4.4 14.2 10.3 19.3 17.7.5.7 1.2.8 1.8.2 5.2-4.5 6.9-12.8 10.1-18.7 4.4-8.2 10.1-15.7 16.6-22.4C495.6 372.3 493.9 370.7 492.8 371.8L492.8 371.8zM580.2 420.6c.6.8-.4 1.4-1.1 1.5-1 .1-1.7-.6-2.1-1.4-.9-1.7.9-3.6 2.7-3.3-.3-.3-.5-.5-.8-.8.3 1 .6 2 .9 3 .4 1.5 2.7.8 2.3-.6-.3-1-.6-2-.9-3-.1-.4-.4-.8-.8-.8-4.3-.7-7.6 4-4.8 7.6 1.4 1.7 3.6 2.2 5.5 1.2 1.9-1 1.9-3.5.8-5C580.9 417.8 579.2 419.4 580.2 420.6L580.2 420.6zM618.6 311.5c-.7.8-1.6 1-2.6.7-1.1-.3-1.3-1.6-.9-2.5.4-1.1 1.5-1.5 2.5-1.2 1.3.4 1.6 2.2.5 3-1.2.9 0 2.9 1.2 2 2.1-1.5 2.4-4.5.5-6.4-1.9-1.8-4.9-1.4-6.3.7-1.3 1.9-1.2 4.6.8 6 1.8 1.3 4.6 1.1 6.1-.7C621.2 312 619.5 310.3 618.6 311.5L618.6 311.5zM626.4 249.7c1.3-.2 2.3 1.1 2.1 2.3-.2 1.5-1.7 2.1-3 2.1-1.4 0-1.7-1.5-1.7-2.7 0-1.2.6-2.2 1.5-3 1.2-1-.5-2.6-1.7-1.7-1.8 1.5-2.4 3.8-2.1 6.1.4 2.6 2.6 4 5.2 3.5 2.5-.5 4.4-2.6 4.2-5.3-.2-2.6-2.7-4-5.1-3.7C624.3 247.6 624.9 249.9 626.4 249.7L626.4 249.7zM583.6 328.5c-1.5-.2-2.9-.5-4.4-.9-5.3-1.5-4.2-6.5-3.4-9.8 1-4.3 2.6-8.5 3.9-12.8 2.4-7.8 4.8-15.6 7.3-23.5.4-1.5-1.8-2.1-2.3-.6-3.6 11.6-7.2 23.2-10.8 34.7-2.6 8.5 0 13.8 9 15.1C584.4 330.9 585.1 328.7 583.6 328.5L583.6 328.5z"/><path d="M591 285.8c-.9-1.4-1.9-2.7-2.8-4.1-.9-1.2-2.9-.1-2 1.2.9 1.4 1.9 2.7 2.8 4.1C589.9 288.2 591.9 287 591 285.8L591 285.8zM608.6 285.2c3.9-9.8 10.3-20.7 9.2-31.5-.1-.6-.5-1.2-1.2-1.2-4.5 0-6.3 5.3-8 8.7-3.1 6.1-5.8 12.4-8.1 18.8-.5 1.4 1.8 2 2.3.6 1.6-4.5 3.5-8.9 5.5-13.3 1.4-3 4.5-12.5 8.4-12.5-.4-.4-.8-.8-1.2-1.2 1 10.5-5.3 21.4-9.1 30.9C605.8 286 608.1 286.6 608.6 285.2L608.6 285.2z"/><path d="M585.8 282.7c6.2.3 18.7-5.6 21.1 3.1.4 1.5 2.7.8 2.3-.6-2.9-10.7-16.1-4.5-23.4-4.9C584.3 280.3 584.3 282.6 585.8 282.7L585.8 282.7zM602.9 292.9c-3.5-.6-7.2-1-10.3 1.3-2.9 2.1-3.3 6.1-3.5 9.4 0 .5.4 1 .9 1.1 3.2 1 7.5 2.1 10.4-.4 3.4-2.9 1.6-7.2 3.5-10.7.7-1.3-1.3-2.5-2-1.2-1.2 2.3-1.1 4.8-1.5 7.3-.8 5.1-6.4 3.9-9.8 2.8.3.4.6.8.9 1.1.2-2.5.4-5.1 2.1-7.1 2-2.4 6-1.7 8.7-1.3C603.7 295.4 604.4 293.1 602.9 292.9L602.9 292.9zM596.6 310.4c1.5 0 1.5-2.4 0-2.4S595.1 310.4 596.6 310.4L596.6 310.4zM591.9 310.1c1.5 0 1.5-2.4 0-2.4C590.4 307.8 590.4 310.1 591.9 310.1L591.9 310.1z"/><path d="M589.4 310.1c1.5 0 1.5-2.4 0-2.4S587.9 310.1 589.4 310.1L589.4 310.1zM595.7 314.5c1.5 0 1.5-2.4 0-2.4C594.1 312.1 594.1 314.5 595.7 314.5L595.7 314.5zM591.6 314.2c1.5 0 1.5-2.4 0-2.4C590.1 311.8 590.1 314.2 591.6 314.2L591.6 314.2zM587.2 313.6c1.5 0 1.5-2.4 0-2.4S585.7 313.6 587.2 313.6L587.2 313.6zM675.8 379c-12.7 15.2-29.7 27.1-44.9 39.7-1.2 1 .5 2.6 1.7 1.7 15.2-12.6 32.2-24.5 44.9-39.7C678.4 379.5 676.7 377.9 675.8 379L675.8 379zM580.9 450c-19.6.4-38.1-5.9-55.6-14.1-17.4-8.1-34.1-17.7-51.1-26.7-1.3-.7-2.5 1.3-1.2 2 17.5 9.3 34.8 19.1 52.7 27.5 17.3 8.1 35.9 14 55.1 13.6C582.4 452.4 582.4 450 580.9 450L580.9 450zM450.7 392.8c-4.8-7.5-7.3-15.7-7.4-24.6 0-1.5-2.4-1.5-2.4 0 .1 9.3 2.7 18 7.7 25.8C449.5 395.2 451.5 394.1 450.7 392.8L450.7 392.8zM605.2 435.8c-7.2 4-14.8 7-22.8 9.1-1.5.4-.8 2.7.6 2.3 8.2-2.2 16-5.3 23.4-9.4C607.8 437.1 606.6 435 605.2 435.8L605.2 435.8zM439 408.8c-1.5 29.9-3 59.8-3.1 89.8 0 30.6 2.2 60.9 6.3 91.2 2 14.7 3.8 29.3 4.2 44.1.2 6.8-.1 13.7-.7 20.5-.7 7.4-3.5 14.3-4.2 21.6-1.4 14.6-1.6 29.3-2.7 43.9-.9 13.2-2.6 26 5.9 37.2.1-.5.3-1.1.4-1.6-5 2.8-6.7 8.2-7.4 13.6-1.2 9.7-1.8 19.5-2.7 29.3-1.7 18-2.8 35.4 9.2 50.3 1 1.2 2.6-.5 1.7-1.7-11.1-13.7-10.2-30.1-8.7-46.7.7-7.6 1.4-15.3 2.1-22.9.6-6.7.3-16.2 7-19.9.5-.3.8-1.1.4-1.6-9-11.8-6.3-26.1-5.3-39.9.5-7 .9-14 1.3-21 .4-8 .3-16.3 2.1-24.1 6.7-28.2 2.9-56.6-.8-85-7.9-59-5.7-117.9-2.7-177.1C441.4 407.3 439 407.3 439 408.8L439 408.8z"/><path d="M503.7,844.5c-17.9-15-41.6-7.1-60,2.5c-1.3,0.7-0.2,2.7,1.2,2c17.3-9,40.1-17.1,57.2-2.9 C503.2,847.1,504.8,845.4,503.7,844.5L503.7,844.5z"/><path d="M516.7,634.6c-0.4,16.3-0.7,32.7-1.1,49c-0.4,16.2,0.1,32.7-3.7,48.6c-3.4,14.3-10.5,27.1-12,41.9 c-0.7,7.2-0.1,14.5,1.3,21.5c1.4,7.1,9.1,19.9,1.4,25.5c-0.6,0.4-0.7,1-0.4,1.6c3.5,7.5,3.3,15.6-0.6,22.9 c-0.7,1.3,1.3,2.5,2,1.2c4.3-8,4.5-17,0.6-25.3c-0.1,0.5-0.3,1.1-0.4,1.6c3.7-2.7,5.2-7.1,4.3-11.6c-1.7-8.5-5-16.2-5.9-25 c-1.6-17.5,5.2-32.3,10.4-48.4c5.1-15.6,4.7-32.4,5.1-48.6c0.4-18.3,0.8-36.6,1.3-54.9C519.1,633.1,516.8,633.1,516.7,634.6 L516.7,634.6z"/><path d="M499.9,843.9c-1.9,5.7,0.5,10.8,3.5,15.6c4.5,7.1,6.4,14.3,7,22.7c0.8,10.5-9.3,13.7-17.7,14.4 c-8.6,0.7-17.6,0.9-26-0.9c-7.5-1.6-14.3-5.9-18.3-12.5c-1.8-2.9-1.5-11.9-6.3-11.9c-0.9,0-2.6,0.5-2.8,1.7 c-0.1,0.4-0.1,0.8-0.2,1.2c0,0.7-0.5,0.8-1.6,0.2c-0.3-2.3,0.2-4.8,0.3-7.1c0.5-9.1,1-18.2,1.5-27.2c0.1-1.5-2.3-1.5-2.4,0 c-0.6,10.4-1.1,20.8-1.7,31.1c-0.1,1.7,0.6,11,5,7.2c1-0.8,0.9-0.9,1.2-2.3c0-0.9,0.7-0.9,2.1,0.1c0.1,0.9,0.3,1.8,0.5,2.8 c0.6,2.9,2.1,5.8,3.9,8.1c5.1,6.3,12,9.7,19.8,11.4c8.5,1.8,17.7,1.2,26.4,0.5c5.8-0.5,12.9-2.2,16.2-7.5 c3.9-6.4,1.9-13.1,0.8-20.1c-1.4-9.1-12.2-17.3-9-26.7C502.6,843,500.4,842.4,499.9,843.9L499.9,843.9z"/><path d="M474.6 839.8c7.9 8-9 18.2-14.6 21.3-4.8 2.7-8.7 1.5-13.5 0-1.4-.4-1.9.2-2.7 1.2-.9 1.2 1.1 2.4 2 1.2.4-.5 5.9 1.5 6.5 1.7 1.8.5 3.8 0 5.5-.5 4.2-1.2 8.4-4.4 11.7-7.1 5.5-4.5 13.5-12.5 6.7-19.4C475.2 837.1 473.6 838.7 474.6 839.8L474.6 839.8zM500.2 852.6c-5-3-8.2-7.9-9.1-13.6-.2-1.5-2.5-.9-2.3.6 1 6.3 4.7 11.7 10.2 15C500.3 855.4 501.5 853.4 500.2 852.6L500.2 852.6z"/><path d="M511.6 877.6c-8.4 0-16.8 0-25.2 0-8.6 0-18.1-.2-26.1-3.7-5.2-2.3-9.4-6.8-13.1-10.9-2-2.2-6.1-6-6.8-8.6-.4-1.4-2.7-.8-2.3.6.8 2.8 4.1 5.7 5.9 7.9 4.1 4.8 8.7 9.4 14.2 12.5 6.6 3.8 15.5 4.2 23 4.5 10.2.4 20.4.1 30.6.1C513.1 879.9 513.1 877.6 511.6 877.6L511.6 877.6zM493.5 845.9c-5.5-.1-11.1-.3-16.6-.4-1.5 0-1.5 2.3 0 2.4 5.5.1 11.1.3 16.6.4C495 848.3 495 846 493.5 845.9L493.5 845.9zM491 841.1c-4.6-1.3-9.4-1.6-14.1-1.1-1.5.2-1.5 2.5 0 2.4 4.6-.6 9.1-.2 13.5 1C491.8 843.8 492.5 841.5 491 841.1L491 841.1zM493 893c-3.5 1.8-5.7-3.2-9-2.3-1.3.3-2.2.8-3.4 1.5-2.7 1.7-4.5-1.6-6-2.9-1.3-1.1-3-.4-4.2.3-3.9 2.1-7.1-2.2-10.7-.2-.9.5-.1 2 .9 1.5 2.9-1.7 6.1 2.3 9.4.9 4.6-1.9 4.4 1.9 7.7 2.8 3.8 1.1 4.8-3.9 9.5-1.1 2.3 1.4 4.1 2.4 6.6 1C494.8 893.9 494 892.5 493 893L493 893zM741.8 865.7c-5.5 9.3-19.9 10.6-29.6 11-11.1.6-22.1-1.4-32.8-3.9-20.4-4.8-40.5-11.5-60.6-17.4-1.5-.4-2.1 1.8-.6 2.3 23.1 6.8 46.3 14.9 69.9 19.4 10.3 2 21.2 2.9 31.7 1.4 8.7-1.3 19.2-3.3 24-11.5C744.6 865.6 742.6 864.4 741.8 865.7L741.8 865.7zM651 873.1c-.7 3.1.1 6.8-4.2 7.1-3.6.3-7.1-.7-10.5-1.5-4.1-1-8.2-2-12.2-3-3.3-.8-5.6-3.1-5.4-6.7.1-2.1-.8-4.7-.1-6.7.5-1.4-1.7-2-2.3-.6-1.4 3.7-.5 9.6 1.7 13 2.9 4.5 11.3 4.8 16 5.9 4.5 1.1 9.7 2.8 14.5 1.9 5.2-1 4-4.5 4.9-8.7C653.6 872.2 651.3 871.6 651 873.1L651 873.1z"/><path d="M743.6 867.8c6.6 14.4-12.6 20.3-22.9 21.5-11.5 1.4-23.3 1-34.7-1.1-6.5-1.2-13.3-2.2-19.6-4.1-3.2-1-5.5-2.5-7-5.6-1.6-3.3-2.7-5.6-6-7.4-1.3-.7-2.5 1.3-1.2 2 4.6 2.5 4.2 7.6 7.9 10.5 2.1 1.6 4.7 2.5 7.3 3.2 9.9 2.5 20.3 4.4 30.4 5.3 11.6 1 26.3 1.3 37.2-3.6 8.4-3.8 14.9-12.5 10.7-21.8C745 865.2 743 866.4 743.6 867.8L743.6 867.8zM693.9 829.3c-7.5 3.7-15.3 6.7-22.7 10.7-5.1 2.8-9.6 6.3-14.8 8.9-6 3.1-12.6 4.6-19.3 5.1-3.8.3-7.7.1-11.5-.1-4-.3-8.1-2.1-5.8-6.9.6-1.2 1.2-2.3 1.7-3.5 1.7-4.2-2.5-6.2-5.7-7.1-4.9-1.4-5.5-8.1-6.6-12.3-1.4-5-2.8-10.1-4.1-15.1-4.8-17.5-9.7-35-14.5-52.5-.4-1.5-2.7-.8-2.3.6 5.3 19.4 10.7 38.7 16.1 58.1 1.4 5 2.8 10.1 4.1 15.1.8 2.8 1.7 5.2 4 7.1 3 2.3 8.9 1.4 5.9 7.3-1.3 2.6-2.4 4.7-1.3 7.6 2.2 5.4 12.7 4.2 17 4.2 7-.1 13.9-1.4 20.4-4.1 4.8-2 9.1-4.8 13.4-7.6 8.5-5.6 18.2-9.1 27.3-13.5C696.4 830.6 695.2 828.6 693.9 829.3L693.9 829.3zM643.8 627.8c-.8 4.3-2.1 8.4-4 12.4-.3.6-.1 1.2.4 1.6 5.1 4 7.2 10.3 5.6 16.5-.4 1.5 1.9 2.1 2.3.6 1.9-7.4-.7-14.6-6.7-19.2.1.5.3 1.1.4 1.6 1.9-4.2 3.3-8.4 4.2-13C646.4 626.9 644.1 626.3 643.8 627.8L643.8 627.8z"/><path d="M657.7,728.3c-0.4-15.5-0.9-31.1-1.3-46.6c-0.2-7.1,2.3-26.4-8.7-26.9c-1.5-0.1-1.5,2.3,0,2.4 c6.8,0.3,6,12.3,6.1,16.8c0.2,5.8,0.3,11.7,0.5,17.5c0.4,12.3,0.7,24.6,1.1,36.9C655.4,729.9,657.7,729.9,657.7,728.3 L657.7,728.3z"/><path d="M666.9,772c2.5-5.9-1.3-11.3-7.6-11.4c0.4,0.5,0.8,1,1.1,1.5c2.8-10.4,7.1-21.2,7.3-32c0.2-8.2-4.3-16.1-10.6-21.1 c-1.2-0.9-2.8,0.7-1.7,1.7c16.6,13.3,7.2,33.9,2.6,50.8c-0.2,0.7,0.4,1.5,1.1,1.5c4.5,0.1,7.2,4.1,5.3,8.5 C664.1,772.8,666.3,773.4,666.9,772L666.9,772z"/><path d="M662.8,752.8c4,6.1,7.9,12.2,10.5,19.1c1.3,3.5,1.9,7.3,2,11c0.1,4.1-1,7.9-0.5,12c0.7,5.6,4.6,10.7,7.5,15.3 c4.4,7,8.8,14,13.3,21c0.8,1.3,2.8,0.1,2-1.2c-4.1-6.5-8.2-12.9-12.2-19.4c-4.6-7.3-9.1-13.5-8.1-22.5 c1.6-14-4.8-25.2-12.3-36.5C664,750.4,661.9,751.6,662.8,752.8L662.8,752.8z"/><path d="M672.1 782.4c-16.5 10.3-37.8 5.5-48.1-11.1-.8-1.3-2.8-.1-2 1.2 10.9 17.7 33.7 23 51.3 12C674.6 783.6 673.4 781.6 672.1 782.4L672.1 782.4zM662.5 726.7c-8.2 2.1-16-3.9-22.5-8.2-6.2-4.1-12.1-8.7-17.6-13.7-1.1-1-2.8.6-1.7 1.7 6.6 5.9 13.6 11.2 21 16 6.4 4.1 13.5 8.5 21.4 6.5C664.6 728.6 664 726.4 662.5 726.7L662.5 726.7zM667.8 804.8c-9.4-5.1-19.6-3.5-27.7 3.2-8.6 7.2-13.3 18.8-24.2 23.2-1.4.6-.8 2.8.6 2.3 17.9-7.3 26.2-39.6 50.1-26.6C667.9 807.6 669.1 805.5 667.8 804.8L667.8 804.8zM680.8 824.2c-18-10.6-31 17.2-48.9 11.9-1.5-.4-2.1 1.8-.6 2.3 7.5 2.2 14.4-.8 20.7-4.7 8.1-5.1 17.7-13.2 27.6-7.4C680.9 827 682.1 825 680.8 824.2L680.8 824.2zM642.5 693.9c.5 5.5-6 5.5-9.6 4.8-3.5-.7-6.4-3-8.5-5.7-.9-1.2-2.6.5-1.7 1.7 3.4 4.3 8.1 6.6 13.5 6.8 4.5.2 9.1-2.6 8.6-7.5C644.7 692.4 642.3 692.3 642.5 693.9L642.5 693.9zM647.7 662.8c-8.7 1.5-17.1-.7-24.1-6-1.2-.9-2.4 1.1-1.2 2 7.6 5.7 16.7 7.8 26 6.2C649.8 664.8 649.1 662.5 647.7 662.8L647.7 662.8zM642 645.9c-5.1-1.3-10.2-.2-14.4 3.1-1.2.9.5 2.6 1.7 1.7 3.5-2.7 7.8-3.6 12.1-2.5C642.8 648.6 643.5 646.3 642 645.9L642 645.9zM545.8 537.5c-11.7 32.7-23.9 65.2-28.9 99.8-.2 1.5 2 2.1 2.3.6 5-34.6 17.2-67.1 28.9-99.8C548.6 536.7 546.3 536.1 545.8 537.5L545.8 537.5z"/><path d="M577.6 706.4c-7.9-51.4-18.7-101.9-34.7-151.4-.5-1.4-2.7-.8-2.3.6 16 49.5 26.8 100 34.7 151.4C575.6 708.6 577.8 707.9 577.6 706.4L577.6 706.4zM451.7 420.5c-1.7 41.5-1.8 83-.1 124.4 1.6 38.2 7.9 78.8-5.9 115.6-.5 1.4 1.7 2 2.3.6 13.7-36.4 7.7-76.4 6.1-114.2-1.8-42.1-1.8-84.3 0-126.4C454.1 419 451.7 419 451.7 420.5L451.7 420.5z"/><path d="M524.1 454.7c-1 9-2 18-2.9 26.9-.5 4.6-.9 9.3-1.6 13.9-1.1 7.2-6.8 7.3-12.7 7-18.6-.8-36.8-6.5-52.9-15.6-1.3-.7-2.5 1.3-1.2 2 17.9 10.2 38.3 16 59 16.1 8.4 0 9.9-6.8 10.7-13.8 1.3-12.2 2.7-24.4 4-36.6C526.6 453.2 524.3 453.2 524.1 454.7L524.1 454.7zM615.6 422.6c9.2 16.4 14.7 34 17.2 52.6 2.5 18.9 1.8 38.1 1.2 57.1 0 1.5 2.3 1.5 2.4 0 .6-19.7 1.1-39.4-1.5-59-2.4-18.3-8.2-35.8-17.3-51.9C616.9 420.1 614.9 421.3 615.6 422.6L615.6 422.6zM646.4 627.1c-2.6-10.6-3.6-21.2-2.8-32.1.1-1.5-2.2-1.5-2.4 0-.9 11.1.2 21.9 2.9 32.7C644.5 629.2 646.8 628.5 646.4 627.1L646.4 627.1z"/><path d="M599.2,444.2c-6.8,14.4,1.5,28.5,9.4,40.5c2.5,3.9,6.1,9.1,11.2,9.4c6.1,0.4,10.4-3.6,14.3-7.8c1-1.1-0.6-2.8-1.7-1.7 c-3.6,3.9-7.9,8.2-13.7,6.9c-5.2-1.2-8.6-8.5-11.1-12.6c-6.3-10-11.9-22-6.4-33.6C601.9,444,599.9,442.8,599.2,444.2 L599.2,444.2z"/><path d="M602.8 446.3c5.9 5.6 11.6 11.2 15.2 18.6 4.1 8.4 2.7 18.4 1.5 27.3-.2 1.5 2.2 1.5 2.4 0 1.1-8.9 2.4-18.5-1.2-27-3.5-8.2-9.8-14.5-16.2-20.5C603.4 443.6 601.7 445.3 602.8 446.3L602.8 446.3zM592.6 455.1c-4.4 4.4-9.5 8-15.2 10.6-1.4.6-.2 2.7 1.2 2 5.9-2.7 11.1-6.4 15.7-11C595.4 455.7 593.7 454 592.6 455.1L592.6 455.1zM554.7 472.7c.1-3.2-1.7-5.4-4.3-7.1-4.2-2.8-9.6-4.4-14.2-6.4-1.4-.6-2.6 1.4-1.2 2 2.9 1.3 5.8 2.6 8.7 3.9 3.4 1.5 8.7 3 8.6 7.6C552.3 474.2 554.6 474.2 554.7 472.7L554.7 472.7zM604.3 492.5c-13.7-3.2-28-5.1-38.6 5.9-10.4 10.8-16.6 27.1-20.4 41.3-.4 1.5 1.9 2.1 2.3.6 3.5-13.2 9.1-25.9 17.1-37 9.7-13.5 24.6-11.9 39.1-8.6C605.1 495.1 605.7 492.9 604.3 492.5L604.3 492.5zM609.8 524.5c-10.4.1-20.3-2.3-29.4-7.3-1.3-.7-2.5 1.3-1.2 2 9.5 5.2 19.8 7.8 30.6 7.7C611.3 526.8 611.3 524.4 609.8 524.5L609.8 524.5z"/><path d="M557.1,511.3c11.2,23.4,18.2,48.6,20.7,74.4c1.3,12.8,0.3,25.8,1.8,38.6c1.4,12.2,6.3,23.8,11,35 c0.6,1.4,2.8,0.8,2.3-0.6c-5.1-12.3-10-24.7-11.3-38.1c-1.2-12.8-0.4-25.7-1.8-38.5c-2.7-25-9.8-49.3-20.6-72 C558.5,508.8,556.5,509.9,557.1,511.3L557.1,511.3z"/><path d="M574.4 553.9c7.6 5.6 15.3 11.2 22.9 16.8 1.2.9 2.4-1.1 1.2-2-7.6-5.6-15.3-11.2-22.9-16.8C574.3 551 573.2 553 574.4 553.9L574.4 553.9zM579.5 567c3.9 3.1 7.2 6.8 10 10.9.8 1.3 2.9.1 2-1.2-2.9-4.3-6.3-8.2-10.3-11.4C580 564.4 578.3 566.1 579.5 567L579.5 567zM580.3 584.1c3.9 3.9 7.7 7.7 11.6 11.6 1.1 1.1 2.7-.6 1.7-1.7-3.9-3.9-7.7-7.7-11.6-11.6C580.9 581.4 579.3 583 580.3 584.1L580.3 584.1zM530.1 570.6c-3.4 4.7-6.4 9.7-8.9 14.9-.4.8.1 1.7 1 1.8 1.5.1 3 .2 4.4.3 1.5.1 1.5-2.2 0-2.4-1.5-.1-3-.2-4.4-.3.3.6.7 1.2 1 1.8 2.5-5.3 5.4-10.2 8.9-14.9C533 570.6 531 569.4 530.1 570.6L530.1 570.6zM456.1 646.8c14.1-19.9 26.2-41.1 36-63.3.6-1.4-1.4-2.6-2-1.2-9.9 22.3-21.9 43.5-36 63.3C453.2 646.8 455.2 648 456.1 646.8L456.1 646.8zM455 581.8c9.1-13.4 16.1-28.1 20.7-43.7.4-1.5-1.8-2.1-2.3-.6-4.5 15.4-11.4 29.9-20.4 43.1C452.1 581.9 454.2 583.1 455 581.8L455 581.8zM515.2 701.8c-6.2-3.5-12.4-6.4-19.6-4.9-7.2 1.5-12.5 7.9-16.9 13.2-1 1.2.7 2.8 1.7 1.7 4.1-4.9 8.3-9.7 14.5-12.1 6.7-2.6 13.5 1.1 19.2 4.3C515.3 704.6 516.5 702.6 515.2 701.8L515.2 701.8zM453.7 705.7c8.4-7.9 12.3 6.6 14.3 12.2 2.4 6.8 4.8 13.6 7.3 20.4.5 1.4 2.8.8 2.3-.6-3.7-10.3-6.9-21-11.2-31.1-2.5-5.9-9.9-6.7-14.3-2.5C451 705.1 452.6 706.8 453.7 705.7L453.7 705.7zM444.1 731.5c12.8 9.8 25.7 19.4 37.9 29.9 2.8 2.4 5.4 4.9 8.1 7.4 1.3 1.3 2.6 2.5 3.9 3.8 1 1 2 2.1 2.8 3.3 0 4.6-1.6 6.7-4.7 6.4-8 .3-15.7-4.3-20.3-10.6-.9-1.2-2.9 0-2 1.2 5.1 6.9 12.4 11 20.9 11.7 7.5.7 11.9-4.5 7.3-11.2-2.9-4.3-7.7-7.9-11.5-11.3-4.5-4.1-9.2-8-13.9-11.8-8.9-7.2-18.1-14-27.2-20.9C444 728.5 442.9 730.6 444.1 731.5L444.1 731.5zM463.7 789.3c2.6 11.1-10 12.6-17.8 12.3-1.5-.1-1.5 2.3 0 2.4 5.6.2 11.2.2 16-3.1 3.9-2.7 5.1-7.7 4.1-12.1C465.6 787.2 463.4 787.8 463.7 789.3L463.7 789.3zM494.1 819.7c.9.1 1.8.1 2.6.2.8.1 1.2-.8 1.1-1.5-1.5-9.4-16-11.1-23.3-12.3-11.9-1.9-24.1-.8-35.5 2.6-1.4.4-.8 2.7.6 2.3 9.6-2.9 19.4-3.9 29.3-3.2 7.1.5 25.1 2.1 26.6 11.2.4-.5.8-1 1.1-1.5-.9-.1-1.8-.1-2.6-.2C492.6 817.2 492.6 819.6 494.1 819.7L494.1 819.7zM446.3 817.8c3.3 1.1 6.6 2 10 2.4 2.2.3 4.4.4 6.7.4 1.1 0 2.1-.1 3.2-.1 3.2 1.6 3.7 2.5 1.3 2.8-1.5.4-.8 2.7.6 2.3 2.2-.7 3.1-.5 3.9-2.6.6-1.7-1.1-3.2-2.3-4.1-2-1.5-6.2-.6-8.4-.6-4.9 0-9.8-1.1-14.4-2.7C445.5 815.1 444.9 817.4 446.3 817.8L446.3 817.8zM486.4 825.4c-10.9 2.4-21.9 3.4-33.1 3-1.5-.1-1.5 2.3 0 2.4 11.4.4 22.6-.6 33.7-3.1C488.6 827.4 487.9 825.1 486.4 825.4L486.4 825.4zM437 819.2c2.3.5 4.5.9 6.8 1.4-.3-.3-.5-.5-.8-.8.4 2.8-1.4 5.4-4.1 6.1-1.5.4-.8 2.7.6 2.3 4-1.1 6.4-5 5.7-9-.1-.4-.5-.7-.8-.8-2.3-.5-4.5-.9-6.8-1.4C436.2 816.6 435.6 818.9 437 819.2L437 819.2z"/><path d="M498.3 822.1c-5.5-1.6-11-3.1-16.6-4.7-2.3-.6-4.7-.4-5.3 2.2-.3 1.5 2 2.1 2.3.6.4-1.9 17.1 3.6 18.9 4.1C499.1 824.8 499.7 822.5 498.3 822.1L498.3 822.1zM608.6 812.8c2-4.5 7.4-3.7 9.9-.1 2.7 3.9.4 11.2-5.2 9.6-1.5-.4-2.1 1.9-.6 2.3 7.6 2.1 10.8-6.5 8.3-12.4-2.6-5.9-11.5-6.8-14.3-.6C606 812.9 608 814.1 608.6 812.8L608.6 812.8zM689 833.9c5 4.5 4.6 10.8 2.6 16.6-2.3 6.9-6.3 13-14.1 13.7-11 1-22.4-4.7-30-12.2-1.1-1.1-2.7.6-1.7 1.7 9.1 9 25.2 16.7 38 11.4 5.8-2.4 8.7-10.1 10.6-15.6 2-6 1.1-12.9-3.8-17.3C689.5 831.3 687.9 832.9 689 833.9L689 833.9z"/><path d="M745.3 866.4c-2.6-9.9-13-12.6-22-14-13.8-2.2-25.2-8.7-30.2-22.4-.5-1.4-2.8-.8-2.3.6 3.3 9.2 9.9 16.4 18.7 20.6 10.4 5 29.7 1.6 33.4 15.8C743.5 868.4 745.7 867.8 745.3 866.4L745.3 866.4zM618.1 864.2c.4-3.8.6-7.4.7-11.3 0-1.5-2.3-1.5-2.4 0-.1 3.8-.3 7.5-.7 11.3C615.6 865.7 617.9 865.7 618.1 864.2L618.1 864.2z"/><path d="M697.4 831.4c-3 1.6-6 3.2-9 4.9-1.3.7-.1 2.7 1.2 2 3-1.6 6-3.2 9-4.9C699.9 832.7 698.7 830.7 697.4 831.4L697.4 831.4zM701.9 836.7c-5.1 1.3-9.7 3.9-13.5 7.6-1.1 1.1.6 2.7 1.7 1.7 3.5-3.4 7.7-5.8 12.4-7C703.9 838.5 703.3 836.3 701.9 836.7L701.9 836.7zM709.2 316.6c-2.8-3.8-6-7.3-9.7-10.1-4.8-3.6-11.3-5.9-14.3-11.3-.7-1.3-2.8-.1-2 1.2 2.1 3.8 5.5 6 9.1 8.2 5.9 3.5 10.8 7.7 14.9 13.2C708 319 710.1 317.8 709.2 316.6L709.2 316.6zM729.5 233.1c-10.6-.1-10.3-10.6-12.3-18.2-1.6-6.1-4.7-11.8-8.4-16.9-.9-1.2-2.9 0-2 1.2 5.8 8 8.2 16.3 10.1 25.8 1.3 6.4 6.2 10.4 12.6 10.5C731 235.4 731 233.1 729.5 233.1L729.5 233.1zM760.2 122.9c-10.5-.2-21 .1-31.5-.1-1.5 0-1.5 2.3 0 2.4 10.5.2 21-.1 31.5.1C761.7 125.3 761.7 123 760.2 122.9L760.2 122.9zM761.2 223.3c-9.3.2-18.6.3-27.9.5-1.5 0-1.5 2.4 0 2.4 9.3-.2 18.6-.3 27.9-.5C762.7 225.6 762.7 223.2 761.2 223.3L761.2 223.3z"/><path d="M759.5 126.3c4.5 7.3 6.8 15.2 6.7 23.7 0 8.3-2.9 16.6-4.5 24.7-3.3 16.3-3.9 33-2.3 49.5.1 1.5 2.5 1.5 2.4 0-1.8-18.2-.6-36.5 3.4-54.4 1.7-7.7 3.6-15.3 3.4-23.3-.3-7.6-3-15.1-7-21.5C760.8 123.9 758.7 125 759.5 126.3L759.5 126.3zM724.4 138.7c-4.2 12.6.8 26.2 2.8 38.7 2.6 15.8 3.8 31.8 3.8 47.8 0 1.5 2.4 1.5 2.4 0 0-13.6-.9-27.3-2.7-40.8-1-7-2.2-13.9-3.6-20.8-1.6-8.1-3.1-16.2-.4-24.3C727.1 137.9 724.9 137.3 724.4 138.7L724.4 138.7z"/><path d="M785.2 220.4c-24.4 3.8-49.1 5.2-73.8 4.2-1.5-.1-1.5 2.3 0 2.4 24.9 1 49.8-.4 74.5-4.3C787.3 222.5 786.6 220.2 785.2 220.4L785.2 220.4zM736.6 123.6c1.1-8.9 1.9-18 3.5-26.9.8-4.7 2.7-8.8 6.8-11.3 3.7-2.3 8.8-2.2 12.9-2.4 5.7-.3 19.5-1.3 20.2 6.7.5 6.3 1.5 12.2 3.7 18.2.5 1.4 2.8.8 2.3-.6-1.6-4.6-2.7-9.2-3.3-14.1-.3-2.4.2-6.3-1.5-8.2-5-5.6-16.5-4.6-23.1-4.2-7.4.5-15.5 1.9-18.6 9.7-1.8 4.5-2.2 9.4-2.8 14.2-.8 6.3-1.6 12.7-2.4 19C734.1 125.1 736.5 125.1 736.6 123.6L736.6 123.6zM813.4 215.7c-2.9-4.9-6.5-9.7-8.1-15.2-1.1-3.7-.6-6.5-3.6-9.2-1.1-1-2.8.6-1.7 1.7 3.2 2.9 2.4 7.9 4.2 11.7 2.1 4.2 4.7 8.2 7.1 12.2C812.1 218.2 814.2 217 813.4 215.7L813.4 215.7z"/><path d="M785.5 110.2c8.2.5 10.2 13.9 12.1 19.9 2.3 7.3 5 14.7 5.2 22.5.3 8.2-5.4 14.1-8.7 20.9-2.7 5.6-3.4 12-2.7 18.2.1.7.5 1.1 1.2 1.2 1.1.1 2.1.3 3.2.4 1.5.2 1.5-2.2 0-2.4-1.1-.1-2.1-.3-3.2-.4.4.4.8.8 1.2 1.2-1.1-9.9 2.4-17.4 7.4-25.6 4.1-6.7 4.6-13.4 3.2-21-1.6-8.6-4.8-17.3-7.6-25.6-1.7-5.3-5.1-11.3-11.2-11.7C783.9 107.8 783.9 110.1 785.5 110.2L785.5 110.2zM784.4 132.5c-4.1 0-8.2 0-12.2 0-1.5 0-1.5 2.4 0 2.4 4.1 0 8.2 0 12.2 0C785.9 134.9 785.9 132.5 784.4 132.5L784.4 132.5zM766.2 122.4c-2-.4-3.9.1-5.5 1.4-1.2 1 .5 2.6 1.7 1.7.9-.7 2.1-1 3.2-.8C767.1 125 767.7 122.7 766.2 122.4L766.2 122.4z"/><path d="M785.2 219.5c-6.4-6.5-11-14.3-13.7-23-3.2-10.3-1.2-20.8.8-31.1 2.8-14.4 5-31.2-6-42.8-1-1.1-2.7.6-1.7 1.7 13.6 14.4 5.5 35.2 3.4 52.2-2 17 3.6 32.6 15.5 44.8C784.6 222.3 786.2 220.6 785.2 219.5L785.2 219.5zM767.4 203.5c1.5 0 1.5-2.4 0-2.4C765.9 201.2 765.9 203.5 767.4 203.5L767.4 203.5z"/><path d="M812.7 215.4c-8.8 1.8-17.8 4.4-26.8 4.3-1.5 0-1.5 2.3 0 2.4 9.3 0 18.4-2.5 27.4-4.4C814.8 217.4 814.2 215.1 812.7 215.4L812.7 215.4zM781.5 165.7c-2.8-.1-5.6-.2-8.5-.3-1.5-.1-1.5 2.3 0 2.4 2.8.1 5.6.2 8.5.3C783.1 168.2 783 165.8 781.5 165.7L781.5 165.7zM780.7 180.4c-2.6 3.8-7.2 5.8-11.8 5.1-1.5-.2-2.1 2-.6 2.3 5.7.9 11.2-1.4 14.5-6.1C783.6 180.4 781.5 179.2 780.7 180.4L780.7 180.4zM785.7 132.5c-.5-4.5-1-9-1.6-13.5-.3-2.6-1.1-5.9-3.3-7.6-2.8-2.1-5.8-2.4-9.2-2.4-5-.1-10-.1-15-.2-1.5 0-1.5 2.3 0 2.4 6.3.1 13-.4 19.3.5 7.6 1.1 6.8 15.1 7.5 20.9C783.5 134 785.9 134 785.7 132.5L785.7 132.5z"/><path d="M780.6,89.2c-6.4,0.2-12.8,0.1-19.2,0.5c-5,0.3-5.5,4.9-5.9,8.9c-0.6,6.2-5.7,28.9,7.5,26c1.5-0.3,0.9-2.6-0.6-2.3 c-8,1.8-5.7-10.6-5.4-14.1c0.4-3.8,0.7-7.7,1.1-11.5c0.7-7.2,17.8-5,22.5-5.2C782.1,91.5,782.1,89.2,780.6,89.2L780.6,89.2z"/><path d="M779,82.8c-4.7-2.3-11.9-3.2-16.7-0.9c-2.3,1-5,2.1-6.3,4.4c-1.2,2.1,0.3,5.7-0.1,7.9c-0.3,1.5,2,2.1,2.3,0.6 c0.3-1.4,0.3-2.6,0.2-4.1c-0.3-3.4,1.1-4.8,3.9-6.3c4.4-2.3,11.2-1.8,15.6,0.4C779.2,85.5,780.4,83.4,779,82.8L779,82.8z"/><path d="M765.8,103.1c-0.5-3.8,0.1-7.5,1.6-11c0.6-1.4-1.4-2.6-2-1.2c-1.9,4.1-2.5,8.4-1.9,12.8 C763.7,105.3,766,104.6,765.8,103.1L765.8,103.1z"/><path d="M773.3 108.2c-.4-.2-.7-.5-1.2-.5-1.3-.1-2.3-1.5-3.3-2.3-1.2-.9-2.7-1.3-4.1-1.6-3-.5-6.3.3-8.6 2.4-1.1 1 .5 2.7 1.7 1.7 2.4-2.1 6.2-2.3 9-1 1.3.6 1.8 1.9 2.9 2.6.8.5 1.7.3 2.4.8C773.4 111 774.6 109 773.3 108.2L773.3 108.2zM729.2 191.6c-6.2-4.8-9.9 4.5-11.8 8.8-3.2 7.5-8.4 15.8-6.3 24.3.4 1.5 2.6.8 2.3-.6-1.5-6.2 1.5-11.8 3.9-17.3 1-2.3 2-4.6 3-6.9.9-2.2 3.4-9.6 7.8-6.2C729.2 194.5 730.3 192.5 729.2 191.6L729.2 191.6zM783 133.4c-1.6 19.6-1.6 39.2-3.2 58.7-.1 1.5 2.2 1.5 2.4 0 1.6-19.6 1.6-39.2 3.2-58.7C785.5 131.9 783.1 131.9 783 133.4L783 133.4z"/><path d="M800.2 163.5c-5.5 2.6-11.3 2.1-17.2 1.9-1.5 0-1.5 2.3 0 2.4 6.4.1 12.4.5 18.4-2.3C802.7 164.9 801.5 162.9 800.2 163.5L800.2 163.5zM800 133.9c-4.9-.4-9.7-.9-14.6-1.3-1.5-.1-1.5 2.2 0 2.4 4.9.4 9.7.9 14.6 1.3C801.5 136.4 801.5 134 800 133.9L800 133.9zM800.5 190.7c-10 .7-20.1 1.2-30.1 1.9-1.5.1-1.5 2.5 0 2.4 10-.7 20.1-1.2 30.1-1.9C802 192.9 802 190.6 800.5 190.7L800.5 190.7zM789.1 222.7c2 4.4-.5 5.7-2.5 9-.7 1.3-.6 3.2-.9 4.7-.2.8.4 1.5 1.1 1.5 3.7.1 7.4.2 11.1.3-.4-.4-.8-.8-1.2-1.2.4 6.4-1.5 12.3-4 18.1-.6 1.4 1.4 2.6 2 1.2 2.6-6.2 4.8-12.5 4.3-19.3 0-.7-.5-1.2-1.2-1.2-3.7-.1-7.4-.2-11.1-.3.4.5.8 1 1.1 1.5.3-1.2.5-2.4.7-3.7.2-.9 2.2-2.4 2.7-3.5 1.2-2.9 1.1-5.4-.2-8.2C790.5 220.1 788.5 221.3 789.1 222.7L789.1 222.7zM731.6 226.5c0 1.1 0 2.2 0 3.3 0 .6.4.9.9 1.1 1.3.5 2.6 1 3.8 1.5.5.2-3.4.5-3.6.5-2.1.5-3.2 1.5-4.4 3.1-2.1 2.9-1.8 9.8 1.5 11.5.2-.7.4-1.5.6-2.2-2.3-.2-4.7-.3-7-.5-.4 0-.9.2-1 .6-1.5 3.5-1 6.8 1.7 9.5 0-.6 0-1.1 0-1.7-3 3.5-8.4 7.6-8 12.7.1 1.5 2.5 1.5 2.4 0-.3-3.8 5-8.3 7.3-11 .4-.5.5-1.2 0-1.7-2.2-1.7-2.4-3.7-.6-5.9 1.8.1 3.5.2 5.3.3 1.2.1 1.6-1.7.6-2.2-2.4-1.2-1.5-6.6-.7-8.3 1.7-3.6 3.4-1.5 5.5-2 1.1-.3 2.6-.6 2.9-1.9.3-.9.1-1.9-.6-2.7-2.1-2.1-4.2-.3-4.2-4.2C734 225 731.6 225 731.6 226.5L731.6 226.5z"/><path d="M800.6 266.1c.8-1.5-.1-3.2.6-4.5.4-.8-.1-1.8-1-1.8-2.9 0-5.8-.1-8.6-.1.4.4.8.8 1.2 1.2 0-.9 0-1.9 0-2.8 0-.6-.5-1.2-1.2-1.2-2.5 0-5 0-7.5 0 .4.4.8.8 1.2 1.2 0-.4 0-.8 0-1.3-.4.4-.8.8-1.2 1.2 3-.2 6-.4 9-.6 1.5-.1 1.5-2.5 0-2.4-3 .2-6 .4-9 .6-.6 0-1.2.5-1.2 1.2 0 .4 0 .8 0 1.3 0 .6.5 1.2 1.2 1.2 2.5 0 5 0 7.5 0-.4-.4-.8-.8-1.2-1.2 0 .9 0 1.9 0 2.8 0 .6.5 1.2 1.2 1.2 2.9 0 5.8.1 8.6.1-.3-.6-.7-1.2-1-1.8-.8 1.5.1 3.2-.6 4.5C797.9 266.3 799.9 267.4 800.6 266.1L800.6 266.1zM771 198.1c-3.2-1.2-6.8-1.8-9.6.4-2.5 1.9-2.7 5.6-.9 8 1.9 2.7 5.4 3 8.2 1.7 3.2-1.4 4.4-5.2 4-8.4-.2-1.5-2.6-1.5-2.4 0 .3 2.1-.1 3.9-1.6 5.5-1.6 1.7-4.3 1.7-6.1.2-1.9-1.7-1.1-4.5.8-5.7 2.1-1.3 4.8-.3 6.9.5C771.7 200.9 772.4 198.6 771 198.1L771 198.1zM788.3 229.2c-16.3.3-32.6.5-48.9.8-1.5 0-1.5 2.4 0 2.4 16.3-.3 32.6-.5 48.9-.8C789.8 231.5 789.8 229.2 788.3 229.2L788.3 229.2zM788.7 234.9c-17.3-.1-34.6-.1-52-.2-1.5 0-1.5 2.3 0 2.4 17.3.1 34.6.1 52 .2C790.3 237.2 790.3 234.9 788.7 234.9L788.7 234.9zM797 244.6c-2.8 0-5.6 0-8.5 0-1.5 0-1.5 2.4 0 2.4 2.8 0 5.6 0 8.5 0C798.5 246.9 798.5 244.6 797 244.6L797 244.6zM728.3 247.9c17.5 0 35-.1 52.4-.1 1.5 0 1.5-2.4 0-2.4-17.5 0-35 .1-52.4.1C726.8 245.6 726.8 247.9 728.3 247.9L728.3 247.9z"/><path d="M783.8 255.4c-19.6 0-39.2 0-58.8 0-1.5 0-1.5 2.4 0 2.4 19.6 0 39.2 0 58.8 0C785.3 257.7 785.3 255.4 783.8 255.4L783.8 255.4zM793.2 260.2c-13.1.3-26.1.6-39.2 1-6.1.1-12.2.2-18.3.5-5.5.3-10.4-.5-15.9-1.1-1.5-.2-1.5 2.2 0 2.4 5.5.7 10.2 1.5 15.9 1.1 6.1-.4 12.2-.3 18.3-.5 13.1-.3 26.1-.6 39.2-1C794.7 262.5 794.7 260.2 793.2 260.2L793.2 260.2z"/><path d="M726.5 257.1c-.1 1.5-.2 3-.2 4.5-.1 1.5 2.3 1.5 2.4 0 .1-1.5.2-3 .2-4.5C728.9 255.5 726.6 255.6 726.5 257.1L726.5 257.1zM800.1 264.1c-27.4 2.5-54.9 2.9-82.3 1.1-1.5-.1-1.5 2.3 0 2.4 27.4 1.7 54.9 1.4 82.3-1.1C801.5 266.3 801.6 263.9 800.1 264.1L800.1 264.1z"/><path fill="none" stroke="#000" stroke-width="2.35" stroke-miterlimit="10" d="M780.4,243.4c0.8-3.5,3-5.3,5.1-4 c2,1.3,3.1,5.2,2.3,8.7c-0.7,3.5-3,5.3-5,4C780.6,250.8,779.6,246.9,780.4,243.4z"/><path d="M773.9 267.8c-.7 4.6-1.5 9.2-2.2 13.8-.2 1.5 2 2.1 2.3.6.7-4.6 1.5-9.2 2.2-13.8C776.4 266.9 774.1 266.3 773.9 267.8L773.9 267.8zM736.7 268.3c.1 4.4.1 8.8.2 13.2 0 1.5 2.4 1.5 2.4 0-.1-4.4-.1-8.8-.2-13.2C739.1 266.8 736.7 266.8 736.7 268.3L736.7 268.3z"/><path d="M771.8 281.7c-11 0-21.9.1-32.9.1-1.5 0-1.5 2.4 0 2.4 11 0 21.9-.1 32.9-.1C773.3 284 773.3 281.7 771.8 281.7L771.8 281.7zM815.3 308c-13.4-.5-26.6 1.4-39.4 5.3-1.4.4-.8 2.7.6 2.3 12.7-3.8 25.6-5.7 38.8-5.2C816.8 310.4 816.8 308 815.3 308L815.3 308zM807.1 282.1c-13.6.5-27.2 2.4-40.4 5.8-1.5.4-.8 2.6.6 2.3 13-3.3 26.3-5.2 39.8-5.7C808.6 284.4 808.6 282 807.1 282.1L807.1 282.1z"/><path d="M777.1 314.4c-4.5-7.5-7.8-15.7-9.8-24.2-.3-1.5-2.6-.9-2.3.6 2 8.8 5.4 17.1 10 24.8C775.9 316.8 777.9 315.7 777.1 314.4L777.1 314.4zM817 308.1c-3.6-8.2-6.6-16.7-9.2-25.3-.4-1.5-2.7-.8-2.3.6 2.6 8.8 5.7 17.4 9.4 25.8C815.6 310.7 817.6 309.5 817 308.1L817 308.1zM746.4 289.1c-3.4-.5-6.7-1.2-10-2.1-.6-.2-1.2-.4-1.8-.5-.8-.3.8-3 .9-3.3.9-1.8 1.8-3.5 2.7-5.3.7-1.3-1.3-2.5-2-1.2-1.2 2.3-2.4 4.7-3.6 7-.7 1.3-1.5 2.9-.2 4.2 1.4 1.4 4.4 1.7 6.2 2.1 2.6.6 5.2 1.1 7.8 1.4C747.9 291.6 747.9 289.3 746.4 289.1L746.4 289.1zM737.2 270.9c-4-1.1-8-1.8-11.4 1-2.1 1.7-4.5 12.6-7.5 11.2-1.4-.6-2.6 1.4-1.2 2 3.4 1.5 5.5-1.3 6.7-4.1 1-2.5 1.8-5.5 3.7-7.5 2.2-2.4 6.5-1.1 9.1-.4C738 273.6 738.6 271.3 737.2 270.9L737.2 270.9zM736 315.6c-8.1-5.5-17.2-7.9-26.9-7.1-1.5.1-1.5 2.5 0 2.4 9.4-.8 17.9 1.5 25.7 6.8C736 318.5 737.2 316.5 736 315.6L736 315.6z"/><path d="M716.6 284.6c-2.9 8.1-5.9 16.2-8.8 24.3-.5 1.4 1.8 2 2.3.6 2.9-8.1 5.9-16.2 8.8-24.3C719.4 283.8 717.1 283.1 716.6 284.6L716.6 284.6zM746.6 290.3c-3.8 8.5-7.6 16.9-11.4 25.4-.6 1.4 1.4 2.6 2 1.2 3.8-8.5 7.6-16.9 11.4-25.4C749.3 290.1 747.3 288.9 746.6 290.3L746.6 290.3zM803.9 282.8c-1.3-3.3-2.5-6.6-3.8-10-.8-2.1-2-3.7-4.1-4.5-2.6-1-6.6 0-9.2.2-3.5.3-6.9.5-10.4.8-1.5.1-1.5 2.5 0 2.4 5.4-.4 10.7-.8 16.1-1.2 1.6-.1 3-.2 4.2 1 .9.9 1.3 2.5 1.8 3.6 1.1 2.8 2.1 5.6 3.2 8.3C802.1 284.8 804.4 284.2 803.9 282.8L803.9 282.8zM774.1 276.3c1 3 2 5.9 3 8.9.5 1.4 2.8.8 2.3-.6-1-3-2-5.9-3-8.9C775.9 274.2 773.6 274.9 774.1 276.3L774.1 276.3z"/><path d="M772.5 309.5c-10.4-.9-20.8-2-31.2-2.9-1.5-.1-1.5 2.2 0 2.4 10.4.9 20.8 2 31.2 2.9C774 312 774 309.6 772.5 309.5L772.5 309.5zM722.4 266.6c-.7 4.3-1.3 8.7-2 13-.2 1.5 2 2.1 2.3.6.7-4.3 1.3-8.7 2-13C724.9 265.7 722.7 265.1 722.4 266.6L722.4 266.6zM752.1 283.5c-1 1.8-.7 4.4 1.4 5.2 1.6.7 3.5.6 5.2.8 2.2.2 4.4.4 6.5.5 1.5.1 1.5-2.2 0-2.4-1.9-.2-3.7-.3-5.6-.5-1.4-.1-7 .2-5.5-2.5C754.8 283.4 752.8 282.2 752.1 283.5L752.1 283.5zM768.9 282.9c.1 1.6.1 3.1.2 4.7.1 1.5 2.4 1.5 2.4 0-.1-1.6-.1-3.1-.2-4.7C771.1 281.4 768.8 281.4 768.9 282.9L768.9 282.9z"/><path d="M768.1 299.6c-4.1 0-8.2 0-12.4.1-.9 0-1.7 0-2.6 0-1.8 0-1.4-2.6-1.4-3.6-.1-2.2-.2-4.5-.4-6.7-.3.4-.6.8-.9 1.1.5-.2 1-.4 1.5-.5 1.4-.5.8-2.8-.6-2.3-.5.2-1 .4-1.5.5-.5.2-.9.6-.9 1.1.2 2.9.3 5.8.5 8.7.1 1.5.5 3.2 2.1 3.7 2.2.7 4.8.3 7.1.3 3.2 0 6.3 0 9.5-.1C769.6 301.9 769.6 299.6 768.1 299.6L768.1 299.6zM800.6 301.9c-3.6.2-7.1 1.2-10.3 3-1.3.7-.1 2.8 1.2 2 2.8-1.6 5.8-2.5 9.1-2.7C802.1 304.2 802.1 301.8 800.6 301.9L800.6 301.9zM723.2 303.3c-2.7.1-5.4.2-8.1.4-1.5.1-1.5 2.4 0 2.4 2.7-.1 5.4-.2 8.1-.4C724.7 305.6 724.7 303.3 723.2 303.3L723.2 303.3zM700 194c-2 0-4 0-6 0-1.5 0-1.5 2.4 0 2.4 2 0 4 0 6 0C701.6 196.3 701.6 194 700 194L700 194zM484.2 265.9c-4.5 4.6-12-1.5-15.2-4.7-3.1-3-6.9-6.1-6.3-10.6 1.5-11.5 1.6-23 .4-34.5-.2-1.5-2.5-1.5-2.4 0 .8 7.7 1 15.3.6 23-.2 4.4-.7 8.7-1.3 13.1-.4 3.1-.1 2.8 2.2 5.1 5 5 15.7 18.4 23.6 10.3C486.9 266.5 485.2 264.9 484.2 265.9L484.2 265.9zM432 277.9c-7.3-2.3-14.7.9-17.8 8-.6 1.4 1.4 2.6 2 1.2 2.6-6.1 8.8-8.9 15.1-6.9C432.8 280.6 433.4 278.3 432 277.9L432 277.9zM429.8 315.1c15.5 1.8 30.9-3.9 41.6-15.3 1-1.1-.6-2.8-1.7-1.7-10.3 11-25 16.3-39.9 14.6C428.3 312.6 428.3 314.9 429.8 315.1L429.8 315.1zM495.1 372.1c3.2-7 4.5-14.2 3.7-21.9-.3-2.7-3-9.6-6.8-5.1-.9 1.1-1 1.3-1.7 2.5-2.1 3.8-5.5 2.6-8.6 2.5-1.6 0-4.5.6-5.3 2.2-2.8 5.4 4.1 12.1 7.4 15.9 1 1.1 2.7-.5 1.7-1.7-1.6-1.9-12.4-14.4-2.6-14.1 2.3.1 5.9.8 7.7-1.3.6-.7 4.3-6.3 5.4-3.5.9 2.2.7 5.1.7 7.4.1 5.4-1.4 10.8-3.7 15.7C492.5 372.3 494.5 373.5 495.1 372.1L495.1 372.1zM463.2 346c2.9-2.2 5.7-4.6 8.8-6.5 1.8-1.1 3.9-1.5 6-1.2 3.1.4 4.9 4.1 2.5 6.4-1.1 1.1.6 2.7 1.7 1.7 3.2-3 1.9-8.8-2.5-10.1-7.2-2.1-13 3.9-18.2 8C460.4 345.3 462.1 346.9 463.2 346L463.2 346zM488.5 317.8c-8.5 9.8-20.3 15.8-33.2 16.8-1.5.1-1.5 2.5 0 2.4 13.6-1.1 25.9-7.2 34.9-17.5C491.2 318.3 489.5 316.7 488.5 317.8L488.5 317.8zM474.8 314.2c-2.1 2.8-6.1 4.3-9.1 5.9-3.4 1.9-6.8 3.7-10.2 5.6-1.3.7-.1 2.8 1.2 2 3.8-2.1 7.7-4.2 11.5-6.3 3.1-1.7 6.5-3.1 8.6-6.1C477.7 314.2 475.7 313 474.8 314.2L474.8 314.2zM524.5 333.8c-12.7 9.9-20 25.2-19.7 41.2 0 1.5 2.4 1.5 2.4 0-.3-15.5 6.7-30 19-39.6C527.3 334.6 525.6 332.9 524.5 333.8L524.5 333.8zM514.3 378.4c-5.4 6-14.3 4.2-21.3 6.7-6.2 2.1-9.3 8.9-15.9 10.4-1.5.3-.9 2.6.6 2.3 7.5-1.7 11.3-9.4 18.8-11.3 6.9-1.8 14.2-.6 19.4-6.4C517 378.9 515.3 377.2 514.3 378.4L514.3 378.4zM588.7 413.9c-14 .8-28 .5-42-1-7.4-.8-14.8-1.9-22.1-3.3-3.7-.7-7.4-1.5-11-2.4-4.7-1.1-6-3.1-6-7.6-.4.4-.8.8-1.2 1.2 13.4 1.3 26.8 2.6 40.2 3.8 8.3.8 20.2 1.1 21.6-9.7.2-1.5-2.2-1.5-2.4 0-1.5 12.1-21 7.2-28.8 6.4-10.2-1-20.4-1.9-30.6-2.9-.6-.1-1.2.6-1.2 1.2 0 4.3-.4 7.2 4.1 8.9 8 3 17.4 4 25.8 5.3 17.7 2.8 35.7 3.5 53.6 2.5C590.2 416.1 590.2 413.8 588.7 413.9L588.7 413.9zM580 437.7c-15.2 1.5-30.2-.3-44.7-5.2 0 .8 0 1.5 0 2.3 15.1-4.2 30.5-6.6 46.2-7.1 1.5 0 1.5-2.4 0-2.4-15.9.5-31.5 2.9-46.8 7.2-1.2.3-1.1 1.9 0 2.3 14.6 5 29.9 6.8 45.3 5.3C581.5 439.9 581.5 437.6 580 437.7L580 437.7zM606.6 151.8c-2-3.5-6-5.3-10-4.5-1.5.3-.9 2.6.6 2.3 2.9-.6 5.9.8 7.4 3.4C605.3 154.3 607.4 153.2 606.6 151.8L606.6 151.8zM599 152.7c-2.9 12.1-.6 24.5 6.4 34.8.8 1.2 2.9.1 2-1.2-6.6-9.8-8.8-21.5-6.1-33C601.6 151.9 599.3 151.3 599 152.7L599 152.7zM511 186.4c-13.1 1.8-25.3 6.8-35.8 14.9-1.2.9 0 3 1.2 2 10.4-7.9 22.3-12.9 35.2-14.7C513.1 188.5 512.4 186.2 511 186.4L511 186.4zM502.4 179.7c-7.8.7-14.8 4.2-19.8 10.3-1 1.2.7 2.8 1.7 1.7 4.6-5.5 11-8.9 18.2-9.6C503.9 181.9 503.9 179.6 502.4 179.7L502.4 179.7zM512.5 190.5c-7.7 7.6-16.7 13.4-26.9 17.2-1.4.5-.8 2.8.6 2.3 10.5-4 19.9-9.9 27.9-17.8C515.3 191.1 513.6 189.5 512.5 190.5L512.5 190.5zM524 275.1c-1.2.9-.3 1.4-1.3.5-1.5-1.4-2.7-.6-3-3.8-.4-4.1 1.2-8.8 2.7-12.5.6-1.4-1.4-2.6-2-1.2-2 4.8-4.5 11.7-2.3 16.8.3.7 1 1.1 1.6 1.5.8.5 1.6 1.4 2.3 1.8 1.4.7 2.6-.7 3.6-1.5C526.8 275.8 525.2 274.2 524 275.1L524 275.1zM495 257.1c4.8 5.2 6.3 12.2 4.1 18.9-.5 1.4 1.8 2.1 2.3.6 2.4-7.5.6-15.4-4.7-21.2C495.6 254.4 494 256 495 257.1L495 257.1z"/><path d="M416.8 275.7c-2.8-2.3 2.6-1.7 3.6-1.6 2.3.4 4.5 1.5 6.3 3 1.2 1 2.8-.7 1.7-1.7-3.4-2.8-7.4-4.2-11.8-3.9-3.8.3-4 3.7-1.4 5.8C416.4 278.3 418 276.7 416.8 275.7L416.8 275.7zM587.5 452.1c-3 2.3-6 4.6-9.1 6.9-1.2.9 0 2.9 1.2 2 3-2.3 6-4.6 9.1-6.9C589.9 453.2 588.7 451.1 587.5 452.1L587.5 452.1z"/><path fill="none" stroke="#000" stroke-width="2.7" stroke-miterlimit="10" d="M785.6,548.4c0,2.5,2.7,4.5,5.9,4.5h16.7 c3.3,0,5.9-2,5.9-4.5l0,0c0-2.5-2.7-4.5-5.9-4.5h-16.7C788.2,543.9,785.6,545.9,785.6,548.4L785.6,548.4z"/><path fill="#FFF" stroke="#000" stroke-width="2.7" stroke-miterlimit="10" d="M749.4 307c2.1-.3 4.1 1.2 4.4 3.3L794 611.4c.3 2.1-1.2 4.1-3.3 4.4-2.1.3-4.1-1.2-4.4-3.3l-40.2-301.1C745.8 309.2 747.3 307.2 749.4 307zM827.7 615.7c-2.1.3-4.1-1.2-4.4-3.3l-40.2-301.1c-.3-2.1 1.2-4.1 3.3-4.4 2.1-.3 4.1 1.2 4.4 3.3L831 611.4C831.3 613.5 829.8 615.4 827.7 615.7zM793.7 555.6l15.8-1.9c3.1-.4 5.9 1.8 6.3 4.9l31.2 263.9c.4 3.1-1.8 5.9-4.9 6.3l-15.8 1.9c-3.1.4-5.9-1.8-6.3-4.9l-31.2-263.9C788.4 558.7 790.6 555.9 793.7 555.6z"/><path fill="#FFF" stroke="#000" stroke-width="2.7" stroke-miterlimit="10" d="M778,304c2.2-0.7,4.6,0.6,5.3,2.8 l103.8,297.1l8.1-2.6L803.5,305c-0.7-2.2,0.6-4.6,2.8-5.3c2.2-0.7,4.6,0.6,5.3,2.8l104.6,338l70.7,216.2c1,3-0.6,6.1-3.6,7.1 l-15.1,4.9c-3,1-6.1-0.6-7.1-3.6l-82.6-252.5c-0.6-1.9-0.2-3.8,0.9-5.2L775.2,309.3C774.5,307,775.8,304.7,778,304z"/><path fill="#FFF" stroke="#000" stroke-width="3.03" stroke-miterlimit="10" d="M510.5,904.7l115.1-340.3 c0.8-2.2,2.1-4,3.6-4.9l79.9-244.1c1.1-3.4,3.7-5.7,5.7-5c2,0.7,2.8,4,1.7,7.4l-79.4,242.5l8.1,2.7l80.6-246.2 c1.1-3.4,3.7-5.7,5.7-5c2,0.7,2.8,4,1.7,7.4l-196,598.8C535.5,927.5,509.4,916.2,510.5,904.7z"/><path d="M799.1 569.8c.1.3.1.3.1.6 0-.2-.1.2 0 0-.1.3.1 0-.1.1.1-.1.1-.1.2-.1.2 0-.1-.1 0 0 .1.1-.1-.1 0 0 0 .1 0 .2 0 .2-.2.2-.4.5-.5.7.5-.2 1-.4 1.5-.7.6-.3.7-1.1.4-1.6-.4-.6-1-.7-1.6-.4-.5.2-.9.4-1.4.6-.6.3-.8.8-.8 1.4.1 1 .8 1.8 1.8 2 2 .6 3.4-1.9 2.7-3.5-.2-.6-.8-1-1.4-.8C799.4 568.5 798.9 569.2 799.1 569.8L799.1 569.8zM902.7 625c.4-.5.6.3.4.7-.5 1-2 1.1-3 1.1.3.1.6.2.8.3-1-.9-.6-2.7 1-2.5 1.5.2 2.1-2 .6-2.3-2-.3-4.1.8-4.5 2.9-.2 1 .1 2 .7 2.9.9 1.2 2 1 3.3.7 2.2-.4 4.1-2.3 3.5-4.6-.5-1.8-3.2-2.5-4.4-1C900.1 624.5 901.8 626.2 902.7 625L902.7 625zM852.7 606.9c-1.4.2-2.7.4-4.1.7-1.5.2-.9 2.5.6 2.3 1.4-.2 2.7-.4 4.1-.7C854.8 609 854.2 606.7 852.7 606.9L852.7 606.9zM851.8 613.5c-1.4.2-2.7.4-4.1.6-.6.1-1 .9-.8 1.4.2.7.8.9 1.4.8 1.4-.2 2.7-.4 4.1-.6.6-.1 1-.9.8-1.4C853 613.6 852.4 613.4 851.8 613.5L851.8 613.5zM853.3 621.5c-1.6.2-3.1.5-4.7.7-1.5.2-.9 2.5.6 2.3 1.6-.2 3.1-.5 4.7-.7C855.4 623.6 854.8 621.3 853.3 621.5L853.3 621.5z"/><path d="M847 609.2c-.6 2-2.1 4.9-1.7 7.1.1.6.4 1.1.6 1.7.6 1.7.8 3.6 1.1 5.3.2 1.5 2.5.9 2.3-.6-.3-2.3-.7-4.5-1.6-6.6-.2-.4 0-.9.1-1.4.4-1.7 1-3.3 1.5-4.9C849.7 608.4 847.5 607.7 847 609.2L847 609.2zM852 608c.2 4.7.4 9.4.6 14.1.1 1.5 2.4 1.5 2.4 0-.2-4.7-.4-9.4-.6-14.1C854.3 606.5 852 606.5 852 608L852 608z"/><path d="M847.1 610.7c-2.2.6-4.5.4-6.6 1-1.5.4-.8 2.7.6 2.3 2.2-.6 4.5-.4 6.6-1C849.2 612.6 848.6 610.3 847.1 610.7L847.1 610.7zM846.1 616.8c-1.6 0-3.1 0-4.7 0-1.5 0-1.5 2.4 0 2.4 1.6 0 3.1 0 4.7 0C847.6 619.2 847.6 616.8 846.1 616.8L846.1 616.8z"/><path d="M838.4 606.4c.5 4.6 1 9.2 1.5 13.8.2 1.5 2.5 1.5 2.4 0-.5-4.6-1-9.2-1.5-13.8C840.6 604.9 838.2 604.9 838.4 606.4L838.4 606.4zM788.4 626.2c15.7.2 31.3.4 47 .7 1.5 0 1.5-2.3 0-2.4-15.7-.2-31.3-.4-47-.7C786.9 623.9 786.9 626.2 788.4 626.2L788.4 626.2z"/><path d="M837.5,627.1c-0.5-5.3-0.2-10.5,0.8-15.7c0.3-1.5-2-2.1-2.3-0.6c-1.1,5.4-1.4,10.8-0.9,16.3 C835.3,628.6,837.7,628.6,837.5,627.1L837.5,627.1z"/><path d="M841.2 619.1c-1.8 2.2-3.5 4.4-5.3 6.6-.9 1.2.7 2.8 1.7 1.7 1.8-2.2 3.5-4.4 5.3-6.6C843.8 619.6 842.2 617.9 841.2 619.1L841.2 619.1zM837.9 605.8c.1 1.8-.5 3.5-1.8 4.7-1.1 1 .5 2.7 1.7 1.7 1.8-1.6 2.7-4 2.5-6.4C840.2 604.3 837.8 604.3 837.9 605.8L837.9 605.8z"/><path d="M785.7 612.8c16.8-.7 33.7-1.4 50.5.1 1.5.1 1.5-2.2 0-2.4-16.8-1.5-33.7-.8-50.5-.1C784.2 610.5 784.2 612.9 785.7 612.8L785.7 612.8zM841.5 605.6c-2.9-1.8-6.3-2.6-9.8-2.2-1.5.2-1.5 2.5 0 2.4 3.1-.4 6 .2 8.6 1.9C841.6 608.4 842.8 606.4 841.5 605.6L841.5 605.6zM891.1 722.1c-5.8-5.3.1-14.7 7.3-10.8 1.3.7 2.5-1.3 1.2-2-4.2-2.3-8.8-1.5-11.7 2.4-2.7 3.8-1.8 9 1.5 12C890.6 724.7 892.2 723.1 891.1 722.1L891.1 722.1z"/><path d="M897.8 711.7c-.1 4.7-3.3 8.7-7.8 10-1.5.4-.8 2.7.6 2.3 5.5-1.6 9.4-6.5 9.6-12.3C900.2 710.2 897.8 710.2 897.8 711.7L897.8 711.7zM944.8 712.6c-11.8 2.8-23.5 5.6-35.3 8.3-1.5.3-.8 2.6.6 2.3 11.8-2.8 23.5-5.6 35.3-8.3C946.9 714.5 946.3 712.3 944.8 712.6L944.8 712.6z"/><path d="M901.5 702.5c.9 7 1 14.8 5.7 20.6 1 1.2 2.6-.5 1.7-1.7-4.2-5.1-4.2-12.6-5-18.9C903.7 701 901.3 701 901.5 702.5L901.5 702.5zM946.4 713.2c-2.2-6.2-5.7-12.9-5.4-19.6.1-1.5-2.3-1.5-2.4 0-.3 6.9 3.2 13.8 5.5 20.2C944.6 715.2 946.9 714.6 946.4 713.2L946.4 713.2z"/><path d="M896.5 709.5c.7-7 9.1-5.3 14-6 9.4-1.3 18.8-4.4 27.6-7.7 1.4-.5.8-2.8-.6-2.3-5.2 1.9-10.5 3.6-15.9 5.1-4.7 1.3-9.5 2.6-14.3 2.8-6 .3-12.4.8-13.2 8.1C894 711 896.4 711 896.5 709.5L896.5 709.5zM907.8 721.9c-3.4 2.3-8 .6-8.4-3.6-.2-1.5-2.5-1.5-2.4 0 .6 5.9 7 9.1 12 5.7C910.3 723.1 909.1 721.1 907.8 721.9L907.8 721.9z"/><path d="M904.4 715.6c-1.4 0-2.7 0-4.1 0-1.5 0-1.5 2.4 0 2.4 1.4 0 2.7 0 4.1 0C905.9 717.9 905.9 715.6 904.4 715.6L904.4 715.6zM903.8 707.7c-1 0-2.1 0-3.1 0-1.5 0-1.5 2.4 0 2.4 1 0 2.1 0 3.1 0C905.3 710.1 905.3 707.7 903.8 707.7L903.8 707.7zM589.3 157.8c-26.5 2.9-51.7 12.5-71.6 30.5-1.1 1 .5 2.7 1.7 1.7 19.4-17.6 44.1-27 70-29.8C590.8 159.9 590.9 157.6 589.3 157.8L589.3 157.8zM592.1 346.1c-15.2-10.2-32.7-15.8-48.9-24.2-14.3-7.4-28.4-17.9-34.7-33.2-.6-1.4-2.8-.8-2.3.6 14.4 34.7 56.7 39.9 84.7 58.8C592.2 349 593.4 346.9 592.1 346.1L592.1 346.1zM544.7 274.7c-6.4.2-12.9.4-19.3.6-1.5.1-1.5 2.4 0 2.4 6.4-.2 12.9-.4 19.3-.6C546.2 277 546.2 274.6 544.7 274.7L544.7 274.7zM673.6 306.6c-9.4 1.2-18 6.1-26.5 10-1.4.6-.2 2.7 1.2 2 8.1-3.7 16.4-8.5 25.4-9.6C675 308.7 675.1 306.4 673.6 306.6L673.6 306.6zM626.2 306.5c1-5.4-5.2-6.5-9-4.8-6.6 2.8-12.9 6.6-18.9 10.6-1.2.8-.1 2.9 1.2 2 3.5-2.4 7.1-4.6 10.9-6.6 1.9-1 3.8-2 5.7-2.9 1.2-.6 2.4-1.1 3.7-1.5 1.6-.5 4.6.2 4.2 2.6C623.6 307.4 625.9 308 626.2 306.5L626.2 306.5zM649.1 339.1c-6.6 3.5-13.1 7-18.6 12.2-1.1 1.1.6 2.7 1.7 1.7 5.3-5.1 11.7-8.5 18.1-11.9C651.7 340.5 650.5 338.4 649.1 339.1L649.1 339.1zM689.3 250.6c-2.4 6.4-7.3 11.5-13.5 14.5-1.4.6-.2 2.7 1.2 2 6.8-3.2 11.9-8.9 14.5-15.9C692.1 249.8 689.8 249.2 689.3 250.6L689.3 250.6zM520.5 202.7c-6.1 3.5-11.1 8.5-14.4 14.8-.7 1.3 1.3 2.5 2 1.2 3.1-5.9 7.7-10.6 13.5-13.9C523 204 521.8 201.9 520.5 202.7L520.5 202.7zM451.3 259.6c-1.9-5.3-7.7-8.4-13.1-6.8-1.5.4-.8 2.7.6 2.3 4.2-1.2 8.7 1 10.2 5.1C449.6 261.6 451.8 261 451.3 259.6L451.3 259.6z"/><path fill="#FFF" stroke="#000" stroke-width=".65" stroke-miterlimit="10" d="M556,249.2l51.8-1.1 c0.7,0,1.2-0.6,1.2-1.3l-0.2-7.2c0-0.7-0.5-1.2-1.1-1c-0.1,0-0.3,0-0.4,0l-51.2,1.1c-0.1,0-0.3,0-0.4,0 c-0.6-0.1-1.1,0.4-1.1,1.1l0.2,7.2C554.8,248.7,555.3,249.2,556,249.2z"/><path d="M606.6 246.7l-3.5.1 0-1.3 1.5 0 0-1.5-1.3 0 0-1.3 1.3 0 0-1.3-1.3 0 0-1.3 3.4-.1L606.6 246.7zM599.5 240.2l.1 3 1.1-3 1.7 0 .1 6.6-1.7 0-.1-3-1 3-1.8 0-.1-6.6L599.5 240.2zM592.5 242.5c0-.5 0-1 .1-1.2s.4-.5.7-.8c.4-.2.9-.3 1.5-.3.6 0 1.1.1 1.5.3.4.2.6.5.7.8.1.3.1.7.1 1.4l0 2c0 .5 0 .8 0 1 0 .2-.1.4-.3.7-.1.2-.4.4-.7.5-.3.1-.6.2-.9.2-.3 0-.5 0-.7-.1-.2-.1-.4-.2-.5-.4l-.2.5-1.3 0-.1-3.6 2.4-.1 0 1-.4 0 0 .8c0 .3 0 .5.1.6.1.1.2.2.3.2.1 0 .2-.1.3-.1 0-.1.1-.3.1-.6l-.1-3.2c0-.3 0-.5-.1-.6 0-.1-.1-.1-.3-.1-.1 0-.2.1-.3.1 0 .1-.1.3 0 .7l0 .6-2 0L592.5 242.5zM591.7 240.4l.1 6.6-2 0-.1-6.6L591.7 240.4zM586 240.5l.1 3 1.1-3 1.7 0 .1 6.6-1.7 0-.1-3-1 3-1.8 0-.1-6.6L586 240.5zM583.7 247.2l-3.5.1 0-1.3 1.5 0 0-1.5-1.3 0 0-1.3 1.3 0 0-1.3-1.3 0 0-1.3 3.4-.1L583.7 247.2zM579.6 247.3l-3.5.1 0-1.3 1.5 0 0-1.5-1.3 0 0-1.3 1.3 0 0-1.3-1.3 0 0-1.3 3.4-.1L579.6 247.3zM575.5 247.4l-2 0-.1-3c-.3 0-.4.1-.5.1-.1.1-.1.3-.1.7l0 2.2-1.9 0 0-1.7c0-.5 0-.9 0-1s.1-.3.2-.4c.1-.1.4-.3.8-.4-.4 0-.7-.1-.9-.3-.2-.2-.2-.5-.2-1 0-.6.1-1 .3-1.2.2-.3.5-.4.8-.5.3-.1 1-.1 1.9-.1l1.4 0L575.5 247.4zM572.9 242c-.1.1-.1.2-.1.4l0 .4c0 .3.1.5.1.5.1.1.3.1.5.1l0-1.5C573.2 241.9 573 241.9 572.9 242zM570.1 240.8l.1 6.6-2 0-.1-6.6L570.1 240.8zM564.5 241l.1 3 1.1-3 1.7 0 .1 6.6-1.7 0-.1-3-1 3-1.8 0-.1-6.6L564.5 241zM557.4 243.3c0-.5 0-1 .1-1.2s.4-.5.7-.8c.4-.2.9-.3 1.5-.3.6 0 1.1.1 1.5.3.4.2.6.5.7.8.1.3.1.7.1 1.4l0 2c0 .5 0 .8 0 1 0 .2-.1.4-.3.7-.1.2-.4.4-.7.5-.3.1-.6.2-.9.2-.3 0-.5 0-.7-.1-.2-.1-.4-.2-.5-.4l-.2.5-1.3 0-.1-3.6 2.4-.1 0 1-.4 0 0 .8c0 .3 0 .5.1.6.1.1.2.2.3.2.1 0 .2-.1.3-.1 0-.1.1-.3.1-.6l-.1-3.2c0-.3 0-.5-.1-.6 0-.1-.1-.1-.3-.1-.1 0-.2.1-.3.1 0 .1-.1.3 0 .7l0 .6-2 0L557.4 243.3zM607.3 236.5l-2.7.1-.1-3.6-.7 0c-.6 0-1.1 0-1.4-.2-.4-.1-.6-.3-.8-.6-.1-.3-.2-.7-.2-1.2l0-.8c0-.6 0-1 .1-1.2.1-.3.2-.5.4-.7.2-.2.5-.3.9-.4.4-.1 1-.2 1.7-.2l2.7-.1L607.3 236.5zM603.8 229.3c-.1.1-.2.3-.2.6l0 .7c0 .3.1.5.2.7.1.1.3.2.5.1.1 0 .1 0 .2 0l0-2.3C604.1 229.2 603.9 229.2 603.8 229.3zM600.7 236.6l-2.7.1-.1-4c-.4 0-.6.1-.7.2-.1.1-.1.4-.1.9l.1 3-2.5.1-.1-2.4c0-.7 0-1.2 0-1.3 0-.2.2-.3.3-.5.2-.2.5-.4 1.1-.5-.6 0-1-.2-1.2-.4-.2-.2-.3-.7-.3-1.4 0-.8.1-1.3.4-1.7.3-.4.6-.6 1.1-.7.5-.1 1.3-.2 2.6-.2l1.9 0L600.7 236.6zM597.2 229.4c-.1.1-.2.3-.2.6l0 .5c0 .4.1.6.2.7.1.1.3.1.6.1l0-2C597.5 229.3 597.3 229.3 597.2 229.4zM587.3 231.7c0-.9 0-1.6 0-1.9 0-.4.2-.7.5-1 .3-.3.6-.6 1.1-.7.4-.2.9-.3 1.5-.3.6 0 1.1.1 1.5.2.4.2.8.4 1.1.7.3.3.4.6.5 1 .1.4.1 1 .1 1.9l0 1.5c0 .9 0 1.6 0 1.9 0 .4-.2.7-.5 1-.3.3-.6.6-1.1.7-.4.2-.9.3-1.5.3-.6 0-1.1-.1-1.5-.2-.4-.2-.8-.4-1.1-.7-.3-.3-.4-.6-.5-1-.1-.4-.1-1-.1-1.9L587.3 231.7zM590.1 234.3c0 .5 0 .9.1 1 .1.1.2.2.4.2.2 0 .3-.1.3-.2 0-.1.1-.4.1-1l-.1-4.2c0-.5-.1-.7-.1-.8-.1-.1-.2-.1-.3-.1-.2 0-.3.1-.3.2-.1.1-.1.4-.1.8L590.1 234.3zM586.4 236.9l-2.7.1-.1-3.7-1.7 0 0-1.7 1.7 0 0-1.7-1.9 0 0-1.8 4.6-.1L586.4 236.9zM581.4 228.1l0 1.8-1.6 0 .2 7.1-2.7.1-.2-7.1-1.6 0 0-1.8L581.4 228.1zM575.1 237.2l-4.7.1 0-1.8 2 0 0-2-1.7 0 0-1.7 1.7 0 0-1.7-1.8 0 0-1.8 4.5-.1L575.1 237.2zM563.2 231.6c0-.8 0-1.4.2-1.8.2-.4.5-.7 1-1 .5-.3 1.2-.4 2-.4.6 0 1.1.1 1.6.2.5.2.8.4 1.1.7.3.3.4.6.5.9.1.3.1.8.1 1.4l.1 2.6c0 .9-.1 1.5-.2 2-.2.4-.5.8-1 1-.5.3-1.2.4-2 .4-.8 0-1.4-.1-1.9-.4-.5-.3-.9-.6-1-1-.2-.4-.3-1-.3-2l0-.3 2.7-.1 0 1.1c0 .5 0 .8.1.9.1.1.2.2.4.2.2 0 .3-.1.4-.2.1-.1.1-.4.1-.9l-.1-4.1c0-.5 0-.7-.1-.9-.1-.1-.2-.2-.4-.2-.2 0-.3.1-.4.2-.1.1-.1.4-.1.8l0 1.6-2.7.1L563.2 231.6zM558.6 228.6l.1 3.2.8 0-.1-3.2 2.7-.1.2 8.9-2.7.1-.1-3.7-.8 0 .1 3.7-2.7.1-.2-8.9L558.6 228.6z"/><path stroke="#000" stroke-width=".78" stroke-miterlimit="10" d="M467.5,465.7h3.3c0.2-0.7,0.4-1.5,0.6-2.3 c0.3-0.9,0.8-1.8,1.3-2.6l-2.2-2.2c-0.1-0.1-0.1-0.2,0-0.3l4.2-4.2c0.1-0.1,0.2-0.1,0.3,0l2.2,2.2c0.8-0.5,1.7-0.9,2.6-1.3 c0.7-0.3,1.4-0.5,2.1-0.6v-3.3c0-0.1,0.1-0.2,0.2-0.2h5.9c0.1,0,0.2,0.1,0.2,0.2v3.3c1.7,0.4,3.4,1.1,4.8,2l2.5-2.4 c0.1-0.1,0.2-0.1,0.3,0l4.1,4.3c0.1,0.1,0.1,0.2,0,0.3l-2.4,2.3c0.9,1.4,1.5,3,1.9,4.7h3.6c0.1,0,0.2,0.1,0.2,0.2v5.9 c0,0.1-0.1,0.2-0.2,0.2h-3.6c-0.1,0.7-0.3,1.3-0.6,2c-0.3,1-0.8,1.9-1.3,2.8l2.5,2.4c0.1,0.1,0.1,0.2,0,0.3l-4.1,4.3 c-0.1,0.1-0.2,0.1-0.3,0l-2.6-2.5c-0.8,0.5-1.6,0.9-2.5,1.2c-0.7,0.3-1.4,0.5-2.1,0.6v3.5c0,0.1-0.1,0.2-0.2,0.2H482 c-0.1,0-0.2-0.1-0.2-0.2v-3.5c-1.6-0.4-3.2-1-4.6-1.9l-2.4,2.4c-0.1,0.1-0.2,0.1-0.3,0l-4.2-4.2c-0.1-0.1-0.1-0.2,0-0.3l2.3-2.4 c-0.9-1.4-1.6-3-2-4.7h-3.3c-0.1,0-0.2-0.1-0.2-0.2v-5.9C467.3,465.8,467.4,465.7,467.5,465.7z"/><circle fill="#FFF" stroke="#000" stroke-width=".78" stroke-miterlimit="10" cx="485.1" cy="468.7" r="8.9"/><circle stroke="#000" stroke-width=".78" stroke-miterlimit="10" cx="485" cy="468.8" r="4.4"/><path stroke="#000" stroke-width=".64" stroke-miterlimit="10" d="M543.9,291.5h2.7c0.1-0.6,0.3-1.2,0.5-1.9 c0.3-0.8,0.6-1.5,1-2.2l-1.8-1.8c-0.1-0.1-0.1-0.1,0-0.2l3.4-3.4c0.1-0.1,0.1-0.1,0.2,0l1.8,1.8c0.7-0.4,1.4-0.8,2.2-1 c0.6-0.2,1.2-0.4,1.8-0.5v-2.7c0-0.1,0.1-0.1,0.1-0.1h4.9c0.1,0,0.1,0.1,0.1,0.1v2.7c1.4,0.3,2.8,0.9,3.9,1.7l2-1.9 c0.1-0.1,0.2-0.1,0.2,0l3.4,3.5c0.1,0.1,0.1,0.2,0,0.2l-2,1.9c0.7,1.2,1.3,2.5,1.6,3.8h3c0.1,0,0.1,0.1,0.1,0.1v4.9 c0,0.1-0.1,0.1-0.1,0.1h-3c-0.1,0.5-0.3,1.1-0.5,1.7c-0.3,0.8-0.7,1.6-1.1,2.3l2,2c0.1,0.1,0.1,0.1,0,0.2l-3.4,3.5 c-0.1,0.1-0.1,0.1-0.2,0l-2.1-2.1c-0.6,0.4-1.3,0.7-2,1c-0.6,0.2-1.2,0.4-1.8,0.5v2.9c0,0.1-0.1,0.1-0.1,0.1h-4.9 c-0.1,0-0.1-0.1-0.1-0.1v-2.9c-1.4-0.3-2.6-0.8-3.8-1.5l-1.9,2c-0.1,0.1-0.1,0.1-0.2,0l-3.5-3.4c-0.1-0.1-0.1-0.1,0-0.2l1.9-1.9 c-0.8-1.2-1.3-2.5-1.6-3.8h-2.7c-0.1,0-0.1-0.1-0.1-0.1v-4.9C543.8,291.5,543.8,291.5,543.9,291.5z"/><circle fill="#FFF" stroke="#000" stroke-width=".64" stroke-miterlimit="10" cx="558.4" cy="293.9" r="7.3"/><circle stroke="#000" stroke-width=".64" stroke-miterlimit="10" cx="558.3" cy="294" r="3.6"/><ellipse fill="#FFF" stroke="#000" stroke-width="2.35" stroke-miterlimit="10" cx="794" cy="150.6" rx="7.1" ry="12.9"/><path d="M785.1 611.6c-.9 4.8-.6 9.6.9 14.3.5 1.4 2.7.8 2.3-.6-1.4-4.3-1.7-8.6-.9-13C787.7 610.7 785.4 610.1 785.1 611.6L785.1 611.6zM853.8 619.2c-1.9-.2-3.9-.5-5.8-.7-1.5-.2-1.5 2.2 0 2.4 1.9.2 3.9.5 5.8.7C855.3 621.7 855.3 619.4 853.8 619.2L853.8 619.2zM454.2 287.4c-11.8-6-21.3-15.6-27.2-27.4-.7-1.4-2.7-.2-2 1.2 6.1 12.1 16 22.1 28.1 28.3C454.4 290.1 455.6 288.1 454.2 287.4L454.2 287.4zM477.2 261.1c-2.8-3.4-5.6-6.7-8.3-10.1-1-1.2-2.6.5-1.7 1.7 2.8 3.4 5.6 6.7 8.3 10.1C476.5 263.9 478.2 262.2 477.2 261.1L477.2 261.1z"/><path stroke="#000" stroke-width=".64" stroke-miterlimit="10" d="M730,148.3h2.7c0.1-0.6,0.3-1.2,0.5-1.9 c0.3-0.8,0.6-1.5,1-2.2l-1.8-1.8c-0.1-0.1-0.1-0.1,0-0.2l3.4-3.4c0.1-0.1,0.1-0.1,0.2,0l1.8,1.8c0.7-0.4,1.4-0.8,2.2-1 c0.6-0.2,1.2-0.4,1.8-0.5v-2.7c0-0.1,0.1-0.1,0.1-0.1h4.9c0.1,0,0.1,0.1,0.1,0.1v2.7c1.4,0.3,2.8,0.9,3.9,1.7l2-1.9 c0.1-0.1,0.2-0.1,0.2,0l3.4,3.5c0.1,0.1,0.1,0.2,0,0.2l-2,1.9c0.7,1.2,1.3,2.5,1.6,3.8h3c0.1,0,0.1,0.1,0.1,0.1v4.9 c0,0.1-0.1,0.1-0.1,0.1h-3c-0.1,0.5-0.3,1.1-0.5,1.7c-0.3,0.8-0.7,1.6-1.1,2.3l2,2c0.1,0.1,0.1,0.1,0,0.2l-3.4,3.5 c-0.1,0.1-0.1,0.1-0.2,0l-2.1-2.1c-0.6,0.4-1.3,0.7-2,1c-0.6,0.2-1.2,0.4-1.8,0.5v2.9c0,0.1-0.1,0.1-0.1,0.1h-4.9 c-0.1,0-0.1-0.1-0.1-0.1v-2.9c-1.4-0.3-2.6-0.8-3.8-1.5l-1.9,2c-0.1,0.1-0.1,0.1-0.2,0l-3.5-3.4c-0.1-0.1-0.1-0.1,0-0.2l1.9-1.9 c-0.8-1.2-1.3-2.5-1.6-3.8H730c-0.1,0-0.1-0.1-0.1-0.1v-4.9C729.8,148.4,729.9,148.3,730,148.3z"/><circle fill="#FFF" stroke="#000" stroke-width=".64" stroke-miterlimit="10" cx="744.4" cy="150.8" r="7.3"/><circle stroke="#000" stroke-width=".64" stroke-miterlimit="10" cx="744.4" cy="150.9" r="3.6"/><path d="M638.8 172.6c-2.3 6.3-8.9 8.5-14.7 10.4-1.4.5-.8 2.7.6 2.3 6.7-2.2 13.7-4.9 16.3-12.1C641.6 171.8 639.4 171.2 638.8 172.6L638.8 172.6zM650.4 874.9c-2.1 1.7-7.3-3.5-9.5-4.4-2.1-.8-3.9.7-5.3 2.1-2 2-6.4-8.1-9.3-2.1.5-.1 1.1-.3 1.6-.4-2.3-1.5-4.7-3.1-7-4.6-1-.6-2.8.6-3.7.9-1.4.5-.8 2.8.6 2.3 3.4-1.3 6.2 1.7 8.9 3.5.5.3 1.3.1 1.6-.4.6-1.2 4 3.5 4.9 3.7 1.8.4 2.7 0 4.1-1.1 4.7-4 9.3 6.9 14.8 2.4C653.3 875.6 651.6 873.9 650.4 874.9L650.4 874.9zM743.5 872.8c1.4 3.2-7 3-8.5 4.4-.7.7-1.5 1.4-1.7 2.5-.1.6-.2 1.1-.3 1.7-2.2.6-4.5 1.3-6.7 1.9-.7-1.1-1.3-2.2-1.7-3.4-.5-1.1-1.8-1.1-2.3 0-.5 1.2-1 2.3-1.6 3.5-1.5 2.8-6.4 6.4-8.6.7-.3-.9-.9-1.9-1.7-2.4-2.9-1.7-5.5.7-7 3-.7 1.8-2.3 2.6-4.6 2.2 0-.6-.2-1.3-.5-1.7-1-1.4-1.8-2-3.5-2.5-3.4-1-6.2 3.2-7.6 5.5.7.1 1.4.2 2.1.3-.9-3.4-1.8-6.8-2.7-10.1-.4-1.3-2.2-1-2.3.3-.2 3.9-10.1 1.4-12.4 1-4.1-.6-8.3-1.1-12.4-1.7-1.5-.2-2.1 2.1-.6 2.3 6.8.9 13.6 1.8 20.4 2.7 3.7.5 7.2-.1 7.5-4.4-.8.1-1.5.2-2.3.3.9 3.4 1.8 6.8 2.7 10.1.3 1 1.6 1.1 2.1.3 2-3.3 6.1-2.5 8 .2.7 1 1.9 1 3 1.1.8 0 2.3-.5 2.8-1.2 1.2-1.4 5-8.1 7.4-3.4 1.5 2.9 3.9 3.6 6.9 3.1 4-.6 6-5.4 7.3-8.6-.8 0-1.5 0-2.3 0 1.1 2.6 2.5 6.2 5.5 7.1 1.9.6 5.4.9 6.5-1.5 1-2.2 1.2-7 3.9-7.8 2-.6 3.9-.2 5.8-1.3 2.1-1.2 2.4-3.5 1.5-5.5C745 870.2 742.9 871.4 743.5 872.8L743.5 872.8z"/><path fill="#FFF" d="M497.9 630.8c3.3 0 6.6 0 9.8 0M497.9 633.1c3.3 0 6.6 0 9.8 0 3 0 3-4.7 0-4.7-3.3 0-6.6 0-9.8 0C494.9 628.4 494.9 633.1 497.9 633.1L497.9 633.1zM497.9 612.5c.8 7.6-.2 15.3-2.8 22.5"/><path fill="#FFF" d="M495.5 612.5c.6 7.5-.3 14.8-2.7 21.9-1 2.9 3.5 4.1 4.5 1.2 2.6-7.5 3.6-15.2 2.9-23.1C500 609.5 495.3 609.5 495.5 612.5L495.5 612.5zM508.9 616.2c1.5 7.5 2.3 15.1 2.2 22.8"/><path fill="#FFF" d="M506.6 616.8c1.4 7.3 2.1 14.7 2.1 22.1 0 3 4.7 3 4.7 0 0-7.9-.8-15.7-2.3-23.4C510.5 612.6 506 613.8 506.6 616.8L506.6 616.8zM514.4 626.5c-.7 3 .7 6.5.3 9.6"/><path fill="#FFF" d="M512.1 625.9c-.7 3.5.5 6.8.2 10.2-.2 3 4.5 3 4.7 0 .2-3-1-6-.4-9C517.2 624.2 512.7 622.9 512.1 625.9L512.1 625.9zM502.5 627.6c-4.5.7-9.1.2-13.3-1.3-2.4-.9-4.6-2-7-2.8-2.4-.7-5.1-.9-7.4.1"/><path fill="#FFF" d="M502.5 625.2c-5.9.7-10.9-.5-16.3-2.8-4-1.7-7.8-2.6-12-1.2-2.8 1-1.6 5.5 1.2 4.5 4.7-1.6 8.9 1 13.1 2.7 4.4 1.7 9.3 2 13.9 1.4C505.5 629.6 505.5 624.9 502.5 625.2L502.5 625.2zM462.9 619c1.2-.9 2.9-1.2 4.3-.7"/><path fill="#FFF" d="M464.1 621c.9-.6 1.6-.8 2.5-.5 2.9.8 4.2-3.7 1.2-4.5-2.1-.6-4.4-.2-6.1 1-1.1.7-1.5 2-.8 3.2C461.5 621.2 463 621.7 464.1 621L464.1 621zM462.8 616.1c-.7.1-1.1.9-.9 1.6"/><path fill="#FFF" d="M462.2 613.8c-1.9.5-3.1 2.6-2.5 4.5.4 1.2 1.6 2 2.9 1.6 1.2-.3 2-1.7 1.6-2.9-.1-.2-.1-.2 0 .2 0 .1 0 .2-.1.4.1-.2 0-.2-.1.2-.3.3-.3.3-.1.2-.1.1-.2.1-.3.2-.4.1-.4.2-.2.1 1.2-.3 2-1.7 1.6-2.9C464.7 614.2 463.4 613.5 462.2 613.8L462.2 613.8zM459.7 615.2c0 1.3 0 2.5 0 3.8"/><path fill="#FFF" d="M457.4 615.2c0 1.3 0 2.5 0 3.8 0 1.3 1.1 2.3 2.3 2.3 1.3 0 2.3-1.1 2.3-2.3 0-1.3 0-2.5 0-3.8 0-1.3-1.1-2.3-2.3-2.3C458.4 612.8 457.4 613.9 457.4 615.2L457.4 615.2zM451 610.8c-.1 1.8-.2 3.5-.3 5.3"/><path fill="#FFF" d="M448.7 610.8c-.1 1.8-.2 3.5-.3 5.3-.1 1.3 1.1 2.3 2.3 2.3 1.3 0 2.3-1.1 2.3-2.3.1-1.8.2-3.5.3-5.3.1-1.3-1.1-2.3-2.3-2.3C449.7 608.5 448.7 609.5 448.7 610.8L448.7 610.8zM580.6 654.7c-2.3-2.9-4.9-5.6-7.6-8.1"/><path fill="#FFF" d="M582.2 653.1c-2.3-2.9-4.9-5.6-7.6-8.1-2.2-2.1-5.5 1.2-3.3 3.3 2.7 2.5 5.2 5.2 7.6 8.1C580.8 658.7 584.1 655.4 582.2 653.1L582.2 653.1zM579.4 645.8c1.6 2.8 3.1 5.6 4.7 8.4"/><path fill="#FFF" d="M577.4,647c1.6,2.8,3.1,5.6,4.7,8.4c1.5,2.6,5.5,0.3,4-2.4c-1.6-2.8-3.1-5.6-4.7-8.4 C580,642,575.9,644.4,577.4,647L577.4,647z"/><path fill="#FFF" d="M583.8,649.3c0,1.6,0,3.1,0,4.7c1.2,0.5,2.4,1,3.6,1.5"/><path fill="#FFF" d="M581.5 649.3c0 1.6 0 3.1 0 4.7 0 1.1.7 1.9 1.7 2.3 1.2.5 2.4 1 3.6 1.5 1.2.5 2.6-.5 2.9-1.6.4-1.3-.5-2.4-1.6-2.9-1.2-.5-2.4-1-3.6-1.5.6.8 1.1 1.5 1.7 2.3 0-1.6 0-3.1 0-4.7C586.2 646.2 581.5 646.2 581.5 649.3L581.5 649.3zM575.1 650.6c-1.4.6-2.9.8-4.4.6-.4-1-.8-2.1-1.3-3.1"/><path fill="#FFF" d="M574.5 648.3c-1.3.5-2.4.6-3.8.5.8.6 1.5 1.1 2.3 1.7-.4-1-.8-2.1-1.3-3.1-.5-1.2-1.5-2-2.9-1.6-1.1.3-2.1 1.7-1.6 2.9.4 1 .8 2.1 1.3 3.1.4 1.1 1.1 1.6 2.3 1.7 1.7.2 3.4 0 5-.6 1.2-.5 2-1.6 1.6-2.9C577 648.8 575.7 647.9 574.5 648.3L574.5 648.3zM624.2 666.1c.2-1 .4-2.1.6-3.1"/><path fill="#FFF" d="M626.5 666.8c.2-1 .4-2.1.6-3.1.3-1.3-.3-2.5-1.6-2.9-1.2-.3-2.6.4-2.9 1.6-.2 1-.4 2.1-.6 3.1-.3 1.3.3 2.5 1.6 2.9C624.8 668.7 626.2 668 626.5 666.8L626.5 666.8zM635.8 338.8c-.5 1.1-1 2.2-1.5 3.3.5-.9.4-2.1.2-3.2-.1 0-.2-.1-.3-.1-.6.9-1.1 1.8-1.4 2.8-.1-.5-.1-1-.2-1.5-.3-.2-.8-.1-1.1.2-.3.3-.4.7-.5 1.1s-.2.8-.4 1.1c-.1-.3 0-.6 0-1 0-.3-.3-.7-.6-.6-.1 0-.2.2-.3.3-.3.5-.4 1.1-.3 1.6"/><path fill="#FFF" d="M633.7,337.6c-0.5,1.1-1,2.2-1.5,3.3c-0.5,1.2-0.3,2.5,0.8,3.2c1,0.6,2.7,0.3,3.2-0.8 c0.8-1.7,0.7-3.2,0.4-5c-0.1-0.8-0.9-1.4-1.6-1.6c-0.1,0-0.2-0.1-0.3-0.1c-1-0.4-2.1,0.3-2.6,1.1c-0.8,1-1.3,2.2-1.7,3.4 c1.5,0.2,3.1,0.4,4.6,0.6c-0.1-0.5-0.1-1-0.2-1.5c-0.1-1.1-0.6-1.9-1.7-2.3c-1.1-0.4-2.2-0.1-3.1,0.7c-1,0.8-0.9,1.9-1.5,2.9 c1.4,0.2,2.9,0.4,4.3,0.6c-0.1-0.6,0-1.2-0.3-1.9c-0.5-0.9-1.5-1.4-2.5-1.4c-2.1,0-3,2.5-2.9,4.2c0.2,3,4.9,3,4.7,0 c0-0.5-0.1-0.3,0.1-0.6c-0.3,0.3-0.6,0.6-0.8,0.8c0.1,0,0.1-0.1,0.2-0.1c-0.6,0.1-1.2,0.2-1.8,0.2c0.1,0,0.2,0,0.3,0 c-0.3-0.2-0.7-0.4-1-0.6c0.1,0.1,0.1,0.2,0.2,0.2c-0.2-0.3-0.4-0.7-0.6-1c0.1,0.4,0,0.9,0.1,1.3c0.4,2.1,3.3,2.2,4.3,0.6 c0.2-0.4,0.4-0.8,0.6-1.3c0-0.1,0.1-0.3,0.1-0.4c0.2-0.5,0.1-0.5-0.1,0c-0.4,0.1-0.8,0.2-1.2,0.3c0,0,0,0-0.1,0 c-0.6-0.8-1.1-1.5-1.7-2.3c0.1,0.5,0.1,1,0.2,1.5c0.3,2.6,3.7,3.3,4.6,0.6c0.3-0.8,0.7-1.6,1.2-2.3c-0.9,0.4-1.8,0.7-2.6,1.1 c0.1,0,0.2,0.1,0.3,0.1c-0.5-0.5-1.1-1.1-1.6-1.6c0.1,0.4,0.2,1,0,1.4c1.3,0.8,2.7,1.6,4,2.4c0.5-1.1,1-2.2,1.5-3.3 c0.5-1.2,0.3-2.5-0.8-3.2C635.9,336.2,634.3,336.5,633.7,337.6L633.7,337.6z"/><path fill="#FFF" d="M646.7,338.1c-0.7,0.5-1.5,0.7-2.4,0.8c-3.3,0.6-6.4,1.9-9.2,3.7"/><path fill="#FFF" d="M645.5 336.1c-1.5 1-3.8 1-5.5 1.6-2.1.7-4.2 1.8-6.1 3-2.5 1.6-.2 5.7 2.4 4 1.8-1.2 3.6-2.1 5.7-2.8 2-.7 4.1-.7 5.9-1.8C650.4 338.5 648.1 334.5 645.5 336.1L645.5 336.1zM622.6 342.7c-4.4.9-8.8 1.7-13.3 2.2-4.9.5-9.9.4-14.7 1.4"/><path fill="#FFF" d="M622 340.4c-9.3 1.8-18.7 1.9-28 3.6-3 .5-1.7 5.1 1.2 4.5 9.3-1.7 18.7-1.7 28-3.6C626.2 344.4 625 339.8 622 340.4L622 340.4zM571.1 340.9c.3 2.8.9 5.5 1.7 8.2.1.1.2.2.2.3.1-.3.1-.7.2-1-.7.3-1.6.2-2.3-.1-.7-.4-1.2-1-1.5-1.8"/><path fill="#FFF" d="M568.8 340.9c.2 1.7.5 3.4.8 5.1.3 1.5.6 3.3 1.5 4.6 1 1.5 3.9 1.6 4.3-.6.1-.3.1-.7.2-1 .3-1.7-1-3.4-2.9-2.9-.3.1-.7.1-.9-.3-1.1-2.8-5.6-1.6-4.5 1.2 1.1 2.8 3.6 4.3 6.6 3.5-1-1-1.9-1.9-2.9-2.9-.1.3-.1.7-.2 1 1.4-.2 2.9-.4 4.3-.6-.6-.9-.7-2.5-1-3.5-.3-1.3-.5-2.5-.6-3.8-.1-1.3-1-2.3-2.3-2.3C570 338.6 568.6 339.6 568.8 340.9L568.8 340.9zM584.6 348.4c3 0 3-4.7 0-4.7C581.6 343.7 581.6 348.4 584.6 348.4L584.6 348.4z"/><path fill="#FFF" d="M587.2 348.9c3 0 3-4.7 0-4.7C584.2 344.2 584.2 348.9 587.2 348.9L587.2 348.9zM565.2 351.2c-2.7-1.7-6.2-1.3-9.4-.8-3.6.6-7.3 1.1-10.9 1.7-1.7.3-3.4.5-5 1.2-1.6.7-3 1.8-3.7 3.4"/><path fill="#FFF" d="M566.4 349.2c-5.4-2.6-11-1.1-16.7-.2-5.7.9-12.3 1-15.5 6.5-1.5 2.6 2.5 5 4 2.4 2.1-3.6 7.2-3.5 10.9-4 4.6-.7 10.5-2.7 14.9-.5C566.8 354.5 569.1 350.5 566.4 349.2L566.4 349.2zM533 351c-.7.6-1.6.9-2.5 1.1-5.9 1.4-11.8 2.9-17.7 4.3"/><path fill="#FFF" d="M531.8 349c-2.5 1.7-6.4 1.9-9.3 2.6-3.4.8-6.9 1.7-10.3 2.5-2.9.7-1.7 5.2 1.2 4.5 3.9-1 7.9-1.9 11.8-2.9 2.9-.7 6.4-1 8.9-2.8C536.6 351.3 534.3 347.3 531.8 349L531.8 349zM504.7 358.7c3 0 3-4.7 0-4.7C501.7 354 501.7 358.7 504.7 358.7L504.7 358.7z"/><g><path fill="#FFF" d="M502.1,358.7c3,0,3-4.7,0-4.7S499.1,358.7,502.1,358.7L502.1,358.7z"/></g><g><path fill="#FFF" d="M501.5,359.3c3,0,3-4.7,0-4.7C498.5,354.6,498.5,359.3,501.5,359.3L501.5,359.3z"/></g><g><path fill="#FFF" d="M501.1,359.9c3,0,3-4.7,0-4.7S498,359.9,501.1,359.9L501.1,359.9z"/></g><g><path fill="#FFF" d="M505.5,359.4c3,0,3-4.7,0-4.7C502.5,354.7,502.5,359.4,505.5,359.4L505.5,359.4z"/></g><g><path fill="#FFF" d="M506.4,358c3,0,3-4.7,0-4.7S503.4,358,506.4,358L506.4,358z"/></g><g><path fill="#FFF" d="M494.9 357.4c-4.1 1.1-8.3 1.7-12.5 1.7M494.3 355.1c-3.9 1-7.8 1.6-11.9 1.7-3 .1-3 4.7 0 4.7 4.4-.1 8.8-.7 13.1-1.8C498.5 358.8 497.2 354.3 494.3 355.1L494.3 355.1z"/></g><g><path fill="#FFF" d="M474.9,361.9c3,0,3-4.7,0-4.7S471.9,361.9,474.9,361.9L474.9,361.9z"/></g><g><path fill="#FFF" d="M474.2,362.3c3,0,3-4.7,0-4.7C471.2,357.6,471.2,362.3,474.2,362.3L474.2,362.3z"/></g><g><path fill="#FFF" d="M473.4,361.9c3,0,3-4.7,0-4.7C470.4,357.2,470.4,361.9,473.4,361.9L473.4,361.9z"/></g><g><path fill="#FFF" d="M465.8,363.6c3,0,3-4.7,0-4.7C462.8,358.9,462.8,363.6,465.8,363.6L465.8,363.6z"/></g><g><path fill="#FFF" d="M466.9,364.4c3,0,3-4.7,0-4.7S463.9,364.4,466.9,364.4L466.9,364.4z"/></g><g><path fill="#FFF" d="M464.9,363.3c3,0,3-4.7,0-4.7C461.8,358.6,461.8,363.3,464.9,363.3L464.9,363.3z"/></g><g><path fill="#FFF" d="M464.5,364.1c3,0,3-4.7,0-4.7C461.4,359.4,461.4,364.1,464.5,364.1L464.5,364.1z"/></g><g><path fill="#FFF" d="M452.7 362.6c.1-.1.2-.3.2-.4M454.7 363.8c.1-.1.2-.3.2-.4.7-1.1.2-2.6-.8-3.2-1.1-.7-2.5-.2-3.2.8-.1.1-.2.3-.2.4-.7 1.1-.2 2.6.8 3.2C452.6 365.3 454 364.9 454.7 363.8L454.7 363.8z"/></g><g><path fill="#FFF" d="M452.8,361c-0.3,0.8-0.6,1.6-0.8,2.4c-0.1-0.3-0.1-0.6-0.2-0.9"/><path fill="#FFF" d="M450.5,360.4c-0.3,0.8-0.6,1.6-0.8,2.4c1.5,0,3,0,4.5,0c-0.1-0.3-0.1-0.6-0.2-0.9 c-0.3-1.3-1.7-2-2.9-1.6c-1.3,0.4-1.9,1.6-1.6,2.9c0.1,0.3,0.1,0.6,0.2,0.9c0.2,1,1.3,1.7,2.3,1.7c1.1,0,1.9-0.7,2.3-1.7 c0.3-0.8,0.6-1.6,0.8-2.4c0.4-1.2-0.5-2.6-1.6-2.9C452.1,358.4,450.9,359.2,450.5,360.4L450.5,360.4z"/></g><g><path fill="#FFF" d="M451.3 360.5c-.1.2-.1.5-.2.7M449.1 359.9c-.1.2-.1.5-.2.7-.3 1.2.4 2.5 1.6 2.9 1.2.3 2.6-.4 2.9-1.6.1-.2.1-.5.2-.7.3-1.2-.4-2.5-1.6-2.9C450.8 358 449.4 358.7 449.1 359.9L449.1 359.9z"/></g><g><path fill="#FFF" d="M450.9 360.1c-.2 1-1.5 1.4-1.9 2.3M448.7 359.5c-.1.2 0 .2.1-.2-.1.2-.4.5.1-.1-.2.2-.4.4-.6.5-.5.4-1 .9-1.3 1.5-.5 1.2-.3 2.5.8 3.2 1 .6 2.7.3 3.2-.8.1-.1.1-.2.2-.3-.3.5-.2.2 0 .1.2-.2.4-.3.6-.5.7-.6 1.1-1.3 1.4-2.1.4-1.2-.4-2.5-1.6-2.9C450.3 357.5 449 358.3 448.7 359.5L448.7 359.5z"/></g><g><path fill="#FFF" d="M447.4 362.9C447.4 362.9 447.4 362.8 447.4 362.9M449.8 362.9C449.8 362.9 449.8 362.8 449.8 362.9c0-1.4-1.1-2.4-2.3-2.4-1.3 0-2.3 1.1-2.3 2.3 0 0 0 .1 0 .1 0 1.3 1.1 2.3 2.3 2.3C448.7 365.2 449.8 364.2 449.8 362.9L449.8 362.9z"/></g><g><path fill="#FFF" d="M452.5,363.8c1.5-0.3,3-0.7,4.5-1c0.2,0,0.4-0.1,0.6-0.2c0.3-0.3,0.2-0.9,0-1.3"/><path fill="#FFF" d="M453.1,366c1.5-0.3,3-0.7,4.5-1c2.1-0.5,2.9-2.5,2.2-4.4c-0.4-1.2-1.6-2-2.9-1.6 c-1.2,0.3-2.1,1.7-1.6,2.9c0.1,0.5,0.2,0.3,0.2-0.5c0.3-0.3,0.6-0.6,0.8-0.8c-0.5,0.3-1.3,0.3-1.9,0.4 c-0.9,0.2-1.8,0.4-2.6,0.6C448.9,362.2,450.1,366.7,453.1,366L453.1,366z"/></g><g><path fill="#FFF" d="M452 359c-1.6 1.9-3.5 3.6-5.6 4.9M450.3 357.4c-1.5 1.8-3.2 3.3-5.1 4.5-2.5 1.6-.2 5.7 2.4 4 2.3-1.5 4.3-3.2 6-5.3.8-1 1-2.4 0-3.3C452.8 356.5 451.1 356.4 450.3 357.4L450.3 357.4z"/></g><path fill="none" stroke="#000" stroke-width="4.08" stroke-miterlimit="10" d="M2595.3 605.8L3401.2 605.8"/><g><path fill="#F7923F" d="M283.5 786.3c-5.9-6.3-10.9-8.4-10.9-8.4-3.5-8.6-41.1-10.9-50.8-10.5-41.7 1.6-27.4-1.6-68.3 7.2-12.4 2.7-27 17.3-23.8 29 4.3 15.6-1.9 20.4 13.8 23.9 17.5 4 22 4.4 40.6 6.2 16.7 1.7 29.1 1.4 45.4-2.5 3.8-.9 41-4.7 45.7-10.9C276.7 818.6 293.9 797.4 283.5 786.3zM348.4 54.8c.7-13.6 2.7-31.5 1.2-31.9-20.5-4.3-42.9-.5-48.2-.5-13.5 0-25.7 6.1-37.3 11.7-14.6 7.1-31.4 24.7-41.5 37.5-13.1 16.5-18.7 39.4-20.4 44.3-13.7 39.5-9.3 96.4-7.5 137.6 3.9 87.7 1 142.2 2.3 229.5.5 30.8-.3 28.9 1.3 59.6.8 14.5 0 72.3 0 72.3-4.8 3.9 7.1 13.1 9.8 3.1.5-1.9 15.2-17.1 15.3-19.1 9.2-5.6 16.6-17.4 25.7-23.1 5.1-6.4 20.2-7.9 24.2-14.8 11.2-6.9 31.6-9.8 42.7-16.7 8.2-5.1 33.8-2.2 38.7-4.1 0 0-4-5.2-2.1-20.8 1.2-9.7-1.8-17.9-2.2-27.6-.5-11.5-5.1-58.1-5.5-69.6-3.6-88.4-4.7-146.3-5.1-234.5-.2-34.1 3.3-64.3 3.3-76.9C343.3 97.7 347.7 67.4 348.4 54.8z"/><path d="M193.7 322c.9 98.9 1.8 197.9 2.6 296.8 0 2.8 4.3 2.8 4.3 0-.9-98.9-1.8-197.9-2.6-296.8C198 319.3 193.7 319.3 193.7 322L193.7 322zM200.5 621.8c-.3 52.4.5 104.7 2 157.1.1 2.8 4.4 2.8 4.3 0-1.5-52.3-2.3-104.7-2-157.1C204.8 619.1 200.5 619.1 200.5 621.8L200.5 621.8zM301.5 123.1c.3 0 .3-.5 0-.5C301.1 122.5 301.1 123.1 301.5 123.1L301.5 123.1z"/><path d="M350.2 20.8c-28-4.5-56.5-4.5-82.4 8.6-22.7 11.5-41.6 30.5-54.4 52.3-14.3 24.4-19.3 52.7-20.9 80.5-1.8 31.3-.2 63 .3 94.3.3 22 .7 44 1 66 0 2.8 4.3 2.8 4.3 0-.5-33.3-1-66.6-1.5-99.9-.5-30.5-1.7-61.3 3.8-91.4 5.1-28 17.4-53.7 37.4-74.1 20.6-21 47.1-33.7 76.5-34.7 11.7-.4 23.4.8 34.9 2.7C351.8 25.4 352.9 21.3 350.2 20.8L350.2 20.8zM208.7 622.9c31.5-48.7 88.1-80.2 146.3-80.4 2.8 0 2.8-4.3 0-4.3-59.7.2-117.7 32.6-150 82.5C203.5 623 207.2 625.2 208.7 622.9L208.7 622.9z"/><path d="M356.7,538.2c-9.2-101.7-14.3-203.8-15.3-305.9c0-2.8-4.3-2.8-4.3,0c1,102.1,6.1,204.2,15.3,305.9 C352.6,541,356.9,541,356.7,538.2L356.7,538.2z"/><path d="M349 24c-6.8 69.7-13.1 139.5-12.2 209.6 0 2.8 4.3 2.8 4.3 0-.9-70.1 5.4-139.9 12.2-209.6C353.5 21.3 349.2 21.3 349 24L349 24zM130.3 795.2c8.6 9.1 22.3 10.1 34 12.2 14.7 2.6 29.7 3.5 44.6 2.9 15-.6 29.9-3.1 44.5-6.8 10.2-2.5 18.7-5.4 26.9-12.1 9.3-7.6-6.8-16.2-12.3-18.7-12-5.5-25.5-7.2-38.5-7.5-20.7-.5-42.3 1.6-62.7 5.3-12.4 2.2-36.6 6.7-37.1 23.2-.1 2.8 4.2 2.8 4.3 0 .2-7.5 8.1-11.4 14.2-13.8 9-3.6 18.8-5.2 28.4-6.6 10.3-1.5 20.8-2.3 31.2-2.9 12.7-.8 25.3-1.4 37.9.5 6.9 1 13.7 2.9 20.2 5.6 3 1.3 5.9 2.9 8.7 4.7 1.3.8 5.6 4.2 3.8 6.3-.8 1-1.9 1.7-2.9 2.4-10.1 7.3-22.2 9.6-34.2 12.1-15.4 3.2-31.1 4.6-46.8 4.2-15.8-.4-30.9-3.5-46.4-6.5-6-1.2-10.3-2.8-14.6-7.4C131.5 790.2 128.4 793.2 130.3 795.2L130.3 795.2z"/><path d="M127.7,797c-0.2,8.2-1.2,18.5,3.9,25.6c4,5.5,12.8,7.6,19,9c19.6,4.6,40.8,4.9,60.9,3.9c20.3-1,39.3-4,58.6-10.6 c1.7-0.6,3.1-1.8,4.5-2.8c1.7-1.3,3.8-1.9,5.4-3.4c3.3-2.8,5.4-6.2,6.5-10.4c1.8-6.3,0.5-14.5,0.4-21c0-2.8-4.3-2.8-4.3,0 c0.1,5.9,0.3,11.7,0.2,17.6c-0.2,9.6-11.2,15-19,17.6c-17.2,5.5-34.2,7.8-52.2,8.7c-18.7,1-37.1,0-55.6-2.9 c-6.5-1-13.5-2.9-19.1-6.6c-6.8-4.5-5-17.8-4.8-24.7C132.1,794.3,127.8,794.3,127.7,797L127.7,797z"/><path stroke="#000" stroke-width="2.57" stroke-miterlimit="10" d="M329.9,127.1h-10.7c-0.5-2.5-1.2-4.9-2.1-7.4 c-1.1-3.1-2.5-6-4.2-8.7l7.2-7.2c0.2-0.2,0.2-0.6,0-0.8l-13.7-13.7c-0.2-0.2-0.6-0.2-0.8,0l-7.2,7.2c-2.7-1.7-5.6-3.1-8.6-4.2 c-2.4-0.8-4.7-1.5-7.1-2V79.5c0-0.3-0.3-0.6-0.6-0.6h-19.4c-0.3,0-0.6,0.3-0.6,0.6v10.9c-5.7,1.3-11,3.5-15.8,6.6l-8.1-7.7 c-0.2-0.2-0.6-0.2-0.8,0l-13.5,14.1c-0.2,0.2-0.2,0.6,0,0.8l7.9,7.6c-2.9,4.7-5,9.8-6.2,15.4h-11.8c-0.3,0-0.6,0.3-0.6,0.6 v19.5c0,0.3,0.3,0.6,0.6,0.6h12c0.5,2.2,1.1,4.4,1.9,6.6c1.1,3.2,2.6,6.2,4.4,9.1l-8.1,7.9c-0.2,0.2-0.2,0.6,0,0.8l13.6,14 c0.2,0.2,0.6,0.2,0.8,0l8.6-8.3c2.6,1.6,5.3,2.9,8.2,3.9c2.4,0.8,4.7,1.5,7.1,2v11.6c0,0.3,0.3,0.6,0.6,0.6h19.4 c0.3,0,0.6-0.3,0.6-0.6v-11.6c5.4-1.2,10.5-3.3,15-6.1l7.8,7.9c0.2,0.2,0.6,0.2,0.8,0l13.9-13.7c0.2-0.2,0.2-0.6,0-0.8 l-7.7-7.8c3-4.6,5.3-9.8,6.5-15.4h10.9c0.3,0,0.6-0.3,0.6-0.6v-19.5C330.5,127.4,330.2,127.1,329.9,127.1z"/><circle fill="#FFF" stroke="#000" stroke-width="2.57" stroke-miterlimit="10" cx="272.1" cy="137" r="29.3"/><circle stroke="#000" stroke-width="2.57" stroke-miterlimit="10" cx="272.2" cy="137.3" r="14.6"/><path fill="#FFF" stroke="#000" stroke-width="3.3" stroke-miterlimit="10" d="M322.2,248.7l3.9,264 c0.1,3.4-2.8,6.3-6.3,6.3l-36.8,0.5c-3.3,0-6.1-2.4-5.5-5.5c0.1-0.7,0.2-1.4,0.1-2.1l-3.9-261.1c0-0.7-0.1-1.4-0.2-2.1 c-0.7-3.1,2-5.6,5.3-5.7l36.8-0.5C319.2,242.5,322.2,245.2,322.2,248.7z"/><path d="M285 507l-.3-17.1 6.8-.1.1 6.8 6.4-.1-.1-6.4 6.4-.1.1 6.4 7.4-.1-.1-7.5 6.8-.1.3 17.8L285 507zM284.4 463.4l33.8-.5.1 9-15.3 5.6 15.4-.2.1 8.6-33.8.5-.1-8.6 15.1-6-15.2.2L284.4 463.4zM296.4 435.5l.2 10.3-3.1 0c-1.9 0-3.1.1-3.6.3-.5.2-.7.7-.7 1.4 0 .6.2 1.1.6 1.3.4.2 1.5.3 3.2.3l16.2-.2c1.5 0 2.5-.2 3-.4.5-.2.7-.7.7-1.4 0-.7-.3-1.3-.8-1.5-.5-.3-1.6-.4-3.2-.4l-4 .1 0 2.1-5.1.1-.2-12 18.1-.3.1 6.4-2.4 1c1.1.7 1.9 1.6 2.4 2.6.5 1.1.8 2.3.8 3.8 0 1.7-.3 3.3-1 4.9-.7 1.5-1.6 2.7-2.6 3.5-1 .8-2.1 1.3-3.3 1.5-1.2.2-2.9.3-5.2.4l-10 .1c-3.2 0-5.6-.1-7-.5-1.5-.4-2.8-1.5-4.1-3.4-1.2-1.9-1.9-4.4-1.9-7.4 0-3 .4-5.5 1.5-7.5 1-2 2.3-3.3 3.7-3.9 1.4-.6 3.6-1 6.3-1L296.4 435.5zM283.7 421.5l33.8-.5.2 10.3-33.8.5L283.7 421.5zM283.3 394.5l33.8-.5.1 9-15.3 5.6 15.4-.2.1 8.6-33.8.5-.1-8.6 15.1-6-15.2.2L283.3 394.5zM283.3 390.4l-.3-17.1 6.8-.1.1 6.8 6.4-.1-.1-6.4 6.4-.1.1 6.4 7.4-.1-.1-7.5 6.8-.1.3 17.8L283.3 390.4zM283 369.6l-.3-17.1 6.8-.1.1 6.8 6.4-.1-.1-6.4 6.4-.1.1 6.4 7.4-.1-.1-7.5 6.8-.1.3 17.8L283 369.6zM282.7 348.9l-.1-7.3c-.1-4.8 0-8.1.3-9.8.3-1.7 1.1-3.1 2.4-4.2 1.3-1.1 3.4-1.7 6.3-1.7 2.6 0 4.4.3 5.3 1.1.9.8 1.5 2.2 1.7 4.5.4-2 1-3.4 1.7-4.1.7-.7 1.4-1.2 2-1.3.6-.2 2.3-.3 5-.3l8.9-.1.1 9.5-11.2.2c-1.8 0-2.9.2-3.4.5-.4.3-.6 1.2-.6 2.6l15.2-.2.2 10.3L282.7 348.9zM288.3 338.6l7.5-.1c0-1.2-.2-2-.4-2.4-.3-.5-1.2-.7-2.7-.7l-1.9 0c-1.1 0-1.8.2-2.1.7C288.4 336.5 288.3 337.4 288.3 338.6zM282.1 311.8l33.8-.5.2 10.3-33.8.5L282.1 311.8zM281.7 284.8l33.8-.5.1 9-15.3 5.6 15.4-.2.1 8.6-33.8.5-.1-8.6 15.1-6-15.2.2L281.7 284.8zM293.7 256.9l.2 10.3-3.1 0c-1.9 0-3.1.1-3.6.3-.5.2-.7.7-.7 1.4 0 .6.2 1.1.6 1.3.4.2 1.5.3 3.2.3l16.2-.2c1.5 0 2.5-.2 3-.4.5-.2.7-.7.7-1.4 0-.7-.3-1.3-.8-1.5-.5-.3-1.6-.4-3.2-.4l-4 .1 0 2.1-5.1.1-.2-12 18.1-.3.1 6.4-2.4 1c1.1.7 1.9 1.6 2.4 2.6.5 1.1.8 2.3.8 3.8 0 1.7-.3 3.3-1 4.9-.7 1.5-1.6 2.7-2.6 3.5-1 .8-2.1 1.3-3.3 1.5-1.2.2-2.9.3-5.2.4l-10 .1c-3.2 0-5.6-.1-7-.5-1.5-.4-2.8-1.5-4.1-3.4s-1.9-4.4-1.9-7.4c0-3 .4-5.5 1.5-7.5 1-2 2.3-3.3 3.7-3.9s3.6-1 6.3-1L293.7 256.9z"/><g><path d="M215.2 515.3l-.2-13.9c-.1-3.8.2-6.7.6-8.7.5-2 1.2-3.6 2.1-4.6.9-1 2.1-1.7 3.4-2.1 1.4-.4 3.5-.6 6.3-.6l4-.1c2.9 0 5 .3 6.4 1 1.3.7 2.4 1.9 3.1 3.8.7 1.9 1.1 4.3 1.2 7.3l.1 3.7 18.3-.3.2 13.8L215.2 515.3zM222.7 501.4l11.6-.2c0-.4 0-.7 0-1 0-1.3-.3-2.1-.8-2.6-.5-.5-1.7-.7-3.3-.7l-3.7.1c-1.6 0-2.6.3-3 .9C222.9 498.4 222.7 499.6 222.7 501.4zM214.7 481.6l-.1-9.8c-.1-6.5.1-10.9.5-13.2.4-2.3 1.5-4.2 3.2-5.7 1.7-1.5 4.6-2.2 8.4-2.3 3.5-.1 5.9.4 7.2 1.4 1.2 1 2 3 2.3 6 .5-2.7 1.3-4.6 2.3-5.5 1-1 1.8-1.6 2.7-1.8.8-.2 3.1-.4 6.7-.4l12-.2.2 12.8-15.1.2c-2.4 0-3.9.3-4.5.7-.6.5-.8 1.6-.8 3.5l20.5-.3.2 13.8L214.7 481.6zM222.2 467.7l10.1-.1c0-1.6-.2-2.6-.6-3.3-.4-.6-1.6-.9-3.6-.9l-2.5 0c-1.4 0-2.4.3-2.8.9C222.4 465 222.2 466.1 222.2 467.7zM240.3 413.5c4.6-.1 7.8 0 9.7.2 1.9.2 3.7 1 5.2 2.3 1.6 1.3 2.8 3.1 3.7 5.3.9 2.2 1.3 4.9 1.4 7.9 0 2.8-.3 5.4-1.1 7.7-.8 2.3-1.9 4.1-3.5 5.5-1.6 1.4-3.3 2.2-5.2 2.5-1.9.3-5.1.5-9.8.5l-7.8.1c-4.6.1-7.8 0-9.7-.2-1.9-.2-3.7-1-5.2-2.3-1.6-1.3-2.8-3.1-3.7-5.3-.9-2.2-1.3-4.9-1.4-7.9 0-2.8.3-5.4 1.1-7.7.8-2.3 1.9-4.1 3.5-5.5 1.6-1.4 3.3-2.2 5.2-2.5 1.9-.3 5.1-.5 9.8-.5L240.3 413.5zM225.6 427.5c-2.1 0-3.5.2-4.1.5-.6.3-.9.8-.9 1.7 0 .7.3 1.3.7 1.6.5.4 1.9.5 4.2.5l21.2-.3c2.6 0 4.3-.2 4.9-.4.6-.3.9-.9.9-1.8 0-.9-.4-1.5-1.1-1.8-.7-.3-2.4-.4-5.1-.3L225.6 427.5zM213.6 408.7l-.3-23.4 9.1-.1.1 9.6 8.6-.1-.1-8.5 8.7-.1.1 8.5 19.1-.3.2 13.8L213.6 408.7zM212.8 352.6l9.1-.1.1 8.2 36.4-.5.2 13.8-36.4.5.1 8.2-9.1.1L212.8 352.6zM212.7 351l-.3-23 9.1-.1.1 9.2 8.6-.1-.1-8.6 8.7-.1.1 8.6 10-.1-.2-10.1 9.1-.1.4 23.9L212.7 351zM231.7 290.6l.2 13.8-7.9.1c-2.3 0-3.7.2-4.3.5-.6.3-.8 1-.8 2 0 1.1.4 1.9 1.1 2.1.7.3 2.2.4 4.5.4l21.1-.3c2.2 0 3.7-.2 4.3-.5.7-.3 1-1 1-2.1 0-1-.4-1.7-1-2-.7-.3-2.3-.4-4.8-.4l-5.7.1-.2-13.8 1.8 0c4.7-.1 8.1.3 10 1 2 .7 3.7 2.4 5.3 5.1 1.5 2.6 2.3 5.9 2.4 9.8.1 4-.5 7.4-1.7 10-1.2 2.6-2.9 4.4-5.1 5.3-2.2.9-5.5 1.4-10 1.4l-13.3.2c-3.3 0-5.7 0-7.4-.3-1.6-.2-3.2-1-4.8-2.3-1.5-1.3-2.8-3.1-3.7-5.4-.9-2.3-1.4-4.9-1.4-7.9-.1-4.1.6-7.4 1.9-10.1 1.3-2.7 3-4.4 5-5.3 2-.9 5.1-1.3 9.4-1.4L231.7 290.6zM211.3 254.2l45.5-.7.2 13.8-19.1.3.1 4.1 19.1-.3.2 13.8-45.5.7-.2-13.8 16.3-.2-.1-4.1-16.3.2L211.3 254.2z"/></g><path fill="none" stroke="#000" stroke-width="5.32" stroke-miterlimit="10" d="M198.5 618.9L206.8 621.8"/></g><path fill="none" stroke="#000" stroke-width="4.08" stroke-miterlimit="10" d="M2369.7 606.1L2735.3 606.1"/><g><path d="M2370.8,472c2.9,20,18.8,35.1,37.6,40.9c19.9,6.1,40.9-1.4,56.1-14.6c7.9-6.8,14-15.5,18.4-24.9 c2.3-5,4.8-10.3,9.5-13.5c6.5-4.4,13.1,1.9,17.6,6.2c6.6,6.4,15.1,11.6,24.5,7.5c8.7-3.8,13.2-12.7,11.4-22 c-0.2-1.3-2.2-0.7-2,0.5c2.6,14-11.1,24.8-24.2,19.2c-7.9-3.4-11.7-12.7-20.4-14.6c-6.9-1.5-12,4.4-15.1,9.6 c-2.4,4-4.1,8.5-6.4,12.6c-2.6,4.7-5.9,8.9-9.5,12.9c-13.8,15.2-34.8,24.2-55.3,20.3c-20-3.9-37.3-20.1-40.3-40.5 C2372.6,470.2,2370.6,470.7,2370.8,472L2370.8,472z"/></g><g><path d="M2682.8,442c22.9,6.4,22.6,35.5,26.9,54.2c3.7,15.7,16.5,33.6,34.8,28.5c18.6-5.2,20.4-28.1,13.6-42.9 c-4.8-10.4-12.7-21.4-2.5-31.3c9.8-9.5,25-5.2,36.3-1.8c1.3,0.4,1.8-1.6,0.5-2c-9.5-2.8-19.5-5.6-29.3-2.7 c-7.1,2-13,7.6-14.6,14.8c-1.9,8.5,4.3,16.9,7.8,24c5.7,11.6,5.3,26-4.5,35.3c-9.1,8.7-21.7,5.9-29.9-2.2 c-8.6-8.6-10.8-21.1-12.6-32.6c-2.7-16.7-7.1-37.9-26-43.1C2682.1,439.6,2681.5,441.6,2682.8,442L2682.8,442z"/></g></g></switch></svg>