<svg xmlns="http://www.w3.org/2000/svg" viewBox="0 0 283.5 283.5" id="structure"><path fill="#D1D3D4" stroke="#808285" stroke-width="2.009" stroke-miterlimit="10" d="M102.9 261.1L10 207.4c-4.2-2.5-4.3-8.6 0-11l163.1-95.2c2-1.2 4.5-1.2 6.4 0l93.1 54.5c4.2 2.5 4.2 8.6 0 11l-163.3 94.4c-2 1.1-4.4 1.1-6.4 0z"/><g stroke="#545553" stroke-width=".85" stroke-miterlimit="10"><path fill="#5B5755" d="M198.6 174.6l28.1-16.1-.3-2.8-59.2-30.7-96.6 53.7.2 2.3 9 5.3L51.4 202l.3 2.4 58.1 33.5 97.7-56-.2-2.8z"/><path fill="#B7B7B8" d="M226.2 156l-59.4-33.6-96.5 56.1 10.6 6.1-29.7 17.2 58.2 33.6 97.7-56.1-10.9-6.1z"/></g><path fill="gray" d="M225.8 156.3L110.1 225l-38.3-24.2-8.7-4.8 18.2-10.6-10.5-6.1 96.4-56z"/><path fill="#B7B7B8" stroke="#545553" stroke-width=".85" stroke-miterlimit="10" d="M167.4 180l9.3 5.5 9.8-5.5v-11.1l-10.2-5.9-8.9 5.2zM192.9 154.5l9.3 5.5 9.8-5.5v-11.1l-10.2-5.9-8.9 5.2z"/><g stroke="#545553" stroke-width=".85" stroke-miterlimit="10"><path fill="#5B5755" d="M198.6 152.9l28.1-16.1-.3-2.7-59.2-30.8L70.6 157l.2 2.4 9 5.2-28.4 15.8.3 2.3 58.1 33.6 97.7-56.1-.2-2.8z"/><path fill="#B7B7B8" d="M226.7 134.3l-59.5-33.6-96.4 56.1 10.5 6.1-29.6 17.3 58.1 33.5 97.7-56-10.8-6.2z"/></g><path fill="gray" d="M225.8 133.8l-115.7 68.7-38.3-24.2-8.7-4.8 18.2-10.6-10.5-6.1 96.4-56.1z"/><path fill="#B7B7B8" stroke="#545553" stroke-width=".85" stroke-miterlimit="10" d="M167.4 157.4l9.3 5.6 9.8-5.6v-11l-10.2-5.9-8.9 5.2zM192.9 132l9.3 5.5 9.8-5.5v-11.1l-10.2-5.9-8.9 5.2z"/><g stroke="#545553" stroke-width=".85" stroke-miterlimit="10"><path fill="#5B5755" d="M198.6 129.6l28.1-16.1-.3-2.8-59.2-30.8-96.6 53.8.2 2.3 9 5.2L51.4 157l.3 2.4 58.1 33.5 97.7-56.1-.2-2.7z"/><path fill="#B7B7B8" d="M226.7 110.9l-59.5-33.5-96.4 56 10.5 6.1-29.6 17.3 58.1 33.6 97.7-56.1-10.8-6.1z"/></g><path fill="gray" d="M225.8 110l-115.7 68.7-38.3-24.2-8.7-4.8 18.2-10.6-10.5-6.1 96.4-56z"/><path fill="#B7B7B8" stroke="#545553" stroke-width=".85" stroke-miterlimit="10" d="M167.4 135.4l9.3 5.5 9.8-5.5v-11.1l-10.2-5.9-8.9 5.2zM192 108.2l9.4 5.5 9.8-5.5V97.1L201 91.2l-9 5.2z"/><path fill="#FCBC56" stroke="#5B5755" stroke-width="1.337" stroke-miterlimit="10" d="M196.7 106.9l10.8 6.2-97.7 56-58.1-33.5 11.4-6.7 18.2-10.6-10.5-6.1 96.4-56.1 58.6 33.1.9.5z"/><path fill="#F7923F" d="M225.8 89.2l-115.7 68.7-38.3-24.2-8.7-4.8 18.2-10.6-10.5-6.1 96.4-56.1z"/><path fill="#B7B7B8" stroke="#545553" stroke-width=".85" stroke-miterlimit="10" d="M189.9 86.5l9.4 5.5 9.7-5.5v-11l-10.2-6-8.9 5.2zM167.4 112.8l9.3 5.6 9.8-5.6v-11l-10.2-5.9-8.9 5.2z"/><path fill="#FCBC56" stroke="#5B5755" stroke-width="1.337" stroke-miterlimit="10" d="M198.1 85.2l9.4 5.3-97.7 56.1-8.8-5.1-.7-.4-1.8-1.1-.8-.4-6-3.5-2.6-1.4-6.7-3.9-2.6-1.5-7-4.1-2.6-1.4-7.9-4.6-.9-.5-1.7-1-8-4.6 11.1-6.5 18.5-10.8-1.7-1-8.8-5.1 96.4-56.1 9.6 5.5 2.6 1.4 7.8 4.4 2.6 1.5 8 4.5 2.6 1.5 7.1 4 2.6 1.4 6.8 3.9 2.6 1.4 6.1 3.5 1.1.6-30 17.2z"/><path fill="#F7923F" stroke="#5B5755" stroke-width=".425" stroke-miterlimit="10" d="M179.4 40.1L82.5 95.9l-2.9-1.5 97.2-55.8zM189.8 46.4L62.3 119.2l-.9-.5-1.7-1 127.5-72.8zM200.4 52.4L72.8 125.2l-2.6-1.4 127.6-72.9zM210.1 57.8l-127.7 73-2.6-1.5 127.7-72.9zM198.1 86.1L101 141.5l-.7-.4-1.8-1.1 97.4-55.6zM216.9 61.7l-127.8 73 2.6 1.4 127.8-73z"/><path d="M68.6 131.8l2.7 1.6c.7.4 1.3.8 1.5 1.1.3.3.5.5.5.8 0 .2-.1.4-.3.6-.2.2-.6.4-1.1.8l-.8.4c-.6.3-1 .5-1.4.6-.4.1-.8 0-1.3-.1s-1.1-.4-1.6-.7l-.7-.4-3.6 2.1-2.7-1.6 8.8-5.2zm1.2 2.4l-2.2 1.3c.1 0 .1.1.2.1.2.1.5.2.7.2.2 0 .5-.1.8-.3l.7-.4c.3-.2.4-.3.4-.4-.1-.1-.3-.3-.6-.5zM75.2 135.6l1.9 1.1c1.3.7 2.1 1.3 2.5 1.6.4.3.5.6.5 1-.1.4-.5.8-1.2 1.2-.7.4-1.3.6-1.7.6-.4 0-1-.1-1.6-.4.4.4.6.7.6.9 0 .2-.1.4-.2.5-.1.1-.5.4-1.2.8l-2.3 1.3-2.5-1.4 2.9-1.7c.5-.3.7-.5.7-.6 0-.1-.1-.3-.5-.5l-4 2.3-2.7-1.6 8.8-5.1zm1.2 2.4l-2 1.1c.3.2.6.3.7.3.2 0 .5-.1.9-.3l.5-.3c.3-.2.4-.3.4-.4 0-.1-.2-.2-.5-.4zM83.3 146.2c-.9.5-1.5.9-2 1-.4.2-.9.3-1.5.3s-1.1 0-1.8-.2c-.6-.2-1.2-.4-1.8-.7-.6-.3-1-.7-1.3-1s-.4-.7-.4-1c0-.3.2-.6.5-.9.3-.2.9-.6 1.8-1.1l1.5-.9c.9-.5 1.5-.9 2-1 .4-.2.9-.3 1.5-.3s1.1 0 1.8.2c.6.2 1.2.4 1.8.7.6.3 1 .7 1.3 1 .3.3.4.7.4 1 0 .3-.2.6-.5.9-.3.2-.9.6-1.8 1.1l-1.5.9zm.2-3.2c.4-.2.6-.4.7-.5.1-.1 0-.2-.2-.3-.1-.1-.3-.1-.5-.1s-.5.1-.9.4l-4.1 2.4c-.5.3-.8.5-.9.6-.1.1 0 .2.2.3.2.1.4.1.6.1.2-.1.5-.2 1.1-.5l4-2.4zM89.5 143.8l4.6 2.6-1.8 1-1.9-1.1-1.7 1 1.7 1-1.7 1-1.7-1-3.7 2.1-2.7-1.6 8.9-5zM100.1 150l-1.8 1-1.6-.9-7.1 4.1-2.7-1.6 7.1-4.1-1.6-.9 1.8-1 5.9 3.4zM100.7 150.3l4.5 2.6-1.8 1-1.8-1-1.7 1 1.7 1-1.7 1-1.7-1-1.9 1.1 2 1.1-1.8 1-4.7-2.7 8.9-5.1zM108.6 159.3l-2.7-1.6 1.5-.9c.4-.3.7-.4.7-.5.1-.1 0-.2-.2-.3-.2-.1-.4-.2-.6-.1-.2 0-.5.2-1 .5l-4.1 2.4c-.4.2-.7.4-.8.5-.1.1 0 .2.2.3.2.1.4.2.6.1.2 0 .5-.2 1-.5l1.1-.6 2.7 1.6-.3.2c-.9.5-1.6.9-2.2 1-.5.1-1.2.1-2 0s-1.6-.4-2.4-.9c-.8-.5-1.3-.9-1.6-1.3-.3-.4-.3-.8 0-1.2.3-.3.8-.8 1.7-1.3l2.6-1.5c.6-.4 1.1-.6 1.5-.8.4-.2.8-.2 1.4-.3.5 0 1.1 0 1.8.2.6.2 1.2.4 1.8.8.8.5 1.3.9 1.6 1.4.3.4.3.8 0 1.2-.2.3-.8.7-1.6 1.2l-.7.4zM119.7 161.2l-8.8 5.1-2.7-1.6 3.7-2.1-.8-.5-3.7 2.1-2.7-1.6 8.8-5.1 2.7 1.6-3.2 1.9.8.5 3.2-1.8 2.7 1.5z"/><g><path fill="#FFF" stroke="#000" stroke-width=".632" stroke-miterlimit="10" d="M170.3 132.7L123.1 160c-.6.4-1.6.3-2.3 0l-6.5-3.8c-.6-.3-.6-.9 0-1.1.1-.1.3-.1.4-.2l46.7-27c.1-.1.2-.1.3-.2.4-.4 1.4-.4 2 0l6.5 3.8c.7.3.8.8.1 1.2z"/><g fill="#F5A722"><path d="M117.2 154.9l3.1-1.8 1.2.7-1.2.7 1.1.7 1.1-.7 1.1.7-1.1.7 1.3.8 1.3-.8 1.2.7-3.2 1.8-5.9-3.5zM125 150.4l6 3.5-1.6.9-3.7-1 2.7 1.6-1.5.9-6-3.5 1.5-.9 3.7 1-2.7-1.6 1.6-.9zM132.1 148.8l-1.8 1.1-.5-.3c-.3-.2-.6-.3-.7-.3-.1 0-.2 0-.4.1-.1.1-.2.1-.1.2 0 .1.2.2.5.4l2.9 1.7c.3.2.5.2.6.3.1 0 .3 0 .4-.1.1-.1.2-.2.1-.2 0-.1-.2-.2-.5-.4l-.7-.4-.4.2-.9-.5 2.1-1.2 3.2 1.9-1.2.7-.6-.2c.1.2 0 .4-.1.5-.1.2-.3.3-.5.5-.3.2-.7.3-1.1.4-.4.1-.8.1-1.1.1-.3 0-.6-.1-.9-.2l-1-.5-1.8-1c-.6-.3-1-.6-1.1-.8-.2-.2-.2-.4-.1-.8.1-.3.5-.6 1-1 .5-.3 1.1-.5 1.6-.6s1-.1 1.4 0 .8.3 1.3.6l.4-.2zM132.5 146.1l6 3.5-1.8 1.1-6-3.5 1.8-1.1zM137.3 143.3l6 3.5-1.6.9-3.7-1 2.7 1.6-1.5.9-6-3.5 1.5-.9 3.7 1-2.7-1.6 1.6-.9zM138 142.9l3.1-1.8 1.2.7-1.2.7 1.1.7 1.1-.7 1.1.7-1.1.7 1.3.8 1.3-.8 1.2.7-3.2 1.8-5.9-3.5zM141.7 140.7l3.1-1.8 1.2.7-1.2.7 1.1.7 1.1-.7 1.1.7-1.1.7 1.3.8 1.3-.8 1.2.7-3.2 1.8-5.9-3.5zM145.5 138.6l1.3-.7c.9-.5 1.5-.8 1.8-1 .4-.1.8-.2 1.2-.2.4 0 .9.2 1.4.5.5.3.7.5.7.7 0 .2-.1.4-.5.6.4-.2.8-.2 1-.2.3 0 .4 0 .6.1.1 0 .4.2.9.5l1.6.9-1.7 1-2-1.2c-.3-.2-.6-.3-.7-.3-.1 0-.3.1-.6.2l2.7 1.6-1.8 1.1-5.9-3.6zm2.8-.5l1.3.8c.2-.1.3-.2.4-.3 0-.1-.1-.2-.3-.3l-.3-.2c-.2-.1-.4-.2-.5-.1-.2-.1-.4 0-.6.1zM152.1 134.8l6 3.5-1.8 1.1-6-3.5 1.8-1.1zM156.9 132l6 3.5-1.6.9-3.7-1 2.7 1.6-1.5.9-6-3.5 1.5-.9 3.7 1-2.7-1.6 1.6-.9zM164.1 130.4l-1.8 1.1-.5-.3c-.3-.2-.6-.3-.7-.3-.1 0-.2 0-.4.1-.1.1-.2.1-.1.2 0 .1.2.2.5.4l2.9 1.7c.3.2.5.2.6.3.1 0 .3 0 .4-.1.1-.1.2-.2.1-.2 0-.1-.2-.2-.5-.4l-.7-.4-.4.2-.9-.5 2.1-1.2 3.2 1.9-1.2.7-.6-.2c.1.2 0 .4-.1.5-.1.2-.3.3-.5.5-.3.2-.7.3-1.1.4-.4.1-.8.1-1.1.1-.3 0-.6-.1-.9-.2l-1-.5-1.8-1c-.6-.3-1-.6-1.1-.8-.2-.2-.2-.4-.1-.8.1-.3.5-.6 1-1 .5-.3 1.1-.5 1.6-.6s1-.1 1.4 0 .8.3 1.3.6l.4-.2z"/></g></g><g stroke="#000" stroke-miterlimit="10"><path stroke-width=".32" d="M115.3 175.4l-1.2.7c-.3-.1-.7-.3-1.1-.4l-1.5-.3v-1s0-.1-.1-.1h-3.2c-.1 0-.1 0-.1.1v1l-1.5.3c-.4.1-.7.2-1.1.3l-1.3-.7h-.1l-2.3 1.3v.1l1.3.7c-.5.5-.9 1-1.1 1.5h-1.8c-.1 0-.1 0-.1.1l.1 1.8s0 .1.1.1h1.8c.2.5.6 1 1.1 1.4l-1.4.8v.1l2.3 1.3h.1l1.4-.8c.3.1.6.2 1 .3.5.1 1 .2 1.6.3v1.1s0 .1.1.1h3.2c.1 0 .1 0 .1-.1v-1.1c.5-.1.9-.2 1.4-.3.4-.1.7-.2 1.1-.3l1.3.8h.1l2.3-1.3v-.1l-1.3-.8c.5-.4.8-.9 1-1.4h1.8c.1 0 .1 0 .1-.1 0 0 0-1.9-.1-1.9h-1.8c-.2-.5-.5-1-1-1.5l1.3-.7v-.1l-2.3-1.3c-.1.1-.2.1-.2.1z"/><path fill="#E6E7E8" stroke-width=".223" d="M113.1 178c1.9 1.1 1.9 2.8 0 3.9s-4.9 1.1-6.8 0c-1.9-1.1-1.9-2.8 0-3.9s5-1.1 6.8 0z"/><path stroke-width=".32" d="M111.5 179c.9.5.9 1.4 0 2-.9.5-2.5.5-3.4 0-.9-.5-.9-1.4 0-2 .9-.5 2.4-.5 3.4 0z"/></g></svg>