<svg xmlns="http://www.w3.org/2000/svg" viewBox="0 0 283.5 283.5" id="office"><path fill="#E2E2E1" d="M13.1,201.1l69,39.8c0.1,0.1,0.3,0.1,0.5,0.1l116.2,0.2c0.2,0,0.3,0,0.5-0.1c3.9-2.3,60.3-34.8,69.7-40.4	c0.6-0.4,0.6-1.3,0-1.6l-85.3-49.5c-0.2-0.1-0.3-0.1-0.5-0.1L88.8,156c-0.1,0-0.3,0.1-0.4,0.1l-75.2,43.4	C12.5,199.8,12.5,200.7,13.1,201.1z"/><path fill="#B7B7B8" stroke="#545553" stroke-width="1.228" stroke-miterlimit="10" d="M13.9,179.4l69,39.8	c0.3,0.2,0.7,0.3,1.1,0.3l115.5,0.2c0.4,0,0.8-0.1,1.1-0.3c6.5-3.7,71.2-41.1,70.8-41.1l0.1-27.8c0-2-1.3-3.7-3.3-4.2l-80.8-20	c-0.3-0.1-0.5-0.1-0.8,0l-172,21.7c-1.1,0.1-1.9,1.1-1.9,2.2v27.2C12.7,178.3,13.2,179,13.9,179.4z"/><path fill="#FFEACC" stroke="#696A6A" stroke-width="1.228" stroke-miterlimit="10" d="M141.8,73.6l128.8,73.1c0.4,0.2,0.4,0.7,0,1	l-70.5,41.5c-0.1,0.1-0.2,0.1-0.3,0.1L83.1,189c-0.1,0-0.2,0-0.3-0.1l-69.4-40.1c-0.8-0.4-0.7-1.5,0-2l127.8-73.2	C141.4,73.5,141.6,73.5,141.8,73.6z"/><path fill="#F7923F" stroke="#696A6A" stroke-width="1.228" stroke-miterlimit="10" d="M49.8 118l-27-15.4c-.6-.3-1.4.1-1.4.8v38.6c0 .3.2.6.5.8l27 15.7c.6.4 1.4-.1 1.4-.8v-38.9C50.3 118.5 50.1 118.2 49.8 118zM232.5 117.5l27-15.4c.6-.3 1.4.1 1.4.8v38.6c0 .3-.2.6-.5.8l-27 15.7c-.6.4-1.4-.1-1.4-.8v-38.9C232 118 232.2 117.7 232.5 117.5z"/><path fill="#FFD998" stroke="#545553" stroke-width="1.228" stroke-miterlimit="10" d="M154.1,41.6h-27.6L21.9,101.8	c-0.1,0-0.1,0.2,0,0.2l28.5,16.3c0,0,0.1,0,0.1,0L127,73.9l26.6,0.1c0,0,78.8,44.1,78.8,44.1l28.3-16.1	C260.9,101.8,154.1,41.6,154.1,41.6z"/><path fill="none" stroke="#696A6A" stroke-width="4.014" stroke-linecap="round" stroke-miterlimit="10" d="M61.6 142.3L61.6 142.3M73.6 130.3L73.6 130.3"/><path fill="none" stroke="#696A6A" stroke-width="1.228" stroke-linecap="round" stroke-miterlimit="10" d="M80.3 114.7L80.3 130.6"/><path fill="#FCBC56" stroke="#696A6A" stroke-width="1.228" stroke-miterlimit="10" d="M61.8,114.6l18.1-10.3	c0.7-0.4,1.5-0.4,2.2,0l19.4,11.9c0.2,0.1,0.2,0.4,0,0.6l-20.6,11.2c-0.1,0-0.2,0-0.3,0l-18.9-10.9	C60.8,116.6,60.8,115.2,61.8,114.6z"/><path fill="#FCBC56" stroke="#696A6A" stroke-width="1.228" stroke-miterlimit="10" d="M88.9,91.9l11.4-6.4	c0.5-0.3,1.2,0.1,1.2,0.7l0.6,29.9c0,0.3-0.2,0.6-0.4,0.7l-18.5,10.1c-1.3,0.7-2.8-0.4-2.5-1.9l7.8-32.6	C88.5,92.2,88.7,92,88.9,91.9z"/><path fill="none" stroke="#696A6A" stroke-width="1.228" stroke-linecap="round" stroke-miterlimit="10" d="M80.3 130.6L77.9 149.3M80.3 130.6L62 139.9M80.3 130.6L98.8 144.4M80.3 130.6L95 131.3M80.3 130.6L73.1 128.1M80.3 130.6L82.2 133.9"/><path fill="none" stroke="#696A6A" stroke-width="4.014" stroke-linecap="round" stroke-miterlimit="10" d="M95.2 133.7L95.2 133.7M98.5 146.9L98.5 146.9M78.1 151.8L78.1 151.8M83.1 136.5L83.1 136.5M207.5 134.8L207.5 134.8M195.5 122.8L195.5 122.8"/><path fill="none" stroke="#696A6A" stroke-width="1.228" stroke-linecap="round" stroke-miterlimit="10" d="M188.8 107.2L188.8 123.1"/><path fill="#FCBC56" stroke="#696A6A" stroke-width="1.228" stroke-miterlimit="10" d="M207.3,107.2l-18.1-10.3	c-0.7-0.4-1.5-0.4-2.2,0l-19.4,11.9c-0.2,0.1-0.2,0.4,0,0.6l20.6,11.2c0.1,0,0.2,0,0.3,0l18.9-10.9	C208.3,109.1,208.3,107.7,207.3,107.2z"/><path fill="#FCBC56" stroke="#696A6A" stroke-width="1.228" stroke-miterlimit="10" d="M180.3,84.5l-11.6-6.6c-0.4-0.3-1,0.1-1,0.6	l-0.6,30.2c0,0.3,0.1,0.5,0.4,0.6l18.8,10.3c1.2,0.6,2.6-0.4,2.2-1.7l-7.8-33C180.6,84.7,180.4,84.6,180.3,84.5z"/><path fill="none" stroke="#696A6A" stroke-width="1.228" stroke-linecap="round" stroke-miterlimit="10" d="M188.8 123.1L191.2 141.8M188.8 123.1L207 132.5M188.8 123.1L170.3 137M188.8 123.1L174.1 123.8M188.8 123.1L196 120.6M188.8 123.1L186.8 126.5"/><path fill="none" stroke="#696A6A" stroke-width="4.014" stroke-linecap="round" stroke-miterlimit="10" d="M173.9 126.3L173.9 126.3M170.6 139.4L170.6 139.4M191 144.3L191 144.3M186 129.1L186 129.1"/><g stroke="#555655" stroke-width="1.228" stroke-miterlimit="10"><path fill="#E2E2E1" d="M62.4 99.3c.8.4 1.7.4 2.5 0l19.2-11.4c.1-.1.1-.3 0-.4l-13-7.2c-.5-.3-1.1-.3-1.6 0l-19.1 11c-.4.2-.4.8 0 1L62.4 99.3zM49.6 90.5l-.1-14.8c0-.2.1-.4.3-.6L69.6 64c.4-.2 1 .1 1 .6l-.2 14.6c0 .2-.1.4-.3.5L50.6 91C50.1 91.3 49.6 91 49.6 90.5z"/><path fill="#E2E2E1" d="M50.8 89l-.1-13c0-.2.1-.4.3-.5l17.4-9.9c.4-.2.8.1.8.5L69.1 79c0 .2-.1.4-.3.5l-17.1 10C51.3 89.7 50.8 89.4 50.8 89zM67.6 92.4l3.4 2c0 0 .1 0 .1 0l5-2.9c0 0 0-.1 0-.1l-3.2-1.8c-.1-.1-.3-.1-.4 0L67.6 92.4 67.6 92.4z"/><path opacity=".5" fill="none" stroke-linecap="round" d="M56.2 93L72.4 83.6M58.1 94.3L74.3 84.9M60.6 95.4L76.9 86M54.3 91.7L70.5 82.3M70.5 82.3L76.9 86M69.3 83.3L75.3 86.6M67.6 84.1L71.5 86.2"/></g><g stroke="#555655" stroke-width="1.228" stroke-miterlimit="10"><path fill="#E2E2E1" d="M210.6 94.7c-.2.1-.4.1-.6 0l-20.2-11.9c-.1-.1-.1-.3 0-.4l13-7.2c.5-.3 1.1-.3 1.6 0l19.2 11c.4.2.4.7 0 .9L210.6 94.7zM224.3 85.4l.1-14.8c0-.2-.1-.4-.3-.6l-19.7-11.2c-.4-.2-1 .1-1 .6l.2 14.6c0 .2.1.4.3.5l19.4 11.3C223.8 86.2 224.3 85.9 224.3 85.4z"/><path fill="#E2E2E1" d="M223.1 83.8l.1-13c0-.2-.1-.4-.3-.5l-17.4-9.9c-.4-.2-.8.1-.8.5l.2 12.9c0 .2.1.4.3.5l17.1 10C222.6 84.5 223.1 84.3 223.1 83.8zM206.3 87.3l-3.4 2c0 0-.1 0-.1 0l-5-2.9c0 0 0-.1 0-.1l3.2-1.8c.1-.1.3-.1.4 0L206.3 87.3 206.3 87.3z"/><path opacity=".5" fill="none" stroke-linecap="round" d="M217.7 87.9L201.5 78.5M215.8 89.1L199.6 79.7M213.3 90.3L197 80.8M219.6 86.6L203.4 77.2M203.4 77.2L197 80.8M204.6 78.2L198.6 81.5M206.3 79L202.4 81.1"/></g><g stroke="#696A6A" stroke-width="1.228" stroke-miterlimit="10"><path fill="#F7923F" d="M148.1,46.1c1.5-2,0.9-4.4-2-6 c-3.7-2.1-9.6-2.1-13.3,0c-2.7,1.5-3.4,3.8-2.1,5.7l2.2,10.1c-0.3,1.2,0.3,2.5,1.9,3.4c2.6,1.5,6.9,1.5,9.5,0 c1.7-1,2.3-2.3,1.8-3.6L148.1,46.1z"/><path fill="#FCBC56" d="M146.1,47.7c-3.7,2.1-9.6,2.1-13.3,0 c-3.7-2.1-3.7-5.5,0-7.7c3.7-2.1,9.6-2.1,13.3,0C149.8,42.2,149.8,45.6,146.1,47.7z"/></g><path fill="none" stroke="#696A6A" stroke-width="1.228" stroke-linecap="round" stroke-miterlimit="10" d="M139.5,43.9	c0,0-2.3-6-0.9-9.7c2.6-6.6,0.5-7-0.5-9.7"/><path fill="#F7923F" stroke="#F26F24" stroke-width="1.228" stroke-linecap="round" stroke-miterlimit="10" d="M149.4 22.8c0 0-.2 3.7-2.5 5.2-2.3 1.5-5.8.2-5.8.2s.2-3.7 2.5-5.2S149.4 22.8 149.4 22.8zM137.9 24.1c0 0-3.6 1-5.7-.6s-2-5.4-2-5.4 3.6-1 5.7.6C138 20.3 137.9 24.1 137.9 24.1zM137.4 33c0 0-2.3 3-5 2.9s-4.8-3.1-4.8-3.1 2.3-3 5-2.9C135.2 29.9 137.4 33 137.4 33z"/><path d="M84.2 198.6h2.4c.7 0 1.2 0 1.5.1.4.1.6.2.8.4.2.2.3.4.4.6.1.2.1.6.1 1.1v.7c0 .5-.1.9-.2 1.1-.1.2-.3.4-.7.5-.3.1-.8.2-1.3.2h-.6v3.2h-2.4V198.6zM86.7 200v2c.1 0 .1 0 .2 0 .2 0 .4 0 .5-.1.1-.1.1-.3.1-.6v-.7c0-.3 0-.4-.1-.5C87.2 200 87 200 86.7 200zM90.1 198.6h1.7c1.1 0 1.9 0 2.3.1.4.1.7.3 1 .6.3.3.4.8.4 1.5 0 .6-.1 1-.3 1.2-.2.2-.5.3-1.1.4.5.1.8.2 1 .4.2.2.3.3.3.5 0 .1.1.5.1 1.2v2.1h-2.2v-2.6c0-.4 0-.7-.1-.8-.1-.1-.3-.2-.6-.2v3.6h-2.4V198.6zM92.5 200v1.8c.3 0 .5 0 .6-.1.1-.1.2-.3.2-.6v-.4c0-.3-.1-.4-.2-.5C93 200 92.8 200 92.5 200zM101.9 203.3c0 .8 0 1.4-.1 1.7 0 .3-.2.6-.4.9-.2.3-.5.5-.9.6-.4.1-.8.2-1.4.2-.5 0-.9-.1-1.3-.2-.4-.1-.7-.3-1-.6-.2-.3-.4-.6-.4-.9 0-.3-.1-.9-.1-1.7v-1.4c0-.8 0-1.4.1-1.7 0-.3.2-.6.4-.9.2-.3.5-.5.9-.6.4-.1.8-.2 1.4-.2.5 0 .9.1 1.3.2.4.1.7.3 1 .6.2.3.4.6.4.9 0 .3.1.9.1 1.7V203.3zM99.5 200.7c0-.4 0-.6-.1-.7s-.1-.2-.3-.2c-.1 0-.2 0-.3.1-.1.1-.1.3-.1.7v3.7c0 .5 0 .7.1.9 0 .1.1.2.3.2.2 0 .3-.1.3-.2 0-.1.1-.4.1-.9V200.7zM102.8 198.6h4.1v1.6h-1.7v1.5h1.5v1.5h-1.5v3.3h-2.4V198.6zM112.3 198.6v1.6h-1.4v6.3h-2.4v-6.3h-1.4v-1.6H112.3zM112.9 198.6h4v1.6h-1.6v1.5h1.5v1.5h-1.5v1.7h1.8v1.6h-4.2V198.6zM123.4 202.1h-2.4v-1.4c0-.4 0-.7-.1-.8-.1-.1-.2-.1-.3-.1-.2 0-.3.1-.4.2-.1.1-.1.4-.1.8v3.7c0 .4 0 .6.1.8.1.1.2.2.4.2.2 0 .3-.1.4-.2.1-.1.1-.4.1-.8v-1h2.4v.3c0 .8-.1 1.4-.2 1.7-.1.3-.4.6-.9.9-.5.3-1 .4-1.7.4-.7 0-1.3-.1-1.7-.3-.5-.2-.8-.5-.9-.9-.1-.4-.2-1-.2-1.7v-2.3c0-.6 0-1 .1-1.3 0-.3.2-.6.4-.8.2-.3.5-.5.9-.6.4-.2.9-.2 1.4-.2.7 0 1.3.1 1.8.4.5.2.8.5.9.9.1.4.2.9.2 1.6V202.1zM129.7 198.6v7.9h-2.4v-3.3h-.7v3.3h-2.4v-7.9h2.4v2.8h.7v-2.8H129.7z"/><path fill="#FFF" stroke="#000" stroke-width=".774" stroke-miterlimit="10" d="M196,208.2H134c-0.8,0-1.5-0.7-1.5-1.5 v-8.6c0-0.8,0.6-1.4,1.3-1.3c0.2,0,0.3,0,0.5,0h61.3c0.2,0,0.3,0,0.5,0c0.7-0.2,1.3,0.5,1.3,1.3v8.6 C197.4,207.5,196.8,208.2,196,208.2z"/><path fill="#F5A722" d="M135.5 198.6h4v1.6h-1.6v1.5h1.5v1.5h-1.5v1.7h1.8v1.6h-4.2V198.6zM145.7 198.6v7.9h-2.1l-1.3-3.6v3.6h-2v-7.9h2l1.3 3.6v-3.6H145.7zM152.2 201.5h-2.4v-.7c0-.5 0-.7-.1-.9 0-.1-.2-.2-.3-.2-.1 0-.2 0-.3.1-.1.1-.1.3-.1.8v3.8c0 .4 0 .6.1.7.1.1.2.2.3.2.2 0 .3-.1.4-.2.1-.1.1-.4.1-.7v-.9h-.5v-1.2h2.8v4.3h-1.5l-.2-.6c-.2.2-.4.4-.6.6-.2.1-.5.2-.9.2-.4 0-.8-.1-1.1-.3-.4-.2-.6-.4-.8-.6-.2-.2-.3-.5-.3-.8 0-.3-.1-.7-.1-1.2v-2.4c0-.8 0-1.3.1-1.7.1-.3.4-.7.8-.9s1-.4 1.8-.4c.7 0 1.3.1 1.8.4.5.2.8.5.9.9.1.3.2.8.2 1.5V201.5zM155.6 198.6v7.9h-2.4v-7.9H155.6zM161.9 198.6v7.9h-2.1l-1.3-3.6v3.6h-2v-7.9h2l1.3 3.6v-3.6H161.9zM162.9 198.6h4v1.6h-1.6v1.5h1.5v1.5h-1.5v1.7h1.8v1.6h-4.2V198.6zM167.7 198.6h4v1.6h-1.6v1.5h1.5v1.5h-1.5v1.7h1.8v1.6h-4.2V198.6zM172.6 198.6h1.7c1.1 0 1.9 0 2.3.1.4.1.7.3 1 .6.3.3.4.8.4 1.5 0 .6-.1 1-.3 1.2-.2.2-.5.3-1.1.4.5.1.8.2 1 .4.2.2.3.3.3.5 0 .1.1.5.1 1.2v2.1h-2.2v-2.6c0-.4 0-.7-.1-.8-.1-.1-.3-.2-.6-.2v3.6h-2.4V198.6zM175 199.9v1.8c.3 0 .5 0 .6-.1.1-.1.2-.3.2-.6v-.4c0-.3-.1-.4-.2-.5C175.5 200 175.3 199.9 175 199.9zM181.3 198.6v7.9h-2.4v-7.9H181.3zM187.6 198.6v7.9h-2.1l-1.3-3.6v3.6h-2v-7.9h2l1.3 3.6v-3.6H187.6zM194.1 201.5h-2.4v-.7c0-.5 0-.7-.1-.9 0-.1-.2-.2-.3-.2-.1 0-.2 0-.3.1-.1.1-.1.3-.1.8v3.8c0 .4 0 .6.1.7.1.1.2.2.3.2.2 0 .3-.1.4-.2.1-.1.1-.4.1-.7v-.9h-.5v-1.2h2.8v4.3h-1.5l-.2-.6c-.2.2-.4.4-.6.6-.2.1-.5.2-.9.2-.4 0-.8-.1-1.1-.3-.4-.2-.6-.4-.8-.6-.2-.2-.3-.5-.3-.8 0-.3-.1-.7-.1-1.2v-2.4c0-.8 0-1.3.1-1.7.1-.3.4-.7.8-.9s1-.4 1.8-.4c.7 0 1.3.1 1.8.4.5.2.8.5.9.9.1.3.2.8.2 1.5V201.5z"/><g><path stroke="#000" stroke-width=".42" stroke-miterlimit="10" d="M77.3,199.5l-1.6-0.9c-0.1-0.5-0.2-1-0.3-1.5 c-0.2-0.6-0.4-1.3-0.6-1.9l1.1-0.6c0,0,0-0.1,0-0.1l-2.1-3.6c0-0.1-0.1-0.1-0.1-0.1l-1.1,0.6c-0.4-0.5-0.9-1-1.3-1.5 c-0.4-0.4-0.7-0.7-1.1-1V187c0-0.1,0-0.1-0.1-0.2l-3-1.7c0,0-0.1,0-0.1,0.1v1.9c-0.9-0.3-1.7-0.4-2.4-0.2l-1.2-2.1 c0-0.1-0.1-0.1-0.1-0.1l-2.1,1.3c0,0,0,0.1,0,0.1l1.2,2c-0.4,0.6-0.8,1.3-0.9,2.1l-1.8-1c0,0-0.1,0-0.1,0.1v3.4 c0,0.1,0,0.1,0.1,0.2l1.8,1.1c0.1,0.4,0.2,0.9,0.3,1.3c0.2,0.7,0.4,1.3,0.7,2l-1.2,0.7c0,0,0,0.1,0,0.1l2.1,3.7 c0,0.1,0.1,0.1,0.1,0.1l1.3-0.7c0.4,0.5,0.8,1,1.3,1.4c0.4,0.4,0.7,0.7,1.1,1v2c0,0.1,0,0.1,0.1,0.2l3,1.7c0,0,0.1,0,0.1-0.1v-2 c0.8,0.3,1.6,0.3,2.3,0.2l1.2,2.1c0,0.1,0.1,0.1,0.1,0.1l2.1-1.2c0,0,0-0.1,0-0.1l-1.2-2c0.5-0.5,0.8-1.3,1-2.1l1.7,1 c0,0,0.1,0,0.1-0.1v-3.4C77.4,199.6,77.4,199.5,77.3,199.5z"/><path fill="#E6E7E8" stroke="#000" stroke-width=".292" stroke-miterlimit="10" d="M72.9,198.7c0,2.8-2,4-4.5,2.6 s-4.5-4.9-4.5-7.7c0-2.8,2-4,4.5-2.6S72.9,195.9,72.9,198.7z"/><path stroke="#000" stroke-width=".42" stroke-miterlimit="10" d="M70.7,197.5c0,1.4-1,2-2.2,1.3c-1.2-0.7-2.2-2.4-2.2-3.8 c0-1.4,1-2,2.2-1.3C69.7,194.3,70.7,196,70.7,197.5z"/></g></svg>