<svg xmlns="http://www.w3.org/2000/svg" viewBox="0 0 283.5 283.5" id="park"><path fill="#969F3C" stroke="#545453" stroke-width="1.159" stroke-miterlimit="10" d="M277.3,147.7c1.5,0.9,1.5,3,0,3.9l-0.4,0.2	l-49,28l-103.2,58.9c-0.7,0.4-1.5,0.4-2.2,0L84.7,217l-32.6-18.7L11.6,175c-1.5-0.9-1.5-3,0-3.9l152-87.4c0.7-0.4,1.5-0.4,2.2,0	l77.6,44.5L277.3,147.7L277.3,147.7z"/><path fill="#F1F2F2" stroke="#545453" stroke-width="1.142" stroke-miterlimit="10" d="M277,151.7l-49.1,28.1	c-13.5,2.3-30.1,3.4-50,2.9c-75.6-1.9-90.8,20.8-93.1,34.3l-32.6-18.7c4-13.6,21.9-33.3,92.5-31.5c77.5,2,103.7-20.8,98.9-38.5	l33.6,19.1C278.7,148.3,278.7,150.7,277,151.7z"/><path fill="none" stroke="#545453" stroke-width="1.999" stroke-linecap="round" stroke-miterlimit="10" d="M213.2 111.7L213.2 146.8"/><path fill="#FDBD56" stroke="#545453" stroke-width="1.159" stroke-miterlimit="10" d="M231.9,106.1c-1-1.6-2-2.4-2.9-2.7	c-0.1-0.7-0.3-1.3-0.5-2c0.2-0.2,0.3-0.6,0.3-1.1c0-1.3-0.9-2.9-2.1-3.6c-0.1,0-0.1-0.1-0.2-0.1c-0.1-0.2-0.2-0.3-0.2-0.5	c1.1-0.1,1.6-1.5,0.5-3.7c-1.5-2.2-3.2-2.3-3.6-1.1c0-0.1-0.1-0.1-0.1-0.2c-0.2-3-2.3-6.4-4.8-7.8c-0.6-0.4-1.2-0.6-1.8-0.6	c-0.9-1.8-2.6-3.3-4.3-2.9c-0.4,0.4-0.7,0.9-0.7,1.5c-0.1,0.5-0.6,0.7-1,0.4c-2-1.8-4.3-2.8-6.6-2.1c-0.1,0-0.1,0-0.2,0.1	c-0.8,0.8-3.6,2.4-4.7,2.7c-0.1,0-0.1,0-0.2,0.1c-2.5,2.4-2,6.6-0.2,10.3c-0.9-0.2-1.5,0.3-1.5,1.5c0,0.2,0,0.5,0.1,0.8	c-1.9-0.7-3.1,1.2-1.5,4.5c1.5,2.2,3.1,2.7,4,2.1c0.1,0.1,0.2,0.2,0.3,0.3c0.3,0.9,0.6,1.7,0.9,2.6c-0.1,0.2-0.2,0.4-0.2,0.6	c-1.3-0.5-2.1,0.8-1,3.1c1.2,1.7,2.4,1.9,2.9,1.3c0.2,0.2,0.4,0.3,0.6,0.4c0.2,0.1,0.4,0.2,0.6,0.3c-0.3,0.8-0.2,2.1,0.6,3.7	c1.7,2.5,3.6,2.8,4.4,1.7c0.6,0.5,1.2,0.9,1.8,1.3c0.4,1,1.1,1.9,1.9,2.4c0.3,0.2,0.6,0.3,0.9,0.3c0.3,1.5,1.4,3,2.6,3.8	c1.4,0.8,2.5,0.3,2.7-1.1c0.2,0.3,0.5,0.5,0.7,0.6c0.9,0.5,1.6,0.1,1.6-0.9c0,0,0,0,0-0.1c0.4,0.3,0.8,0.5,1.2,0.3	c0.3-0.3,4.4-2.6,4.9-2.8c0.5-0.6,0.1-1.9-0.6-2.5c2.2,0,3.7-1.7,3.7-4.7c0-0.5,0-0.9-0.1-1.4C232.2,111.7,233.5,109.6,231.9,106.1z"/><path fill="#BCCD30" stroke="#545453" stroke-width="1.159" stroke-miterlimit="10" d="M227.1,108.8c-1-1.6-2-2.4-2.9-2.7	c-0.1-0.7-0.3-1.3-0.5-2c0.2-0.2,0.3-0.6,0.3-1.1c0-1.3-0.9-2.9-2.1-3.6c-0.1,0-0.1-0.1-0.2-0.1c-0.1-0.2-0.2-0.3-0.2-0.5	c1.1-0.1,1.6-1.5,0.5-3.7c-1.5-2.2-3.2-2.3-3.6-1.1c0-0.1-0.1-0.1-0.1-0.2c-0.2-3-2.3-6.4-4.8-7.8c-0.6-0.4-1.2-0.6-1.8-0.6	c-0.9-1.8-2.6-3.3-4.3-2.9c-0.5,0.5-0.7,1.1-0.7,1.8c0,0.4-0.4,0.5-0.7,0.3c-2-1.9-4.5-3-6.8-2.4c-0.1,0-0.1,0.1-0.2,0.1	c-2.5,2.4-2,6.6-0.2,10.2c-0.9-0.2-1.5,0.3-1.5,1.5c0,0.2,0,0.5,0.1,0.8c-1.9-0.7-3.1,1.2-1.5,4.5c1.5,2.2,3.1,2.7,4,2.1	c0.1,0.1,0.2,0.2,0.3,0.3c0.3,0.9,0.6,1.7,0.9,2.6c-0.1,0.2-0.2,0.4-0.2,0.6c-1.3-0.5-2.1,0.8-1,3.1c1.2,1.7,2.4,1.9,2.9,1.3	c0.2,0.2,0.4,0.3,0.6,0.4c0.2,0.1,0.4,0.2,0.6,0.3c-0.3,0.8-0.2,2.1,0.6,3.7c1.7,2.5,3.6,2.8,4.4,1.7c0.6,0.5,1.2,0.9,1.8,1.3	c0.4,1,1.1,1.9,1.9,2.4c0.3,0.2,0.6,0.3,0.9,0.3c0.3,1.5,1.4,3,2.6,3.8c1.4,0.8,2.5,0.3,2.7-1.1c0.2,0.3,0.5,0.5,0.7,0.6	c0.9,0.5,1.6,0.1,1.6-0.9c0,0,0,0,0-0.1c0.4,0.3,0.8,0.5,1.2,0.3c0.5-0.6,0.1-1.9-0.6-2.5c2.2,0,3.7-1.7,3.7-4.7	c0-0.5,0-0.9-0.1-1.4C227.4,114.4,228.8,112.3,227.1,108.8z"/><path fill="none" stroke="#545453" stroke-width="1.999" stroke-linecap="round" stroke-miterlimit="10" d="M175.7 88.3L175.7 123.4"/><path fill="#659357" stroke="#545453" stroke-width="1.159" stroke-miterlimit="10" d="M194.4,82.7c-1-1.6-2-2.4-2.9-2.7	c-0.1-0.7-0.3-1.3-0.5-2c0.2-0.2,0.3-0.6,0.3-1.1c0-1.3-0.9-2.9-2.1-3.6c-0.1,0-0.1-0.1-0.2-0.1c-0.1-0.2-0.2-0.3-0.2-0.5	c1.1-0.1,1.6-1.5,0.5-3.7c-1.5-2.2-3.2-2.3-3.6-1.1c0-0.1-0.1-0.1-0.1-0.2c-0.2-3-2.3-6.4-4.8-7.8c-0.6-0.4-1.2-0.6-1.8-0.6	c-0.9-1.8-2.6-3.3-4.3-2.9c-0.4,0.4-0.7,0.9-0.7,1.5c-0.1,0.5-0.6,0.7-1,0.4c-2-1.8-4.3-2.8-6.6-2.1c-0.1,0-0.1,0-0.2,0.1	c-0.8,0.8-3.6,2.4-4.7,2.7c-0.1,0-0.1,0-0.2,0.1c-2.5,2.4-2,6.6-0.2,10.3c-0.9-0.2-1.5,0.3-1.5,1.5c0,0.2,0,0.5,0.1,0.8	c-1.9-0.7-3.1,1.2-1.5,4.5c1.5,2.2,3.1,2.7,4,2.1c0.1,0.1,0.2,0.2,0.3,0.3c0.3,0.9,0.6,1.7,0.9,2.6c-0.1,0.2-0.2,0.4-0.2,0.6	c-1.3-0.5-2.1,0.8-1,3.1c1.2,1.7,2.4,1.9,2.9,1.3c0.2,0.2,0.4,0.3,0.6,0.4c0.2,0.1,0.4,0.2,0.6,0.3c-0.3,0.8-0.2,2.1,0.6,3.7	c1.7,2.5,3.6,2.8,4.4,1.7c0.6,0.5,1.2,0.9,1.8,1.3c0.4,1,1.1,1.9,1.9,2.4c0.3,0.2,0.6,0.3,0.9,0.3c0.3,1.5,1.4,3,2.6,3.8	c1.4,0.8,2.5,0.3,2.7-1.1c0.2,0.3,0.5,0.5,0.7,0.6c0.9,0.5,1.6,0.1,1.6-0.9c0,0,0,0,0-0.1c0.4,0.3,0.8,0.5,1.2,0.3	c0.3-0.3,4.4-2.6,4.9-2.8c0.5-0.6,0.1-1.9-0.6-2.5c2.2,0,3.7-1.7,3.7-4.7c0-0.5,0-0.9-0.1-1.4C194.7,88.2,196,86.2,194.4,82.7z"/><path fill="#BCCD30" stroke="#545453" stroke-width="1.159" stroke-miterlimit="10" d="M189.6,85.4c-1-1.6-2-2.4-2.9-2.7	c-0.1-0.7-0.3-1.3-0.5-2c0.2-0.2,0.3-0.6,0.3-1.1c0-1.3-0.9-2.9-2.1-3.6c-0.1,0-0.1-0.1-0.2-0.1c-0.1-0.2-0.2-0.3-0.2-0.5	c1.1-0.1,1.6-1.5,0.5-3.7c-1.5-2.2-3.2-2.3-3.6-1.1c0-0.1-0.1-0.1-0.1-0.2c-0.2-3-2.3-6.4-4.8-7.8c-0.6-0.4-1.2-0.6-1.8-0.6	c-0.9-1.8-2.6-3.3-4.3-2.9c-0.5,0.5-0.7,1.1-0.7,1.8c0,0.4-0.4,0.5-0.7,0.3c-2-1.9-4.5-3-6.8-2.4c-0.1,0-0.1,0.1-0.2,0.1	c-2.5,2.4-2,6.6-0.2,10.2c-0.9-0.2-1.5,0.3-1.5,1.5c0,0.2,0,0.5,0.1,0.8c-1.9-0.7-3.1,1.2-1.5,4.5c1.5,2.2,3.1,2.7,4,2.1	c0.1,0.1,0.2,0.2,0.3,0.3c0.3,0.9,0.6,1.7,0.9,2.6c-0.1,0.2-0.2,0.4-0.2,0.6c-1.3-0.5-2.1,0.8-1,3.1c1.2,1.7,2.4,1.9,2.9,1.3	c0.2,0.2,0.4,0.3,0.6,0.4c0.2,0.1,0.4,0.2,0.6,0.3c-0.3,0.8-0.2,2.1,0.6,3.7c1.7,2.5,3.6,2.8,4.4,1.7c0.6,0.5,1.2,0.9,1.8,1.3	c0.4,1,1.1,1.9,1.9,2.4c0.3,0.2,0.6,0.3,0.9,0.3c0.3,1.5,1.4,3,2.6,3.8c1.4,0.8,2.5,0.3,2.7-1.1c0.2,0.3,0.5,0.5,0.7,0.6	c0.9,0.5,1.6,0.1,1.6-0.9c0,0,0,0,0-0.1c0.4,0.3,0.8,0.5,1.2,0.3c0.5-0.6,0.1-1.9-0.6-2.5c2.2,0,3.7-1.7,3.7-4.7	c0-0.5,0-0.9-0.1-1.4C189.9,90.9,191.2,88.9,189.6,85.4z"/><path fill="#F7923F" stroke="#545453" stroke-width="1.159" stroke-miterlimit="10" d="M187.8,154.2c-1-1.6-2-2.4-2.9-2.7	c-0.1-0.7-0.3-1.3-0.5-2c0.2-0.2,0.3-0.6,0.3-1.1c0-1.3-0.9-2.9-2.1-3.6c-0.1,0-0.1-0.1-0.2-0.1c-0.1-0.2-0.2-0.3-0.2-0.5	c1.1-0.1,1.6-1.5,0.5-3.7c-1.5-2.2-3.2-2.3-3.6-1.1c0-0.1-0.1-0.1-0.1-0.2c-0.2-3-2.3-6.4-4.8-7.8c-0.6-0.4-1.2-0.6-1.8-0.6	c-0.9-1.8-2.6-3.3-4.3-2.9c-0.4,0.4-0.7,0.9-0.7,1.5c-0.1,0.5-0.6,0.7-1,0.4c-2-1.8-4.3-2.8-6.6-2.1c-0.1,0-0.1,0-0.2,0.1	c-0.8,0.8-3.6,2.4-4.7,2.7c-0.1,0-0.1,0-0.2,0.1c-2.5,2.4-2,6.6-0.2,10.3c-0.9-0.2-1.5,0.3-1.5,1.5c0,0.2,0,0.5,0.1,0.8	c-1.9-0.7-3.1,1.2-1.5,4.5c1.5,2.2,3.1,2.7,4,2.1c0.1,0.1,0.2,0.2,0.3,0.3c0.3,0.9,0.6,1.7,0.9,2.6c-0.1,0.2-0.2,0.4-0.2,0.6	c-1.3-0.5-2.1,0.8-1,3.1c1.2,1.7,2.4,1.9,2.9,1.3c0.2,0.2,0.4,0.3,0.6,0.4c0.2,0.1,0.4,0.2,0.6,0.3c-0.3,0.8-0.2,2.1,0.6,3.7	c1.7,2.5,3.6,2.8,4.4,1.7c0.6,0.5,1.2,0.9,1.8,1.3c0.4,1,1.1,1.9,1.9,2.4c0.3,0.2,0.6,0.3,0.9,0.3c0.3,1.5,1.4,3,2.6,3.8	c1.4,0.8,2.5,0.3,2.7-1.1c0.2,0.3,0.5,0.5,0.7,0.6c0.9,0.5,1.6,0.1,1.6-0.9c0,0,0,0,0-0.1c0.4,0.3,0.8,0.5,1.2,0.3	c0.3-0.3,4.4-2.6,4.9-2.8c0.5-0.6,0.1-1.9-0.6-2.5c2.2,0,3.7-1.7,3.7-4.7c0-0.5,0-0.9-0.1-1.4C188.1,159.7,189.4,157.7,187.8,154.2z"/><g stroke="#545453" stroke-miterlimit="10"><path fill="none" stroke-width="1.999" stroke-linecap="round" d="M169.1 159.8L169.1 194.9"/><path fill="#BCCD30" stroke-width="1.159" d="M183,156.9c-1-1.6-2-2.4-2.9-2.7 c-0.1-0.7-0.3-1.3-0.5-2c0.2-0.2,0.3-0.6,0.3-1.1c0-1.3-0.9-2.9-2.1-3.6c-0.1,0-0.1-0.1-0.2-0.1c-0.1-0.2-0.2-0.3-0.2-0.5 c1.1-0.1,1.6-1.5,0.5-3.7c-1.5-2.2-3.2-2.3-3.6-1.1c0-0.1-0.1-0.1-0.1-0.2c-0.2-3-2.3-6.4-4.8-7.8c-0.6-0.4-1.2-0.6-1.8-0.6 c-0.9-1.8-2.6-3.3-4.3-2.9c-0.5,0.5-0.7,1.1-0.7,1.8c0,0.4-0.4,0.5-0.7,0.3c-2-1.9-4.5-3-6.8-2.4c-0.1,0-0.1,0.1-0.2,0.1 c-2.5,2.4-2,6.6-0.2,10.2c-0.9-0.2-1.5,0.3-1.5,1.5c0,0.2,0,0.5,0.1,0.8c-1.9-0.7-3.1,1.2-1.5,4.5c1.5,2.2,3.1,2.7,4,2.1 c0.1,0.1,0.2,0.2,0.3,0.3c0.3,0.9,0.6,1.7,0.9,2.6c-0.1,0.2-0.2,0.4-0.2,0.6c-1.3-0.5-2.1,0.8-1,3.1c1.2,1.7,2.4,1.9,2.9,1.3 c0.2,0.2,0.4,0.3,0.6,0.4c0.2,0.1,0.4,0.2,0.6,0.3c-0.3,0.8-0.2,2.1,0.6,3.7c1.7,2.5,3.6,2.8,4.4,1.7c0.6,0.5,1.2,0.9,1.8,1.3 c0.4,1,1.1,1.9,1.9,2.4c0.3,0.2,0.6,0.3,0.9,0.3c0.3,1.5,1.4,3,2.6,3.8c1.4,0.8,2.5,0.3,2.7-1.1c0.2,0.3,0.5,0.5,0.7,0.6 c0.9,0.5,1.6,0.1,1.6-0.9c0,0,0,0,0-0.1c0.4,0.3,0.8,0.5,1.2,0.3c0.5-0.6,0.1-1.9-0.6-2.5c2.2,0,3.7-1.7,3.7-4.7 c0-0.5,0-0.9-0.1-1.4C183.3,162.4,184.6,160.4,183,156.9z"/></g><path fill="none" stroke="#545453" stroke-width="1.999" stroke-linecap="round" stroke-miterlimit="10" d="M83.4 130.6L83.4 165.7"/><path fill="#FDBD56" stroke="#545453" stroke-width="1.159" stroke-miterlimit="10" d="M102,125c-1-1.6-2-2.4-2.9-2.7	c-0.1-0.7-0.3-1.3-0.5-2c0.2-0.2,0.3-0.6,0.3-1.1c0-1.3-0.9-2.9-2.1-3.6c-0.1,0-0.1-0.1-0.2-0.1c-0.1-0.2-0.2-0.3-0.2-0.5	c1.1-0.1,1.6-1.5,0.5-3.7c-1.5-2.2-3.2-2.3-3.6-1.1c0-0.1-0.1-0.1-0.1-0.2c-0.2-3-2.3-6.4-4.8-7.8c-0.6-0.4-1.2-0.6-1.8-0.6	c-0.9-1.8-2.6-3.3-4.3-2.9c-0.4,0.4-0.7,0.9-0.7,1.5c-0.1,0.5-0.6,0.7-1,0.4c-2-1.8-4.3-2.8-6.6-2.1c-0.1,0-0.1,0-0.2,0.1	c-0.8,0.8-3.6,2.4-4.7,2.7c-0.1,0-0.1,0-0.2,0.1c-2.5,2.4-2,6.6-0.2,10.3c-0.9-0.2-1.5,0.3-1.5,1.5c0,0.2,0,0.5,0.1,0.8	c-1.9-0.7-3.1,1.2-1.5,4.5c1.5,2.2,3.1,2.7,4,2.1c0.1,0.1,0.2,0.2,0.3,0.3c0.3,0.9,0.6,1.7,0.9,2.6c-0.1,0.2-0.2,0.4-0.2,0.6	c-1.3-0.5-2.1,0.8-1,3.1c1.2,1.7,2.4,1.9,2.9,1.3c0.2,0.2,0.4,0.3,0.6,0.4c0.2,0.1,0.4,0.2,0.6,0.3c-0.3,0.8-0.2,2.1,0.6,3.7	c1.7,2.5,3.6,2.8,4.4,1.7c0.6,0.5,1.2,0.9,1.8,1.3c0.4,1,1.1,1.9,1.9,2.4c0.3,0.2,0.6,0.3,0.9,0.3c0.3,1.5,1.4,3,2.6,3.8	c1.4,0.8,2.5,0.3,2.7-1.1c0.2,0.3,0.5,0.5,0.7,0.6c0.9,0.5,1.6,0.1,1.6-0.9c0,0,0,0,0-0.1c0.4,0.3,0.8,0.5,1.2,0.3	c0.3-0.3,4.4-2.6,4.9-2.8c0.5-0.6,0.1-1.9-0.6-2.5c2.2,0,3.7-1.7,3.7-4.7c0-0.5,0-0.9-0.1-1.4C102.3,130.6,103.7,128.6,102,125z"/><path fill="#BCCD30" stroke="#545453" stroke-width="1.159" stroke-miterlimit="10" d="M97.2,127.7c-1-1.6-2-2.4-2.9-2.7	c-0.1-0.7-0.3-1.3-0.5-2c0.2-0.2,0.3-0.6,0.3-1.1c0-1.3-0.9-2.9-2.1-3.6c-0.1,0-0.1-0.1-0.2-0.1c-0.1-0.2-0.2-0.3-0.2-0.5	c1.1-0.1,1.6-1.5,0.5-3.7c-1.5-2.2-3.2-2.3-3.6-1.1c0-0.1-0.1-0.1-0.1-0.2c-0.2-3-2.3-6.4-4.8-7.8c-0.6-0.4-1.2-0.6-1.8-0.6	c-0.9-1.8-2.6-3.3-4.3-2.9c-0.5,0.5-0.7,1.1-0.7,1.8c0,0.4-0.4,0.5-0.7,0.3c-2-1.9-4.5-3-6.8-2.4c-0.1,0-0.1,0.1-0.2,0.1	c-2.5,2.4-2,6.6-0.2,10.2c-0.9-0.2-1.5,0.3-1.5,1.5c0,0.2,0,0.5,0.1,0.8c-1.9-0.7-3.1,1.2-1.5,4.5c1.5,2.2,3.1,2.7,4,2.1	c0.1,0.1,0.2,0.2,0.3,0.3c0.3,0.9,0.6,1.7,0.9,2.6c-0.1,0.2-0.2,0.4-0.2,0.6c-1.3-0.5-2.1,0.8-1,3.1c1.2,1.7,2.4,1.9,2.9,1.3	c0.2,0.2,0.4,0.3,0.6,0.4c0.2,0.1,0.4,0.2,0.6,0.3c-0.3,0.8-0.2,2.1,0.6,3.7c1.7,2.5,3.6,2.8,4.4,1.7c0.6,0.5,1.2,0.9,1.8,1.3	c0.4,1,1.1,1.9,1.9,2.4c0.3,0.2,0.6,0.3,0.9,0.3c0.3,1.5,1.4,3,2.6,3.8c1.4,0.8,2.5,0.3,2.7-1.1c0.2,0.3,0.5,0.5,0.7,0.6	c0.9,0.5,1.6,0.1,1.6-0.9c0,0,0,0,0-0.1c0.4,0.3,0.8,0.5,1.2,0.3c0.5-0.6,0.1-1.9-0.6-2.5c2.2,0,3.7-1.7,3.7-4.7	c0-0.5,0-0.9-0.1-1.4C97.5,133.3,98.9,131.3,97.2,127.7z"/><path fill="none" stroke="#545453" stroke-width="1.999" stroke-linecap="round" stroke-miterlimit="10" d="M48.2 138.3L48.2 173.4"/><path fill="#659357" stroke="#545453" stroke-width="1.159" stroke-miterlimit="10" d="M66.9,132.7c-1-1.6-2-2.4-2.9-2.7	c-0.1-0.7-0.3-1.3-0.5-2c0.2-0.2,0.3-0.6,0.3-1.1c0-1.3-0.9-2.9-2.1-3.6c-0.1,0-0.1-0.1-0.2-0.1c-0.1-0.2-0.2-0.3-0.2-0.5	c1.1-0.1,1.6-1.5,0.5-3.7c-1.5-2.2-3.2-2.3-3.6-1.1c0-0.1-0.1-0.1-0.1-0.2c-0.2-3-2.3-6.4-4.8-7.8c-0.6-0.4-1.2-0.6-1.8-0.6	c-0.9-1.8-2.6-3.3-4.3-2.9c-0.4,0.4-0.7,0.9-0.7,1.5c-0.1,0.5-0.6,0.7-1,0.4c-2-1.8-4.3-2.8-6.6-2.1c-0.1,0-0.1,0-0.2,0.1	c-0.8,0.8-3.6,2.4-4.7,2.7c-0.1,0-0.1,0-0.2,0.1c-2.5,2.4-2,6.6-0.2,10.3c-0.9-0.2-1.5,0.3-1.5,1.5c0,0.2,0,0.5,0.1,0.8	c-1.9-0.7-3.1,1.2-1.5,4.5c1.5,2.2,3.1,2.7,4,2.1c0.1,0.1,0.2,0.2,0.3,0.3c0.3,0.9,0.6,1.7,0.9,2.6c-0.1,0.2-0.2,0.4-0.2,0.6	c-1.3-0.5-2.1,0.8-1,3.1c1.2,1.7,2.4,1.9,2.9,1.3c0.2,0.2,0.4,0.3,0.6,0.4c0.2,0.1,0.4,0.2,0.6,0.3c-0.3,0.8-0.2,2.1,0.6,3.7	c1.7,2.5,3.6,2.8,4.4,1.7c0.6,0.5,1.2,0.9,1.8,1.3c0.4,1,1.1,1.9,1.9,2.4c0.3,0.2,0.6,0.3,0.9,0.3c0.3,1.5,1.4,3,2.6,3.8	c1.4,0.8,2.5,0.3,2.7-1.1c0.2,0.3,0.5,0.5,0.7,0.6c0.9,0.5,1.6,0.1,1.6-0.9c0,0,0,0,0-0.1c0.4,0.3,0.8,0.5,1.2,0.3	c0.3-0.3,4.4-2.6,4.9-2.8c0.5-0.6,0.1-1.9-0.6-2.5c2.2,0,3.7-1.7,3.7-4.7c0-0.5,0-0.9-0.1-1.4C67.1,138.2,68.5,136.2,66.9,132.7z"/><path fill="#BCCD30" stroke="#545453" stroke-width="1.159" stroke-miterlimit="10" d="M62.1,136.5c-1-1.6-2-2.4-2.9-2.7	c-0.1-0.7-0.3-1.3-0.5-2c0.2-0.2,0.3-0.6,0.3-1.1c0-1.3-0.9-2.9-2.1-3.6c-0.1,0-0.1-0.1-0.2-0.1c-0.1-0.2-0.2-0.3-0.2-0.5	c1.1-0.1,1.6-1.5,0.5-3.7c-1.5-2.2-3.2-2.3-3.6-1.1c0-0.1-0.1-0.1-0.1-0.2c-0.2-3-2.3-6.4-4.8-7.8c-0.6-0.4-1.2-0.6-1.8-0.6	c-0.9-1.8-2.6-3.3-4.3-2.9c-0.5,0.5-0.7,1.1-0.7,1.8c0,0.4-0.4,0.5-0.7,0.3c-2-1.9-4.5-3-6.8-2.4c-0.1,0-0.1,0.1-0.2,0.1	c-2.5,2.4-2,6.6-0.2,10.2c-0.9-0.2-1.5,0.3-1.5,1.5c0,0.2,0,0.5,0.1,0.8c-1.9-0.7-3.1,1.2-1.5,4.5c1.5,2.2,3.1,2.7,4,2.1	c0.1,0.1,0.2,0.2,0.3,0.3c0.3,0.9,0.6,1.7,0.9,2.6c-0.1,0.2-0.2,0.4-0.2,0.6c-1.3-0.5-2.1,0.8-1,3.1c1.2,1.7,2.4,1.9,2.9,1.3	c0.2,0.2,0.4,0.3,0.6,0.4c0.2,0.1,0.4,0.2,0.6,0.3c-0.3,0.8-0.2,2.1,0.6,3.7c1.7,2.5,3.6,2.8,4.4,1.7c0.6,0.5,1.2,0.9,1.8,1.3	c0.4,1,1.1,1.9,1.9,2.4c0.3,0.2,0.6,0.3,0.9,0.3c0.3,1.5,1.4,3,2.6,3.8c1.4,0.8,2.5,0.3,2.7-1.1c0.2,0.3,0.5,0.5,0.7,0.6	c0.9,0.5,1.6,0.1,1.6-0.9c0,0,0,0,0-0.1c0.4,0.3,0.8,0.5,1.2,0.3c0.5-0.6,0.1-1.9-0.6-2.5c2.2,0,3.7-1.7,3.7-4.7	c0-0.5,0-0.9-0.1-1.4C62.4,142,63.7,140,62.1,136.5z"/><g stroke="#545453" stroke-miterlimit="10"><path fill="none" stroke-width="2.285" stroke-linecap="round" d="M120.6 222L120.6 231.9M107.3 213.3L107.3 223.6M159.3 198.1L159.4 209.3"/><path fill="#FDBD56" stroke-width="1.159" d="M108.6,210.4l35.4-21c0.9-0.5,2-0.5,2.9,0 l11.2,7.1c1.8,1.1,1.7,3.8-0.1,4.8l-35.9,20.3c-0.9,0.5-2,0.5-2.8,0l-10.6-6.4C106.8,214.1,106.8,211.4,108.6,210.4z"/><path fill="#F7923F" stroke-width="1.159" d="M124.8,220.1l35.8-20.3 c0.9-0.5,1.4-1.4,1.4-2.4v-4.1c0-2.2-2.3-3.5-4.2-2.4L122,211.7c-0.9,0.5-1.4,1.4-1.4,2.4v3.6C120.6,219.8,122.9,221.2,124.8,220.1 z"/></g><path fill="#F7923F" stroke="#545453" stroke-width=".674" stroke-miterlimit="10" d="M129.7,88.6V138l13.3,8.3 c0.3,0.2,0.8,0,0.8-0.4v-32.7c0-10-5.3-19.3-14-24.4L129.7,88.6z"/><path fill="#FFDA99" stroke="#545453" stroke-width=".674" stroke-miterlimit="10" d="M121.5,154.4l7.9-4.5c0.2-0.1,0.5-0.1,0.7,0 l7.8,4.6c0.4,0.3,0.4,0.9,0,1.1l-7.7,4.6c-0.2,0.1-0.5,0.1-0.7,0l-7.9-4.6C121.1,155.2,121.1,154.6,121.5,154.4z"/><path fill="none" stroke="#545453" stroke-width=".664" stroke-linecap="round" stroke-miterlimit="10" d="M129.7 132.7L129.7 155.6"/><path d="M130.9 137v-1.3c0-.3 0-.6.1-.7 0-.2.1-.3.2-.3.1 0 .2 0 .3 0 .1 0 .3.1.6.3l.4.2c.3.2.5.3.6.4.1.1.2.3.3.5.1.2.1.4.1.7v.3l1.7 1v1.3L130.9 137zM131.6 136.1l1.1.6c0 0 0-.1 0-.1 0-.1 0-.2-.1-.3 0-.1-.2-.2-.3-.2l-.3-.2c-.1-.1-.2-.1-.3-.1C131.7 135.9 131.6 135.9 131.6 136.1zM130.9 133.9V133c0-.6 0-1 .1-1.2 0-.2.1-.3.3-.3.2 0 .4 0 .8.3.3.2.5.4.7.5.1.2.2.4.2.7.1-.2.1-.3.2-.4.1 0 .2 0 .2 0 .1 0 .3.1.6.3l1.1.6v1.2l-1.4-.8c-.2-.1-.4-.2-.4-.2-.1 0-.1.1-.1.3l1.9 1.1v1.3L130.9 133.9zM131.6 133l.9.5c0-.1 0-.2-.1-.3 0-.1-.1-.2-.3-.3l-.2-.1c-.1-.1-.2-.1-.3-.1C131.7 132.8 131.6 132.9 131.6 133zM133.4 129.1c.4.2.7.4.9.6.2.1.3.3.5.5.1.2.3.4.3.7.1.2.1.5.1.8 0 .3 0 .5-.1.6-.1.2-.2.3-.3.3-.1 0-.3 0-.5-.1-.2-.1-.5-.2-.9-.5l-.7-.4c-.4-.2-.7-.4-.9-.6-.2-.1-.3-.3-.5-.5-.1-.2-.3-.4-.3-.7-.1-.2-.1-.5-.1-.8 0-.3 0-.5.1-.6.1-.2.2-.3.3-.3.1 0 .3 0 .5.1.2.1.5.2.9.5L133.4 129.1zM132 129.6c-.2-.1-.3-.2-.4-.2-.1 0-.1 0-.1.1 0 .1 0 .1.1.2 0 .1.2.2.4.3l2 1.1c.2.1.4.2.5.2.1 0 .1 0 .1-.1 0-.1 0-.2-.1-.2-.1-.1-.2-.2-.5-.3L132 129.6zM130.9 127.3v-2.1l.8.5v.9l.8.5v-.8l.8.5v.8l1.8 1v1.3L130.9 127.3zM130.9 122.3l.8.5v.7l3.3 1.9v1.3l-3.3-1.9v.7l-.8-.5V122.3zM130.9 122v-2.1l.8.5v.8l.8.5v-.8l.8.5v.8l.9.5v-.9l.8.5v2.2L130.9 122zM132.8 117.6v1.3l-.7-.4c-.2-.1-.3-.2-.4-.2-.1 0-.1 0-.1.1 0 .1 0 .2.1.3.1.1.2.2.4.3l1.9 1.1c.2.1.3.2.4.2.1 0 .1 0 .1-.1 0-.1 0-.2-.1-.2-.1-.1-.2-.2-.4-.3l-.5-.3V118l.2.1c.4.3.7.5.9.6.2.2.3.4.5.7.1.3.2.7.2 1 0 .4-.1.6-.2.8-.1.2-.3.2-.5.2-.2 0-.5-.2-.9-.4l-1.2-.7c-.3-.2-.5-.3-.7-.4-.2-.1-.3-.3-.4-.5-.1-.2-.2-.4-.3-.7-.1-.3-.1-.5-.1-.8 0-.4.1-.6.2-.8.1-.2.3-.2.5-.2s.5.2.9.4L132.8 117.6zM130.9 113.2l4.2 2.4v1.3l-1.8-1v.4l1.8 1v1.3l-4.2-2.4v-1.3l1.5.9v-.4l-1.5-.9V113.2z"/><g><path fill="#FFF" stroke="#000" stroke-width=".366" stroke-miterlimit="10" d="M142.2,113.9V143c0,0.4-0.3,0.5-0.7,0.3 l-4.1-2.4c-0.4-0.2-0.7-0.7-0.6-1c0-0.1,0-0.1,0-0.2V111c0-0.1,0-0.2,0-0.2c-0.1-0.4,0.2-0.5,0.6-0.3l4.1,2.4 C141.9,113.1,142.2,113.5,142.2,113.9z"/><g fill="#F5A722"><path d="M137.6 139.9V138l.8.4v.8l.7.4v-.7l.7.4v.7l.8.5v-.8l.8.4v2L137.6 139.9zM137.6 135.1l3.8 2.2v1l-1.7-.4 1.7 1v.9l-3.8-2.2v-.9l1.7.3-1.7-1V135.1zM139 132.8v1.1l-.3-.2c-.2-.1-.4-.2-.4-.2-.1 0-.1 0-.1.1 0 .1 0 .1.1.2 0 .1.2.1.4.2l1.8 1c.2.1.3.1.3.2.1 0 .1 0 .1-.1 0-.1 0-.2-.1-.2-.1-.1-.2-.1-.4-.2l-.4-.3v.2l-.6-.3V133l2 1.2v.7l-.3-.1c.1.1.2.3.3.4.1.2.1.3.1.5 0 .2 0 .3-.1.5-.1.1-.2.2-.3.2-.1 0-.2 0-.4-.1-.1-.1-.3-.2-.6-.3l-1.1-.6c-.4-.2-.6-.4-.8-.5-.2-.1-.3-.4-.4-.6-.1-.3-.2-.6-.2-.9 0-.3.1-.6.2-.7.1-.1.3-.2.4-.2.2 0 .4.1.7.3L139 132.8zM137.6 130.4l3.8 2.2v1.1l-3.8-2.2V130.4zM137.6 127.5l3.8 2.2v1l-1.7-.4 1.7 1v.9l-3.8-2.2V129l1.7.3-1.7-1V127.5zM137.6 127v-1.9l.8.4v.8l.7.4V126l.7.4v.7l.8.5v-.8l.8.4v2L137.6 127zM137.6 124.7v-1.9l.8.4v.8l.7.4v-.7l.7.4v.7l.8.5v-.8l.8.4v2L137.6 124.7zM137.6 122.4v-.8c0-.5 0-.9.1-1.1 0-.2.1-.3.3-.3.1 0 .4 0 .7.2.3.2.5.3.6.5.1.1.2.3.2.6 0-.2.1-.3.2-.3s.2 0 .2 0c.1 0 .3.1.6.3l1 .6v1l-1.3-.7c-.2-.1-.3-.2-.4-.2 0 0-.1.1-.1.2l1.7 1v1.1L137.6 122.4zM138.3 121.7l.8.5c0-.1 0-.2 0-.3s-.1-.2-.3-.2l-.2-.1c-.1-.1-.2-.1-.2-.1C138.3 121.5 138.3 121.6 138.3 121.7zM137.6 118.4l3.8 2.2v1.1l-3.8-2.2V118.4zM137.6 115.4l3.8 2.2v1l-1.7-.4 1.7 1v.9l-3.8-2.2V117l1.7.3-1.7-1V115.4zM139 113.1v1.1l-.3-.2c-.2-.1-.4-.2-.4-.2-.1 0-.1 0-.1.1 0 .1 0 .1.1.2 0 .1.2.1.4.2l1.8 1c.2.1.3.1.3.2.1 0 .1 0 .1-.1 0-.1 0-.2-.1-.2-.1-.1-.2-.1-.4-.2l-.4-.3v.2l-.6-.3v-1.3l2 1.2v.7l-.3-.1c.1.1.2.3.3.4.1.2.1.3.1.5 0 .2 0 .3-.1.5-.1.1-.2.2-.3.2-.1 0-.2 0-.4-.1-.1-.1-.3-.2-.6-.3l-1.1-.6c-.4-.2-.6-.4-.8-.5-.2-.1-.3-.4-.4-.6-.1-.3-.2-.6-.2-.9 0-.3.1-.6.2-.7.1-.2.3-.2.4-.2.2 0 .4.1.7.3L139 113.1z"/></g></g><g stroke="#000" stroke-miterlimit="10"><path stroke-width=".206" d="M139.6,104.9l-0.8-0.5c0-0.2-0.1-0.5-0.2-0.7 c-0.1-0.3-0.2-0.6-0.3-0.9l0.5-0.3c0,0,0,0,0-0.1l-1-1.8c0,0,0,0-0.1,0l-0.5,0.3c-0.2-0.3-0.4-0.5-0.6-0.7 c-0.2-0.2-0.4-0.3-0.5-0.5v-0.9c0,0,0-0.1,0-0.1l-1.5-0.8c0,0,0,0,0,0v0.9c-0.4-0.1-0.8-0.2-1.2-0.1l-0.6-1c0,0,0,0-0.1,0l-1,0.6 c0,0,0,0,0,0.1l0.6,1c-0.2,0.3-0.4,0.6-0.5,1.1l-0.9-0.5c0,0,0,0,0,0v1.7c0,0,0,0.1,0,0.1l0.9,0.5c0,0.2,0.1,0.4,0.1,0.7 c0.1,0.3,0.2,0.7,0.3,1l-0.6,0.3c0,0,0,0,0,0.1l1,1.8c0,0,0,0,0.1,0l0.6-0.3c0.2,0.2,0.4,0.5,0.6,0.7c0.2,0.2,0.4,0.3,0.5,0.5v1 c0,0,0,0.1,0,0.1l1.5,0.8c0,0,0,0,0,0v-1c0.4,0.1,0.8,0.2,1.1,0.1l0.6,1c0,0,0,0,0.1,0l1-0.6c0,0,0,0,0-0.1l-0.6-1 c0.2-0.3,0.4-0.6,0.5-1l0.8,0.5c0,0,0,0,0,0L139.6,104.9C139.7,104.9,139.6,104.9,139.6,104.9z"/><path fill="#E6E7E8" stroke-width=".143" d="M137.5,104.5c0,1.4-1,2-2.2,1.3 s-2.2-2.4-2.2-3.8s1-2,2.2-1.3S137.5,103.1,137.5,104.5z"/><path stroke-width=".206" d="M136.4,103.9c0,0.7-0.5,1-1.1,0.6 c-0.6-0.3-1.1-1.2-1.1-1.9s0.5-1,1.1-0.6C135.9,102.4,136.4,103.2,136.4,103.9z"/></g></svg>