<svg xmlns="http://www.w3.org/2000/svg" viewBox="0 0 3401.6 985.5"><linearGradient id="a" gradientUnits="userSpaceOnUse" x1="2.9" y1="571.6" x2="1204.27" y2="571.6"><stop offset="0" stop-color="#1c1c1c"/><stop offset=".58" stop-color="#9a9c9e"/><stop offset=".97" stop-color="#ccc"/><stop offset="1" stop-color="#383838"/></linearGradient><polygon fill="url(#a)" stroke="#010101" stroke-width="4.07" stroke-miterlimit="10" points="1204.3,693.8 2.9,995.2 2.9,148 1204.3,378.3"/><polygon fill="#58595B" stroke="#010101" stroke-width="4.92" stroke-miterlimit="10" points="1982.6,694.8 1197.8,694.8 1197.8,380.3 1590.2,258.6 1982.6,380.3"/><linearGradient id="b" gradientUnits="userSpaceOnUse" x1="1691.14" y1="1069.04" x2="1691.66" y2="725.18"><stop offset="0" stop-color="#565759"/><stop offset=".7" stop-color="#9a9c9e"/><stop offset="1" stop-color="#ccc"/></linearGradient><polygon fill="url(#b)" stroke="#010101" stroke-width="2.46" stroke-miterlimit="10" points="1983.8,693.8 1196.1,693.8 -1.6,989.3 3384.1,989.3"/><rect x="1318.7" y="553.8" fill="#FFEBCC" stroke="#000" stroke-width="6.01" stroke-miterlimit="10" width="113.5" height="137"/><rect x="1741.2" y="553.8" fill="#FFEBCC" stroke="#000" stroke-width="6.01" stroke-miterlimit="10" width="113.5" height="137"/><rect x="1534.3" y="554" fill="#FFEBCC" stroke="#000" stroke-width="6.01" stroke-miterlimit="10" width="113.5" height="137"/><rect x="1318.7" y="471.1" fill="#FFEBCC" stroke="#000" stroke-width="6.01" stroke-miterlimit="10" width="536" height="66.1"/><rect x="481.3" y="134.3" fill="#F7923F" stroke="#545453" stroke-width="6.01" stroke-miterlimit="10" width="82.3" height="847.6"/><polygon fill="#FFDA99" stroke="#545453" stroke-width="6.01" stroke-miterlimit="10" points="630.6,954.2 563.6,979.7 563.6,134 630.6,153.6"/><polygon fill="#FFDA99" stroke="#545453" stroke-width="6.01" stroke-miterlimit="10" points="1003.7,817.5 980.4,826.5 980.4,261.1 1003.7,267.6"/><polygon fill="#FFDA99" stroke="#545453" stroke-width="6.01" stroke-miterlimit="10" points="1165.1,755.3 1153.5,759.7 1153.5,307.6 1165.1,311.8"/><rect x="952.6" y="261.1" fill="#F7923F" stroke="#545453" stroke-width="6.01" stroke-miterlimit="10" width="27.9" height="565.3"/><rect x="1137.6" y="307.6" fill="#F7923F" stroke="#545453" stroke-width="6.01" stroke-miterlimit="10" width="15.9" height="450.1"/><polygon fill="#FDBD56" stroke="#545453" stroke-width="6.01" stroke-miterlimit="10" points="1347.8,193.5 1060.8,193.5 1015.7,160.1 1324.2,160.1"/><polygon fill="#FDBD56" stroke="#545453" stroke-width="6.01" stroke-miterlimit="10" points="1410.4,290 1195.9,290 1171.2,271.7 1397.5,271.7"/><polygon fill="#FDBD56" points="1471.7,378.2 1326.5,378.2 1315.1,370 1465.6,370"/><polygon fill="#FDBD56" stroke="#545453" stroke-width="6.01" stroke-miterlimit="10" points="2133.4,193.2 1848.2,193.2 1873.5,160.3 2179.8,160.3"/><polygon fill="#FDBD56" stroke="#545453" stroke-width="6.01" stroke-miterlimit="10" points="1979.8,289.9 1766.3,289.9 1780.2,271.8 2005.3,271.8"/><polygon fill="#FDBD56" points="1849,379 1704.3,379 1710.3,370.8 1860.3,370.8"/><linearGradient id="c" gradientUnits="userSpaceOnUse" x1="9.93" y1="567.6" x2="1431.77" y2="567.6" gradientTransform="matrix(-1 0 0 1 3414.39 0)"><stop offset="0" stop-color="#4a4a4c"/><stop offset=".58" stop-color="#9a9c9e"/><stop offset=".97" stop-color="#ccc"/><stop offset="1" stop-color="#383838"/></linearGradient><polygon fill="url(#c)" stroke="#010101" stroke-width="4.1" stroke-miterlimit="10" points="1982.6,693 3404.5,994.1 3404.5,141.1 1982.6,377.5"/><line fill="none" stroke="#545453" stroke-width="6.01" stroke-miterlimit="10" x1="1590.2" y1="258.6" x2="1590.2" y2="138.5"/><path fill="#F7923F" d="M490.4 676.8c-3.2 0-3.2 5 0 5 3.3 0 3.3-5 0-5z"/><path fill="#FDBD56" d="M2436.4 193.6c-2.4-8.7-4.1-17.4-4.8-26.4-.6-7.2-.3-14.5.3-21.8.6-6.4 3.9-14.2 2.9-20.6-2.1-13.3-22.8-7.4-31.6-6.8-3.5.2-5.8 4.6-3 7.3 11.8 11.4 11.9 28.3 4.2 42-1.8 3.2-4.1 6.1-6.6 8.7-2.1.8-4.2 2.1-6.3 3.9-1.8 1.5-3.4 3.2-5 4.8-8.1 4.6-17.5 7.3-26.4 8-5.4.4-5.4 8.9-.1 8.5-4.1 4.7-6.3 11.4-3.5 17.2 4.2 9 17 9.7 25.7 9.9 4.1.1 8.1-.9 11.6-2.7 1.1.4 2.3.4 3.3 0 .4 2.3 2.7 4.1 5.2 3.4 10.8-3 20.4-8.5 28.3-16.3 2.2-1.1 4-2.7 5.3-5.4 2.4-4.6 2-8.6.5-13.7zm-27.5 3.7c0 1.5-.2 3.2-.4 4.8-.1-1.5 0-2.9.1-4.4.2-.1.2-.3.3-.4z"/><g fill="#FFEBCC"><path d="M1969.1 815.7h2.1c-.9-.2-2.1 0-2.1 0z"/><path d="M3127.7 944.1c-8.8-20.5-39.4-45.1-89-63.5-40.5-15.4-104-31.4-128.4-48l-1.2-10.7c-61.1-18.4-48.2 10.7-51.7-39.1-.9-12.5.6-38 .6-68.8 0-28.5 7.1-32.9-45.2-32.9-7.6 0-48.2 5.3-53.5-7.4-8.2-20.2-6.8-56.4-3.2-69.4 2.6-10.4 10 1.8 12.6-8.6 3.2-13 2.4-34.7 2.4-47.8 0-8-28.8-5.3-49.1-4.4-5.3 0-9.7 4.4-10 10.1-.6 17.2.3 49.8-6.2 42.1-41.1-49.8-58.8-81-80.2-84.2l-.9-49.2s-28.2-63.2-60.8-83c-1-.6-1.8-1.1-2.6-1.5 3.7-.5 6.5-5.3.8-22.5-14.1-43-9.4-11.9-9.4-36.5 0-16.6 25.8-111.8-4.7-148.9-18.5-22.5-57.6-55.2-57.6-55.2s-114.6 10.1-118.1-.6c-26.1-81.9-91.9-62.9-91.9-62.9s-4.4 4.7-18.5 15.1c-15 11.3-16.7 48.3-16.7 48.3l10.9 5.9 3.8 20.8 25 20.2 7.9 12.8 5.3 4.4-14.7 34.1-1.8 18.1 7.9 24.3 10.9 34.1 6.8 20.2 12.6 10.4 9.4.9-7 21.4-5.6 35-24.1 10.4-26.1 10.7-7.6 24.6 1.5 26.1-6.2 54.3-19.1 12.2-51.4 65.5-11.8-.9-3.2-38.6-54.9-4.4-.9 53.1 17.6 1.8 3.5 55.5-17 22.8-89 2.4v144.4l-55.5-1.1c1.6.4 2.5 1.8-4.2 6.8-14.1 13-147.5 49.2-198.9 73.9-42.3 20.2-14.1 51.3-14.1 51.3l23.8 8.9s54.1 6.2 60.2 6.2c6.2 0 399.5 5.3 406.8 5.3 7.3 0 410.4 6.5 440 5.9 34.4-.6 121.3 0 129.8 0h233.8s50.5-5 57.3-5c7.3-.3 29.7-4.7 20.8-25.2z"/></g><path fill="#FDBD56" d="M2439.3 205.9c.2-.7.3-1.5.2-2.4-1.5-9.7-2.9-19.3-4.4-29-.6-4.1-.9-8.1-2.8-11 .6-11.6 1.9-23.3.1-34.3-.1-.6-.3-1.1-.6-1.5.9-2.7 1.9-5.4 2.9-8.1 1.2-3-2.3-6.3-5.2-5.2-8.2 2.9-16.2 3.8-24.8 2.3-3.8-.7-7.5 4-4.1 7.1 9.2 8.3 12.5 19.8 11.5 31.4-2.7 1.8-3.5 6.2-4 9.1-.4 2.4-.7 4.8-.9 7.2-6.4 4.2-12.4 8.7-16.6 14.7-2.2.9-4.5 1.8-6.6 3.3-.6.4-1.2 1-1.8 1.6-8.6-1.2-17.5-2.3-25.9-1.5-4.3.4-5.6 5.4-2.1 7.9.7.5 1.5 1.1 2.2 1.5 0 .2-.1.5-.1.8 0 2-.1 4.4-.3 6.9-.9 3.2-2.3 6.3-.7 9.7.2.5.5.9.8 1.3.6 4 2 7.6 5.3 9.7 4.1 2.6 12.1 1 16.5.6 6.4-.7 12.6-2.5 18.6-4.9.2-.1.3-.1.5-.2.8.7 1.6 1.5 2.3 2.2 1.8 1.7 4 1.5 5.5.2 1 .6 2.3.7 3.4.4.8 1.2 1.8 2.1 3.2 2.6.2.3.4.7.6 1 1.5 2.7 5.8 2.9 7.3 0 1.9-3.7 3.6-7.5 5-11.3l13.5-6.5c2.4-1.1 2.6-3.7 1.5-5.6zM2336.5 211.8c0-.6-.1-1.3-.4-1.9-2.2-5.1-3.7-10.4-4.8-15.8-.3-1.7-2.3-3.3-4.1-3.1-.5 0-1 .1-1.4.2-.8-.7-1.8-1.1-2.8-1-10.2.8-17-8.8-27.7-5.4-1.9.6-3 2.1-3.1 4.1-.1 1.1-.1 2.2-.2 3.3-1.7 1-2.7 3-2 4.9-.2.1-.5.3-.8.6-2 1-2.7 3.9-1.5 5.8-1.8 3.4-3.5 6.7-5.3 10.1-1.9 3.6 2.1 8.3 5.8 5.8 12-8 25.6-4.5 38.1.2v.8c-.1 3.3 3.7 5.2 6.3 3.7 4.7-2.9 5.2-7.4 3.9-12.3zM2557.7 189.6a237 237 0 0 0-34.7-46.1c.6-1.3.5-3-.9-4.4a75.45 75.45 0 0 0-40.4-22c-10.7-2.1-28.3-4.3-32.1 9.1-1.7 6.3.4 14.1 1.3 20.4 1.4 9.7 3.7 19.3 6.4 28.7 2 6.8 4.4 13.5 7.1 20.1.6 3.9 1.8 7.6 3.4 11.1-1.8 1.1-2.2 3.9-1.2 5.6 11.1 17.6 22.2 35.2 33.4 52.8 1.4 2.2 4.4 2.3 6.3 1.2a69.76 69.76 0 0 0 23.3 30.5c3 2.3 7.3-1.5 6.2-4.8-5.2-15.9-16.1-31.1-15.9-47.9.2-12-3.6-11.9-7.7-12.1l-1.2-9.9c.1-.9.3-1.7.4-2.6 1.7-1.6 3-3.6 3.9-6 3-8.2 7.2-10 15-12.2 4.6-1.3 8.3-3.2 11.9-6.2.5-.4 1-.9 1.5-1.4 3.1.5 6.2 1.3 9.3 2.3 3.5 1.2 6.5-3.1 4.7-6.2z"/><path fill="#F7923F" d="M2444.5 121.9c-.4-1.3-.7-2.5-1.1-3.8-.6-2.2-3-3.6-5.2-3-2.2.6-3.6 3-2.9 5.2.4 1.3.7 2.5 1.1 3.8.6 2.2 3 3.6 5.2 3 2.2-.6 3.6-3 2.9-5.2zM2380.3 439.8c-.4-1.6-1-3.1-1.8-4.7-.4-13.1-1.4-26.2-1.8-39.1-.4-12.5 1.5-35.8-9.6-44.5-9.5-7.5-17.6 2.2-21.6 10.9-16.9 13.1-35.6 20.4-56.5 26.6-4.2 1.2-7.8 3-10.7 5.1-10.3 2.3-18.6 8.6-20.8 22.4-2 12.2 2.5 25.1 2.8 37.3.4 14.5-2.4 29-4.9 43.2-3.3 19-8.4 41.8-4 61.5-2.2 6.3-3 12.6 1.6 17.9.3 4.3.5 8.5.8 12.8.2 3.5 4.5 5.9 7.2 3 3.5-3.7 7-7.4 10.4-11.1 2.3-.2 4.4-.4 6.2-.5 4-.4 7.4-1.3 10.3-2.7 7.4 2.6 13.9 7.6 18.8 13.7l.3 2v.1c-.1 1.4-.1 2.9-.2 4.3-.1 2.8 1.9 4.1 4 4.1 1.3 2.6 2.2 5.3 1.8 7.6-.9 5.3 7 7.7 8.1 2.3 5.1-30.6 10.3-61.2 15.4-91.8.4-2.2-.9-4.2-2.6-5 4.6-8.4 5.3-18.3 5-28.2l.9-3.8c1.3.8 3.1 1 4.5.2 8.1-4.3 16.2-8.7 24.2-13 5.3-2.8 9.7-6.9 10.1-13.3.1-1.8.1-3.5.2-5.3l.3-.6c1.6-3.3 2.5-7.8 1.6-11.4zM2518.6 350.2l1.8-6.7c1.4-5.3-6.6-7.5-8.1-2.3-.4 1.5-.9 2.9-1.3 4.4-1.3.1-2.5.6-3.1 1.9-1.7-2.4-5.9-2.4-7.4 1.3-.2.4-.3.8-.5 1.2-.2-.5-.6-.9-1-1.3 1-6.6 1.9-13.3 2.6-19.9.5-4-5.7-5.8-7.6-2.5-1.9-.1-3.9.8-4.6 3l-2.4 7.8c-1.7-1.7-4.6-2-6.1.1.1-1.2.2-2.5.2-3.7.3-4.9-7-5.6-8.3-1.1l-4.2 14.6c-.8-.3-1.6-.3-2.4-.2l3-21.2c.6-4.4-4.4-6.8-6.9-4.3-1.9-.3-3.9.5-4.6 2.9-.3.9-.5 1.8-.8 2.7-.6-3.9-7.6-4.5-8.3-.1-.7 4.8-1.5 9.6-2.3 14.5-1.5-.3-3 .3-3.9 2.1-1 2.2-2 4.3-2.9 6.5-1-3.6-7.5-4-8.2.2l-1.8 12.2c-2.2-1.9-6.3-1.6-6.9 1.9l-.1.9c-2-3.4-7.8-2.9-7.8 1.9 0 1.8 0 3.7.1 5.5-.8-1.6-1.7-3.2-2.7-4.8-2.9-4.6-10.2-.4-7.3 4.3a56.1 56.1 0 0 1 8.8 26.9c.1.9.4 1.7.9 2.4-4.3 5.2-7.3 11.5-8.8 18.5-.6 2.8 2 6.6 5.2 5.2a74 74 0 0 0 8-4c.7 2.3 3.6 3.9 6.3 2.8 2.9-1.3 5.8-2.5 8.7-3.8.5-.2 2.4-1.2 4-2.1l-.1.1c-3.8 3.3 1 8.8 5.1 6.7 1.9-.9 4.4-3 6.1-5.4 3.6-3.3 7.1-6.8 10.4-10.3 1.8.3 3.8.2 5.5-.4-.7 5.2-1.2 10.4-1.6 15.6-.4 5.1 6.7 5.4 8.3 1.1 2.5-6.9 5-13.9 7.3-20.8.6 2.9 1.4 5.8 2.2 8.7 1.1 3.9 7.3 4.3 8.1 0l1.5-7.3c1.9-.3 3.7-1.6 4-4l1.8-15.2c.8.5 1.6.8 2.5.8v2.1c.1 1.9 1.2 3.2 2.6 3.8-1 6.7-1.9 13.4-3 20.1-.7 4.1 3.8 6.4 6.4 4.8 2.1 2.4 7.2 1.4 7.6-2.8 1.5-20.4 5.1-40.4 10.5-60.1 1.1-3.4-1.8-5.5-4.5-5.2z"/><path fill="#F7923F" d="M2507.7 273.6c-.8-.6-1.6-1.2-2.5-1.6-.3-1.9-.8-3.8-1.7-5.5-2.1-3.9-5.8-6.9-10.1-7.6-1.9-2.7-3.8-5.2-5.4-7.3-1-1.3-2.3-2.3-3.7-3.1l-5.7-10.8c-1-1.9-2.2-3.2-3.6-4-.7-1.9-1.3-3.7-1.9-5.7-.5-1.7-1.3-3-2.3-4.1-2.7-12.6-6.7-24.8-12.9-36.1.8-1.9.8-4.1-.2-6.7-7.1-17.8-5-36.6-2.7-55.1 1.6-13-18.6-12.9-20.2 0-2.5 20.3-4.4 41.2 3.4 60.6-1.1 2.6-1.2 5.6.7 8.8 2.1 3.6 4 7.3 5.5 11.2-.2.4-.3.8-.5 1.2-2.8 0-5.5 1.3-7.2 4.5-3.1 1.1-6.4 2.1-7.2 2.6-2.6 1.4-4.8 3.4-6.9 5.7-3.2.5-6 2.8-6.7 7.3-1.4 8.7-8.9 14.5-14 21.2a38 38 0 0 0-6.2 10.9c-.7 2.2-1.1 4.2-1.4 6.5-.1.8-.2 1.5-.2 2.3-3.9.1-7.5 2.4-8.4 7.3-2.5 13.5-2.3 26.7-.8 40.3 1 8.9 1.6 18.6 4.8 27.2-1 1.5-1.5 3.4-1.3 5.8 2.1 28.6 4.2 57.3 6.4 85.9.2 3.1 1.6 5.5 3.4 7.1-.6 1.9-.7 4-.2 6.3.4 1.8 2.3 3.1 4.1 3.1 2.5 0 4-1.9 4.2-4.3.1-.9.2-1.7.2-2.6 4.4-.3 8.4-3.2 8.5-8.7 1.2-.2 2.4-.5 3.6-1.2 14.5-7.8 31.4-4.7 46.7-1.2 1.1.3 9.9 2.5 9 1.4 1.7 2.4 2.7 4.9 4.6 7.2 4.5 5.4 12.7 5.7 18.9 4.6 12.9-2.4 21.7-24.1 12-34-8.6-8.9-21.8-3.2-22.7 6.7 0 0-.1 0-.1-.1-7.3-4.6-17.1-5.8-25.5-7.4-15.4-3.1-31.2-3.5-45.8 1.9l-3-45.7c5.5-.3 11.6-2.6 16.7-4 7.8-2.1 15.4-4.8 22.9-7.7 10.2-4 30.5-14.7 38.6-1.6 2.9 4.8 7.8 5.6 11.9 4.2 2.1 5.8 6.8 10.4 13.3 10.4 8 0 12-8.2 14.8-14.4 13.8-30.3 1.4-62.1-23.2-81.7zM2631.3 610.7c.2-.9.3-1.9.3-2.9l-3.1-67.9c-1.1-23-1.1-46.3-4.5-69.1-5.6-37.2-31.5-67.8-60.6-89.3-1.5-1.1-3.1-1.7-4.6-1.9a10.06 10.06 0 0 0-13.1 4.1c-1.4 2.4-1.7 5.2-1 7.9a8 8 0 0 0 1 2.3c-.9 2.5-.8 5.2.2 7.6-2.3 1.6-3.8 4.3-3.3 8.1 3.7 33.9-13.6 65.8-13 99.7.3 17 5.1 33.6 12.5 48.8 3.1 6.4 6.9 12.4 10.7 18.4.1 4.2-2.1 8.5-3.5 12.3-1.6 4.2-2.3 8.4-2.8 12.8-.4 3.5.4 8.4 2.2 11.7-1.6 7-3.1 14.1-4.7 21.1-2.8 12.8 16.7 18.3 19.5 5.4.1-.2.1-.5.2-.7.8-.4 1.5-.9 2.1-1.4 4.9-.2 9.9-3.4 10.3-9.8 0-.6.1-1.2.1-1.8 12.3-6.5 28.5-13.6 39.6-2.6 8.5 8.6 21.7-3.6 15.5-12.8z"/><path fill="#F7923F" d="M2587.7 425.7c-.8-5.5-7.6-8.5-12.4-7.1-5.8 1.6-7.9 7.1-7.1 12.6 1.1 7.3 1.2 14.6.8 22-.8 13.2 19.5 13.1 20.2 0 .5-9.3-.1-18.4-1.5-27.5zM2357.6 227.1c-2.5-8.3-3.3-16.4-2.6-25 .4-2.7.6-5.4 0-7.7-1.3-5.2-7.3-7.1-8.2-11.3-.8-3.8-5.8-3.9-7.7-1 1.1-1.7-3.2.5-3.7 1.1-.4.4-.6.8-.9 1.3-.4-.1-.9-.1-1.4-.1-3.8 0-5.4 4.6-3 7.3 2.8 3.1 2.3 8 4.2 11.7.7 1.4 1.5 2.6 2.3 3.7-.7.9-1.1 2.1-.8 3.7 1.2 6.8 3.1 35.7 16 25.3 1.1-.9 1.8-2.2 2.1-3.7 2.5-.4 4.6-2.5 3.7-5.3zM2368 301.4c.4-4.4.9-8.8 1.5-13.1.7-5.3-7.1-7.7-8.1-2.3s-2.6 10.3-4.9 15c-3.5 2.8-8.7 5.2-11.2 7.2-3.9 3-7.5 6.4-10.8 10-.6.6-1.2 1.3-1.8 2-2-.4-4 .5-4.4 3l-.6 3.4c-3.2 4.8-5.6 10.2-5.4 16.1 0 1.6.9 2.8 2 3.5-1.6 3.7-2.5 7.4-2.7 11.6-1.5 3.9-3.1 7.7-5 11.5-1.6 3.1 1 6.9 4.2 6.4-1 1.2-2 2.4-3 3.5-3.5 4.2 2.4 10.2 6 6l3.5-4.1c1.5 1 3.4 1 4.8-.8 1.9-2.4 3.8-4.8 5.6-7.3 1.7 1.5 4.7 1.4 6.4-1 2.9-3.9 5.7-7.8 8.4-11.7 1.7 3.4 6.8 3.9 8-.3.6-2 1.1-4.1 1.5-6.2.3 1 .6 2 .8 3.1 1.1 4.6 8.5 3.7 8.3-1.1-1.2-18.1-2.1-36.2-3.1-54.4zM2522.8 354.5c-5.2 3.1-5.3 11.9-6.2 17-1.7 9.9-2.8 19.8-3.6 29.8-.2 2.3-.3 4.7-.4 7-.5 2-.9 3.9-1.3 5.9-1.7-1.6-4.6-1.9-6.1-.3 0-.6.1-1.2.1-1.8 0-.9-.2-1.7-.6-2.3.6-4.1 1.4-8.2 2.2-12.2 1-4.7-4.1-6.6-6.9-4 .4-2.5.9-5.1 1.3-7.6.2-1 0-1.9-.3-2.7 1.6-4.8-5.1-8.8-7.4-3.9-.9 2-1.9 4-2.7 6.1-2.4 5-4.9 9.8-7.7 14.5 1.3-3.6 2.7-7.1 4-10.7 1.8-4.8-5.2-7.1-7.7-3.3l-5.2 7.7c-2-1.8-5.7-1.6-6.9 1.8-.5 1.5-1.1 2.9-1.8 4.3.4-3.2.9-6.4 1.3-9.6.7-5.4-7.4-7.7-8.1-2.3-1.2 9.2-2.5 18.4-3.7 27.6-.5 3.9 3.8 7.6 7 4.1 1.8-1.9 3.5-4 5-6.1.6.2 1.2.3 1.8.3-1.6 4.4-3.3 8.7-4.9 13.1-.7.1-1.4.1-2.1.2-2.3.2-4.2 1.8-4.2 4.3 0 2.2 1.9 4.4 4.2 4.3 1.7-.1 3.4-.3 5.1-.4 2.1-.2 3.9-1.6 4.2-3.7 2.4-2.9 4.7-5.8 6.9-8.7-1.1 4.6 5.5 7.7 7.7 3.3 0-.1.1-.1.1-.2 0 .3-.1.5-.1.8-.7 4.1 3 6.1 5.7 4.8 0 1.4 0 2.7.1 4-.5 2.7-.6 5.4-.5 8.3.1 2.1 1.3 3.3 3.1 4.1.1.2.1.4.2.6-.2 1.4-.1 3.1 1.1 4.1.4.4.9.7 1.3 1.1.3 1.6 1.8 2.7 3.4 2.9 4.3 3.8 8.2 8 11.9 12.5 2.1 2.6 6.2 1 7-1.9 2.5-8.8 2.4-18 1.9-27.1 7-17.5 10.3-35.8 12-54.5.6-5 5.5-40.5-10.2-31.2zM2554.4 344.7c-2.7.3-4.1 2.7-4 4.8-1.4.5-2.5 1.8-2.5 3.8.1 6.1.7 12.1 1.6 18.1.3 1.9 2.3 3 4.1 3.1 7.2.4 10.1-6.3 10.2-12.6-.1-5.6-1.3-18-9.4-17.2zM2414.3 224.5c-2.9.9-5.4 1.2-8.4 1-4.2-.3-5.1 4.8-2.8 7.2-.1.1-.3.2-.4.3-3.3 3.1-12.1 15.9-6.6 19.8-1.7 7.9-1.7 16 3 21.7 3.5 4.2 9.4-1.8 6-6-2.8-3.4-2.1-9.9-.4-16.4 2.2-2.2 3.4-6 4.5-8.4 3.1-6.7 9.7-7.2 10.4-15.2.2-2.6-2.9-4.8-5.3-4zM2460.9 191.8c-.2-.6-.3-1.2-.5-1.9v-.1-1.3c0-2.3-1.9-4.3-4.2-4.3-2.3 0-4.2 1.9-4.2 4.3 0 1.9.3 3.8.8 5.6.7 2.2 2.9 3.6 5.2 3 2.1-.6 3.6-3 2.9-5.3z"/><ellipse fill="none" stroke="#010101" stroke-width="5.24" stroke-miterlimit="10" cx="2348.9" cy="107.4" rx="8.2" ry="18.1"/><path fill="none" stroke="#010101" stroke-width="6.55" stroke-miterlimit="10" d="M2255.2 118.7l6.5 27 17 11.9s9.7 17.2 25.9 26.1c15.3 8.3 19.4 8 28.2-.6 0 0 24.4-14.8 21.4-36.5-.9-7.4-5-21.4-5-21.4l-49.1-55.8-44.9 49.3z"/><path fill="#010101" d="M2285.2 144.5c9.4-2.1 17-7.7 22.3-15.7 2.1-3.3-2.9-6.2-5-3a29.31 29.31 0 0 1-18.8 13c-3.8 1-2 6.6 1.5 5.7zM2302.5 182.8c8.5-1.8 15.9-7.7 19.4-16 1.5-3.6-3.5-6.5-5-3-2.9 6.8-8.5 11.6-15.9 13-3.8 1.2-2 6.8 1.5 6zM2370.1 123.1c6.5 5.3 13.2 10.4 18.5 16.6 3.2 3.9 6.2 8.9 6.2 13.9 0 5.9-2.1 9.2-5.9 13.3-10 11-32.9 26.7-44.7 9.5-2.1-3-7.3 0-5 3 14.1 20.2 39.1 6.8 52.6-6.8 3.2-3.3 7.1-6.8 8.5-11.3 1.5-4.7 1.2-10.7-.6-15.1-4.1-12.2-15.9-19.6-25.3-27.3-3.1-2.6-7.2 1.9-4.3 4.2z"/><path fill="#010101" d="M2262 145.1c2.6 1.2 5.3 2.4 7.9 2.7 1.5.3 2.9.3 4.7 0 1.8-.3 2.9-1.5 3.5.9.6 3.9 6.2 2.1 5.6-1.5-.6-3.3-2.9-5.9-6.5-5.9-1.8 0-3.2.9-5 .9-2.6 0-5.3-.9-7.3-2.1-3.2-1.8-6.1 3.2-2.9 5zM2288.1 144.2c7.9 3 18.8 3.6 22.9-5.6 1.5-3.6-3.5-6.5-5-3-2.9 6.8-10.6 5-16.2 3-3.4-1.5-5.2 4.1-1.7 5.6zM2565.7 191.7a574.89 574.89 0 0 0-33.8-43c-10.9-12.8-22.3-29.1-38.8-34.4-7.9-2.7-17-2.4-25.3-2.4-10.6 0-20.9.3-31.4.6-20.9.6-41.7 1.8-62.6 3.3-3.8.3-3.8 6.2 0 5.9 17.9-1.5 36.1-2.4 54.1-3 18.2-.6 36.7-1.8 54.9-.3 19.1 1.5 31.1 19 43.2 32.3 12.3 13.9 23.8 28.8 34.7 43.9 2.1 3.3 7.1.3 5-2.9zM2296.1 179.8c-13.5 18.1-21.7 39.7-15.6 62.3 3.2 11.6 9.7 21.9 12.3 33.8 2.6 11.6 4.4 23.1 10.3 33.5 3.8 6.8 11.2 13.6 19.4 14.2 7.1.6 11.2-3 16.2-7.4 5.6-5 11.5-10.1 17.3-14.8 2.4-2.1 4.7-3.9 6.5-6.5 2.6-3.9 2.4-9.8 2.6-14.2.3-3.9-5.6-3.9-5.9 0-.3 4.7 0 10.7-4.4 13.9-1.5 1.2-2.9 2.4-4.4 3.6-4.7 3.9-9.4 8-13.8 12.2-5.9 5.3-10.3 10.1-19.1 5.9-8.8-4.2-12.9-14.8-15.6-23.4-2.4-8.6-3.5-17.2-5.9-25.8-2.6-8.9-7.3-17.2-10.3-26.1-6.8-20.5 2.9-41.5 15-57.8 2.7-3.4-2.3-6.4-4.6-3.4z"/><path fill="#595A5C" stroke="#010101" stroke-width="6.55" stroke-miterlimit="10" d="M2245 107c-.6 5 2.9 9.5 7.9 10.4 4.7.6 10 1.5 12 2.4 3.8 2.1 6.5-8 8.8-8.3 2.4-.6 16.7-3.6 17-6.5.6-3 .6-10.4 14.1-10.1 7.1 0 4.4 9.8 5 12.2s5.3-5 18.2 8c12.9 13 15.6-23.1 15.6-23.1s9.7-5.3 21.2 21.7c1.2 3 2.9 2.7 4.3 1.6 2.2-1.7 2.8-4.8 1.7-7.4-5.7-12.9-28.8-57.8-74.1-56.8-40.3.1-49.7 37.8-51.7 55.9z"/><path fill="#F7923F" d="M2271.4 608.8a62.4 62.4 0 0 1-3.2-25.7c.4-5.5-8-5.4-8.4 0-.8 9.5.4 18.9 3.5 28 1.7 5.2 9.8 2.9 8.1-2.3z"/><path fill="#010101" d="M2332.2 207.7c1.2 9.8 2.1 19.6 3.2 29.4 1.2 10.1 6.2 27-5 32.9-3.2 1.8-.3 6.8 2.9 5 11.2-5.9 10.3-18.7 8.8-29.4-1.5-12.8-2.6-25.5-4.1-38-.5-3.8-6.4-3.8-5.8.1z"/><path fill="#010101" d="M2326.3 190.2c7.3 17.5 11.5 35.3 14.4 54 .6 3.9 6.2 2.1 5.6-1.5-3.2-19.3-7.3-37.4-15-55.2-1.4-3.9-6.4-.9-5 2.7zM2349.2 190.2c7.6 12.5.3 28.2 7.3 41.2 1.8 3.3 6.8.3 5-3-7.1-12.8.6-28.2-7.3-41.2-1.7-3.3-7-.3-5 3z"/><path fill="#F7923F" d="M2397.5 437.3c-.7 2.8-1.5 5.7-2.2 8.5-1.4 5.3 6.7 7.6 8.1 2.3.7-2.8 1.5-5.7 2.2-8.5 1.4-5.3-6.7-7.6-8.1-2.3z"/><path fill="#010101" d="M2390.4 120.5c19.1 8.9 23.8 34.7 9.4 50.4-6.8 7.4-13.2 14.8-23.8 16-5.9.9-16.2 2.4-21.2-1.8-2.9-2.4-7.1 1.8-4.1 4.2 5.9 5 16.7 5 23.8 3.9 5.9-.9 10.3-1.5 15.3-5 5.3-3.9 9.4-8 13.8-13 17-18.1 12-49.2-10.6-59.9-3.2-1.6-6.2 3.4-2.6 5.2zM2433.3 116.9c-8.2 29.4-5.9 60.2 6.8 88.1 1.5 3.6 6.8.6 5-3-12-26.1-14.1-55.8-6.2-83.3 1.1-4.2-4.5-5.6-5.6-1.8z"/><path fill="#F7923F" d="M2537.7 304.4c-.5-2.9-1.9-5.3-3.8-7.5-1.4-1.6-4.3-1.8-5.3-3-3.5-4.1-9.3 1.7-6.1 5.8-3 1.8-3.6 7 .6 7.7 1.6.2 2.8 6.1 3.5 7.6 1.8 3.8 4.6 6.5 4.5 11-.1 5.5 8.2 5.5 8.4 0 .1-7.3-.5-14.5-1.8-21.6z"/><path fill="#010101" d="M2448.5 115.7c1.2 10.4.3 20.5 0 30.5-.3 9.2.9 17.8 3.5 26.7 2.3 8.9 5.6 17.5 8.5 26.4 2.6 8 4.7 16.3 8.2 24 14.1 31.4 41.4 56.4 64.3 81.3 2.6 3 6.8-1.5 4.1-4.2-22-24.3-47.3-48-62.3-77.7-4.1-8-6.2-16.3-8.8-24.9-2.3-8-5.3-16-7.9-24-2.6-8.9-4.1-18.1-3.8-27.3.3-10.4 1.5-20.5 0-30.5-.5-3.8-6.4-4.1-5.8-.3zM2389.5 231.1c1.5-2.4 3.8-3.3 6.2-1.8 1.5.9 2.9 5.6.3 4.7-3.5-1.2-5.3 4.7-1.5 5.6 7.9 2.4 11.2-7.7 7.1-13-4.4-5.9-13.5-5-17 1.5-1.9 3.3 3.1 6.3 4.9 3z"/><path fill="#010101" d="M2439.7 202.3c-1.5 7.1-9.7 10.1-15.3 13-7.3 3.9-15.3 7.1-23.2 9.8-3.5 1.2-2.1 6.8 1.5 5.6 9.1-3.3 18.2-7.1 27-11.6 6.8-3.6 14.1-7.4 15.6-15.4.9-3.4-5-4.9-5.6-1.4z"/><path fill="#010101" d="M2388.6 292.2c12.6.6 24.7-5.3 36.7-8 10.9-2.4 19.4-6.8 24.7-16.9 5.9-11.6 5-24 4.4-36.5-.3-5.3.6-12.2-1.5-17.5-1.8-4.4-5.3-7.7-7.6-11.9-2.1-3.3-7.1-.3-5 3 1.8 2.7 3.8 5.3 5.9 8 2.9 4.4 2.4 10.1 2.6 15.1.3 11 1.8 22.2-2.1 32.9-4.1 11.9-13.5 15.7-24.7 18.1-10.9 2.4-21.7 8-33.2 7.1-4 .4-4 6.3-.2 6.6zM2226.5 730.9c27.9-.3 55.8 0 83.7.3-.9-.9-2.1-2.1-2.9-3v63.5c0 11.3.3 22.5 0 33.8-.3 7.7-32.9 4.2-38.2 4.2-11.8-.3-23.2-.3-35-.3-12.9 0-9.4-17.8-9.4-26.7V768v-17.2c0-5-2.1-16.9 3.2-19.9 3.2-1.8.3-7.1-2.9-5-9.1 5-6.2 19.6-6.2 27.9v69.4c0 3.9 2.1 6.8 4.7 8.9 7.9 6.2 21.4 3.6 30.8 3.6 15.6.3 31.1.6 46.4.6 11.8 0 12-8.3 12-18.1v-89.3c0-1.8-1.5-3-2.9-3-27.9-.3-55.8-.9-83.7-.3-3.5-.7-3.5 5.3.4 5.3zM2573.1 734.7c13.8-1.2 27.9-.9 42-.6 7.1 0 14.1.3 21.2 0 3.5 0 6.8-.3 10.3-.6 2.4-1.2 3.5-.3 3.2 2.4v5.6c.3 15.4.6 30.5 1.2 46 .3 7.7.3 15.4.6 23.1 0 3.9.3 7.7.3 11.6 0 5.9-2.6 7.4-8.5 7.7-14.7.6-29.4.9-43.8.6-9.1 0-20.9.6-20.3-11.3 1.5-29.1-.3-58.4-3.5-87.2-.3-3.9-6.2-3.9-5.9 0 2.1 19 3.5 38 3.8 56.9.3 9.5 0 19 0 28.5 0 2.7-.3 5.3.3 8 2.1 10.7 14.7 11 23.2 11.3 9.1.3 18.2.3 27.3 0 8.8 0 18.5.6 27-1.2 3.5-.9 6.2-5.6 6.8-8.9.9-8.6-.3-18.1-.6-27-.6-20.2-.9-40.3-1.5-60.5 0-4.4.9-10.1-4.4-11.6-2.9-.9-7.1.3-10 .6-4.4.3-8.8.3-12.9.3-18.5 0-36.7-1.2-55.2.6-4.4.1-4.4 6-.6 5.7zM2113.1 540.1h37.9c5.3 0 14.1-1.8 15 5.3l1.8 20.5c.6 5.6.9 11 1.2 16.6.6 10.4-13.8 7.1-19.7 6.8-12.3-.6-24.7-1.5-37-2.1.9.9 2.1 2.1 2.9 3-.9-17.8.9-35.6.3-53.1-.3-3.9-6.2-3.9-5.9 0 .9 17.8-.9 35.6-.3 53.1 0 1.8 1.2 3 2.9 3 16.7.9 33.8 2.4 50.5 3 15.3.6 11.8-17.2 10.9-27-.6-8.3-1.2-16.9-2.1-25.2-.6-4.7-2.9-7.7-7.3-9.2-6.5-2.1-15.3-.3-22-.3h-29.1c-3.9-.3-3.9 5.6 0 5.6zM2515.8 228.4c-4.7-26.1 28.5-30.5 46.1-31.1 3.8-.3 3.8-6.2 0-5.9-13.8.6-27.3 1.5-39.1 9.5a28.94 28.94 0 0 0-12.6 29.4c.6 3.5 6.2 2 5.6-1.9z"/><path fill="#010101" d="M2480.5 191.4c7.6 11 15.6 21.9 23.2 32.9 2.3 3.3 5.3 5.6 8.5 8 5.6 3.9 10 9.2 14.7 14.2 2.6 2.7 6.8-1.5 4.1-4.2-3.2-3.6-6.5-7.1-10-10.4-3.5-3.6-8.2-5.6-11.5-9.2-5-5-8.5-11.9-12.6-17.5-3.8-5.3-7.6-11-11.8-16.3-1.6-3.5-6.9-.5-4.6 2.5zM2556 204.1c4.1-1.5 6.5-4.2 9.7-7.1 1.2-1.2 1.2-3.3 0-4.2a2.78 2.78 0 0 0-4.1 0c-2.4 2.1-4.1 4.4-7.1 5.6-3.5 1.3-2 6.9 1.5 5.7zM2284 228.4c3.2-12.2 16.7-11 26.4-9.2 10 1.8 22.9 5.3 23.8 17.5.3 3.9 6.2 3.9 5.9 0-1.2-15.1-15.3-20.8-28.2-23.4-12.9-2.4-29.4-2.1-33.5 13.3-1.1 3.9 4.7 5.4 5.6 1.8zM2274.6 616.1c-6.8-4.2-13.2-10.7-11.8-19.3 1.5-8 8.5-13.3 16.2-14.2 15.6-1.8 25.9 13 30 25.8 1.8 5.6 5.3 16.3 12.6 8.9 3.2-3.6 3.2-10.1 4.1-14.5 1.2-7.7 2.6-15.1 3.8-22.8 5-29.4 11.2-58.7 13.2-88.4 2.1-26.7 1.2-56.4-17.9-76.8-2.6-2.7-6.8 1.5-4.1 4.2 21.7 23.4 17.9 60.2 14.4 89.6-3.8 32.9-10.9 65.5-16.5 98.2-.6 2.7-2.4 8-3.8 2.4-.9-3-1.8-5.9-2.9-8.9-2.1-4.7-4.7-8.9-8.2-13-6.5-7.7-17.9-12.8-27.9-10.4-10.3 2.4-17.3 9.8-19.1 20.2-1.8 10.4 6.8 19 14.7 24 3.2 2.1 6.5-2.9 3.2-5z"/><path fill="#010101" d="M2261.4 603.3c-6.5-17.8-10-35.9-10-54.9 0-21.1 5-41.8 8.5-62.6 3.2-19.3 2.6-37.7 1.8-57.2-.6-10.4.9-21.7 7.9-29.7 5.3-5.9 15.6-8.3 22.9-8.3 3.8 0 3.8-5.9 0-5.9-15.9.6-29.1 8-34.4 23.1-3.2 9.2-2.6 19.9-1.8 29.4.9 12.5.9 24.3-.6 36.8-2.6 23.1-8.8 45.7-10 69.1-.9 21.1 3.2 41.8 10.3 61.7 1 3.9 6.6 2.4 5.4-1.5z"/><path fill="#010101" d="M2293.1 390.7c12-3.6 23.2-8.6 34.1-15.1 5-3 10-6.5 14.7-10.4 6.2-5 12.3-13.6 20.9-14.5 3.8-.3 3.8-6.2 0-5.9-12.3 1.2-20.9 13.3-30.3 20.2-12.3 8.9-26.1 15.4-40.8 19.9-3.9 1.3-2.4 7 1.4 5.8zM2345.4 470.2c7.9 5.6 19.1 4.7 27.9 1.5 5.9-2.1 11.2-6.2 16.2-9.8 6.5-4.4 12.6-8.9 19.1-13 5.3-3.6 10-8.3 15.9-11.6 12-6.8 24.4-5.9 35.3 2.4 2.9 2.4 5.9-3 2.9-5-16.5-12.8-34.7-8.3-49.9 3.6-7.6 5.9-15.6 11.6-23.5 16.9-11.2 7.7-27 19.3-40.5 9.8-3.4-2.3-6.3 2.8-3.4 5.2z"/><path fill="#010101" d="M2461.7 439.9c7.3-1.5 11.2 1.2 15.9 6.5 2.9 3.3 5.9 4.4 10 5.3 6.2 1.5 10 4.7 14.1 9.5 4.1 4.4 8.8 8.3 12.9 12.5 2.6 2.7 6.8-1.5 4.1-4.2-4.7-4.7-9.7-9.2-14.4-13.9-3.8-4.2-7.9-7.4-13.5-8.9-4.4-1.2-7.1-1.2-10-5.3-1.8-2.4-3.5-3.9-5.9-5.3-4.4-2.7-10-2.4-15-1.5-3.4.6-2 6.2 1.8 5.3zM2525.2 519.4c4.1 10.4 8.5 21.1 12.6 31.4l6.2 15.7c2.9 7.1 7.6 14.2 2.1 21.1-5 6.2-3.8 13.3-3.2 20.8.3 4.4-.6 8.9-.9 13-.6 8-1.5 17.5 2.1 24.9 3.5 7.7 10.9 6.5 16.5 1.8 6.5-5.6 12.3-11.9 18.8-17.8 4.7-4.2 7.3-8.9 14.1-9.5 5.9-.6 12 .9 17.3 2.4 5.6 1.5 13.5 9.8 19.7 6.5 7.6-3.9 4.7-14.8 4.7-21.7-.9-23.7-2.9-47.2-5-70.9-.9-11-2.3-21.9-2.1-33.2 0-10.4 2.1-20.5.9-30.8-2.3-23.7-19.7-45.1-31.4-64.7-12.6-21.1-30.8-36.5-56.4-35.3-3.8.3-3.8 6.2 0 5.9 25-1.2 40.5 14.5 52.6 34.7 10 16.9 22.3 33.5 27.9 52.8 2.9 9.8 1.8 20.2.9 30.3-.9 11.6.6 23.1 1.5 34.7 1.8 23.7 4.1 47.2 5 70.9.3 5.6.3 11.3.6 17.2 0 8.9-9.7.6-12.6-.3-7.6-3.3-17.9-5.9-26.4-3.9-8.2 1.8-12.9 9.2-19.1 14.2-5.6 4.7-11.5 13.6-18.5 16.3-6.2 2.4-5.3-17.5-5.3-20.5s.3-5.9.9-8.9c1.5-9.8-2.6-18.1 3.5-27 6.8-9.5-.9-20.2-4.4-29.7-5.6-13.9-11.2-27.9-16.7-42.1-1.5-3.4-7.4-1.9-5.9 1.7z"/><path fill="#010101" d="M2592.5 614.9c2.6-.9 5-2.1 7.3-3.6 2.4-1.2 6.2-2.7 7.9-4.7 1.2-1.5 2.1-3 2.6-5 .3-.9.3-1.8.3-2.7.3-2.1.6-1.2-.6.3-1.8-.3-3.2-.9-5-1.2 0 .3.3.6.3.9 1.8-.6 3.8-1.2 5.6-1.5-3.8-9.5-17.9-14.5-27-17.2-3.5-1.2-5.3 4.7-1.5 5.6 4.1 1.2 8.2 3 12.3 4.7 3.2 1.8 9.4 4.4 10.9 8 1.5 3.6 6.8 2.1 5.6-1.5 0-.3-.3-.6-.3-.9-.9-1.8-3.2-3.3-5-1.2-1.2 1.5-.9 3.3-1.2 5-.6 4.4-10.3 7.7-13.8 9.2-3.4 1.6-2 7.3 1.6 5.8z"/><path fill="#010101" d="M2581.9 580.2c-8.2 3.9-14.4 9.8-20 16.6-5 5.9-10.6 12.2-10.9 20.5-.3 7.1 6.8 8.3 11.8 6.2 9.4-3.9 16.2-11.6 26.1-13.9 3.8-.9 2.1-6.5-1.5-5.6-4.7 1.2-8.8 3.3-13.2 5.6-2.6 1.5-5.3 3.3-7.6 5-2.1 1.2-10.9 8.3-9.1-.3 1.5-6.2 7.9-12.2 11.8-16.9 4.4-5 9.4-9.5 15.9-12.2 2.9-1.5-.1-6.8-3.3-5zM2547.8 555c14.1-13.3 22.9-29.7 28.5-48 2.9-9.2 4.7-18.7 6.2-28.2 1.5-10.1 4.1-20.2 4.7-30 .3-3.9-5.6-3.9-5.9 0-.9 9.5-3.2 19-4.7 28.5-1.5 8.6-3.2 17.2-5.3 25.5-5 18.4-13.8 35-27.6 48-2.6 2.7 1.5 6.8 4.1 4.2z"/><path fill="#010101" d="M2532.2 520.3c2.9 5.3 8.2 5.9 13.5 3.6 7.3-3.6 7.1-15.4 8.2-21.9 4.1-21.1 25.9-35.6 24.7-57.8-.3-3.9-6.2-3.9-5.9 0 .9 15.4-11.2 26.4-18.2 39.1-2.9 5.3-5 11.3-6.5 17.2-.6 2.7-.9 5.3-1.2 8-.3 2.4-.9 4.7-1.8 7.1-1.5 3.6-4.1 4.2-7.9 1.8-1.6-3.6-6.6-.7-4.9 2.9zM2489.9 451.5c10.9-1.5 20.3-8.3 25.3-18.4 1.8-3.3-3.2-6.5-5-3a28.1 28.1 0 0 1-21.7 15.4c-3.8.6-2.1 6.3 1.4 6zM2474.1 440.5c5.3-.9 9.7-3.9 14.1-6.8 6.2-3.9 12.6-8 18.8-11.9 3.2-2.1.3-7.1-2.9-5-5 3-9.7 6.2-14.7 9.2-5.3 3.3-10.6 7.7-16.7 8.9-3.9.6-2.1 6.5 1.4 5.6zM2579.8 828.7c-9.1-3-18.8-4.2-27.9-7.7.6.9 1.5 1.8 2.1 3-.9-32.9-2.1-66.1-2.9-99.1 0-3.9-5.9-3.9-5.9 0 .9 32.9 2.1 66.1 2.9 99.1 0 1.5.9 2.4 2.1 3 9.1 3.6 18.8 4.7 27.9 7.7 3.8.9 5.3-4.8 1.7-6z"/><path fill="#010101" d="M2572.5 728.2c-6.5-5.6-14.1-8.9-22.9-9.2-3.8-.3-3.8 5.6 0 5.9 7.1.3 13.5 3 18.8 7.7 2.9 2.1 7-2 4.1-4.4zM2563.1 379.4c5.3-8.3 6.5-17.8 3.2-27-3.2-9.2-11.8-15.4-19.1-21.1-2.9-2.4-5.9 3-2.9 5 12.9 9.8 24.4 23.7 13.8 40-2.4 3.1 2.6 6.1 5 3.1zM2540.2 323.6c.9-12.8-2.6-26.4-5.3-38.9-3.5-16.9-8.5-33.2-12.9-49.8-.9-3.6-6.8-2.1-5.6 1.5 4.4 16 9.1 31.7 12.6 48 2.9 12.5 6.5 26.1 5.6 39.1-.6 4 5.3 4 5.6.1zM2307.8 384.4c10.3-2.7 13.5-15.7 14.4-25.2 1.5-16.6 5.9-32.9 20-43.6-1.5-.3-2.6-.6-4.1-1.2 4.4 10.1 13.5 10.7 20.9 3.6 8.8-8.9 13.8-24 13.2-36.2-.3-3.9-6.2-3.9-5.9 0 .6 8.3-1.8 15.7-5.6 23.1-3.2 6.2-12 18.7-17.6 6.8-.6-1.5-2.9-2.1-4.1-1.2-9.1 6.8-15 16.3-19.1 26.7-2.3 6.2-3.2 12.5-3.5 19-.6 6.8-1.8 19.9-10.3 22.2-3.3 1.3-1.8 6.9 1.7 6zM2403.3 355.4c16.5 1.8 29.4-8.6 43.5-15.4 3.8-1.8 8.2-3.3 12.3-3.3 2.3.9 2.9.9 2.1-.3-1.2.6-2.9 1.2-4.1 1.8-9.7 4.2-19.4 9.5-28.8 13.9-3.5 1.8-.3 6.8 2.9 5 10.9-5.3 21.7-10.7 32.9-15.7 4.4-2.1 5.6-7.7.3-9.5-7.9-2.7-15.9.9-22.9 4.2-12.6 5.9-23.8 15.1-38.2 13.6-3.8-.9-3.8 5.1 0 5.7zM2473.2 355.4c20.3.6 39.4-6.5 54.3-20.2 2.1-2.1 0-5.9-2.9-5-6.2 2.1-12 4.2-18.2 6.2-3.5 1.2-2.1 7.1 1.5 5.6 6.2-2.1 12-4.2 18.2-6.2-.9-1.8-1.8-3.3-2.9-5-13.8 12.8-31.4 19-50.2 18.4-3.6-.1-3.6 5.9.2 6.2zM2454.1 384.7a421.4 421.4 0 0 1 64.3-24.6c3.5-1.2 2.1-6.8-1.5-5.6-22.6 6.5-44.7 14.8-65.8 25.2-3.5 1.8-.5 6.8 3 5z"/><path fill="#010101" d="M2525.5 366.1c-10.3.3-24.4 3.3-33.8-2.1-3.2-1.8-6.2 3.3-2.9 5 10.9 6.2 25 3.3 36.7 3 3.8-.3 3.8-6.2 0-5.9zM2711.7 547.6c13.8-1.2 27.6-.3 41.7 0 2.9 0 5.9.3 9.1.3 7.9 0 5.6 12.8 5.3 16.6-.3 8.6-.3 17.2-.6 25.5-.3 10.4-10 5-13.8 10.4-2.3 3.6-1.5 7.7-1.2 11.6.3 16.6-.9 33.5-1.2 50.1 0 3.9 5.9 3.9 5.9 0 .3-18.1 2.1-36.8.9-54.9-.3-4.2 10.3-4.2 12.6-8.3 3.8-6.8 2.6-15.4 2.9-22.8.3-11.3 5.9-34.1-10.9-34.4-16.7-.6-33.8-1.5-50.5-.3-4 .5-4 6.5-.2 6.2z"/><path fill="#010101" d="M2708.8 546.4c.6 12.2-.9 24.6-.6 36.8 0 3-.3 7.7.9 10.7 1.8 4.2 5.9 6.2 10 7.7 11.5 3.9 25 3.6 37 3.6 3.8 0 3.8-5.9 0-5.9-11.2 0-22.6 0-33.5-2.7-2.6-.6-7.3-1.8-8.2-5-.9-3.3-.3-9.2-.3-12.8-.3-10.7 1.2-21.4.6-32-.3-4.3-6.2-4.3-5.9-.4zM2027 819.8l193.9 2.7c3.8 0 3.8-5.9 0-5.9l-193.9-2.7c-3.8 0-3.8 5.9 0 5.9zM2327.2 826.1c23.8 1.2 47.3 1.2 71.1.6 3.8 0 3.8-5.9 0-5.9-23.8.6-47.6.6-71.1-.6-3.5-.4-3.5 5.6 0 5.9zM2414.7 826.9c19.7 0 39.1.3 58.8 0 3.8 0 3.8-5.9 0-5.9-19.7.3-39.1 0-58.8 0-3.8 0-3.8 5.9 0 5.9z"/><polygon fill="#F7923F" points="2213.5,869.7 2210,959.8 2675.6,963.7 2677.2,868"/><path fill="#010101" d="M2486.7 827.2c21.4.3 42.9.6 64.3 0 3.8 0 3.8-5.9 0-5.9-21.4.6-42.9.3-64.3 0-3.8-.3-3.8 5.6 0 5.9zM2655.6 832.9c43.2.3 86.1 0 129.3-.3 3.8 0 3.8-5.9 0-5.9-43.2.6-86.1.6-129.3.3-3.8-.1-3.8 5.9 0 5.9zM2810.1 730.3c16.5 15.7 29.4 34.4 37.9 55.8 4.4 10.7 7.9 24-.9 33.5-8.2 8.9-23.5 7.1-34.1 6.5-3.8-.3-3.8 5.6 0 5.9 11.8.6 23.8 1.2 34.4-5 10.3-6.2 12-18.1 10.3-29.1-2.1-13.6-9.7-27-16.5-38.6-7.3-12.2-16.7-23.4-27-33.2-2.6-2.7-7 1.5-4.1 4.2zM2625.4 514.6c10.6-2.1 18.2 8.6 23.5 15.7l18.8 25.2c12.9 17.5 25.9 35 39.1 52.5 25.9 34.7 51.4 69.7 77.6 104.4 2.4 3 7.3 0 5-3-28.2-37.7-56.1-75.3-84-113.3-13.8-19-27.9-37.7-42-56.4-9.4-12.5-20.9-34.7-39.7-31.1-3.6 1-2.2 6.6 1.7 6zM2325.4 376.4c3.8-5.6 5.3-13.9 7.6-20.5 2.9-9.2 5.9-18.1 9.1-27.3-2.1-.3-3.8-.6-5.9-.9.6 7.1.9 14.8 2.4 21.9.9 4.4 2.9 7.7 7.3 8.9 3.5 1.2 5.3-4.7 1.5-5.6-5.6-1.8-4.7-20.2-5.3-25.2-.3-3.3-4.7-4.2-5.9-.9-2.4 7.4-5 14.8-7.3 21.9-2.6 7.7-4.1 17.8-8.8 24.3-1.7 3.7 3.3 6.7 5.3 3.4zM2029.3 815.7c-.3-15.1-.9-30.3-1.2-45.4 0-3.9-5.9-3.9-5.9 0 .3 15.1.9 30.3 1.2 45.4.4 3.5 6.2 3.5 5.9 0z"/><path fill="#010101" d="M2071.6 707.4c-15.6 20.2-31.4 40-47 60.2-2.4 3 1.8 7.1 4.1 4.2 15.6-20.2 31.4-40 47-60.2 2.4-3-1.7-7.1-4.1-4.2zM2252.9 500.4c-15.9 5-25.9 18.7-35.5 31.7a3705.8 3705.8 0 0 1-41.1 54.6c-13.2 17.2-26.4 34.4-39.7 51.6-12 15.7-24.7 30.8-40.2 43.3-2.9 2.4 1.2 6.5 4.1 4.2 14.7-11.9 27-26.1 38.8-41.2 12.6-16.3 25.3-32.6 37.9-49.2 12.3-16 24.7-32.3 37-48.6 11.2-14.8 21.7-34.4 40.5-40.3 3.5-1.3 1.7-7.3-1.8-6.1zM2027.9 675.4c15.6-3.3 31.4-4.2 47-3 3.8.3 3.8-5.6 0-5.9-16.2-1.2-32.6-.3-48.8 3.3-3.5.6-2 6.2 1.8 5.6z"/><path fill="#010101" d="M2028.2 770.9c-.6-15.7-.9-31.4-1.5-47.5-.6-16.6-1.5-33.2 1.5-49.8.6-3.9-5-5.3-5.6-1.5-2.6 15.1-2.4 30.3-2.1 45.4.6 17.8 1.2 35.6 1.5 53.4.6 3.8 6.5 3.8 6.2 0zM2307.2 835c7.1-3 13.8-5.9 20.9-8.9 1.2-.6 2.1-1.5 2.1-3 0-33.5.3-67 .9-100.5 0-3.9-5.9-3.9-5.9 0-.6 33.5-.9 67-.9 100.5.6-.9 1.5-1.8 2.1-3-7.3 3.3-15 6.2-22.3 9.5-3.3 1.8-.4 6.8 3.1 5.4z"/><path fill="#010101" d="M2311.3 732c5.9-2.7 12-4.2 17.6-7.7 3.2-2.1.3-7.1-2.9-5-5.3 3.6-11.5 5.3-17.6 7.7-3.5 1.5-.6 6.5 2.9 5zM2213.5 846.2c92.5 0 185.4 3.3 277.9 1.5 36.1-.6 72.3-1.8 108.4-.9 13.5.3 27-.3 40.5.3 11.8.3 23.8 1.5 35.3-1.2 9.7-2.4 8.2-8.3 8.8-16.6.3-3.9-5.6-3.9-5.9 0-.3 5.6 1.8 9.2-4.4 11-6.2 1.8-12.6 1.5-19.1 1.5-11.8 0-23.2-.3-35-.3-17.3 0-35-.9-52.3-1.2-18.2-.3-36.4.6-54.9 1.2-90.2 2.7-180.7-.6-270.8-.9h-28.8c-3.5-.3-3.5 5.6.3 5.6z"/><path fill="#010101" d="M2183.6 823.1c8.5 8.3 19.4 13.9 27.6 22.5 2.6 2.7 6.8-1.5 4.1-4.2-8.2-8.6-19.1-13.9-27.6-22.5-2.7-2.9-6.8 1.5-4.1 4.2z"/><path fill="#010101" d="M2212.9 959.8c1.2-38.9 2.4-77.7 3.5-116.6 0-3.9-5.9-3.9-5.9 0-1.2 38.9-2.4 77.7-3.5 116.6-.2 3.9 5.6 3.9 5.9 0zM2674.1 867.9c.3 32 1.2 64.1 1.5 95.8 0 3.9 5.9 3.9 5.9 0-.3-32-1.2-64.1-1.5-95.8 0-3.9-5.9-3.9-5.9 0z"/><path fill="#010101" d="M2213.5 869.7c154.8-.3 309.3-.3 464.1-.6 3.8 0 3.8-5.9 0-5.9-154.8.3-309.3.3-464.1.6-3.8-.1-3.8 5.9 0 5.9z"/><path fill="#010101" d="M2675.6 842.4V867c0 3.9 5.9 3.9 5.9 0v-24.6c0-3.9-5.9-3.9-5.9 0z"/><path fill="#414042" d="M2297.4 666.3c-.2 1.7-.1 3.4.3 5.1 2.5 11 13.3 8.9 21.9 7.2.8.1 1.5-.1 2.2-.4h.1c3.9-.7 8.9-.9 10.5-5.2 1.8-4.7-.9-10-2.8-14.4-3.5-8.3-9.7-17.8-20.1-14.5-2.4.8-3.2 3-2.8 5-3.3 3.2-6.4 7.6-8.1 12.3"/><path fill="#808285" d="M2299.8 661.2c.2-1.8 0-3.5-.5-4.9.1-.1.1-.2.2-.3 2.6-3.2 4.9-5.8 4.3-10.2-1.3-10.2-17.5-5.9-23.8-5.4-3.9.3-7.9 1.2-10.1 4.8-1.9 3.2-6 5.1-7 8.7-1.9 7 7.3 7.9 14.4 7.8 2.4 2.2 4.9 4.4 6.4 7.4.4.8 1.2 1.5 2.1 1.8.6 1 1.7 1.8 3.3 2.2 4.3 1.2 7.8-2.5 9.6-7.1"/><path fill="#414042" d="M2577.6 709.7c-.4-1.6-.7-3.3-1-4.9 1.2-3 .9-6.4-1.5-8.8-.6-4.5-1-9.1-1.3-13.7-.3-5.6-.9-10.7-5.5-14.3-3.3-2.6-7.7.4-7.4 3.5-1.2.6-2 1.8-1.8 3.6.8 7.8-4.5 32.4 7.5 35.4.9.2 1.8.3 2.6.2.1.4.2.8.3 1.3 1.4 5.2 9.3 3 8.1-2.3z"/><path fill="#010101" d="M2183 821.6c7.9 46.9 15.9 93.4 23.8 140.3.6 3.9 6.2 2.1 5.6-1.5-7.9-46.9-15.9-93.4-23.8-140.3-.6-3.8-6.2-2-5.6 1.5z"/><path fill="#010101" d="M2190.9 845.6c-39.4.3-78.4 1.5-117.8 1.8-19.7 0-39.4 0-59.3-.6-7.1-.3-24.4 1.8-27.9-4.7-4.7-8.9-10-17.5-14.4-26.4-1.8-3.3-6.8-.3-5 3 4.4 8.9 9.7 17.5 14.4 26.4 3.8 7.1 8.2 6.8 16.2 7.1 21.4 1.2 43.2 1.5 64.6 1.5 42.9 0 86.1-1.5 129-1.8 4-.3 4-6.3.2-6.3z"/><path fill="#010101" d="M1829.9 961.6c-1.2-14.2 4.4-29.7 14.7-39.7 12.3-11.9 29.4-18.7 44.1-26.7 32-16.9 63.7-34.1 95.5-51 3.2-1.8.3-6.8-2.9-5-34.4 18.1-68.7 36.8-103.1 54.9-14.7 7.7-31.1 15.1-42 28.2-8.5 10.4-13.2 25.8-12 39.1.1 4.1 6 4.1 5.7.2zM1970 819.2c-46.7 18.4-94.3 34.4-141.3 51.6-11.5 4.2-23.2 8.3-34.7 12.8-10.9 4.2-22 8-32 14.2-14.1 8.9-22.3 23.7-18.5 40.9.9 3.9 6.5 2.1 5.6-1.5-1.8-8 .3-16.6 4.1-23.7 5-8.9 17.9-14.2 26.7-17.8 21.2-8.3 42.3-16 63.7-23.7 42.6-15.4 85.8-30 128.1-46.6 3.3-1.7 1.8-7.6-1.7-6.2z"/><path fill="#808285" d="M2643.9 709.8c-10.9-9.6-21.8-19.6-26.1-33.6-.4-1.9-.9-3.7-1.4-5.6-.7-2.4-2.5-3.3-4.3-3-.6-.4-1.4-.7-2.4-.7-5.5.2-10.9.4-16.4.5-1.3-2.5-5.3-3-7.4-.2-.1.2-.2.3-.3.5l-7.5.3c-2.7.1-4.9 2.7-4.1 5.4l1.2 4.2c-.2.5-.4 1-.5 1.6a31 31 0 0 0 2.9 15.4c.5 2.8 1.1 5.5 1.6 8.3.2.8.5 1.5 1.1 2-2.1 4.1-2.2 8.5 2.9 11.5 5 2.9 11.9.8 17-.4 3.8-.8 9.1-3.5 14-4.8 8.4 4 17.8 6 26.8 5.8 3.4 0 5.8-4.7 2.9-7.2z"/><path fill="#010101" d="M2073.1 966.6c2.1-25.8 3.5-51.3 5.6-77.1.3-3.9-5.6-3.9-5.9 0-2.1 25.8-3.5 51.3-5.6 77.1-.3 3.9 5.6 3.9 5.9 0zM2336.9 444.4c7.1.6 13.8 1.5 20.9 2.1 4.7.6 6.2-5.9 2.6-8.6-8.2-6.2-16.5-12.5-24.7-18.4-2.9-2.4-5.9 3-2.9 5 5.6 4.2 11.2 8.6 17 12.8 1.5 1.2 2.9 2.4 4.7 3.6 3.5 2.7 0-.6 3.2-.3-.9 0-2.1-.3-2.9-.3l-17.6-1.8c-4.1-.7-4.1 5.3-.3 5.9zM2340.4 509.3c59-2.4 118.1 1.5 177.1 0 3.8 0 3.8-5.9 0-5.9-59 1.5-118.1-2.4-177.1 0-3.5 0-3.8 5.9 0 5.9zM2136 647.5c-1.2-18.4-2.3-36.8-3.5-55.5-.3-3.9-6.2-3.9-5.9 0 1.2 18.4 2.4 36.8 3.5 55.5.3 3.9 6.2 3.9 5.9 0zM2701.2 599.2c4.7.3 9.1.6 13.8.6 3.8.3 3.8-5.6 0-5.9-4.7-.3-9.1-.6-13.8-.6-3.9-.1-3.9 5.9 0 5.9zM2171.2 583.2c3.8.3 7.9.9 11.8.9 3.8.3 3.8-5.6 0-5.9-3.8-.3-7.9-.9-11.8-.9-3.5-.4-3.5 5.6 0 5.9zM2341.3 492.1c8.5-8.9 21.4-11.9 31.4-19.3 2.9-2.1 0-7.4-2.9-5-10.3 7.4-23.5 10.7-32.6 20.2-2.6 2.6 1.5 6.8 4.1 4.1zM2679.4 860.2c35.3-1.8 70.5-.9 105.8-2.4 3.8-.3 3.8-6.2 0-5.9-35.3 1.8-70.5.9-105.8 2.4-3.5-.1-3.5 5.9 0 5.9zM2799.3 894.3c10.3 24.6 13.2 54 13.5 80.4 0 3.9 5.9 3.9 5.9 0-.3-27.6-3.5-57.8-14.4-83.3-1.5-3.7-6.5-.4-5 2.9zM2855.1 818.1c13.5 0 26.7.9 39.7 3.6 3.5.6 9.4 1.2 12.3 3.6-.9-.9 1.5-2.7-.9-1.8-1.5.6-2.9.9-4.7 1.2-5.3 1.2-10.6 1.8-15.9 2.1-24.4 2.4-49.6 3.6-74.3 2.4-3.8-.3-3.8 5.6 0 5.9 28.5 1.5 58.2.3 86.4-3.9 4.1-.6 19.4-2.7 13.5-10.1-2.4-3.3-9.1-4.2-12.6-4.7-14.4-3.3-29.1-4.4-44.1-4.2-3.2-.1-3.2 5.9.6 5.9z"/><path fill="#010101" d="M2812.8 859.6c24.1-.3 48.2-.9 72.3-1.2 6.5 0 18.5 2.1 23.2-4.2 5.9-7.7 3.2-21.9 3.5-30.8 0-3.9-5.9-3.9-5.9 0 0 4.7-.3 9.5-.3 14.2 0 4.4 1.2 12.2-4.1 14.2-3.8 1.5-9.7.6-13.8.6-5.6 0-11.2.3-16.7.3-19.4.3-38.8.6-58.5 1.2-3.5-.3-3.5 5.7.3 5.7z"/><path fill="#010101" d="M3046 975.5c5-11.3 2.1-24.9-1.5-36.2-4.7-14.5-14.7-24-27.3-32-17-10.7-35.5-19-53.5-27.9-18.8-9.5-37.6-18.7-56.1-28.5-3.2-1.8-6.5 3.3-2.9 5 31.4 16.6 63.5 32 95.2 48.3 13.5 7.1 28.2 14.5 35.8 28.5 5.6 10.7 10.6 28.2 5.6 39.7-1.7 3.7 3.3 6.7 4.7 3.1zM3130 959.8c6.2-13.6-7.3-29.7-15.6-39.4-14.1-17.2-36.4-24.3-56.1-32.9-48.5-20.8-98.1-38.9-148.3-54.3-3.5-1.2-5.3 4.7-1.5 5.6 43.8 13.3 87.2 28.8 129.5 46.6 20.3 8.3 42.9 16 61.4 28.8 7.1 4.7 12.6 12.2 17.3 19 4.1 5.9 11.5 16.3 8.2 24-1.6 3.2 3.4 6.2 5.1 2.6zM2210 965.8c156.3-1.2 312.6.6 468.8 1.2 3.8 0 3.8-5.9 0-5.9-156.3-.3-312.6-2.1-468.8-1.2-3.8-.1-3.8 5.9 0 5.9zM2810.1 685.5c8.2 0 16.5-.6 25-.3 4.7 0 9.4.6 13.8 1.5 7.3 1.8 5.3 11.9 5.3 17.8-.3 35.6-.3 71.5-.6 107.1 0 3.9 5.9 3.9 5.9 0 0-20.2.3-40.6.3-60.8 0-9.8 0-19.3.3-29.1 0-10.1.9-20.5-.3-30.5-1.2-9.8-10-11-18.2-11.9-10.3-1.2-20.9-.3-31.4 0-3.9.2-3.9 6.2-.1 6.2zM2556 669.2c4.4 12.2-4.1 24.3 2.6 36.5 5.6 10.1 18.8 14.2 29.1 17.2 3.5 1.2 5.3-4.7 1.5-5.6-10-3-21.2-6.5-26.7-16.3-5.3-9.8 2.9-22.5-.9-33.2-1.2-4-6.7-2.5-5.6 1.4zM2608.9 668.3c7.6.3 8.5 11.6 10 16.6 1.2 4.7 5.3 8.9 8.8 12.2 4.7 4.2 11.2 7.7 13.5 13.9 1.8 4.4 2.4 11.9-.3 16-2.1 3.3 3.2 6.2 5 3 6.8-11.6.3-25.2-8.8-32.9-3.8-3.3-7.9-6.2-10.9-10.7-2.9-4.2-2.1-9.2-4.1-13.6-2.6-5.3-6.8-10.7-13.2-11-3.8.5-3.8 6.5 0 6.5z"/><path fill="#010101" d="M2569 668c5 15.1 7.3 30.8 7.1 46.6 0 3.9 5.9 3.9 5.9 0 .3-16.6-2.3-32.6-7.3-48.3-1-3.4-6.9-1.9-5.7 1.7zM2639.5 714.8c-17-5.3-34.7-5-51.4.9-3.5 1.2-2.1 7.1 1.5 5.6 15.9-5.6 32-5.9 48.2-.9 3.7 1.3 5.5-4.4 1.7-5.6z"/><path fill="#808285" d="M2283.2 678.8c-13-7.5-28.6-7.2-41.2 1-3.6 2.3-1.7 7.4 1.5 8 .5 1.5 1.7 2.6 3.8 2.4 11.2-1.1 22.5-2.3 33.7-3.4 4-.5 6.1-5.7 2.2-8z"/><path fill="#010101" d="M2397.1 482.3c24.4 0 48.8.3 73.1.3h17.6c5.3 0 11.5.9 16.7-.3 6.8-1.5 12.6-5.9 12-13.9-.3-3.9-6.2-3.9-5.9 0 .9 11.3-19.1 8.3-25.9 8.3h-29.4c-19.4 0-39.1-.3-58.5-.3-3.5 0-3.5 5.9.3 5.9zM2411.2 505.4c0-4.7.3-9.5.3-14.2-.6.9-1.5 1.8-2.1 3 3.2-.6 6.5-.9 10-1.5-1.2-.6-2.4-1.5-3.5-2.1.9 4.7 1.2 9.5 2.1 14.2.6 3.9 6.5 2.1 5.6-1.5-.9-4.7-1.2-9.5-2.1-14.2-.3-1.8-2.1-2.4-3.5-2.1-3.2.6-6.5.9-10 1.5-1.2.3-2.1 1.8-2.1 3 0 4.7-.3 9.5-.3 14.2-.3 3.6 5.6 3.6 5.6-.3zM2465.3 502.5c-3.8-3.9-1.2-10.4 4.4-9.8 4.1.6 5.3 7.1 4.1 10.4-1.2 3.6 4.4 5.3 5.6 1.5 1.2-3.9.6-8.3-1.2-11.9-1.8-3.9-5-5.9-9.4-6.2-10.6-.6-14.7 13-7.6 19.9 2.6 2.9 6.7-1.5 4.1-3.9z"/><path fill="#010101" d="M2500.2 480.2c-.3 8.6-.3 17.2-.6 26.1 0 3.9 5.9 3.9 5.9 0 .3-8.6.3-17.2.6-26.1.3-3.8-5.6-3.8-5.9 0zM2376 479.1c-1.8 8.9-3.2 17.5-3.2 26.4 0 3.9 5.9 3.9 5.9 0 0-8.3 1.5-16.6 2.9-24.9.5-3.9-5-5.4-5.6-1.5zM2583.9 719c-1.2 3.6-.6 8.9 2.1 11.9 2.3 3 6.5-1.2 4.1-4.2-.6-.9-.9-4.4-.3-6.2.9-3.6-4.7-5.1-5.9-1.5zM2635.1 719.9c5.3 2.7 12.3-.3 13.5-6.2.6-3.9-5-5.3-5.6-1.5-.3 2.1-2.9 3.9-5 2.7-3.5-1.8-6.5 3.2-2.9 5z"/><path fill="#010101" d="M2555.5 700.3c.9 17.8 14.1 31.1 31.7 32 3.8.3 3.8-5.6 0-5.9-14.4-.6-25.3-11.6-25.9-26.1 0-3.8-5.8-3.8-5.8 0zM2316 616.4c-.3 8.6-.9 17.2-1.2 25.8 0 3.9 5.9 3.9 5.9 0 .3-8.6.9-17.2 1.2-25.8.3-3.9-5.6-3.9-5.9 0zM2266.4 584.9c2.1 18.1 4.7 35.9 6.8 54 .6 3.9 6.5 3.9 5.9 0-2.1-18.1-4.7-35.9-6.8-54-.6-3.8-6.5-3.8-5.9 0z"/><path fill="#010101" d="M2269.6 641.3c17.9 3 35 4.4 53.2 3 3.8-.3 3.8-6.2 0-5.9-17.6 1.5-34.1.3-51.4-2.7-3.8-.6-5.3 5-1.8 5.6z"/><path fill="#010101" d="M2337.2 665.9c-1.2-9.5-9.1-15.1-12.6-23.4-1.5-3.6-6.8-.6-5 3 3.2 6.8 11.2 12.8 12 20.5 0 3.5 5.9 3.5 5.6-.1z"/><path fill="#010101" d="M2241.1 683.4c2.4-8.6 14.7-8 21.7-8.3 9.1-.6 17.3 7.7 24.7 11.9 6.8 3.6 14.7 5.3 22 6.5 7.6 1.2 17 1.5 23.8-3.3 7.9-5.9 6.5-16.9 3.8-25.2-1.2-3.6-6.8-2.1-5.6 1.5 3.2 10.4 2.6 20.2-9.7 21.4-8.2.9-17-1.2-25-3.9-10.9-3.6-20.3-14.8-32-15.1-10.3-.3-26.1.3-29.4 12.8-1 3.8 4.6 5.3 5.7 1.7z"/><path fill="#010101" d="M2267 640.7c.3 2.4-2.9 3.6-3.8 5.3-1.5 2.1-2.4 6.5-5 7.4-6.2 2.1-13.8.9-18.8 5.6-5 4.7-9.7 18.1-5.6 24.6 2.4 3.9 5.3 5.6 9.7 6.2 9.4.9 19.1.6 28.5 0 4.7-.3 9.4-.6 13.8-.9 5.3-.3 5.9 3.6 8.5 7.7 5 8.3 10.3 16.3 14.7 24.9 1.8 3.3 7.1.3 5-3-6.5-11.6-13.8-22.5-20.3-34.1-.6-.9-1.5-1.5-2.6-1.5-12.9.6-25.9 1.8-38.8 1.5-4.4 0-13.8.9-14.1-5.6-.3-4.4 1.8-9.5 3.5-13.3 4.1-8.6 17.9-2.4 22.9-9.8 2.1-3.3 3.5-6.2 6.5-9.2 2.4-2.4 2.4-4.4 1.8-7.7-.9-3.4-6.8-2-5.9 1.9zM2678.5 946.5c82.8 0 165.7 3.9 248.5 4.4 40.5.3 80.8-.3 121-2.7 16.7-.9 33.8-1.5 50.2-5.6 8.5-2.1 19.7-6.8 17.6-17.5-.6-3.9-6.5-2.1-5.6 1.5 2.1 11-27.9 12.8-34.4 13.3-18.5 1.8-37 2.7-55.5 3.3-37.6 1.5-75.5 1.8-113.1 1.2-76.1-.9-152.5-4.4-228.5-4.4-4 .5-4 6.5-.2 6.5zM2680 923.9c109.3-.9 218.6 1.8 327.5-2.1 23.8-.9 48.2-1.5 71.7-5.6 4.4-.9 10.6-1.8 14.1-5 3.5-3.6 0-7.7-3.2-9.5-3.2-1.8-6.2 3.3-2.9 5 1.2.6 1.8 1.2 2.1 1.5-.6-.9.6-1.5-.6-.9-3.2 2.1-7.6 2.7-11.5 3.3-16.5 3-33.5 3.6-50.2 4.4-54.1 2.7-108.4 2.7-162.7 3-61.4 0-122.5-.6-183.9 0-4.2.3-4.2 6.2-.4 5.9zM2679.4 896.6l210.9-3.6c32.3-.6 64.9-.3 97.2-1.8 7.3-.3 41.7-.6 35.8-15.7-1.5-3.6-7.1-2.1-5.6 1.5 3.2 8.6-47 8.6-52 8.9l-96.1 1.8c-63.5 1.2-126.9 2.1-190.4 3.3-3.6-.3-3.6 5.6.2 5.6zM2812.2 871.7l121.6-3.6c10.3-.3 20.9 0 31.1-3 6.8-1.8 10.3-7.4 3.2-11.9-3.2-2.1-6.2 3-2.9 5 1.8 1.2 1.8 0-.9.9-1.5.6-3.2.9-4.7 1.2-3.2.6-6.5 1.2-9.7 1.5-13.8 1.2-27.9.9-41.7 1.2l-96.1 2.7c-3.7.1-3.7 6 .1 6zM2678.5 871.1c35.3 0 70.5-.3 105.8-.3 3.8 0 3.8-5.9 0-5.9-35.3 0-70.5.3-105.8.3-3.8 0-3.8 5.9 0 5.9zM2634.8 977.6c93.4.3 187.1 2.1 280.5 1.5 46.1-.3 91.9-2.4 138.1-3.6 15-.3 30 .3 44.9-1.2 11.5-1.2 24.4-4.2 31.4-14.2 2.1-3.3-2.9-6.2-5-3-7.6 11-25.9 11.6-37.9 12.2-14.7.9-29.4 0-43.8.9-45.5 2.1-90.8 3-136.3 3.3-90.8.6-181.2-1.2-272-1.5-3.8-.3-3.8 5.6.1 5.6z"/><path fill="#010101" d="M2061.1 971.7c191.8.9 383.9 5.3 575.8 5.9 3.8 0 3.8-5.9 0-5.9-191.8-.9-383.9-5.3-575.8-5.9-3.9 0-3.9 5.9 0 5.9z"/><path fill="#010101" d="M1853.1 966.9c69.3 3.9 138.7 4.2 208.3 4.7 3.8 0 3.8-5.9 0-5.9-69.3-.9-138.9-.9-208.3-4.7-3.8-.3-3.8 5.6 0 5.9z"/><path fill="#010101" d="M1743.8 939.1c9.7 17.2 26.7 19.9 44.7 22.5 21.4 3.3 42.9 5 64.6 5.3 3.8 0 3.8-5.9 0-5.9-18.5 0-37-1.5-55.5-3.9-17.9-2.4-38.8-3.3-48.8-20.8-1.8-3.5-7-.5-5 2.8zM1797.6 883c-10.6 20.8 20.9 24.6 34.1 25.5 17 1.5 34.1.9 51.1 1.5 21.4.6 42.6.9 64 1.5 84.6 1.8 168.9 3.9 253.5 5.6 3.8 0 3.8-5.9 0-5.9-76.7-1.8-153.3-3.6-230.3-5.3l-113.7-2.7c-8.8-.3-63.5 1.5-53.8-17.5 1.8-3.3-3.2-6.3-4.9-2.7z"/><path fill="#010101" d="M1847.5 866.7c2.9 18.4 27.9 20.5 42.3 21.7 29.4 2.4 59 2.1 88.7 3 72.9 2.1 145.7 2.7 218.8 2.7 3.8 0 3.8-5.9 0-5.9-67 0-134.2-.6-201.2-2.1-30-.6-60.2-1.8-90.2-2.7-14.1-.3-49.1 1.5-52.3-17.8-.8-4.2-6.7-2.5-6.1 1.1zM1969.1 818.6c18.8-.3 37.9-.3 56.7-.6 3.8 0 3.8-5.9 0-5.9-18.8.3-37.9.3-56.7.6-3.8 0-3.8 5.9 0 5.9z"/><path fill="#FFF" d="M1823.7 934c126.3.3 252.6.3 378.9.6"/><path fill="#010101" d="M1823.7 937c126.3.3 252.6.3 378.9.6 3.8 0 3.8-5.9 0-5.9-126.3-.3-252.6-.3-378.9-.6-3.8-.3-3.8 5.6 0 5.9z"/><path fill="#010101" d="M1834.6 930.8c-17.6 0-35.3-.6-52.6-3-7.9-1.2-16.5-2.7-23.2-6.8-6.8-4.2-3.5-9.5.9-14.2 2.6-2.7-1.5-6.8-4.1-4.2-4.7 4.7-9.1 11.3-5.3 18.1 3.8 6.8 14.1 9.2 20.9 11 20.6 4.7 42.6 5 63.7 5 3.2 0 3.2-5.9-.3-5.9z"/><path fill="#F7923F" d="M2423 372.9c-.2-2.8-.3-5.6-.5-8.4-.3-4.5-7-6-8.2-1.4-.9-1.6-1.9-3.2-2.8-4.8-2.8-4.7-10.1-.4-7.3 4.3 2.8 4.8 5.6 9.6 8.4 14.3 1.6 2.7 6 2.7 7.4 0a3.5 3.5 0 0 0 3-4z"/><path fill="#010101" d="M2396.5 462.7c37-2.4 74.6-1.5 111.6 3 3.8.6 3.8-5.3 0-5.9-36.7-4.4-74.6-5.3-111.6-3-3.8.3-3.8 6.2 0 5.9zM2351 319.2c1.2 9.8 2.9 19.6 4.4 29.7.6 3.9 6.5 3.9 5.9 0-1.2-9.8-2.9-19.6-4.4-29.7-.3-3.6-6.2-3.6-5.9 0zM1889.5 851.3c-.9 7.7 5.9 12.8 12 15.7 10.6 5.3 23.2 5.6 35 5.3 28.2-.6 56.1-.3 84.3 0 57 .6 114.3 2.1 171.3.9 3.8 0 3.8-5.9 0-5.9-50.2.9-100.8 0-151-.6-25.3-.3-50.2-.6-75.5-.6-12.6 0-25 .3-37.6.3-7.6 0-34.1-2.7-32.6-15.1.6-3.9-5.6-3.9-5.9 0zM2604.8 619.9c0 15.1.3 30.3.3 45.4.9-.9 2.1-2.1 2.9-3-14.4-.9-28.8.6-42.9-.3.9.9 2.1 2.1 2.9 3-.9-7.1-2.9-13.9-3.8-21.1-.6-3.9-6.5-3.9-5.9 0 .9 7.1 2.9 13.9 3.8 21.1.3 1.8 1.2 3 2.9 3 14.4.9 28.8-.6 42.9.3 1.5 0 2.9-1.5 2.9-3 0-15.1-.3-30.3-.3-45.4.2-3.8-5.7-3.8-5.7 0z"/><path fill="#010101" stroke="#010101" stroke-width="1.31" stroke-miterlimit="10" d="M2361.9 115.4c.9 2.7 4.1 4.7 6.5 5.9 2.1.9 3.5 3 5.6 4.2 3.2 1.8 6.5-3.3 2.9-5-1.8-.9-3.2-2.7-4.7-3.6-.9-.6-2.1-.9-2.9-1.8-.3-.3-.9-.6-1.2-.9-.6-.6-.9-1.5-.6-.3-.9-3.8-6.8-2.3-5.6 1.5z"/><path fill="#FFF" stroke="#010101" stroke-width="6.55" stroke-miterlimit="10" d="M2415 820.7c.3 4.2-2.9 7.7-7.1 8-4.1.3-7.6-3-7.9-7.1l-32.3-563.8c-.3-4.2 2.9-7.7 7.1-8 4.1-.3 7.6 3 7.9 7.1l32.3 563.8zM2487 820.1c-.6 4.2-4.4 7.1-8.5 6.5-4.1-.6-7.1-4.4-6.5-8.6l76.1-559.7c.6-4.2 4.4-7.1 8.5-6.5 4.1.6 7.1 4.4 6.5 8.6L2487 820.1z"/><path fill="#BCBEC0" stroke="#010101" stroke-width="5.08" stroke-miterlimit="10" d="M2093.4 882.1c-.3 6.8-5.3 12.2-11.8 11.9-6.5-.3-11.5-5.6-11.2-12.5l9.7-406c.3-6.8 5.3-12.2 11.8-11.9 6.5.3 11.5 5.6 11.2 12.5l-9.7 406zM2809.8 883.9c0 6.5-5.3 11.6-11.5 11.6-6.5 0-11.5-5.3-11.5-11.6l1.8-385.9c0-6.5 5.3-11.6 11.5-11.6 6.5 0 11.5 5.3 11.5 11.6l-1.8 385.9z"/><path fill="#010101" d="M2785.8 679.2c-6.8 0-13.8-.3-20.6-.3-3.8 0-3.8 5.9 0 5.9 6.8 0 13.8.3 20.6.3 3.8.1 3.8-5.9 0-5.9zM2798.1 471.9c0 4.2.3 8.3.3 12.8 0 3.9 5.9 3.9 5.9 0 0-4.2-.3-8.3-.3-12.8-.3-3.8-6.2-3.8-5.9 0zM2261.1 562.4c7.9-1.5 15.9-3.3 24.1-4.7 6.2-1.2 10-.6 14.4 4.7 2.1 2.4 3.5 3.6 6.8 4.4 3.5.9 5.3-4.7 1.5-5.6-4.7-1.2-5-6.8-8.8-8.6-3.2-1.5-5.9-1.8-9.7-1.5-10 1.2-19.7 3.9-29.7 5.6-3.9.7-2.4 6.6 1.4 5.7zM2280.5 419.4c-.9 22.2 2.3 44.8 6.2 66.7 3.8 23.1 8.5 46.6 17.3 68.2 1.5 3.6 7.1 2.1 5.6-1.5-8.2-20.5-12.6-42.4-16.5-64.1-4.1-22.5-7.6-46.3-6.8-69.4.1-3.7-5.8-3.7-5.8.1zM2097.5 672.4c5.6 0 11.2.3 17 .3 3.8 0 3.8-5.9 0-5.9-5.6 0-11.2-.3-17-.3-3.8 0-3.8 5.9 0 5.9zM2248.5 689c4.1 6.5 7.9 13.3 12 19.9 2.6 4.4 5.6 11 10.3 13.3 5 2.7 10.3 2.4 15.9 2.4 8.2 0 16.5.3 24.7.3 3.8 0 3.8-5.9 0-5.9-5.6 0-10.9 0-16.5-.3-6.2 0-16.7 1.8-22-2.4-3.8-3-6.2-8.9-8.8-13-3.5-5.6-7.1-11.6-10.6-17.2-2.1-3.6-7.1-.3-5 2.9z"/><path fill="#F7923F" d="M2407.2 256.1c-.3-.9-.6-1.7-.8-2.6-.4-1.1-1.1-2-2-2.5.8-2.5-.5-5.7-3.9-5.7-4.5 0-5.3 5.9-2.2 7.9-.3.8-.4 1.7-.1 2.6.3.9.6 1.7.8 2.6.7 2.2 2.9 3.6 5.2 3 2.2-.7 3.7-3.1 3-5.3z"/><path fill="#010101" d="M2561 669.8c7.1-.3 13.8-.9 20.9-1.2 3.8 0 3.8-5.9 0-5.9-7.1.3-14.1.9-20.9 1.2-3.5.2-3.5 6.2 0 5.9z"/><path fill="none" d="M2547.5 196.7c14.7 8.9 28.8 22.5 41.1 34.4 6.8 6.2 13.2 13.3 15.3 22.2 2.9 12.2-4.1 25.8-15.6 30.5-8.2 3.3-14.7.6-22.9-.3-4.1-.3-7.3.3-11.5-1.5-3.5-1.5-7.1-3.6-10.3-5.6-4.7-3-9.4-6.2-12.6-11-10-14.2-.3-33.5 12.9-41.5 6.8-4.2 15.6-5.3 22.3-1.5 5 3 8.2 8.3 9.7 13.6 1.5 5.3 1.8 11.3 2.1 17.2.3 5.9.3 11.6-1.5 17.2s-5.9 10.7-11.2 12.2"/><path fill="#FFEBCC" d="M2561.7 275.6c-7.3-2-15-4.2-15.1-13.2 0-4.8 2.2-9.8.8-14.6-1-3.5-2.9-6.4-5.4-8.2-.7-3-4.4-5.1-6.9-2.2-.1.1-.2.3-.3.4l-2 .3c-1.9.5-2.9 2.2-3.1 4.1-.2 3.1.3 5.3 2 7.9a4.4 4.4 0 0 0 7.3.1c.6 4.2-.7 10.4-.9 12.1-.3 3 .3 7 2 9.5 4.6 7.1 11.5 9.8 19.4 11.9 5.2 1.5 7.4-6.7 2.2-8.1z"/><path fill="#FFEBCC" stroke="#000" stroke-width="5.08" stroke-linecap="round" stroke-miterlimit="10" d="M2279.9 147.7c1.2 7.4 2.1 14.5 3.2 21.9 0 .6.3 1.2.6 1.5.3.3.9.3 1.5 0 2.6-.6 5.6-.9 7.9-2.1 2.6-1.2 4.7-3.3 5.6-5.9.3-1.2.6-2.1 0-3.3-.6-.9-1.8-1.8-2.6-1.2"/><path fill="#FFEBCC" d="M2583.1 227.3c-.7-.7-1.5-1-2.3-1.2-2-2.2-4.2-4.2-6.7-6.1-1.2-.9-2.4-.9-3.5-.4-2.2-4.5-4.7-8.8-7.7-13-2.6-3.7-9.2-1.6-7.7 3.3.7 2.3 1.4 4.7 2.2 7-2.3-2.8-4.2-4.9-5.3-5.9-4-3.7-10 2.3-6 6 3.3 3.1 6.2 6.4 8.8 10-1.5 3.8-2.1 7.8-1.5 11.9-9.4 3.3-17.2 9.7-15.8 21.3.7 5.5 4.1 9.1 8.7 11.3 1.4 4 3.8 7.7 7 10.8 3.6 3.5 8.5-.9 6.6-5.2 0-.1-.1-.2-.1-.3.2.1.3.2.5.3 2.1 6.3 6 10.3 13.6 7.1.1-.1.2-.1.3-.2.3.1.6.1.9.1 13 1.1 24.7-7.1 26.7-20.2 2.4-14.9-8.9-27-18.7-36.6zm-30 33.7c0-.7.1-1.4.2-2.1l.6 2.1c0 .2 0 .3-.1.5-.3-.1-.5-.3-.7-.5z"/><path fill="#010101" d="M2277.3 145.7c.9 2.7-1.8 4.7-4.4 3.3-3.2-2.1-6.2 3.3-2.9 5 6.8 4.2 15.3-2.4 12.9-10.1-1.2-3.6-6.8-2.1-5.6 1.8zM2314 185.1c.9-.9 1.8-1.5 2.9-1.8 3.5-.9 2.1-6.8-1.5-5.6-2.1.6-4.1 1.8-5.6 3.3-2.6 2.6 1.5 6.8 4.2 4.1zM2269.9 676.6c20.9 5 52.3 17.5 67.9-4.2 2.4-3-2.9-5.9-5-3-13.5 18.4-43.8 5.6-61.4 1.5-3.5-.8-5.3 4.8-1.5 5.7z"/><path fill="#010101" d="M2237.9 670.4c9.4-11 22.3-11 34.7-5s24.4 13 36.4 19.6c3.2 1.8 6.2-3.3 2.9-5-14.4-7.7-28.8-17.2-44.1-22.8-12-4.4-25.6 0-34.1 9.5-2.5 2.5 1.6 6.6 4.2 3.7zM2546.1 199.4c10 6.2 18.8 13.9 27.6 21.7 8.5 7.7 18.2 15.7 24.4 25.5 6.8 10.4 3.8 23.1-5 31.1-5.6 5-12.6 5.3-19.7 4.2-5.3-.9-10.9-.9-16.2-1.8-5.6-.9-11.5-5.6-15.9-8.9-5.9-4.2-10.6-9.5-11.2-16.9-1.2-11 6.8-21.9 15.3-27.6 5.9-3.9 13.2-4.4 19.4-1.5 6.2 3 8.2 10.7 9.4 16.9 2.1 11.6 3.8 33.2-9.7 38-3.5 1.2-2.1 7.1 1.5 5.6 15.9-5.6 15.3-23.1 14.7-37.1-.6-12.8-5.6-29.4-20.6-31.1-14.1-1.8-25.9 8-32.3 19.9-6.8 12.5-4.4 26.4 5.9 35.6 5.3 4.7 12.6 10.1 19.4 12.2 7.3 2.4 15.9 2.4 23.8 3.3 13.8 1.8 25-8.3 29.4-20.8 5-14.5-4.1-27.6-13.8-37.1-13.5-13.3-27.6-26.4-43.5-36.5-3.2-2.1-6.2 3.2-2.9 5.3zM2307.8 719c7.9 0 15.9.3 24.1.3-.9-.6-1.8-1.5-2.9-2.1v.6c-3.8.3-3.8 6.2 0 5.9 4.1-.3 7.1-3.9 5.6-8-.3-1.2-1.5-2.1-2.9-2.1-7.9 0-15.9-.3-24.1-.3-3.3-.2-3.3 5.7.2 5.7zM2245.3 718.4h24.4c3.8 0 3.8-5.9 0-5.9h-24.4c-3.9 0-3.9 5.9 0 5.9z"/><path fill="#010101" d="M2226.2 730.9c7.1-4.2 13.8-8.3 20.9-12.2 3.2-1.8.3-7.1-2.9-5-7.1 4.2-13.8 8.3-20.9 12.2-3.3 1.7-.4 6.7 2.9 5zM2547.2 725.2c7.1-.3 14.4-.3 21.4-.6 3.8 0 3.8-5.9 0-5.9-7.1.3-14.4.3-21.4.6-3.5 0-3.5 5.9 0 5.9zM2298.7 673.3c3.8-9.8 7.6-19.9 11.5-29.7 1.5-3.6-4.4-5-5.6-1.5-3.8 9.8-7.6 19.9-11.5 29.7-1.4 3.3 4.4 5.1 5.6 1.5zM2436.8 659.7c-1.5 54 .6 108.3 6.2 161.9.3 3.9 6.2 3.9 5.9 0-5.6-53.7-7.9-108-6.2-161.9.2-3.6-5.6-3.6-5.9 0z"/><path fill="#010101" d="M2428.8 649.9c-2.6 1.2-4.1 3.3-4.7 6.2-.3 1.2 0 2.7 1.5 3.3 7.9 3.9 27.6 7.1 31.1-4.4 1.5-4.4-4.1-7.4-7.6-8-6.8-1.5-13.8.6-19.7 3.9-3.2 1.8-.3 7.1 2.9 5 2.4-1.5 5-2.4 7.6-3 1.5-.3 2.9-.6 4.7-.6.3 0 7.3.9 5 2.4-5.9 3.9-15.6 2.1-21.4-.6.6 1.2.9 2.4 1.5 3.3.6-.9 1.2-1.8 2.1-2.7 3.5-1.3.6-6.3-3-4.8zM2407.7 638.3c27.3-16 59.9-16.3 87.5-.9 3.2 1.8 6.2-3.3 2.9-5-29.4-16.6-64.3-16.3-93.4.9-3.2 1.8-.2 7.1 3 5zM2405.1 615.8c31.4-5.6 63.2-6.8 94.9-3.6 3.8.3 3.8-5.6 0-5.9-32.3-3.3-64.6-2.1-96.4 3.9-3.8.5-2.1 6.2 1.5 5.6zM2460.3 411.7c7.6 1.8 14.7 0 21.7-3.3 10-4.4 19.4-10.7 28.8-16 3.2-1.8.3-7.1-2.9-5-6.5 3.6-12.9 7.4-19.7 11-8.2 4.4-16.7 9.8-26.4 7.7-3.6-.9-5.3 4.7-1.5 5.6zM2537.5 519.4c-2.4-13 5.9-24.9 12.3-35.3 6.8-10.7 14.7-20.8 23.2-30.3 2.6-3-1.5-7.1-4.1-4.2-9.4 10.4-17.9 21.7-25.6 33.8-7.1 11.3-14.1 23.7-11.5 37.7.7 3.6 6.3 2.1 5.7-1.7zM2348.7 371.4c9.7 0 18.8-3 26.4-8.9 2.9-2.4 0-7.4-2.9-5-7.1 5.3-14.7 8-23.5 8-3.9 0-3.9 5.9 0 5.9zM2413.3 379.4c17.9 19.9 47.3 21.4 67.3 3.9 2.9-2.4-1.2-6.8-4.1-4.2-17.6 15.4-43.2 13.6-58.8-3.9-3-2.9-7.1 1.5-4.4 4.2zM2440.6 333.4c10.9-5.9 21.4-11.9 32.3-17.8 5.9-3.3 11.8-6.5 17.3-9.8 2.9-1.5 7.1-3.9 8.5-6.8 2.9-5.9 1.8-13-5.3-14.5-9.1-2.1-12.6 10.1-19.4 12.8-3.5 1.5-2.1 7.1 1.5 5.6 4.1-1.8 6.8-4.4 9.7-8 .6-1.1 1.6-2 2.5-2.7.7-.6 1.6-1 2.5-1.3 8.7-2.3 4 5.9.4 7.8-3.2 2.4-7.3 4.2-10.9 6.2-14.1 7.7-28.2 15.7-42.3 23.4-3 1.6 0 6.9 3.2 5.1zM2445.6 190.2c3.8-4.2 7.3-8.9 6.5-14.8a8.9 8.9 0 0 0-10.9-7.7c-4.7.9-5.9 7.4-5.6 11.3.3 4.7 3.2 9.2 7.3 11.6 3.2 1.8 6.2-3.3 2.9-5-3.8-2.1-5.6-7.1-3.8-11.3.6-1.2 1.5-.9 2.4-.6 1.5.6 1.8 2.4 1.8 3.6 0 3.3-2.9 6.2-5 8.6-2.4 2.8 1.7 7.2 4.4 4.3zM2339.8 216.9c6.8 5.9 17 1.8 17.6-7.4.3-3.9-5.6-3.9-5.9 0-.3 3.9-4.7 5.9-7.6 3.3-2.9-2.5-7 1.7-4.1 4.1zM2549.9 377.6c5.9 1.8 11.5-1.5 13.5-6.8 2.4-5.6-2.1-11.6-7.1-13.6-3.5-1.2-5 4.4-1.5 5.6 5.9 2.1 2.6 11-3.2 8.9-3.8-.9-5.5 5-1.7 5.9zM2287.3 721.7c-7.1-7.4-10-16.9-9.1-27-1.5.9-2.9 1.8-4.4 2.7 5 2.4 8.5 7.1 12 11.3 4.7 5 9.1 10.1 13.8 15.4 2.6 3 6.8-1.5 4.1-4.2-4.7-5-9.1-10.1-13.8-15.4-4.1-4.4-7.6-9.5-13.2-12.2-2.1-.9-4.1.3-4.4 2.7-1.2 11.6 2.9 22.5 10.9 31.1 2.3 2.7 6.4-1.8 4.1-4.4zM2490.5 195.5c-4.4-13.6 2.3-27 16.2-30.8 3.5-.9 2.1-6.8-1.5-5.6-16.7 4.7-25.6 21.7-20.3 38.3 1.2 3.5 6.8 1.7 5.6-1.9zM2497.3 205.6c1.8-5 3.8-10.4 5.6-15.4 1.5-3.6-4.4-5-5.6-1.5-1.8 5-3.8 10.4-5.6 15.4-1.5 3.3 4.4 5.1 5.6 1.5z"/><path fill="#FFF" stroke="#010101" stroke-width=".43" stroke-miterlimit="10" d="M2656.5 932.2h-209.7c-2.6 0-5-2.4-5-5v-29.4c0-2.7 2.1-4.7 4.4-4.4H2657.2c2.6-.6 4.4 1.8 4.4 4.4v29.4c-.1 2.7-2.5 5-5.1 5z"/><g fill="#010101"><path d="M2451.8 899.3h13.5v5.3h-5.6v5h5v5h-5v5.9h5.9v5.3h-14.1v-26.7h.3zM2486.4 899.3v27h-7.1l-4.1-12.5v12.5h-6.8v-27h6.8l4.7 12.2v-12.2h6.5zM2508.5 909.4h-8.2V907c0-1.5 0-2.7-.3-3-.3-.3-.6-.6-1.2-.6s-.9.3-.9.6c-.3.3-.3 1.2-.3 2.7v13c0 1.2 0 2.1.3 2.4.3.3.6.6 1.2.6s.9-.3 1.2-.6c.3-.3.3-1.2.3-2.7v-3.3h-1.8v-4.2h9.4v14.5h-5l-.9-2.1c-.6.9-1.2 1.5-2.1 1.8-.9.3-1.8.6-2.9.6-1.5 0-2.6-.3-3.8-.9-1.2-.6-2.1-1.2-2.6-2.1-.6-.9-.9-1.8-1.2-2.7s-.3-2.4-.3-4.2v-8c0-2.7.3-4.4.6-5.6.3-1.2 1.2-2.4 2.6-3.3 1.5-.9 3.5-1.5 5.9-1.5 2.4 0 4.4.3 5.9 1.2s2.6 1.8 2.9 3 .6 3 .6 5v1.5h.6zM2519.6 899.3v27h-8.2v-27h8.2zM2541.1 899.3v27h-7.1l-4.4-12.2v12.5h-6.8v-27.3h6.8l4.7 12.2v-12.2h6.8zM2544.3 899.3h13.5v5.3h-5.6v5h5v5h-5v5.9h5.9v5.3h-13.8v-26.5zM2560.7 899.3h13.5v5.3h-5.6v5h5v5h-5v5.9h5.9v5.3h-14.1v-26.7h.3zM2577.2 899.3h5.9c3.8 0 6.5 0 7.9.3 1.5.3 2.4.9 3.2 2.1.9 1.2 1.2 2.7 1.2 5 0 2.1-.3 3.6-.9 4.2-.6.6-1.8 1.2-3.5 1.2 1.5.3 2.6.9 3.2 1.5.6.6.9 1.2 1.2 1.5 0 .6.3 1.8.3 4.2v7.1h-7.6v-8.9c0-1.5 0-2.4-.3-2.7-.3-.3-.9-.6-2.1-.6v12.2h-8.2v-27h-.3zm8.2 4.8v5.9c.9 0 1.5 0 2.1-.3.3-.3.6-.9.6-2.1v-1.5c0-.9-.3-1.5-.6-1.8-.3-.2-1.2-.2-2.1-.2zM2606.9 899.3v27h-8.2v-27h8.2zM2628.3 899.3v27h-7.1l-4.1-12.5v12.5h-6.8v-27h6.8l4.7 12.2v-12.2h6.5zM2650.3 909.4h-8.2V907c0-1.5 0-2.7-.3-3-.3-.3-.6-.6-1.2-.6s-.9.3-.9.6c-.3.3-.3 1.2-.3 2.7v13c0 1.2 0 2.1.3 2.4.3.3.6.6 1.2.6s.9-.3 1.2-.6c.3-.3.3-1.2.3-2.7v-3.3h-1.8v-4.2h9.4v14.5h-5l-.9-2.1c-.6.9-1.2 1.5-2.1 1.8-.9.3-1.8.6-2.9.6-1.5 0-2.6-.3-3.8-.9-1.2-.6-2.1-1.2-2.6-2.1-.6-.9-.9-1.8-1.2-2.7s-.3-2.4-.3-4.2v-8c0-2.7.3-4.4.6-5.6s1.2-2.4 2.6-3.3c1.5-.9 3.5-1.5 5.9-1.5 2.4 0 4.4.3 5.9 1.2s2.6 1.8 2.9 3c.3 1.2.6 3 .6 5v1.5h.6z"/></g><g fill="#010101"><path d="M2228.8 894.6h11.2c2.9 0 5.3.3 6.8.6s2.9.9 3.5 1.8c.9.9 1.5 1.8 1.8 2.7.3 1.2.3 2.7.3 5v3.3c0 2.4-.3 4.2-.9 5-.6 1.2-1.5 1.8-2.9 2.4-1.5.6-3.5.9-5.9.9h-2.9v14.8h-10.9l-.1-36.5zm10.9 6.2v9.2h.9c.9 0 1.8-.3 2.1-.6.3-.3.6-1.2.6-2.7v-3c0-1.2-.3-2.1-.6-2.4-.7-.5-1.6-.5-3-.5zM2255.5 894.6h7.6c5.3 0 8.8.3 10.6.6 1.8.3 3.2 1.2 4.4 2.7 1.2 1.5 1.8 3.6 1.8 6.8 0 3-.3 4.7-1.2 5.6-.9.9-2.4 1.5-4.7 1.8 2.1.6 3.5 1.2 4.4 1.8.9.9 1.2 1.5 1.5 2.1.3.6.3 2.4.3 5.3v9.5h-10.3v-12.2c0-2.1-.3-3.3-.6-3.6-.3-.6-1.2-.6-2.9-.6v16.3h-10.9v-36.1zm11.2 6.2v8c1.2 0 2.1 0 2.6-.3.6-.3.9-1.2.9-3v-2.1c0-1.2-.3-1.8-.6-2.4-.8-.2-1.7-.2-2.9-.2zM2309.3 915.9c0 3.6 0 6.2-.3 7.7s-.9 3-1.8 4.2c-1.2 1.2-2.4 2.4-4.1 3s-3.8.9-6.2.9c-2.3 0-4.4-.3-6.2-.9-1.8-.6-3.2-1.5-4.4-3a8 8 0 0 1-2.1-4.2c-.3-1.5-.3-4.2-.3-8v-6.2c0-3.6 0-6.2.3-7.7s.9-3 1.8-4.2c1.2-1.2 2.3-2.4 4.1-3 1.8-.6 3.8-.9 6.2-.9s4.4.3 6.2.9c1.8.6 3.2 1.5 4.4 3a8 8 0 0 1 2.1 4.2c.3 1.5.3 4.2.3 8v6.2zm-10.9-12.1c0-1.8 0-2.7-.3-3.3-.3-.6-.6-.6-1.5-.6-.6 0-.9.3-1.2.6-.3.3-.6 1.5-.6 3.3v16.9c0 2.1 0 3.6.3 3.9.3.6.6.9 1.5.9s1.2-.3 1.5-.9c.3-.6.3-2.1.3-4.2v-16.6zM2313.4 894.6h18.5v7.4h-7.6v6.8h6.8v6.8h-6.8V931h-10.9v-36.4zM2356.9 894.6v7.4h-6.5v29.1h-10.9V902h-6.8v-7.4h24.2zM2359.2 894.6h18.2v7.4h-7.3v6.8h6.8v6.8h-6.8v8h7.9v7.4h-18.8v-36.4zM2407.1 910.3h-10.9v-6.2c0-1.8 0-3-.3-3.6s-.9-.6-1.5-.6c-.9 0-1.5.3-1.8.9-.3.6-.3 1.8-.3 3.6v16.9c0 1.8 0 3 .3 3.6.3.6.9.9 1.8.9s1.5-.3 1.5-.9c.3-.6.3-1.8.3-3.9v-4.4h10.9v1.5c0 3.9-.3 6.5-.9 8-.6 1.5-2.1 3-4.1 4.2-2.1 1.2-4.7 1.8-7.9 1.8s-5.9-.6-7.9-1.5c-2.1-.9-3.5-2.4-4.1-4.2-.6-1.8-.9-4.4-.9-8v-10.7c0-2.7 0-4.7.3-5.9.3-1.2.9-2.7 1.8-3.9 1.2-1.2 2.4-2.1 4.4-3a18.98 18.98 0 0 1 14.1.3c2.1 1.2 3.5 2.4 4.1 4.2.6 1.5.9 4.2.9 7.4v3.6h.2zM2436.2 894.6v36.5h-10.9v-15.4h-3.2v15.4h-10.9v-36.5h10.9v13h3.2v-13h10.9z"/></g><g stroke="#010101" stroke-width=".26" stroke-miterlimit="10"><path fill="#010101" d="M2767 772.7h-6.8c-.3-1.5-.6-3-1.2-4.7-.6-1.8-1.5-3.9-2.6-5.3l4.4-4.4v-.6l-8.5-8.6h-.6l-4.4 4.4c-1.8-1.2-3.5-1.8-5.3-2.7a24 24 0 0 0-4.4-1.2v-6.8c0-.3-.3-.3-.3-.3h-12c-.3 0-.3.3-.3.3v6.8c-3.5.9-6.8 2.1-9.7 4.2l-5-4.7h-.6l-8.2 8.9v.6l5 4.7c-1.8 3-3.2 6.2-3.8 9.5h-7.3c-.3 0-.3.3-.3.3v12.2c0 .3.3.3.3.3h7.3c.3 1.5.6 2.7 1.2 4.2.6 2.1 1.8 3.9 2.6 5.6l-5 5s-.3.3 0 .6l8.5 8.9s.3.3.6 0l5.3-5c1.5.9 3.2 1.8 5 2.4 1.5.6 2.9.9 4.4 1.2v7.1c0 .3.3.3.3.3h12c.3 0 .3-.3.3-.3v-7.1c3.2-.9 6.5-2.1 9.4-3.9l4.7 5h.6l8.5-8.6v-.6l-4.7-4.7c1.8-3 3.2-6.2 4.1-9.5h6.8c.3 0 .3-.3.3-.3v-12.2c-.4-.7-.6-1-.6-1z"/><ellipse fill="#FFF" cx="2731.1" cy="778.9" rx="18.2" ry="18.4"/><ellipse fill="#010101" cx="2731.1" cy="778.9" rx="9.1" ry="9.2"/></g><path fill="#FFF" stroke="#010101" stroke-width=".14" stroke-miterlimit="10" d="M2462.3 313.3l-65.5 17.8c-.9.3-1.8-.3-2.1-1.2l-2.3-9.2c-.3-.9.3-1.8 1.2-1.8h.6l64.6-17.5c.3 0 .3 0 .6-.3.9-.3 1.5 0 1.8.9l2.4 9.2c.2.9-.4 1.8-1.3 2.1z"/><g fill="#010101"><path d="M2395.9 320.1l4.1-1.2.6 1.8-1.8.6.3 1.5 1.5-.3.3 1.5-1.5.3.6 1.8 1.8-.6.6 1.8-4.4 1.2-2.1-8.4zM2406.8 317.4l2.4 8.3-2.4.6-2.4-3.6.9 3.9-2.1.6-2.3-8.3 2.1-.6 2.4 3.6-.9-3.9 2.3-.6zM2414.5 318.6l-2.6.6-.3-.9c0-.6-.3-.9-.3-.9h-.3c-.3 0-.3 0-.3.3v.9l1.2 4.2c0 .3.3.6.3.6h.3c.3 0 .3-.3.3-.3v-.9l-.3-.9h-.6l-.3-1.2 2.9-.9 1.2 4.4-1.5.3-.3-.6c0 .3-.3.6-.6.9s-.6.3-.9.6h-1.2c-.3 0-.9-.3-.9-.3l-.6-.6c0-.3-.3-.6-.3-1.2l-.6-2.4c-.3-.9-.3-1.5-.3-1.8 0-.3.3-.9.6-1.2.3-.3.9-.9 1.8-.9.9-.3 1.5-.3 2.1 0 .6 0 .9.3 1.2.6s.6.9.6 1.5l-.3.1zM2417.1 314.4l2.4 8.3-2.6.6-2.4-8.3 2.6-.6zM2423.9 312.7l2.4 8.3-2.4.6-2.3-3.6.9 3.9-2.1.6-2.4-8.3 2.1-.6 2.4 3.6-.9-3.9 2.3-.6zM2424.7 312.4l4.1-1.2.6 1.8-1.8.6.3 1.5 1.5-.3.3 1.5-1.5.3.6 1.8 1.8-.6.6 1.8-4.4 1.2-2.1-8.4zM2430 310.9l4.1-1.2.6 1.8-1.8.6.3 1.5 1.5-.3.3 1.5-1.5.3.6 1.8 1.8-.6.6 1.8-4.4 1.2-2.1-8.4zM2435 309.7l1.8-.6c1.2-.3 2.1-.6 2.3-.6.6 0 .9 0 1.2.3.3.3.6.9.9 1.5s.3 1.2 0 1.5c0 .3-.6.6-.9.6.6 0 .9 0 1.2.3.3 0 .3.3.6.3 0 0 .3.6.3 1.2l.6 2.4-2.4.6-.9-2.7c0-.6-.3-.6-.3-.9h-.6l.9 3.9-2.6.6-2.1-8.4zm3 .6l.6 1.8c.3 0 .6-.3.6-.3v-1.2c0-.3-.3-.3-.3-.6-.4.3-.7.3-.9.3zM2444.1 307l2.4 8.3-2.6.6-2.4-8.3 2.6-.6zM2450.9 305.3l2.3 8.3-2.3.6-2.4-3.6.9 3.9-2.1.6-2.4-8.3 2.1-.6 2.4 3.6-.9-3.9 2.4-.6zM2458.5 306.7l-2.6.6-.3-.9c0-.6-.3-.9-.3-.9h-.3c-.3 0-.3 0-.3.3v.9l1.2 4.2c0 .3.3.6.3.6h.3c.3 0 .3-.3.3-.3v-.9l-.3-.9h-.6l-.3-1.2 2.9-.9 1.2 4.4-1.5.3-.3-.6c0 .3-.3.6-.6.9s-.6.3-.9.6h-1.2c-.3 0-.9-.3-.9-.3l-.6-.6c0-.3-.3-.6-.3-1.2l-.6-2.4c-.3-.9-.3-1.5-.3-1.8 0-.3.3-.9.6-1.2.3-.3.9-.9 1.8-.9.9-.3 1.5-.3 2.1 0 .6 0 .9.3 1.2.6s.6.9.6 1.5l-.3.1z"/></g><g fill="#010101"><path d="M2390.1 305.8l3.5-.9c.9-.3 1.8-.3 2.1-.3s.9 0 1.2.3c.3.3.6.3.9.6.3.3.3.9.6 1.5l.3.9c.3.6.3 1.2.3 1.8 0 .3-.3.6-.9.9-.3.3-.9.6-1.8.9l-.9.3 1.2 4.4-3.5.9-3-11.3zm3.8.9l.9 3h.3c.3 0 .6-.3.6-.3v-.9l-.3-.9c0-.3-.3-.6-.3-.6-.3-.3-.6-.3-1.2-.3zM2398.3 303.5l2.4-.6c1.5-.3 2.6-.6 3.2-.6.6 0 1.2 0 1.5.6.6.3.9.9 1.2 2.1.3.9.3 1.5 0 1.8-.3.3-.6.6-1.5.9.6 0 1.2 0 1.5.3.3.3.6.3.6.6s.3.9.6 1.8l.9 3-3.2.9-.9-3.9c-.3-.6-.3-.9-.6-1.2h-.9l1.5 5-3.5.9-2.8-11.6zm4.1 1.2l.6 2.7c.3 0 .6-.3.9-.3v-.9l-.3-.6c0-.3-.3-.6-.3-.6-.3-.6-.6-.6-.9-.3zM2417.1 305.5c.3 1.2.6 2.1.6 2.4 0 .6 0 .9-.3 1.5s-.6.9-1.2 1.2l-1.8.9c-.6.3-1.5.3-2.1.3-.6 0-1.2-.3-1.5-.6-.6-.3-.9-.6-.9-1.2-.3-.6-.3-1.2-.9-2.4l-.6-2.1c-.3-1.2-.6-2.1-.6-2.4 0-.6 0-.9.3-1.5s.6-.9 1.2-1.2l1.8-.9c.6-.3 1.5-.3 2.1-.3.6 0 1.2.3 1.5.6.6.3.9.6.9 1.2.3.6.3 1.2.9 2.4l.6 2.1zm-4.7-2.6c0-.6-.3-.9-.3-.9s-.3-.3-.6 0c-.3 0-.3 0-.3.3v1.2l1.5 5.3c.3.6.3 1.2.3 1.2s.3.3.6 0c.3 0 .3-.3.3-.3 0-.3 0-.6-.3-1.2l-1.2-5.6zM2416.5 298.7l5.9-1.5.6 2.4-2.4.6.6 2.1 2.1-.6.6 2.1-2.1.6 1.2 4.7-3.5.9-3-11.3z"/><path d="M2430 294.9l.6 2.4-2.1.6 2.3 9.2-3.5.9-2.4-9.2-2.1.6-.6-2.4 7.8-2.1zM2430.6 294.9l5.6-1.5.6 2.4-2.4.6.6 2.1 2.1-.6.6 2.1-2.1.6.6 2.4 2.6-.6.6 2.4-5.9 1.5-2.9-11.4zM2447.1 295.8l-3.5.9-.6-2.1c-.3-.6-.3-.9-.3-1.2 0 0-.3-.3-.6 0-.3 0-.3.3-.6.3 0 .3 0 .6.3 1.2l1.5 5.3c0 .6.3.9.3 1.2 0 0 .3.3.6 0 .3 0 .3-.3.3-.3 0-.3 0-.6-.3-1.2l-.3-1.5 3.5-.9v.3c.3 1.2.3 2.1.3 2.7s-.3 1.2-.9 1.8c-.6.6-1.2.9-2.4 1.2-.9.3-1.8.3-2.6.3-.6 0-1.2-.6-1.8-.9-.3-.6-.6-1.2-.9-2.4l-.9-3.3c-.3-.9-.3-1.5-.3-1.8 0-.3 0-.9.3-1.5s.6-.9 1.2-1.2l1.8-.9c.9-.3 1.8-.3 2.6-.3.9.3 1.2.6 1.8.9.3.6.6 1.2.9 2.4l.6 1zM2454.7 288.3l2.9 11.3-3.5.9-1.2-4.7-.9.3 1.2 4.7-3.5.9-2.9-11.3 3.5-.9 1.2 4.2.9-.3-1.2-4.2 3.5-.9z"/></g><g stroke="#010101" stroke-width=".26" stroke-miterlimit="10"><path fill="#010101" d="M2193 763.2h-6.8c-.3-1.5-.6-3-1.2-4.7-.6-1.8-1.5-3.9-2.6-5.3l4.4-4.4v-.6l-8.5-8.6h-.6l-4.4 4.4c-1.8-1.2-3.5-1.8-5.3-2.7a24 24 0 0 0-4.4-1.2v-6.8c0-.3-.3-.3-.3-.3h-12c-.3 0-.3.3-.3.3v6.8c-3.5.9-6.8 2.1-9.7 4.2l-5-4.7h-.6l-8.2 8.9v.6l5 4.7c-1.8 3-3.2 6.2-3.8 9.5h-7.3c-.3 0-.3.3-.3.3v12.2c0 .3.3.3.3.3h7.3c.3 1.5.6 2.7 1.2 4.2.6 2.1 1.8 3.9 2.6 5.6l-5 5s-.3.3 0 .6l8.5 8.9s.3.3.6 0l5.3-5c1.5.9 3.2 1.8 5 2.4 1.5.6 2.9.9 4.4 1.2v7.1c0 .3.3.3.3.3h12c.3 0 .3-.3.3-.3V799c3.2-.9 6.5-2.1 9.4-3.9l4.7 5h.6l8.5-8.6v-.6l-4.7-4.7c1.8-3 3.2-6.2 4.1-9.5h6.8c.3 0 .3-.3.3-.3v-12.2c-.3-.7-.3-1-.6-1z"/><ellipse fill="#FFF" cx="2157.1" cy="769.4" rx="18.2" ry="18.4"/><ellipse fill="#010101" cx="2157.1" cy="769.7" rx="9.1" ry="9.2"/></g><path fill="#BCBEC0" stroke="#010101" stroke-width="5.08" stroke-miterlimit="10" d="M2771.1 454s59-.7 64.7 1.9c8 3.6 10.7 6.3 1.9 14.3-1.8 1.6-52.5 1.3-63.8 0s-10.2-14.1-2.8-16.2z"/><path fill="#F7923F" d="M2406.4 238.1v13.2c0-3.7 2.4-28 10.8-22.7 0-.7-1-1.1-1.5-.6"/><path fill="#FFEBCC" stroke="#010101" stroke-width="5.57" stroke-miterlimit="10" d="M2343 262.8c-2.7-12.4 2.6-25.3 13.4-31.7 11.3-6.6 21-1.9 26.4-.6 4.5 1.3 9.3 2.9 11.9 6.8 3.2 4.6 2.6 10.7 1.9 16.3-1.3 10.7-3.2 22.4-11.3 29.6-9.3 8.1-24.5 6.5-33.8-1.6-4.3-3.8-6.9-11.6-8.5-18.8z"/></svg>