<svg xmlns="http://www.w3.org/2000/svg" viewBox="0 0 283.5 283.5" id="floors"><path fill="#E2E2E2" d="M7.9,205.6l72.3,41.6c0.1,0.1,0.3,0.1,0.5,0.1l121.7,0.2c0.2,0,0.3,0,0.5-0.1c4.1-2.4,63.1-36.4,73-42.3	c0.6-0.4,0.6-1.3,0-1.7l-89.3-51.8c-0.2-0.1-0.4-0.1-0.6-0.1l-98.9,6.9c-0.1,0-0.3,0.1-0.4,0.1L7.9,203.9	C7.3,204.2,7.3,205.2,7.9,205.6z"/><path fill="#B7B7B7" stroke="#545453" stroke-width="1.756" stroke-miterlimit="10" d="M8.7,182.9L81,224.5	c0.4,0.2,0.8,0.3,1.2,0.3l121,0.2c0.4,0,0.8-0.1,1.2-0.3c6.8-3.9,74.6-43,74.1-43l0.1-29.1c0-2.1-1.4-3.9-3.4-4.4l-84.6-20.9	c-0.3-0.1-0.6-0.1-0.9,0L9.6,150.1c-1.2,0.1-2,1.1-2,2.3v28.4C7.5,181.7,8,182.5,8.7,182.9z"/><path fill="#FFDA99" stroke="#545453" stroke-width="1.038" stroke-miterlimit="10" d="M142.6,72.1l134.9,76.5c0.4,0.2,0.4,0.8,0,1	l-73.8,43.5c-0.1,0.1-0.2,0.1-0.3,0.1l-122.2-0.3c-0.1,0-0.2,0-0.3-0.1l-72.7-42c-0.8-0.5-0.8-1.6,0-2l133.8-76.7	C142.2,72,142.5,72,142.6,72.1z"/><path fill="#FDBD56" stroke="#545453" stroke-width="1.038" stroke-miterlimit="10" d="M263.6,132.5l-122-69.2	c-0.2-0.1-0.4-0.1-0.5,0l-121,69.3l0,9l65.7,38c0.1,0,0.2,0.1,0.3,0.1l110.5,0.3c0.1,0,0.2,0,0.3-0.1l66.7-39.3L263.6,132.5z"/><path fill="#F1F2F2" stroke="#686868" stroke-width="1.588" stroke-miterlimit="10" d="M263.8,131.7L263.8,131.7	C263.8,131.7,263.8,131.7,263.8,131.7L197,171c-0.1,0-0.2,0.1-0.3,0.1l-110.5-0.3c-0.1,0-0.2,0-0.3-0.1l-10.5-6.1l-8.4-4.9l-7.7-4.5	h0l-0.5-0.3l-38.5-22.3c-0.7-0.4-0.7-1.5,0-1.8l121-69.3c0.2-0.1,0.4-0.1,0.5,0L248,121.9l0.5,0.3l7.9,4.5l7.3,4.2	C264.1,131,264.1,131.5,263.8,131.7z"/><path fill="#939598" d="M104.4 137.1c-9.5 5.7-24.7 5.8-34.1.4s-9.3-14.4.2-20 24.7-5.8 34.1-.4S113.9 131.5 104.4 137.1zM149.8 111.5c-9.7 5.8-25.2 6.1-34.8.6-9.5-5.5-9.4-14.7.3-20.5s25.2-6.1 34.8-.6C159.6 96.5 159.5 105.6 149.8 111.5z"/><path fill="#D1D3D4" stroke="#686868" stroke-width="1.023" stroke-miterlimit="10" d="M86.1,142.4l72.7-41.4	c4.4-2.5,4.4-8.8,0.1-11.4l-26.1-15.5c-2-1.2-4.6-1.2-6.6,0l-72.2,41.6c-4.3,2.5-4.4,8.8-0.1,11.3l25.6,15.2	C81.5,143.6,84.1,143.6,86.1,142.4z"/><path fill="none" stroke="#686868" stroke-width=".915" stroke-miterlimit="10" d="M94.5,124.4l42.1-24.7c0.2-0.1,0.2-0.4,0-0.5	l-17.4-10.1c-0.1-0.1-0.2-0.1-0.3,0l-42.7,24.3c-0.2,0.1-0.2,0.4,0,0.5l18.1,10.5C94.3,124.5,94.4,124.5,94.5,124.4z"/><path fill="none" stroke="#686868" stroke-width="1.561" stroke-linecap="round" stroke-miterlimit="10" d="M114.8,94.4V69.8	c0-0.7,0.3-1.4,0.8-2l5.4-5.6c1.1-1.2,2.9-1.2,4.1-0.1l14,13.7c0.6,0.5,0.9,1.3,0.9,2.1v30.4"/><path fill="#D1D3D4" stroke="#686868" stroke-width=".915" stroke-miterlimit="10" d="M136.9,99.2L123,77.6	c-0.1-0.1-0.3-0.2-0.4-0.1L98,92c-0.1,0-0.1,0.1-0.1,0.2l-3.4,31.7c0,0.2,0.2,0.4,0.5,0.3l41.9-24.6C136.9,99.5,137,99.3,136.9,99.2	z"/><path fill="#E6E7E8" stroke="#686868" stroke-width=".915" stroke-miterlimit="10" d="M98.1,91.9l24.3-14.3c0.2-0.1,0.2-0.4,0-0.5	l-9.5-5.4L88.1,85.8c-0.2,0.1-0.2,0.4,0,0.5l9.7,5.6C97.8,92,98,92,98.1,91.9z"/><path fill="#939598" stroke="#686868" stroke-width=".915" stroke-miterlimit="10" d="M75.8,113.4l11.7-27	c0.1-0.2,0.3-0.2,0.4-0.1l9.8,5.7c0.1,0.1,0.2,0.2,0.1,0.3L94.4,124c0,0.2-0.3,0.3-0.5,0.2l-18-10.5	C75.8,113.7,75.8,113.6,75.8,113.4z"/><path fill="#FDBD56" stroke="#545453" stroke-width=".767" stroke-miterlimit="10" d="M104.3,39.4c3.9-2,10.9,8.1,13,15.4	c0.1,0.4,15,1,15,3.8c0,3.1-13.7,1.7-16.3,1.6c-2.6-0.1-8.5-9.4-8.5-9.4S101.7,40.8,104.3,39.4z"/><path fill="#808285" stroke="#686868" stroke-width=".915" stroke-miterlimit="10" d="M105.7,90.9l15.4-8.7c1.7-1,1.7-3.4,0-4.4	L107,70.3c-0.8-0.4-1.7-0.4-2.5,0.1l-14.5,8.8c-1.6,1-1.6,3.3,0,4.3l13.1,7.5C104,91.3,105,91.3,105.7,90.9z"/><path fill="#A7A9AC" stroke="#686868" stroke-width=".915" stroke-miterlimit="10" d="M105.6,70.3l-6-23.6	c-0.4-1.8-2.5-2.6-4.1-1.7L88,49.3c-1.2,0.7-2,2.1-1.8,3.5l2.4,28.1L105.6,70.3z"/><path fill="#F1F2F2" stroke="#686868" stroke-width=".366" stroke-miterlimit="10" d="M109.5,114.6l9.9,5.8c0,0,0,0,0.1,0l5.1-2.9	c0,0,0-0.1,0-0.1l-9.9-5.6c-0.1-0.1-0.2-0.1-0.3,0l-4.8,2.7C109.5,114.5,109.5,114.6,109.5,114.6z"/><path fill="#BCBEC0" stroke="#686868" stroke-width=".366" stroke-miterlimit="10" d="M109.5,116.4v-1.8c0,0,0.1-0.1,0.1-0.1	l9.9,5.8c0,0,0,0,0,0.1v1.8c0,0-0.1,0.1-0.1,0.1L109.5,116.4C109.5,116.5,109.5,116.4,109.5,116.4z"/><path fill="#D1D3D4" stroke="#686868" stroke-width=".366" stroke-miterlimit="10" d="M124.7,119.5v-1.9c0,0,0-0.1-0.1-0.1	l-5.1,2.9c0,0,0,0,0,0.1v1.8c0,0,0,0.1,0.1,0.1L124.7,119.5C124.6,119.5,124.7,119.5,124.7,119.5z"/><path fill="#F1F2F2" stroke="#686868" stroke-width=".366" stroke-miterlimit="10" d="M123,107.1l9.9,5.8c0,0,0,0,0.1,0l5.1-2.9	c0,0,0-0.1,0-0.1l-9.9-5.6c-0.1-0.1-0.2-0.1-0.3,0L123,107C123,107,123,107.1,123,107.1z"/><path fill="#BCBEC0" stroke="#686868" stroke-width=".366" stroke-miterlimit="10" d="M123,108.9v-1.8c0,0,0.1-0.1,0.1-0.1	l9.9,5.8c0,0,0,0,0,0.1v1.8c0,0-0.1,0.1-0.1,0.1L123,108.9C123,109,123,109,123,108.9z"/><path fill="#D1D3D4" stroke="#686868" stroke-width=".366" stroke-miterlimit="10" d="M138.2,112v-1.9c0,0,0-0.1-0.1-0.1l-5.1,2.9	c0,0,0,0,0,0.1v1.8c0,0,0,0.1,0.1,0.1L138.2,112C138.1,112.1,138.2,112,138.2,112z"/><path fill="#F7923F" stroke="#545453" stroke-width=".767" stroke-miterlimit="10" d="M125.7,75.9c-0.1,0-0.1,0-0.2-0.1	c0,0-8.7-5.3-12.7-5.4c0.6-7.4,1.7-33.2-12.7-31.9c-15.4,1.5-10.3,37.5-10.2,37.6c0,0.1,0,0.1,0,0.1c0.1,5.9,8.4,11.2,10.7,11.8	l6.8,6.2c0.5,0.5,0.9,1.9,0.9,1.9c-1.4,2.8,0.5,17.9,0.5,17.9c0,0.4,0.2,0.8,0.5,0.9c6.8,3.2,19.9-5.5,2.7-2.9l2.2-17.5	c0.3-2.5-0.4-5-1.9-7c-1.6-2.1-3.9-4.7-6.2-6.9c1-0.3,2-0.8,3-1.3c0.1,0,0.1-0.1,0.2-0.1c0.2,0.2,0.4,0.3,0.6,0.4l13.7,4.5	c0.5,0.1,0.8,0.5,1,1c0.1,0.2,0.1,0.4,0.1,0.6l0.1,19.1c0.4,3.3,21.7,6.7,4-0.9l2-20.4c0-0.1,0-0.1,0-0.2	C130.7,80.2,128.7,77.3,125.7,75.9z"/><path fill="none" stroke="#686868" stroke-width="2.046" stroke-linecap="round" stroke-miterlimit="10" d="M122.2 111.4L130.6 60.8"/><path fill="#FDBD56" stroke="#545453" stroke-width=".767" stroke-miterlimit="10" d="M88.1,50.1c0,0-3,11.3,1.7,18.5	c0.5,0.8,2.3,1.9,3.3,2c4.5,0.5,17.8-3.7,17.8-3.7l-1.3-3H93.8c-0.2,0-0.4-0.2-0.3-0.4l2.1-10.6c0.5-2.3-0.6-4.6-2.6-5.8	C91.2,46.2,89.2,46.2,88.1,50.1z"/><path fill="none" stroke="#FFDA99" stroke-width="5.372" stroke-linecap="round" stroke-miterlimit="10" d="M101.6 38L99.3 41.5"/><ellipse transform="rotate(20.082 103.883 33.183)" fill="#FFDA99" stroke="#545453" stroke-width=".24" stroke-miterlimit="10" cx="103.9" cy="33.2" rx="5.8" ry="7.2"/><ellipse fill="#FFDA99" stroke="#545453" stroke-width=".24" stroke-miterlimit="10" cx="130.8" cy="59.1" rx="3.2" ry="2.6"/><path fill="#F7923F" stroke="#545453" stroke-width=".767" stroke-linecap="round" stroke-miterlimit="10" d="M107.1,81.9	c0,0-2.9-3.5-6.9-1.7"/><path fill="none" stroke="#686868" stroke-width="1.561" stroke-linecap="round" stroke-miterlimit="10" d="M73.6,117.9V93.3	c0-0.7,0.3-1.4,0.8-2l5.4-5.6c1.1-1.2,2.9-1.2,4.1-0.1l14,13.7c0.6,0.5,0.9,1.3,0.9,2.1v30.4"/><path fill="#FFF" stroke="#FFF" stroke-width="3.539" stroke-linecap="round" stroke-miterlimit="10" d="M77.8,162.8l-8-4.6	c-0.1-0.1-0.1-0.3,0.1-0.3c0,0,180.4-31.6,180.5-31.6l8.3,4.6c0.1,0.1,0.1,0.3,0,0.3L77.9,162.8C77.9,162.8,77.8,162.8,77.8,162.8z"/><path fill="#FFF" stroke="#FFF" stroke-width="1.791" stroke-linecap="round" stroke-miterlimit="10" d="M246.3 122.8L62.1 154.9 61.7 154.7 245.8 122.5z"/><path fill="#F7923F" stroke="#545453" stroke-width=".767" stroke-miterlimit="10" d="M89.6,73.9c1.7,4.6,23.3,3.6,23.3-4.9"/><path fill="none" stroke="#686868" stroke-width="2.046" stroke-linecap="round" stroke-miterlimit="10" d="M120.8 111.7L111.4 65"/><ellipse fill="#FFDA99" stroke="#545453" stroke-width=".24" stroke-miterlimit="10" cx="112.1" cy="65.4" rx="3.2" ry="2.6"/><path fill="#FDBD56" stroke="#545453" stroke-width=".512" stroke-miterlimit="10" d="M97.5,30.9c1.1,7,19.9,7.2,13.1,0.4	c0,0,0,0,0,0L97.5,30.9C97.5,30.8,97.5,30.9,97.5,30.9z"/><path fill="#F7923F" stroke="#545453" stroke-width=".512" stroke-miterlimit="10" d="M97.6,30.7c0,0,0.1-8.3,7.3-7.5	s6.4,8,6.1,8.9C110,35.1,101.2,35.7,97.6,30.7z"/><path fill="none" stroke="#FFDA99" stroke-width=".767" stroke-linecap="round" stroke-miterlimit="10" d="M106.5,25	c0,0,4.4,1.3,3.1,7.4"/><path fill="none" stroke="#F15822" stroke-width="1.791" stroke-linecap="round" stroke-miterlimit="10" d="M101.9,25.3	c0,0-2.7,2.1-2.3,5.6"/><path d="M84.1 203.9h2.5c.7 0 1.2 0 1.6.1.4.1.6.2.8.4.2.2.3.4.4.6.1.2.1.6.1 1.2v.7c0 .5-.1.9-.2 1.2-.1.2-.4.4-.7.6-.3.1-.8.2-1.3.2h-.7v3.3h-2.5V203.9zM86.6 205.3v2.1c.1 0 .1 0 .2 0 .2 0 .4 0 .5-.1.1-.1.1-.3.1-.6V206c0-.3-.1-.5-.2-.6C87.1 205.3 86.9 205.3 86.6 205.3zM90.2 203.9H92c1.2 0 2 0 2.4.1.4.1.8.3 1 .6.3.3.4.8.4 1.5 0 .6-.1 1.1-.3 1.3-.2.2-.6.4-1.1.4.5.1.8.2 1 .4.2.2.3.3.3.5 0 .1.1.6.1 1.2v2.2h-2.3v-2.8c0-.4 0-.7-.1-.8-.1-.1-.3-.2-.6-.2v3.7h-2.5V203.9zM92.7 205.3v1.8c.3 0 .5 0 .6-.1.1-.1.2-.3.2-.6v-.5c0-.3-.1-.4-.2-.5C93.2 205.3 93 205.3 92.7 205.3zM102.6 208.7c0 .8 0 1.4-.1 1.8 0 .3-.2.7-.4 1-.2.3-.6.5-1 .7-.4.2-.9.2-1.4.2-.5 0-1-.1-1.4-.2s-.7-.4-1-.7c-.3-.3-.4-.6-.4-.9 0-.3-.1-.9-.1-1.8v-1.4c0-.8 0-1.4.1-1.8 0-.3.2-.7.4-1 .2-.3.6-.5 1-.7.4-.2.9-.2 1.4-.2.5 0 1 .1 1.4.2.4.1.7.4 1 .7.3.3.4.6.4.9 0 .3.1.9.1 1.8V208.7zM100.1 206c0-.4 0-.6-.1-.7 0-.1-.2-.2-.3-.2-.1 0-.2 0-.3.1-.1.1-.1.3-.1.8v3.9c0 .5 0 .8.1.9 0 .1.2.2.3.2.2 0 .3-.1.3-.2 0-.1.1-.4.1-.9V206zM103.5 203.9h4.3v1.7h-1.7v1.6h1.6v1.6h-1.6v3.5h-2.5V203.9zM113.5 203.9v1.7H112v6.6h-2.5v-6.6H108v-1.7H113.5zM114.1 203.9h4.2v1.7h-1.7v1.6h1.6v1.6h-1.6v1.8h1.9v1.7h-4.4V203.9zM125.1 207.5h-2.5v-1.4c0-.4 0-.7-.1-.8-.1-.1-.2-.2-.4-.2-.2 0-.3.1-.4.2-.1.1-.1.4-.1.8v3.9c0 .4 0 .7.1.8.1.1.2.2.4.2.2 0 .3-.1.4-.2.1-.1.1-.4.1-.9v-1h2.5v.3c0 .9-.1 1.5-.2 1.8-.1.4-.5.7-.9.9-.5.3-1.1.4-1.8.4-.7 0-1.3-.1-1.8-.3-.5-.2-.8-.5-1-1s-.2-1-.2-1.8v-2.4c0-.6 0-1 .1-1.3 0-.3.2-.6.4-.9.2-.3.6-.5 1-.7.4-.2.9-.2 1.5-.2.7 0 1.4.1 1.8.4.5.2.8.6 1 .9.2.4.2.9.2 1.7V207.5zM131.8 203.9v8.3h-2.5v-3.5h-.8v3.5H126v-8.3h2.5v3h.8v-3H131.8z"/><g><path fill="#FFF" stroke="#000" stroke-width=".778" stroke-miterlimit="10" d="M201,214h-64.9c-0.8,0-1.5-0.7-1.5-1.6v-9 c0-0.8,0.6-1.5,1.4-1.3c0.2,0,0.3,0,0.5,0h64.2c0.2,0,0.3,0,0.5,0c0.8-0.2,1.4,0.5,1.4,1.3v9C202.5,213.3,201.8,214,201,214z"/><g fill="#F5A722"><path d="M137.2 203.9h4.2v1.7h-1.7v1.6h1.6v1.6h-1.6v1.8h1.9v1.7h-4.4V203.9zM147.9 203.9v8.3h-2.2l-1.3-3.8v3.8h-2.1v-8.3h2.1l1.4 3.7v-3.7H147.9zM154.7 206.9h-2.5v-.8c0-.5 0-.8-.1-.9 0-.1-.2-.2-.3-.2-.2 0-.3.1-.3.2-.1.1-.1.4-.1.8v4c0 .4 0 .6.1.7.1.1.2.2.3.2.2 0 .3-.1.4-.2.1-.1.1-.4.1-.8v-1h-.5v-1.3h3v4.5h-1.6l-.2-.6c-.2.3-.4.4-.7.6-.3.1-.6.2-.9.2-.4 0-.8-.1-1.2-.3-.4-.2-.7-.4-.8-.7-.2-.3-.3-.5-.4-.8 0-.3-.1-.7-.1-1.3v-2.5c0-.8 0-1.4.1-1.7.1-.4.4-.7.9-1 .5-.3 1.1-.4 1.8-.4.7 0 1.4.1 1.8.4.5.3.8.6 1 .9.1.4.2.9.2 1.6V206.9zM158.2 203.9v8.3h-2.5v-8.3H158.2zM164.8 203.9v8.3h-2.2l-1.3-3.8v3.8h-2.1v-8.3h2.1l1.4 3.7v-3.7H164.8zM165.8 203.9h4.2v1.7h-1.7v1.6h1.6v1.6h-1.6v1.8h1.9v1.7h-4.4V203.9zM170.9 203.9h4.2v1.7h-1.7v1.6h1.6v1.6h-1.6v1.8h1.9v1.7h-4.4V203.9zM176 203.9h1.8c1.2 0 2 0 2.4.1.4.1.8.3 1 .6.3.3.4.8.4 1.5 0 .6-.1 1.1-.3 1.3-.2.2-.6.4-1.1.4.5.1.8.2 1 .4.2.2.3.3.3.5 0 .1.1.6.1 1.2v2.2h-2.3v-2.8c0-.4 0-.7-.1-.8-.1-.1-.3-.2-.6-.2v3.7H176V203.9zM178.6 205.3v1.8c.3 0 .5 0 .6-.1.1-.1.2-.3.2-.6v-.5c0-.3-.1-.4-.2-.5C179.1 205.3 178.9 205.3 178.6 205.3zM185.2 203.9v8.3h-2.5v-8.3H185.2zM191.8 203.9v8.3h-2.2l-1.3-3.8v3.8h-2.1v-8.3h2.1l1.4 3.7v-3.7H191.8zM198.6 206.9h-2.5v-.8c0-.5 0-.8-.1-.9 0-.1-.2-.2-.3-.2-.2 0-.3.1-.3.2-.1.1-.1.4-.1.8v4c0 .4 0 .6.1.7.1.1.2.2.3.2.2 0 .3-.1.4-.2.1-.1.1-.4.1-.8v-1h-.5v-1.3h3v4.5H197l-.2-.6c-.2.3-.4.4-.7.6-.3.1-.6.2-.9.2-.4 0-.8-.1-1.2-.3-.4-.2-.7-.4-.8-.7-.2-.3-.3-.5-.4-.8 0-.3-.1-.7-.1-1.3v-2.5c0-.8 0-1.4.1-1.7.1-.4.4-.7.9-1 .5-.3 1.1-.4 1.8-.4.7 0 1.4.1 1.8.4.5.3.8.6 1 .9.1.4.2.9.2 1.6V206.9z"/></g></g><g stroke="#000" stroke-miterlimit="10"><path stroke-width=".416" d="M76.2,204.2l-1.6-0.9c-0.1-0.5-0.2-1-0.3-1.5 c-0.2-0.6-0.4-1.3-0.6-1.9l1.1-0.6c0,0,0-0.1,0-0.1l-2.1-3.6c0-0.1-0.1-0.1-0.1-0.1l-1.1,0.6c-0.4-0.5-0.8-1-1.3-1.5 c-0.4-0.4-0.7-0.7-1.1-1v-1.9c0-0.1,0-0.1-0.1-0.2l-2.9-1.7c0,0-0.1,0-0.1,0.1v1.9c-0.9-0.3-1.7-0.4-2.4-0.2l-1.2-2 c0-0.1-0.1-0.1-0.1-0.1l-2,1.3c0,0,0,0.1,0,0.1l1.2,2c-0.4,0.6-0.8,1.3-0.9,2.1l-1.8-1c0,0-0.1,0-0.1,0.1v3.4c0,0.1,0,0.1,0.1,0.2 l1.8,1c0.1,0.4,0.2,0.9,0.3,1.3c0.2,0.7,0.4,1.3,0.7,2l-1.2,0.7c0,0,0,0.1,0,0.1l2.1,3.6c0,0.1,0.1,0.1,0.1,0.1l1.3-0.7 c0.4,0.5,0.8,1,1.2,1.4c0.4,0.4,0.7,0.7,1.1,1v2c0,0.1,0,0.1,0.1,0.2L69,212c0,0,0.1,0,0.1-0.1v-2c0.8,0.3,1.6,0.3,2.3,0.2l1.2,2 c0,0.1,0.1,0.1,0.1,0.1l2.1-1.2c0,0,0-0.1,0-0.1l-1.2-2c0.5-0.5,0.8-1.2,1-2.1l1.7,1c0,0,0.1,0,0.1-0.1v-3.4 C76.3,204.3,76.3,204.2,76.2,204.2z"/><path fill="#E6E7E8" stroke-width=".289" d="M71.9,203.4c0,2.8-2,3.9-4.4,2.5 c-2.4-1.4-4.4-4.8-4.4-7.6s2-3.9,4.4-2.5C69.9,197.2,71.9,200.6,71.9,203.4z"/><path stroke-width=".416" d="M69.7,202.2c0,1.4-1,2-2.2,1.3c-1.2-0.7-2.2-2.4-2.2-3.8 s1-2,2.2-1.3C68.7,199.1,69.7,200.8,69.7,202.2z"/></g></svg>