<svg xmlns="http://www.w3.org/2000/svg" viewBox="0 0 283.5 283.5" id="comercalBuilding"><path fill="#D1D3D4" stroke="#939598" stroke-width="1.623" stroke-miterlimit="10" d="M144.5,277.9l134.1-77.1	c3.5-2,3.5-7.1,0-9.1l-134-77.5c-1.6-0.9-3.6-0.9-5.3,0l-134.6,78c-3.5,2-3.5,7.1,0,9.1l134.6,76.7	C140.9,278.9,142.9,278.8,144.5,277.9z"/><g fill="none" stroke="#5B5755" stroke-width=".84" stroke-miterlimit="10"><path d="M129.5 14.7L143.6 6.4 158.7 14.7 144.1 22.9zM129.5 14.7L129.5 159.5 144.1 168.1 144.1 23z"/><path d="M143.8 23.1L157.9 14.5 157.9 159.6 143.8 168.2zM129.2 31.2L144 40M144 40L158.1 31.8M144 23.1L158.4 31.2M144 40L158.1 14.5M129.2 31.2L143.1 22.9M129.2 14.7L144 40M129.9 114.5L144.6 123.3M144.6 123.3L158.7 115.1M144.6 106.4L159.1 114.5M144.6 123.3L158.7 97.8M129.9 114.5L143.8 106.3M129.9 98L144.6 123.3M129.4 148.5L144.1 157.2M144.1 157.2L158.2 149.1M144.1 140.4L158.6 148.5M144.1 157.2L158.2 131.8M129.4 148.5L143.3 140.2M129.4 131.9L144.1 157.2M129.5 130.7L144.3 139.4M144.3 139.4L158.4 131.2M144.3 122.5L158.7 130.7M144.3 139.4L158.4 114M129.5 130.7L143.5 122.4M129.5 114.1L144.3 139.4M129.5 48.5L144.3 57.2M144.3 57.2L158.4 49M144.3 40.3L158.7 48.5M144.3 57.2L158.4 31.8M129.5 48.5L143.5 40.2M129.5 31.9L144.3 57.2M129.7 64.9L144.5 73.7M144.5 73.7L158.6 65.5M144.5 56.8L158.9 64.9M144.5 73.7L158.6 48.2M129.7 64.9L143.6 56.6M129.7 48.4L144.5 73.7M129.5 97.8L144.3 106.6M144.3 106.6L158.4 98.4M143.6 89.7L158.1 97.8M144.8 106.6L158.9 81.1M129.4 97.8L143.3 89.6M129.4 81.3L144.1 106.6M130.2 82.2L145 90.9M144.6 90.9L158.7 82.7M144.6 74.1L159.1 82.2M144.6 90.9L158.7 65.5M130.2 82.2L144.1 73.9M129.9 65.6L144.6 90.9"/></g><path fill="#F7923F" stroke="#5B5755" stroke-width="1.008" stroke-miterlimit="10" d="M129.2,177.4v44.5l38-21.7l0.2-44.5	c0-0.3-0.3-0.4-0.5-0.3L129.2,177.4z"/><path fill="#FCBC56" stroke="#5B5755" stroke-width="1.008" stroke-miterlimit="10" d="M129.2 176.5L56.1 134.9 56.1 180.2 129.2 222.2z"/><path fill="#FFEACC" stroke="#5B5755" stroke-width="1.008" stroke-miterlimit="10" d="M129.2 176.3L147.8 159.7 80.4 121.2 56.1 134.5z"/><path fill="#FFD998" stroke="#5B5755" stroke-width="1.008" stroke-miterlimit="10" d="M147.8,159.9l19.3-5.3c0.1,0,0.2-0.2,0-0.3	l-67.5-38.8l-19.2,5.9L147.8,159.9z"/><path fill="#F7923F" stroke="#5B5755" stroke-width="1.008" stroke-miterlimit="10" d="M129.8,176.4l36.9-21.2	c0.1-0.1,0-0.2-0.1-0.2l-18.8,5.2l-18.1,16.1C129.7,176.4,129.8,176.5,129.8,176.4z"/><path fill="none" stroke="#77716E" stroke-width="4.473" stroke-linecap="round" stroke-miterlimit="10" d="M187.2,204.4v-17.1	c0-3.1-3.2-5.1-5.8-3.5L133.9,212c-1.2,0.7-2,2.1-2,3.5v16.6c0,3.1,3.2,5.1,5.8,3.5l41.2-24.7c1.3-0.8,2-2.2,2-3.7l-0.4-8.8	c-0.1-3.1-3.3-4.9-5.8-3.4l-34.5,21c-1.3,0.8-2,2.3-1.9,3.9l0,0.1c0.2,3,3.4,4.7,5.8,3.2l30.6-19.2"/><path fill="none" stroke="#5B5755" stroke-width="3.479" stroke-linecap="round" stroke-miterlimit="10" d="M132.9,229.2v-1.7	c0-3.7-1.9-7.1-4.9-8.9l-49.2-29.9c-3.6-2.2-8.1,0.5-8.1,4.9v1c0,3.2,1.6,6.1,4.2,7.7l49.1,30.3c1.2,0.7,2.7-0.2,2.7-1.6v-0.1	c0-3.4-1.7-6.5-4.5-8.2l-43.5-26.3"/><path fill="none" stroke="#F1F2F2" stroke-width="2.733" stroke-linecap="round" stroke-miterlimit="10" d="M176.9,233.2v-14.3	c0-1.5-1.5-2.4-2.7-1.7l-28.2,16.1c-3.2,1.8-7,1.8-10.2-0.1l-63.6-37.7c-3.8-2.3-3.9-8.1,0-10.4"/><path fill="none" stroke="#898380" stroke-width="4.473" stroke-linecap="round" stroke-miterlimit="10" d="M195.5,232.6v-8.7	c0-3.5-3.6-5.8-6.5-4L149.8,243c-2.7,1.6-4.4,4.6-4.4,7.9v3.5c0,4-4.2,6.5-7.5,4.4l-8.3-5.3c-3.3-2.1-5.3-5.9-5.3-9.9v-4.2	c0-3.3-1.6-6.3-4.3-7.9l-30.7-18.9c-3.2-2-7.2,0.5-7.2,4.3v0.2c0,3.3-3.4,5.4-6.2,3.7L42,199.6c-1.1-0.7-1.7-1.9-1.7-3.2v-16.7	c0-2.9,2.9-4.6,5.3-3.2l28.1,17.1c1.1,0.7,1.8,2,1.8,3.4l-0.4,8.2c-0.1,2.7-2.9,4.4-5.2,3.1l-20.1-11.7c-1.1-0.7-1.8-1.9-1.8-3.2	v-0.1c0-2.8,2.8-4.6,5.2-3.3l15.5,8.6"/><g stroke="#5B5755" stroke-miterlimit="10"><path fill="#FCBC56" stroke-width="3.527" stroke-linecap="round" d="M199.8 127.9L199.8 168M184 138.3L184 178.4"/><path fill="#FCBC56" stroke-width="1.008" d="M220.2,98.3c-9.2-5.3-24-5.3-33.1-0.1 c-5.3,3-7.5,7.2-6.6,11.2v37.1l24.2,15.3l21.7-14.8l0.3-36.8C228,106,225.9,101.5,220.2,98.3z"/><path fill="#FFEACC" stroke-width="1.008" d="M220.3,117.6c-9.1,5.3-23.9,5.2-33.1-0.1 c-9.2-5.3-9.2-13.8-0.1-19.1c9.1-5.3,23.9-5.2,33.1,0.1C229.4,103.8,229.4,112.4,220.3,117.6z"/><path fill="#FCBC56" stroke-width="3.527" stroke-linecap="round" d="M223.5 142.1L223.5 182.2M208.9 151.7L208.9 191.8"/></g><g stroke="#000" stroke-miterlimit="10"><path stroke-width=".452" d="M212.6,101.1l-1.8,1c-0.5-0.2-1-0.4-1.5-0.5 c-0.7-0.2-1.4-0.3-2.1-0.4l0-1.4c0,0-0.1-0.1-0.1-0.1l-4.5,0c-0.1,0-0.1,0-0.1,0.1l0,1.4c-0.7,0.1-1.4,0.2-2.1,0.4 c-0.5,0.1-1,0.3-1.5,0.5l-1.8-1c-0.1,0-0.1,0-0.2,0l-3.2,1.8c-0.1,0-0.1,0.1,0,0.1l1.8,1c-0.7,0.7-1.2,1.4-1.5,2.1l-2.6,0 c-0.1,0-0.1,0-0.1,0.1l0.1,2.6c0,0,0.1,0.1,0.1,0.1l2.5,0c0.3,0.7,0.8,1.4,1.5,2l-1.9,1.1c-0.1,0-0.1,0.1,0,0.1l3.2,1.8 c0.1,0,0.1,0,0.2,0l2-1.1c0.4,0.2,0.9,0.3,1.4,0.4c0.7,0.2,1.5,0.3,2.2,0.4l-0.1,1.5c0,0,0.1,0.1,0.1,0.1l4.5,0 c0.1,0,0.1,0,0.1-0.1l0.1-1.6c0.7-0.1,1.3-0.2,2-0.4c0.5-0.1,1-0.3,1.5-0.5l1.9,1.1c0.1,0,0.1,0,0.2,0l3.2-1.8c0.1,0,0.1-0.1,0-0.1 l-1.9-1.1c0.7-0.6,1.2-1.3,1.5-2l2.6,0c0.1,0,0.1,0,0.1-0.1c0,0,0-2.7-0.1-2.7l-2.5,0c-0.3-0.7-0.7-1.4-1.4-2.1l1.8-1 c0.1,0,0.1-0.1,0-0.1l-3.2-1.8C212.8,101.1,212.7,101.1,212.6,101.1z"/><path fill="#E6E7E8" stroke-width=".314" d="M209.6,104.7c2.6,1.5,2.6,4,0,5.5 c-2.7,1.5-7,1.5-9.6,0c-2.6-1.5-2.6-4,0-5.5C202.6,103.2,206.9,103.2,209.6,104.7z"/><path stroke-width=".452" d="M207.2,106.2c1.3,0.8,1.3,2,0,2.8c-1.3,0.8-3.5,0.8-4.8,0 c-1.3-0.8-1.3-2,0-2.8C203.7,105.4,205.9,105.4,207.2,106.2z"/></g><path d="M63.8 145.8l3.1 1.8c.8.5 1.5.9 1.9 1.3.4.4.8.8 1 1.1.2.4.4.8.5 1.1.1.4.1.9.1 1.7v1c0 .7-.1 1.2-.2 1.5-.2.2-.4.3-.9.3-.4-.1-1-.3-1.6-.7l-.8-.5v4.6l-3-1.8V145.8zM66.8 149.5v2.9c.1.1.2.1.2.1.3.2.5.2.6.1.1-.1.2-.3.2-.7V151c0-.4-.1-.7-.2-.9C67.5 149.9 67.2 149.7 66.8 149.5zM71.2 150.1l2.2 1.2c1.4.8 2.4 1.4 2.9 1.9.5.4.9.9 1.2 1.6.3.6.5 1.4.5 2.4 0 .9-.1 1.4-.3 1.6-.2.2-.7.1-1.3-.2.6.5 1 .9 1.2 1.3.2.4.3.7.4.9s.1.8.1 1.7v3l-2.8-1.6v-3.8c0-.6 0-1-.1-1.2-.1-.2-.4-.4-.8-.7v5.2l-3-1.8V150.1zM74.3 153.8v2.6c.3.2.6.3.7.3.1 0 .2-.3.2-.8v-.6c0-.4-.1-.6-.2-.8C74.9 154.2 74.6 154 74.3 153.8zM86.2 165.4c0 1.2 0 2-.1 2.4-.1.4-.2.8-.5 1-.3.2-.7.3-1.2.2-.5-.1-1.1-.3-1.7-.7-.6-.4-1.2-.8-1.7-1.3-.5-.5-.9-1-1.2-1.6-.3-.6-.5-1.1-.5-1.6-.1-.5-.1-1.4-.1-2.5v-2c0-1.2 0-2 .1-2.4.1-.4.2-.8.5-1 .3-.2.7-.3 1.2-.2.5.1 1.1.3 1.7.7.6.4 1.2.8 1.7 1.3.5.5.9 1 1.2 1.6.3.6.5 1.1.5 1.6.1.5.1 1.4.1 2.5V165.4zM83.1 159.9c0-.5 0-.9-.1-1.1-.1-.2-.2-.3-.4-.4-.2-.1-.3-.1-.4 0-.1.1-.1.4-.1 1v5.4c0 .7 0 1.1.1 1.3.1.2.2.3.4.5.2.1.3.1.4 0 .1-.1.1-.6.1-1.2V159.9zM87.3 159.4l5.2 3v2.3l-2.1-1.2v2.2l1.9 1.1v2.2l-1.9-1.1v4.8l-3-1.8V159.4zM99.3 166.3v2.3l-1.8-1v9.2l-3-1.8v-9.2l-1.8-1v-2.3L99.3 166.3zM100 166.7l5.1 2.9v2.3l-2-1.2v2.2l1.9 1.1v2.2l-1.9-1.1v2.5l2.2 1.3v2.3l-5.3-3.1V166.7zM113.3 179.4l-3-1.8v-2c0-.6 0-1-.1-1.1-.1-.2-.2-.3-.4-.5-.3-.1-.4-.1-.5 0-.1.1-.1.5-.1 1.1v5.4c0 .6 0 .9.1 1.2.1.2.2.4.5.5.2.1.4.1.4 0 .1-.1.1-.5.1-1.1v-1.4l3 1.8v.4c0 1.2-.1 2-.3 2.4-.2.4-.6.6-1.1.7-.6 0-1.3-.2-2.2-.7-.9-.5-1.6-1.1-2.2-1.8-.6-.7-1-1.3-1.2-2-.2-.7-.3-1.6-.3-2.7v-3.4c0-.8 0-1.4.1-1.8.1-.4.2-.7.5-.9.3-.2.7-.3 1.2-.2.5.1 1.1.3 1.8.7.9.5 1.6 1.1 2.2 1.8.6.7 1 1.3 1.2 1.9.2.6.3 1.5.3 2.5V179.4zM121.4 179v11.5l-3-1.8V184l-.9-.5v4.8l-3-1.8V175l3 1.8v4.1l.9.5v-4.1L121.4 179z"/><path fill="#FFF" stroke="#000" stroke-width=".769" stroke-miterlimit="10" d="M121.4,207.8l-57.4-33.2 c-0.7-0.4-1.4-1.5-1.4-2.4v-9.2c0-0.8,0.5-1.2,1.2-0.6c0.1,0.1,0.3,0.2,0.4,0.3l56.8,32.8c0.2,0.1,0.3,0.2,0.4,0.2 c0.7,0.2,1.2,1.2,1.2,2.1v9.2C122.7,207.9,122.1,208.2,121.4,207.8z"/><g fill="#F5A722"><path d="M64.9 165l3.7 2.1v1.7l-1.5-.9v1.6l1.4.8v1.6l-1.4-.8v1.9l1.6.9v1.7l-3.9-2.2V165zM74.4 170.4v8.4l-2-1.1-1.2-4.5v3.8l-1.9-1.1v-8.4l1.9 1.1 1.3 4.5v-3.8L74.4 170.4zM80.4 177l-2.2-1.3V175c0-.5 0-.8-.1-.9 0-.1-.1-.3-.3-.4-.1-.1-.2-.1-.3 0 0 .1-.1.3-.1.8v4c0 .4 0 .6.1.8 0 .1.1.3.3.4.2.1.3.1.3 0 .1-.1.1-.3.1-.7v-1l-.5-.3v-1.3l2.6 1.5v4.5l-1.4-.8-.2-.7c-.2.2-.3.3-.6.3-.2 0-.5-.1-.8-.3-.4-.2-.7-.5-1.1-.9-.3-.4-.6-.7-.7-1.1-.2-.4-.3-.7-.3-1 0-.3-.1-.8-.1-1.3V174c0-.8 0-1.4.1-1.7.1-.3.3-.5.8-.6s1 .1 1.6.5c.7.4 1.2.8 1.6 1.3.4.5.7 1 .8 1.4.1.4.2 1 .2 1.7V177zM83.5 175.7v8.4l-2.2-1.3v-8.4L83.5 175.7zM89.4 179.1v8.4l-2-1.1-1.2-4.5v3.8l-1.9-1.1v-8.4l1.9 1.1 1.3 4.5V178L89.4 179.1zM90.3 179.6l3.7 2.1v1.7l-1.5-.9v1.6l1.4.8v1.6l-1.4-.8v1.9l1.6.9v1.7l-3.9-2.2V179.6zM94.8 182.2l3.7 2.1v1.7l-1.5-.9v1.6l1.4.8v1.6l-1.4-.8v1.9l1.6.9v1.7l-3.9-2.2V182.2zM99.3 184.8l1.6.9c1.1.6 1.8 1.1 2.1 1.4.4.3.7.7.9 1.1.2.5.4 1.1.4 1.8 0 .7-.1 1-.2 1.2-.2.1-.5.1-1-.2.4.4.7.7.9.9.2.3.2.5.3.7 0 .2.1.6.1 1.3v2.2l-2.1-1.2v-2.8c0-.5 0-.8-.1-.9-.1-.1-.3-.3-.6-.5v3.8l-2.2-1.3V184.8zM101.6 187.5v1.9c.3.1.4.2.5.2.1 0 .2-.2.2-.6v-.5c0-.3 0-.5-.1-.6C102 187.8 101.8 187.7 101.6 187.5zM107.4 189.5v8.4l-2.2-1.3v-8.4L107.4 189.5zM113.3 192.9v8.4l-2-1.1-1.2-4.5v3.8l-1.9-1.1V190l1.9 1.1 1.3 4.5v-3.8L113.3 192.9zM119.3 199.4l-2.2-1.3v-.8c0-.5 0-.8-.1-.9 0-.1-.1-.3-.3-.4-.1-.1-.2-.1-.3 0 0 .1-.1.3-.1.8v4c0 .4 0 .6.1.8 0 .1.1.3.3.4.2.1.3.1.3 0 .1-.1.1-.3.1-.7v-1l-.5-.3v-1.3l2.6 1.5v4.5l-1.4-.8-.2-.7c-.2.2-.3.3-.6.3-.2 0-.5-.1-.8-.3-.4-.2-.7-.5-1.1-.9-.3-.4-.6-.7-.7-1.1-.2-.4-.3-.7-.3-1 0-.3-.1-.8-.1-1.3v-2.5c0-.8 0-1.4.1-1.7.1-.3.3-.5.8-.6.4-.1 1 .1 1.6.5.7.4 1.2.8 1.6 1.3.4.5.7 1 .8 1.4s.2 1 .2 1.7V199.4z"/></g></svg>