<svg xmlns="http://www.w3.org/2000/svg" viewBox="0 0 283.5 283.5" id="roofWorks"><path fill="#808285" stroke="#545553" stroke-width="1.911" stroke-miterlimit="10" d="M146.5 260.2L278 185.4c2.3-1.3 2.3-4.6 0-5.9l-132.6-75.2c-1.1-.6-2.3-.6-3.4 0L13.1 179.5c-2.3 1.3-2.3 4.6 0 5.9l130 74.8c1 .6 2.3.6 3.4 0z"/><path fill="#A7A9AC" stroke="#545553" stroke-width=".884" stroke-miterlimit="10" d="M44.4 114.7L145.2 57l99.5 57.4-74.3 73-98.1-19z"/><path fill="#E2E2E1" stroke="#555655" stroke-width=".884" stroke-miterlimit="10" d="M44 182.5l100.8 58.4v-69.4L44 112.7z"/><path fill="#B7B7B8" stroke="#545553" stroke-width=".884" stroke-miterlimit="10" d="M244.5 182.7l-99.9 58v-69.5l99.9-57.4z"/><path fill="#5B5755" stroke="#545553" stroke-width=".884" stroke-miterlimit="10" d="M75.8 154.3v22.9l31 18.2v-23.9zM164.5 182.7v23.5l20.3-12v-23zM204.7 159.7v23l19.9-11.5v-22.9z"/><path fill="#C16028" stroke="#545553" stroke-width=".884" stroke-miterlimit="10" d="M144.6 55.9L94.2 28 44 113.8z"/><path fill="#C16028" stroke="#545553" stroke-width=".884" stroke-miterlimit="10" d="M47.5 107.9l100.2 57.9 5.2-8.8-100-58.2z"/><path fill="#F7923F" stroke="#545553" stroke-width=".884" stroke-miterlimit="10" d="M48.6 104l100.8 58.8 4.1-7.7L53.1 97z"/><path fill="#C16028" stroke="#545553" stroke-width=".884" stroke-miterlimit="10" d="M56.4 92.8l100.1 58 5.2-8.8-100-58.2z"/><path fill="#F7923F" stroke="#545553" stroke-width=".884" stroke-miterlimit="10" d="M57.7 89.5L158 147.7l5.3-9-99.6-58.5z"/><path fill="#C16028" stroke="#545553" stroke-width=".884" stroke-miterlimit="10" d="M66.5 75.2l100.2 57.9 5.2-8.8-100-58.2z"/><path fill="#F7923F" stroke="#545553" stroke-width=".884" stroke-miterlimit="10" d="M67.8 71.5L168 129.9l5.4-9.4-100.2-58z"/><path fill="#C16028" stroke="#545553" stroke-width=".884" stroke-miterlimit="10" d="M77.1 57.5l100.2 57.9 5.2-8.8-100-58.2z"/><path fill="#F7923F" stroke="#545553" stroke-width=".884" stroke-miterlimit="10" d="M78.5 54.7l100.2 58 5.3-9L83.8 45.8z"/><path fill="#C16028" stroke="#545553" stroke-width=".884" stroke-miterlimit="10" d="M87.3 39.4l100.2 57.9 5.1-8.8-99.9-58.2z"/><path fill="#F7923F" stroke="#545553" stroke-width=".884" stroke-miterlimit="10" d="M89.1 36.3l100.2 57.9 5.1-8.8-100-58.2z"/><path fill="#F7923F" stroke="#545553" stroke-width=".884" stroke-miterlimit="10" d="M244.5 113.8l-50-30.1-49.9 87.5 11.5-6.6 41-71.7 40.7 24.4z"/><path fill="#FCBC56" stroke="#545553" stroke-width=".884" stroke-miterlimit="10" d="M94.6 28l66.3 37.1-50.4 85.8-66.1-38.2z"/><path fill="#A7A9AC" stroke="#545553" stroke-width=".884" stroke-miterlimit="10" d="M86.8 27.1l-.8 1.4c-1.2 2-3.7 2.7-5.8 1.5h-.1c-2-1.1-4.6-.5-5.7 1.5L36.5 93.9c-1.2 2-.6 4.7 1.5 5.9l.3.2c2.1 1.2 2.7 3.8 1.5 5.9l-3.4 5.7c-1.2 2.1-.5 4.7 1.6 5.9l40.9 23c2 1.1 4.6.4 5.8-1.6l50.4-85.4c1.2-2.1.5-4.8-1.7-5.9l-41.1-22c-1.9-1.2-4.4-.5-5.5 1.5z"/><path d="M46.2 171.4l2 1.2c.6.3 1 .6 1.3.9.3.3.5.5.7.8s.3.5.3.8c.1.3.1.6.1 1.1v.7c0 .5-.1.8-.2 1-.1.2-.3.2-.6.2s-.6-.2-1.1-.4l-.5-.3v3.1l-2-1.2v-7.9zm2.1 2.5v2c.1 0 .1.1.1.1.2.1.3.1.4.1.1 0 .1-.2.1-.5v-.6c0-.3 0-.5-.1-.6-.1-.2-.3-.4-.5-.5zM51.2 174.2l1.4.8c1 .6 1.6 1 1.9 1.2.3.3.6.6.8 1s.3 1 .3 1.6c0 .6-.1 1-.2 1.1-.2.1-.4.1-.9-.1.4.3.7.6.8.9l.3.6c0 .2.1.5.1 1.2v2l-1.9-1.1v-2.6c0-.4 0-.7-.1-.8-.1-.1-.2-.3-.5-.4v3.5l-2-1.2v-7.7zm2 2.5v1.7c.2.1.4.2.5.2.1 0 .1-.2.1-.5v-.4c0-.2 0-.4-.1-.6-.1-.1-.2-.2-.5-.4zM61.2 184.5c0 .8 0 1.3-.1 1.6 0 .3-.2.5-.3.7-.2.2-.5.2-.8.2-.3 0-.7-.2-1.2-.5-.4-.2-.8-.5-1.1-.9-.3-.3-.6-.7-.8-1.1-.2-.4-.3-.7-.4-1.1 0-.3-.1-.9-.1-1.7v-1.3c0-.8 0-1.3.1-1.6 0-.3.2-.5.3-.7.2-.2.5-.2.8-.2.3 0 .7.2 1.2.5.4.2.8.5 1.1.9.3.3.6.7.8 1.1.2.4.3.7.4 1.1 0 .3.1.9.1 1.7v1.3zm-2.1-3.7c0-.4 0-.6-.1-.7 0-.1-.1-.2-.2-.3-.1-.1-.2-.1-.2 0-.1 0-.1.3-.1.7v3.6c0 .4 0 .7.1.9 0 .1.1.2.3.3.1.1.2.1.3 0 0-.1.1-.4.1-.8v-3.7zM61.9 180.4l3.4 2v1.5l-1.4-.8v1.5l1.3.7v1.5l-1.3-.7v3.2l-2-1.2v-7.7zM69.9 185.1v1.5l-1.2-.7v6.1l-2-1.2v-6.1l-1.2-.7v-1.5l4.4 2.6zM70.4 185.3l3.4 2v1.5l-1.4-.8v1.5l1.3.7v1.5l-1.3-.7v1.7l1.5.9v1.5l-3.5-2v-7.8zM79.3 193.8l-2-1.2v-1.3c0-.4 0-.6-.1-.8 0-.1-.1-.2-.3-.3-.2-.1-.3-.1-.3 0s-.1.3-.1.7v3.6c0 .4 0 .6.1.8 0 .1.1.3.3.3.2.1.3.1.3 0s.1-.3.1-.8v-1l2 1.2v.3c0 .8-.1 1.3-.2 1.6-.1.3-.4.4-.8.4s-.9-.1-1.4-.5c-.6-.3-1.1-.7-1.5-1.2-.4-.4-.6-.9-.8-1.3-.1-.4-.2-1-.2-1.8v-2.2c0-.6 0-1 .1-1.2 0-.3.2-.5.3-.6.2-.1.5-.2.8-.1.3 0 .7.2 1.2.5.6.3 1.1.7 1.5 1.2s.6.9.8 1.3.2 1 .2 1.7v.7zM84.7 193.6v7.7l-2-1.2v-3.2l-.6-.4v3.2l-2-1.2v-7.7l2 1.2v2.7l.6.4v-2.7l2 1.2z"/><g><path fill="#FFF" stroke="#000" stroke-width=".671" stroke-miterlimit="10" d="M140.6 235.1l-52.3-30.2c-.7-.4-1.2-1.4-1.2-2.2v-8.4c0-.8.5-1.1 1.1-.6.1.1.3.2.4.3l51.7 29.9c.1.1.3.2.4.2.6.2 1.1 1.1 1.1 1.9v8.4c0 .7-.6 1.1-1.2.7z"/><g fill="#F5A722"><path d="M89.2 196.1l3.4 2v1.5l-1.4-.8v1.5l1.3.7v1.5l-1.3-.7v1.7l1.5.9v1.5l-3.5-2v-7.8zM97.8 201.1v7.7l-1.8-1-1.1-4.1v3.5l-1.7-1v-7.7l1.7 1 1.1 4.1v-3.5l1.8 1zM103.3 207.1l-2-1.2v-.7c0-.4 0-.7-.1-.9 0-.1-.1-.2-.3-.3-.1-.1-.2-.1-.3 0 0 .1-.1.3-.1.7v3.7c0 .3 0 .6.1.7 0 .1.1.2.3.3.1.1.2.1.3 0 .1-.1.1-.3.1-.7v-.9l-.4-.2v-1.2l2.4 1.4v4.1l-1.3-.7-.2-.7c-.1.2-.3.2-.5.2s-.5-.1-.7-.3c-.3-.2-.7-.5-1-.8-.3-.3-.5-.7-.7-1-.2-.3-.3-.6-.3-.9 0-.3-.1-.7-.1-1.2v-2.3c0-.7 0-1.2.1-1.5.1-.3.3-.5.7-.5.4-.1.9.1 1.5.4.6.3 1.1.7 1.5 1.2.4.5.6.9.8 1.3.1.4.2.9.2 1.5v.5zM106.1 205.9v7.7l-2-1.2v-7.7l2 1.2zM111.5 209v7.7l-1.8-1-1.1-4.1v3.5l-1.7-1v-7.7l1.7 1 1.1 4.1V208l1.8 1zM112.3 209.4l3.4 2v1.5l-1.4-.8v1.5l1.3.7v1.5l-1.3-.7v1.7l1.5.9v1.5l-3.5-2v-7.8zM116.4 211.8l3.4 2v1.5l-1.4-.8v1.5l1.3.7v1.5l-1.3-.7v1.7l1.5.9v1.5l-3.5-2v-7.8zM120.5 214.2l1.4.8c1 .6 1.6 1 1.9 1.2.3.3.6.6.8 1 .2.4.3 1 .3 1.6 0 .6-.1 1-.2 1.1-.2.1-.4.1-.9-.1.4.3.7.6.8.9l.3.6c0 .2.1.5.1 1.2v2l-1.9-1.1v-2.6c0-.4 0-.7-.1-.8-.1-.1-.2-.3-.5-.4v3.5l-2-1.2v-7.7zm2 2.5v1.7c.2.1.4.2.5.2.1 0 .1-.2.1-.5v-.4c0-.2 0-.4-.1-.6-.1-.2-.2-.3-.5-.4zM127.8 218.4v7.7l-2-1.2v-7.7l2 1.2zM133.2 221.5v7.7l-1.8-1-1.1-4.1v3.5l-1.7-1v-7.7l1.7 1 1.1 4.1v-3.5l1.8 1zM138.7 227.5l-2-1.2v-.7c0-.4 0-.7-.1-.9 0-.1-.1-.2-.3-.3-.1-.1-.2-.1-.3 0 0 .1-.1.3-.1.7v3.7c0 .3 0 .6.1.7 0 .1.1.2.3.3.1.1.2.1.3 0 .1-.1.1-.3.1-.7v-.9l-.4-.2v-1.2l2.4 1.4v4.1l-1.3-.7-.2-.7c-.1.2-.3.2-.5.2s-.5-.1-.7-.3c-.3-.2-.7-.5-1-.8-.3-.3-.5-.7-.7-1-.2-.3-.3-.6-.3-.9 0-.3-.1-.7-.1-1.2v-2.3c0-.7 0-1.2.1-1.5.1-.3.3-.5.7-.5.4-.1.9.1 1.5.4.6.3 1.1.7 1.5 1.2.4.5.6.9.8 1.3.1.4.2.9.2 1.5v.5z"/></g></g><g stroke="#000" stroke-miterlimit="10"><path stroke-width=".496" d="M209 112.4l-1.9 1.1c-.1-.5-.2-.9-.4-1.3-.2-.5-.5-1-.8-1.4l1.3-2.2v-.2l-2.5-1.4s-.1 0-.1.1l-1.3 2.2c-.5-.1-1-.1-1.6 0-.4.1-.9.2-1.3.3v-2.2c0-.1 0-.1-.1-.1l-3.5 2c-.1 0-.1.1-.1.2v2.3c-1 .9-2 1.9-2.9 3l-1.5-.8s-.1 0-.1.1l-2.4 4.3v.2l1.4.7c-.5 1.3-.9 2.6-1.1 3.8l-2.1 1.2c-.1 0-.1.1-.1.2v4c0 .1 0 .1.1.1l2.2-1.2.3 1.2c.2.5.5 1 .8 1.4l-1.5 2.5v.2l2.4 1.5s.1 0 .1-.1l1.5-2.6c.5.1 1 0 1.5 0 .4-.1.9-.2 1.3-.3v2.4c0 .1 0 .1.1.1l3.5-2c.1 0 .1-.1.1-.2V129c1-.8 1.9-1.8 2.7-2.8l1.4.8s.1 0 .1-.1l2.5-4.3v-.2l-1.4-.8c.5-1.3.9-2.6 1.2-3.9l2-1.1c.1 0 .1-.1.1-.2v-4c.2 0 .2-.1.1 0z"/><path fill="#E6E7E8" stroke-width=".345" d="M203.9 117.4c0 3.4-2.4 7.4-5.3 9.1-2.9 1.7-5.3.3-5.3-3 0-3.4 2.4-7.4 5.3-9.1s5.3-.4 5.3 3z"/><path stroke-width=".496" d="M201.2 119c0 1.7-1.2 3.7-2.6 4.5-1.5.8-2.6.2-2.6-1.5s1.2-3.7 2.6-4.5c1.4-.9 2.6-.2 2.6 1.5z"/></g></svg>