<svg xmlns="http://www.w3.org/2000/svg" viewBox="0 0 283.5 283.5" id="flat"><path fill="#E2E2E1" d="M18.1 211.1l68.7 39.6c.1.1.3.1.5.1l115.7.2c.2 0 .3 0 .5-.1 3.9-2.3 60-34.6 69.4-40.2.6-.4.6-1.3 0-1.6L188 159.8c-.2-.1-.3-.1-.5-.1l-94 6.5c-.1 0-.3.1-.4.1l-74.9 43.2c-.8.3-.8 1.2-.1 1.6z"/><path fill="#B7B7B8" stroke="#545553" stroke-width="1.223" stroke-miterlimit="10" d="M18.8 189.5l68.7 39.6c.3.2.7.3 1.1.3l115 .2c.4 0 .8-.1 1.1-.3 6.4-3.7 70.9-40.9 70.5-40.9l.1-27.6c0-2-1.3-3.7-3.2-4.2l-80.4-19.9c-.3-.1-.5-.1-.8 0L19.6 158.3c-1.1.1-1.9 1.1-1.9 2.2v27c0 .9.4 1.6 1.1 2z"/><path fill="#FFEACC" stroke="#696A6A" stroke-width="1.223" stroke-miterlimit="10" d="M146.2 84.2L274.4 157c.4.2.4.7 0 1l-70.2 41.3c-.1.1-.2.1-.3.1l-116.2-.3c-.1 0-.2 0-.3-.1l-69.1-40c-.8-.4-.7-1.5 0-1.9l127.2-72.9c.3-.1.5-.1.7 0z"/><path fill="#FCBC56" stroke="#545553" stroke-width="1.223" stroke-miterlimit="10" d="M163.9 46.7v68.9c0 .8.8 1.3 1.6.9l18.8-10c.3-.2.6-.5.6-.9V35.7c0-.8-.9-1.3-1.6-.9l-18.8 11c-.4.2-.6.5-.6.9z"/><path fill="#F7923F" stroke="#696A6A" stroke-width="1.223" stroke-miterlimit="10" d="M129 25.7l34.9 19.8c.1 0 .1.1.1.2v70.7c0 .2-.2.3-.4.2l-34.1-19.5c-.1 0-.1-.1-.1-.2l-.8-70.9c0-.2.2-.4.4-.3z"/><path fill="#FFD998" stroke="#545553" stroke-width="1.223" stroke-miterlimit="10" d="M163.9 46.1l20.8-12.2v-.1l-35.3-20L128.6 26v.1l35.3 20z"/><path fill="#F7923F" stroke="#696A6A" stroke-width="1.223" stroke-miterlimit="10" d="M128.6 134.6v-7.5c0-.1-.1-.2-.2-.3l-6.6-3.7c-.2-.1-.4 0-.4.3v7.4c0 .1.1.2.1.3l6.6 3.8c.2.1.5 0 .5-.3z"/><path fill="#FCBC56" stroke="#545553" stroke-width="1.223" stroke-miterlimit="10" d="M135.8 123.1v8c0 .1 0 .1-.1.1l-6.9 3.9c-.1.1-.2 0-.2-.1v-7.9c0-.1 0-.1.1-.1l6.9-4c0-.1.2 0 .2.1z"/><path fill="#F7923F" stroke="#545553" stroke-width="1.272" stroke-miterlimit="10" d="M36 154.7v-7.8c0-.1-.1-.2-.2-.3l-6.9-3.8c-.2-.1-.5 0-.5.3v7.7c0 .1.1.2.2.3l6.9 3.9c.2.1.5-.1.5-.3z"/><path fill="#FCBC56" stroke="#545553" stroke-width="1.272" stroke-miterlimit="10" d="M43.4 142.6v8.3c0 .1 0 .1-.1.1l-7.1 4.1c-.1.1-.2 0-.2-.1v-8.2c0-.1 0-.1.1-.1l7.1-4.2c.1-.1.2 0 .2.1z"/><path fill="#FFD998" stroke="#545553" stroke-width="1.223" stroke-miterlimit="10" d="M30.7 134.7l69.6-39.9c.1-.1.3-.1.5 0l34.3 19.5c.3.2.3.6 0 .8l-69.9 40.4c-.1.1-.3.1-.5 0l-34-20.1c-.3-.1-.3-.5 0-.7z"/><path fill="#F7923F" stroke="#545553" stroke-width="1.272" stroke-miterlimit="10" d="M28.5 136.2v5.6c0 .4.2.9.6 1.1L63 162.5c.8.5 1.9-.1 1.9-1.1v-5.2c0-.4-.2-.8-.6-1.1l-33.9-20c-.9-.5-1.9.1-1.9 1.1z"/><path fill="#FCBC56" stroke="#545553" stroke-width="1.223" stroke-miterlimit="10" d="M135.8 122.1V117c0-.9-1-1.5-1.8-1l-68.4 39.4c-.4.2-.6.6-.6 1v5c0 .9 1 1.5 1.8 1l68.4-39.3c.3-.2.6-.6.6-1z"/><path fill="#F7923F" stroke="#545553" stroke-width="1.272" stroke-miterlimit="10" d="M64.9 171.5v-7.8c0-.1-.1-.2-.2-.3l-6.9-3.8c-.2-.1-.5 0-.5.3v7.7c0 .1.1.2.2.3l6.9 3.9c.2 0 .5-.1.5-.3z"/><path fill="#FCBC56" stroke="#545553" stroke-width="1.272" stroke-miterlimit="10" d="M72.3 159.4v8.3c0 .1 0 .1-.1.1l-7.1 4.1c-.1.1-.2 0-.2-.1v-8.2c0-.1 0-.1.1-.1l7.1-4.2c.1-.1.2 0 .2.1z"/><path fill="none" stroke="#545553" stroke-width="1.223" stroke-miterlimit="10" d="M128.9 87.9l35.3 20.5"/><path fill="none" stroke="#545553" stroke-width="1.223" stroke-linecap="round" stroke-miterlimit="10" d="M129.9 79.7l33.5 18.9M129.2 70L164 89.7M144.9 36.2v42"/><path fill="#F7923F" stroke="#696A6A" stroke-width="1.223" stroke-miterlimit="10" d="M231 137.5l26.8-15.3c.6-.3 1.4.1 1.4.8v38.5c0 .3-.2.6-.4.8L232 177.9c-.6.4-1.4-.1-1.4-.8v-38.7c-.1-.5.1-.8.4-.9zM175 145.5c-.2.1-.5 0-.5-.3l-.1-39.7s0-.1.1-.1l27.8-16c.1 0 .2 0 .2.1v40l-27.5 16z"/><path fill="#FFD998" stroke="#545553" stroke-width="1.223" stroke-miterlimit="10" d="M174.6 105.4l27.7-16h.1l56.6 31.8c.1 0 .1.2 0 .2l-28.4 16.2h-.1l-55.9-32.1c-.1 0-.1-.1 0-.1z"/><path d="M91 210.2h2.4c.7 0 1.2 0 1.5.1.4.1.6.2.8.4.2.2.3.4.4.6.1.2.1.6.1 1.1v.7c0 .5-.1.9-.2 1.1-.1.2-.3.4-.7.5-.3.1-.7.2-1.3.2h-.6v3.2H91v-7.9zm2.4 1.3v2h.2c.2 0 .4 0 .5-.1.1-.1.1-.3.1-.6v-.6c0-.3 0-.4-.1-.5-.2-.1-.4-.2-.7-.2zM96.9 210.2h1.7c1.1 0 1.9 0 2.3.1.4.1.7.3 1 .6.3.3.4.8.4 1.5 0 .6-.1 1-.3 1.2-.2.2-.5.3-1.1.4.5.1.8.2 1 .4.2.2.3.3.3.5 0 .1.1.5.1 1.2v2.1H100v-2.6c0-.4 0-.7-.1-.8-.1-.1-.3-.2-.6-.2v3.6h-2.4v-8zm2.4 1.3v1.8c.3 0 .5 0 .6-.1.1-.1.2-.3.2-.6v-.4c0-.3-.1-.4-.2-.5-.2-.1-.3-.2-.6-.2zM108.6 214.8c0 .8 0 1.4-.1 1.7 0 .3-.2.6-.4.9-.2.3-.5.5-.9.6-.4.1-.8.2-1.4.2-.5 0-.9-.1-1.3-.2s-.7-.3-.9-.6c-.2-.3-.4-.6-.4-.9 0-.3-.1-.9-.1-1.7v-1.4c0-.8 0-1.4.1-1.7 0-.3.2-.6.4-.9.2-.3.5-.5.9-.6.4-.1.8-.2 1.4-.2.5 0 .9.1 1.3.2s.7.3.9.6c.2.3.4.6.4.9 0 .3.1.9.1 1.7v1.4zm-2.4-2.6c0-.4 0-.6-.1-.7s-.1-.2-.3-.2c-.1 0-.2 0-.3.1-.1.1-.1.3-.1.7v3.7c0 .5 0 .7.1.8 0 .1.1.2.3.2.2 0 .3-.1.3-.2s.1-.4.1-.9v-3.5zM109.5 210.2h4.1v1.6h-1.7v1.5h1.5v1.5h-1.5v3.3h-2.4v-7.9zM119 210.2v1.6h-1.4v6.3h-2.4v-6.3h-1.4v-1.6h5.2zM119.5 210.2h4v1.6h-1.6v1.5h1.5v1.5h-1.5v1.7h1.8v1.6h-4.2v-7.9zM130 213.6h-2.4v-1.4c0-.4 0-.6-.1-.7-.1-.1-.2-.1-.3-.1-.2 0-.3.1-.4.2-.1.1-.1.4-.1.8v3.7c0 .4 0 .6.1.8.1.1.2.2.4.2s.3-.1.3-.2c.1-.1.1-.4.1-.8v-1h2.4v.3c0 .8-.1 1.4-.2 1.7-.1.3-.4.6-.9.9-.5.3-1 .4-1.7.4s-1.3-.1-1.7-.3c-.5-.2-.8-.5-.9-.9-.1-.4-.2-1-.2-1.7V213c0-.6 0-1 .1-1.3 0-.3.2-.6.4-.8.2-.3.5-.5.9-.6.4-.2.9-.2 1.4-.2.7 0 1.3.1 1.7.4.5.2.8.5.9.9.1.3.2.9.2 1.6v.6zM136.3 210.2v7.9h-2.4v-3.3h-.7v3.3h-2.4v-7.9h2.4v2.8h.7v-2.8h2.4z"/><path fill="#FFF" stroke="#000" stroke-width=".77" stroke-miterlimit="10" d="M202.2 219.7h-61.6c-.8 0-1.5-.7-1.5-1.5v-8.6c0-.8.6-1.4 1.3-1.3h62c.7-.2 1.3.5 1.3 1.3v8.6c0 .8-.6 1.5-1.5 1.5z"/><path fill="#F5A722" d="M142.1 210.1h4v1.6h-1.6v1.5h1.5v1.5h-1.5v1.7h1.8v1.6h-4.2v-7.9zM152.3 210.1v7.9h-2.1l-1.2-3.6v3.6h-2v-7.9h2l1.3 3.6v-3.6h2zM158.7 213h-2.4v-.7c0-.5 0-.7-.1-.8 0-.1-.2-.2-.3-.2-.1 0-.2 0-.3.1-.1.1-.1.3-.1.8v3.8c0 .4 0 .6.1.7.1.1.2.2.3.2.2 0 .3-.1.4-.2.1-.1.1-.4.1-.7v-1h-.5v-1.2h2.8v4.2h-1.5l-.2-.6c-.2.2-.4.4-.6.5-.2.1-.5.2-.9.2s-.8-.1-1.1-.3c-.4-.2-.6-.4-.8-.6-.2-.2-.3-.5-.3-.8 0-.3-.1-.7-.1-1.2V213c0-.8 0-1.3.1-1.6.1-.3.4-.7.8-.9.4-.3 1-.4 1.7-.4s1.3.1 1.7.4.8.5.9.9c.1.3.2.8.2 1.5v.1zM162 210.1v7.9h-2.4v-7.9h2.4zM168.3 210.1v7.9h-2.1l-1.2-3.6v3.6h-2v-7.9h2l1.3 3.6v-3.6h2zM169.3 210.1h4v1.6h-1.6v1.5h1.5v1.5h-1.5v1.7h1.8v1.6h-4.2v-7.9zM174.1 210.1h4v1.6h-1.6v1.5h1.5v1.5h-1.5v1.7h1.8v1.6h-4.2v-7.9zM179 210.1h1.7c1.1 0 1.9 0 2.3.1.4.1.7.3 1 .6.3.3.4.8.4 1.5 0 .6-.1 1-.3 1.2-.2.2-.5.3-1.1.4.5.1.8.2 1 .4.2.2.3.3.3.5s.1.5.1 1.2v2.1h-2.2v-2.6c0-.4 0-.7-.1-.8-.1-.1-.3-.2-.6-.2v3.6H179v-8zm2.4 1.4v1.8c.3 0 .5 0 .6-.1.1-.1.2-.3.2-.6v-.4c0-.3-.1-.4-.2-.5-.2-.2-.3-.2-.6-.2zM187.7 210.1v7.9h-2.4v-7.9h2.4zM194 210.1v7.9h-2.1l-1.2-3.6v3.6h-2v-7.9h2l1.3 3.6v-3.6h2zM200.4 213H198v-.7c0-.5 0-.7-.1-.8 0-.1-.2-.2-.3-.2-.1 0-.2 0-.3.1-.1.1-.1.3-.1.8v3.8c0 .4 0 .6.1.7.1.1.2.2.3.2.2 0 .3-.1.4-.2.1-.1.1-.4.1-.7v-1h-.5v-1.2h2.8v4.2h-1.5l-.2-.6c-.2.2-.4.4-.6.5-.2.1-.5.2-.9.2s-.8-.1-1.1-.3c-.4-.2-.6-.4-.8-.6-.2-.2-.3-.5-.3-.8 0-.3-.1-.7-.1-1.2V213c0-.8 0-1.3.1-1.6.1-.3.4-.7.8-.9.4-.3 1-.4 1.7-.4s1.3.1 1.7.4.8.5.9.9.2.8.2 1.5v.1z"/><g><path stroke="#000" stroke-width=".435" stroke-miterlimit="10" d="M81.8 209.1l-1.7-1-.3-1.5c-.2-.7-.4-1.3-.7-2l1.1-.7v-.2l-2.2-3.8c0-.1-.1-.1-.1-.1l-1.1.7c-.4-.6-.9-1.1-1.4-1.5-.4-.4-.7-.7-1.1-1v-2c0-.1 0-.1-.1-.2l-3.1-1.8c-.1 0-.1 0-.1.1v2c-.9-.3-1.7-.4-2.5-.2l-1.3-2.1c0-.1-.1-.1-.1-.1L65 195v.2l1.3 2.1c-.5.6-.8 1.3-1 2.2l-1.9-1.1c-.1 0-.1 0-.1.1v3.5c0 .1 0 .1.1.2l1.9 1.1c.1.4.2.9.3 1.4.2.7.4 1.4.7 2.1l-1.3.7v.1l2.1 3.8c0 .1.1.1.1.1l1.4-.7c.4.5.8 1 1.3 1.5.4.4.7.7 1.1 1v2.1c0 .1 0 .1.1.2l3.1 1.8c.1 0 .1 0 .1-.1V215c.9.3 1.7.4 2.4.3l1.2 2.1c0 .1.1.1.1.1l2.2-1.2v-.1l-1.2-2.1c.5-.6.8-1.3 1-2.2l1.7 1c.1 0 .1 0 .1-.1v-3.5c.1-.1.1-.2 0-.2z"/><path fill="#E6E7E8" stroke="#000" stroke-width=".303" stroke-miterlimit="10" d="M77.3 208.2c0 2.9-2.1 4.1-4.6 2.6-2.6-1.5-4.6-5.1-4.6-8s2.1-4.1 4.6-2.6 4.6 5.1 4.6 8z"/><path stroke="#000" stroke-width=".435" stroke-miterlimit="10" d="M75 207c0 1.5-1 2.1-2.3 1.3s-2.3-2.5-2.3-4 1-2.1 2.3-1.3 2.3 2.5 2.3 4z"/></g></svg>