<svg xmlns="http://www.w3.org/2000/svg" viewBox="0 0 283.5 283.5" id="roomWorks"><path fill="#B7B7B8" stroke="#545553" stroke-width="1.144" stroke-miterlimit="10" d="M15.2,94.6l11.2,6.5v101.6l-11.3-6.3	L15.2,94.6C15.1,94.6,15.2,94.6,15.2,94.6z"/><path fill="#E2E2E1" d="M25.9,223.4l64.4,36.9c0.1,0.1,0.3,0.1,0.4,0.1l108.5,0.2c0.2,0,0.3,0,0.4-0.1 c3.7-2.1,56.3-32.3,65.1-37.6c0.6-0.3,0.6-1.2,0-1.5l-79.6-46c-0.2-0.1-0.3-0.1-0.5-0.1l-88.1,6.1c-0.1,0-0.3,0-0.4,0.1 l-70.2,40.3C25.3,222.2,25.3,223,25.9,223.4z"/><path fill="#B7B7B8" stroke="#545553" stroke-width="1.144" stroke-miterlimit="10" d="M26.6,203.2l64.4,36.9 c0.3,0.2,0.7,0.3,1,0.3l107.8,0.2c0.4,0,0.7-0.1,1-0.3c6-3.5,66.5-38.2,66.1-38.2l0.1-25.8c0-1.8-1.2-3.4-3-3.9L188.7,154 c-0.2-0.1-0.5-0.1-0.8,0L27.4,174.1c-1,0.1-1.8,1-1.8,2.1v25.2C25.6,202.2,26,202.9,26.6,203.2z"/><path fill="#FFEACC" stroke="#696A6A" stroke-width="1.144" stroke-miterlimit="10" d="M146,104.9l120.2,67.9 c0.3,0.2,0.4,0.7,0,0.9L200.3,212l-109.1,0.1c-0.1,0-0.2,0-0.3-0.1l-64.8-37.3c-0.7-0.4-0.7-1.4,0-1.8 C26.2,173,145.8,104.8,146,104.9z"/><path fill="#E0CEB9" stroke="#696A6A" stroke-width="1.144" stroke-miterlimit="10" d="M146.4 32L146.4 104.4 266.5 173.7 266 100.9z"/><g stroke="#545553" stroke-width="1.315" stroke-miterlimit="10"><path fill="#FCBC56" d="M206.4 74.4L206.4 140.6 265.7 174.8 265.9 99.9 213.3 69.7z"/><path fill="#FFD998" d="M213,75.3l-6.2-1.2 c-0.1,0-0.2-0.2-0.1-0.3l5.6-3.8c0.4-0.3,0.9,0,0.9,0.5L213,75.3z"/></g><path fill="#F7923F" stroke="#545553" stroke-width="1.605" stroke-miterlimit="10" d="M174.8,122.5l-57.6,31.9 c-1.4,0.8-1.4,2.9,0,3.6l29.6,15.5c1.5,0.8,1.5,2.9,0,3.6l-28.2,15.5c-1.4,0.8-1.3,2.6,0.1,3.2l32.7,15.6c0.3,0.1,0.6,0.2,1,0.2 l48,0.1c0.4,0,0.7-0.1,1.1-0.3l61.3-36.1c1.5-0.9,1.5-3.1,0-4l-86-48.9C176.2,122.1,175.4,122.1,174.8,122.5z"/><path fill="#E0CEB9" stroke="#696A6A" stroke-width="1.144" stroke-miterlimit="10" d="M26.1 173.7L26.1 101.3 146.3 32 145.8 104.8z"/><path fill="#FFEACC" stroke="#696A6A" stroke-width="1.144" stroke-miterlimit="10" d="M26.1,101.3L15.2,95c0,0,0-0.1,0-0.1 l131.1-75.2l130.8,74.8c0,0,0,0.1,0,0.1l-11.2,6.3L146.3,32L26.1,101.3z"/><path fill="#B7B7B8" stroke="#545553" stroke-width="1.144" stroke-miterlimit="10" d="M266,202.7l11.3-6.5V94.6c0,0,0-0.1-0.1,0 l-11.2,6.3V202.7z"/><path fill="#FDBD56" stroke="#545453" stroke-width="1.545" stroke-miterlimit="10" d="M38.9,106.6v49.9c0,0.1,0.1,0.1,0.2,0.1 l55-31c0,0,0.1-0.1,0.1-0.1v-50c0-0.1-0.1-0.1-0.2-0.1L38.9,106.6C39,106.5,38.9,106.6,38.9,106.6z"/><path fill="#FFF" stroke="#545453" stroke-width="1.545" stroke-miterlimit="10" d="M38.9,144.6v-38c0,0,0-0.1,0.1-0.1 l43.6-24.6c0.1,0,0.2,0,0.2,0.1v37.6c0,0,0,0.1-0.1,0.1l-43.6,25C39,144.7,38.9,144.7,38.9,144.6z"/><path fill="#FFF" stroke="#545453" stroke-width="1.545" stroke-linecap="round" stroke-miterlimit="10" d="M82.7 119.6L93 125.3"/><path fill="#E2E2E1" stroke="#555655" stroke-width="1.315" stroke-miterlimit="10" d="M124.1,61.7l0.5,4.9L112,74l-0.9-5.1 l-2.3,1.8l11,71.7l2.8-1.6l-0.4-3.7l12.7-7.6l0.7,4.7l2.4-1.3l-11.2-72.8L124.1,61.7z M133.4,120.8l0.9,5.5l-12.7,7.6l-0.9-5.6 L133.4,120.8z M132.9,117.8l-12.7,7.5l-0.9-5.5l12.7-7.5L132.9,117.8z M113.4,82.5l-0.9-5.5l12.6-7.4l0.9,5.4L113.4,82.5z M113.9,85.5l12.6-7.4l0.9,5.5L114.7,91L113.9,85.5z M127.9,86.6l0.9,5.5l-12.7,7.5l-0.9-5.5L127.9,86.6z M129.3,95.1l0.9,5.5 l-12.7,7.5l-0.9-5.5L129.3,95.1z M118.8,116.7l-0.9-5.5l12.7-7.5l0.9,5.5L118.8,116.7z"/><g><path d="M93 221.9h2.3c.6 0 1.1 0 1.4.1.3.1.6.2.8.4.2.2.3.3.3.6.1.2.1.6.1 1v.7c0 .5-.1.8-.2 1-.1.2-.3.4-.6.5-.3.1-.7.2-1.2.2h-.6v3H93V221.9zM95.2 223.2v1.9c.1 0 .1 0 .2 0 .2 0 .4 0 .4-.1.1-.1.1-.3.1-.5v-.6c0-.3 0-.4-.1-.5C95.7 223.2 95.5 223.2 95.2 223.2zM98.5 221.9h1.6c1.1 0 1.8 0 2.2.1.4.1.7.3.9.5.2.3.4.8.4 1.4 0 .6-.1 1-.3 1.2-.2.2-.5.3-1 .4.4.1.8.2.9.4.2.2.3.3.3.4 0 .1.1.5.1 1.1v2h-2.1v-2.5c0-.4 0-.6-.1-.7-.1-.1-.3-.1-.6-.1v3.4h-2.3V221.9zM100.8 223.2v1.7c.3 0 .4 0 .5-.1.1-.1.2-.3.2-.6v-.4c0-.2 0-.4-.1-.5C101.2 223.2 101.1 223.2 100.8 223.2zM109.7 226.3c0 .8 0 1.3-.1 1.6 0 .3-.2.6-.4.9-.2.3-.5.5-.9.6-.4.1-.8.2-1.3.2-.5 0-.9-.1-1.3-.2-.4-.1-.7-.3-.9-.6-.2-.3-.4-.5-.4-.9 0-.3-.1-.8-.1-1.6V225c0-.8 0-1.3.1-1.6 0-.3.2-.6.4-.9.2-.3.5-.5.9-.6.4-.1.8-.2 1.3-.2.5 0 .9.1 1.3.2.4.1.7.3.9.6s.4.5.4.9c0 .3.1.8.1 1.6V226.3zM107.4 223.8c0-.3 0-.6-.1-.7 0-.1-.1-.1-.3-.1-.1 0-.2 0-.3.1-.1.1-.1.3-.1.7v3.5c0 .4 0 .7.1.8 0 .1.1.2.3.2.2 0 .3-.1.3-.2 0-.1.1-.4.1-.8V223.8zM110.5 221.9h3.8v1.5h-1.6v1.4h1.4v1.4h-1.4v3.1h-2.3V221.9zM119.5 221.9v1.5h-1.3v6h-2.3v-6h-1.3v-1.5H119.5zM120 221.9h3.8v1.5h-1.5v1.4h1.4v1.4h-1.4v1.6h1.7v1.5H120V221.9zM129.9 225.2h-2.3v-1.3c0-.4 0-.6-.1-.7 0-.1-.2-.1-.3-.1-.2 0-.3.1-.4.2-.1.1-.1.4-.1.7v3.5c0 .4 0 .6.1.7.1.1.2.2.3.2.2 0 .3-.1.3-.2.1-.1.1-.4.1-.8v-.9h2.3v.3c0 .8-.1 1.3-.2 1.6-.1.3-.4.6-.8.9-.4.2-1 .4-1.6.4-.7 0-1.2-.1-1.6-.3-.4-.2-.7-.5-.9-.9-.1-.4-.2-.9-.2-1.6v-2.2c0-.5 0-.9.1-1.2 0-.3.2-.5.4-.8.2-.2.5-.4.9-.6.4-.1.8-.2 1.3-.2.7 0 1.2.1 1.7.3.4.2.7.5.9.8.1.3.2.8.2 1.5V225.2zM136 221.9v7.5h-2.3v-3.1H133v3.1h-2.3v-7.5h2.3v2.7h.7v-2.7H136z"/><path fill="#FFF" stroke="#000" stroke-width=".701" stroke-miterlimit="10" d="M198.5,230.9H140c-0.8,0-1.4-0.6-1.4-1.4 v-8.1c0-0.7,0.5-1.3,1.2-1.2c0.2,0,0.3,0,0.5,0h57.9c0.2,0,0.3,0,0.5,0c0.7-0.1,1.2,0.5,1.2,1.2v8.1 C199.9,230.3,199.3,230.9,198.5,230.9z"/><g fill="#F5A722"><path d="M141 221.8h3.8v1.5h-1.5v1.4h1.4v1.4h-1.4v1.6h1.7v1.5H141V221.8zM150.7 221.8v7.5h-2l-1.2-3.4v3.4h-1.9v-7.5h1.9l1.3 3.4v-3.4H150.7zM156.8 224.6h-2.3v-.7c0-.4 0-.7-.1-.8 0-.1-.1-.2-.3-.2-.1 0-.2 0-.3.1-.1.1-.1.3-.1.7v3.6c0 .3 0 .6.1.7.1.1.2.2.3.2.2 0 .3-.1.3-.2.1-.1.1-.4.1-.7v-.9h-.5v-1.1h2.7v4h-1.4l-.2-.5c-.2.2-.4.4-.6.5-.2.1-.5.2-.8.2-.4 0-.7-.1-1.1-.2-.3-.2-.6-.4-.8-.6-.2-.2-.3-.5-.3-.7 0-.3-.1-.6-.1-1.2v-2.2c0-.7 0-1.2.1-1.6.1-.3.3-.6.8-.9.4-.3 1-.4 1.7-.4.7 0 1.2.1 1.7.4.4.2.7.5.9.8.1.3.2.8.2 1.4V224.6zM160 221.8v7.5h-2.3v-7.5H160zM166 221.8v7.5h-2l-1.2-3.4v3.4h-1.9v-7.5h1.9l1.3 3.4v-3.4H166zM166.9 221.8h3.8v1.5h-1.5v1.4h1.4v1.4h-1.4v1.6h1.7v1.5h-3.9V221.8zM171.5 221.8h3.8v1.5h-1.5v1.4h1.4v1.4h-1.4v1.6h1.7v1.5h-3.9V221.8zM176.1 221.8h1.6c1.1 0 1.8 0 2.2.1.4.1.7.3.9.5.2.3.4.8.4 1.4 0 .6-.1 1-.3 1.2-.2.2-.5.3-1 .4.4.1.8.2.9.4.2.2.3.3.3.4 0 .1.1.5.1 1.1v2H179v-2.5c0-.4 0-.6-.1-.7-.1-.1-.3-.1-.6-.1v3.4h-2.3V221.8zM178.3 223.1v1.7c.3 0 .4 0 .5-.1.1-.1.2-.3.2-.6v-.4c0-.2 0-.4-.1-.5C178.8 223.1 178.6 223.1 178.3 223.1zM184.3 221.8v7.5H182v-7.5H184.3zM190.3 221.8v7.5h-2l-1.2-3.4v3.4h-1.9v-7.5h1.9l1.3 3.4v-3.4H190.3zM196.4 224.6h-2.3v-.7c0-.4 0-.7-.1-.8 0-.1-.1-.2-.3-.2-.1 0-.2 0-.3.1-.1.1-.1.3-.1.7v3.6c0 .3 0 .6.1.7.1.1.2.2.3.2.2 0 .3-.1.3-.2.1-.1.1-.4.1-.7v-.9h-.5v-1.1h2.7v4H195l-.2-.5c-.2.2-.4.4-.6.5-.2.1-.5.2-.8.2-.4 0-.7-.1-1.1-.2-.3-.2-.6-.4-.8-.6-.2-.2-.3-.5-.3-.7 0-.3-.1-.6-.1-1.2v-2.2c0-.7 0-1.2.1-1.6.1-.3.3-.6.8-.9.4-.3 1-.4 1.7-.4.7 0 1.2.1 1.7.4.4.2.7.5.9.8.1.3.2.8.2 1.4V224.6z"/></g></g><g stroke="#000" stroke-miterlimit="10"><path stroke-width=".332" d="M85.5,221.7l-1.3-0.7c-0.1-0.4-0.1-0.8-0.2-1.2 c-0.1-0.5-0.3-1-0.5-1.5l0.9-0.5c0,0,0-0.1,0-0.1l-1.7-2.9c0,0-0.1-0.1-0.1-0.1l-0.9,0.5c-0.3-0.4-0.7-0.8-1-1.2 c-0.3-0.3-0.6-0.5-0.9-0.8v-1.5c0,0,0-0.1-0.1-0.1l-2.3-1.4c0,0-0.1,0-0.1,0v1.5c-0.7-0.2-1.3-0.3-1.9-0.2l-1-1.6 c0,0-0.1-0.1-0.1-0.1l-1.6,1c0,0,0,0.1,0,0.1l1,1.6c-0.4,0.4-0.6,1-0.7,1.7l-1.4-0.8c0,0-0.1,0-0.1,0v2.7c0,0,0,0.1,0.1,0.1 l1.4,0.8c0.1,0.3,0.1,0.7,0.2,1c0.1,0.5,0.3,1,0.5,1.6l-1,0.5c0,0,0,0.1,0,0.1l1.6,2.9c0,0,0.1,0.1,0.1,0.1l1-0.6 c0.3,0.4,0.6,0.8,1,1.1c0.3,0.3,0.6,0.5,0.9,0.8v1.6c0,0,0,0.1,0.1,0.1l2.3,1.4c0,0,0.1,0,0.1,0v-1.6c0.7,0.2,1.3,0.3,1.8,0.2 l0.9,1.6c0,0,0.1,0.1,0.1,0.1l1.7-0.9c0,0,0-0.1,0-0.1l-0.9-1.6c0.4-0.4,0.6-1,0.8-1.7l1.3,0.8c0,0,0.1,0,0.1,0v-2.7 C85.5,221.8,85.5,221.8,85.5,221.7z"/><path fill="#E6E7E8" stroke-width=".231" d="M82,221.1c0,2.2-1.6,3.1-3.5,2 c-2-1.1-3.5-3.9-3.5-6.1s1.6-3.1,3.5-2C80.4,216.2,82,218.9,82,221.1z"/><path stroke-width=".332" d="M80.3,220.2c0,1.1-0.8,1.6-1.8,1c-1-0.6-1.8-1.9-1.8-3 s0.8-1.6,1.8-1C79.5,217.7,80.3,219,80.3,220.2z"/></g></svg>