<svg xmlns="http://www.w3.org/2000/svg" viewBox="0 0 283.5 283.5" id="storage"><path fill="#D1D3D4" stroke="#545453" stroke-width=".917" stroke-miterlimit="10" d="M5.9,172.4l104.4,65.4c0.9,0.6,2.1,0.6,3,0	l162.3-100.9c1.8-1.1,1.8-3.7,0-4.8L171,67.4c-0.9-0.6-2.1-0.6-3,0L5.9,167.6C4.1,168.7,4.1,171.3,5.9,172.4z"/><path fill="#FFDA99" stroke="#545453" stroke-width=".49" stroke-miterlimit="10" d="M111.8,218.7V173c0,0,0,0,0,0l-44.1-52.3	l-39.5,0c0,0-0.1,0-0.1,0l0.1,45.9L111.8,218.7C111.8,218.8,111.8,218.8,111.8,218.7z"/><path fill="#FFEBCC" stroke="#545453" stroke-width=".455" stroke-miterlimit="10" d="M111.8,218.7V173c0,0,0,0,0,0l143.8-89.4	c0,0,0.1,0,0.1,0.1v45.9L111.8,218.7C111.9,218.8,111.8,218.7,111.8,218.7z"/><path fill="none" stroke="#545453" stroke-width=".604" stroke-miterlimit="10" d="M28.3 120.7l26 .2c0 0 0 20.7 0 20.7l-26-16.2L28.3 120.7C28.2 120.7 28.2 120.7 28.3 120.7zM111.8 177.1l-26.8-16.9c0 0 .1-18.8.1-18.7l26.6 31.6C111.7 173 111.8 177.1 111.8 177.1z"/><path fill="#FDBD56" stroke="#545453" stroke-width=".49" stroke-miterlimit="10" d="M212.7,31.3l43,52.1c0,0,0,0.1,0,0.1	l-143.8,89.4c0,0,0,0,0,0l-44.1-52.1L212.7,31.3C212.7,31.3,212.7,31.3,212.7,31.3z"/><path fill="#F7923F" stroke="#545453" stroke-width=".49" stroke-miterlimit="10" d="M28.3,120.7l144.2-89.4h40.1	c0,0,0.1,0.1,0,0.1L67.7,120.8C67.7,120.8,28.2,120.7,28.3,120.7z"/><path fill="#FDBD56" stroke="#545453" stroke-width=".49" stroke-miterlimit="10" d="M54.3 120.8L58 120.8 58.1 185.3 54.5 183zM84.9 202.1L81.7 200 81.7 137.3 85 141.4z"/><path fill="#A7A9AC" stroke="#545453" stroke-width=".231" stroke-miterlimit="10" d="M28 125.1L28 137.5 54.5 154.1 54.5 141.6z"/><path fill="#FFEBCC" stroke="#545453" stroke-width=".455" stroke-miterlimit="10" d="M28.9 137.1L28.9 125.6 28 125.1 28 137.5zM54.5 153L28.9 137.1 28 137.6 54.5 154.1z"/><path fill="none" stroke="#545453" stroke-width=".231" stroke-miterlimit="10" d="M32.7 127.9L32.7 139.3M37.3 130.8L37.3 142.2M41.8 133.7L41.8 145M46.3 136.5L46.3 147.9M50.9 139.2L50.9 150.6"/><path fill="#A7A9AC" stroke="#545453" stroke-width=".231" stroke-miterlimit="10" d="M85.2 160.7L85.2 173.2 111.7 189.7 111.7 177.2z"/><path fill="#FFEBCC" stroke="#545453" stroke-width=".455" stroke-miterlimit="10" d="M86.1 172.7L86.1 161.2 85.2 160.7 85.2 173.2z"/><path fill="#FFEBCC" stroke="#545453" stroke-width=".455" stroke-miterlimit="10" d="M111.7 188.6L86.1 172.7 85.2 173.2 111.7 189.7z"/><path fill="none" stroke="#545453" stroke-width=".231" stroke-miterlimit="10" d="M89.9 163.6L89.9 174.9M94.4 166.5L94.4 177.8M98.9 169.3L98.9 180.7M103.5 172.2L103.5 183.5M108 174.9L108 186.2"/><path fill="#D1D3D4" stroke="#545453" stroke-width=".231" stroke-miterlimit="10" d="M138.3 160.6L138.3 173 111.8 189.6 111.8 177.1z"/><path fill="#FFDA99" stroke="#545453" stroke-width=".49" stroke-miterlimit="10" d="M137.5 172.6L137.5 161.1 138.3 160.6 138.3 173zM111.8 188.5L137.5 172.6 138.3 173.1 111.8 189.6z"/><path fill="none" stroke="#545453" stroke-width=".231" stroke-miterlimit="10" d="M133.7 163.4L133.7 174.8M129.1 166.3L129.1 177.7M124.6 169.2L124.6 180.5M120.1 172L120.1 183.4M115.5 174.8L115.5 186.1"/><path fill="#D1D3D4" stroke="#545453" stroke-width=".231" stroke-miterlimit="10" d="M168.5 141.8L168.5 154.3 142 170.8 142 158.3z"/><path fill="#FFDA99" stroke="#545453" stroke-width=".49" stroke-miterlimit="10" d="M167.6 153.8L167.6 142.3 168.5 141.8 168.5 154.3z"/><path fill="#FFDA99" stroke="#545453" stroke-width=".49" stroke-miterlimit="10" d="M142 169.7L167.6 153.8 168.5 154.3 142 170.8z"/><path fill="none" stroke="#545453" stroke-width=".231" stroke-miterlimit="10" d="M163.9 144.6L163.9 156M159.3 147.6L159.3 158.9M154.8 150.4L154.8 161.8M150.2 153.2L150.2 164.6M145.7 156L145.7 167.3"/><path fill="#D1D3D4" stroke="#545453" stroke-width=".231" stroke-miterlimit="10" d="M255.8 87.6L255.8 100 229.4 116.6 229.4 104.1z"/><path fill="#FFDA99" stroke="#545453" stroke-width=".49" stroke-miterlimit="10" d="M255 99.6L255 88.1 255.8 87.6 255.8 100zM229.4 115.5L255 99.6 255.8 100.1 229.4 116.6z"/><path fill="none" stroke="#545453" stroke-width=".231" stroke-miterlimit="10" d="M251.2 90.4L251.2 101.8M246.6 93.4L246.6 104.7M242.1 96.2L242.1 107.5M237.6 99L237.6 110.4M233 101.8L233 113.1"/><path fill="#D1D3D4" stroke="#545453" stroke-width=".231" stroke-miterlimit="10" d="M225.9 106.3L225.9 118.8 199.4 135.3 199.4 122.9z"/><path fill="#FFDA99" stroke="#545453" stroke-width=".49" stroke-miterlimit="10" d="M225 118.4L225 106.9 225.9 106.3 225.9 118.8zM199.4 134.3L225 118.4 225.9 118.9 199.4 135.3z"/><path fill="none" stroke="#545453" stroke-width=".231" stroke-miterlimit="10" d="M221.3 109.2L221.3 120.6M216.7 112.1L216.7 123.5M212.2 114.9L212.2 126.3M207.7 117.8L207.7 129.2M203.1 120.5L203.1 131.9"/><path fill="#FDBD56" stroke="#545453" stroke-width=".49" stroke-miterlimit="10" d="M138.4 156.4L142 154.2 142 200.1 138.4 202.3zM168.5 137.6L172 135.5 172.1 181.3 168.5 183.6zM195.8 120.7L199.4 118.5 199.4 164.4 195.8 166.6zM226 102L229.5 99.8 229.6 145.7 226 147.9zM61.5 187.1v-40.8c0-.2.2-.2.3-.2l16.9 10.2v41.9L61.5 187.1zM175.4 137.6L175.4 179.3 192.4 168.7 192.4 127zM28.4 162.6L58 181.1 58 185.3 28.3 166.7zM84.9 198.2L111.8 214.5 111.8 218.7 84.9 202.1z"/><path fill="#FDBD56" stroke="#545453" stroke-width=".49" stroke-miterlimit="10" d="M168.5 179.3L111.8 214.5 111.8 218.7 168.5 183.6zM255.7 125.3L195.8 162.4 195.8 166.6 255.7 129.5z"/><path fill="#F7923F" stroke="#545453" stroke-width=".49" stroke-miterlimit="10" d="M65 189.5l-3.5-2.2v-41.1c0-.2.2-.3.4-.2l3.2 2L65 189.5zM192.3 127.3l-3.5 2.2v41.1c0 .2.2.3.4.2l3.2-2L192.3 127.3z"/><path fill="#FDBD56" stroke="#545453" stroke-width=".49" stroke-miterlimit="10" d="M91.5 206.1L91.5 185.3 101.8 191.8 101.8 212.5z"/><path fill="#F7923F" stroke="#545453" stroke-width=".49" stroke-miterlimit="10" d="M95,208.2l-3.5-2.2v-20.3	c0-0.2,0.2-0.3,0.4-0.2l3.2,2L95,208.2z"/><path fill="none" stroke="#545453" stroke-width=".49" stroke-miterlimit="10" d="M118.4 168.9L74.9 116.4 34.6 116.8"/><path fill="none" stroke="#545453" stroke-width=".49" stroke-miterlimit="10" d="M55.1 104.1L94.9 104.1 138.5 156.6"/><path fill="none" stroke="#545453" stroke-width=".49" stroke-miterlimit="10" d="M48.3 108.3L88.2 108.3 131.8 160.8"/><path fill="none" stroke="#545453" stroke-width=".49" stroke-miterlimit="10" d="M41.8 112.3L81.7 112.3 125.2 164.8M81.7 87.6L121.9 87.4 165.4 139.9"/><path fill="none" stroke="#545453" stroke-width=".49" stroke-miterlimit="10" d="M75.1 91.7L115.3 91.7 158.8 144.2"/><path fill="none" stroke="#545453" stroke-width=".49" stroke-miterlimit="10" d="M68.6 95.7L108.4 95.7 152 148.2"/><path fill="none" stroke="#545453" stroke-width=".49" stroke-miterlimit="10" d="M61.8 99.9L101.8 99.9 145.3 152.4M102.1 74.9L142 74.9 185.5 127.5M135.3 78.9L178.8 131.4"/><path fill="none" stroke="#545453" stroke-width=".49" stroke-miterlimit="10" d="M88.7 83.2L128.5 83.2 172.1 135.7M122.1 62.5L162 62.5 205.5 115"/><path fill="none" stroke="#545453" stroke-width=".49" stroke-miterlimit="10" d="M115.4 66.7L155.3 66.7 198.8 119.2"/><path fill="none" stroke="#545453" stroke-width=".49" stroke-miterlimit="10" d="M108.5 70.9L148.7 70.7 192.2 123.2M135.4 54.2L175.5 54.1 219 106.6"/><path fill="none" stroke="#545453" stroke-width=".49" stroke-miterlimit="10" d="M128.6 58.4L168.9 58.5 212.3 110.5M155.5 41.8L195.7 41.6 239.2 94.1"/><path fill="none" stroke="#545453" stroke-width=".49" stroke-miterlimit="10" d="M148.9 45.9L189 45.7 232.5 98.2"/><path fill="none" stroke="#545453" stroke-width=".49" stroke-miterlimit="10" d="M142.4 49.9L182.3 49.9 225.8 102.4"/><path fill="none" stroke="#545453" stroke-width=".49" stroke-miterlimit="10" d="M162.1 37.7L202.4 37.3 245.9 89.8"/><path fill="none" stroke="#545453" stroke-width=".49" stroke-miterlimit="10" d="M168.8 33.5L209.2 33.2 252.8 85.7"/><path opacity=".5" fill="none" stroke="#545453" stroke-width=".49" stroke-miterlimit="10" d="M95.2 79.2L135.6 79.2"/><path stroke="#000" stroke-width=".266" stroke-miterlimit="10" d="M187.9,149.9l-1,0.6c0-0.3-0.1-0.5-0.2-0.7	c-0.1-0.3-0.2-0.5-0.4-0.8l0.7-1.2c0,0,0-0.1,0-0.1l-1.3-0.8c0,0-0.1,0-0.1,0l-0.7,1.2c-0.3,0-0.5,0-0.8,0c-0.2,0-0.4,0.1-0.7,0.2	v-1.2c0,0,0-0.1-0.1,0l-1.8,1.1c0,0-0.1,0.1-0.1,0.1v1.3c-0.5,0.5-1,1-1.5,1.7l-0.8-0.4c0,0-0.1,0-0.1,0l-1.3,2.4c0,0,0,0.1,0,0.1	l0.7,0.4c-0.3,0.7-0.5,1.4-0.6,2.1l-1.1,0.7c0,0-0.1,0.1-0.1,0.1v2.2c0,0,0,0.1,0.1,0l1.1-0.7c0,0.2,0.1,0.4,0.2,0.7	c0.1,0.3,0.2,0.6,0.4,0.8l-0.8,1.4c0,0,0,0.1,0,0.1l1.3,0.8c0,0,0.1,0,0.1,0l0.8-1.4c0.2,0,0.5,0,0.8,0c0.2,0,0.4-0.1,0.7-0.2v1.3	c0,0,0,0.1,0.1,0l1.8-1.1c0,0,0.1-0.1,0.1-0.1v-1.3c0.5-0.4,1-1,1.4-1.6l0.7,0.5c0,0,0.1,0,0.1,0l1.3-2.4c0,0,0-0.1,0-0.1l-0.7-0.5	c0.3-0.7,0.5-1.4,0.6-2.1l1-0.6c0,0,0.1-0.1,0.1-0.1L187.9,149.9C187.9,149.9,187.9,149.9,187.9,149.9z"/><path fill="#E6E7E8" stroke="#000" stroke-width=".185" stroke-miterlimit="10" d="M185.2,152.7c0,1.9-1.2,4.1-2.7,5.1	c-1.5,0.9-2.7,0.2-2.7-1.7c0-1.9,1.2-4.1,2.7-5.1C184,150.1,185.2,150.8,185.2,152.7z"/><path stroke="#000" stroke-width=".266" stroke-miterlimit="10" d="M183.8 153.6c0 .9-.6 2.1-1.4 2.5s-1.4.1-1.4-.8c0-.9.6-2.1 1.4-2.5S183.8 152.6 183.8 153.6zM77.5 177.1l-1-.6c0 .3-.1.5-.2.7-.1.3-.2.5-.4.8l.7 1.2c0 0 0 .1 0 .1l-1.3.8c0 0-.1 0-.1 0l-.7-1.2c-.3 0-.5 0-.8 0-.2 0-.4-.1-.7-.2v1.2c0 0 0 .1-.1 0l-1.8-1.1c0 0-.1-.1-.1-.1v-1.3c-.5-.5-1-1-1.5-1.7l-.8.4c0 0-.1 0-.1 0l-1.3-2.4c0 0 0-.1 0-.1l.7-.4c-.3-.7-.5-1.4-.6-2.1l-1.1-.7c0 0-.1-.1-.1-.1v-2.2c0 0 0-.1.1 0l1.1.7c0-.2.1-.4.2-.7.1-.3.2-.6.4-.8l-.8-1.4c0 0 0-.1 0-.1l1.3-.8c0 0 .1 0 .1 0l.8 1.4c.2 0 .5 0 .8 0 .2 0 .4.1.7.2v-1.3c0 0 0-.1.1 0l1.8 1.1c0 0 .1.1.1.1v1.3c.5.4 1 1 1.4 1.6l.7-.5c0 0 .1 0 .1 0l1.3 2.4c0 0 0 .1 0 .1l-.7.5c.3.7.5 1.4.6 2.1l1 .6c0 0 .1.1.1.1L77.5 177.1C77.5 177.1 77.5 177.2 77.5 177.1z"/><path fill="#E6E7E8" stroke="#000" stroke-width=".185" stroke-miterlimit="10" d="M74.8,174.4c0-1.9-1.2-4.1-2.7-5.1	c-1.5-0.9-2.7-0.2-2.7,1.7c0,1.9,1.2,4.1,2.7,5.1C73.6,177,74.8,176.2,74.8,174.4z"/><path stroke="#000" stroke-width=".266" stroke-miterlimit="10" d="M73.5,173.5c0-0.9-0.6-2.1-1.4-2.5s-1.4-0.1-1.4,0.8	s0.6,2.1,1.4,2.5S73.5,174.4,73.5,173.5z"/><path d="M83.2 122.6l2.5-1.6c.7-.4 1.2-.7 1.7-.9.4-.2.8-.2 1.1-.2.3 0 .6.1.8.3.2.2.5.5.8.9l.5.6c.3.4.5.8.6 1.1 0 .3-.1.6-.3.9-.3.3-.7.6-1.2 1l-.7.4 2.2 2.8-2.5 1.6L83.2 122.6zM86.7 122.3L88 124c.1 0 .1-.1.2-.1.2-.1.4-.3.4-.4 0-.1-.1-.3-.3-.6l-.4-.6c-.2-.2-.4-.4-.5-.4C87.2 122 87 122.1 86.7 122.3zM89.4 118.8l1.8-1.1c1.2-.7 2-1.2 2.5-1.4.5-.2.9-.2 1.4-.1.5.1.9.4 1.4 1 .4.5.6 1 .6 1.3 0 .3-.3.6-.8 1 .6-.2 1-.3 1.3-.3.3 0 .5.1.6.2.1.1.4.4.9 1l1.4 1.8-2.3 1.5-1.8-2.3c-.3-.4-.5-.6-.7-.6-.2 0-.4.1-.7.3l2.4 3.1-2.5 1.6L89.4 118.8zM92.8 118.4L94 120c.3-.2.5-.3.5-.5.1-.1 0-.3-.2-.6l-.3-.4c-.2-.2-.3-.3-.5-.3C93.3 118.2 93.1 118.3 92.8 118.4zM104.9 115.2c.5.7.9 1.2 1.1 1.5.2.3.2.7.2 1.1-.1.4-.2.8-.5 1.2-.3.4-.7.7-1.3 1.1-.5.3-1 .6-1.5.7s-1 .2-1.4.1c-.4-.1-.8-.3-1.1-.5-.3-.3-.7-.7-1.2-1.4l-.9-1.2c-.5-.7-.9-1.2-1.1-1.5-.2-.3-.2-.7-.2-1.1.1-.4.2-.8.5-1.2.3-.4.7-.7 1.3-1.1.5-.3 1-.6 1.5-.7.5-.1 1-.2 1.4-.1.4.1.8.3 1.1.5.3.3.7.7 1.2 1.4L104.9 115.2zM100.6 114.5c-.3-.3-.4-.5-.6-.6-.1-.1-.3 0-.4.1-.1.1-.2.2-.2.3 0 .1.1.4.4.7l2.5 3.2c.3.4.5.6.6.7.1.1.3 0 .4-.1.2-.1.2-.2.2-.4 0-.1-.2-.4-.5-.8L100.6 114.5zM102.7 110.6l4.3-2.6 1.1 1.4-1.7 1.1 1 1.3 1.6-1 1 1.3-1.6 1 2.3 2.9-2.5 1.6L102.7 110.6zM112.6 104.4l1.1 1.4-1.5.9 4.3 5.5-2.5 1.6-4.3-5.5-1.5.9-1.1-1.4L112.6 104.4zM113.2 104.1l4.2-2.6 1.1 1.4-1.7 1 1 1.3 1.6-1 1 1.3-1.6 1 1.2 1.5 1.8-1.1 1.1 1.4-4.4 2.7L113.2 104.1zM126.5 100.3l-2.5 1.6-.9-1.2c-.3-.3-.5-.5-.6-.6-.1-.1-.3 0-.5.1-.2.1-.3.3-.3.4 0 .1.2.4.4.7l2.5 3.2c.3.3.5.5.6.6.1.1.3 0 .5-.1.2-.1.3-.2.2-.4 0-.1-.2-.4-.5-.8l-.7-.9 2.5-1.6.2.3c.6.7.9 1.3 1 1.6.1.4 0 .8-.3 1.4-.3.5-.8 1-1.5 1.4-.7.5-1.4.7-2 .8-.6.1-1.1 0-1.6-.2-.4-.2-.9-.7-1.4-1.4l-1.6-2c-.4-.5-.7-.9-.8-1.2-.1-.3-.2-.6-.1-1 .1-.4.2-.8.6-1.2.3-.4.7-.8 1.3-1.1.7-.5 1.4-.7 2.1-.8.6-.1 1.2 0 1.5.2.4.2.8.6 1.3 1.3L126.5 100.3zM130.8 93.1l5.4 6.9-2.5 1.6-2.3-2.9-.8.5 2.3 2.9-2.5 1.6-5.4-6.9 2.5-1.6 1.9 2.5.8-.5-1.9-2.5L130.8 93.1z"/><path fill="#FFF" stroke="#000" stroke-width=".899" stroke-miterlimit="10" d="M206.5,58.4l-64.7,40.2	c-0.8,0.5-2,0.4-2.5-0.4l-5.8-7.5c-0.6-0.7-0.3-1.7,0.7-2l64.7-40.2c0.7-0.8,1.8-0.6,2.4,0.1l5.8,7.5	C207.6,56.9,207.3,57.9,206.5,58.4z"/><g fill="#F5A722"><path d="M136.3 89.6l4.2-2.6 1.1 1.4-1.7 1 1 1.3 1.6-1 1 1.3-1.6 1 1.2 1.5 1.8-1.1 1.1 1.4-4.4 2.7L136.3 89.6zM147 82.9l5.4 6.9-2.2 1.4-3.8-2.3 2.4 3.1-2.1 1.3-5.4-6.9 2.1-1.3 3.8 2.2-2.4-3.1L147 82.9zM155.8 81.2l-2.5 1.6-.5-.6c-.3-.4-.5-.6-.6-.7-.1-.1-.3 0-.5.1-.2.1-.2.2-.2.3 0 .1.2.4.4.7l2.6 3.3c.2.3.4.5.6.6.1.1.3 0 .4-.1.2-.1.3-.2.2-.4 0-.2-.2-.4-.4-.7l-.6-.8-.5.3-.8-1 2.9-1.8 2.9 3.7-1.6 1-.6-.3c0 .3-.1.6-.3.9-.2.3-.4.5-.8.7-.4.3-.9.4-1.4.5-.5.1-.9.1-1.3 0-.4-.1-.7-.2-.9-.5-.2-.2-.5-.5-.9-1l-1.6-2c-.5-.7-.8-1.2-1-1.5-.1-.4-.1-.8.2-1.4.3-.5.8-1 1.5-1.5.7-.5 1.4-.7 2.1-.8.7-.1 1.2 0 1.5.2.4.2.8.6 1.2 1.2L155.8 81.2zM157.3 76.5l5.4 6.9-2.5 1.6-5.4-6.9L157.3 76.5zM163.9 72.4l5.4 6.9-2.2 1.4-3.8-2.3 2.4 3.1-2.1 1.3-5.4-6.9 2.1-1.3 3.8 2.2-2.4-3.1L163.9 72.4zM164.9 71.8l4.2-2.6 1.1 1.4-1.7 1 1 1.3 1.6-1 1 1.3-1.6 1 1.2 1.5 1.8-1.1 1.1 1.4-4.4 2.7L164.9 71.8zM170 68.6l4.2-2.6 1.1 1.4-1.7 1 1 1.3 1.6-1 1 1.3-1.6 1 1.2 1.5 1.8-1.1 1.1 1.4-4.4 2.7L170 68.6zM175.1 65.5l1.8-1.1c1.2-.7 2-1.2 2.5-1.4.5-.2.9-.2 1.4-.1.5.1.9.4 1.4 1 .4.5.6 1 .6 1.3 0 .3-.3.6-.8 1 .6-.2 1-.3 1.3-.3.3 0 .5.1.6.2.1.1.4.4.9 1l1.4 1.8-2.3 1.5L182 68c-.3-.4-.5-.6-.7-.6-.2 0-.4.1-.7.3l2.4 3.1-2.5 1.6L175.1 65.5zM178.5 65.1l1.2 1.5c.3-.2.5-.3.5-.5.1-.1 0-.3-.2-.6l-.3-.4c-.2-.2-.3-.3-.5-.3C179.1 64.8 178.8 64.9 178.5 65.1zM184.2 59.8l5.4 6.9-2.5 1.6-5.4-6.9L184.2 59.8zM190.8 55.7l5.4 6.9L194 64l-3.8-2.3 2.4 3.1-2.1 1.3-5.4-6.9 2.1-1.3 3.8 2.2-2.4-3.1L190.8 55.7zM199.6 54l-2.5 1.6-.5-.6c-.3-.4-.5-.6-.6-.7-.1-.1-.3 0-.5.1-.2.1-.2.2-.2.3 0 .1.2.4.4.7l2.6 3.3c.2.3.4.5.6.6.1.1.3 0 .4-.1.2-.1.3-.2.2-.4 0-.2-.2-.4-.4-.7l-.6-.8-.5.3-.8-1 2.9-1.8 2.9 3.7-1.6 1-.6-.3c0 .3-.1.6-.3.9-.2.3-.4.5-.8.7-.4.3-.9.4-1.4.5-.5.1-.9.1-1.3 0-.4-.1-.7-.2-.9-.5-.2-.2-.5-.5-.9-1l-1.6-2c-.5-.7-.8-1.2-1-1.5-.1-.4-.1-.8.2-1.4.3-.5.8-1 1.5-1.5.7-.5 1.4-.7 2.1-.8.7-.1 1.2 0 1.5.2.4.2.8.6 1.2 1.2L199.6 54z"/></g></svg>