<svg xmlns="http://www.w3.org/2000/svg" viewBox="0 0 3401.6 1284.1"><path fill="#fcfcfc" d="M3401.5,1153.2v-794c0-0.9,0-1.8,0.1-2.7V0H0v806.6c0.9,5.7,1,11.5,0.1,17.3c0,2,0,3.9-0.1,5.9v2.2	c0.1,1.4,0.2,2.8,0.2,4.3c0,1.4-0.1,2.8-0.2,4.2c0.4,4.5,0.9,9,0.7,13.6c-0.1,3.4-0.3,6.8-0.6,10.2v178.1c0,0.1,0,0.3,0.1,0.4	c0.8,4.1,1.3,8.3,1.3,12.5c0,3.7-0.4,7.3-1,10.9v141.8c0.1,2.1,0.3,4.2,0.4,6.3c0.4,8.7,0.3,17.3-0.4,26v44h3.8	c3.2-0.5,6.4-0.8,9.7-0.8h832.7c23.2,0,46.4,0,69.5,0c132.7-0.2,265.3-0.8,398-1.4c132.6-0.6,265.2-1.2,397.8-1.2	c6.2,0,12.2,1,17.9,2.7c41.5,0,82.9,0,124.4,0c145.8,0.1,291.7,0.2,437.5,0.4c145.8,0.1,291.7,0.2,437.5,0.2c1.2,0,2.4,0,3.6,0.1	h668.7v-128.2C3401.5,1155,3401.5,1154.1,3401.5,1153.2z"/><path fill="#414042" stroke="#414042" stroke-width="13" stroke-miterlimit="10" d="M1573.8,474.4L1438,439.8V227.1	c0-0.4-0.3-0.8-0.6-0.9l-202.8-81.4L407.9,36.2l-233.6,102c-0.9,0.4-2.4,4.5-2.4,4.5v145.6L62.5,305.6c-9.3,1.5-11.5,13.8-3.3,18.4	l811,454c65.8,36.8,146.1,36.2,211.4-1.4l494.6-285.3C1583.3,487.2,1581.8,476.5,1573.8,474.4z"/><path fill="#6D6E71" stroke="#000" stroke-width="5.82" stroke-miterlimit="10" d="M980.6 360.8L964 365.5 964 162.4 980.6 159.8z"/><path fill="#808285" stroke="#000" stroke-width="5.82" stroke-miterlimit="10" d="M1104.1 395.4L1087.2 401 1087.2 177.6 1104.1 174.5z"/><path fill="#58595B" stroke="#000" stroke-width="5.82" stroke-miterlimit="10" d="M1421.8,220.1l-190.5-77.2	c-0.1,0-0.2-0.1-0.4-0.1L880.4,98.2c-0.3,0-0.6,0-0.9,0.2l-60.1,33.2c-1.2,0.7-0.9,2.5,0.5,2.7l601,89.1	C1422.9,223.7,1423.7,220.8,1421.8,220.1z"/><path fill="#FFF" stroke="#000" stroke-width=".97" stroke-miterlimit="10" d="M951.3 726.9L952.2 362.2"/><path fill="#6D6E71" stroke="#000" stroke-width="5.82" stroke-miterlimit="10" d="M1253.1 437.1L1236.9 443.5 1236.9 204.7 1253.1 201.1zM860.3 329.2L843.6 333.3 843.6 143.1 860.3 140.8z"/><path fill="#A7A9AC" stroke="#000" stroke-width="5.82" stroke-miterlimit="10" d="M982.8 714L952 729.4 952 356 1233.9 145.2 982.8 347.4z"/><path fill="#FFF" stroke="#000" stroke-width="5.82" stroke-miterlimit="10" d="M1431.2,485.3l-0.2,0.1	c-5,2.5-11-1.1-11-6.8V235.6c0-3.4,2.3-6.4,5.5-7.3l0.2,0c4.8-1.4,9.6,2.3,9.6,7.3v242.9C1435.4,481.4,1433.8,484,1431.2,485.3z"/><path fill="#F1F2F2" stroke="#000" stroke-width="5.82" stroke-miterlimit="10" d="M598.4,226c-8.9-2.2-18.1-2.6-27.2-1.2	L75.1,303.6c-13.4,2.1-16.6,20-4.7,26.6L870.2,778c65.8,36.8,146.1,36.2,211.4-1.4l485.1-279.9c10.6-6.1,8.4-22-3.4-25L598.4,226z M969.8,714.7l-51.1,0c-0.7,0-1.4-0.2-2-0.5l-744-374c-0.1-0.1-0.1-0.2,0-0.3l420.9-75.9c0.3-0.1,0.7-0.1,1-0.1l27.6,1.2	c1.3,0.1,2.5,0.7,3.3,1.7l347.8,440.6C975.6,710.4,973.5,714.7,969.8,714.7z"/><path fill="#FFF" stroke="#000" stroke-width="5.82" stroke-miterlimit="10" d="M610.4,256.4l-437.7,79.1	c-0.4,0.1-0.9-0.2-0.9-0.5V142.7L410.6,38.7l199.8,59.8V256.4z"/><path fill="#D1D3D4" stroke="#000" stroke-width="5.82" stroke-linecap="round" stroke-miterlimit="10" d="M948.8,730.8	L1422,486.2c4.2-2.1,8.1-3.6,3.6-5L596,224.2l32.9,60.2l694.7,203.4L956.2,657.5L164,293.2"/><path fill="#6D6E71" stroke="#000" stroke-width="6.18" stroke-miterlimit="10" d="M773.6 328.9L758.2 332.9 758.2 133.1 773.6 130.8z"/><path fill="none" stroke="#000" stroke-width="5.82" stroke-miterlimit="10" d="M612.1,102.7c0,0,817.5,121.3,811.6,122.8	L947.9,358.2c3.5-0.9,3.2-0.9,2.8-1c0,0-767.9-217.5-765.6-217.8l426.5-42.6C611.8,96.8,611.9,102.7,612.1,102.7z"/><path fill="#6D6E71" stroke="#000" stroke-width="5.82" stroke-miterlimit="10" d="M679.9 280.5L663.7 283.6 663.7 117 679.9 115.2z"/><path fill="#FFF" d="M1900.8,488.1c-1.9-9.7-4.3-19.2-7.7-28.4c-0.2-3-1-6.1-2.4-9c-2.3-4.5-5-8.9-8-13c0.3-4.1-0.5-8.3-2.6-11.7	c-4.1-7-11.1-10-18.3-9.6c-3.7-3.6-8.5-5.8-13.8-5.8c-24.9-11.3-56.6-13.8-81.8-3.6c-13.2,5.3-24.3,13.3-32.7,24.5	c-4.6,4.2-8.6,9.3-12,15.1c-3.1,5.5-5.4,11.3-7.1,17.4c-2.2,1.6-4.2,3.5-6.1,5.7c-11.8,13.9-11.5,30.9-9,48	c3.7,24.8,8.9,51.4,24.4,71.8c5.4,7.1,13.4,11.4,21.7,9.5c21.4,13.3,45.7,21.5,71.4,20.3c30-1.5,56.1-16.3,74.3-39.8	c9.2-11.9,13.3-26.3,15.1-41C1908.2,521.8,1904.1,504.4,1900.8,488.1z"/><path fill="none" stroke="#414042" stroke-width="5.82" stroke-miterlimit="10" d="M766.8,309.9l283-189.2l212.1,78.6L767.1,310.6	C766.7,310.7,766.4,310.2,766.8,309.9z"/><path fill="none" stroke="#000" stroke-width="5.82" stroke-miterlimit="10" d="M765.4 83.6L980.6 158.8"/><path fill="#FFF" stroke="#000" stroke-width="5.82" stroke-miterlimit="10" d="M196 330.5L172.7 334.7 172.7 142.6 196 140.2zM614 255.3L598.1 258.2 598.1 99.8 614 98.2z"/><path fill="none" stroke="#414042" stroke-width="5.82" stroke-miterlimit="10" d="M608.5 265.9L889.1 99.4 1104.3 174.2z"/><path fill="#A7A9AC" stroke="#000" stroke-width="5.82" stroke-miterlimit="10" d="M785,623.9l-21.1,8.4	c-2.7,1.1-5.6-0.9-5.6-3.8V313.3c0-0.5,0.3-0.9,0.8-1l290.7-191.6L788.9,304.4c-0.9,0.6-1.3,1.7-1.3,2.8c0,0,0,0,0,0v312.8	C787.6,621.7,786.6,623.3,785,623.9z"/><path fill="#A7A9AC" stroke="#000" stroke-width="5.82" stroke-miterlimit="10" d="M640.1 548.5L611.1 558.1 611.1 264.9 889.1 99.4 640.1 259.6z"/><path fill="#FFF" stroke="#000" stroke-width="5.82" stroke-miterlimit="10" d="M516.4 486.1L488.8 493.9 488.8 231.7 516.4 227.3zM413.8 436.3L387.4 442.8 387.4 203.1 413.8 199.4zM328.9 395.1L303.6 400.6 303.6 179.5 328.9 176.4zM251.7 357.5L227.5 362.3 227.5 158 251.7 155.4z"/><path fill="#F1F2F2" stroke="#000" stroke-width="5.82" stroke-miterlimit="10" d="M952,356L174.5,141.4	c-1.5-0.4-1.7-2.5-0.3-3.2l233.6-102l826.1,109L952,356z"/><path fill="#FFF" stroke="#414042" stroke-width="5.82" stroke-miterlimit="10" d="M229.7 159L476.7 47M305.6 180.5L562.2 57.9M384.9 202.9L649.9 69"/><path fill="#939598" stroke="#000" stroke-width="5.82" stroke-miterlimit="10" d="M1406.1,1281.4c0,0,1261.6,3.9,1261.9,2.5	c29.5-39.7,229.2-383.3-1340.2-747.2L1145.7,629C1145.8,629.5,2303.8,880.2,1406.1,1281.4z"/><path fill="none" stroke="#414042" stroke-width="5.82" stroke-miterlimit="10" d="M488.7 234.3L762.5 85.2"/><path fill="#D1D3D4" stroke="#000" stroke-width="5.82" stroke-miterlimit="10" d="M174.7,140.9l777.5,215.3l-0.6,371.1	c0,2.2-2.4,3.7-4.4,2.7l-774-388.8V140.7C173.2,139.6,174,140.7,174.7,140.9z"/><g fill="#FFEACC"><path d="M2108.6 46.3C2108.5 46.3 2108.5 46.3 2108.6 46.3L2108.6 46.3zM2765.1 291.9c0-.9-.1-1.8-.2-2.7-.3-3.3-.6-6.6-1-10-.8-7-4.3-13.1-10.2-15.9-.3-.9-.6-1.7-1-2.5-2.1-4.8-5.9-8.3-10.3-10.8-.5-4.8-76.1-39.3-111.9-45-9.7-4.1-19.3-8.3-29-12.4 0-.2 0-.3 0-.5 0-10.1-8-16.8-17.5-17.5-5-.4-10-.8-15-1.2-14.4-11.7-29.7-22.2-45.8-31.3-27.2-15.4-143.9-61.6-174.8-65.9-4.5-.6-9-1.1-13.5-1.4-37.7-12.7-75.5-25.5-113.2-38.2-22.5-7.6-45.7-16.7-69.9-12.6-10.8 1.8-19.8 7.1-28.4 13.6-4 3.1-4.7 3.6-2.3 1.8-.8.6-1.5 1.2-2.3 1.7-1.9 1.4-3.8 2.7-5.8 3.9-.3.2-.7.4-1 .5-.5.2-1.5.7-2 .9-.7-.1-1.3-.2-1.6-.2.1 0 .5.1 1.1.2-1.3-.2-2.5-.3-3.8-.5-7.6-.8-15 6-16.9 12.8-.2.9-.4 1.8-.5 2.8-4.1.6-8.1 1.2-12.2 1.7-12.5 1.7-25 3.4-37.5 5.1l-19.7 2.7c-6.2.8-10 4.6-13.3 9.6-.6.8-1.1 1.7-1.7 2.5 0 0-.1.1-.1.1-4.7 0-9.5.5-14.3 1.4-18.4 3.4-36.1 16-44.5 32.8-.3.5-.5 1.1-.7 1.7-7.4 2.3-13 7.8-13 16.5 0 8.6-10.8 30.5-10.8 30.5s72.4-22.8 94.1-29.1c55.6 10 112.5 9.4 167.7-1.9 3.4 3 7.1 5.8 11 8.3-1.9 1.4-3.5 3.2-4.3 5.1-1.6 3.7-3.5 7.1-5.8 10.4-.1.2-.2.3-.3.4-.5.6-1.1 1.3-1.6 1.9-1.3 1.5-2.8 2.9-4.2 4.3-1.2 1.2-2.6 2.3-3.9 3.4 1.3-1.1-2.8 1.9-3.3 2.2-3.8 2.5-7.8 4.6-12 6.6-.2.1-.3.1-.5.2-1.1.4-2.2.9-3.3 1.3-2.3.9-4.7 1.6-7 2.3-4.7 1.4-9.6 2.6-14.4 3.6-10.4 2.2-21 3.5-31.5 5-44.1 6.1-88.2 12.2-132.4 18.3-7.6 1-12.8 9.9-12.8 16.9 0 2.2.5 4.4 1.3 6.5-.7 2.8-.8 5.9 0 8.9 6.5 25.1 28.5 40.8 52.1 48.2 11.8 3.7 24.2 5.1 36.3 6.9 5.8.9 11.6 1.9 17.4 3.2 2.9.7 5.7 1.5 8.5 2.3 1.6.5 3.2 1.1 4.8 1.7-1.6.8-3.3 1.5-4.9 2.3-7 3.3-10 12.7-8 19.8.8 2.8 2.2 5.2 4 7.1-.6 1.1-1.1 2.3-1.4 3.5-4 16.1.6 32.2 11.6 44.4 6 6.7 14.4 10.1 22.6 13.2.1 0 3 1.2 3.2 1.2.8.4 1.7.9 2.5 1.4-1.1-.7-.2 0 .6.7.6 3.7 2.3 7 4.7 9.6.6 3.4 1.3 6.8 2 10.1-2.3 2.1-4.1 4.8-4.8 8.1-5.2 24.2 2.6 51.2 22.4 66.9 2.3 1.9 4.9 3.3 7.5 4.2 1.3 1.6 2.9 3 4.8 4 .8.4 1.6.9 2.4 1.4.6.6 1.2 1.2 1.8 1.9 0 0 0 0 .1.1.5.7.9 1.5 1.3 2.3 0 0 0 0 0 .1.2.7.4 1.4.6 2.1.2 2.7 1 5.3 2.4 7.7 5.6 9.6 17.8 15.3 28.3 17.4.1 0 .1 0 .2 0 1.3 5.6 5.3 10.7 12.1 12.8 23.1 7 46.3 14.1 69.4 21.1 23.1 7 46.5 13.5 70.7 7.9.4-.1.7-.2 1.1-.3 2.7 1.9 5.9 2.9 9.3 2.5 4.3-.5 8.2-1.5 11.9-2.8 4.4 3.8 10.3 4.9 16.3 3.8 5.6-1 10.7-4.3 14.4-8.7.5-.1 1-.2 1.5-.3.6-.1 1-.2 1.2-.2.4 0 .7-.1 1.1-.1 10.4-1.1 20.8-1.9 31.2-2.8 20.6-1.8 41.1-3.7 61.7-5.5 20.6-1.8 41.1-3.7 61.7-5.5 5.2-.5 10.3-.9 15.5-1.4 2.1 2.7 5 4.7 8.9 5.2 8.7 1.3 17.4 1.5 25.9.2 0 0 0 0 .1 0 .1 0 .3 0 .4 0 .2 0 .6.1 1 .2 1.5.2 3 .6 4.5.9 3.5.8 6.9 1.8 10.3 3 1.2.4 2.3.9 3.5 1.3-2-.8 1.8.9 2.2 1.1 3.2 1.5 6.3 3.3 9.3 5.2 1.3.8 2.5 1.7 3.8 2.6.2.1.4.3.5.4.6.5 1.3 1.1 1.9 1.6 2.7 2.3 5.2 4.8 7.6 7.5 7.4 8.1 22.4 6.2 27.5-3.5 1.5-2.9 2.8-5.9 4-8.9 1.2-.2 2.5-.5 3.7-.9 12.4-4.3 18.4-14.6 20.4-26.1 0 0 31.8-34.4 22.5-35 11.1-13.1 17.9-30.2 22.6-46.3 8.2-28.4 14.6-57.7 19.6-86.8C2764.2 347.3 2766.9 319.5 2765.1 291.9z"/></g><path fill="#FDBD56" stroke="#545453" stroke-width="6.85" stroke-miterlimit="10" d="M334.8 285.6L381.7 303.4 381.7 444.4 334.8 420.5z"/><path fill="#FFDA99" stroke="#545453" stroke-width="6.85" stroke-miterlimit="10" d="M184.4 218.1L930.4 478.2 930.2 394.1 184.4 172z"/><path fill="#FDBD56" stroke="#545453" stroke-width="6.85" stroke-miterlimit="10" d="M484.1 335.5L550.7 360.6 550.7 529.4 484.1 495.6z"/><path fill="#FFF" stroke="#414042" stroke-width="15.55" stroke-miterlimit="10" d="M581.5,634.4c0,6.9-5.6,12.4-12.4,12.4 H77.8c-6.9,0-12.4-5.6-12.4-12.4V413.6c0-6.9,5.6-12.4,12.4-12.4h491.3c6.9,0,12.4,5.6,12.4,12.4V634.4z"/><path d="M138 434h19.6c5.3 0 9.4.4 12.2 1.1 2.9.7 5 1.7 6.4 3.1 1.4 1.3 2.4 3 2.9 4.9.5 1.9.8 4.9.8 8.9v5.6c0 4.1-.5 7.1-1.5 9-1 1.9-2.8 3.3-5.4 4.3-2.6 1-6.1 1.5-10.3 1.5h-5.2v25.9H138V434zM157.5 445v16.3c.6 0 1 0 1.4 0 1.8 0 3-.4 3.7-1.1.7-.8 1-2.3 1-4.7v-5.3c0-2.2-.4-3.6-1.2-4.3C161.7 445.3 160 445 157.5 445zM185.6 434h13.8c9.2 0 15.4.3 18.7.9 3.3.6 5.9 2.2 8 4.7 2.1 2.5 3.1 6.5 3.1 12 0 5-.7 8.4-2.2 10.1-1.5 1.7-4.3 2.8-8.6 3.1 3.9.8 6.4 1.9 7.8 3.3 1.3 1.4 2.2 2.6 2.5 3.8.3 1.1.5 4.3.5 9.5v16.9H211v-21.3c0-3.4-.3-5.6-.9-6.4-.6-.8-2.3-1.2-5-1.2v28.9h-19.5V434zM205 445v14.3c2.2 0 3.7-.3 4.6-.8.9-.5 1.3-2.2 1.3-5v-3.5c0-2-.4-3.4-1.3-4C208.8 445.3 207.3 445 205 445zM281.1 471.6c0 6.5-.2 11-.5 13.7-.4 2.7-1.5 5.1-3.3 7.4-1.9 2.2-4.4 3.9-7.6 5.1-3.2 1.2-6.9 1.8-11.1 1.8-4 0-7.6-.6-10.8-1.7-3.2-1.1-5.8-2.8-7.7-5.1-1.9-2.2-3.1-4.7-3.5-7.3-.4-2.6-.6-7.3-.6-13.9v-11c0-6.5.2-11 .5-13.7.4-2.7 1.5-5.1 3.3-7.4 1.9-2.2 4.4-3.9 7.6-5.1 3.2-1.2 6.9-1.8 11.1-1.8 4 0 7.6.6 10.8 1.7 3.2 1.1 5.8 2.8 7.7 5.1 1.9 2.2 3.1 4.7 3.5 7.3.4 2.6.6 7.3.6 13.9V471.6zM261.6 450.5c0-3-.2-4.9-.6-5.7-.4-.8-1.2-1.2-2.4-1.2-1 0-1.8.3-2.3 1-.5.7-.8 2.7-.8 6v30c0 3.7.2 6 .5 6.9.4.9 1.2 1.3 2.5 1.3 1.3 0 2.2-.5 2.5-1.5.4-1 .6-3.4.6-7.2V450.5zM288.4 434h33v12.8h-13.5V459h12v12.2h-12v27h-19.5V434zM365.3 434v12.8h-11.6v51.4h-19.5v-51.4h-11.5V434H365.3zM369.8 434h32.5v12.8h-13V459h12.2v12.2h-12.2v14.1h14.3v12.8h-33.8V434zM454.7 462h-19.5v-11.2c0-3.2-.2-5.3-.6-6.1-.4-.8-1.3-1.2-2.8-1.2-1.6 0-2.6.5-3.1 1.5-.4 1-.6 3.1-.6 6.3v29.8c0 3.1.2 5.2.6 6.1.4 1 1.4 1.4 2.9 1.4 1.4 0 2.4-.5 2.8-1.4.4-1 .7-3.2.7-6.7v-8.1h19.5v2.5c0 6.6-.5 11.4-1.6 14.1-1.1 2.8-3.5 5.2-7.3 7.3-3.7 2.1-8.4 3.1-13.9 3.1-5.7 0-10.4-.9-14.1-2.7-3.7-1.8-6.2-4.2-7.4-7.4-1.2-3.1-1.8-7.8-1.8-14.1v-18.8c0-4.6.2-8.1.6-10.4.4-2.3 1.5-4.5 3.3-6.7 1.8-2.1 4.4-3.8 7.6-5.1 3.3-1.2 7-1.8 11.2-1.8 5.7 0 10.5 1 14.2 2.9 3.7 1.9 6.2 4.3 7.4 7.1 1.2 2.8 1.8 7.3 1.8 13.2V462zM506.4 434v64.2H487v-27h-5.8v27h-19.5V434h19.5v23h5.8v-23H506.4z"/><path fill="#FFF" stroke="#000" stroke-width="4.79" stroke-miterlimit="10" d="M512.3,587H128.9c-5,0-9.1-4.2-9.1-9.3 v-53.4c0-5.1,4.1-9.3,9.1-7.6h383.4c5-1.7,9.1,2.5,9.1,7.6v53.4C521.4,582.8,517.3,587,512.3,587z"/><g fill="#F5A722"><path d="M138.6 527.4h24.8v9.8h-9.9v9.3h9.3v9.3h-9.3v10.8h10.9v9.8h-25.8V527.4zM201.9 527.4v49.1h-13.1l-7.7-22.3v22.3h-12.5v-49.1h12.5l8.4 22.1v-22.1H201.9zM242.1 545.5h-14.9V541c0-2.8-.1-4.6-.4-5.3-.3-.7-1-1.1-2-1.1-.9 0-1.5.3-1.9.9-.3.6-.5 2.2-.5 4.7v23.6c0 2.2.2 3.7.5 4.4.3.7 1 1 2 1 1.1 0 1.8-.4 2.2-1.2.4-.8.6-2.3.6-4.6v-5.8h-3v-7.5h17.4v26.3h-9.4l-1.4-3.5c-1 1.5-2.3 2.7-3.8 3.4-1.5.8-3.4 1.1-5.5 1.1-2.5 0-4.8-.5-7-1.6-2.2-1-3.8-2.3-5-3.9-1.1-1.5-1.8-3.1-2.1-4.8-.3-1.7-.4-4.2-.4-7.6v-14.6c0-4.7.3-8.1.9-10.2.6-2.1 2.3-4.1 5.1-5.8 2.8-1.8 6.4-2.7 10.8-2.7 4.4 0 8 .8 10.9 2.3 2.9 1.5 4.8 3.4 5.6 5.5.9 2.1 1.3 5.2 1.3 9.2V545.5zM262.7 527.4v49.1h-14.9v-49.1H262.7zM302 527.4v49.1h-13.1l-7.7-22.3v22.3h-12.5v-49.1h12.5l8.4 22.1v-22.1H302zM308 527.4h24.8v9.8h-9.9v9.3h9.3v9.3h-9.3v10.8h10.9v9.8H308V527.4zM338.1 527.4h24.8v9.8H353v9.3h9.3v9.3H353v10.8h10.9v9.8h-25.8V527.4zM368.2 527.4h10.5c7 0 11.8.2 14.3.7 2.5.5 4.5 1.7 6.1 3.6 1.6 1.9 2.4 5 2.4 9.1 0 3.8-.6 6.4-1.7 7.7-1.1 1.3-3.3 2.1-6.5 2.4 2.9.6 4.9 1.5 5.9 2.5 1 1.1 1.6 2 1.9 2.9.2.9.4 3.3.4 7.3v12.9h-13.8v-16.3c0-2.6-.2-4.3-.7-4.9-.5-.6-1.8-.9-3.8-.9v22.1h-14.9V527.4zM383.1 535.8v10.9c1.7 0 2.8-.2 3.5-.6s1-1.7 1-3.8v-2.7c0-1.6-.3-2.6-1-3.1C386 536.1 384.8 535.8 383.1 535.8zM422.1 527.4v49.1h-14.9v-49.1H422.1zM461.3 527.4v49.1h-13.1l-7.7-22.3v22.3h-12.5v-49.1h12.5l8.4 22.1v-22.1H461.3zM501.5 545.5h-14.9V541c0-2.8-.1-4.6-.4-5.3-.3-.7-1-1.1-2-1.1-.9 0-1.5.3-1.9.9-.3.6-.5 2.2-.5 4.7v23.6c0 2.2.2 3.7.5 4.4.3.7 1 1 2 1 1.1 0 1.8-.4 2.2-1.2.4-.8.6-2.3.6-4.6v-5.8h-3v-7.5h17.4v26.3h-9.4l-1.4-3.5c-1 1.5-2.3 2.7-3.8 3.4-1.5.8-3.4 1.1-5.5 1.1-2.5 0-4.8-.5-7-1.6-2.2-1-3.8-2.3-5-3.9-1.1-1.5-1.8-3.1-2.1-4.8-.3-1.7-.4-4.2-.4-7.6v-14.6c0-4.7.3-8.1.9-10.2.6-2.1 2.3-4.1 5.1-5.8 2.8-1.8 6.4-2.7 10.8-2.7 4.4 0 8 .8 10.9 2.3 2.9 1.5 4.8 3.4 5.6 5.5.9 2.1 1.3 5.2 1.3 9.2V545.5z"/></g><path fill="none" stroke="#414042" stroke-width="15.55" stroke-linecap="round" stroke-miterlimit="10" d="M162.2 647.5L162.2 784.4M469 647.5L469 778.2"/><path fill="#FDBD56" stroke="#545453" stroke-width="6.85" stroke-miterlimit="10" d="M683.6 411.3L773.6 445.7 773.6 641.7 683.6 596.5zM212.7 244.5L246.6 257.3 246.6 376.8 212.7 359.5z"/><path fill="#FDFEFF" d="M3401.5,453.1c-0.1,0-0.2-0.1-0.3-0.1c-15.6-4.1-36.6-13.7-52.2-17.9c-31.1-8.4-72.6-16.8-102-30	c-149-67-128.7-37-190-57c-41.1-13.4-91.1-39.5-131.9-53.9c-3.4-4.3-9.2-6.9-14.2-6.9c-1.4,0-2.7,0.2-4,0.5c-8-2.9-16-5.7-24.1-8.6	c-3.7-15.8-47.8-25.7-47.7-17.5c-11.2-4.2-22.5-8.4-33.7-12.6c-3.4-1.3-7-1.1-10.3,0.2c-4.9-7.7-9.9-15.5-14.8-23.2	c-5.1-8-15.5-11.2-23.9-6.3c-1.4,0.8-2.7,1.9-3.8,3.1c-6.5,2.6-11.2,9-11.2,16.3c0,9.3,7.6,17.1,16.9,17.5c4,6.3,8,12.6,12,18.9	c-0.2,2.1-0.1,4.2,0.4,6.3c4,17.5,5.2,35.4,3.5,55.3c-0.2,2.8,0.4,5.5,1.7,7.9c-3.5,17.2-6.7,34.5-9.7,51.8	c-7.9,13.3-15.2,26.8-20.4,41.5c-2.8,7.9-4.4,16-7.3,23.9c0.2-0.6-1.2,2.5-1.3,2.7c-0.9,1.8-2.1,3.6-3.3,5.3	c1.6-2.3-0.3-0.1-1.6,1.3c-0.1-0.1-2.9,1.9-3.6,2.3c-8,4-10.6,14.8-7,22.6c-0.3,1.3-0.5,2.6-0.5,3.8c0,0.7,0,1.4,0.1,2.1	c-2.1,1.4-3.9,3.3-5.2,5.5c-2.3,3.9-2.8,8.3-1.9,12.4c-3.5,3.6-5.4,8.9-5.3,13.8c-10.7,5.2-19.6,14.3-26,24.1	c-3.7,5.7-5.9,12.3-8.3,18.6c0.7-1.9-1.2,2.7-1.3,2.7c-0.1,0.3-1.1,1.7-1.4,2.3c-0.4,0.4-0.8,0.8-1,1c-6.2,1.9-10.8,6.9-12.3,12.9	c-1.7-1-3.4-2-5.1-3.1c-3.3-2-6.4-4.2-9.5-6.4c-0.2-0.2-0.4-0.3-0.6-0.4c-0.8-0.6-1.6-1.2-2.3-1.9c-1.7-1.4-3.3-2.8-4.9-4.3	c-3.1-2.8-6.8-4.5-10.7-4.9c-1-1.4-2.2-2.7-3.6-3.7c-3.2-4.4-8.4-7.4-14.2-7.4c-9.5,0-17.5,8-17.5,17.5c0,4.2,1.5,8,4,11.1	c0.5,7.8,2.5,14.9,6.1,21.7c-1.5,1.3-2.9,2.8-3.9,4.6c-4.8,8.2-2,19.2,6.3,23.9c1.9,1.1,3.9,2.1,5.8,3.1c1.4,3.6,3.9,6.7,7.4,8.6	c8.2,4.5,17.2,7.4,26.5,8.4c0.1,0.9,0.2,1.8,0.4,2.8c3.9,16.6,7.8,33.2,11.6,49.8c-3,21.8-4.6,43.5-0.2,65.3	c2.7,13.5,8.3,26.1,16.3,37c-1.5,2.6-2.4,5.5-2.4,8.6c0,9.5,8,17.5,17.5,17.5c3.6,0,7-1.2,9.9-3.1c19.6,11.5,44.8,13.1,66.6,15.7	c16.2,1.9,32.4,3.2,48.6,3.9c1.4,2.8,3,7.2,6.5,7.2c34.9-0.2,90.8,15,115.4,10.5c18.2,3.5,39.3,6.6,48.3,7.7c0,0,0.1,0,0.1,0	c2,0.8,4.1,1.6,6.1,2.3c28.3,10.6,57.2,18.4,86.9,24.3c14,2.8,28.2,5.3,42.3,7.8c5,2.5,10.3,4.5,15.6,6.6	c59.7,24.8,120.4,47.1,181.9,67.1c2.6,0.9,5.3,1.7,7.9,2.5c17.8,9.5,36.4,17.6,56.2,21.7c0.7,0.2,1.5,0.2,2.2,0.3	c8.1,3.3,16.4,5.9,24.9,7.7V453.1z M2898.3,869.3c1.4,1,4.2,2.1,7.8,3.3C2900.6,871.5,2896.7,870.4,2898.3,869.3z"/><path fill="none" stroke="#414042" stroke-width="5.82" stroke-linecap="round" stroke-miterlimit="10" d="M496.8 264.9L496.8 327.5M762.5 345.4L762.5 421.7M616.9 301.9L616.9 367.9M390.8 233L390.8 287.8M305.6 210.9L305.6 260.2M229.7 186L229.7 231.8M616.9 260.2L889.1 99.4M762.5 303.2L1049.8 120.7"/><path fill="#FDBD56" stroke="#000" stroke-width="6.85" stroke-miterlimit="10" d="M1148.7 327.7L1148.7 629.7 1330.9 537.5 1330.9 275.6z"/><path fill="#A7A9AC" stroke="#000" stroke-width="5.82" stroke-miterlimit="10" d="M1234.3,144.2L954.5,353.9	c-0.7,0.5-1.2,1.4-1.2,2.3c0,0-1.6,324.1-1.1,365c0,2.1,1.2,6,3.1,5l481-241c1-0.5,2.7-2.3,2.7-3.4V227.5c0-1.6-1-3-2.5-3.6	l-199.4-80.1C1236.2,143.5,1235.1,143.6,1234.3,144.2z M1330.9,535.3c0,1.1-0.6,2.1-1.6,2.6l-221.9,112l-149.8,75	c-1.9,1-4.2-0.4-4.2-2.6l-0.2-366.1c0-0.9,0.4-1.8,1.2-2.3L1235,143.7c0.3-0.2,0.6,0,0.6,0.3L954.5,353.9c-0.7,0.5-1.2,1.4-1.2,2.3	l0.2,366.1c0,2.1,2.3,3.5,4.2,2.6l189.5-94.8c1-0.5,1.6-1.5,1.6-2.6l0-298.1c0-1.3,0.9-2.4,2.1-2.8l176.4-50.4	c1.8-0.5,3.7,0.9,3.7,2.8V535.3z"/><path fill="#FFF" d="M1253.2,921.7c-3.1-11.2-13.9-15.9-24.6-14c-12.6,2.2-25.1,4.6-37.7,7c4.3-5,8.4-10.1,12.3-15.4	c8.6-11.5-0.1-24.6-11.6-28.6c5.6-3.6,9.3-9.5,9.3-16.7c0-10.3-9.1-20.8-20-20c-11.5,0.8-23.1,1.8-34.6,2.9	c-0.2-6.8-3.1-13-9.6-16.8c-8.9-5.2-22.6-2.6-27.4,7.2c-2.1,4.4-4.2,8.7-6.3,13.1c-32.9,0.2-65.7,5.9-96.8,16.6	c-9.8,1.9-19.6,3.9-29.4,6c-2-8.3-8.5-15-18.7-13.8c-31.8,3.7-63.3,8.9-94.4,15.6c-0.1-0.7-0.2-1.4-0.4-2	c-3.2-11.5-13.8-15.4-24.6-14c-61.7,8.4-122.9,20.5-183.2,36c-19.4,3.5-38.7,6.9-58.1,10.3c-3-2.1-6.8-3.4-11.2-3.3	c-9.3,0.3-18.5,0.8-27.8,1.5c-4.8-5.9-12.9-8-20.9-6.7c-21.9,3.6-43.8,7.3-65.7,10.9c-1.4-11.5-13.4-22-25.4-17.7	c-13.9,5-27.8,10-41.6,14.9c-9.3-6.8-19.3-12.1-29.7-16.3c-2.2-8.5-10.2-16.3-19.4-15.3c-9.2,1.1-18.5,2.1-27.7,3.1	c-24.3-3.6-49.4-4.3-73.4-5.4l-13.9-0.6c-2.5-4.2-6.6-7.5-11.6-8.6c-62.8-13.8-128.6-13.9-191.3-0.2c-2.9,0-5.8,0.7-8.3,1.9	c-9.9,2.4-19.7,5.1-29.4,8.2c-0.1,0.9-0.1,1.7-0.2,2.6v178.2c0,0.1,0,0.3,0.1,0.4c0.8,4.1,1.3,8.3,1.3,12.5c0,3.7-0.4,7.3-1,10.9	V1208c0.1,2.1,0.3,4.1,0.4,6.2c0.4,8.8,0.3,17.5-0.4,26.1v44.5c4.4-1,8.9-1.5,13.5-1.5h28l8.6-15.3c6.6-2.6,13.2-5.2,19.7-7.8	c4.5,7.5,13.5,10.4,22.4,8.9c57.8-9.6,113.6-28.6,165.4-55.5c0.7-0.1,1.5-0.2,2.2-0.3c3.7,4.6,9.3,7.7,15.6,7.6	c78.6-1,157.1-11.3,233.2-30.6c46.4-4.6,92.5-12.3,137.9-22.8c4.6,2.9,10.4,3.9,16,2.5c69.7-16.4,138.6-35.7,206.6-57.8	c4.3,7,12.2,11.5,21.5,8.1c13.7-5,27.1-10.7,40.1-17.1c-1,1.9-1.9,3.9-2.9,5.8c-3.9,8.2-3.6,17.5,3.1,24.2	c6.3,6.3,16.6,7.8,24.2,3.1c24.8-15,48.3-32.1,70.1-51c0.3,1.6,0.9,3.1,1.5,4.6c-2.3,5.1-4.6,10.1-6.9,15.2	c-4.5,9.9-2.9,21.4,7.2,27.4c8.8,5.2,22.7,2.7,27.4-7.2c0.6-1.3,1.3-2.7,1.9-4.1c2.5,5.4,7.9,9.8,13.2,11.3	c10.7,2.9,21.5-3.5,24.6-14c7.9-26.3,15.8-52.6,23.7-78.9c5.2,15.9,11.9,31.3,19.9,46.1c12.3,22.7,46.9,2.5,34.5-20.2	c-10.8-19.9-18.5-41-23-62.8c5.9-2.7,11.8-5.4,17.7-8.2c9.8-4.6,11.7-15.5,8.2-24.4c1.6-0.7,3.2-1.4,4.8-2c4.9-2.1,8-7,9.2-12.3	c16.5-3,32.9-6.2,49.3-9.5C1250,944.1,1256,931.6,1253.2,921.7z"/><path fill="#FFF" d="M2320.1,793c-0.6-0.4-1.2-0.7-1.8-1c-3.7-9.6-13-17-22.6-19.7c-11-3-21.7,0.9-31.5,5.7	c-10.7,0.1-14.4,10.5-24.8,13.2c-9.4,2.4-22.5,2.8-21.7,12.2c-5.5,3.2-11.1,6.4-16.6,9.7c-7.7,4.5-15.2,9.2-22.8,13.9	c-6.2-5.9-6,1.1-14,6.2c-5.1,3.3-20-2.5-25.2,0.8c-17.4,0.7-33.4,10.1-42.3,25.2c-0.6,0.9-1,1.9-1.4,2.9	c-38.6,24.8-77.1,49.6-115.7,74.4c-0.1,0-0.1,0-0.2,0c-0.3,0-0.7,0.1-1.3,0.2c-1.8,0.2-3.6,0.4-5.3,0.6c-7.7,0.9-93,27.6-138.9,18	c-200.7-42-213.1-63.1-215.2-64.2c-1.8-0.9-3.6-1.6-5.5-2c-0.4-2-1.3-4-2.5-5.6c-33.5-45-80-77.9-133.6-94.3	c-28.2-8.6-58.1-11.6-87.6-10.3c-17.5,0.8-35,3.1-52.3,5.6c-5.6,0.8-11.3,1.7-16.9,2.6c0.7-2.8,1.2-5.7,1.3-8.7	c0.4-9.8-4.8-20.4-12-26.8c-7.9-7-17.2-9.5-27.5-10.5c-17.9-1.9-37.2,6.1-54.1,10.8c-28.9,8.1-57.9,16.2-86.8,24.3	c-5-4.8-12.3-7.4-18.9-4.8c-3.9,1.6-7.8,2.9-11.8,4.1c-2.3,0.7-4.6,1.2-6.9,1.7c-0.6,0.1-4.5,0.7-5,0.8c-4.2,0.4-8.5,0.5-12.7,0.5	c-2.4,0-4.8-0.2-7.1-0.4c-0.3,0-0.6-0.1-0.8-0.1c-0.9-0.1-1.8-0.3-2.7-0.5c-6.1-1.1-12.2,2-17,5.1c0,0-87.7,11.3-141.3,37.7	c-3.2-2.3-7.1-3.6-11.2-3.3c-48.9,3.1-97.8,6.3-146.8,9.4c-23,1.5-46.2,2.4-69.2,4.8c-21.4,2.3-42.7,6.6-61.7,16.7	c-0.4,0-0.7,0.1-1.1,0.1c-18.7,3-37,8.1-54.6,15c-1.3,0.1-2.5,0.4-3.8,0.9c-4.5,1.7-9.1,3.1-13.8,4.2c-0.7,0.2-5.8,1-5,1	c-1.9,0.2-3.8,0.3-5.8,0.4c-5.9,0.3-11.4,2.9-15,7c-26.5-7.6-54.2-11.4-81.8-11.4c-0.4-0.9-0.9-1.8-1.4-2.7	c-7.2-12.4-21-16-34.1-17.6c-9-1.1-18.1-2-27.2-2.9c-0.1-0.4-0.2-0.7-0.3-1.1c-3.1-11.3-13.9-15.8-24.6-14c5.2-0.9-1.6-0.1-2.8-0.1	c-0.5,0-0.9,0-1.4-0.1c-0.3-0.1-0.7-0.1-1.3-0.3c-0.7-0.2-4.3-1.5-4.4-1.4c-1.4-0.7-2.7-1.6-4-2.5c-6.5-4.4-15.2-3.4-21.4,0.9	c-35.7-11.5-73-17.2-110.3-14.5c-3.7-4.1-9.1-6.8-15-6.9c-66.4-1.6-132.8,3.2-198.3,13.9c0,2.6-0.2,5.3-0.6,7.9c0,2.4,0,4.8-0.2,7.2	c0.1,1.7,0.2,3.5,0.2,5.2c0,1.4-0.1,2.8-0.2,4.2c0.4,4.5,0.9,9.1,0.7,13.6c-0.1,3.5-0.3,6.9-0.6,10.4v102.8	c15.1,20.6,35.6,37.9,56.3,51.6c30,20,64.4,33.4,98.7,44c39.8,12.3,80.7,20.5,121.9,26.3c24.5,3.5,49,6.1,73.6,8.2	c-23.1,12.1-43.9,28.3-64.3,44.4c-4.3,3.4-6.1,9.7-5.8,15.3c-69.7,7.2-139.1,17.7-207.9,31.2c-22.5,4.4-16.9,39.5,5.3,39.3	c36-0.4,72-1.1,107.9-2.1c-55.9,11.5-111.8,22.9-167.7,34.4c-8.6,1.8-14.7,10.8-14.7,19.3c0,1.7,0.3,3.4,0.8,5.1	c3.1-0.5,6.3-0.8,9.6-0.8h832.7c23.2,0,46.4,0,69.5,0c132.7-0.2,265.3-0.8,398-1.4c23.8-0.1,47.6-0.2,71.4-0.3	c-0.4-4.3-0.7-8.6-1.1-12.9c0.2-0.6,0.3-1.2,0.4-1.9c6.8-44.6,6.9-89.2,0-133.7c15.6,4.2,31.2,8.1,47,11.6	c14.9,11.2,32.7,19,49.8,25.6c27.8,10.7,56.5,19.7,85,28.3c21,6.3,42.5,12,64.2,16.3c23.9,12,48.6,23.4,75,28.2	c25.5,4.7,52.6,3.6,76.4-6.5c0.4-0.1,0.7-0.2,1.1-0.3c71.2-23.7,144.4-48.5,209.9-85.6c24.6-1.7,48.1-10.5,68.2-24.3	c1-0.1,2-0.2,3-0.4c27.7-5.3,60.4-54.6,60.4-56.3c17-15.7,31.8-34,44.1-53.5c6.1-9.7,11-19.9,16.1-30.1c1.7-1.3,3.6-2.7,5.8-4.4	c19.2-14.6,35.8-35.1,53.9-51.1c31.8-28.3,62-56.5,75.8-97.2c2.2-2,4.2-4.1,6-6.5C2334.4,815.9,2331.5,800.2,2320.1,793z M527.3,936.3c0.2-0.3,0.3-0.5,0.4-0.7c0.2-0.2,0.6-0.6,1.2-1.3c1.3-1.5,2.8-2.8,4.3-4.1c0.5-0.4,0.8-0.8,1.1-1	c0.3-0.2,0.6-0.4,1-0.7c2.7-2,5.6-4,8.4-5.8c4.3,0.2,8.7-1.4,12.2-4.1c81.4-7.2,162.6-16.8,243.4-28.8	C729.6,909.6,658.6,925,587,935.9c-17,2.6-32.4,6.1-49.7,5.3c-0.5,0-2.3-0.2-3-0.3c-0.9-0.2-1.8-0.4-2.8-0.6	c-0.8-0.2-1.6-0.4-2.4-0.7c-0.5-0.2-1.9-0.7-2.5-1c-0.1,0-0.1-0.1-0.2-0.1C526.7,937.7,527.1,936.6,527.3,936.3z M87.1,990.8	c-15.7-9.2-25.5-16.5-38.2-28.9c-2.9-2.8-5.6-5.8-8.3-8.8c-1.3-1.5-2.6-3-3.9-4.6c0,0-2.3-3-2.5-3.2c-5-6.8-9.4-14.1-13.3-21.6	c-2.6-5.1-4.9-13.9-5-20.8c0-1,0.1-2,0.1-3.1c0,0,0,0,0-0.1c0.1-0.8,1.3-4,1.4-4.4c0.2-0.4,0.4-0.7,0.6-1.1c0.6-0.6,1-0.9,1-1	c0.6-0.4,1.1-0.7,1.7-1c-2.9,1.7,3.5-0.1,2.1-0.3c0.5,0,1,0,1.4,0c0.3,0.1,0.8,0.2,1.4,0.3c1.3,0.3,2.5,0.7,3.8,1.2	c-1.6-0.8-1.4-0.7,0.8,0.4c2.6,1.2,5,2.7,7.4,4.3c3.9,2.5,6.8,5.2,11.2,9.3c5.3,5,10.1,10.6,15.1,15.9c30,32.4,59.9,64.7,89.9,97.1	C130.6,1012.8,109.1,1003.7,87.1,990.8z M493.9,1134.1c-6.7,0.7-12.7,3.6-16.3,8.6c-10.8,0.5-21.7,1.6-32.4,3.1	c-9.7,0.3-19.5,0.7-29.2,1.1c-20.3-1.9-40.5-3.9-60.8-5.8c16.4-10.1,33.7-18.6,51.6-23.4c35.8-9.6,74.6-5.3,110.9,2.2	c12.5,2.6,24.8,5.5,37.2,8.6C534.6,1130.2,514.3,1132.1,493.9,1134.1z M987.9,1057.2c0.1,4.2,0.2,8.4,0.3,12.6	c-0.1,6.5-0.5,13-1.2,19.4c-1.8,0.9-3.6,2.2-5.1,3.9c-5.8,6.3-11.6,12.6-17.4,18.9c-9-0.2-18.1-0.3-27.1-0.5	c2-5.6,3.9-11.3,5.9-16.9c2.8-8.1-0.2-15.2-5.6-19.7c1.3-16,2.5-32,3.5-47.9c0.5-8.8-6.5-17-14.7-19.3c-7.9-2.2-19.1,1.1-22.6,9.2	c-2.6,6.1-5.2,12.1-7.6,18.3c-8.2-1.9-17.3,0.6-21.4,9.1l-20.7,43.1c-4.7,1.1-9.1,4-12.5,9.1c-1.6,2.4-3.3,4.8-4.9,7.2	c-6.9,0.4-13.7,0.9-20.5,1.5c-44.2-11.7-89-20.7-134.6-26.5c-83.5-10.6-167.7-11.9-251.7-16c-72.2-3.5-143-9.2-213-24.9	c-0.1-5.1-2-10.2-5.7-14.2c-30.5-32.9-60.9-65.8-91.4-98.7c-14.5-15.7-28.5-32.3-44.1-47.1c-9.4-8.9-20.6-17.2-33-21.8	c0.8-0.1,1.7-0.3,2.5-0.4c3.7-0.6,7.4-1.1,11.1-1.7c0.2,0,2.1-0.3,3.1-0.4c1.5-0.2,3-0.4,4.5-0.6c7.4-0.9,14.8-1.7,22.2-2.4	c29.1-2.6,58.4-3.3,87.5-2.3c5.4,0.2,10.8,0.5,16.2,0.8c1.6,9.7,10,15.7,19.7,16.6c39.1,3.7,78.3,7.4,117.4,11.1	c6.5,0.6,12.9,1.2,19.4,1.8c1.7,3.6,4.4,6.9,8,9.2c20.5,13.6,40.9,27.3,61.4,40.9c9.1,6.1,22.1,1.8,27.4-7.2	c3.1-5.4,3.4-11.2,1.5-16.4c3.6,0,7.2,0,10.8,0.1c4.9,0.1,9.9,0.4,14.8,0.8c2.5,0.2,4.9,0.5,7.4,0.7c0.5,0.1,4.2,0.5,5.1,0.6	c4.9,0.7,9.8,1.6,14.7,2.6c-6.2,7.5-10.5,16.1-11.3,26.5c-1.6,20.3,12.6,34.6,30.3,41.3c14.8,5.6,31.4,3.7,46.6,1.7	c21.3-2.8,42.6-6,63.8-9.6c40.5-6.8,80.7-15.2,120.6-24.9c39.9-9.7,79.4-21,118.5-33.6c13.7-4.4,27.6-8.2,40.3-14.7	c2.9,0.6,6,0.5,8.9-0.5l3.1-1c30.7,0.8,61.5,1.6,92.2,2.4c-8.2,5.8-16.1,12.1-23.7,18.9c-15.1,13.5-29.1,29.5-29.7,50.7	c-0.6,20.1,14.6,34.8,31.8,42c1.3,0.6,2.7,1,4,1.5c-3.7,4.9-5.1,11.3-3.4,17.4c1.2,4.5,4.6,9,8.8,11.9	C992,1043.2,987.7,1049.8,987.9,1057.2z M1028.1,1061.6c0-1.5-0.1-2.9-0.2-4.4c-0.3-6.5-3.4-12.3-8.1-16c6-0.8,12-1.6,17.9-2.4	C1034.5,1046.4,1031.3,1054,1028.1,1061.6z M1102.8,899.2c-2.5,19-5.1,37.9-7.6,56.9c-9.2,4-18.3,8.2-27.3,12.5	c-6.6-0.3-13.3,0.1-19.9,1c-8.6,1.2-17,3-25.5,4.4c1.7-0.3-2.3,0.2-2.8,0.2c-1.6,0.1-3.3,0.1-4.9,0c-1.3,0-2.6-0.1-3.9-0.2	c2.9,0.2-2.9-0.6-3.9-0.8c-0.9-0.2-4.3-1.5-5.4-1.9c-1.3-0.8-3.1-2-3.6-2.3c-0.2-0.3-0.5-0.6-0.7-0.8c-0.1-0.6-0.2-1.3-0.3-2	c0.1-0.3,0.2-0.8,0.3-1.4c0.1-0.3,0.2-0.6,0.2-0.9c0.2-0.2,0.5-0.7,1-1.6c0.7-1.2,1.4-2.3,2.2-3.4c-1.9,2.8,2.1-2.4,2-2.4	c5.1-5.8,11.1-11,17-16.1c20.8-17.9,49-33.1,75.5-41.6c3.2-1,5.8-2.6,7.9-4.6c0.2,0,0.4,0,0.6,0	C1103.4,895.8,1103.1,897.4,1102.8,899.2z M1093.4,856.8c-1.2,0.8-2.3,1.7-3.4,2.6c-4.5-0.1-9-0.2-13.5-0.3c7-2.5,14.1-5.1,21-7.8	c8.4-3.3,14.7-9.7,14.7-19.3c0-2-0.4-4-1-5.9c0.9-0.3,1.9-0.5,2.8-0.8c9.7,0.2,19.5,0.1,29.2-0.3L1093.4,856.8z"/><path fill="#FFF" d="M1830.9,801.8c2.7-3.6,4.2-8.1,4.2-12.8c0-12.2-0.1-24.4-0.1-36.6c4.2-17.1,9.8-34.2,7.7-52.2	c-1.1-9.9-3.7-19.2-8-27.1c-0.1-16.6-0.1-33.2-0.2-49.9c0-8.4-4.9-15.8-11.6-18.7c-2.5-3.2-5.7-5.7-9-6.7c-10.3-3.2-18.3,3.9-22,14	c-5.6,15.1-6.3,32.8-2.5,48.9c-1.3,2.8-2,5.8-2,8.9c0.2,13-0.1,26.1-0.7,39.1c-0.3,6.5-0.8,13-1.4,19.5c-0.3,3.2-0.6,6.5-1,9.7	c0,0.2-0.4,3.1-0.4,3.8c-0.2,1.5-0.4,3-0.6,4.5c-1,7.3-0.3,13.9,4.6,19.5c1.5,1.7,3.5,3.2,5.5,4.2c-0.2,2.3-0.5,4.7-0.5,7	c0,3.8,0.7,7.8,1.8,11.7c-0.2,34.5,6,69.1,5,103.7c-0.3,10.9,8.4,20,17.9,20c10,0,17.6-9.1,17.9-20c0.6-22.3-1.2-44.6-3.1-66.8	C1831.9,817.5,1831.3,809.7,1830.9,801.8z"/><g fill="#FFF"><path d="M1770.7,1061.8c-1.2,2.6-2.4,5.3-3.6,7.9c-1.2-3-2.5-5.9-3.9-8.7c0.8-15.2,1.5-30.4,2.3-45.6 c0.3-5-4.9-8.1-9.3-7.3c0-9-0.6-18.1-1.8-27c-1-7.4-9.4-10.2-14-3.8c-4.7,6.7-9,13.6-12.9,20.7c-1.6,1.3-3.1,2.6-4.7,4 c-0.4-2.5-0.9-5.1-1.4-7.6c-1.4-7.3-12.9-7.1-14.5,0l-6.7,30.3c-3.6,4.5-7,9.2-9.9,14.3c-3.6,6.2-6.3,12.8-8.2,19.6 c-3.8-1.9-7.9-3.5-12.2-4.6c-3.6-0.9-6.8,0.7-8.5,3.7c-3.9-0.3-8.3,2.6-8.9,7.4c-0.4,3.4-0.7,6.8-0.8,10.3 c-20.8-15-41-30.9-60.5-47.6c-7.3-6.3-18,4.3-10.6,10.6c22.9,19.6,46.7,38.2,71.3,55.5c0.3,4.2,0.7,8.4,1.3,12.7 c1.6,11.6,3.5,27.1,14.8,33.4c2.5,1.4,5,1.8,7.5,1.4c3.8,0.8,8.3-1.4,9.3-5.5c1-1.4,1.6-3,2-4.7c0.2,2,0.4,4.1,0.5,6.1 c0,2,0,4.1,0,6.1c0.1,9.7,14.7,9.6,15,0c0-0.8,0-1.6,0-2.4c1.4,2.8,5.1,4.2,8.2,3.6c5.1,11,8.6,22.7,10.1,34.8 c1.2,9.5,14.3,9.8,15,0c0.5-6.8,1-13.7,1.5-20.5c0.3,1.5,0.5,2.9,0.8,4.4c0.6,3.5,3.1,5.2,5.9,5.4c3.4,5,13.5,3.5,13.9-4.4 c0.4-8,0.8-16,1.2-23.9c0.4,3.3,2,6.2,5.5,7.2c3.7,1,8.5-1.2,9.2-5.2c2.6-13.8,3-28,1.2-41.8c1.8-11.1,4.9-22.1,9.3-32.7 C1787.6,1059.7,1774.1,1054.1,1770.7,1061.8z M1739.7,1030.3c-0.3,0.5-0.7,1-1,1.6c-0.5,0.7-0.9,1.3-1.4,2 c-0.1-5.6-0.2-11.2-0.3-16.8c0-1.2-0.3-2.2-0.8-3.1c0.5-1,1-2,1.5-3C1738.8,1017.3,1739.5,1023.8,1739.7,1030.3z M1672.8,1077.1 c0,2.3,0,4.5,0,6.8c-0.6-2.3-1.2-4.5-1.7-6.8c0.4-2.2,1.1-4.4,1.7-6.5c0.8,0.4,1.6,0.7,2.5,1.1 C1673.8,1072.9,1672.8,1074.8,1672.8,1077.1z"/><path d="M1755.6,1053c-1.2,2.6-2.4,5.3-3.6,7.9c10.7,1.4,21.3,2.8,32,4.2c-1.8-4.4-3.6-8.7-5.6-12.9 c0.8,2.9,1.6,5.9,2.4,8.8c0.7-13.2,1.3-26.5,2-39.7c0.4-8.3-0.1-16.7-6.4-23c-5.2-5.1-12.6-8.6-20.1-7.8 c5.8,5.8,11.7,11.7,17.5,17.5c-0.2-18.6,1-44.7-20.8-51.1c-12-3.6-22.2,3.7-28.7,13c-2.5,3.6-4.8,7.3-7.1,11 c-1.3,2.1-2.5,4.3-3.8,6.5c1-1.3,0.9-1.2-0.5,0.1c-0.8,0.7-1.6,1.3-2.3,2c9.7,2.6,19.5,5.1,29.2,7.7c-1.2-7.2-2.7-13-7.6-18.7 c-4.3-5-11.9-7.2-18.2-7.1c-11.6,0.1-21.5,8.4-24,19.6c-2.1,9.6-4.3,19.3-6.4,28.9c1.5-2.6,3-5.1,4.5-7.7 c-10.1,12.6-18.2,25.9-22.6,41.6c8.6-3.5,17.1-7,25.7-10.5c-5.6-2.7-11.7-5.6-17.9-6.6c-11.4-1.8-20.2,2.6-26.8,11.9 c5-2.9,10.1-5.8,15.1-8.7c-8.9,0-18,4.4-22.6,12.3c-4.1,6.9-4.2,15-4.6,22.8c8.8-5,17.6-10.1,26.3-15.1 c-16.2-11.7-28.6-21.3-44-34c-7.3-6-15.1-15.2-24.7-17.2c-10.9-2.3-23.5,2.8-28.4,13.3c-5.4,11.8-1.9,22.7,7.6,30.9 c7.7,6.5,15.4,12.9,23.3,19.2c15.9,12.7,32.1,24.9,48.7,36.7c-2.9-5-5.8-10.1-8.7-15.1c1.3,18.2,3.1,37.6,14.6,52.4 c2.8,3.6,6.4,6.4,10.2,8.8c5.7,3.5,11.2,3.1,17.5,3.9c6.3,0.8,13.4-2.8,17.9-6.9c2-1.8,3.7-4,5-6.3c1.8-4.7,2.3-5.6,1.3-2.6 c1.2-2,2.2-5.1,2.9-7.4c-11.5-1.6-22.9-3.1-34.4-4.7c0.7,6.5-0.3,13.5,1.7,19.8c2.6,8.2,9,13.9,17.1,16.4c6.5,2,15,0.7,20.5-3.2 c7.9-5.7,11.3-13.4,11.3-23c-10.9,2.9-21.7,5.9-32.6,8.8c5.1,7.8,13.7,13.2,23.4,12.3c-5-2.9-10.1-5.8-15.1-8.7 c0.5,1.1,1,2.2,1.5,3.3c-0.6-1.4-0.5-1.1,0.3,0.9c0.9,2.3,1.6,4.6,2.4,6.9c1.5,4.6,2.5,9.4,3.4,14.2c0.3,2.1,0.4,2.4,0.2,0.8 c0.2,1.9,0.5,3.8,0.8,5.7c0.4,2.4,1.7,4.8,2.9,6.9c3.3,5.6,8.7,9,14.7,11.1c10.8,3.9,21.9-2.4,28-11c3.3-4.7,3.5-11,3.8-16.5 c0.4-5.6,0.8-11.2,1.2-16.8c-11.5,1.6-22.9,3.1-34.4,4.7c1.8,10.2,7.6,20.3,18.9,22c-2.6-1.5-5.1-3-7.7-4.5 c8.7,10.7,26.6,10.1,36.1,1c5.6-5.5,7.4-12.1,7.7-19.7c0.4-7.3,0.7-14.6,1.1-22c-11.5,1.6-22.9,3.1-34.4,4.7 c3.6,21.3,35.2,28.2,45.8,8.3c4.5-8.3,4.8-18.8,5.4-28.1c0.2-3.8,0.2-7.6,0.1-11.4c0-1.9-0.2-3.8-0.3-5.7c0-0.6-0.6-7.6-1.1-4.8 c1.4-8.1,3.6-16,6.2-23.7c1-3,2.7-5.9,3.2-9c1.1-6.3,0.2-11.2-2.5-16.9C1791,1036.5,1764.1,1036.9,1755.6,1053 c-4.5,8.4-2.2,19,6.3,23.9c8,4.7,19.5,2.1,23.9-6.3c0.2-0.3,0.3-0.6,0.5-0.9c-1.7,2.8-4,4.6-6.9,5.5c-1.9,0.6-3.8,0.5-5.7,0 c1.7,0.5,1.2,0.2-1.6-0.8c1.5,1,1.1,0.6-1.4-1.1c-1.3-1.3-2.3-2.9-2.8-4.7c0.7-6.8,0.6-8.7-0.4-5.6c-0.5,1.2-1,2.4-1.4,3.5 c-3.5,8.8-5.9,18-7.6,27.3c-1.8,10.1,0.5,20.9,0,31.2c-0.1,2.5-0.4,5.1-0.7,7.6c0.2-1.5,0.2-1.1-0.2,1c-0.2,1.3-0.4,2.5-0.7,3.8 c1-5.7,7.4-7.9,12.3-7c2.5,0.8,4.5,2.3,6,4.4c1,2.4,1.2,2.6,0.8,0.7c-1.3-7.6-9.7-12.8-16.9-12.8c-9.9,0-17,8-17.5,17.5 c-0.2,4.7-0.5,9.3-0.7,14c-0.1,2.7-0.3,5.3-0.4,8c-0.2,2.8-0.1,2.7,0.1-0.5c0.8-3,2.6-5.3,5.2-6.7c-1.6,0.9-1,0.7,1.6-0.7 c3.1-0.3,3.8-0.4,1.9-0.4c1.9-0.1,3.8,0.4,5.4,1.3c2.3,2,2.8,2.3,1.6,0.9c-2.2-2.2-4.8-3.7-7.7-4.5c-2.9-0.6-1.8,0.3,3.5,2.7 c2.4,4.9,3.3,5.8,2.5,2.7c-0.2-1-0.3-2-0.5-2.9c-1.3-7.6-9.7-12.8-16.9-12.8c-10.1,0-16.8,8-17.5,17.5c-0.5,6.8-1,13.7-1.5,20.5 c0.4-6.2,4.5-9.7,10.6-10.3c-0.3,0-0.6,0-0.8,0c2-0.1,3.9,0.4,5.6,1.4c0.6,0.3,4.6,5.5,3.2,3c0.9,1.2,1.3,2.5,1.3,4 c-0.4-2.8-0.7-5.5-1.2-8.3c-0.6-3.6-1.4-7.1-2.4-10.7c-2.1-7.9-5.3-15.5-8.7-22.9c-2.3-5.1-9.6-9.2-15.1-8.7 c-0.5,0-0.9,0.1-1.4,0.1c3.4,0.1,6.1,1.7,8.2,5c-9.4-14.3-32.5-9.2-32.6,8.8c0,1.6-0.8,4.8,0.3-0.3c0.6-2.9,2.8-4.8,5-6.4 c-0.2,0.1-0.5,0.3-0.7,0.4c1.7-1.1,3.6-1.6,5.7-1.6c-0.3,0-0.5,0-0.8,0c2.1,0,4,0.5,5.7,1.6c-2-0.9,2.9,2.8,3.3,3.5 c0.6,0.9,1.5,7.8,1.5,3.6c0-3.6-0.1-7.1-0.5-10.7c-0.8-7.9-4.7-14.6-12.8-16.9c-9.3-2.6-18.9,3.1-21.5,12.2 c-0.5,2.1-0.6,2.2-0.3,0.5c-2.7,5.7-2.3,5.6,1-0.4c1-1,2.3-1.7,3.6-2.2c4.3-1.3,1.3-0.6-0.3-0.4c1,0,2,0.3,2.8,0.9 c-1.6-1.1-1.5-0.9,0.3,0.5c-0.7-0.6-1.3-1.2-1.8-1.8c-3-3,2,3-0.3-0.6c-0.4-0.7-0.8-1.5-1.2-2.3c0.9,2.2,0.9,2.4,0.2,0.5 c-0.8-2.1-1.3-4.3-1.9-6.5c-0.9-3.8-1.4-7.7-2-11.6c0.6,4.4-0.3-3-0.4-3.8c-0.5-4.9-0.3-9.9-2.8-14.3c-3.5-5.9-11.5-10-17-14 c-9.6-7-18.6-13.8-26.5-20c-8.9-7-17.6-14.2-26.3-21.5c-0.9-0.7-6.4-6.3-3.1-1.8c1.5,2.7,1.8,5.7,1,8.9c-0.1,0.7-4.1,5.7-2,3.7 c-3.1,3.1-7.8,3.9-11.7,1.8c-1.6-1.2-1.5-1,0.3,0.4c1.4,1.2,2.9,2.4,4.3,3.6c18.4,15.5,37.4,30.2,56.9,44.3 c11.5,8.3,25.7-3.1,26.3-15.1c0.1-2.9,0.4-5.7,0.6-8.5c-0.3,2.9-1.8,5.5-4.3,7.1c-0.6,0.3-1.3,0.6-1.9,0.9c-3.8,0.7-3,0.6,2.4-0.2 c4.7-1.3,7.8-4.2,10.5-8c-1.1,1.1-2.2,2.2-3.3,3.3c-8.4,0.1-10.5,0.6-6.3,1.5c1.6,0.4,3.1,1,4.7,1.5c-3.4-1.2,1.4,0.7,1.8,0.8 c10.1,4.9,22.5,1,25.7-10.5c0.8-2.8,1.7-5.6,2.8-8.4c-0.6,1.4-0.5,1.2,0.3-0.7c0.7-1.6,1.6-3.2,2.4-4.8 c3.8-7.2,7.7-10.5,10.8-15.8c2.7-4.6,3.2-10.9,4.4-16c1.3-5.7,2.5-11.4,3.8-17.2c0.1-0.4,0.2-0.9,0.3-1.3c-0.7,3.4-4,6-7.2,7.1 c-2.7,0.9-5.8,0.2-9.3-2.8c-1.1-1-3.3-7.2-2.4-2.5c0.4,1.9,0.7,3.8,1,5.7c1,5.8,6.8,10.7,12.2,12.2c6.4,1.8,12.2-0.3,17-4.5 c1.5-1.3,3.1-2.7,4.7-4c2.8-2.4,4.6-6.9,6.4-10c1.6-2.7,3.3-5.3,4.9-8c0.7-1,1.4-2.1,2.1-3.1c2.3-3.5-0.4-0.1-1.4,0.6 c-4.7,3.3-11,0.9-13.8-3.4c-0.7-1.1-1-2.2-1-3.4c0.2,1.9,0.4,3.9,0.6,5.8c0.6,6.4,0.9,12.9,0.9,19.3c0.1,8.8,7.9,18.5,17.5,17.5 c1.9-0.1,1.6-0.3-1-0.5c-2.4-0.7-4.3-2.2-5.7-4.5c-1.1-5.9-1.6-7-1.6-3.2c-0.1,1.3-0.1,2.6-0.2,4c-0.3,6-0.6,11.9-0.9,17.9 c-0.3,5.3-0.5,10.6-0.8,15.9c-0.2,3.6-0.6,7.1,0.3,10.6c0.8,2,1.6,4,2.6,5.9c-0.1-0.3,2.3,5.4,1.3,2.8c2.4,5.8,5.8,10.5,12.2,12.2 c7,1.9,16.5-1,19.8-8c1.2-2.6,2.4-5.3,3.6-7.9c3.9-8.7,2.6-18.7-6.3-23.9C1772,1042.3,1759.5,1044.3,1755.6,1053z"/><path d="M1724.6 1021.5c-.8 1.2-1.6 2.4-2.4 3.6 10.9 2.9 21.7 5.9 32.6 8.8-.1-7.5 1.2-17.5-1.7-24.6-.6 4.5-1.2 9-1.8 13.5.5-1 1-2 1.5-3-10.7-1.4-21.3-2.8-32-4.2.2 1.2.4 2.3.6 3.5-.5-3.5.2 2.3.2 2.4.3 2.9.5 5.9.6 8.9.4 9.5 7.7 17.5 17.5 17.5 9.2 0 17.9-8 17.5-17.5-.3-8.1-1.3-16.1-2.6-24.1-2.5-14.9-25.5-17.1-32-4.2-1.9 3.8-3.9 7.4-3.9 11.9-.1 2 .2 3.9 1 5.6-.2-3-.3-3.3-.2-.8.1 5 .2 10.1.3 15.1.1 7.8 5.2 14.8 12.8 16.9 8 2.2 15.3-1.5 19.8-8 .8-1.2 1.6-2.4 2.4-3.6 5.3-8 1.6-19.3-6.3-23.9C1739.9 1010.2 1729.8 1013.5 1724.6 1021.5zM1655.3 1077.1c0 2.3 0 4.5 0 6.8 11.5-1.6 22.9-3.1 34.4-4.7-.6-2.3-1.2-4.5-1.7-6.8 0 3.1 0 6.2 0 9.3.5-2.2 1.1-4.3 1.7-6.5-8.6 3.5-17.1 7-25.7 10.5.8.4 1.6.7 2.5 1.1-1.2-9.2-2.4-18.3-3.5-27.5C1657.8 1064.1 1655.7 1070.3 1655.3 1077.1c-.5 9.5 8.3 17.5 17.5 17.5 9.9 0 17-8 17.5-17.5 0-.3 0-.6 0-.8-.2 1.6-.4 3.1-.6 4.7.1-.8.3-1.5.6-2.2-.6 1.4-1.2 2.8-1.8 4.2.2-.4.5-.9.8-1.3-.9 1.2-1.8 2.4-2.7 3.5.3-.4.6-.7 1-1 7.8-7.4 6.5-22.5-3.5-27.5-.8-.4-1.6-.8-2.5-1.1-4.5-2-8.6-3.1-13.5-1.8-6 1.7-10.4 6.3-12.2 12.2-1.1 3.5-2.3 7.5-2.3 11.1 0 3.8 1.4 7.8 2.4 11.5 1.9 7.5 9.2 12.8 16.9 12.8 9.5 0 17.5-8 17.5-17.5 0-2.3 0-4.5 0-6.8 0-9.5-8-17.5-17.5-17.5C1663.3 1059.6 1655.3 1067.5 1655.3 1077.1z"/></g><path d="M1804.7 800.3c7.7.5 15.5 1 23.2 1.5 6.4.4 6.3-9.5 0-9.9-7.7-.5-15.5-1-23.2-1.5C1798.3 790 1798.4 799.9 1804.7 800.3L1804.7 800.3zM1800.8 424.1c-14.2-.2-20.2 15.6-14.8 27 7.6 15.9 28.7 14.5 43 12.5 1.5-.2 3.2-2 3.5-3.5 1.2-8.6 2.4-17.3 3.6-25.9.9-6.2-8.7-8.9-9.5-2.6-1.2 8.6-2.4 17.3-3.6 25.9 1.2-1.2 2.3-2.3 3.5-3.5-9.3 1.3-20.2 2.7-28.1-3.6-2.8-2.2-5.2-5.9-4.6-9.6.5-3.7 3.3-7 7.2-7C1807.2 434.1 1807.2 424.2 1800.8 424.1L1800.8 424.1zM2635.6 667.8c3.7 60.3 13.2 120.1 28.5 178.5.5 2 2.6 3.8 4.8 3.6 3.8-.3 7.6-.6 11.4-.9 3-.2 7.5.3 10.1-1.2 2.7-1.6 4.8-5.7 6.7-8.1 2.8-3.6 4.5-6.1 5.8-10.4 4.7-15.9 9.3-31.9 14-47.8 9.3-31.9 18.7-63.8 28-95.7 18-61.6 37.5-122.9 51.8-185.5 13.7-59.8 22-121.9 14.3-183.1-1.9-15-4.7-29.8-8.6-44.5-3.3-12.6-7.2-25.5-14.3-36.6-6.1-9.5-15.3-16.7-26.7-18-9.5-1.1-20.2 3.3-25.9 10.9-3 3.9-4.4 8.6-4.1 13.6.4 6.3 10.3 6.4 9.9 0-.6-10.1 10.3-14.8 19-14.6 12 .2 19.8 12.7 24.3 22.2 6 12.8 9.2 27.5 12.2 41.3 3.2 15.1 5.2 30.4 6.4 45.7 4.6 62.1-6.6 124.3-21.6 184.4-13.3 53.1-29.6 105.4-44.9 157.8-8 27.4-16.1 54.8-24.1 82.3-3.9 13.4-7.9 26.8-11.8 40.2-2.1 7-4.1 14-6.2 21-.9 2.9-1.4 6-3.2 8.4-2.3 2.9-4.6 5.9-6.8 8.8 1.2-.5 2.3-1 3.5-1.4-6.3.5-12.7 1-19 1.4 1.6 1.2 3.2 2.4 4.8 3.6-15.1-57.6-24.5-116.5-28.2-175.9C2645.1 661.5 2635.2 661.4 2635.6 667.8L2635.6 667.8zM2002.4 73.9c23.9-.2 47.3-5.8 71.2-5.9 6.4 0 6.4-9.9 0-9.9-23.9.2-47.3 5.8-71.2 5.9C1996 64 1996 73.9 2002.4 73.9L2002.4 73.9z"/><path d="M2173.7,26.9c60.4,18.6,120.5,37.9,180.3,58.2c29.6,10.1,59.2,20.4,88.7,30.9c15.1,5.4,30.1,10.8,45.2,16.3 c14.8,5.4,29.9,10.3,44.1,17.1c17.1,8.3,31.6,20.9,47.3,31.4c15.7,10.5,32.4,19.3,49.5,27.3c34.3,15.9,70.3,27.6,106.1,39.3 c6.1,2,8.7-7.6,2.6-9.5c-56.3-18.3-113.3-37.1-162-71.6c-12.1-8.6-23.7-17.7-36.9-24.6c-13.5-7-28.3-11.7-42.6-17 c-29.9-10.9-59.8-21.6-89.8-32.1C2330,66,2253.4,41,2176.3,17.3C2170.2,15.4,2167.6,25,2173.7,26.9L2173.7,26.9z"/><path d="M2064.1 68.9c19.2-3.4 36.1-12.8 52.8-22.4 17-9.8 34.3-19 54.4-20 6.3-.3 6.4-10.2 0-9.9-19.9.9-37.5 8.8-54.5 18.5-17.7 10.1-34.9 20.6-55.3 24.2C2055.2 60.5 2057.9 70 2064.1 68.9L2064.1 68.9zM1997.7 67.7c-.3 21.4.5 44.3 15.3 61.2 14 15.9 37.2 19.3 57.1 21.1 23.9 2.1 48.2 2.6 71.7-2.7 19.7-4.4 45-14.3 51.7-35.4 1.9-6.1-7.6-8.7-9.5-2.6-5.8 18.5-31.4 25.8-48.1 29.3-21 4.4-43 3.4-64.2 1.7-17.7-1.4-37.4-4.2-50.6-17.2-14.2-14-13.7-36.9-13.5-55.3C2007.7 61.3 1997.8 61.3 1997.7 67.7L1997.7 67.7z"/><path d="M2175.9 135c21.4 38 65.9 61 109.3 56.2 6.3-.7 6.3-10.6 0-9.9-40.1 4.5-80.9-16-100.8-51.3C2181.3 124.5 2172.8 129.5 2175.9 135L2175.9 135zM1925.4 167.6c5.4-20.1 11.8-40.7 24.9-57.3 12.1-15.3 30.5-26.1 50.3-24.7 6.4.5 6.3-9.4 0-9.9-21.4-1.5-41.4 9.6-55.3 25.2-15.9 17.8-23.4 41.4-29.5 64C1914.3 171.2 1923.8 173.8 1925.4 167.6L1925.4 167.6zM1970.4 201.8c-11.2-.7-16.7 19.8-18.1 27.9-1.4 7.9 1.7 16.1 4.2 23.6 3.2 9.7 8.2 18.7 15.4 26 13.2 13.3 32.6 17.9 50.5 21 17.4 3 35.7 4.7 52.3 11.2 5.9 2.3 8.5-7.2 2.6-9.5-28.7-11.2-62.4-7.2-89.5-22.9-16.3-9.5-22.2-27.1-26-44.5-.7-3.1 2-9.6 3.3-13.1 1-2.5 2.2-5 3.6-7.3.5-.8 1.1-1.6 1.8-2.3 1.1-1.2-1.1-.2 0-.2C1976.8 212.1 1976.7 202.2 1970.4 201.8L1970.4 201.8z"/><path d="M2076.4,382.7c-6.8-20.8-14.3-44.5-1.7-64.6c5.6-8.9,15.1-12.6,25.1-14.2c11.9-1.9,24.3-1.6,36.3-3 c24.5-2.9,48.1-9,71.8-15.7c23.3-6.6,47.1-12.7,71.5-10.7c6.4,0.5,6.3-9.4,0-9.9c-25.9-2.1-51.2,4.5-76,11.5 c-26.6,7.5-53.1,13.9-80.7,16.2c-11.7,1-23.7,0.7-35.1,4.2c-10,3.1-17.7,10.1-22.9,19c-12.6,21.8-5.1,47.7,2.2,69.8 C2068.9,391.3,2078.4,388.8,2076.4,382.7L2076.4,382.7z"/><path d="M2117.6 407.3c-12.7-10.7-26.5-19.8-41.5-27-5.7-2.7-10.7 5.8-5 8.5 14.2 6.8 27.5 15.2 39.5 25.4C2115.4 418.4 2122.4 411.4 2117.6 407.3L2117.6 407.3zM2126.8 402.8c26.1-7.2 52.1-15 78.1-22.7 12.8-3.8 25.7-7.5 38.6-11.1 11-3.1 22-6.1 32.4-10.9 20.1-9.2 34-27.5 32.9-50.1-1-21-17.1-38.9-37.2-43.8-6.2-1.5-8.8 8-2.6 9.5 19.4 4.7 31.6 22.2 29.8 41.9-1.9 21.2-21.4 32.3-39.5 38.4-21.6 7.3-44.1 12.6-66 19.1-23 6.8-46 13.6-69.2 20C2118.1 395 2120.7 404.5 2126.8 402.8L2126.8 402.8z"/><path d="M2175.7,509.2c10.2-2.4,18.9-8,26.2-15.3c7.3-7.3,11.8-16.3,16.7-25.2c2.4-4.4,5.1-8.6,8.7-12.1 c4.3-4.3,9.9-7.5,14.7-11.2c9.9-7.5,19.6-15.3,29.4-23c16.5-12.9,34.6-25.8,42.2-46.2c6-16.2,2.1-36.3-12.5-46.5 c-5.2-3.7-10.2,4.9-5,8.5c13.5,9.4,11.9,29.2,4.7,42c-9.7,17.4-28.7,29-44,41c-8.6,6.8-17.2,13.6-26,20.1 c-7.9,5.9-14.3,11.2-19.5,19.7c-4.8,8-8.3,16.4-14.5,23.5c-6.4,7.3-14.5,12.9-24,15.1C2166.9,501.1,2169.5,510.7,2175.7,509.2 L2175.7,509.2z"/><path fill="#FFEACC" d="M2254.9,780.1c-2.3,2.3-62.8,35.2-90.2,56.2c-7-5.4-15.4-3.8-24.5-4.2c-6.6-0.3-13.9,1.1-19.3,4.9	c-3.4,2.4-6.7,1.2-10,3.8c-0.6,0.5-2.6,2-2.6,2c-1.9,1.4-3.8,2.9-5.7,4.3c-11.8,8.9-19.5,11.7-28.1,23.8	c-53.3,74.8-205.3,88.9-223.5,87.1c-1.5-0.1-3-0.3-4.5-0.5c0-0.1-85.1-22.8-95.6-24.3c-12.9-1.8-25.7-4.1-38.4-6.6	c-1.4-1.9-3-3.6-4.8-5.1c-10.2-8.5-22.6-9.6-35.4-8.8c-4.6,0.3-9.1,0.4-13.7,0c-0.2,0-0.4-0.1-0.7-0.1c-1.5-0.3-2.9-0.6-4.4-1	c-2.4-0.6-4.8-1.4-7.2-2.3c-0.4-0.2-0.7-0.3-0.9-0.4c-0.6-0.3-1.2-0.6-1.8-0.9c-2.3-1.1-4.5-2.3-6.7-3.6c-2.2-1.3-4.4-2.7-6.5-4.2	c-0.9-0.6-1.7-1.2-2.6-1.8c-0.2-0.1-2-1.5-2.4-1.8c-7.6-6.1-14.6-12.9-21.3-19.8c-22.6-23.2-46.4-50-77.5-59.8	c-0.3-7.9-4.9-14.6-12-19.3c-5.2-3.4-12.6-5-18.7-6.3c-7.1-1.5-14.4-2.3-21.6-2.5c-1.5,0-3.1,0-4.6,0c-29.6-12.6-63.2-15.4-94.7-8	c-1.2,0.3-2.4,0.7-3.4,1.3c-1.3-0.2-2.7-0.5-4.1-0.6c-17.8-2.2-38.8,7.8-46.3,24.4c-4.4,4.3-6.4,10.9-4.8,17.3	c6.8,28.1,15.3,55.7,25.5,82.8c-1.6,4.7-1.2,10.1,1.3,14.7c0.3,0.6,0.6,1.2,1,1.8c-2.4,4-3.3,8.8-1.7,13.3	c11.2,30.7,20.2,62.1,27.1,94c3.5,16,6.3,32,8.6,48.2c0-0.1,0.5,3.3,0.5,3.7c0.2,1.6,0.4,3.1,0.6,4.7c0.6,4.4,1,8.7,1.5,13.1	c0.9,8.1,1.6,16.3,2.2,24.4c0.9,12.3,10.4,18.6,22.2,16.9c4.9-0.7,9.9-1.4,15.5-2c2,4.9,6.3,8.7,11.7,10.7	c18.9,7.1,38.2,13.1,57.7,18.3c1,0.9,2.1,1.7,3.4,2.3c28.5,13,58,23.3,88.3,30.6c-1.8,1.8-2.7,3.1-0.1,3.7	c1.7,0.4,19.2,6.2,20.9,6.6c32.7,22.1,71.6,22.4,110.7,28.4c7.4,1.2,14.9,10.1,22.4,10.7c8.4,0.7,18.3,2.3,25.4-3.1	c6-4.5,28.2-1.8,30.9-8c21.8-2.4,52.7-27.8,103.5-49.2c47.3-19.9,154-48.8,175.7-67.5c30-25.7,117.6-132.8,152.7-182.4	c13.6-13.5,19-11.7,34-23.8c0.4-0.3,8.1-6.9,8.6-7.2c1.6-1.2,43.4-42.8,40.8-52.4c-0.2-0.8-0.5-1.5-0.8-2.3	c10.3-10.7,25.9-23.2,26.6-39.1C2334.4,785.4,2277.8,756.7,2254.9,780.1z"/><path d="M2124.8 395.1c-21.5 15.2-31.5 41.9-24.3 67.3 3.4 12.2 11 23.1 20.9 31 8.6 6.9 21 12.6 23.6 24.3 1.4 6.2 10.9 3.6 9.5-2.6-2.3-10.3-10.2-16.9-18.3-22.9-9.6-7.1-17.9-13.9-23.3-24.8-11-22.1-3-49.7 16.9-63.7C2135 400 2130 391.4 2124.8 395.1L2124.8 395.1zM2265.4 572.7c25.1 14.4 56.6 8.9 84.1 7 33.1-2.3 66.2-4.8 99.3-7.7 32.6-2.8 65.1-6.8 97.7-9 15.7-1 31.6-.9 47 2.7 14.4 3.3 27.6 10.3 40.1 17.9 7 4.3 13.7 8.9 20.4 13.4 5.3 3.6 10.2-5 5-8.5-24.5-16.7-48.9-31.5-78.9-35.1-15.5-1.8-31.3-.7-46.8.7-16.3 1.5-32.6 3.2-48.9 4.7-33 3.1-66.1 5.8-99.2 8.3-16.5 1.2-33.1 2.4-49.7 3.5-14.3.9-28.8 2.2-43.1.6-7.8-.9-15.3-3.3-22.1-7.2C2264.8 560.9 2259.9 569.5 2265.4 572.7L2265.4 572.7z"/><path d="M2149.9,524.5c37.6,17.8,76.2,33.2,115.4,46.9c6,2.1,8.6-7.5,2.6-9.5c-38.5-13.4-76.3-28.4-113.1-45.9 C2149.2,513.2,2144.2,521.8,2149.9,524.5L2149.9,524.5z"/><path d="M2225.7 537c-.6-3.2 3.8-6.5 5.6-8.8 1.8-2.3 3-4.9 4-7.6 2.1-5.9 1.7-12.7 1.6-18.8-.3-15.8-.6-31.5-.8-47.3-.1-6.4-10-6.4-9.9 0 .3 16.4.6 32.9.9 49.3.1 6.3.4 13.5-3.7 18.7-4.3 5.5-8.6 9.5-7.1 17.1C2217.5 545.9 2227 543.2 2225.7 537L2225.7 537zM2287 400.4c.2 48-2 96-6.6 143.8-.6 6.3 9.3 6.3 9.9 0 4.6-47.8 6.7-95.8 6.6-143.8C2296.9 394.1 2287 394.1 2287 400.4L2287 400.4zM2136.8 294.5c6.7-14.8 11.7-30.2 14.8-46.1 1.1-5.8 2.9-12.5 2.3-18.5-.5-5-2.1-9.7-3.9-14.3-3.4-8.6-7.8-19-15-25.1-10.1-8.6-23.9-15.6-37.5-14.5-6.3.5-6.4 10.4 0 9.9 11.1-1 23.5 4.9 31.5 12.5 5.9 5.5 9.5 14.7 12.3 22 1.2 3.3 2.5 6.8 2.8 10.3.5 6-1.6 12.9-2.7 18.7-2.8 13.8-7.3 27.4-13.1 40.2C2125.6 295.2 2134.2 300.3 2136.8 294.5L2136.8 294.5zM2176.9 208.8c20.9 19.7 41.6 39.7 62 59.9 4.5 4.5 11.5-2.5 7-7-20.4-20.3-41-40.3-62-59.9C2179.3 197.4 2172.3 204.4 2176.9 208.8L2176.9 208.8zM2243.4 190.4c3.2 4 5.2 9.4 7.2 14.1 2.8 6.4 5.2 13 7.8 19.5 2.6 6.7 5.6 12.7 9.8 18.6 5.4 7.5 12.4 16.1 9.1 25.9-2.1 6 7.5 8.6 9.5 2.6 3.2-9.2-.1-18.6-5.1-26.5-4.7-7.5-10.1-14-13.4-22.3-5.1-12.8-9.2-28-18-38.9C2246.4 178.5 2239.5 185.5 2243.4 190.4L2243.4 190.4zM2395.8 368.9c28.2 22.1 62.9 34.4 98.8 34.4 35.7 0 70.7-13.1 98.4-35.3 5-4-2.1-10.9-7-7-52.9 42.3-129.9 42.7-183.2.9C2397.8 358 2390.8 364.9 2395.8 368.9L2395.8 368.9zM2657.4 250.1c11.2 41.9 12.5 86.1 3.5 128.6-1.3 6.2 8.2 8.9 9.5 2.6 9.3-44.2 8.2-90.1-3.5-133.8C2665.2 241.3 2655.7 243.9 2657.4 250.1L2657.4 250.1z"/><path fill="#FFF" d="M1799.7,896.5c2.2,8.2,8.7,14.8,17.6,14.8c11.1,0,17.3-9.1,17.8-19.1c0.3-6.3-0.4-12.7-0.7-18.9 c-0.5-8.7-1.1-17.4-1.6-26.1c-0.2-3.3-0.4-6.5-0.4-9.8c0-1.1,0-2.2,0-3.3c0-0.4,0-0.8,0.1-1.1c-0.3,3.6-0.9,7.8-4.9,11.3 c-2.6,1.5-5.1,3-7.7,4.5c0,0,0,0,0,0c-3.1,0-6.2,0-9.3,0c0,0,0,0,0.1,0c-2.6-1.5-5.1-3-7.7-4.5c-2.1-1.9-3.4-5-4.1-7 c0.1,0.4,0.2,0.8,0.3,1.1c10.7-4.5,21.3-9,32-13.5c-0.8-1.6-0.7-1.2,0.5,1.4c-0.4-1-0.6-2.1-0.8-3.2c1.1,5.3,0.1-0.9,0.1-2.5 c0-1.1,0.8-8.1,0.1-3.3c0.4-2.8,1-5.6,1.5-8.3c2.2-10.5,5.1-20.7,6.3-31.4c1.1-9.5-8.8-17.5-17.5-17.5c-10.3,0-16.4,8-17.5,17.5 c-0.2,1.9-0.1,1.4,0.2-1.5c-0.2,1.2-0.4,2.3-0.6,3.5c-0.5,2.6-1.1,5.1-1.7,7.6c-1.3,5.5-2.7,11-3.8,16.6 c-2.5,13-3.6,26.6,2.9,38.7c3.7,6.9,12.4,10.1,19.8,8c9.3-2.5,14.7-12.3,12.2-21.5c-2.2-8.2-8.7-14.8-17.6-14.8 c-11.1,0-17.3,9.1-17.8,19.1c-0.3,6.3,0.4,12.7,0.7,18.9c0.5,8.7,1.1,17.4,1.6,26.1c0.2,3.3,0.4,6.5,0.4,9.8c0,1.1,0,2.2,0,3.3 c0,0.4,0,0.8-0.1,1.1c0.3-3.6,0.9-7.8,4.9-11.3c2.6-1.5,5.1-3,7.7-4.5c0,0,0,0,0,0c3.1,0,6.2,0,9.3,0c0,0,0,0-0.1,0 c2.6,1.5,5.1,3,7.7,4.5c2.1,1.9,3.4,5,4.1,7c-0.1-0.4-0.2-0.8-0.3-1.1c-2.4-9.2-12.4-14.7-21.5-12.2 C1802.6,877.6,1797.2,887.3,1799.7,896.5L1799.7,896.5z"/><path d="M2294.1 260.9c9.3 15.8 22.9 29.1 35 42.8 13.4 15.2 26.7 30.4 40.1 45.6 4.2 4.8 11.2-2.2 7-7-12.5-14.2-25-28.4-37.5-42.7-12.3-14-26.5-27.6-36-43.7C2299.4 250.5 2290.8 255.4 2294.1 260.9L2294.1 260.9zM2314.2 380.1c6.5 21.3 12.3 42.8 17.4 64.5 1.5 6.2 11 3.6 9.5-2.6-5.1-21.7-10.9-43.2-17.4-64.5C2321.9 371.4 2312.4 374 2314.2 380.1L2314.2 380.1zM2063.5 209.7c5.2.3 4.8 15 5.1 18.6.6 7.1.4 14.3-1 21.3-2.2 10.6-8.8 21.1-19.3 24.9-5.9 2.2-3.4 11.7 2.6 9.5 16-5.8 24.9-21.1 27.2-37.4 1.4-9.9.4-19.9-.8-29.8-1.1-8.3-4.2-16.6-13.8-17.1C2057.1 199.5 2057.2 209.4 2063.5 209.7L2063.5 209.7z"/><path d="M2031.7 210.6c22.2 20.9 19.8 57.3-5.7 74.6-5.2 3.6-.3 12.1 5 8.5 14.5-9.8 23.6-24.9 25.8-42.3 2.2-17.6-5.4-35.9-18.1-47.8C2034.1 199.3 2027.1 206.3 2031.7 210.6L2031.7 210.6zM2188.3 263.4c10 .7 19 6.2 24.3 14.7 3.4 5.4 11.9.4 8.5-5-7.2-11.6-19.2-18.7-32.8-19.6C2181.9 253.1 2182 263 2188.3 263.4L2188.3 263.4zM2002.7 151.6c4.8 3.3 11.3 1.5 14.6-3.1 1.9-2.7 2.5-5.7 2.8-8.9.3-3.8-1.2-8.1.3-11.8 2.5-5.8-6-10.8-8.5-5-1.6 3.6-2 7-1.9 10.9.1 1.3.8 11.4-2.4 9.2C2002.4 139.5 1997.5 148.1 2002.7 151.6L2002.7 151.6z"/><path d="M1854.5,239.5c101.5-45.9,219.4-25.4,321.2-70.7c5-2.2,9.9-4.7,14.8-7.2c5.6-3,0.6-11.5-5-8.5 c-99.3,52.2-218,31.5-321.1,71.7c-5,1.9-9.9,4.1-14.8,6.3C1843.7,233.6,1848.7,242.1,1854.5,239.5L1854.5,239.5z"/><path d="M1863.7,189c55.3-3,110.3-9.3,164.9-18.7c27.4-4.7,54.6-10.3,81.6-16.6c13.8-3.2,27.5-6.8,41.3-10.4 c9.3-2.4,29.6-4.6,29.5,10.4c-0.1,6.4,9.8,6.4,9.9,0c0.1-10.9-8.6-19.1-18.8-21.6c-13.6-3.3-28.9,3.2-41.9,6.5 c-28.8,7.3-57.8,13.6-87.1,19.1c-59.3,11.1-119.2,18.1-179.4,21.4C1857.4,179.5,1857.4,189.4,1863.7,189L1863.7,189z"/><path d="M2042.6 133.2c-54.7 10.1-108.5 24.5-161 42.9-6 2.1-3.4 11.7 2.6 9.5 52.5-18.5 106.3-32.8 161-42.9C2051.5 141.6 2048.8 132.1 2042.6 133.2L2042.6 133.2zM1760 239.1c27.4 5.9 55.5 7.2 83.3 3.5 6.2-.8 6.3-10.7 0-9.9-26.9 3.6-54.1 2.6-80.7-3.1C1756.5 228.2 1753.8 237.7 1760 239.1L1760 239.1zM1861.4 176.9c-15.6-3.1-32.2 7.5-34.5 23.6-2.4 16.6 11.9 31.7 28.2 32 6.4.1 6.4-9.8 0-9.9-10.4-.2-20-10.2-18.5-20.8 1.4-10 12.4-17.3 22.1-15.4C1865 187.7 1867.6 178.1 1861.4 176.9L1861.4 176.9z"/><path d="M1763.7 235.4c4.7-2.8 9-10.5 4.6-15.4-6.3-7.1 5.8-16.3 11.1-19.5 15.3-9.5 34.7-8.5 52-7.8 6.4.2 6.4-9.6 0-9.9-18.5-.7-37.2-.8-54.2 7.6-7.3 3.6-14.3 9.5-18.1 16.8-1.8 3.4-2.5 7.4-1.9 11.2.3 1.9.9 3.5 1.7 5.3 1 2.2 2.2 1.7-.1 3.2C1753.3 230.2 1758.3 238.8 1763.7 235.4L1763.7 235.4zM1786.9 243.9c-.1 13.3-3.6 29.8 7.4 40 9.7 9 25.9 8.2 38 6 1.5-.3 3.2-1.9 3.5-3.5 2.3-14.5 4.6-28.9 6.9-43.4 1-6.2-8.5-8.9-9.5-2.6-2.3 14.5-4.6 28.9-6.9 43.4 1.2-1.2 2.3-2.3 3.5-3.5-9.1 1.7-21.9 2.6-29.3-4.2-3.9-3.6-4.1-9.9-4.2-14.8-.2-5.8.5-11.6.6-17.4C1796.9 237.5 1787 237.5 1786.9 243.9L1786.9 243.9z"/><path fill="#FFF" d="M1776,649.4c4.2,34.8,7.5,69.7,10.1,104.7c0.9,11.9,1.7,23.9,2.4,35.8c0.2,3.5,0.4,7,0.6,10.5 c0,1.1,0.1,2.1,0.1,3.2c0.1,3-1.1,1.2,0.8-4.4c13.2-1.7,26.3-3.4,39.5-5.2c2.2,3.2,2.5,7.3,2.9,10.5c0-0.3-0.1-0.6-0.1-0.9 c-0.1-1.2-0.2-2.3-0.2-3.5c-0.3-4.3-0.5-8.6-0.8-13c-0.7-11.7-9.3-21.6-21.6-21.6c-11.3,0-22.2,9.8-21.6,21.6 c0.4,8-0.6,21.8,4.1,28.6c10.6,15.5,33.4,13.3,39.5-5.2c1.8-5.5,0.5-12.6,0.2-18.2c-0.7-11.8-1.5-23.7-2.3-35.5 c-2.6-35.9-5.9-71.8-10.3-107.6c-1.4-11.7-8.7-21.6-21.6-21.6C1786.9,627.8,1774.6,637.7,1776,649.4L1776,649.4z"/><path d="M1899.1,584.3c15.8-24.1,13.7-57.2,10.4-84.5c-1.8-15.4-5.1-30.6-9.7-45.4c-3.7-12-9-23.6-17.4-33 c-8.9-10-21.8-14.7-34.7-17c-15-2.8-30.4-3.5-45.6-3.7c-25-0.3-57.7-0.7-76,19.3c-19.4,21.3-26.1,49.9-29.8,77.6 c-2.1,15.6-2.4,31.1,0.3,46.6c2.4,13.2,8.4,25.2,12.4,37.9c1.6,5.1,3.7,9.8,7.1,13.9c4.2,5.1,11.5,8.1,17.2,11.1 c12.8,6.6,26.4,11.4,40.4,14.6c25.7,6,53.4,7,78.3-2.5C1870.6,612.3,1887.8,600.6,1899.1,584.3c3.6-5.3-4.9-10.2-8.5-5 c-13.8,20-38.4,32.2-61.9,36.1c-13.6,2.2-28.4,0.9-41.9-1.2c-14.5-2.3-28.7-6.6-42-12.6c-6.4-2.9-12.5-6.2-18.4-9.9 c-5.1-3.1-6.8-9.5-8.5-14.9c-4-13.1-10-25.1-12.2-38.8c-2.6-16-0.8-32.8,1.9-48.7c2.5-14.5,5.5-28.8,12-42 c5.6-11.2,12.9-22.6,24.2-28.8c11.1-6.1,24.8-6.9,37.2-7.7c15.4-0.9,30.8-0.6,46.1,0.7c13.6,1.1,27.9,2.6,39.9,9.6 c10.9,6.4,17.2,18.4,21.4,29.9c5,13.6,8.2,28.1,10.4,42.4c2.4,15.1,3.2,30.4,2.6,45.6c-0.5,14.1-3,28.2-10.8,40.1 C1887.1,584.7,1895.6,589.6,1899.1,584.3z"/><path d="M1806.2,270c15.6-6.5,24.9,11.1,28.1,23.4c4.4,17.3,5.8,35.6,5.9,53.4c0.1,17.1-0.9,35.1-5.7,51.6 c-4.1,14.3-15.3,28.5-31.6,27c-6.4-0.6-6.3,9.3,0,9.9c18,1.6,32.6-12.2,38.9-28c7.4-18.7,8.2-40.6,8.2-60.5 c0-20.6-1.7-42.9-8.1-62.5c-5.1-15.5-20.8-31.2-38.4-23.9C1797.8,262.8,1800.3,272.4,1806.2,270L1806.2,270z"/><path d="M1795.6 270.8c-13.9 41.7-15.2 87-3.9 129.4 1.6 6.2 11.2 3.5 9.5-2.6-10.9-40.8-9.5-84.1 3.9-124.2C1807.2 267.4 1797.6 264.8 1795.6 270.8L1795.6 270.8zM2071.2 62.1c.6 7.4-.4 14.6-3.6 21.3-2.7 5.7 5.8 10.8 8.5 5 3.9-8.3 5.7-17.1 4.9-26.3C2080.5 55.8 2070.6 55.7 2071.2 62.1L2071.2 62.1zM2221.4 291.1c-3.2 13.7.5 27.7 10.1 38.1 4.3 4.7 11.3-2.3 7-7-7.1-7.7-10-18.2-7.6-28.4C2232.4 287.5 2222.8 284.9 2221.4 291.1L2221.4 291.1zM2243.5 366.9c5.7 8.9 14.5 14.2 24.8 15.6 2.7.4 4.9-2.5 4.9-4.9 0-3-2.3-4.6-4.9-4.9-6.7-.9-12.7-5-16.3-10.7C2248.6 356.6 2240 361.5 2243.5 366.9L2243.5 366.9zM2674.7 850.3c65.8 8.7 131.6 17.5 197.4 26.1 64.4 8.5 129 16.2 191.6 34.2 56.4 16.2 111.5 37.5 166.2 58.8 55.7 21.7 111.2 43.9 167.7 63.3 6 2.1 8.6-7.5 2.6-9.5-62.2-21.4-123-46.2-184.4-69.8-60.4-23.3-121.6-46.7-184.7-61.5-57.4-13.5-116.4-19.8-174.8-27.4-60.6-7.9-121.1-16-181.7-24.1C2668.4 839.5 2668.4 849.4 2674.7 850.3L2674.7 850.3zM2760 224.5c13.3 20.8 36 30.9 58.8 37.8 28 8.6 56.3 15.5 84.1 25.1 29.7 10.2 58.8 22.1 87.3 35.4 14.4 6.7 28.5 13.8 42.5 21.3 10.6 5.6 20.4 11.2 32.5 12.7 6 .7 12.1.5 18.2.7 8.3.3 16.5 1.3 24.6 2.8 15.3 2.8 30.2 7.5 44.8 13 28.7 10.7 55.9 24.8 84.3 36.1 26.6 10.6 54.1 16.8 82.1 22.1 24.7 4.7 48.8 10.5 71.6 21.6 2.7 1.3 5.3 2.7 8 4.1 5.6 3 10.6-5.5 5-8.5-22.8-12.2-46.8-19.8-72-24.8-27.1-5.4-54.1-10.2-80.1-19.5-57.6-20.6-110.7-56.1-173.7-56.9-11.9-.2-21.4-1.9-32-7.4-14-7.4-28-14.8-42.3-21.7-27.9-13.5-56.6-25.5-85.8-36.1-28.4-10.3-57.3-18.6-86.4-26.5-22.8-6.3-48.2-14.3-62.1-35-.3-.4-.5-.8-.8-1.2C2765.1 214.2 2756.5 219.1 2760 224.5L2760 224.5zM3243.9 902.9c-23.9-8.9-41.1-28.6-54.8-49.4-16.3-24.6-29.8-51.3-44.2-77.1-16.2-29-32.4-58-48.6-86.9-15.2-27.1-31.7-54.1-43.2-83-5.5-13.8-9.6-28.3-11.2-43.1-1.4-13.6-1.2-28.6 4.9-41.1 5.2-10.7 17-18.1 28.9-14.2 5.9 1.9 9.1 8.4 11.8 13.5 3.6 6.8 7.3 13.4 11.3 20 30.6 50.7 72.2 94.3 98.7 147.6 18.5 37.1 29.5 79.9 20 121.1-1.4 6.2 8.1 8.8 9.5 2.6 13.1-57.1-9.7-114.6-40.1-162.2-16-25.1-34.4-48.6-51.8-72.7-8.7-12-17.2-24.3-25.1-36.8-3.8-6-7.4-12.2-10.8-18.4-3.3-6.1-6.2-12.3-10.8-17.5-7.7-8.8-20.7-9.7-31-5.8-11.7 4.4-18.9 14.8-22.7 26.3-4.4 13-4 27.7-2.4 41.2 1.7 14.5 5.8 28.6 11.1 42.2 11.1 28.7 27.3 55.2 42.2 81.9 16.2 29 32.4 58 48.6 86.9 15.6 27.8 30.1 56.6 47.9 83.1 14.8 22.1 33.6 42 59.1 51.4C3247.3 914.6 3249.9 905.1 3243.9 902.9L3243.9 902.9zM3031.4 874.8c-4.5-24.1-24.7-40.2-33-62.6-5.4-14.5-1.5-29.4 2.1-43.8 3.7-14.5 6.3-29.9 11.5-44 4.6-12.5 18.8-10.7 26.9-2.9 9.7 9.5 8.4 26.4 7.7 38.7-.9 14.9-1.2 29.3 6 42.8 6.5 12.3 17.8 21.6 27.8 30.9 23 21.5 46 43 69 64.4 4.7 4.3 11.7-2.6 7-7-24-22.4-47.9-44.7-71.9-67.1-10.1-9.4-21.3-19-26.1-32.4-5.1-14.3-1.3-30.3-1.5-45.1-.2-12.3-3.3-25.6-12.9-34-7.7-6.8-20-10.1-29.5-5.3-12 6-14 20.6-16.9 32.3-3.8 15.3-8.6 30.6-10.9 46.2-2.7 18.2 2.8 33.6 12.6 48.8 8.8 13.6 19.6 26.3 22.7 42.6C3023 883.7 3032.6 881 3031.4 874.8L3031.4 874.8zM3326.2 665.9c-25.9-44.4-52.6-88.1-90.5-123.4-19-17.8-39.5-34.5-53.8-56.5-13.6-20.8-20.6-48.2-9.3-71.7 2.7-5.7-5.8-10.7-8.5-5-11.1 23.1-7.7 49.1 3.5 71.5 11.9 23.9 32.3 42.3 51.7 59.9 20.6 18.7 39.2 38.6 55.4 61.3 15.7 22.1 29.4 45.5 43.1 68.9C3320.9 676.4 3329.4 671.4 3326.2 665.9L3326.2 665.9zM3352.8 638.1c-25.6-76.4-55.5-160.7-129.3-203.3-5.5-3.2-10.5 5.4-5 8.5 71.5 41.2 100.1 123.6 124.8 197.4C3345.3 646.8 3354.9 644.2 3352.8 638.1L3352.8 638.1zM2835.5 317.4c.5 61.8 3.5 124-8.5 185-11.4 58.1-31.1 114.7-34.7 174.2-.4 6.4 9.5 6.3 9.9 0 3.6-59.2 23.3-115.6 34.7-173.4 12-61.2 8.9-123.7 8.5-185.8C2845.4 311 2835.5 311 2835.5 317.4L2835.5 317.4zM3395.7 641.9c-12.3 4.5-25.6 6.6-36.7 13.8-10.2 6.5-16.9 17.1-16.2 29.4.8 13.2 9.9 24.7 15.9 36 6.5 12.3 11.5 25.2 15.4 38.5 15.9 52.8 13.5 109.1 15.6 163.6.2 6.4 10.1 6.4 9.9 0-1.9-51.1-.5-103-12.4-153.2-2.9-12.1-6.7-24-11.4-35.6-5.1-12.4-11.7-23.7-18.1-35.4-3.2-5.9-5.9-12.7-4.9-19.5.8-5.5 4.5-9.9 8.6-13.4 10-8.7 24.9-10.3 36.9-14.7C3404.2 649.3 3401.7 639.7 3395.7 641.9L3395.7 641.9z"/><g><path d="M2792.2,810.8c-4.4-14.1-7.1-28.5-8-43.3c-0.4-6.3-10.3-6.4-9.9,0c1,15.6,3.7,31,8.4,45.9 C2784.5,819.5,2794.1,816.9,2792.2,810.8L2792.2,810.8z"/></g><g><path d="M2670.6,681.1c2.8,21.1,9.2,41.3,19.3,60.1c3,5.6,11.6,0.6,8.5-5c-9.2-17.1-15.4-35.8-18-55.1 C2679.7,674.9,2669.8,674.8,2670.6,681.1L2670.6,681.1z"/></g><g><path d="M2587.1,563.9c0.7,11.3,1.5,22.5,2.2,33.8c0.7,10.2,1.9,20.3,6.4,29.6c3.7,7.6,10.3,13.4,18.1,16.3 c9.8,3.7,20.6-0.7,28.9-5.9c18-11.3,33.8-28,47.6-44c5.6-6.6,12-19,21.5-20.1c5.3-0.6,11.2,1.7,16.2,3.3c5.9,2,11.6,4.7,17,7.9 c5.5,3.2,10.5-5.4,5-8.5c-8.8-5.1-18.2-8.9-28-11.4c-9.3-2.3-17.5-0.8-24.8,5.5c-7,6.1-12.3,14.8-18.5,21.7 c-7.1,7.9-14.7,15.4-22.6,22.5c-12.9,11.5-35,31.7-49.6,11.5c-5.8-8.1-6.6-18.7-7.3-28.3c-0.8-11.2-1.5-22.5-2.2-33.8 C2596.6,557.5,2586.7,557.5,2587.1,563.9L2587.1,563.9z"/></g><g><path d="M2713.3,695.7c-18.8-16.9-40.9-27.9-65.2-34.1c-21.2-5.4-51.1-11.7-55.2-37.7c-1-6.3-10.5-3.6-9.5,2.6 c4,25.1,29.7,36.2,51.5,41.9c13.3,3.5,26.4,6.6,38.9,12.5c11.9,5.6,22.9,13,32.6,21.8C2711,707,2718,700,2713.3,695.7 L2713.3,695.7z"/></g><g><path d="M2734.7,250.7c28.4,9.9,32.3,44.1,30.2,69.8c-2.6,31.4-10.1,62.6-19.1,92.7c-8.9,29.9-19.8,59.3-32.9,87.6 c-12.2,26.6-27.2,52.2-46.8,74.1c-12.9,14.5-27.9,27-44.7,36.7c-5.5,3.2-0.5,11.7,5,8.5c50.2-29,81.1-80.1,102.9-132.2 c12.1-28.8,22.5-58.4,30.7-88.6c8-29.6,15-61.1,15.4-91.9c0.3-27-10.6-56.8-38.1-66.3C2731.3,239.1,2728.8,248.6,2734.7,250.7 L2734.7,250.7z"/></g><g><path d="M2744.9,250.7c13.9,7,27.9,13.9,43.2,17.2c6.2,1.3,8.9-8.2,2.6-9.5c-14.5-3.1-27.7-9.6-40.8-16.2 C2744.3,239.3,2739.2,247.8,2744.9,250.7L2744.9,250.7z"/></g><g><path d="M2677.4,824.5c25.1-124.2,83.6-238.8,108.1-363.3c8.8-44.5,12.9-90.1,9.4-135.4c-0.5-6.3-10.4-6.4-9.9,0 c10,128.4-41.5,249.7-81.6,368.8c-14.1,41.8-26.8,84-35.6,127.2C2666.6,828.1,2676.1,830.7,2677.4,824.5L2677.4,824.5z"/></g><g><path d="M2779.6,262.8c8.8,22.2,11.2,46.2,6.5,69.6c-1.3,6.2,8.3,8.9,9.5,2.6c5.1-25.1,3-51.1-6.5-74.9 C2786.8,254.4,2777.3,256.9,2779.6,262.8L2779.6,262.8z"/></g><g><path d="M1829.5,624.2c6.4,48.2,6.3,97,4.6,145.5c-1.6,48.6-3.9,97.2-5.9,145.8c-0.3,6.4,9.6,6.4,9.9,0c2-48.6,4.2-97.2,5.9-145.8 c1.6-48.5,1.8-97.3-4.6-145.5C1838.5,618,1828.6,617.9,1829.5,624.2L1829.5,624.2z"/></g><g><path d="M1777.1,625.5c-0.9,32.8-1.8,65.6-2.7,98.4c-0.2,7.9-0.4,15.7-0.6,23.6c-0.2,7.1-0.2,14,3.4,20.3c3,5.1,9.3,7.5,9.7,13.9 c0.5,7.2-1.6,15-1.9,22.2c-0.7,14.9,1.1,29.9,4.6,44.4c1.7,7,4.1,13.7,6.6,20.4c1.2,3.3,2.4,7,0.6,10.4c-1.6,3-4.4,5.2-6,8.2 c-4.2,7.9-2,17,4.7,22.6c6.6,5.6,15.5,7.8,23.9,8.9c2.5,0.3,5,0.4,7.5,0.3c2.7-0.2,4.9-2.1,4.9-4.9c0-1,0-2,0-3 c0-6.4-9.9-6.4-9.9,0c0,1,0,2,0,3c1.6-1.6,3.3-3.3,4.9-4.9c-7.3,0.4-15-1.1-21.4-4.4c-2.8-1.5-5.7-3.5-6.7-6.7 c-1.7-5.2,3.2-9,5.7-12.8c3.7-5.5,3.5-11.4,1.7-17.6c-2-6.8-4.8-13.4-6.7-20.3c-4-14.8-5.3-30.1-4.6-45.3 c0.3-6.8,1.8-13.6,1.9-20.4c0-6-3-10.7-7.1-14.8c-2.3-2.3-4.4-4.2-5.4-7.4c-1-3.2-0.7-6.8-0.7-10.1c0.2-8.5,0.5-17.1,0.7-25.6 c0.9-32.8,1.8-65.6,2.7-98.4C1787.2,619.1,1777.3,619.1,1777.1,625.5L1777.1,625.5z"/></g><g><path d="M398.4,848.1c44,21.6,91.4,36.3,138.7,48.6c49,12.7,99,22.4,149.3,27.7c6.5,0.7,13,1.3,19.5,1.7c6.4,0.5,6.3-9.4,0-9.9 c-49.2-3.6-98-12.6-146-24c-48.9-11.6-97.8-25.9-143.7-46.5c-4.3-1.9-8.6-4-12.8-6C397.7,836.8,392.7,845.3,398.4,848.1 L398.4,848.1z"/><path d="M992.2,1110.4c18-5.3,27.4-21.7,32.4-38.7c5.8-19.5,6.8-40.5,7.7-60.7c1.3-28.1,0.7-55.5-4.5-83.2 c-2.9-15.1-7.1-30-12.3-44.5c-2.2-6.1-4.6-11.9-8.6-17c-4.2-5.4-9.6-9.4-15.1-13.4c-43-31.5-98.6-40.7-150.7-40.1 c-28.5,0.3-57,3.9-85.3,6.9c-29.8,3.2-59.5,7-89,12.2c-30.1,5.2-59.9,11.9-89.1,20.7c-14.1,4.3-28,9.1-41.7,14.6 c-8,3.2-14.7,5.2-23.4,5.2c-8,0.1-15.8-0.3-23.8,1.1c-6.3,1.1-3.6,10.6,2.6,9.5c7.6-1.3,15.3-0.7,23-0.7 c8.1-0.1,15.1-1.9,22.6-4.9c13.7-5.5,27.6-10.4,41.7-14.7c28.6-8.8,57.8-15.4,87.3-20.6c29.8-5.3,59.9-9.2,90-12.4 c28.3-3.1,56.8-6.5,85.3-6.9c52.7-0.8,108.7,9.3,151,42.8c11.8,9.4,15.5,24.1,19.6,38c4.4,14.9,7.6,30.2,9.5,45.7 c3.2,25.3,2,50.8,0.4,76.2c-1,15.9-2.7,31.9-7.6,47.1c-4,12.4-11.3,24.6-24.5,28.4C983.5,1102.7,986.1,1112.2,992.2,1110.4 L992.2,1110.4z"/><path d="M917.1,828.1c43.5-29.9,96.2-38.3,147.7-43.5c52.4-5.3,106.1-7.8,156.2-25.5c20.7-7.3,45-20.2,67.4-12.6 c14.6,5,28.9,23.9,19,38.8c-3.6,5.3,5,10.3,8.5,5c12.7-19-2.3-42.3-20.2-51.3c-25.7-12.9-55.9,3.2-80.4,11.6 c-50.3,17.5-104.4,19.2-156.9,24.7c-51,5.4-103.2,14.6-146.3,44.2C906.9,823.1,911.8,831.7,917.1,828.1L917.1,828.1z"/><path d="M1306.9 781.5c7.1 64.2 26.2 125.9 42.9 188 8.4 31 15.7 62.3 20.7 94.1 5.1 32.3 8.3 64.9 10.7 97.5 2.9 39.7 4.5 79.5 4.7 119.3 0 6.4 9.9 6.4 9.9 0-.3-65-3.8-130.4-12.3-194.9-4.2-31.8-10.1-63.2-17.9-94.3-7.8-31.1-16.9-61.9-25.2-93-10.2-38.3-19.3-77.1-23.7-116.6C1316.1 775.2 1306.2 775.2 1306.9 781.5L1306.9 781.5zM1487.8 1121.4c28.1-11.6 58-18.3 88.4-19.6 31.2-1.4 61.5 4.2 91.6 12.1 30.4 8 60.5 16.4 92 18.9 31.7 2.5 63.5-.3 94.8-5.1 33.8-5.3 67-13.5 100.2-21.7 2.3-.6 3.4-2.6 3.6-4.8 3.8-30-6.6-60.8-27.6-82.6-20.8-21.7-52.3-32.4-82-29.3-6.3.7-6.3 10.6 0 9.9 27.6-2.9 55.4 6.7 75 26.4 19.5 19.6 28.2 48.4 24.7 75.6 1.2-1.6 2.4-3.2 3.6-4.8-62.3 15.4-125.8 30.9-190.4 26.6-31.9-2.1-62.3-11.1-93.1-19.1-29.8-7.8-59.7-13-90.6-12-31.8.9-63.5 7.9-92.9 20C1479.4 1114.3 1482 1123.9 1487.8 1121.4L1487.8 1121.4z"/><path d="M1314.1 806.7c46.9-29.5 105.9-31.3 157.8-14.9 53.2 16.9 98.4 52.6 136.5 92.5 32.2 33.7 60.2 73 102.8 94.4 43.3 21.8 93.8 22.3 141.1 18.4 6.3-.5 6.4-10.4 0-9.9-28.6 2.4-57.5 3.1-85.9-1.5-28.1-4.5-54.1-15.1-76.8-32.3-22.1-16.8-40.1-38.5-58.4-59-18.5-20.7-38-40.4-59.6-57.9-36.9-29.9-79.9-53.3-127.1-61.7-46-8.2-95.3-1.9-135.2 23.3C1303.7 801.5 1308.7 810.1 1314.1 806.7L1314.1 806.7zM1729.4 1253.8c19.6-.2 39.5-1.4 58.3-7.6 16.4-5.4 31.5-14.2 46.8-22.1 27.4-14.2 55.6-26.7 84.4-37.7 24-9.2 48.4-17.6 72.8-25.5 14.6-4.7 29.5-8.7 43.8-14.3 13.4-5.2 26.2-11.9 38.2-19.6 22.4-14.4 40.4-33.1 56.2-54.4 15.9-21.6 29.5-44.9 46.2-66 34.1-43.4 75.9-80.1 119.2-114.1 5-3.9-2-10.9-7-7-45.5 35.8-88.9 74.5-124.2 120.6-17.3 22.6-31.4 47.5-49 69.9-17.9 22.8-40.1 40.6-65.9 53.8-13.5 6.9-27.8 11.5-42.3 16-14.2 4.4-28.3 9-42.4 13.8-22 7.5-43.9 15.4-65.5 24.1-26.2 10.6-51.7 22.5-76.7 35.7-13.5 7.1-26 14-40 18.3-17.3 5.3-34.8 6.2-53 6.4C1723 1244 1723 1253.9 1729.4 1253.8L1729.4 1253.8z"/><path d="M1635.8 908.4c32.1 8.6 64.2 17.3 96.3 25.9 31.4 8.4 62.8 18.5 95 23.6 61.2 9.7 124.4-6.3 180-31.8 14.7-6.8 29.1-14.5 42.4-23.8 13.4-9.4 24.8-20.9 36.3-32.4 19.6-19.6 49.8-44.7 79.2-29.3 5.6 3 10.6-5.6 5-8.5-24.3-12.8-51.8-2.4-72 13.3-11.4 8.9-21.2 19.7-31.5 29.8-10.8 10.6-22.6 19.5-35.5 27.3-26.3 15.8-55.4 27.3-84.8 35.9-30.3 8.8-61.8 13.5-93.3 12.2-36.3-1.5-71.6-13.3-106.5-22.7-36-9.7-71.9-19.3-107.9-29C1632.3 897.2 1629.7 906.7 1635.8 908.4L1635.8 908.4zM1733.3 1243.1c-62.1-15.8-123.5-33.9-184.2-54.3-30.3-10.2-60.5-21.1-90.4-32.4-7.2-2.7-14.3-5.5-21.5-8.3-5.8-2.3-9.9-7.4-15.4-10.6-10.4-6-22.9-7.5-34.6-5.1-.9.2-1.9.5-2.8.7-6.1 1.7-3.5 11.3 2.6 9.5 11.6-3.3 23.5-1 33.5 5.6 2.5 1.6 4.6 3.7 6.6 5.9 2 2.2 6.6 3 9.3 4.1 7.8 3 15.5 6 23.3 9 29.3 11.1 58.9 21.7 88.6 31.7 60.1 20.2 120.9 38.1 182.3 53.7C1736.8 1254.2 1739.5 1244.7 1733.3 1243.1L1733.3 1243.1z"/><path d="M2166.8,837.4c25.5-16.9,51.7-32.7,78.5-47.5c12.5-6.9,25.7-13.9,40.4-11.1c13.5,2.6,24.8,12.1,34.8,21 c3.3,3,5.3,4.4,6.4,8.5c1,3.7,1.3,7.5,1.4,11.3c0,2.7,0.1,6.2-1.2,8.5c0.4-0.8,1.9-1,2.6-0.8c-1.4-0.3-2.5,0-3.8,0.3 c-2.4,0.7-4.8,1.8-6.8,3.2c-7,4.8-9,13.3-10.8,21.1c-2.6,11.5-6.5,21.1-15.7,28.8c-4.9,4.1,2.1,11.1,7,7 c9.1-7.6,14.3-17.4,17.2-28.8c1.9-7.4,2.3-17.2,9.8-21.1c0.8-0.4,3.1-0.4,0.9-0.9c1.1,0.3,1.9,0.2,3.1,0c1.4-0.2,2.6-1.1,3.7-2 c2.6-2.3,3.2-6.5,3.6-9.7c0.9-7.8,0.2-16.6-2.9-23.8c-1.8-4.1-5.5-6.7-8.7-9.6c-5.2-4.7-10.7-9.1-16.5-13 c-11-7.4-24-11.8-37.4-10c-14.6,1.9-27.7,10.3-40.4,17.4c-13.9,7.8-27.6,15.9-41.2,24.3c-9.8,6-19.4,12.2-29,18.6 C2156.5,832.3,2161.5,840.9,2166.8,837.4L2166.8,837.4z"/><path d="M1914.6,1016.2c46.3-9,87.1-31.9,124.6-59.7c37.2-27.5,71.5-58.8,110.4-84c13.5-8.7,27.6-16.6,42.2-23.4 c13.6-6.3,27.6-12.3,42.7-13.2c14.5-0.8,29.4,0.1,43.7,2.6c6.9,1.2,13.2,3.2,18.4,8.2c6.1,5.9,8.1,14.3,7.2,22.5 c-0.7,6.3,9.2,6.3,9.9,0c1.3-11.4-2.8-22.5-11.1-30.4c-7.5-7.2-17.4-9.3-27.3-10.7c-19.7-2.8-42.4-5-61.6,1.6 c-45,15.4-83.9,42.9-120.9,72.1c-27.4,21.7-54.1,44.4-83.4,63.6c-29.9,19.6-62.4,34.6-97.6,41.4 C1905.7,1007.9,1908.3,1017.4,1914.6,1016.2L1914.6,1016.2z"/><path d="M2114.4 889.7c14.1-20.4 32.9-37 54.7-48.7 5.6-3 .6-11.6-5-8.5-23.3 12.6-43.1 30.5-58.2 52.3C2102.3 890 2110.8 894.9 2114.4 889.7L2114.4 889.7zM978.5 1285.4c7.5-7.5 15.3-14.8 26-17 11.2-2.3 22.2 5.9 28.4 14.5 3.7 5.1 12.3.2 8.5-5-8-11.1-19.5-19.3-33.5-19.6-14.7-.3-26.7 10.4-36.4 20.1C967 1282.9 974 1289.9 978.5 1285.4L978.5 1285.4zM1846.2 1051c0 13.5 0 27 0 40.5 0 6.4 9.9 6.4 9.9 0 0-13.5 0-27 0-40.5C1856.1 1044.6 1846.2 1044.6 1846.2 1051L1846.2 1051zM2172.4 980.5c6.2 0 12.3 0 18.5 0 6.4 0 6.4-9.9 0-9.9-6.2 0-12.3 0-18.5 0C2166 970.6 2166 980.5 2172.4 980.5L2172.4 980.5zM1431.9 955.3c13.4 34.8 43.6 61.6 80 70.3 6.2 1.5 8.8-8.1 2.6-9.5-32.8-7.8-60.9-31.8-73.1-63.4C1439.2 946.8 1429.6 949.4 1431.9 955.3L1431.9 955.3zM1817.5 960.2c16 5.8 28.5 19 33.6 35.2 1.9 6.1 11.5 3.5 9.5-2.6-6.3-19.7-21.2-35-40.5-42.1C1814.1 948.5 1811.6 958 1817.5 960.2L1817.5 960.2zM1 821.7c112.9-13.4 228-19.2 339.2 9 41.9 10.6 82.5 25.9 121.3 45 5.7 2.8 10.7-5.7 5-8.5-51.6-25.4-106.2-43.9-162.7-54.6-54.5-10.3-110.1-13.2-165.5-11.7-45.9 1.2-91.7 5.5-137.2 10.9C-5.3 812.5-5.3 822.4 1 821.7L1 821.7zM180.4 1286.2c55-32.4 107.4-69.2 164.4-98.3 27.7-14.1 56.5-26.5 86.2-35.8 14.8-4.6 30.5-7.3 45.7-2.8 12.8 3.7 23.2 13.1 31.7 23 24.6 28.5 39 69.4 29.1 106.6-1.7 6.5 8.3 9.2 10 2.8 7.1-26.9 2.6-54.6-8.5-79.8-10.3-23.4-27.5-47.8-51.1-59.2-27.9-13.6-59.1-1.4-86 8.6-28.9 10.8-56.8 24.2-83.8 39-49 26.8-94.9 58.7-143 87C169.4 1280.6 174.6 1289.6 180.4 1286.2L180.4 1286.2zM3.6 1121c72.4-34.3 141.2-76 204.9-124.6 5.3-4 .1-13-5.2-9C139.5 1036 70.8 1077.8-1.7 1112-7.7 1114.9-2.4 1123.9 3.6 1121L3.6 1121z"/></g><g><path fill="#FFEACC" d="M1738.4,1077.6c-17.6-17.9-42.6-27.2-67.6-25c-3.2,0.3-3.2,5.3,0,5c23.8-2.1,47.3,6.5,64.1,23.5 C1737.1,1083.5,1740.6,1079.9,1738.4,1077.6z"/></g></svg>