<svg xmlns="http://www.w3.org/2000/svg" viewBox="0 0 283.5 283.5" id="securety"><g opacity=".6"><path opacity=".3" stroke="#000" stroke-width="1.694" stroke-miterlimit="10" d="M216.1,262.6c0,0-154.7-89.3-154.7-89.4 c0,0,0-149.7,0-149.7l154.8,88.4C216.4,111.9,216.1,262.6,216.1,262.6C216.1,262.8,216.1,262.6,216.1,262.6z"/></g><path fill="#F7923F" stroke="#545453" stroke-width="1.145" stroke-miterlimit="10" d="M123.3 157l-4.4 2.5c0 0 0 0 0 0v-19.1l4.4-2.8C123.3 137.6 123.3 157 123.3 157zM180.1 198.6l-4.9 2.8c0 0 0 0 0 0v-28.1l4.9-3.7V198.6z"/><path fill="#FFDA99" stroke="#545453" stroke-width="1.145" stroke-miterlimit="10" d="M118.2,61.4v69.8c0,0.1,0,0.1,0.1,0.1	l65.3,37.2v9.3l-73.1-42.3V57.1c0,0,0,0,0,0L118.2,61.4z"/><path fill="#FFDA99" stroke="#545453" stroke-width="1.145" stroke-miterlimit="10" d="M122.8,128.4l64.9,37.4	c0.1,0.1,0.1,0.3,0,0.3l-4.2,2.4l-65.1-37.1c-0.1-0.1-0.1-0.2,0-0.3L122.8,128.4z"/><path fill="#F7923F" stroke="#545453" stroke-width="1.145" stroke-miterlimit="10" d="M122.8,128.4V58.7c0,0,0,0,0,0l-4.6,2.7V131	c0,0.1,0.1,0.2,0.2,0.1L122.8,128.4z"/><path fill="#FFDA99" stroke="#545453" stroke-width="1.145" stroke-miterlimit="10" d="M183.7,168.6l7.7,4.7c0,0,0,0,0,0.1v8.8	c-0.1,0-0.1,0.1-0.2,0.1l-7.7-4.4c0,0,0,0,0-0.1v-9.1C183.5,168.6,183.6,168.5,183.7,168.6z"/><path fill="#FFDA99" stroke="#545453" stroke-width="1.145" stroke-miterlimit="10" d="M191.5,173.3l4.5-2.5c0.1-0.1,0.1-0.2,0-0.3	l-7.9-4.5c0,0-0.1,0-0.1,0l-4.3,2.4c-0.1,0-0.1,0.1,0,0.2L191.5,173.3C191.4,173.3,191.5,173.3,191.5,173.3z"/><path fill="#F7923F" stroke="#545453" stroke-width="1.145" stroke-miterlimit="10" d="M191.6,182.2l4.6-2.5c0,0,0-0.1,0.1-0.1	v-8.9c-0.1,0-0.1,0-0.1-0.1l-4,2.3c-0.4,0.2-0.7,0.7-0.7,1.1v8.1C191.5,182.2,191.5,182.2,191.6,182.2z"/><path fill="#F04F33" stroke="#545453" stroke-width="1.145" stroke-miterlimit="10" d="M190.2,177c0,1.7-1.2,2.4-2.8,1.6	c-1.5-0.9-2.8-3-2.8-4.7s1.2-2.4,2.8-1.6C189,173.1,190.2,175.3,190.2,177z"/><path fill="#FDBD56" stroke="#545453" stroke-width="1.145" stroke-miterlimit="10" d="M159.1,154.4v-27.7L118.2,103c0,0,0,0,0,0	v28.1c0,0.1,0,0.1,0.1,0.1L159.1,154.4C159,154.5,159.1,154.5,159.1,154.4z"/><path fill="#F7923F" stroke="#545453" stroke-width="1.145" stroke-miterlimit="10" d="M163.4,152l-4.2,2.4c0,0-0.1,0-0.1-0.1	l0-27.7l4.2-2.4c0,0,0.1,0,0.1,0V152z"/><path fill="#FFDA99" stroke="#545453" stroke-width="1.145" stroke-miterlimit="10" d="M122.8,100.2l-4.7,2.8c0,0,0,0,0,0	l40.9,23.7l4.1-2.5c0.2,0.1,0-0.1,0-0.1L122.8,100.2z"/><path fill="#F7923F" stroke="#545453" stroke-width="1.145" stroke-miterlimit="10" d="M101.7,130.8l-8,4.5c-0.1,0-0.2,0-0.2-0.1	v-28l8-4.2c0.1,0,0.2,0,0.2,0.1V130.8z"/><path fill="#FFDA99" stroke="#545453" stroke-width="1.145" stroke-miterlimit="10" d="M61.5,79l-7.7,4.7c-0.1,0.1-0.1,0.3,0,0.4	l39.8,23.2l8-4.1c0.1,0,0.1-0.1,0-0.2L61.5,79z"/><path fill="#F04F33" stroke="#545453" stroke-width="1.145" stroke-miterlimit="10" d="M93.5,135.2l0-28L53.7,84.1	c-0.1-0.1-0.3,0-0.3,0.2v27.8l39.9,23.2C93.4,135.4,93.5,135.3,93.5,135.2z"/><path fill="#FFDA99" stroke="#545453" stroke-width="1.145" stroke-miterlimit="10" d="M82,109.7l-4.7,6.9	c-0.2,0.2-0.1,0.5,0.2,0.7l9.7,5.5c0.4,0.2,0.8-0.2,0.7-0.6l-5-12.4C82.7,109.4,82.2,109.4,82,109.7z"/><path fill="none" stroke="#000" stroke-width=".686" stroke-linecap="round" stroke-miterlimit="10" d="M82.5 112.1L80.6 114.7 83.6 116.2 82.1 118.3"/><path fill="#F7923F" stroke="#545453" stroke-width="1.145" stroke-miterlimit="10" d="M93.5 42.1L93.5 98.2 89.1 100.7 89.1 100.7 89.1 45.1 93.5 42.1z"/><path fill="#FFDA99" stroke="#545453" stroke-width="1.145" stroke-miterlimit="10" d="M84.2,42.2l4.8,2.9v55.7c0,0,0,0,0,0	l-4.7-2.7L84.2,42.2C84.2,42.2,84.2,42.1,84.2,42.2z"/><path fill="#F7923F" stroke="#545453" stroke-width="1.145" stroke-miterlimit="10" d="M175.3,173v28.4c0,0,0,0,0,0l-32.7-19.1	v-28.3L175.3,173z"/><path fill="#FFDA99" stroke="#545453" stroke-width=".847" stroke-miterlimit="10" d="M150.6 158.8L150.6 187.1M166.9 168.2L166.9 196.5M159.2 163.7L159.2 192M142.5 163.7L175.3 182.6M142.5 173.2L175.3 192"/><g fill="#FFDA99" stroke="#545453" stroke-width=".282" stroke-miterlimit="10"><path d="M143.9 160.5v1.8c0 0 0 0 0 .1l4.8 2.7c0 0 .1 0 .1-.1v-2c0 0 0 0 0-.1L143.9 160.5C143.9 160.5 143.9 160.5 143.9 160.5zM143.9 170.7v1.8c0 0 0 0 0 .1l4.8 2.7c0 0 .1 0 .1-.1v-2c0 0 0 0 0-.1L143.9 170.7C143.9 170.7 143.9 170.7 143.9 170.7zM143.9 179.9v1.8c0 0 0 0 0 .1l4.8 2.7c0 0 .1 0 .1-.1v-2c0 0 0 0 0-.1L143.9 179.9C143.9 179.8 143.9 179.8 143.9 179.9zM152.4 165.2v1.8c0 0 0 0 0 0l4.8 2.7c0 0 .1 0 .1 0v-2c0 0 0 0 0-.1L152.4 165.2C152.4 165.1 152.4 165.1 152.4 165.2zM152.4 175.4v1.8c0 0 0 0 0 0l4.8 2.7c0 0 .1 0 .1 0v-2c0 0 0 0 0-.1L152.4 175.4C152.4 175.3 152.4 175.3 152.4 175.4zM152.4 184.5v1.8c0 0 0 0 0 0l4.8 2.7c0 0 .1 0 .1 0v-2c0 0 0 0 0-.1L152.4 184.5C152.4 184.4 152.4 184.4 152.4 184.5zM160.6 170v1.8c0 0 0 0 0 .1l4.8 2.7c0 0 .1 0 .1-.1v-2c0 0 0 0 0-.1L160.6 170C160.6 169.9 160.6 169.9 160.6 170zM160.6 180.2v1.8c0 0 0 0 0 .1l4.8 2.7c0 0 .1 0 .1-.1v-2c0 0 0 0 0-.1L160.6 180.2C160.6 180.1 160.6 180.1 160.6 180.2zM160.6 189.3v1.8c0 0 0 0 0 .1l4.8 2.7c0 0 .1 0 .1-.1v-2c0 0 0 0 0-.1L160.6 189.3C160.6 189.2 160.6 189.2 160.6 189.3zM168.6 174.3v1.8c0 0 0 0 0 .1l4.8 2.7c0 0 .1 0 .1-.1v-2c0 0 0 0 0-.1L168.6 174.3C168.6 174.2 168.6 174.3 168.6 174.3zM168.6 184.5v1.8c0 0 0 0 0 0l4.8 2.7c0 0 .1 0 .1 0v-2c0 0 0 0 0-.1L168.6 184.5C168.6 184.4 168.6 184.5 168.6 184.5zM168.6 193.6v1.8c0 0 0 0 0 0l4.8 2.7c0 0 .1 0 .1 0v-2c0 0 0 0 0-.1L168.6 193.6C168.6 193.5 168.6 193.6 168.6 193.6z"/></g><path fill="#FDBD56" stroke="#545453" stroke-width="1.145" stroke-miterlimit="10" d="M87,84.9l23.4,13.3V82.3L87,69.1	c0,0,0,0,0,0V84.9z"/><path fill="#FFDA99" stroke="#545453" stroke-width="1.145" stroke-miterlimit="10" d="M93.5,65.8l16.9,9.6v6.9L87,69.2	c0,0,0,0,0,0L93.5,65.8z"/><path fill="#FDBD56" stroke="#545453" stroke-width="1.145" stroke-miterlimit="10" d="M110.4,135.5v19l8.4,5.1c0,0,0,0,0,0v-19.2	L110.4,135.5z"/><path fill="#FFDA99" stroke="#545453" stroke-width="1.145" stroke-miterlimit="10" d="M114.9 157.2l3.1 1.9c.4.2.9 0 .9-.5v-10.7c0-.2-.1-.4-.3-.5l-3.1-1.9c-.4-.2-.8 0-.8.5v10.7C114.7 156.9 114.8 157.1 114.9 157.2zM118.2 61.4l4.6-2.7c0 0 0 0 0-.1l-7.7-4.3-4.7 2.8c0 0 0 0 0 0L118.2 61.4zM88.8 39.5l-4.5 2.5c0 0 0 .1 0 .1l4.8 2.9 4.4-3c0 0 0 0 0 0L88.8 39.5z"/><g fill="#F7923F" stroke="#545453" stroke-width=".282" stroke-miterlimit="10"><path d="M120.5 111.7c0 .4-.3.5-.6.3s-.6-.6-.6-1c0-.4.3-.5.6-.3C120.2 110.9 120.5 111.3 120.5 111.7zM120.5 109.3c0 .4-.3.5-.6.3-.3-.2-.6-.6-.6-1 0-.4.3-.5.6-.3C120.2 108.5 120.5 108.9 120.5 109.3zM120.5 114.5c0 .4-.3.5-.6.3-.3-.2-.6-.6-.6-1 0-.4.3-.5.6-.3C120.2 113.7 120.5 114.2 120.5 114.5zM120.5 117.1c0 .4-.3.5-.6.3-.3-.2-.6-.6-.6-1s.3-.5.6-.3C120.2 116.3 120.5 116.7 120.5 117.1zM120.5 119.5c0 .4-.3.5-.6.3-.3-.2-.6-.6-.6-1s.3-.5.6-.3S120.5 119.1 120.5 119.5zM120.5 122.2c0 .4-.3.5-.6.3-.3-.2-.6-.6-.6-1 0-.4.3-.5.6-.3C120.2 121.4 120.5 121.9 120.5 122.2zM120.5 127.6c0 .4-.3.5-.6.3s-.6-.6-.6-1c0-.4.3-.5.6-.3C120.2 126.8 120.5 127.2 120.5 127.6zM120.5 125c0 .4-.3.5-.6.3s-.6-.6-.6-1c0-.4.3-.5.6-.3C120.2 124.2 120.5 124.6 120.5 125zM120.5 130.3c0 .4-.3.5-.6.3-.3-.2-.6-.6-.6-1 0-.4.3-.5.6-.3S120.5 129.9 120.5 130.3zM120.5 106.7c0 .4-.3.5-.6.3-.3-.2-.6-.6-.6-1s.3-.5.6-.3C120.2 105.9 120.5 106.4 120.5 106.7z"/></g><g fill="#F7923F" stroke="#545453" stroke-width=".282" stroke-miterlimit="10"><path d="M124.5 114.3c0 .4-.3.5-.6.3-.3-.2-.6-.6-.6-1s.3-.5.6-.3S124.5 113.9 124.5 114.3zM124.5 111.9c0 .4-.3.5-.6.3s-.6-.6-.6-1c0-.4.3-.5.6-.3C124.2 111.1 124.5 111.5 124.5 111.9zM124.5 117.1c0 .4-.3.5-.6.3s-.6-.6-.6-1c0-.4.3-.5.6-.3C124.2 116.3 124.5 116.7 124.5 117.1zM124.5 119.6c0 .4-.3.5-.6.3-.3-.2-.6-.6-.6-1 0-.4.3-.5.6-.3C124.2 118.8 124.5 119.3 124.5 119.6zM124.5 122.1c0 .4-.3.5-.6.3-.3-.2-.6-.6-.6-1s.3-.5.6-.3S124.5 121.7 124.5 122.1zM124.5 124.8c0 .4-.3.5-.6.3s-.6-.6-.6-1c0-.4.3-.5.6-.3C124.2 124 124.5 124.4 124.5 124.8zM124.5 130.2c0 .4-.3.5-.6.3-.3-.2-.6-.6-.6-1 0-.4.3-.5.6-.3S124.5 129.8 124.5 130.2zM124.5 127.6c0 .4-.3.5-.6.3s-.6-.6-.6-1 .3-.5.6-.3S124.5 127.2 124.5 127.6zM124.5 132.8c0 .4-.3.5-.6.3-.3-.2-.6-.6-.6-1 0-.4.3-.5.6-.3S124.5 132.5 124.5 132.8zM124.5 109.3c0 .4-.3.5-.6.3-.3-.2-.6-.6-.6-1 0-.4.3-.5.6-.3C124.2 108.5 124.5 108.9 124.5 109.3z"/></g><g fill="#F7923F" stroke="#545453" stroke-width=".282" stroke-miterlimit="10"><path d="M140.7 123.4c0 .4-.3.5-.6.3s-.6-.6-.6-1c0-.4.3-.5.6-.3C140.5 122.6 140.7 123 140.7 123.4zM140.7 121c0 .4-.3.5-.6.3-.3-.2-.6-.6-.6-1 0-.4.3-.5.6-.3C140.5 120.2 140.7 120.6 140.7 121zM140.7 126.2c0 .4-.3.5-.6.3-.3-.2-.6-.6-.6-1 0-.4.3-.5.6-.3C140.5 125.4 140.7 125.8 140.7 126.2zM140.7 128.7c0 .4-.3.5-.6.3-.3-.2-.6-.6-.6-1 0-.4.3-.5.6-.3C140.5 127.9 140.7 128.4 140.7 128.7zM140.7 131.2c0 .4-.3.5-.6.3s-.6-.6-.6-1 .3-.5.6-.3C140.5 130.4 140.7 130.8 140.7 131.2zM140.7 133.9c0 .4-.3.5-.6.3s-.6-.6-.6-1 .3-.5.6-.3C140.5 133.1 140.7 133.5 140.7 133.9zM140.7 139.2c0 .4-.3.5-.6.3s-.6-.6-.6-1 .3-.5.6-.3C140.5 138.4 140.7 138.9 140.7 139.2zM140.7 136.7c0 .4-.3.5-.6.3s-.6-.6-.6-1 .3-.5.6-.3C140.5 135.9 140.7 136.3 140.7 136.7zM140.7 141.9c0 .4-.3.5-.6.3s-.6-.6-.6-1 .3-.5.6-.3C140.5 141.1 140.7 141.6 140.7 141.9zM140.7 118.4c0 .4-.3.5-.6.3-.3-.2-.6-.6-.6-1s.3-.5.6-.3C140.5 117.6 140.7 118 140.7 118.4z"/></g><g fill="#F7923F" stroke="#545453" stroke-width=".282" stroke-miterlimit="10"><path d="M136.4 121.2c0 .4-.3.5-.6.3-.3-.2-.6-.6-.6-1s.3-.5.6-.3C136.1 120.4 136.4 120.8 136.4 121.2zM136.4 118.8c0 .4-.3.5-.6.3s-.6-.6-.6-1 .3-.5.6-.3S136.4 118.4 136.4 118.8zM136.4 124c0 .4-.3.5-.6.3-.3-.2-.6-.6-.6-1s.3-.5.6-.3S136.4 123.7 136.4 124zM136.4 126.6c0 .4-.3.5-.6.3s-.6-.6-.6-1c0-.4.3-.5.6-.3C136.1 125.8 136.4 126.2 136.4 126.6zM136.4 129c0 .4-.3.5-.6.3-.3-.2-.6-.6-.6-1s.3-.5.6-.3C136.1 128.2 136.4 128.6 136.4 129zM136.4 131.7c0 .4-.3.5-.6.3s-.6-.6-.6-1 .3-.5.6-.3C136.1 130.9 136.4 131.4 136.4 131.7zM136.4 137.1c0 .4-.3.5-.6.3-.3-.2-.6-.6-.6-1s.3-.5.6-.3C136.1 136.3 136.4 136.7 136.4 137.1zM136.4 134.5c0 .4-.3.5-.6.3-.3-.2-.6-.6-.6-1s.3-.5.6-.3C136.1 133.7 136.4 134.1 136.4 134.5zM136.4 139.8c0 .4-.3.5-.6.3-.3-.2-.6-.6-.6-1s.3-.5.6-.3C136.1 139 136.4 139.4 136.4 139.8zM136.4 116.2c0 .4-.3.5-.6.3s-.6-.6-.6-1c0-.4.3-.5.6-.3C136.1 115.4 136.4 115.9 136.4 116.2z"/></g><g fill="#F7923F" stroke="#545453" stroke-width=".282" stroke-miterlimit="10"><path d="M145 126.1c0 .4-.3.5-.6.3-.3-.2-.6-.6-.6-1s.3-.5.6-.3C144.8 125.2 145 125.7 145 126.1zM145 123.7c0 .4-.3.5-.6.3-.3-.2-.6-.6-.6-1s.3-.5.6-.3S145 123.3 145 123.7zM145 128.9c0 .4-.3.5-.6.3-.3-.2-.6-.6-.6-1s.3-.5.6-.3S145 128.5 145 128.9zM145 131.4c0 .4-.3.5-.6.3s-.6-.6-.6-1 .3-.5.6-.3C144.8 130.6 145 131.1 145 131.4zM145 133.9c0 .4-.3.5-.6.3-.3-.2-.6-.6-.6-1s.3-.5.6-.3C144.8 133.1 145 133.5 145 133.9zM145 136.6c0 .4-.3.5-.6.3s-.6-.6-.6-1 .3-.5.6-.3C144.8 135.8 145 136.2 145 136.6zM145 141.9c0 .4-.3.5-.6.3-.3-.2-.6-.6-.6-1s.3-.5.6-.3C144.8 141.1 145 141.6 145 141.9zM145 139.4c0 .4-.3.5-.6.3-.3-.2-.6-.6-.6-1s.3-.5.6-.3C144.8 138.5 145 139 145 139.4zM145 144.6c0 .4-.3.5-.6.3-.3-.2-.6-.6-.6-1s.3-.5.6-.3C144.8 143.8 145 144.2 145 144.6zM145 121.1c0 .4-.3.5-.6.3s-.6-.6-.6-1c0-.4.3-.5.6-.3C144.8 120.3 145 120.7 145 121.1z"/></g><g fill="#F7923F" stroke="#545453" stroke-width=".282" stroke-miterlimit="10"><path d="M152.9 130.6c0 .4-.3.5-.6.3-.3-.2-.6-.6-.6-1s.3-.5.6-.3C152.7 129.8 152.9 130.2 152.9 130.6zM152.9 128.2c0 .4-.3.5-.6.3-.3-.2-.6-.6-.6-1 0-.4.3-.5.6-.3C152.7 127.4 152.9 127.8 152.9 128.2zM152.9 133.4c0 .4-.3.5-.6.3-.3-.2-.6-.6-.6-1s.3-.5.6-.3S152.9 133.1 152.9 133.4zM152.9 136c0 .4-.3.5-.6.3-.3-.2-.6-.6-.6-1s.3-.5.6-.3C152.7 135.2 152.9 135.6 152.9 136zM152.9 138.4c0 .4-.3.5-.6.3-.3-.2-.6-.6-.6-1 0-.4.3-.5.6-.3S152.9 138 152.9 138.4zM152.9 141.1c0 .4-.3.5-.6.3-.3-.2-.6-.6-.6-1s.3-.5.6-.3S152.9 140.8 152.9 141.1zM152.9 146.5c0 .4-.3.5-.6.3-.3-.2-.6-.6-.6-1 0-.4.3-.5.6-.3S152.9 146.1 152.9 146.5zM152.9 143.9c0 .4-.3.5-.6.3-.3-.2-.6-.6-.6-1 0-.4.3-.5.6-.3S152.9 143.5 152.9 143.9zM152.9 149.2c0 .4-.3.5-.6.3-.3-.2-.6-.6-.6-1 0-.4.3-.5.6-.3S152.9 148.8 152.9 149.2zM152.9 125.6c0 .4-.3.5-.6.3s-.6-.6-.6-1c0-.4.3-.5.6-.3C152.7 124.8 152.9 125.3 152.9 125.6z"/></g><g fill="#F7923F" stroke="#545453" stroke-width=".282" stroke-miterlimit="10"><path d="M157.3 132.9c0 .4-.3.5-.6.3s-.6-.6-.6-1 .3-.5.6-.3C157.1 132.1 157.3 132.5 157.3 132.9zM157.3 130.5c0 .4-.3.5-.6.3-.3-.2-.6-.6-.6-1s.3-.5.6-.3C157.1 129.7 157.3 130.1 157.3 130.5zM157.3 135.7c0 .4-.3.5-.6.3-.3-.2-.6-.6-.6-1s.3-.5.6-.3C157.1 134.9 157.3 135.3 157.3 135.7zM157.3 138.2c0 .4-.3.5-.6.3s-.6-.6-.6-1 .3-.5.6-.3C157.1 137.4 157.3 137.9 157.3 138.2zM157.3 140.7c0 .4-.3.5-.6.3-.3-.2-.6-.6-.6-1s.3-.5.6-.3S157.3 140.3 157.3 140.7zM157.3 143.4c0 .4-.3.5-.6.3-.3-.2-.6-.6-.6-1s.3-.5.6-.3C157.1 142.6 157.3 143 157.3 143.4zM157.3 148.7c0 .4-.3.5-.6.3-.3-.2-.6-.6-.6-1s.3-.5.6-.3C157.1 147.9 157.3 148.4 157.3 148.7zM157.3 146.2c0 .4-.3.5-.6.3-.3-.2-.6-.6-.6-1s.3-.5.6-.3C157.1 145.4 157.3 145.8 157.3 146.2zM157.3 151.4c0 .4-.3.5-.6.3-.3-.2-.6-.6-.6-1s.3-.5.6-.3C157.1 150.6 157.3 151.1 157.3 151.4zM157.3 127.9c0 .4-.3.5-.6.3s-.6-.6-.6-1 .3-.5.6-.3S157.3 127.5 157.3 127.9z"/></g><g fill="#F7923F" stroke="#545453" stroke-width=".282" stroke-miterlimit="10"><path d="M148.8 128.1c0 .4-.3.5-.6.3-.3-.2-.6-.6-.6-1s.3-.5.6-.3C148.6 127.3 148.8 127.8 148.8 128.1zM148.8 125.7c0 .4-.3.5-.6.3s-.6-.6-.6-1 .3-.5.6-.3S148.8 125.4 148.8 125.7zM148.8 131c0 .4-.3.5-.6.3-.3-.2-.6-.6-.6-1 0-.4.3-.5.6-.3S148.8 130.6 148.8 131zM148.8 133.5c0 .4-.3.5-.6.3-.3-.2-.6-.6-.6-1s.3-.5.6-.3C148.6 132.7 148.8 133.2 148.8 133.5zM148.8 136c0 .4-.3.5-.6.3-.3-.2-.6-.6-.6-1s.3-.5.6-.3C148.6 135.2 148.8 135.6 148.8 136zM148.8 138.7c0 .4-.3.5-.6.3-.3-.2-.6-.6-.6-1s.3-.5.6-.3S148.8 138.3 148.8 138.7zM148.8 144c0 .4-.3.5-.6.3-.3-.2-.6-.6-.6-1 0-.4.3-.5.6-.3S148.8 143.7 148.8 144zM148.8 141.4c0 .4-.3.5-.6.3-.3-.2-.6-.6-.6-1 0-.4.3-.5.6-.3S148.8 141.1 148.8 141.4zM148.8 146.7c0 .4-.3.5-.6.3-.3-.2-.6-.6-.6-1 0-.4.3-.5.6-.3S148.8 146.3 148.8 146.7zM148.8 123.2c0 .4-.3.5-.6.3s-.6-.6-.6-1c0-.4.3-.5.6-.3C148.6 122.4 148.8 122.8 148.8 123.2z"/></g><g fill="#F7923F" stroke="#545453" stroke-width=".282" stroke-miterlimit="10"><path d="M132.2 118.5c0 .4-.3.5-.6.3-.3-.2-.6-.6-.6-1s.3-.5.6-.3C131.9 117.7 132.2 118.2 132.2 118.5zM132.2 116.1c0 .4-.3.5-.6.3-.3-.2-.6-.6-.6-1s.3-.5.6-.3C131.9 115.3 132.2 115.8 132.2 116.1zM132.2 121.3c0 .4-.3.5-.6.3-.3-.2-.6-.6-.6-1s.3-.5.6-.3C131.9 120.5 132.2 121 132.2 121.3zM132.2 123.9c0 .4-.3.5-.6.3-.3-.2-.6-.6-.6-1 0-.4.3-.5.6-.3C131.9 123.1 132.2 123.5 132.2 123.9zM132.2 126.3c0 .4-.3.5-.6.3-.3-.2-.6-.6-.6-1s.3-.5.6-.3C131.9 125.5 132.2 126 132.2 126.3zM132.2 129c0 .4-.3.5-.6.3-.3-.2-.6-.6-.6-1s.3-.5.6-.3C131.9 128.2 132.2 128.7 132.2 129zM132.2 134.4c0 .4-.3.5-.6.3-.3-.2-.6-.6-.6-1 0-.4.3-.5.6-.3C131.9 133.6 132.2 134 132.2 134.4zM132.2 131.8c0 .4-.3.5-.6.3-.3-.2-.6-.6-.6-1 0-.4.3-.5.6-.3C131.9 131 132.2 131.5 132.2 131.8zM132.2 137.1c0 .4-.3.5-.6.3-.3-.2-.6-.6-.6-1 0-.4.3-.5.6-.3C131.9 136.3 132.2 136.7 132.2 137.1zM132.2 113.5c0 .4-.3.5-.6.3-.3-.2-.6-.6-.6-1 0-.4.3-.5.6-.3C131.9 112.7 132.2 113.2 132.2 113.5z"/></g><g fill="#F7923F" stroke="#545453" stroke-width=".282" stroke-miterlimit="10"><path d="M128.3 116.4c0 .4-.3.5-.6.3-.3-.2-.6-.6-.6-1s.3-.5.6-.3C128.1 115.6 128.3 116 128.3 116.4zM128.3 114c0 .4-.3.5-.6.3-.3-.2-.6-.6-.6-1s.3-.5.6-.3C128.1 113.2 128.3 113.6 128.3 114zM128.3 119.2c0 .4-.3.5-.6.3-.3-.2-.6-.6-.6-1s.3-.5.6-.3C128.1 118.4 128.3 118.8 128.3 119.2zM128.3 121.8c0 .4-.3.5-.6.3-.3-.2-.6-.6-.6-1 0-.4.3-.5.6-.3C128.1 121 128.3 121.4 128.3 121.8zM128.3 124.2c0 .4-.3.5-.6.3-.3-.2-.6-.6-.6-1 0-.4.3-.5.6-.3C128.1 123.4 128.3 123.8 128.3 124.2zM128.3 126.9c0 .4-.3.5-.6.3-.3-.2-.6-.6-.6-1s.3-.5.6-.3C128.1 126.1 128.3 126.5 128.3 126.9zM128.3 132.3c0 .4-.3.5-.6.3-.3-.2-.6-.6-.6-1s.3-.5.6-.3C128.1 131.5 128.3 131.9 128.3 132.3zM128.3 129.7c0 .4-.3.5-.6.3-.3-.2-.6-.6-.6-1s.3-.5.6-.3C128.1 128.9 128.3 129.3 128.3 129.7zM128.3 135c0 .4-.3.5-.6.3-.3-.2-.6-.6-.6-1s.3-.5.6-.3C128.1 134.2 128.3 134.6 128.3 135zM128.3 111.4c0 .4-.3.5-.6.3-.3-.2-.6-.6-.6-1 0-.4.3-.5.6-.3C128.1 110.6 128.3 111.1 128.3 111.4z"/></g><path opacity=".3" stroke="#000" stroke-width="1.694" stroke-miterlimit="10" d="M216.4,111.8l7.4-4.5c0.1-0.1,0.3,0,0.3,0.1	l0,150.7c0,0.1,0,0.1-0.1,0.2l-7.6,4.1c-0.1,0.1-0.3,0-0.3-0.2l0.2-150.4C216.3,111.9,216.3,111.8,216.4,111.8z"/><path opacity=".1" stroke="#000" stroke-width="1.694" stroke-miterlimit="10" d="M69.7 18.5L61.4 22.7 216.3 111.8 224 107.1z"/><g stroke="#000" stroke-miterlimit="10"><path stroke-width=".331" d="M71.7,106.1l-1.3-0.7c-0.1-0.4-0.1-0.8-0.2-1.2 c-0.1-0.5-0.3-1-0.5-1.5l0.9-0.5c0,0,0-0.1,0-0.1l-1.7-2.9c0,0-0.1-0.1-0.1-0.1l-0.9,0.5c-0.3-0.4-0.7-0.8-1-1.2 c-0.3-0.3-0.6-0.5-0.8-0.8v-1.5c0,0,0-0.1-0.1-0.1l-2.3-1.4c0,0-0.1,0-0.1,0v1.5c-0.7-0.2-1.3-0.3-1.9-0.2l-1-1.6 c0,0-0.1-0.1-0.1-0.1l-1.6,1c0,0,0,0.1,0,0.1l1,1.6c-0.4,0.4-0.6,1-0.7,1.7L57.7,98c0,0-0.1,0-0.1,0v2.7c0,0,0,0.1,0.1,0.1l1.4,0.8 c0.1,0.3,0.1,0.7,0.2,1c0.1,0.5,0.3,1,0.5,1.6l-1,0.5c0,0,0,0.1,0,0.1l1.6,2.9c0,0,0.1,0.1,0.1,0.1l1-0.5c0.3,0.4,0.6,0.8,1,1.1 c0.3,0.3,0.6,0.5,0.8,0.8v1.6c0,0,0,0.1,0.1,0.1l2.3,1.4c0,0,0.1,0,0.1,0v-1.6c0.7,0.2,1.3,0.3,1.8,0.2l0.9,1.6 c0,0,0.1,0.1,0.1,0.1l1.7-0.9c0,0,0-0.1,0-0.1l-0.9-1.6c0.4-0.4,0.6-1,0.8-1.7l1.3,0.8c0,0,0.1,0,0.1,0v-2.7 C71.8,106.2,71.8,106.1,71.7,106.1z"/><path fill="#E6E7E8" stroke-width=".23" d="M68.3,105.5c0,2.2-1.6,3.1-3.5,2 c-1.9-1.1-3.5-3.8-3.5-6.1c0-2.2,1.6-3.1,3.5-2C66.7,100.5,68.3,103.3,68.3,105.5z"/><path stroke-width=".331" d="M66.5,104.5c0,1.1-0.8,1.6-1.8,1c-1-0.6-1.8-1.9-1.8-3 s0.8-1.6,1.8-1C65.7,102,66.5,103.4,66.5,104.5z"/></g><path d="M65.8 155.6l3.1 1.8c.8.5 1.5.9 1.9 1.3.4.4.8.8 1 1.1.2.4.4.7.5 1.1.1.4.1.9.1 1.7v1c0 .7-.1 1.2-.2 1.5-.2.2-.4.3-.8.3-.4-.1-.9-.3-1.6-.7l-.8-.5v4.6l-3-1.7V155.6zM68.8 159.3v2.9c.1.1.2.1.2.1.3.2.5.2.6.1.1-.1.2-.3.2-.7v-.9c0-.4-.1-.7-.2-.9C69.5 159.7 69.2 159.5 68.8 159.3zM73.2 159.8l2.1 1.2c1.4.8 2.4 1.4 2.9 1.8.5.4.9.9 1.2 1.5.3.6.5 1.4.5 2.4 0 .9-.1 1.4-.3 1.6-.2.2-.7.1-1.3-.2.6.5 1 .9 1.2 1.3.2.4.3.7.4.9.1.2.1.8.1 1.7v3l-2.8-1.6v-3.8c0-.6 0-1-.1-1.2-.1-.2-.4-.4-.8-.7v5.2l-3-1.7V159.8zM76.2 163.6v2.5c.3.2.6.3.7.3.1 0 .2-.3.2-.8V165c0-.4-.1-.6-.2-.8C76.8 164 76.6 163.8 76.2 163.6zM88 175.1c0 1.2 0 2-.1 2.4-.1.4-.2.8-.5 1-.3.2-.7.3-1.2.2-.5-.1-1.1-.3-1.7-.7-.6-.4-1.2-.8-1.7-1.3-.5-.5-.9-1-1.2-1.6-.3-.6-.5-1.1-.5-1.6-.1-.5-.1-1.3-.1-2.5v-2c0-1.2 0-2 .1-2.4.1-.4.2-.8.5-1s.7-.3 1.2-.2c.5.1 1.1.3 1.7.7.6.4 1.2.8 1.7 1.3.5.5.9 1 1.2 1.6.3.6.5 1.1.5 1.6.1.5.1 1.3.1 2.5V175.1zM85 169.6c0-.5 0-.9-.1-1.1-.1-.2-.2-.3-.4-.4-.2-.1-.3-.1-.4 0-.1.1-.1.4-.1 1v5.4c0 .7 0 1.1.1 1.3.1.2.2.3.4.5.2.1.3.1.4 0 .1-.1.1-.6.1-1.2V169.6zM89.2 169.1l5.1 3v2.3l-2.1-1.2v2.2l1.9 1.1v2.2l-1.9-1.1v4.8l-3-1.7V169.1zM101.1 176v2.3l-1.8-1v9.2l-3-1.7v-9.2l-1.8-1v-2.3L101.1 176zM101.8 176.4l5.1 2.9v2.3l-2-1.2v2.2l1.9 1.1v2.2l-1.9-1.1v2.5l2.2 1.3v2.3l-5.3-3V176.4zM115 189l-3-1.7v-2c0-.6 0-1-.1-1.1-.1-.2-.2-.3-.4-.5-.2-.1-.4-.1-.5 0-.1.1-.1.5-.1 1.1v5.3c0 .6 0 .9.1 1.1.1.2.2.4.5.5.2.1.4.1.4 0 .1-.1.1-.5.1-1.1v-1.4l3 1.7v.4c0 1.2-.1 2-.3 2.4-.2.4-.5.6-1.1.7-.6 0-1.3-.2-2.2-.7-.9-.5-1.6-1.1-2.2-1.7-.6-.6-1-1.3-1.1-2-.2-.7-.3-1.6-.3-2.7v-3.3c0-.8 0-1.4.1-1.8.1-.4.2-.7.5-.9.3-.2.7-.3 1.2-.2.5.1 1.1.3 1.7.7.9.5 1.6 1.1 2.2 1.8.6.7 1 1.3 1.1 1.9.2.6.3 1.5.3 2.5V189zM123.1 188.7v11.5l-3-1.7v-4.8l-.9-.5v4.8l-3-1.7v-11.5l3 1.7v4.1l.9.5v-4.1L123.1 188.7z"/><g><path fill="#FFF" stroke="#000" stroke-width="1.001" stroke-miterlimit="10" d="M206.5,250.6l-78-45c-1-0.6-1.8-2-1.8-3.2 v-12.5c0-1.1,0.7-1.6,1.7-0.9c0.2,0.2,0.4,0.3,0.6,0.4l77.2,44.6c0.2,0.1,0.4,0.2,0.6,0.3c0.9,0.3,1.7,1.7,1.7,2.8v12.5 C208.4,250.7,207.5,251.2,206.5,250.6z"/><g fill="#F5A722"><path d="M129.8 192.5l5.1 2.9v2.3l-2-1.2v2.2l1.9 1.1v2.2l-1.9-1.1v2.5l2.2 1.3v2.3l-5.3-3V192.5zM142.7 199.9v11.5l-2.7-1.5-1.6-6.1v5.2l-2.5-1.5V196l2.5 1.5 1.7 6.1v-5.2L142.7 199.9zM150.9 208.8l-3-1.7v-1c0-.7 0-1.1-.1-1.3-.1-.2-.2-.4-.4-.5-.2-.1-.3-.1-.4 0-.1.1-.1.4-.1 1v5.5c0 .5 0 .9.1 1.1.1.2.2.4.4.5.2.1.4.1.4 0 .1-.1.1-.5.1-1V210l-.6-.4v-1.7l3.5 2v6.2L149 215l-.3-1c-.2.2-.5.3-.8.3-.3 0-.7-.1-1.1-.4-.5-.3-1-.7-1.4-1.2-.4-.5-.8-1-1-1.5-.2-.5-.4-1-.4-1.4-.1-.4-.1-1-.1-1.8v-3.4c0-1.1.1-1.9.2-2.3.1-.4.5-.7 1-.8.6-.1 1.3.1 2.2.7.9.5 1.6 1.1 2.2 1.8.6.7 1 1.3 1.1 1.9.2.6.3 1.4.3 2.3V208.8zM155.1 207v11.5l-3-1.7v-11.5L155.1 207zM163.1 211.7v11.5l-2.7-1.5-1.6-6.1v5.2l-2.5-1.5v-11.5l2.5 1.5 1.7 6.1v-5.2L163.1 211.7zM164.3 212.4l5.1 2.9v2.3l-2-1.2v2.2l1.9 1.1v2.2l-1.9-1.1v2.5l2.2 1.3v2.3l-5.3-3V212.4zM170.4 215.9l5.1 2.9v2.3l-2-1.2v2.2l1.9 1.1v2.2l-1.9-1.1v2.5l2.2 1.3v2.3l-5.3-3V215.9zM176.6 219.4l2.1 1.2c1.4.8 2.4 1.4 2.9 1.8.5.4.9.9 1.2 1.5s.5 1.4.5 2.4c0 .9-.1 1.4-.3 1.6-.2.2-.7.1-1.3-.2.6.5 1 .9 1.2 1.3.2.4.3.7.4.9.1.2.1.8.1 1.7v3l-2.8-1.6v-3.8c0-.6 0-1-.1-1.2-.1-.2-.4-.4-.8-.7v5.2l-3-1.7V219.4zM179.6 223.1v2.5c.3.2.6.3.7.3.1 0 .2-.3.2-.8v-.6c0-.4-.1-.6-.2-.8S179.9 223.3 179.6 223.1zM187.5 225.8v11.5l-3-1.7V224L187.5 225.8zM195.5 230.4v11.5l-2.7-1.5-1.6-6.1v5.2l-2.5-1.5v-11.5l2.5 1.5 1.7 6.1v-5.2L195.5 230.4zM203.7 239.3l-3-1.7v-1c0-.7 0-1.1-.1-1.3-.1-.2-.2-.4-.4-.5-.2-.1-.3-.1-.4 0-.1.1-.1.4-.1 1v5.5c0 .5 0 .9.1 1.1.1.2.2.4.4.5.2.1.4.1.4 0 .1-.1.1-.5.1-1v-1.4l-.6-.4v-1.7l3.5 2v6.2l-1.9-1.1-.3-1c-.2.2-.5.3-.8.3-.3 0-.7-.1-1.1-.4-.5-.3-1-.7-1.4-1.2-.4-.5-.8-1-1-1.5-.2-.5-.4-1-.4-1.4-.1-.4-.1-1-.1-1.8v-3.4c0-1.1.1-1.9.2-2.3.1-.4.5-.7 1-.8.6-.1 1.3.1 2.2.7.9.5 1.6 1.1 2.2 1.8.6.7 1 1.3 1.1 1.9.2.6.3 1.4.3 2.3V239.3z"/></g></g></svg>