<?xml version="1.0" encoding="UTF-8"?>
<svg width="173px" height="652px" viewBox="0 0 173 652" version="1.1" xmlns="http://www.w3.org/2000/svg" xmlns:xlink="http://www.w3.org/1999/xlink">
    <!-- Generator: Sketch 52.6 (67491) - http://www.bohemiancoding.com/sketch -->
    <title>SideBar</title>
    <desc>Created with Sketch.</desc>
    <g id="Page-2" stroke="none" stroke-width="1" fill="none" fill-rule="evenodd">
        <g id="SideBar">
            <g id="cardPoly">
                <rect id="mainRect" stroke="#242424" fill="#F4F4F4" fill-rule="nonzero" x="25.5" y="0.5" width="147" height="93"></rect>
                <g id="picPoly" transform="translate(48.000000, 17.000000)">
                    <path d="M48.9,10.6 C48.7,10 48.6,9.4 48.6,8.8 L48.6,7.3 C48.6,6.8 48.9,6.3 48.8,5.9 C48.7,5 47.2,5.4 46.6,5.4 C46.4,5.4 46.2,5.7 46.4,5.9 C47.2,6.7 47.2,7.9 46.7,8.8 C46.6,9 46.4,9.2 46.2,9.4 L45.8,9.7 C45.7,9.8 45.6,9.9 45.4,10 C44.8,10.3 44.2,10.5 43.6,10.6 C43.2,10.6 43.2,11.2 43.6,11.2 C43.3,11.5 43.2,12 43.4,12.4 C43.7,13 44.6,13.1 45.2,13.1 C45.5,13.1 45.8,13 46,12.9 L46.2,12.9 C46.2,13.1 46.4,13.2 46.6,13.1 C47.4,12.9 48,12.5 48.6,12 C48.8,11.9 48.9,11.8 49,11.6 C49,11.2 49,10.9 48.9,10.6 Z M47,10.8 L47,11.1 C46.9,11 46.9,10.9 47,10.8 Z" id="Shape" fill="#FDBD56" fill-rule="nonzero"></path>
                    <path d="M16.3,54.2 L16.4,54.2 L16.3,54.2 Z M97.1,63.2 C96.5,61.8 94.4,60 90.9,58.7 C88.1,57.6 83.6,56.5 81.9,55.3 L81.8,54.6 C77.5,53.3 78.4,55.3 78.2,51.9 C78.1,51 78.2,49.2 78.2,47.1 C78.2,45.1 78.7,44.8 75,44.8 C74.5,44.8 71.6,45.2 71.3,44.3 C70.7,42.9 70.8,40.3 71.1,39.4 L72,38.8 C72.2,37.9 72.2,36.4 72.2,35.5 C72.2,34.9 70.2,35.1 68.8,35.2 C68.4,35.2 68.1,35.5 68.1,35.9 C68.1,37.1 68.1,39.4 67.7,38.9 C64.8,35.4 63.6,33.2 62.1,33 L62,29.5 C62,29.5 60,25.1 57.8,23.7 L57.6,23.6 C57.9,23.6 58.1,23.2 57.7,22 C56.7,19 57,21.2 57,19.4 C57,18.2 58.8,11.6 56.7,9 C55.4,7.4 52.7,5.1 52.7,5.1 C52.7,5.1 44.7,5.8 44.5,5.1 C42.7,-0.6 38.1,0.7 38.1,0.7 C38.1,0.7 37.8,1 36.8,1.8 C35.8,2.6 35.6,5.2 35.6,5.2 L36.4,5.6 L36.7,7.1 L38.4,8.5 L39,9.4 L39.4,9.7 L38.4,12.1 L38.3,13.4 L38.9,15.1 L39.7,17.5 L40.2,18.9 L41.1,19.6 L41.8,19.7 L40.9,21 L40.5,23.5 L38.8,24.2 L37,24.9 L36.5,26.6 L36.6,28.4 L36.2,32.2 L34.9,33.1 L31.3,37.7 L30.5,37.6 L30.3,34.9 L26.5,34.6 L26.4,38.3 L27.6,38.4 L27.8,42.3 L26.6,44 L20.4,44.2 L20.4,54.3 L16.5,54.2 C16.6,54.2 16.7,54.3 16.2,54.7 C15.2,55.6 5.9,58.2 2.3,59.9 C-0.7,61.3 1.3,63.5 1.3,63.5 L3,64.1 C3,64.1 6.8,64.5 7.2,64.5 C7.6,64.5 35.1,64.9 35.6,64.9 C36.1,64.9 64.2,65.4 66.3,65.3 L91.7,65.3 C91.7,65.3 95.2,64.9 95.7,64.9 C96.2,64.9 97.8,64.6 97.1,63.2 Z" id="Path" fill="#FFEBCC" fill-rule="nonzero"></path>
                    <path d="M49.1,11.4 L49.1,11.2 C49,10.5 48.9,9.8 48.8,9.2 C48.8,8.9 48.7,8.6 48.6,8.4 C48.6,7.6 48.7,6.8 48.6,6 L48.6,5.9 L48.8,5.3 C48.9,5.1 48.6,4.9 48.4,4.9 C47.8,5.1 47.3,5.2 46.7,5.1 C46.4,5.1 46.2,5.4 46.4,5.6 C47,6.2 47.3,7 47.2,7.8 C47,7.9 47,8.2 46.9,8.4 C46.9,8.6 46.9,8.7 46.8,8.9 C46.4,9.2 45.9,9.5 45.6,9.9 L45.1,10.1 L45,10.2 C44.4,10.1 43.8,10 43.2,10.1 C42.9,10.1 42.8,10.5 43.1,10.7 L43.3,10.8 L43.3,11.4 C43.2,11.6 43.1,11.8 43.3,12.1 C43.3,12.1 43.3,12.2 43.4,12.2 C43.4,12.5 43.5,12.7 43.8,12.9 C44.1,13.1 44.6,13 45,12.9 C45.4,12.9 45.9,12.7 46.3,12.6 L46.5,12.8 C46.6,12.9 46.8,12.9 46.9,12.8 L47.1,12.8 L47.3,13 L47.3,13.1 C47.4,13.3 47.7,13.3 47.8,13.1 C47.9,12.8 48.1,12.6 48.1,12.3 L49,11.8 C49.1,11.7 49.2,11.5 49.1,11.4 Z M41.9,11.8 L41.9,11.7 C41.7,11.3 41.6,11 41.6,10.6 C41.6,10.5 41.4,10.4 41.3,10.4 L41.2,10.4 L41,10.3 C40.3,10.4 39.8,9.7 39.1,9.9 C39,9.9 38.9,10.1 38.9,10.2 L38.9,10.4 C38.8,10.5 38.7,10.6 38.8,10.7 L38.7,10.7 C38.6,10.8 38.5,11 38.6,11.1 C38.5,11.3 38.4,11.6 38.2,11.8 C38.1,12 38.3,12.4 38.6,12.2 C39.4,11.6 40.4,11.9 41.3,12.2 L41.3,12.3 C41.3,12.5 41.6,12.7 41.7,12.6 C42,12.5 42,12.2 41.9,11.8 Z M57.3,10.3 C56.6,9.1 55.8,8 54.9,7.1 C54.9,7 54.9,6.9 54.8,6.8 C54,6 53.1,5.5 52,5.3 C51.3,5.2 50,5 49.8,5.9 C49.7,6.3 49.8,6.9 49.9,7.3 C50,8 50.2,8.7 50.3,9.3 C50.4,9.8 50.6,10.2 50.8,10.7 C50.8,11 50.9,11.2 51,11.5 C50.9,11.6 50.8,11.8 50.9,11.9 C51.7,13.1 52.5,14.4 53.2,15.6 C53.3,15.8 53.5,15.8 53.6,15.7 C53.9,16.5 54.5,17.3 55.2,17.8 C55.4,18 55.7,17.7 55.6,17.5 C55.2,16.4 54.5,15.3 54.5,14.1 C54.5,13.3 54.2,13.3 54,13.3 L53.9,12.6 L53.9,12.4 L54.2,12 C54.4,11.4 54.7,11.3 55.2,11.1 C55.5,11 55.8,10.9 56,10.7 L56.1,10.6 C56.3,10.6 56.5,10.7 56.7,10.8 C57.3,10.8 57.5,10.5 57.3,10.3 Z" id="Path" fill="#FDBD56" fill-rule="nonzero"></path>
                    <path d="M49.4,5.5 C49.4,5.4 49.4,5.3 49.3,5.2 C49.3,5 49.1,4.9 48.9,5 C48.7,5 48.7,5.2 48.7,5.4 C48.7,5.5 48.7,5.6 48.8,5.7 C48.8,5.9 49,6 49.2,5.9 C49.4,5.8 49.5,5.7 49.4,5.5 Z M45,27.8 L44.9,27.5 L44.8,24.8 C44.8,23.9 44.9,22.3 44.1,21.7 C43.4,21.2 42.9,21.9 42.6,22.5 C41.4,23.4 40.1,23.9 38.7,24.4 C38.4,24.5 38.2,24.6 38,24.8 C37.3,25 36.7,25.4 36.5,26.4 C36.4,27.3 36.7,28.2 36.7,29 C36.7,30 36.5,31 36.4,32 C36.2,33.3 35.8,34.9 36.1,36.3 C35.9,36.7 35.9,37.2 36.2,37.6 C36.2,37.9 36.2,38.2 36.3,38.5 C36.3,38.7 36.6,38.9 36.8,38.7 L37.5,37.9 L37.9,37.9 C38.2,37.9 38.4,37.8 38.6,37.7 C39.1,37.9 39.6,38.2 39.9,38.7 L39.9,39.1 C39.9,39.3 40,39.4 40.2,39.4 C40.3,39.6 40.4,39.8 40.3,39.9 C40.2,40.3 40.8,40.4 40.9,40.1 L42,33.7 C42,33.5 41.9,33.4 41.8,33.3 C42.1,32.7 42.2,32 42.1,31.3 C42.1,31.2 42.1,31.1 42.2,31 C42.3,31.1 42.4,31.1 42.5,31 L44.2,30.1 C44.6,29.9 44.9,29.6 44.9,29.2 L44.9,28.8 C45,28.4 45,28.1 45,27.8 Z M54.6,21.5 L54.7,21 C54.8,20.6 54.2,20.5 54.1,20.8 L54,21.1 C53.9,21.1 53.8,21.1 53.8,21.2 C53.7,21 53.4,21 53.3,21.3 L53.3,21.4 C53.3,21.4 53.3,21.3 53.2,21.3 L53.4,19.9 C53.4,19.6 53,19.5 52.9,19.7 C52.8,19.7 52.6,19.8 52.6,19.9 L52.4,20.4 C52.3,20.3 52.1,20.3 52,20.4 L52,20.1 C52,19.8 51.5,19.7 51.4,20 L51.1,21 L50.9,21 L51.1,19.5 C51.1,19.2 50.8,19 50.6,19.2 C50.5,19.2 50.3,19.2 50.3,19.4 C50.3,19.5 50.3,19.5 50.2,19.6 C50.2,19.3 49.7,19.3 49.6,19.6 L49.4,20.6 C49.3,20.6 49.2,20.6 49.1,20.7 L48.9,21.2 C48.8,21 48.4,20.9 48.3,21.2 L48.2,22.1 C48,22 47.8,22 47.7,22.2 L47.7,22.3 C47.6,22.1 47.2,22.1 47.2,22.4 L47.2,22.8 L47,22.5 C46.8,22.2 46.3,22.5 46.5,22.8 C46.9,23.4 47.1,24 47.1,24.7 C47.1,24.8 47.1,24.8 47.2,24.9 C46.9,25.3 46.7,25.7 46.6,26.2 C46.6,26.4 46.7,26.7 47,26.6 C47.2,26.5 47.3,26.4 47.6,26.3 C47.7,26.5 47.9,26.6 48,26.5 L48.6,26.2 C48.6,26.2 48.8,26.1 48.9,26.1 C48.6,26.3 49,26.7 49.3,26.6 C49.4,26.5 49.6,26.4 49.7,26.2 C50,26 50.2,25.7 50.4,25.5 L50.8,25.5 L50.7,26.6 C50.7,27 51.2,27 51.3,26.7 L51.8,25.2 C51.8,25.4 51.9,25.6 52,25.8 C52.1,26.1 52.5,26.1 52.6,25.8 L52.7,25.3 C52.8,25.3 53,25.2 53,25 L53.1,23.9 L53.3,24 L53.3,24.1 C53.3,24.2 53.4,24.3 53.5,24.4 L53.3,25.8 C53.3,26.1 53.6,26.3 53.7,26.1 C53.8,26.3 54.2,26.2 54.2,25.9 C54.3,24.5 54.6,23.1 54.9,21.7 C55,21.7 54.8,21.5 54.6,21.5 Z M53.9,16.2 L53.7,16.1 L53.6,15.7 C53.5,15.4 53.2,15.2 52.9,15.2 C52.8,15 52.6,14.8 52.5,14.7 C52.4,14.6 52.3,14.5 52.2,14.5 L51.8,13.7 L51.5,13.4 L51.4,13 C51.4,12.9 51.3,12.8 51.2,12.7 C51,11.8 50.7,11 50.3,10.2 C50.4,10.1 50.4,9.9 50.3,9.7 C49.8,8.5 50,7.1 50.1,5.8 C50.2,4.9 48.8,4.9 48.7,5.8 C48.5,7.2 48.4,8.7 48.9,10 C48.8,10.2 48.8,10.4 48.9,10.6 L49.3,11.4 L49.3,11.5 C49.1,11.5 48.9,11.6 48.8,11.8 C48.6,11.9 48.4,11.9 48.3,12 C48.1,12.1 48,12.2 47.8,12.4 C47.6,12.4 47.4,12.6 47.3,12.9 C47.2,13.5 46.7,13.9 46.3,14.4 C46.1,14.6 46,14.9 45.9,15.2 C46,15.4 46,15.5 46,15.7 L46,15.9 C45.7,15.9 45.5,16.1 45.4,16.4 C45.2,17.3 45.2,18.3 45.3,19.2 C45.4,19.8 45.4,20.5 45.6,21.1 C45.5,21.2 45.5,21.3 45.5,21.5 L45.9,27.5 C45.9,27.7 46,27.9 46.1,28 C46.1,28.1 46,28.3 46.1,28.4 C46.1,28.5 46.3,28.6 46.4,28.6 C46.6,28.6 46.7,28.5 46.7,28.3 L46.7,28.1 C47,28.1 47.3,27.9 47.3,27.5 C47.4,27.5 47.5,27.5 47.6,27.4 C48.6,26.9 49.8,27.1 50.9,27.3 C51,27.3 51.6,27.5 51.5,27.4 L51.8,27.9 C52.1,28.3 52.7,28.3 53.1,28.2 C54,28 54.6,26.5 53.9,25.8 C53.3,25.2 52.4,25.6 52.3,26.3 C51.8,26 51.1,25.9 50.5,25.8 C49.4,25.6 48.3,25.6 47.3,25.9 L47.1,22.7 C47.5,22.7 47.9,22.5 48.3,22.4 C48.8,22.3 49.4,22.1 49.9,21.9 C50.6,21.6 52,20.9 52.6,21.8 C52.8,22.1 53.1,22.2 53.4,22.1 C53.5,22.5 53.9,22.8 54.3,22.8 C54.9,22.8 55.1,22.2 55.3,21.8 C56.4,19.8 55.6,17.5 53.9,16.2 Z M62.5,39.8 L62.5,39.6 L62.3,34.8 C62.2,33.2 62.2,31.6 62,30 C61.6,27.4 59.8,25.2 57.8,23.7 C57.7,23.6 57.6,23.6 57.5,23.6 C57.4,23.5 57.2,23.5 57,23.6 C56.8,23.6 56.7,23.8 56.6,23.9 C56.5,24.1 56.5,24.3 56.5,24.5 C56.5,24.6 56.5,24.6 56.6,24.7 C56.5,24.9 56.5,25.1 56.6,25.2 C56.4,25.3 56.3,25.5 56.4,25.8 C56.7,28.2 55.4,30.4 55.5,32.8 C55.5,34 55.9,35.2 56.4,36.2 L57.1,37.5 C57.1,37.8 57,38.1 56.9,38.4 C56.8,38.7 56.7,39 56.7,39.3 C56.7,39.5 56.7,39.9 56.9,40.1 L56.6,41.6 C56.4,42.5 57.8,42.9 58,42 C58.1,42 58.1,41.9 58.1,41.9 C58.4,41.9 58.8,41.7 58.8,41.2 L58.8,41.1 C59.7,40.6 60.8,40.1 61.6,40.9 C62,41.3 62.9,40.5 62.5,39.8 Z M59.4,26.8 C59.3,26.4 58.9,26.2 58.5,26.3 C58.1,26.4 57.9,26.8 58,27.2 C58.1,27.7 58.1,28.2 58.1,28.7 C58,29.6 59.5,29.6 59.5,28.7 C59.6,28.1 59.5,27.5 59.4,26.8 Z M43.4,12.9 C43.2,12.3 43.2,11.8 43.2,11.1 L43.2,10.6 C43.1,10.2 42.7,10.1 42.6,9.8 C42.5,9.5 42.2,9.5 42.1,9.7 C42.2,9.6 41.9,9.7 41.8,9.8 C41.8,9.8 41.8,9.9 41.7,9.9 L41.6,9.9 C41.3,9.9 41.2,10.2 41.4,10.4 C41.6,10.6 41.6,11 41.7,11.2 C41.7,11.3 41.8,11.4 41.9,11.5 C41.8,11.6 41.8,11.6 41.8,11.8 C41.9,12.3 42,14.3 42.9,13.6 C43,13.5 43,13.4 43,13.3 C43.3,13.2 43.4,13.1 43.4,12.9 Z M44.1,18.1 L44.2,17.2 C44.2,16.8 43.7,16.7 43.6,17 L43.3,18.1 C43.1,18.3 42.7,18.5 42.5,18.6 C42.2,18.8 42,19 41.7,19.3 L41.6,19.4 C41.5,19.4 41.3,19.4 41.3,19.6 L41.3,19.8 C41.1,20.1 40.9,20.5 40.9,20.9 C40.9,21 41,21.1 41,21.1 C40.9,21.4 40.8,21.6 40.8,21.9 L40.5,22.7 C40.4,22.9 40.6,23.2 40.8,23.1 C40.7,23.2 40.7,23.3 40.6,23.3 C40.4,23.6 40.8,24 41,23.7 L41.2,23.4 C41.3,23.5 41.4,23.5 41.5,23.3 L41.9,22.8 C42,22.9 42.2,22.9 42.3,22.7 L42.9,21.9 C43,22.1 43.4,22.2 43.5,21.9 L43.6,21.5 C43.6,21.6 43.6,21.6 43.7,21.7 C43.8,22 44.3,22 44.3,21.6 C44.2,20.7 44.2,19.4 44.1,18.1 Z M54.9,21.8 C54.5,22 54.5,22.6 54.5,23 C54.4,23.7 54.3,24.4 54.3,25.1 L54.3,25.6 L54.2,26 C54.1,25.9 53.9,25.9 53.8,26 L53.8,25.7 C53.8,25.4 53.9,25.1 54,24.8 C54.1,24.5 53.7,24.3 53.5,24.5 C53.5,24.3 53.6,24.1 53.6,24 L53.6,23.8 C53.7,23.5 53.2,23.2 53.1,23.5 L52.9,23.9 L52.4,24.9 L52.7,24.2 C52.8,23.9 52.3,23.7 52.2,24 L51.8,24.5 C51.7,24.4 51.4,24.4 51.3,24.6 L51.2,24.9 C51.2,24.7 51.3,24.5 51.3,24.2 C51.4,23.8 50.8,23.7 50.7,24 L50.4,25.9 C50.4,26.2 50.7,26.4 50.9,26.2 C51,26.1 51.1,25.9 51.3,25.8 L51.4,25.8 L51.1,26.7 L51,26.7 C50.8,26.7 50.7,26.8 50.7,27 C50.7,27.2 50.8,27.3 51,27.3 L51.4,27.3 C51.5,27.3 51.7,27.2 51.7,27 L52.2,26.4 C52.1,26.7 52.6,26.9 52.7,26.6 L52.7,26.7 C52.7,27 52.9,27.1 53.1,27 L53.1,27.9 C53.1,28 53.2,28.1 53.3,28.2 C53.3,28.3 53.3,28.4 53.4,28.5 L53.5,28.6 C53.5,28.7 53.6,28.8 53.7,28.8 C54,29.1 54.3,29.4 54.5,29.7 C54.6,29.9 54.9,29.8 55,29.6 C55.2,29 55.2,28.3 55.1,27.7 C55.6,26.5 55.8,25.2 55.9,23.9 C55.7,23.7 56,21.2 54.9,21.8 Z M57.1,21.2 C56.9,21.2 56.8,21.4 56.8,21.5 C56.7,21.5 56.6,21.6 56.6,21.8 C56.6,22.2 56.6,22.6 56.7,23.1 C56.7,23.2 56.9,23.3 57,23.3 C57.5,23.3 57.7,22.9 57.7,22.4 C57.8,22 57.7,21.1 57.1,21.2 Z M47.3,12.7 C47.1,12.8 46.9,12.8 46.7,12.8 C46.4,12.8 46.3,13.1 46.5,13.3 C46.3,13.5 45.7,14.4 46,14.7 C45.9,15.3 45.9,15.8 46.2,16.2 C46.4,16.5 46.9,16.1 46.6,15.8 C46.4,15.6 46.5,15.1 46.6,14.7 C46.8,14.5 46.8,14.3 46.9,14.1 C47.1,13.6 47.6,13.6 47.6,13 C47.7,12.8 47.5,12.7 47.3,12.7 Z M50.6,10.4 L50.6,10.2 C50.6,10 50.5,9.9 50.3,9.9 C50.1,9.9 50,10 50,10.2 C50,10.3 50,10.5 50.1,10.6 C50.1,10.8 50.3,10.9 50.5,10.8 C50.5,10.8 50.6,10.6 50.6,10.4 Z" id="Path" fill="#F7923F" fill-rule="nonzero"></path>
                    <ellipse id="Oval" stroke="#010101" stroke-width="0.367" cx="42.8" cy="4.5" rx="1" ry="1.3"></ellipse>
                    <path d="M36.2,5.3 L36.7,7.2 L37.9,8 C37.9,8 38.6,9.2 39.7,9.8 C40.8,10.4 41.1,10.4 41.7,9.8 C41.7,9.8 43.4,8.8 43.2,7.2 L42.9,5.7 L39.5,1.8 L36.2,5.3 Z" id="Path" stroke="#010101" stroke-width="0.458"></path>
                    <path d="M38.3,7.1 C39,7 39.5,6.6 39.9,6 C40,5.8 39.7,5.6 39.6,5.8 C39.3,6.3 38.8,6.6 38.3,6.7 C38,6.8 38.1,7.2 38.3,7.1 Z M39.5,9.8 C40.1,9.7 40.6,9.3 40.9,8.7 C41,8.5 40.7,8.2 40.6,8.5 C40.4,9 40,9.3 39.5,9.4 C39.2,9.5 39.3,9.9 39.5,9.8 Z M44.3,5.6 C44.8,6 45.2,6.3 45.6,6.8 C45.8,7.1 46,7.4 46,7.8 C46,8.2 45.9,8.4 45.6,8.7 C44.9,9.5 43.3,10.6 42.5,9.4 C42.4,9.2 42,9.4 42.2,9.6 C43.2,11 44.9,10.1 45.9,9.1 C46.1,8.9 46.4,8.6 46.5,8.3 C46.6,8 46.6,7.6 46.5,7.2 C46.2,6.3 45.4,5.8 44.7,5.3 C44.3,5.1 44,5.4 44.3,5.6 Z M36.7,7.2 C36.9,7.3 37.1,7.4 37.3,7.4 L37.6,7.4 C37.7,7.4 37.8,7.3 37.8,7.5 C37.8,7.8 38.2,7.6 38.2,7.4 C38.2,7.2 38,7 37.7,7 L37.4,7.1 C37.2,7.1 37,7 36.9,7 C36.7,6.7 36.5,7 36.7,7.2 Z M38.5,7.1 C39.1,7.3 39.8,7.3 40.1,6.7 C40.2,6.5 39.9,6.2 39.8,6.5 C39.6,7 39.1,6.9 38.7,6.7 C38.4,6.6 38.3,7 38.5,7.1 Z M57.9,10.4 C57.2,9.4 56.4,8.4 55.5,7.4 C54.7,6.5 53.9,5.4 52.8,5 C52.2,4.8 51.6,4.8 51,4.8 L48.8,4.8 C47.3,4.8 45.9,4.9 44.4,5 C44.1,5 44.1,5.4 44.4,5.4 C45.7,5.3 46.9,5.2 48.2,5.2 C49.5,5.2 50.8,5.1 52,5.2 C53.3,5.3 54.2,6.5 55,7.5 C55.9,8.5 56.7,9.5 57.4,10.6 C57.7,10.9 58.1,10.6 57.9,10.4 Z M39.1,9.6 C38.2,10.9 37.6,12.4 38,14 C38.2,14.8 38.7,15.5 38.9,16.4 C39.1,17.2 39.2,18 39.6,18.8 C39.9,19.3 40.4,19.8 41,19.8 C41.5,19.8 41.8,19.6 42.1,19.3 C42.5,18.9 42.9,18.6 43.3,18.3 C43.5,18.2 43.6,18 43.8,17.8 C44,17.5 44,17.1 44,16.8 C44,16.5 43.6,16.5 43.6,16.8 C43.6,17.1 43.6,17.5 43.3,17.8 C43.2,17.9 43.1,18 43,18 L42,18.9 C41.6,19.3 41.3,19.6 40.7,19.3 C40.1,19 39.8,18.3 39.6,17.7 L39.2,15.9 L38.5,14.1 C38,12.7 38.7,11.2 39.5,10 C39.6,9.6 39.2,9.4 39.1,9.6 Z" id="Path" fill="#010101" fill-rule="nonzero"></path>
                    <path d="M35.5,4.5 C35.5,4.9 35.7,5.2 36.1,5.2 C36.4,5.2 36.8,5.3 36.9,5.4 C37.2,5.5 37.4,4.8 37.5,4.8 C37.7,4.8 38.7,4.6 38.7,4.3 C38.7,4.1 38.7,3.6 39.7,3.6 C40.2,3.6 40,4.3 40,4.5 C40,4.7 40.4,4.1 41.3,5.1 C42.2,6 42.4,3.5 42.4,3.5 C42.4,3.5 43.1,3.1 43.9,5 C44,5.2 44.1,5.2 44.2,5.1 C44.4,5 44.4,4.8 44.3,4.6 C43.9,3.7 42.3,0.5 39.1,0.6 C36.3,0.6 35.7,3.2 35.5,4.5 Z" id="Path" stroke="#010101" stroke-width="0.458" fill="#595A5C"></path>
                    <path d="M37.4,39.7 C37.2,39.1 37.1,38.5 37.2,37.9 C37.2,37.5 36.6,37.5 36.6,37.9 C36.5,38.6 36.6,39.2 36.8,39.9 C36.9,40.2 37.5,40 37.4,39.7 Z" id="Path" fill="#F7923F"></path>
                    <path d="M41.6,11.5 L41.8,13.6 C41.9,14.3 42.2,15.5 41.5,15.9 C41.3,16 41.5,16.4 41.7,16.3 C42.5,15.9 42.4,15 42.3,14.2 L42,11.5 C42,11.3 41.6,11.3 41.6,11.5 Z M41.2,10.3 C41.7,11.5 42,12.8 42.2,14.1 C42.2,14.4 42.6,14.2 42.6,14 C42.4,12.6 42.1,11.4 41.6,10.1 C41.4,9.9 41.1,10.1 41.2,10.3 Z M42.8,10.3 L43.3,13.2 C43.4,13.4 43.8,13.2 43.6,13 L43.1,10.1 C43,9.9 42.7,10.1 42.8,10.3 Z" id="Path" fill="#010101" fill-rule="nonzero"></path>
                    <path d="M46.2,27.6 L46,28.2 C45.9,28.6 46.5,28.7 46.6,28.4 L46.8,27.8 C46.8,27.4 46.3,27.3 46.2,27.6 Z" id="Path" fill="#F7923F"></path>
                    <path d="M45.7,5.4 C47,6 47.4,7.8 46.4,8.9 C45.9,9.4 45.5,9.9 44.7,10 C44.3,10.1 43.6,10.2 43.2,9.9 C43,9.7 42.7,10 42.9,10.2 C43.3,10.6 44.1,10.6 44.6,10.5 C45,10.4 45.3,10.4 45.7,10.1 C46.1,9.8 46.4,9.5 46.7,9.2 C47.9,7.9 47.5,5.7 46,5 C45.6,4.9 45.4,5.3 45.7,5.4 Z M48.7,5.2 C48.1,7.3 48.3,9.4 49.2,11.4 C49.3,11.6 49.7,11.4 49.5,11.2 C48.7,9.4 48.5,7.3 49.1,5.4 C49.1,5 48.7,4.9 48.7,5.2 Z" id="Path" fill="#010101" fill-rule="nonzero"></path>
                    <path d="M56,18.3 C56,18.1 55.9,17.9 55.7,17.8 L55.3,17.6 C55.1,17.3 54.7,17.7 54.9,18 C54.7,18.1 54.6,18.5 54.9,18.5 C55,18.5 55.1,18.9 55.1,19 C55.2,19.3 55.4,19.5 55.4,19.8 C55.4,20.2 56,20.2 56,19.8 C56.1,19.3 56,18.8 56,18.3 Z" id="Path" fill="#F7923F"></path>
                    <path d="M49.7,5.1 C49.8,5.8 49.7,6.5 49.7,7.2 C49.7,7.8 49.8,8.4 49.9,9.1 C50.1,9.7 50.3,10.3 50.5,11 C50.7,11.6 50.8,12.1 51.1,12.7 C52.1,14.9 54,16.7 55.6,18.4 C55.8,18.6 56.1,18.3 55.9,18.1 C54.4,16.4 52.6,14.7 51.6,12.6 C51.3,12 51.2,11.5 51,10.9 L50.4,9.2 C50.2,8.6 50.1,7.9 50.1,7.3 C50.1,6.6 50.2,5.9 50.1,5.2 C50.1,4.8 49.7,4.8 49.7,5.1 Z M45.6,13.2 C45.7,13 45.9,13 46,13.1 C46.1,13.2 46.2,13.5 46,13.4 C45.8,13.3 45.6,13.7 45.9,13.8 C46.5,14 46.7,13.3 46.4,12.9 C46.1,12.5 45.5,12.5 45.2,13 C45.1,13.2 45.5,13.4 45.6,13.2 Z M49.1,11.2 C49,11.7 48.4,11.9 48,12.1 C47.5,12.4 46.9,12.6 46.4,12.8 C46.2,12.9 46.3,13.3 46.5,13.2 C47.1,13 47.8,12.7 48.4,12.4 C48.9,12.2 49.4,11.9 49.5,11.3 C49.6,11 49.2,10.9 49.1,11.2 Z M45.5,17.5 C46.4,17.5 47.2,17.1 48.1,16.9 C48.9,16.7 49.5,16.4 49.8,15.7 C50.2,14.9 50.1,14 50.1,13.1 C50.1,12.7 50.1,12.2 50,11.9 L49.5,11.1 C49.4,10.9 49,11.1 49.2,11.3 L49.6,11.9 C49.8,12.2 49.8,12.6 49.8,13 C49.8,13.8 49.9,14.6 49.7,15.3 C49.4,16.1 48.8,16.4 48,16.6 C47.2,16.8 46.5,17.2 45.7,17.1 C45.3,17 45.3,17.4 45.5,17.5 Z M34.2,48.2 L40,48.2 L39.8,48 L39.8,54.9 C39.8,55.4 37.5,55.2 37.1,55.2 L34.7,55.2 C33.8,55.2 34,54 34,53.3 L34,49.7 C34,49.3 33.9,48.5 34.2,48.3 C34.4,48.2 34.2,47.8 34,47.9 C33.4,48.3 33.6,49.3 33.6,49.9 L33.6,54.7 C33.6,55 33.7,55.2 33.9,55.3 C34.5,55.7 35.4,55.5 36.1,55.5 L39.3,55.5 C40.1,55.5 40.1,54.9 40.1,54.2 L40.1,47.9 C40.1,47.8 40,47.7 39.9,47.7 C38,47.7 36,47.6 34.1,47.7 C34,47.8 34,48.2 34.2,48.2 Z M58.4,48.5 C59.4,48.4 60.3,48.4 61.3,48.5 L63.5,48.5 C63.7,48.4 63.7,48.5 63.7,48.7 L63.7,49.1 C63.7,50.2 63.7,51.2 63.8,52.3 L63.8,54.7 C63.8,55.1 63.6,55.2 63.2,55.2 C62.2,55.2 61.1,55.3 60.1,55.2 C59.5,55.2 58.6,55.2 58.7,54.4 C58.8,52.4 58.7,50.3 58.5,48.3 C58.5,48 58.1,48 58.1,48.3 L58.4,52.3 L58.4,54.9 C58.5,55.6 59.4,55.7 60,55.7 L61.9,55.7 C62.5,55.7 63.2,55.7 63.8,55.6 C64,55.5 64.2,55.2 64.3,55 C64.4,54.4 64.3,53.7 64.3,53.1 L64.2,48.9 C64.2,48.6 64.3,48.2 63.9,48.1 C63.7,48 63.4,48.1 63.2,48.1 L62.3,48.1 C61,48.1 59.7,48 58.4,48.1 C58.2,48.1 58.2,48.5 58.4,48.5 Z M26.3,34.9 L28.9,34.9 C29.3,34.9 29.9,34.8 29.9,35.3 C29.9,35.8 30,36.3 30,36.7 L30.1,37.9 C30.1,38.6 29.1,38.4 28.7,38.4 L26.1,38.3 L26.3,38.5 L26.3,34.8 C26.3,34.5 25.9,34.5 25.9,34.8 L25.9,38.5 C25.9,38.6 26,38.7 26.1,38.7 C27.3,38.8 28.5,38.9 29.6,38.9 C30.7,38.9 30.4,37.7 30.4,37 L30.3,35.2 C30.3,34.9 30.1,34.7 29.8,34.6 C29.3,34.5 28.7,34.6 28.3,34.6 L26.3,34.6 C26,34.4 26,34.9 26.3,34.9 Z M54.4,13 C54.1,11.2 56.4,10.9 57.6,10.8 C57.9,10.8 57.9,10.4 57.6,10.4 C56.6,10.4 55.7,10.5 54.9,11.1 C54.2,11.6 53.9,12.3 54,13.2 C54.1,13.4 54.5,13.3 54.4,13 Z M52,10.4 L53.6,12.7 L54.2,13.3 C54.6,13.6 54.9,13.9 55.2,14.3 C55.4,14.5 55.7,14.2 55.5,14 L54.8,13.3 L54,12.7 L53.1,11.5 C52.8,11.1 52.6,10.7 52.3,10.4 C52.2,10 51.8,10.2 52,10.4 Z M57.2,11.3 C57.5,11.2 57.7,11 57.9,10.8 C58,10.7 58,10.6 57.9,10.5 C57.8,10.4 57.7,10.4 57.6,10.5 L57.1,10.9 C56.9,11 57,11.4 57.2,11.3 Z M38.2,13 C38.4,12.1 39.4,12.2 40,12.4 C40.7,12.5 41.6,12.8 41.7,13.6 C41.7,13.9 42.1,13.9 42.1,13.6 C42,12.5 41,12.1 40.1,12 C39.2,11.8 38,11.9 37.8,12.9 C37.8,13.1 38.2,13.2 38.2,13 Z M37.6,40.2 C37.1,39.9 36.7,39.5 36.8,38.8 C36.9,38.2 37.4,37.9 37.9,37.8 C39,37.7 39.7,38.7 40,39.6 C40.1,40 40.4,40.7 40.9,40.2 C41.1,40 41.1,39.5 41.2,39.2 L41.5,37.6 C41.8,35.5 42.3,33.5 42.4,31.4 C42.5,29.5 42.5,27.4 41.1,26 C40.9,25.8 40.6,26.1 40.8,26.3 C42.3,27.9 42.1,30.5 41.8,32.6 L40.7,39.5 C40.7,39.7 40.5,40.1 40.4,39.7 L40.2,39.1 C40.1,38.8 39.9,38.5 39.6,38.2 C39.1,37.7 38.3,37.3 37.7,37.5 C37,37.7 36.5,38.2 36.4,38.9 C36.3,39.6 36.9,40.2 37.4,40.6 C37.6,40.7 37.8,40.3 37.6,40.2 Z M36.7,39.3 C36.2,38 36,36.8 36,35.4 C36,33.9 36.3,32.5 36.6,31 C36.8,29.6 36.8,28.4 36.7,27 C36.7,26.3 36.8,25.5 37.3,24.9 C37.7,24.5 38.4,24.3 38.9,24.3 C39.2,24.3 39.2,23.9 38.9,23.9 C37.8,23.9 36.9,24.5 36.5,25.5 C36.3,26.1 36.3,26.9 36.4,27.6 C36.5,28.5 36.5,29.3 36.4,30.2 C36.2,31.8 35.8,33.4 35.7,35 C35.6,36.5 35.9,37.9 36.4,39.3 C36.4,39.7 36.7,39.6 36.7,39.3 Z M38.9,24.4 C39.7,24.2 40.5,23.8 41.3,23.3 L42.3,22.6 C42.7,22.2 43.2,21.6 43.8,21.6 C44.1,21.6 44.1,21.2 43.8,21.2 C42.9,21.3 42.3,22.1 41.7,22.6 C40.8,23.2 39.9,23.7 38.8,24 C38.5,24.1 38.6,24.5 38.9,24.4 Z M42.5,30 C43.1,30.4 43.8,30.3 44.4,30.1 C44.8,30 45.2,29.7 45.5,29.4 C46,29.1 46.4,28.8 46.8,28.5 L47.9,27.7 C48.7,27.2 49.6,27.3 50.4,27.9 C50.6,28.1 50.8,27.7 50.6,27.5 C49.5,26.6 48.2,26.9 47.1,27.7 L45.5,28.9 C44.7,29.4 43.6,30.3 42.7,29.6 C42.5,29.4 42.3,29.8 42.5,30 Z M50.6,27.8 C51.1,27.7 51.4,27.9 51.7,28.3 C51.9,28.5 52.1,28.6 52.4,28.7 C52.8,28.8 53.1,29 53.4,29.4 L54.3,30.3 C54.5,30.5 54.8,30.2 54.6,30 C54.3,29.7 53.9,29.4 53.6,29 C53.3,28.7 53,28.5 52.7,28.4 C52.4,28.3 52.2,28.3 52,28 C51.9,27.8 51.8,27.7 51.6,27.6 C51.3,27.4 50.9,27.4 50.6,27.5 C50.3,27.5 50.4,27.9 50.6,27.8 Z M55.1,33.4 L56,35.6 L56.4,36.7 C56.6,37.2 56.9,37.7 56.5,38.2 C56.2,38.6 56.2,39.1 56.3,39.7 C56.3,40 56.3,40.3 56.2,40.6 C56.2,41.2 56.1,41.8 56.3,42.3 C56.5,42.8 57.1,42.8 57.4,42.4 C57.9,42 58.3,41.6 58.7,41.2 C59,40.9 59.2,40.6 59.7,40.5 C60.1,40.5 60.5,40.6 60.9,40.7 C61.3,40.8 61.8,41.4 62.3,41.2 C62.8,40.9 62.6,40.2 62.6,39.7 L62.3,34.7 C62.2,33.9 62.1,33.2 62.2,32.4 C62.2,31.7 62.3,31 62.3,30.2 C62.1,28.5 60.9,27 60.1,25.7 C59.2,24.2 57.9,23.1 56.2,23.2 C55.9,23.2 55.9,23.6 56.2,23.6 C57.9,23.5 59,24.6 59.9,26 C60.6,27.2 61.5,28.4 61.8,29.7 C62,30.4 61.9,31.1 61.9,31.8 C61.8,32.6 61.9,33.4 62,34.2 C62.1,35.9 62.3,37.5 62.3,39.2 L62.3,40.4 C62.3,41 61.6,40.4 61.4,40.4 C60.9,40.2 60.1,40 59.6,40.1 C59,40.2 58.7,40.7 58.3,41.1 C57.9,41.4 57.5,42.1 57,42.2 C56.6,42.4 56.6,41 56.6,40.8 C56.6,40.6 56.6,40.4 56.7,40.2 C56.8,39.5 56.5,38.9 56.9,38.3 C57.4,37.6 56.8,36.9 56.6,36.2 L55.4,33.2 C55.4,33.1 55,33.2 55.1,33.4 Z M59.8,40.1 L60.3,39.9 L60.9,39.6 C61,39.5 61,39.4 61.1,39.2 L61.1,39 L60.8,38.9 L60.8,39 L61.2,38.9 C60.9,38.2 59.9,37.9 59.3,37.7 C59.1,37.6 58.9,38 59.2,38.1 L60.1,38.4 C60.3,38.5 60.8,38.7 60.9,39 C61,39.3 61.4,39.1 61.3,38.9 L61.3,38.8 C61.2,38.7 61.1,38.6 61,38.7 C60.9,38.8 60.9,38.9 60.9,39.1 C60.9,39.4 60.2,39.6 59.9,39.7 C59.4,39.8 59.5,40.2 59.8,40.1 Z M59,37.7 C58.4,38 58,38.4 57.6,38.9 C57.3,39.3 56.9,39.8 56.8,40.3 C56.8,40.8 57.3,40.9 57.6,40.7 C58.3,40.4 58.7,39.9 59.4,39.7 C59.7,39.6 59.5,39.2 59.3,39.3 C59,39.4 58.7,39.5 58.4,39.7 C58.2,39.8 58,39.9 57.9,40.1 C57.8,40.2 57.1,40.7 57.3,40.1 C57.4,39.7 57.9,39.2 58.1,38.9 C58.4,38.5 58.8,38.2 59.2,38 C59.5,37.9 59.3,37.5 59,37.7 Z M56.7,35.9 C57.7,35 58.3,33.8 58.7,32.5 C58.9,31.9 59,31.2 59.1,30.5 C59.2,29.8 59.4,29.1 59.4,28.4 C59.4,28.1 59,28.1 59,28.4 L58.7,30.4 C58.6,31 58.5,31.6 58.3,32.2 C58,33.5 57.3,34.7 56.4,35.6 C56.2,35.8 56.5,36.1 56.7,35.9 Z M55.6,33.5 C55.8,33.9 56.2,33.9 56.5,33.7 C57,33.5 57,32.6 57.1,32.2 C57.4,30.7 58.9,29.7 58.8,28.1 C58.8,27.8 58.4,27.8 58.4,28.1 C58.5,29.2 57.6,30 57.1,30.8 L56.6,32 L56.5,32.6 L56.4,33.1 C56.3,33.3 56.1,33.4 55.8,33.2 C55.8,33 55.4,33.2 55.6,33.5 Z M52.6,28.6 C53.4,28.5 54,28 54.4,27.3 C54.5,27.1 54.2,26.8 54.1,27.1 C53.8,27.7 53.2,28.1 52.6,28.2 C52.2,28.3 52.4,28.7 52.6,28.6 Z M51.5,27.9 C51.9,27.8 52.2,27.6 52.5,27.4 C52.9,27.1 53.4,26.8 53.8,26.6 C54,26.5 53.8,26.1 53.6,26.2 L52.6,26.8 C52.2,27 51.9,27.3 51.4,27.4 C51.1,27.5 51.3,27.9 51.5,27.9 Z M58.9,55.1 L57,54.6 L57.1,54.8 L56.9,47.9 C56.9,47.6 56.5,47.6 56.5,47.9 L56.7,54.8 C56.7,54.9 56.8,55 56.8,55 L58.7,55.5 C59,55.6 59.1,55.2 58.9,55.1 Z M58.4,48.1 C57.9,47.7 57.4,47.5 56.8,47.5 C56.5,47.5 56.5,47.9 56.8,47.9 C57.3,47.9 57.7,48.1 58.1,48.4 C58.3,48.5 58.6,48.2 58.4,48.1 Z M57.7,23.6 C58.1,23 58.2,22.4 57.9,21.7 C57.7,21.1 57.1,20.6 56.6,20.2 C56.4,20 56.2,20.4 56.4,20.6 C57.3,21.3 58.1,22.3 57.4,23.4 C57.2,23.6 57.6,23.8 57.7,23.6 Z M56.1,19.7 C56.2,18.8 55.9,17.8 55.7,17 C55.5,15.8 55.1,14.7 54.8,13.5 C54.7,13.3 54.3,13.4 54.4,13.6 C54.7,14.7 55,15.8 55.3,17 C55.5,17.9 55.8,18.8 55.7,19.7 C55.7,19.9 56.1,19.9 56.1,19.7 Z M39.9,23.9 C40.6,23.7 40.8,22.8 40.9,22.1 C41,20.9 41.3,19.8 42.3,19 C42.2,19 42.1,19 42,18.9 C42.3,19.6 42.9,19.6 43.5,19.1 C44.1,18.5 44.5,17.4 44.4,16.6 C44.4,16.3 44,16.3 44,16.6 C44,17.2 43.9,17.7 43.6,18.2 C43.4,18.6 42.8,19.5 42.4,18.7 C42.4,18.6 42.2,18.6 42.1,18.6 C41.5,19.1 41.1,19.7 40.8,20.5 C40.6,20.9 40.6,21.4 40.6,21.8 C40.6,22.3 40.5,23.2 39.9,23.4 C39.6,23.6 39.7,24 39.9,23.9 Z M46.6,21.9 C47.7,22 48.7,21.3 49.6,20.8 C49.9,20.7 50.2,20.6 50.5,20.6 C50.7,20.7 50.7,20.7 50.6,20.6 L50.3,20.7 C49.6,21 48.9,21.4 48.3,21.7 C48.1,21.8 48.3,22.2 48.5,22.1 L50.8,21 C51.1,20.9 51.2,20.5 50.8,20.3 C50.2,20.1 49.7,20.4 49.2,20.6 C48.3,21 47.5,21.7 46.5,21.6 C46.3,21.4 46.3,21.9 46.6,21.9 Z M51.4,21.9 C52.8,21.9 54.1,21.4 55.2,20.5 C55.3,20.4 55.2,20.1 55,20.1 C54.6,20.2 54.2,20.4 53.7,20.5 C53.5,20.6 53.6,21 53.8,20.9 C54.2,20.8 54.6,20.6 55.1,20.5 C55,20.4 55,20.3 54.9,20.1 C53.9,21 52.7,21.4 51.4,21.4 C51.2,21.5 51.2,21.9 51.4,21.9 Z M50.1,24 C51.6,23.3 53.1,22.7 54.6,22.3 C54.8,22.2 54.7,21.8 54.5,21.9 C52.9,22.4 51.4,22.9 49.9,23.7 C49.7,23.7 49.9,24.1 50.1,24 Z M55.1,22.6 C54.4,22.6 53.4,22.8 52.7,22.5 C52.5,22.4 52.3,22.7 52.5,22.9 C53.3,23.3 54.2,23.1 55.1,23.1 C55.4,23 55.4,22.6 55.1,22.6 Z M68.1,35.4 C69.1,35.3 70,35.4 71,35.4 L71.6,35.4 C72.2,35.4 72,36.3 72,36.6 L72,38.4 C72,39.1 71.3,38.8 71,39.1 C70.8,39.3 70.9,39.6 70.9,39.9 C70.9,41.1 70.8,42.3 70.8,43.4 C70.8,43.7 71.2,43.7 71.2,43.4 C71.2,42.1 71.3,40.8 71.3,39.6 C71.3,39.3 72,39.3 72.2,39 C72.5,38.5 72.4,37.9 72.4,37.4 C72.4,36.6 72.8,35 71.6,35 C70.4,35 69.2,34.9 68.1,35 C67.8,35 67.8,35.4 68.1,35.4 Z M67.9,35.3 C67.9,36.2 67.8,37 67.9,37.9 C67.9,38.1 67.9,38.4 68,38.6 C68.1,38.9 68.4,39 68.7,39.1 C69.5,39.4 70.4,39.3 71.3,39.3 C71.6,39.3 71.6,38.9 71.3,38.9 C70.5,38.9 69.7,38.9 69,38.7 C68.8,38.7 68.5,38.6 68.4,38.3 C68.3,38.1 68.4,37.7 68.4,37.4 C68.4,36.7 68.5,35.9 68.4,35.2 C68.3,35 67.9,35 67.9,35.3 Z M20.3,54.5 L33.8,54.7 C34.1,54.7 34.1,54.3 33.8,54.3 L20.3,54.1 C20,54.1 20,54.5 20.3,54.5 Z M41.3,54.9 C43,55 44.6,55 46.3,54.9 C46.6,54.9 46.6,54.5 46.3,54.5 L41.3,54.5 C41,54.5 41,54.9 41.3,54.9 Z M47.4,55 L51.5,55 C51.8,55 51.8,54.6 51.5,54.6 L47.4,54.6 C47.1,54.6 47.1,55 47.4,55 Z" id="Path" fill="#010101" fill-rule="nonzero"></path>
                    <polygon id="Path" fill="#F7923F" points="33.3 58 33.1 64.3 65.6 64.6 65.7 57.9"></polygon>
                    <path d="M52.4,55 L56.9,55 C57.2,55 57.2,54.6 56.9,54.6 L52.4,54.6 C52.1,54.6 52.1,55 52.4,55 Z M64.2,55.4 L73.2,55.4 C73.5,55.4 73.5,55 73.2,55 L64.2,55 C63.9,55 63.9,55.4 64.2,55.4 Z M75,48.2 C76.1,49.3 77.1,50.6 77.6,52.1 C77.9,52.8 78.2,53.8 77.5,54.5 C76.9,55.1 75.9,55 75.1,55 C74.8,55 74.8,55.4 75.1,55.4 C75.9,55.4 76.8,55.5 77.5,55 C78.2,54.6 78.3,53.7 78.2,53 C78.1,52 77.5,51.1 77.1,50.3 C76.6,49.4 75.9,48.7 75.2,48 C75.1,47.7 74.8,48 75,48.2 Z M62.1,33.1 C62.8,33 63.4,33.7 63.7,34.2 L65,36 L67.7,39.7 L73.1,47 C73.3,47.2 73.6,47 73.4,46.8 L67.5,38.9 C66.5,37.6 65.6,36.3 64.6,34.9 C63.9,34 63.1,32.5 61.8,32.7 C61.7,32.7 61.8,33.1 62.1,33.1 Z M41.1,23.4 C41.4,23 41.5,22.4 41.6,22 L42.2,20.1 C42.1,20.1 41.9,20.1 41.8,20 C41.8,20.5 41.9,21 42,21.5 C42.1,21.8 42.2,22 42.5,22.1 C42.7,22.2 42.9,21.8 42.6,21.7 C42.2,21.6 42.3,20.3 42.2,19.9 C42.2,19.7 41.9,19.6 41.8,19.8 L41.3,21.3 C41.1,21.8 41,22.5 40.7,23 C40.6,23.4 41,23.6 41.1,23.4 Z M20.5,54.2 L20.4,51 C20.4,50.7 20,50.7 20,51 L20.1,54.2 C20.1,54.4 20.5,54.4 20.5,54.2 Z M23.4,46.6 L20.1,50.8 C19.9,51 20.2,51.3 20.4,51.1 L23.7,46.9 C23.9,46.7 23.6,46.4 23.4,46.6 Z M36.1,32.1 C35,32.5 34.3,33.4 33.6,34.3 C32.7,35.6 31.7,36.9 30.7,38.1 C29.8,39.3 28.9,40.5 27.9,41.7 C27.1,42.8 26.2,43.9 25.1,44.7 C24.9,44.9 25.2,45.2 25.4,45 C26.4,44.2 27.3,43.2 28.1,42.1 C29,41 29.9,39.8 30.7,38.6 L33.3,35.2 C34.1,34.2 34.8,32.8 36.1,32.4 C36.4,32.4 36.3,32 36.1,32.1 Z M20.4,44.3 C21.5,44.1 22.6,44 23.7,44.1 C24,44.1 24,43.7 23.7,43.7 C22.6,43.6 21.4,43.7 20.3,43.9 C20,44 20.1,44.4 20.4,44.3 Z M20.4,51 L20.3,47.7 C20.3,46.5 20.2,45.4 20.4,44.2 C20.4,43.9 20.1,43.8 20,44.1 C19.8,45.2 19.8,46.2 19.9,47.3 L20,51 C20,51.3 20.4,51.3 20.4,51 Z M39.9,55.5 L41.4,54.9 C41.5,54.9 41.5,54.8 41.5,54.7 C41.5,52.3 41.5,50 41.6,47.6 C41.6,47.3 41.2,47.3 41.2,47.6 L41.1,54.7 L41.2,54.5 C40.7,54.7 40.2,54.9 39.6,55.2 C39.4,55.3 39.6,55.6 39.9,55.5 Z M40.2,48.3 L41.4,47.8 C41.6,47.7 41.4,47.3 41.2,47.4 C40.8,47.6 40.4,47.8 40,47.9 C39.7,48.1 39.9,48.4 40.2,48.3 Z M33.3,56.3 C39.8,56.3 46.2,56.5 52.7,56.4 C55.2,56.4 57.7,56.3 60.3,56.3 L63.1,56.3 C63.9,56.3 64.8,56.4 65.6,56.2 C66.3,56 66.2,55.6 66.2,55 C66.2,54.7 65.8,54.7 65.8,55 C65.8,55.4 65.9,55.6 65.5,55.8 C65.1,55.9 64.6,55.9 64.2,55.9 L61.8,55.9 L58.2,55.8 C56.9,55.8 55.7,55.8 54.4,55.9 C48.1,56.1 41.8,55.9 35.5,55.8 L33.5,55.8 C33.1,55.9 33.1,56.3 33.3,56.3 Z M31.2,54.7 C31.8,55.3 32.6,55.7 33.1,56.3 C33.3,56.5 33.6,56.2 33.4,56 L31.5,54.4 C31.3,54.2 31,54.5 31.2,54.7 Z M33.3,64.3 C33.4,61.6 33.5,58.8 33.5,56.1 C33.5,55.8 33.1,55.8 33.1,56.1 C33,58.8 32.9,61.6 32.9,64.3 C32.9,64.6 33.3,64.6 33.3,64.3 Z M65.5,57.8 L65.6,64.5 C65.6,64.8 66,64.8 66,64.5 L65.9,57.8 C65.9,57.6 65.5,57.6 65.5,57.8 Z M33.3,58 L65.7,58 C66,58 66,57.6 65.7,57.6 L33.3,57.6 C33.1,57.6 33.1,58 33.3,58 Z M65.6,56.1 L65.6,57.8 C65.6,58.1 66,58.1 66,57.8 L66,56.1 C66,55.8 65.6,55.8 65.6,56.1 Z" id="Path" fill="#010101" fill-rule="nonzero"></path>
                    <path d="M39.2,43.7 L39.2,44.1 C39.4,44.9 40.1,44.7 40.7,44.6 L40.9,44.6 C41.2,44.6 41.5,44.5 41.6,44.2 C41.7,43.9 41.5,43.5 41.4,43.2 C41.2,42.6 40.7,41.9 40,42.2 C39.8,42.3 39.8,42.4 39.8,42.5 C39.6,42.7 39.3,43 39.2,43.4" id="Path" fill="#414042"></path>
                    <path d="M39.3,43.4 L39.3,43.1 C39.5,42.9 39.6,42.7 39.6,42.4 C39.5,41.7 38.4,42 37.9,42 C37.6,42 37.3,42.1 37.2,42.3 L36.7,42.9 C36.6,43.4 37.2,43.5 37.7,43.4 C37.9,43.6 38,43.7 38.1,43.9 C38.1,44 38.2,44 38.2,44 C38.2,44.1 38.3,44.1 38.4,44.2 C38.7,44.3 38.9,44 39.1,43.7" id="Path" fill="#808285"></path>
                    <path d="M58.7,46.8 C58.7,46.7 58.7,46.6 58.6,46.5 C58.7,46.3 58.7,46 58.5,45.9 C58.5,45.6 58.4,45.3 58.4,44.9 C58.4,44.5 58.3,44.2 58,43.9 C57.8,43.7 57.5,43.9 57.5,44.1 C57.4,44.1 57.4,44.2 57.4,44.4 C57.5,44.9 57.1,46.7 57.9,46.9 L58.1,46.9 L58.1,47 C58.3,47.3 58.8,47.1 58.7,46.8 Z" id="Path" fill="#414042"></path>
                    <path d="M31.2,54.6 C31.8,57.9 32.3,61.2 32.9,64.4 C32.9,64.7 33.3,64.5 33.3,64.3 C32.7,61 32.2,57.7 31.6,54.5 C31.5,54.2 31.1,54.4 31.2,54.6 Z M31.7,56.3 L23.5,56.4 L19.4,56.4 C18.9,56.4 17.7,56.5 17.5,56.1 C17.2,55.5 16.8,54.9 16.5,54.2 C16.4,54 16,54.2 16.2,54.4 C16.5,55 16.9,55.6 17.2,56.3 C17.5,56.8 17.8,56.8 18.3,56.8 C19.8,56.9 21.3,56.9 22.8,56.9 L31.8,56.8 C32,56.7 32,56.3 31.7,56.3 Z M6.5,64.4 C6.4,63.4 6.8,62.3 7.5,61.6 C8.4,60.8 9.6,60.3 10.6,59.7 C12.8,58.5 15,57.3 17.3,56.1 C17.5,56 17.3,55.6 17.1,55.7 C14.7,57 12.3,58.3 9.9,59.5 C8.9,60 7.7,60.6 7,61.5 C6.4,62.2 6.1,63.3 6.2,64.2 C6.2,64.7 6.6,64.7 6.5,64.4 Z M16.3,54.4 C13,55.7 9.7,56.8 6.4,58 L4,58.9 C3.2,59.2 2.5,59.5 1.8,59.9 C0.8,60.5 0.2,61.6 0.5,62.8 C0.6,63.1 1,62.9 0.9,62.7 C0.8,62.1 0.9,61.5 1.2,61 C1.5,60.4 2.5,60 3.1,59.8 C4.6,59.2 6.1,58.7 7.5,58.1 C10.5,57 13.5,56 16.4,54.8 C16.7,54.7 16.6,54.3 16.3,54.4 Z" id="Path" fill="#010101" fill-rule="nonzero"></path>
                    <path d="M63.4,46.8 C62.6,46.1 61.9,45.4 61.6,44.4 L61.5,44 C61.5,43.8 61.3,43.8 61.2,43.8 L59.9,43.8 C59.8,43.6 59.5,43.6 59.4,43.8 L58.9,43.8 C58.7,43.8 58.6,44 58.6,44.2 L58.7,44.5 L58.7,44.6 C58.7,45 58.7,45.3 58.9,45.7 L59,46.3 C59,46.4 59,46.4 59.1,46.4 C59,46.7 58.9,47 59.3,47.2 C59.6,47.4 60.1,47.3 60.5,47.2 C60.8,47.1 61.1,47 61.5,46.9 C62.1,47.2 62.7,47.3 63.4,47.3 C63.4,47.3 63.6,46.9 63.4,46.8 Z" id="Path" fill="#808285"></path>
                    <path d="M23.5,64.8 C23.6,63 23.7,61.2 23.9,59.4 C23.9,59.1 23.5,59.1 23.5,59.4 C23.4,61.2 23.3,63 23.1,64.8 C23.1,65 23.5,65 23.5,64.8 Z M41.9,28.1 L43.4,28.2 C43.7,28.2 43.8,27.8 43.6,27.6 L41.9,26.3 C41.7,26.1 41.5,26.5 41.7,26.7 L42.9,27.6 C43,27.7 43.1,27.8 43.2,27.8 L43.4,27.8 L43.2,27.8 L42,27.7 C41.7,27.7 41.7,28.1 41.9,28.1 Z M42.2,32.7 C46.3,32.5 50.4,32.8 54.6,32.7 C54.9,32.7 54.9,32.3 54.6,32.3 C50.5,32.4 46.4,32.1 42.2,32.3 C41.9,32.3 41.9,32.7 42.2,32.7 Z M27.9,42.4 C27.8,41.1 27.7,39.8 27.7,38.5 C27.7,38.2 27.3,38.2 27.3,38.5 C27.4,39.8 27.5,41.1 27.5,42.4 C27.5,42.7 27.9,42.7 27.9,42.4 Z M67.4,39 L68.4,39 C68.7,39 68.7,38.6 68.4,38.6 L67.4,38.6 C67.1,38.6 67.1,39 67.4,39 Z M30.4,37.9 C30.7,37.9 31,38 31.2,38 C31.5,38 31.5,37.6 31.2,37.6 C30.9,37.6 30.6,37.5 30.4,37.5 C30.1,37.4 30.1,37.9 30.4,37.9 Z M42.2,31.5 C42.8,30.9 43.7,30.7 44.4,30.1 C44.6,30 44.4,29.6 44.2,29.7 C43.5,30.2 42.6,30.4 41.9,31.1 C41.8,31.4 42.1,31.7 42.2,31.5 Z M65.8,57.3 L73.2,57.1 C73.5,57.1 73.5,56.7 73.2,56.7 L65.8,56.9 C65.6,56.9 65.6,57.3 65.8,57.3 Z M74.2,59.7 C74.9,61.4 75.1,63.5 75.1,65.3 C75.1,65.6 75.5,65.6 75.5,65.3 C75.5,63.4 75.3,61.2 74.5,59.5 C74.5,59.2 74.1,59.5 74.2,59.7 Z M78.1,54.4 C79,54.4 80,54.5 80.9,54.6 C81.1,54.6 81.6,54.7 81.8,54.8 L81.7,54.7 L81.4,54.8 C81,54.9 80.7,54.9 80.3,54.9 C78.6,55.1 76.8,55.1 75.1,55.1 C74.8,55.1 74.8,55.5 75.1,55.5 C77.1,55.6 79.2,55.5 81.1,55.2 C81.4,55.2 82.5,55 82,54.5 C81.8,54.3 81.4,54.2 81.1,54.2 C80.1,54 79.1,53.9 78,53.9 C77.8,53.9 77.8,54.4 78.1,54.4 Z M75.2,57.3 C76.9,57.3 78.6,57.2 80.2,57.2 C80.7,57.2 81.5,57.3 81.8,56.9 C82.2,56.4 82,55.4 82,54.7 C82,54.4 81.6,54.4 81.6,54.7 L81.6,55.7 C81.6,56 81.7,56.6 81.3,56.7 C81,56.8 80.6,56.7 80.3,56.7 L79.1,56.7 C77.7,56.7 76.4,56.7 75,56.8 C74.9,56.9 74.9,57.3 75.2,57.3 Z M91.4,65.4 C91.7,64.6 91.5,63.7 91.3,62.9 C91,61.9 90.3,61.2 89.4,60.7 L85.7,58.7 L81.8,56.7 C81.6,56.6 81.3,56.9 81.6,57.1 L88.2,60.5 C89.1,61 90.2,61.5 90.7,62.5 C91.1,63.2 91.4,64.5 91.1,65.3 C91,65.4 91.3,65.7 91.4,65.4 Z M97.3,64.3 C97.7,63.3 96.8,62.2 96.2,61.5 C95.2,60.3 93.7,59.8 92.3,59.2 C88.9,57.7 85.5,56.5 81.9,55.4 C81.7,55.3 81.5,55.7 81.8,55.8 C84.9,56.7 87.9,57.8 90.8,59.1 C92.2,59.7 93.8,60.2 95.1,61.1 C95.6,61.4 96,62 96.3,62.4 C96.6,62.8 97.1,63.5 96.9,64.1 C96.8,64.3 97.2,64.5 97.3,64.3 Z M33.1,64.7 C44,64.6 54.9,64.7 65.8,64.8 C66.1,64.8 66.1,64.4 65.8,64.4 L33.1,64.3 C32.8,64.3 32.8,64.7 33.1,64.7 Z M75,45.1 L76.7,45.1 C77,45.1 77.4,45.1 77.7,45.2 C78.2,45.3 78.1,46 78.1,46.4 L78.1,53.9 C78.1,54.2 78.5,54.2 78.5,53.9 L78.5,47.6 C78.5,46.9 78.6,46.2 78.5,45.5 C78.4,44.8 77.8,44.7 77.2,44.7 C76.5,44.6 75.7,44.7 75,44.7 C74.7,44.6 74.7,45.1 75,45.1 Z M57.2,43.9 C57.5,44.8 56.9,45.6 57.4,46.5 C57.8,47.2 58.7,47.5 59.4,47.7 C59.6,47.8 59.8,47.4 59.5,47.3 C58.8,47.1 58,46.8 57.6,46.2 C57.2,45.5 57.8,44.6 57.5,43.9 C57.5,43.5 57.1,43.6 57.2,43.9 Z M60.9,43.8 C61.4,43.8 61.5,44.6 61.6,45 C61.7,45.3 62,45.6 62.2,45.9 C62.5,46.2 63,46.4 63.1,46.9 C63.2,47.2 63.3,47.7 63.1,48 C63,48.2 63.3,48.4 63.4,48.2 C63.9,47.4 63.4,46.4 62.8,45.9 C62.5,45.7 62.2,45.5 62,45.2 C61.8,44.9 61.9,44.6 61.7,44.2 C61.5,43.8 61.2,43.5 60.8,43.4 C60.7,43.4 60.7,43.8 60.9,43.8 Z M58.1,43.8 C58.4,44.9 58.6,46 58.6,47.1 C58.6,47.4 59,47.4 59,47.1 C59,45.9 58.8,44.8 58.5,43.7 C58.5,43.5 58.1,43.6 58.1,43.8 Z M63.1,47.1 C61.9,46.7 60.7,46.7 59.5,47.2 C59.3,47.3 59.4,47.7 59.6,47.6 C60.7,47.2 61.8,47.2 63,47.5 C63.2,47.6 63.3,47.2 63.1,47.1 Z" id="Path" fill="#010101" fill-rule="nonzero"></path>
                    <path d="M38.2,44.6 C37.3,44.1 36.2,44.1 35.3,44.7 C35,44.9 35.2,45.2 35.4,45.3 C35.4,45.4 35.5,45.5 35.7,45.5 C36.5,45.4 37.3,45.3 38.1,45.3 C38.3,45.1 38.5,44.7 38.2,44.6 Z" id="Path" fill="#808285"></path>
                    <path d="M46.1,30.8 L52.4,30.8 C52.8,30.8 53.2,30.9 53.6,30.8 C54.1,30.7 54.5,30.4 54.4,29.8 C54.4,29.5 54,29.5 54,29.8 C54.1,30.6 52.7,30.4 52.2,30.4 L46,30.4 C45.9,30.4 45.9,30.8 46.1,30.8 Z M47.1,32.4 L47.1,31.4 L47,31.6 L47.7,31.5 C47.6,31.5 47.5,31.4 47.5,31.4 C47.6,31.7 47.6,32.1 47.6,32.4 C47.6,32.7 48.1,32.5 48,32.3 C47.9,32 47.9,31.6 47.9,31.3 C47.9,31.2 47.8,31.1 47.7,31.2 L47,31.3 C46.9,31.3 46.9,31.4 46.9,31.5 L46.9,32.5 C46.7,32.7 47.1,32.7 47.1,32.4 Z M50.9,32.2 C50.6,31.9 50.8,31.5 51.2,31.5 C51.5,31.5 51.6,32 51.5,32.2 C51.4,32.4 51.8,32.6 51.9,32.3 C52,32 51.9,31.7 51.8,31.5 C51.7,31.2 51.5,31.1 51.1,31.1 C50.4,31.1 50.1,32 50.6,32.5 C50.8,32.7 51.1,32.4 50.9,32.2 Z M53.3,30.7 L53.3,32.5 C53.3,32.8 53.7,32.8 53.7,32.5 L53.7,30.7 C53.8,30.4 53.4,30.4 53.3,30.7 Z M44.7,30.6 C44.6,31.2 44.5,31.8 44.5,32.5 C44.5,32.8 44.9,32.8 44.9,32.5 C44.9,31.9 45,31.3 45.1,30.8 C45.1,30.4 44.7,30.3 44.7,30.6 Z M59.2,47.4 C59.1,47.6 59.2,48 59.3,48.2 C59.5,48.4 59.8,48.1 59.6,47.9 C59.6,47.8 59.5,47.6 59.6,47.5 C59.7,47.3 59.3,47.2 59.2,47.4 Z M62.7,47.5 C63.1,47.7 63.6,47.5 63.6,47.1 C63.6,46.8 63.3,46.7 63.2,47 C63.2,47.1 63,47.3 62.9,47.2 C62.7,47 62.5,47.3 62.7,47.5 Z M57.2,46.1 C57.3,47.3 58.2,48.3 59.4,48.3 C59.7,48.3 59.7,47.9 59.4,47.9 C58.4,47.9 57.6,47.1 57.6,46.1 C57.6,45.8 57.2,45.8 57.2,46.1 Z M40.5,40.2 L40.4,42 C40.4,42.3 40.8,42.3 40.8,42 L40.9,40.2 C40.9,39.9 40.5,39.9 40.5,40.2 Z M37,38 C37.1,39.3 37.3,40.5 37.5,41.8 C37.5,42.1 38,42.1 37.9,41.8 C37.8,40.5 37.6,39.3 37.4,38 C37.4,37.7 37,37.7 37,38 Z M37.2,42 C38.5,42.2 39.6,42.3 40.9,42.2 C41.2,42.2 41.2,41.8 40.9,41.8 C39.7,41.9 38.5,41.8 37.3,41.6 C37.1,41.5 37,41.9 37.2,42 Z M42,43.7 C41.9,43 41.4,42.6 41.1,42.1 C41,41.9 40.6,42.1 40.8,42.3 C41,42.8 41.6,43.2 41.6,43.7 C41.6,43.9 42,43.9 42,43.7 Z M35.3,44.9 C35.5,44.3 36.3,44.3 36.8,44.3 C37.4,44.3 38,44.8 38.5,45.1 C39,45.3 39.5,45.5 40,45.6 C40.5,45.7 41.2,45.7 41.7,45.4 C42.3,45 42.2,44.2 42,43.6 C41.9,43.4 41.5,43.5 41.6,43.7 C41.8,44.4 41.8,45.1 40.9,45.2 C40.3,45.3 39.7,45.1 39.2,44.9 C38.4,44.7 37.8,43.9 37,43.8 C36.3,43.8 35.2,43.8 34.9,44.7 C34.8,45.1 35.2,45.2 35.3,44.9 Z M37.1,41.9 C37.1,42.1 36.9,42.1 36.8,42.3 C36.7,42.4 36.6,42.8 36.5,42.8 C36.1,42.9 35.5,42.9 35.2,43.2 C34.9,43.5 34.5,44.5 34.8,44.9 C35,45.2 35.2,45.3 35.5,45.3 C36.2,45.4 36.8,45.3 37.5,45.3 C37.8,45.3 38.2,45.3 38.5,45.2 C38.9,45.2 38.9,45.4 39.1,45.7 L40.1,47.4 C40.2,47.6 40.6,47.4 40.4,47.2 C39.9,46.4 39.4,45.6 39,44.8 C39,44.7 38.9,44.7 38.8,44.7 L36.1,44.8 C35.8,44.8 35.1,44.9 35.1,44.4 C35.1,44.1 35.2,43.7 35.3,43.5 C35.6,42.9 36.6,43.3 36.9,42.8 C37,42.6 37.1,42.4 37.4,42.2 C37.6,42 37.6,41.9 37.5,41.7 C37.4,41.5 37,41.6 37.1,41.9 Z M65.8,63.4 C71.6,63.4 77.4,63.7 83.1,63.7 C85.9,63.7 88.7,63.7 91.5,63.5 C92.7,63.4 93.9,63.4 95,63.1 C95.6,63 96.4,62.6 96.2,61.9 C96.2,61.6 95.7,61.8 95.8,62 C95.9,62.8 93.9,62.9 93.4,62.9 C92.1,63 90.8,63.1 89.5,63.1 C86.9,63.2 84.2,63.2 81.6,63.2 C76.3,63.1 71,62.9 65.6,62.9 C65.5,62.9 65.5,63.4 65.8,63.4 Z M65.9,61.8 C73.5,61.7 81.2,61.9 88.8,61.7 C90.5,61.6 92.2,61.6 93.8,61.3 C94.1,61.2 94.5,61.2 94.8,60.9 C95,60.7 94.8,60.4 94.6,60.2 C94.4,60.1 94.2,60.4 94.4,60.6 C94.5,60.6 94.5,60.7 94.5,60.7 L94.5,60.6 C94.3,60.7 94,60.8 93.7,60.8 C92.6,61 91.4,61 90.2,61.1 C86.4,61.3 82.6,61.3 78.8,61.3 L66,61.3 C65.6,61.4 65.6,61.8 65.9,61.8 Z M65.8,59.9 C70.7,59.8 75.6,59.7 80.5,59.7 C82.8,59.7 85,59.7 87.3,59.6 C87.8,59.6 90.2,59.6 89.8,58.5 C89.7,58.3 89.3,58.4 89.4,58.6 C89.6,59.2 86.1,59.2 85.8,59.2 L79.1,59.3 L65.8,59.5 C65.6,59.5 65.6,59.9 65.8,59.9 Z M75.1,58.1 C77.9,58 80.8,57.9 83.6,57.9 C84.3,57.9 85.1,57.9 85.8,57.7 C86.3,57.6 86.5,57.2 86,56.9 C85.8,56.8 85.6,57.1 85.8,57.3 L85.7,57.4 L85.4,57.5 L84.7,57.6 C83.7,57.7 82.8,57.7 81.8,57.7 L75.1,57.9 C74.8,57.7 74.8,58.1 75.1,58.1 Z M65.8,58.1 L73.2,58.1 C73.5,58.1 73.5,57.7 73.2,57.7 L65.8,57.7 C65.5,57.7 65.5,58.1 65.8,58.1 Z M62.7,65.5 L82.3,65.6 L91.9,65.4 C92.9,65.4 94,65.4 95,65.3 C95.8,65.2 96.7,65 97.2,64.3 C97.3,64.1 97,63.9 96.9,64.1 C96.4,64.9 95.1,64.9 94.3,65 L91.2,65.1 C88,65.2 84.9,65.3 81.7,65.3 L62.7,65.2 C62.5,65.1 62.5,65.5 62.7,65.5 Z M22.7,65.1 C36.1,65.2 49.5,65.5 62.9,65.5 C63.2,65.5 63.2,65.1 62.9,65.1 C49.5,65 36.1,64.7 22.7,64.7 C22.4,64.7 22.4,65.1 22.7,65.1 Z M8.2,64.8 C13,65.1 17.9,65.1 22.7,65.1 C23,65.1 23,64.7 22.7,64.7 C17.9,64.6 13,64.6 8.2,64.4 C7.9,64.4 7.9,64.8 8.2,64.8 Z M0.5,62.8 C1.2,64 2.4,64.2 3.6,64.4 C5.1,64.6 6.6,64.8 8.1,64.8 C8.4,64.8 8.4,64.4 8.1,64.4 C6.8,64.4 5.5,64.3 4.2,64.1 C2.9,63.9 1.5,63.9 0.8,62.6 C0.8,62.4 0.4,62.6 0.5,62.8 Z M4.3,58.9 C3.6,60.4 5.8,60.6 6.7,60.7 C7.9,60.8 9.1,60.8 10.3,60.8 L14.8,60.9 L32.5,61.3 C32.8,61.3 32.8,60.9 32.5,60.9 C27.1,60.8 21.8,60.7 16.4,60.5 L8.5,60.3 C7.9,60.3 4.1,60.4 4.7,59.1 C4.8,58.9 4.4,58.7 4.3,58.9 Z M7.8,57.8 C8,59.1 9.7,59.2 10.8,59.3 C12.9,59.5 14.9,59.4 17,59.5 C22.1,59.6 27.2,59.7 32.3,59.7 C32.6,59.7 32.6,59.3 32.3,59.3 C27.6,59.3 22.9,59.3 18.3,59.2 C16.2,59.2 14.1,59.1 12,59 C11,59 8.6,59.1 8.4,57.8 C8.1,57.4 7.7,57.5 7.8,57.8 Z M16.3,54.4 L20.3,54.4 C20.6,54.4 20.6,54 20.3,54 L16.3,54 C16,54 16,54.4 16.3,54.4 Z" id="Path" fill="#010101" fill-rule="nonzero"></path>
                    <path d="M6.1,62.5 L32.6,62.5" id="Path" fill="#FFFFFF"></path>
                    <path d="M6.1,62.7 L32.6,62.7 C32.9,62.7 32.9,62.3 32.6,62.3 L6.1,62.3 C5.8,62.3 5.8,62.7 6.1,62.7 Z M6.9,62.3 C5.7,62.3 4.4,62.3 3.2,62.1 C2.6,62 2.1,61.9 1.6,61.6 C1.1,61.3 1.4,60.9 1.7,60.6 C1.9,60.4 1.6,60.1 1.4,60.3 C1.1,60.6 0.8,61.1 1,61.6 C1.3,62.1 2,62.2 2.5,62.4 C3.9,62.7 5.5,62.8 6.9,62.8 C7.1,62.7 7.1,62.3 6.9,62.3 Z" id="Path" fill="#010101" fill-rule="nonzero"></path>
                    <path d="M47.9,23.1 L47.9,22.5 C47.9,22.2 47.4,22.1 47.3,22.4 L47.1,22.1 C46.9,21.8 46.4,22.1 46.6,22.4 L47.2,23.4 C47.3,23.6 47.6,23.6 47.7,23.4 C47.9,23.4 48,23.3 47.9,23.1 Z" id="Path" fill="#F7923F"></path>
                    <path d="M46.1,29.4 C48.7,29.2 51.3,29.3 53.9,29.6 C54.2,29.6 54.2,29.2 53.9,29.2 C51.3,28.9 48.7,28.8 46.1,29 C45.8,29 45.8,29.5 46.1,29.4 Z M42.9,19.4 L43.2,21.5 C43.2,21.8 43.7,21.8 43.6,21.5 L43.3,19.4 C43.3,19.1 42.9,19.1 42.9,19.4 Z M10.7,56.7 C10.6,57.2 11.1,57.6 11.5,57.8 C12.2,58.2 13.1,58.2 13.9,58.2 L19.8,58.2 L31.8,58.3 C32.1,58.3 32.1,57.9 31.8,57.9 C28.3,58 24.8,57.9 21.3,57.9 L13.4,57.9 C12.9,57.9 11,57.7 11.1,56.8 C11.2,56.4 10.7,56.4 10.7,56.7 Z M60.6,40.5 L60.6,43.7 L60.8,43.5 C59.8,43.4 58.8,43.5 57.8,43.5 L58,43.7 L57.7,42.2 C57.7,41.9 57.2,41.9 57.3,42.2 L57.6,43.7 C57.6,43.8 57.7,43.9 57.8,43.9 C58.8,44 59.8,43.9 60.8,43.9 C60.9,43.9 61,43.8 61,43.7 L61,40.5 C61,40.2 60.6,40.2 60.6,40.5 Z" id="Path" fill="#010101" fill-rule="nonzero"></path>
                    <path d="M43.7,5.1 C43.8,5.3 44,5.4 44.2,5.5 C44.3,5.6 44.4,5.7 44.6,5.8 C44.8,5.9 45.1,5.6 44.8,5.4 C44.7,5.3 44.6,5.2 44.5,5.2 L44.3,5.1 C44.3,5.1 44.2,5.1 44.2,5 C44,4.7 43.6,4.8 43.7,5.1 Z" id="Path" stroke="#010101" stroke-width="0.092" fill="#010101"></path>
                    <path d="M47.4,54.5 C47.4,54.8 47.2,55 46.9,55.1 C46.6,55.1 46.4,54.9 46.3,54.6 L44,15.1 C44,14.8 44.2,14.6 44.5,14.5 C44.8,14.5 45,14.7 45.1,15 L47.4,54.5 Z M52.4,54.5 C52.4,54.8 52.1,55 51.8,55 C51.5,55 51.3,54.7 51.3,54.4 L56.6,15.1 C56.6,14.8 56.9,14.6 57.2,14.6 C57.5,14.6 57.7,14.9 57.7,15.2 L52.4,54.5 Z" id="Path" stroke="#010101" stroke-width="0.458" fill="#FFFFFF" fill-rule="nonzero"></path>
                    <path d="M24.9,58.8 C24.9,59.3 24.5,59.7 24.1,59.6 C23.6,59.6 23.3,59.2 23.3,58.7 L24,30.3 C24,29.8 24.4,29.4 24.8,29.5 C25.3,29.5 25.6,29.9 25.6,30.4 L24.9,58.8 Z M74.9,59 C74.9,59.5 74.5,59.8 74.1,59.8 C73.6,59.8 73.3,59.4 73.3,59 L73.4,31.9 C73.4,31.4 73.8,31.1 74.2,31.1 C74.7,31.1 75,31.5 75,31.9 L74.9,59 Z" id="Path" stroke="#010101" stroke-width="0.355" fill="#BCBEC0" fill-rule="nonzero"></path>
                    <path d="M73.3,44.6 L71.9,44.6 C71.6,44.6 71.6,45 71.9,45 L73.3,45 C73.5,45 73.5,44.6 73.3,44.6 Z M74.1,30.1 L74.1,31 C74.1,31.3 74.5,31.3 74.5,31 L74.5,30.1 C74.5,29.8 74.1,29.8 74.1,30.1 Z M36.6,36.4 L38.3,36.1 C38.7,36 39,36.1 39.3,36.4 C39.4,36.6 39.5,36.6 39.8,36.7 C40,36.8 40.2,36.4 39.9,36.3 L39.3,35.7 C39.1,35.6 38.9,35.6 38.6,35.6 L36.5,36 C36.3,36.1 36.4,36.5 36.6,36.4 Z M38,26.4 C37.9,28 38.2,29.5 38.4,31.1 C38.7,32.7 39,34.4 39.6,35.9 C39.7,36.1 40.1,36 40,35.8 C39.4,34.4 39.1,32.8 38.9,31.3 C38.6,29.7 38.4,28.1 38.4,26.4 C38.4,26.1 38,26.1 38,26.4 Z M25.2,44.1 L26.4,44.1 C26.7,44.1 26.7,43.7 26.4,43.7 L25.2,43.7 C25,43.7 25,44.1 25.2,44.1 Z M35.8,45.3 C36.1,45.8 36.4,46.2 36.6,46.7 C36.8,47 37,47.5 37.3,47.6 C37.6,47.8 38,47.8 38.4,47.8 L40.1,47.8 C40.4,47.8 40.4,47.4 40.1,47.4 L39,47.4 C38.6,47.4 37.8,47.5 37.5,47.2 C37.2,47 37.1,46.6 36.9,46.3 L36.2,45.1 C36,44.8 35.6,45.1 35.8,45.3 Z" id="Path" fill="#010101" fill-rule="nonzero"></path>
                    <path d="M46.8,14.9 C46.8,14.8 46.8,14.8 46.7,14.7 L46.6,14.5 C46.7,14.3 46.6,14.1 46.3,14.1 C46,14.1 45.9,14.5 46.1,14.7 L46.1,14.9 C46.1,15 46.1,15 46.2,15.1 C46.3,15.3 46.4,15.4 46.6,15.3 C46.8,15.3 46.9,15.1 46.8,14.9 Z" id="Path" fill="#F7923F"></path>
                    <path d="M57.6,44 L59.1,43.9 C59.4,43.9 59.4,43.5 59.1,43.5 L57.6,43.6 C57.3,43.6 57.3,44 57.6,44 Z" id="Path" fill="#010101"></path>
                    <path d="M56.6,10.8 C57.6,11.4 58.6,12.4 59.5,13.2 C60,13.6 60.4,14.1 60.6,14.8 C60.8,15.7 60.3,16.6 59.5,16.9 C58.9,17.1 58.5,16.9 57.9,16.9 C57.6,16.9 57.4,16.9 57.1,16.8 C56.9,16.7 56.6,16.6 56.4,16.4 C56.1,16.2 55.7,16 55.5,15.6 C54.8,14.6 55.5,13.2 56.4,12.7 C56.9,12.4 57.5,12.3 58,12.6 C58.3,12.8 58.6,13.2 58.7,13.6 C58.8,14 58.8,14.4 58.8,14.8 C58.8,15.2 58.8,15.6 58.7,16 C58.6,16.4 58.3,16.7 57.9,16.9" id="Path"></path>
                    <path d="M57.6,16.3 C57.1,16.2 56.6,16 56.5,15.4 C56.5,15.1 56.7,14.7 56.6,14.4 C56.5,14.2 56.4,14 56.2,13.8 C56.1,13.6 55.9,13.4 55.7,13.6 L55.6,13.6 C55.5,13.6 55.4,13.8 55.4,13.9 C55.4,14.1 55.4,14.3 55.5,14.5 C55.6,14.7 55.9,14.7 56,14.5 C56,14.8 56,15.2 55.9,15.4 C55.9,15.6 55.9,15.9 56,16.1 C56.3,16.6 56.8,16.8 57.4,16.9 C57.8,17 58,16.4 57.6,16.3 Z" id="Path" fill="#FFEBCC"></path>
                    <path d="M38,7.3 L38.2,8.8 L38.2,8.9 L38.3,8.9 L38.9,8.8 C39.1,8.7 39.2,8.6 39.3,8.4 L39.3,8.2 C39.3,8.1 39.2,8.1 39.1,8.1" id="Path" stroke="#000000" stroke-width="0.355" fill="#FFEBCC" stroke-linecap="round"></path>
                    <path d="M59.1,12.9 C59.1,12.9 59,12.8 58.9,12.8 C58.8,12.6 58.6,12.5 58.4,12.4 C58.3,12.3 58.2,12.3 58.2,12.4 L57.7,11.5 C57.5,11.2 57.1,11.4 57.2,11.7 L57.4,12.2 L57,11.8 C56.7,11.5 56.3,12 56.6,12.2 L57.2,12.9 C57.1,13.2 57.1,13.4 57.1,13.7 C56.4,13.9 55.9,14.4 56,15.2 C56,15.6 56.3,15.8 56.6,16 C56.7,16.3 56.9,16.5 57.1,16.8 C57.4,17 57.7,16.7 57.6,16.4 C57.7,16.8 58,17.1 58.5,16.9 L58.6,16.9 C59.5,17 60.3,16.4 60.5,15.5 C60.6,14.4 59.8,13.6 59.1,12.9 Z" id="Shape" fill="#FFEBCC" fill-rule="nonzero"></path>
                    <path d="M37.8,7.2 C37.9,7.4 37.7,7.5 37.5,7.4 C37.3,7.3 37.1,7.6 37.3,7.8 C37.8,8.1 38.4,7.6 38.2,7.1 C38.1,6.8 37.7,6.9 37.8,7.2 Z M40.3,10 C40.4,9.9 40.4,9.9 40.5,9.9 C40.7,9.8 40.6,9.4 40.4,9.5 C40.3,9.5 40.1,9.6 40,9.7 C39.9,9.9 40.2,10.1 40.3,10 Z M37.3,44.4 C38.8,44.8 40.9,45.6 42,44.1 C42.2,43.9 41.8,43.7 41.7,43.9 C40.8,45.2 38.6,44.3 37.4,44 C37.1,44 37,44.4 37.3,44.4 Z M35,44 C35.7,43.2 36.6,43.2 37.4,43.6 C38.3,44 39.1,44.5 39.9,45 C40.1,45.1 40.3,44.8 40.1,44.6 C39.1,44.1 38.1,43.4 37,43 C36.2,42.7 35.2,43 34.6,43.7 C34.6,43.9 34.8,44.2 35,44 Z M56.5,11 C57.2,11.4 57.8,12 58.4,12.5 C59,13 59.7,13.6 60.1,14.3 C60.6,15 60.4,15.9 59.8,16.5 C59.4,16.9 58.9,16.9 58.4,16.8 C58,16.7 57.6,16.7 57.3,16.7 C56.9,16.6 56.5,16.3 56.2,16.1 C55.8,15.8 55.5,15.4 55.4,14.9 C55.3,14.1 55.9,13.4 56.5,13 C56.9,12.7 57.4,12.7 57.9,12.9 C58.3,13.1 58.5,13.6 58.6,14.1 C58.7,14.9 58.9,16.4 57.9,16.8 C57.7,16.9 57.8,17.3 58,17.2 C59.1,16.8 59.1,15.6 59,14.6 C59,13.7 58.6,12.5 57.6,12.4 C56.6,12.3 55.8,13 55.3,13.8 C54.8,14.7 55,15.7 55.7,16.3 C56.1,16.6 56.6,17 57.1,17.2 C57.6,17.4 58.2,17.4 58.8,17.4 C59.8,17.5 60.5,16.8 60.9,15.9 C61.2,14.9 60.6,14 59.9,13.3 C59,12.4 58,11.4 56.9,10.7 C56.5,10.4 56.3,10.8 56.5,11 Z M39.9,47.4 L41.6,47.4 L41.4,47.3 C41.1,47.3 41.1,47.7 41.4,47.7 C41.7,47.7 41.9,47.4 41.8,47.1 C41.8,47 41.7,47 41.6,47 L39.9,47 C39.7,47 39.7,47.4 39.9,47.4 Z M35.5,47.4 L37.2,47.4 C37.5,47.4 37.5,47 37.2,47 L35.5,47 C35.3,46.9 35.3,47.4 35.5,47.4 Z M34.2,48.2 L35.7,47.3 C35.9,47.2 35.7,46.8 35.5,46.9 L34,47.8 C33.8,48 34,48.4 34.2,48.2 Z M56.6,47.8 L58.1,47.8 C58.4,47.8 58.4,47.4 58.1,47.4 L56.6,47.4 C56.4,47.4 56.4,47.8 56.6,47.8 Z M39.3,44.2 L40.1,42.1 C40.2,41.9 39.8,41.7 39.7,42 L38.9,44.1 C38.8,44.3 39.2,44.5 39.3,44.2 Z M48.9,43.2 C48.8,47 48.9,50.8 49.3,54.6 C49.3,54.9 49.7,54.9 49.7,54.6 C49.3,50.8 49.1,47 49.3,43.2 C49.3,43 48.9,43 48.9,43.2 Z M48.4,42.6 C48.2,42.7 48.1,42.8 48.1,43 C48.1,43.1 48.1,43.2 48.2,43.2 C48.8,43.5 50.1,43.7 50.4,42.9 C50.5,42.6 50.1,42.4 49.9,42.3 C49.3,42.2 48.8,42.4 48.4,42.6 C48.2,42.8 48.4,43.2 48.6,43 C48.8,42.9 48.9,42.8 49.1,42.8 L49.4,42.8 C49.4,42.8 49.9,42.9 49.7,43 C49.3,43.3 48.6,43.1 48.2,43 C48.2,43.1 48.3,43.2 48.3,43.2 L48.4,43 C48.8,42.8 48.6,42.5 48.4,42.6 Z M46.9,41.7 C48.8,40.6 51.1,40.6 53,41.6 C53.2,41.7 53.4,41.4 53.2,41.2 C51.1,40 48.7,40.1 46.7,41.3 C46.4,41.5 46.7,41.9 46.9,41.7 Z M46.7,40.2 C48.9,39.8 51.1,39.7 53.3,40 C53.6,40 53.6,39.6 53.3,39.6 C51,39.4 48.8,39.5 46.6,39.9 C46.3,39.8 46.4,40.2 46.7,40.2 Z M50.5,25.9 C51,26 51.5,25.9 52,25.7 C52.7,25.4 53.4,25 54,24.6 C54.2,24.5 54,24.1 53.8,24.2 C53.3,24.4 52.9,24.7 52.4,25 C51.8,25.3 51.2,25.7 50.6,25.5 C50.4,25.4 50.3,25.8 50.5,25.9 Z M55.9,33.4 C55.7,32.5 56.3,31.7 56.8,30.9 C57.3,30.2 57.8,29.4 58.4,28.8 C58.6,28.6 58.3,28.3 58.1,28.5 C57.4,29.2 56.8,30 56.3,30.9 C55.8,31.7 55.3,32.6 55.5,33.5 C55.6,33.8 56,33.7 55.9,33.4 Z M42.8,23 C43.5,23 44.1,22.8 44.6,22.4 C44.8,22.2 44.6,21.9 44.4,22 C43.9,22.4 43.4,22.6 42.8,22.6 C42.5,22.6 42.5,23 42.8,23 Z M47.3,23.6 C48.6,25 50.6,25.1 52,23.9 C52.2,23.7 51.9,23.4 51.7,23.6 C50.5,24.7 48.7,24.6 47.6,23.3 C47.4,23.1 47.1,23.4 47.3,23.6 Z M49.2,20.4 L51.5,19.2 L52.7,18.5 C52.9,18.4 53.2,18.2 53.3,18 C53.5,17.6 53.4,17.1 52.9,17 C52.3,16.9 52,17.7 51.5,17.9 C51.3,18 51.4,18.4 51.6,18.3 C51.9,18.2 52.1,18 52.3,17.7 C52.3,17.6 52.4,17.6 52.5,17.5 C52.5,17.5 52.6,17.4 52.7,17.4 C53.3,17.2 53,17.8 52.7,17.9 C52.5,18.1 52.2,18.2 51.9,18.3 L48.9,19.9 C48.7,20.1 48.9,20.5 49.2,20.4 Z M49.5,10.3 C49.8,10 50,9.7 50,9.3 C50,8.9 49.6,8.7 49.2,8.8 C48.9,8.9 48.8,9.3 48.8,9.6 C48.8,9.9 49,10.2 49.3,10.4 C49.5,10.5 49.7,10.2 49.5,10 C49.2,9.9 49.1,9.5 49.2,9.2 C49.2,9.1 49.3,9.1 49.4,9.2 C49.5,9.2 49.5,9.4 49.5,9.4 C49.5,9.6 49.3,9.8 49.2,10 C49.1,10.2 49.3,10.5 49.5,10.3 Z M42.1,12.2 C42.6,12.6 43.3,12.3 43.3,11.7 C43.3,11.4 42.9,11.4 42.9,11.7 C42.9,12 42.6,12.1 42.4,11.9 C42.2,11.7 41.9,12 42.1,12.2 Z M56.8,23.5 C57.2,23.6 57.6,23.4 57.7,23 C57.9,22.6 57.6,22.2 57.2,22 C57,21.9 56.9,22.3 57.1,22.4 C57.5,22.5 57.3,23.2 56.9,23 C56.7,23 56.5,23.4 56.8,23.5 Z M38.5,47.6 C38,47.1 37.8,46.4 37.9,45.7 L37.6,45.9 C37.9,46.1 38.2,46.4 38.4,46.7 C38.7,47.1 39,47.4 39.4,47.8 C39.6,48 39.9,47.7 39.7,47.5 C39.4,47.1 39.1,46.8 38.7,46.4 C38.4,46.1 38.2,45.7 37.8,45.5 C37.7,45.4 37.5,45.5 37.5,45.7 C37.4,46.5 37.7,47.3 38.3,47.9 C38.3,48.1 38.6,47.8 38.5,47.6 Z M52.7,10.7 C52.4,9.7 52.9,8.8 53.8,8.5 C54,8.4 53.9,8 53.7,8.1 C52.5,8.4 51.9,9.6 52.3,10.8 C52.4,11.1 52.7,10.9 52.7,10.7 Z M53.1,11.4 L53.5,10.3 C53.6,10.1 53.2,9.9 53.1,10.2 L52.7,11.3 C52.6,11.5 53,11.6 53.1,11.4 Z" id="Path" fill="#010101" fill-rule="nonzero"></path>
                    <path d="M64.2,62.4 L49.6,62.4 C49.4,62.4 49.3,62.2 49.3,62 L49.3,60 C49.3,59.8 49.4,59.7 49.6,59.7 L64.3,59.7 C64.5,59.7 64.6,59.8 64.6,60 L64.6,62 C64.6,62.2 64.4,62.4 64.2,62.4 Z" id="Path" stroke="#010101" stroke-width="0.03" fill="#FFFFFF"></path>
                    <path d="M50,60.1 L50.9,60.1 L50.9,60.5 L50.5,60.5 L50.5,60.9 L50.8,60.9 L50.8,61.3 L50.5,61.3 L50.5,61.7 L50.9,61.7 L50.9,62.1 L49.9,62.1 L50,60.1 Z M52.4,60.1 L52.4,62 L51.9,62 L51.6,61.1 L51.6,62 L51.1,62 L51.1,60.1 L51.6,60.1 L51.9,61 L51.9,60.1 L52.4,60.1 Z M53.9,60.8 L53.3,60.8 L53.3,60.4 L53.1,60.4 L53.1,61.7 L53.3,61.7 L53.3,61.3 L53.2,61.3 L53.2,61 L53.9,61 L53.9,62 L53.6,62 L53.5,61.9 C53.5,62 53.4,62 53.4,62 L53.2,62 C53.1,62 53,62 52.9,61.9 L52.7,61.8 L52.6,61.6 L52.6,60.3 C52.6,60.2 52.7,60.1 52.8,60.1 C52.9,60 53,60 53.2,60 C53.4,60 53.5,60 53.6,60.1 C53.7,60.2 53.8,60.2 53.8,60.3 L53.8,60.7 L53.9,60.8 Z M54.7,60.1 L54.7,62 L54.1,62 L54.1,60.1 L54.7,60.1 Z M56.2,60.1 L56.2,62 L55.7,62 L55.4,61.1 L55.4,62 L54.9,62 L54.9,60.1 L55.4,60.1 L55.7,61 L55.7,60.1 L56.2,60.1 Z M56.4,60.1 L57.3,60.1 L57.3,60.5 L57,60.5 L57,60.9 L57.3,60.9 L57.3,61.3 L57,61.3 L57,61.7 L57.4,61.7 L57.4,62.1 L56.4,62.1 L56.4,60.1 Z M57.6,60.1 L58.5,60.1 L58.5,60.5 L58.1,60.5 L58.1,60.9 L58.4,60.9 L58.4,61.3 L58.1,61.3 L58.1,61.7 L58.5,61.7 L58.5,62.1 L57.5,62.1 L57.6,60.1 Z" id="Path" fill="#010101" fill-rule="nonzero"></path>
                    <path d="M58.7,60.1 L59.7,60.1 C59.8,60.1 59.9,60.2 59.9,60.2 C60,60.3 60,60.4 60,60.6 C60,60.7 60,60.8 59.9,60.9 C59.9,60.9 59.8,61 59.7,61 C59.8,61 59.9,61.1 59.9,61.1 L60,61.2 L60,62 L59.5,62 L59.5,61.2 L59.4,61.2 L59.4,62.1 L58.8,62.1 L58.7,60.1 Z M59.3,60.4 L59.3,60.8 L59.4,60.8 L59.4,60.5 C59.4,60.4 59.3,60.4 59.3,60.4 Z" id="Shape" fill="#010101" fill-rule="nonzero"></path>
                    <path d="M60.8,60.1 L60.8,62 L60.2,62 L60.2,60.1 L60.8,60.1 Z M62.3,60.1 L62.3,62 L61.8,62 L61.5,61.1 L61.5,62 L61,62 L61,60.1 L61.5,60.1 L61.8,61 L61.8,60.1 L62.3,60.1 Z M63.8,60.8 L63.2,60.8 L63.2,60.4 L63,60.4 L63,61.7 L63.2,61.7 L63.2,61.3 L63.1,61.3 L63.1,61 L63.8,61 L63.8,62 L63.5,62 L63.4,61.9 C63.4,62 63.3,62 63.3,62 L63.1,62 C63,62 62.9,62 62.8,61.9 L62.6,61.8 L62.5,61.6 L62.5,60.3 C62.5,60.2 62.6,60.1 62.7,60.1 C62.8,60 62.9,60 63.1,60 C63.3,60 63.4,60 63.5,60.1 C63.6,60.2 63.7,60.2 63.7,60.3 L63.7,60.7 L63.8,60.8 Z" id="Path" fill="#010101" fill-rule="nonzero"></path>
                    <path d="M34.4,59.7 L35.7,59.7 C35.8,59.7 35.9,59.8 35.9,59.8 C35.9,60 36,60 36,60.1 L36,60.7 C36,60.9 36,61 35.9,61.1 C35.9,61.2 35.8,61.2 35.7,61.3 C35.6,61.3 35.5,61.4 35.3,61.4 L35.1,61.4 L35.1,62.4 L34.3,62.4 L34.3,59.7 L34.4,59.7 Z M35.1,60.2 L35.1,60.8 L35.3,60.8 L35.3,60.2 L35.1,60.2 Z M36.3,59.7 L37.5,59.7 C37.6,59.7 37.7,59.8 37.8,59.9 C37.9,60 37.9,60.1 37.9,60.4 C37.9,60.6 37.9,60.7 37.8,60.8 C37.7,60.9 37.6,60.9 37.5,60.9 L37.8,61 L37.9,61.1 L37.9,62.2 L37.2,62.2 L37.2,61.1 L37,61.1 L37,62.2 L36.2,62.2 L36.3,59.7 Z M37,60.2 L37,60.8 L37.2,60.8 C37.3,60.8 37.3,60.7 37.3,60.6 L37.3,60.3 C37.2,60.2 37.1,60.2 37,60.2 Z M40,61.2 L40,61.7 L39.9,62 C39.8,62.1 39.7,62.2 39.6,62.2 L39.2,62.3 C39,62.3 38.9,62.3 38.8,62.2 C38.7,62.2 38.6,62.1 38.5,62 C38.4,61.9 38.4,61.8 38.4,61.7 L38.4,60.2 L38.5,59.9 C38.6,59.8 38.7,59.7 38.8,59.7 L39.2,59.6 C39.4,59.6 39.5,59.6 39.6,59.7 C39.7,59.7 39.8,59.8 39.9,59.9 C40,60 40,60.1 40,60.2 L40,61.2 Z M39.2,60.4 L39.2,60.2 L39,60.2 L39,61.9 C39,61.9 39,62 39.1,62 C39.2,62 39.2,62 39.2,61.9 L39.2,60.4 Z" id="Shape" fill="#010101" fill-rule="nonzero"></path>
                    <path d="M40.3,59.7 L41.6,59.7 L41.6,60.2 L41.1,60.2 L41.1,60.7 L41.6,60.7 L41.6,61.2 L41.1,61.2 L41.1,62.3 L40.3,62.3 L40.3,59.7 Z M43.3,59.7 L43.3,60.2 L42.8,60.2 L42.8,62.2 L42,62.2 L42,60.2 L41.5,60.2 L41.5,59.7 L43.3,59.7 Z M43.5,59.7 L44.8,59.7 L44.8,60.2 L44.3,60.2 L44.3,60.7 L44.8,60.7 L44.8,61.2 L44.3,61.2 L44.3,61.8 L44.9,61.8 L44.9,62.3 L43.6,62.3 L43.6,59.7 L43.5,59.7 Z M46.8,60.8 L46,60.8 L46,60.2 L45.9,60.2 C45.8,60.2 45.8,60.2 45.8,60.3 L45.8,61.9 L45.9,62 C45.9,62 46,62 46,61.9 L46,61.3 L46.8,61.3 L46.8,61.4 C46.8,61.7 46.8,61.9 46.7,62 C46.6,62.1 46.6,62.2 46.4,62.3 C46.2,62.4 46.1,62.4 45.8,62.4 C45.6,62.4 45.4,62.4 45.2,62.3 C45,62.2 45,62.1 44.9,62 C44.8,61.9 45,61.6 45,61.4 L45,60.3 L45.1,60 L45.4,59.8 L45.8,59.7 C46,59.7 46.2,59.7 46.4,59.8 L46.7,60.1 C46.7,60.2 46.8,60.4 46.8,60.6 L46.8,60.8 Z M48.9,59.7 L48.9,62.3 L48.1,62.3 L48.1,61.2 L47.9,61.2 L47.9,62.3 L47.1,62.3 L47.1,59.7 L47.9,59.7 L47.9,60.6 L48.1,60.6 L48.1,59.7 L48.9,59.7 Z" id="Path" fill="#010101" fill-rule="nonzero"></path>
                    <path d="M72,51.2 L71.5,51.2 C71.5,51.1 71.5,51 71.4,50.9 C71.4,50.8 71.3,50.6 71.2,50.5 L71.5,50.2 L70.9,49.6 L70.6,49.9 C70.5,49.8 70.4,49.8 70.2,49.7 L69.9,49.6 L69.9,49.1 L69,49.1 L69,49.6 C68.8,49.7 68.5,49.7 68.3,49.9 L68,49.6 L67.4,50.2 L67.7,50.5 C67.6,50.7 67.5,50.9 67.4,51.2 L67,51.2 L67,52 L67.5,52 C67.5,52.1 67.5,52.2 67.6,52.3 C67.6,52.4 67.7,52.6 67.8,52.7 L67.5,53.1 L68.1,53.7 L68.5,53.3 L68.8,53.5 L69.1,53.6 L69.1,54.1 L69.9,54.1 L69.9,53.6 C70.1,53.5 70.4,53.5 70.6,53.3 L70.9,53.7 L71.5,53.1 L71.2,52.8 C71.3,52.6 71.4,52.4 71.5,52.1 L72,52.1 L72,51.2 Z" id="Path" stroke="#010101" stroke-width="0.018" fill="#010101"></path>
                    <circle id="Oval" stroke="#010101" stroke-width="0.018" fill="#FFFFFF" cx="69.5" cy="51.6" r="1.3"></circle>
                    <circle id="Oval" stroke="#010101" stroke-width="0.018" fill="#010101" cx="69.5" cy="51.6" r="1"></circle>
                    <path d="M50.7,18.9 L46.1,20.1 C46,20.1 46,20.1 46,20 L45.8,19.4 C45.8,19.3 45.8,19.3 45.9,19.3 L50.4,18.1 C50.5,18.1 50.5,18.1 50.5,18.2 L50.7,18.8 C50.8,18.9 50.8,18.9 50.7,18.9 Z" id="Path" stroke="#010101" stroke-width="0.01" fill="#FFFFFF"></path>
                    <path d="M46.1,19.4 L46.4,19.3 L46.4,19.4 L46.3,19.4 L46.3,19.5 L46.4,19.5 L46.4,19.6 L46.3,19.6 L46.3,19.7 L46.4,19.7 L46.4,19.8 L46.2,20 L46.1,19.4 Z M46.8,19.2 L47,19.8 L46.8,19.8 L46.6,19.6 L46.7,19.9 L46.6,19.9 L46.4,19.3 L46.5,19.3 L46.7,19.5 L46.6,19.2 L46.8,19.2 Z M47.3,19.3 L47.1,19.3 L47.1,19.1 L47.1,19.2 L47.2,19.5 L47.2,19.2 L47.3,19.3 L47.4,19.7 L47.3,19.7 L47.3,19.8 L47,19.8 L47,19.3 L47.1,19.2 L47.3,19.2 C47.3,19.2 47.4,19.3 47.3,19.3 Z M47.5,19 L47.7,19.6 L47.5,19.6 L47.3,19 L47.5,19 Z M48,18.9 L48.2,19.5 L48,19.5 L47.8,19.3 L47.9,19.6 L47.8,19.6 L47.6,19 L47.7,19 L47.9,19.2 L47.8,18.9 L48,18.9 Z M48.1,18.9 L48.4,18.8 L48.4,18.9 L48.3,18.9 L48.3,19 L48.4,19 L48.4,19.1 L48.3,19.1 L48.3,19.2 L48.4,19.2 L48.4,19.3 L48.1,19.4 L48.1,18.9 Z M48.4,18.8 L48.7,18.7 L48.7,18.8 L48.6,18.8 L48.6,18.9 L48.7,18.9 L48.7,19 L48.6,19 L48.6,19.1 L48.7,19.1 L48.7,19.2 L48.4,19.3 L48.4,18.8 Z" id="Path" fill="#010101" fill-rule="nonzero"></path>
                    <path d="M48.8,18.7 L49.2,18.7 C49.2,18.7 49.2,18.8 49.3,18.8 L49.3,18.9 L49.2,18.9 L49.3,18.9 L49.3,19.2 L49.1,19.2 L49.1,18.9 L49.2,19.2 L49,19.2 L48.8,18.7 Z M49,18.7 L49,18.8 C49,18.8 49.1,18.8 49,18.7 Z" id="Shape" fill="#010101" fill-rule="nonzero"></path>
                    <path d="M49.4,18.5 L49.6,19.1 L49.4,19.1 L49.2,18.5 L49.4,18.5 Z M49.9,18.4 L50.1,19 L49.9,19 L49.7,18.8 L49.8,19.1 L49.7,19.1 L49.5,18.5 L49.6,18.5 L49.8,18.7 L49.7,18.4 L49.9,18.4 Z M50.4,18.5 L50.2,18.5 L50.2,18.3 L50.2,18.4 L50.3,18.7 L50.3,18.4 L50.4,18.5 L50.5,18.9 L50.4,18.9 L50.4,19 L50.1,19 L50.1,18.5 L50.2,18.4 L50.4,18.4 L50.4,18.5 Z" id="Path" fill="#010101" fill-rule="nonzero"></path>
                    <path d="M45.6,18.4 L45.8,18.3 L46.1,18.3 L46.1,18.6 L46,18.7 C46,18.7 45.9,18.7 45.9,18.8 L45.8,18.8 L45.9,19.1 L45.7,19.2 L45.6,18.4 Z M45.9,18.5 L46,18.7 L46,18.5 L45.9,18.5 Z M46.2,18.3 L46.7,18.3 L46.8,18.4 L46.8,18.5 L46.7,18.6 L46.8,18.6 L46.8,18.7 L46.9,18.9 L46.7,19 L46.6,18.7 L46.6,18.6 L46.5,18.6 L46.6,19 L46.4,19.1 L46.2,18.3 Z M46.5,18.3 L46.5,18.5 L46.6,18.5 L46.6,18.4 L46.5,18.3 Z M47.5,18.4 L47.5,18.7 C47.5,18.7 47.5,18.8 47.4,18.8 C47.3,18.8 47.3,18.8 47.3,18.9 L47.1,18.9 C47.1,18.9 47,18.9 47,18.8 C47,18.8 47,18.7 46.9,18.6 L46.9,18.2 C46.9,18.2 46.9,18.1 47,18.1 C47.1,18.1 47.1,18.1 47.1,18 L47.3,18 C47.3,18 47.4,18 47.4,18.1 C47.4,18.1 47.4,18.2 47.5,18.3 L47.5,18.4 Z M47.2,18.2 L47.2,18.7 L47.2,18.6 L47.2,18.2 Z" id="Shape" fill="#010101" fill-rule="nonzero"></path>
                    <path d="M47.5,17.9 L47.9,17.8 L47.9,18 L47.7,18 L47.7,18.1 L47.8,18.1 L47.8,18.2 L47.7,18.2 L47.8,18.5 L47.6,18.6 L47.5,17.9 Z M48.4,17.7 L48.4,17.9 L48.3,17.9 L48.5,18.5 L48.3,18.6 L48.1,18 L48,18 L48,17.8 L48.4,17.7 Z M48.5,17.7 L48.9,17.6 L48.9,17.8 L48.7,17.8 L48.7,17.9 L48.8,17.9 L48.8,18 L48.7,18 L48.7,18.2 L48.9,18.2 L48.9,18.4 L48.5,18.5 L48.5,17.7 Z M49.6,17.7 L49.4,17.8 L49.4,17.6 L49.4,17.7 L49.5,18.1 L49.5,18.2 L49.5,18.1 L49.5,18 L49.7,17.9 L49.7,18.1 C49.7,18.1 49.7,18.2 49.6,18.2 L49.4,18.3 L49.2,18.3 C49.2,18.3 49.1,18.3 49.1,18.2 C49.1,18.2 49.1,18.1 49,18 L49,17.6 C49,17.6 49,17.5 49.1,17.5 C49.2,17.5 49.2,17.5 49.2,17.4 L49.4,17.4 C49.5,17.4 49.5,17.4 49.5,17.5 C49.5,17.5 49.6,17.6 49.6,17.7 Z M50.2,17.2 L50.4,18 L50.2,18.1 L50,17.7 L49.9,17.7 L50,18 L49.8,18.1 L49.6,17.3 L49.8,17.2 L49.9,17.5 L50,17.5 L49.9,17.2 L50.2,17.2 Z" id="Path" fill="#010101" fill-rule="nonzero"></path>
                    <path d="M31.9,50.5 L31.4,50.5 C31.4,50.4 31.4,50.3 31.3,50.2 C31.3,50.1 31.2,49.9 31.1,49.8 L31.4,49.5 L30.8,48.9 L30.5,49.2 C30.4,49.1 30.3,49.1 30.1,49 L29.8,48.9 L29.8,48.4 L29,48.4 L29,48.9 C28.8,49 28.5,49 28.3,49.2 L28,48.9 L27.4,49.5 L27.7,49.8 C27.6,50 27.5,50.2 27.4,50.5 L26.9,50.5 L26.9,51.4 L27.4,51.4 C27.4,51.5 27.4,51.6 27.5,51.7 C27.5,51.8 27.6,52 27.7,52.1 L27.4,52.5 L28,53.1 L28.4,52.7 L28.7,52.9 L29,53 L29,53.5 L29.8,53.5 L29.8,53 C30,52.9 30.3,52.9 30.5,52.7 L30.8,53.1 L31.4,52.5 L31.1,52.2 C31.2,52 31.3,51.8 31.4,51.5 L31.9,51.5 L31.9,50.5 Z" id="Path" stroke="#010101" stroke-width="0.018" fill="#010101"></path>
                    <circle id="Oval" stroke="#010101" stroke-width="0.018" fill="#FFFFFF" cx="29.4" cy="50.9" r="1.3"></circle>
                    <circle id="Oval" stroke="#010101" stroke-width="0.018" fill="#010101" cx="29.4" cy="51" r="1"></circle>
                    <path d="M72.2,28.8 C72.2,28.8 76.3,28.8 76.7,28.9 C77.3,29.2 77.5,29.3 76.8,29.9 C76.7,30 73.1,30 72.3,29.9 C71.6,29.9 71.7,29 72.2,28.8 Z" id="Path" stroke="#010101" stroke-width="0.355" fill="#BCBEC0"></path>
                    <path d="M46.8,13.7 L46.8,14.6 C46.8,14.3 47,12.6 47.6,13 C47.6,13 47.5,12.9 47.5,13" id="Path" fill="#F7923F"></path>
                    <path d="M42.4,15.4 C42.2,14.5 42.6,13.6 43.3,13.2 C44.1,12.7 44.8,13.1 45.1,13.2 C45.4,13.3 45.8,13.4 45.9,13.7 C46.1,14 46.1,14.5 46,14.8 C45.9,15.6 45.8,16.4 45.2,16.9 C44.5,17.5 43.5,17.4 42.8,16.8 C42.7,16.5 42.5,15.9 42.4,15.4 Z" id="Path" stroke="#010101" stroke-width="0.39" fill="#FFEBCC"></path>
                </g>
                <rect id="sideRect" stroke="#000000" fill="#E6E7E8" fill-rule="nonzero" x="0.5" y="0.5" width="25" height="93"></rect>
                <text id="txtPoly" transform="translate(12.500000, 47.000000) rotate(-90.000000) translate(-12.500000, -47.000000) " font-family="HelveticaNeue-Bold, Helvetica Neue" font-size="7" font-weight="bold" line-spacing="8" fill="#000000">
                    <tspan x="-21" y="46"></tspan>
                    <tspan x="-21" y="54"></tspan>
                </text>
            </g>
            <g id="cardSklady" transform="translate(0.000000, 93.000000)">
                <rect id="mainRect" stroke="#242424" fill="#F4F4F4" fill-rule="nonzero" x="25.5" y="0.5" width="147" height="93"></rect>
                <g id="picSklad" transform="translate(43.000000, 12.000000)">
                    <path d="M31.4633124,48.6958904 L0.469601677,31.3369863 C0.234800839,31.2054795 0,31.3369863 0,31.6 L0,52.2465753 C0,52.3780822 0,52.3780822 0.117400419,52.3780822 L31.2285115,69.8684932 C31.3459119,70 31.4633124,69.8684932 31.4633124,69.7369863 L31.4633124,48.8273973 C31.5807128,48.8273973 31.5807128,48.6958904 31.4633124,48.6958904 Z M111.8826,43.4356164 L31.932914,70 C31.8155136,70 31.6981132,70 31.6981132,69.7369863 L31.6981132,48.8273973 C31.6981132,48.6958904 31.6981132,48.6958904 31.8155136,48.5643836 L111.765199,22 C111.8826,22 112,22 112,22.2630137 L112,43.1726027 C112,43.4356164 111.8826,43.4356164 111.8826,43.4356164 Z M17.9622642,24.3671233 L0.469601677,30.8109589 C0.352201258,30.8109589 0.352201258,31.0739726 0.469601677,31.2054795 L30.9937107,48.4328767 C31.1111111,48.5643836 31.3459119,48.3013699 31.2285115,48.169863 L18.0796646,24.4986301 C18.0796646,24.3671233 17.9622642,24.3671233 17.9622642,24.3671233 Z" id="Path" stroke="#000000" stroke-width="2" fill="#A7A9AC" fill-rule="nonzero"></path>
                    <path d="M111.8825,21.3041096 L94.845,0.131506849 C94.7275,0 94.7275,0 94.61,0 L18,23.6712329 L31.63,48 L112,21.4356164 L111.8825,21.3041096 Z" id="Path" stroke="#231F20" stroke-width="2" fill="#F4A62A" stroke-linecap="round"></path>
                    <path d="M7.08724832,56.377907 L19.8836689,64 C20,64 20,64 20,63.8662791 L19.7673378,48.4883721 L19.7673378,48.3546512 L7.31991051,41 C7.20357942,41 7.20357942,41 7.20357942,41.1337209 L7.08724832,56.377907 C6.97091723,56.244186 6.97091723,56.377907 7.08724832,56.377907 Z" id="Path" stroke="#000000" fill="#414042"></path>
                    <path d="M35.7025316,58.9651397 L108.648734,34.8500066 C108.882911,34.8500066 109,34.5878856 109,34.4568251 L108.882911,28.4280418 C108.882911,28.1659208 108.648734,27.9037998 108.297468,28.0348603 L35.3512658,52.2810539 C35.2341772,52.2810539 35,52.5431749 35,52.6742354 L35,58.5719582 C35.1170886,58.8340792 35.4683544,59.0962002 35.7025316,58.9651397 Z" id="Path" stroke="#231F20" stroke-width="1.149" fill="#FFFFFF"></path>
                </g>
                <rect id="sideRect" stroke="#000000" fill="#E6E7E8" fill-rule="nonzero" x="0.5" y="0.5" width="25" height="93"></rect>
                <text id="txtSklady" transform="translate(12.500000, 47.000000) rotate(-90.000000) translate(-12.500000, -47.000000) " font-family="HelveticaNeue-Bold, Helvetica Neue" font-size="7" font-weight="bold" line-spacing="8" fill="#000000">
                    <tspan x="-25" y="50">  </tspan>
                </text>
            </g>
            <g id="cardProjects" transform="translate(0.000000, 186.000000)">
                <rect id="mainRect" stroke="#242424" fill="#F4F4F4" fill-rule="nonzero" x="25.5" y="0.5" width="147" height="93"></rect>
                <g id="picProject" transform="translate(56.000000, 13.000000)" stroke="#231F20">
                    <path d="M24.5,14.8 L24.5,0.7 L84.8,0.7 L84.8,61.1 L24.5,61.1 M28.3,25.3 L28.3,61.1 L0.8,61.1 L0.8,15.2 L25.4,15.2" id="Path" fill="#F4A62A" fill-rule="nonzero"></path>
                    <path d="M38.9,24.8 L51.9,24.8 L51.9,61.1 M45.5,13.4 L45.5,1.5 M1.2,24.4 L18.2,24.4 M1.4,36.6 L18,36.6 L18,33.4 M24.8,3.5 L35.2,3.5 C35.2,3.5 34.5,13.7 24.4,12.1 M45.3,14.7 L55.7,14.7 C55.7,14.7 55,24.9 44.9,23.3 M68.1,60.7 L68.1,50.3 C68.1,50.3 78.3,51.1 76.7,61.1 M38.6,24.3 L39,34.7 C39,34.7 28.7,34.3 30,24.2 M26.5,33 L26.5,41.4 C26.5,41.4 18.2,40.8 19.6,32.7 M18.3,23.1 L10.3,23.1 C10.3,23.1 10.8,15.3 18.5,16.5" id="Path"></path>
                    <path d="M22.1,63.5 L7.8,63.5 C7.7,63.5 7.6,63.4 7.6,63.3 L7.6,58.9 C7.6,58.8 7.7,58.7 7.8,58.7 L22.1,58.7 C22.2,58.7 22.3,58.8 22.3,58.9 L22.3,63.3 C22.3,63.4 22.2,63.5 22.1,63.5 Z M47.9,63.5 L33.6,63.5 C33.5,63.5 33.4,63.4 33.4,63.3 L33.4,58.9 C33.4,58.8 33.5,58.7 33.6,58.7 L47.9,58.7 C48,58.7 48.1,58.8 48.1,58.9 L48.1,63.3 C48.1,63.4 48,63.5 47.9,63.5 Z M87,30 L87,43.9 C87,44.1 86.8,44.3 86.6,44.3 L82.6,44.3 C82.4,44.3 82.2,44.1 82.2,43.9 L82.2,30 C82.2,29.8 82.4,29.6 82.6,29.6 L86.6,29.6 C86.9,29.7 87,29.8 87,30 Z M87,10.3 L87,24.2 C87,24.4 86.8,24.6 86.6,24.6 L82.6,24.6 C82.4,24.6 82.2,24.4 82.2,24.2 L82.2,10.3 C82.2,10.1 82.4,9.9 82.6,9.9 L86.6,9.9 C86.9,9.9 87,10.1 87,10.3 Z M83.3,68.2 L57.2,68.2 C56.9,68.2 56.7,68 56.7,67.7 L56.7,62.2 C56.7,61.9 56.9,61.7 57.2,61.7 L83.3,61.7 C83.6,61.7 83.8,61.9 83.8,62.2 L83.8,67.7 C83.8,67.9 83.6,68.2 83.3,68.2 Z M18.2,25.6 L10.2,25.6 C10.2,25.6 10.7,33.4 18.4,32.2 L18.2,25.6 Z" id="Shape"></path>
                </g>
                <rect id="sideRect" stroke="#000000" fill="#E6E7E8" fill-rule="nonzero" x="0.5" y="0.5" width="25" height="93"></rect>
                <text id="txtProjects" transform="translate(13.000000, 47.000000) rotate(-90.000000) translate(-13.000000, -47.000000) " font-family="HelveticaNeue-Bold, Helvetica Neue" font-size="7" font-weight="bold" line-spacing="8" fill="#000000">
                    <tspan x="-22" y="50"></tspan>
                </text>
            </g>
            <g id="cardObjects" transform="translate(0.000000, 279.000000)">
                <rect id="mainRect" stroke="#242424" fill="#F4F4F4" fill-rule="nonzero" x="25.5" y="0.5" width="147" height="93"></rect>
                <g id="picObjects" transform="translate(63.000000, 10.000000)">
                    <path d="M57.7338129,68.1508314 L57.7338129,71.9655582 L51.4748201,75 L51.4748201,71.0985748 L51.3669065,70.9251781 L48.8848921,66.3301663 L56.1151079,65.9833729 L57.7338129,68.1508314 Z M56.0071942,2.52019002 L56.0071942,6.33491686 L49.1007194,15.6983373 C49.1007194,15.7850356 48.8848921,15.6983373 48.8848921,15.6983373 L48.8848921,12.1437055 L48.1294964,10.5831354 L48.1294964,10.4964371 L50.0719424,8.41567696 L50.3956835,7.28859857 L52.2302158,4.25415677 L54.4964029,2 L54.6043165,2 L56.0071942,2.52019002 Z M60,54.192399 L60,58.0938242 L55.8992806,60.1745843 L50.6115108,53.412114 L38.2014388,59.307601 L34.8561151,54.7992874 L34.8561151,50.9845606 L51.4748201,43.0950119 L54.1726619,46.8230404 L60,54.192399 Z M2.15827338,21.2470309 L0,25.9287411 L0,29.8301663 L5.61151079,31.6508314 L5.61151079,36.2458432 L0,37.5463183 L0,41.4477435 L2.15827338,46.8230404 L12.0863309,44.6555819 L12.0863309,24.4548694 L2.15827338,21.2470309 Z M38.3093525,10.4097387 L35.7194245,13.9643705 L35.7194245,17.8657957 L51.0431655,25.0617577 L53.6330935,21.5071259 L53.6330935,17.6057007 L38.3093525,10.4097387 Z M51.5827338,44.915677 L33.3453237,53.4988124 L15,45.0023753 L14.8920863,28.0961995 L33.1294964,19.5130641 L51.4748201,28.0095012 L51.5827338,39.9738717 L51.5827338,44.915677 Z M51.5827338,44.915677 L33.3453237,53.4988124 L33.3453237,47.4299287 L36.6906475,44.8289786 L49.7482014,40.0605701 L51.5827338,39.9738717 L51.5827338,44.915677 Z" id="Path" stroke="#000000" stroke-width="0.735" fill="#A7A9AC" fill-rule="nonzero"></path>
                    <polygon id="Path" stroke="#231F20" stroke-width="0.5" fill="#F4A62A" points="33.1058824 49 15.1058824 40.5867347 15 23.5867347 32.8941176 15 50.8941176 23.5 51 40.4132653"></polygon>
                    <polygon id="Path" stroke="#000000" stroke-width="0.75" fill="#E6E7E8" points="33 43 33 22 43.8971963 27.2073171 44 37.7073171"></polygon>
                    <path d="M50.254902,48.0358566 L50.254902,53.1752988 L37.8529412,59 L37.8529412,55.1454183 L39.254902,52.4043825 L44.9705882,50.6912351 L50.254902,48.0358566 Z M44.5392157,31.0756972 L33,25.8505976 L33,21.9960159 L44.5392157,27.2211155 L44.5392157,31.0756972 Z M59.6372549,16 L59.6372549,29.7908367 L66,29.7908367 L66,16 L59.6372549,16 Z" id="Path" stroke="#000000" stroke-width="0.735" fill="#A7A9AC" fill-rule="nonzero"></path>
                    <polygon id="Rectangle" stroke="#231F20" stroke-width="0.5" fill="#F4A62A" points="59 16 65 16 65 26 59 26"></polygon>
                    <path d="M55.2773723,2.59036145 L55.2773723,6.47590361 L48.3978102,16.060241 L43,13.4698795 L43,9.58433735 L49.879562,0 L53.9014599,1.89959839 L55.2773723,2.59036145 Z M71.8941606,28.9257028 L71.8941606,28.8393574 L53.1605839,28.8393574 L53.1605839,38.7690763 L66.2846715,38.7690763 L66.2846715,43 L72,43 L72,28.9257028 L71.8941606,28.9257028 Z" id="Path" stroke="#000000" stroke-width="0.735" fill="#A7A9AC" fill-rule="nonzero"></path>
                    <polygon id="Path" stroke="#231F20" stroke-width="0.5" fill="#F4A62A" points="71.8932584 29.0840336 71.8932584 29 53 29 53 34.8823529 66.2359551 34.8823529 66.2359551 39 72 39 72 29.0840336"></polygon>
                    <polygon id="Rectangle" stroke="#231F20" stroke-width="0.5" fill="#F4A62A" points="49.7445105 0 55 2.53952499 48.2554895 12 43 9.46047501"></polygon>
                    <polygon id="Path" stroke="#000000" stroke-width="0.735" fill="#A7A9AC" points="57 67.2387387 57 71.0045045 50.9583333 74 42 61.8468468 42 57.9954955 48.0416667 55 55.4375 65.0990991"></polygon>
                    <polygon id="Rectangle" stroke="#231F20" stroke-width="0.5" fill="#F4A62A" points="37.6002518 10 53 17.3274365 50.3997482 21 35 13.6725635"></polygon>
                    <polygon id="Path" stroke="#231F20" stroke-width="0.5" fill="#F4A62A" points="59 53.9473684 53.2060086 46.6776316 50.5236052 43 34 50.7828947 37.3261803 55.1447368 49.6652361 49.3289474 54.9227468 56"></polygon>
                    <path d="M29.047619,11.7328881 L28.9393939,15.639399 L20.0649351,19.7195326 L15.0865801,21.9766277 L12.4891775,18.2437396 L10,14.5976628 L10,10.6911519 L11.0822511,10.1702838 L14.8701299,8.43405676 L17.4675325,12.0801336 L26.4502165,8 L29.047619,11.7328881 Z M55.8874459,56.0934891 L55.8874459,60 L60,57.9165275 L60,54.0100167 L55.8874459,56.0934891 Z" id="Path" stroke="#000000" stroke-width="0.735" fill="#A7A9AC" fill-rule="nonzero"></path>
                    <path d="M15,18.164486 L15,21.9327103 C15,22.0224299 14.893617,22.0224299 14.893617,21.9327103 L12.4468085,18.3439252 L10,14.5757009 L10,10.5383178 L11.0638298,10 C12.4468085,10.717757 13.6170213,11.435514 13.6170213,11.435514 L15,18.164486 Z" id="Path" stroke="#000000" stroke-width="0.673"></path>
                    <polygon id="Path" stroke="#231F20" stroke-width="0.5" fill="#F4A62A" points="2.14285714 21 12 24.256 12 40.8 2.14285714 43 0 37.544 5.57142857 36.224 5.57142857 27.6 0 25.752"></polygon>
                    <polygon id="Path" stroke="#000000" stroke-width="0.673" points="2 42.2427184 2 46 1.9 46 0 40.7572816 0 37 0.1 37"></polygon>
                    <polygon id="Path" stroke="#231F20" stroke-width="0.5" fill="#F4A62A" points="26.4090909 8 17.4488636 12.0517241 14.8579545 8.43103448 10 10.6724138 12.5909091 14.2931034 15.1818182 18 20.1477273 15.7586207 29 11.7068966"></polygon>
                    <polygon id="Path" stroke="#000000" stroke-width="0.735" fill="#A7A9AC" points="29 50.4488889 28.7841727 54.2488889 19.2877698 67 14 64.5511111 14.2158273 60.7511111 23.7122302 48"></polygon>
                    <polygon id="Rectangle" stroke="#231F20" stroke-width="0.5" fill="#F4A62A" points="23.6361588 47 29 49.5610679 19.3638412 63 14 60.4389321"></polygon>
                    <polygon id="Path" stroke="#000000" stroke-width="0.673" points="19 63.3513514 18.8039216 67 14 64.6486486 14.1960784 61"></polygon>
                    <polygon id="Path" stroke="#000000" stroke-width="0.735" fill="#A7A9AC" points="20 45.4488889 19.7857143 49.2488889 10.25 62 5 59.5511111 5.21428571 55.7511111 14.75 43"></polygon>
                    <polygon id="Rectangle" stroke="#231F20" stroke-width="0.5" fill="#F4A62A" points="15.6365487 42 21 44.5610679 11.3634513 58 6 55.4389321"></polygon>
                    <polygon id="Path" stroke="#000000" stroke-width="0.735" fill="#A7A9AC" points="11 58.3513514 10.8039216 62 6 59.6486486 6.19607843 56"></polygon>
                    <polygon id="Path" stroke="#231F20" stroke-width="0.5" fill="#F4A62A" points="42 58.9283815 48.0268701 56 57 68.0716185 50.9731299 71"></polygon>
                </g>
                <rect id="sideRect" stroke="#000000" fill="#E6E7E8" fill-rule="nonzero" x="0.5" y="0.5" width="25" height="93"></rect>
                <text id="txtProjects" transform="translate(13.000000, 47.000000) rotate(-90.000000) translate(-13.000000, -47.000000) " font-family="HelveticaNeue-Bold, Helvetica Neue" font-size="7" font-weight="bold" line-spacing="8" fill="#000000">
                    <tspan x="-19" y="46"></tspan>
                    <tspan x="-19" y="54"></tspan>
                </text>
            </g>
            <g id="cardEngNWs" transform="translate(0.000000, 372.000000)">
                <rect id="mainRect" stroke="#242424" fill="#F4F4F4" fill-rule="nonzero" x="25.5" y="0.5" width="147" height="93"></rect>
                <g id="picEngNWs" transform="translate(56.000000, 12.000000)">
                    <path d="M3.1,11.5 C1.9,11.5 0.9,12.5 0.9,13.7 L0.9,28.9 C0.9,29.3 1.2,29.6 1.6,29.6 L24.3,29.6 C24.7,29.6 25,29.3 25,28.9 L25,13 C25,12.1 24.3,11.4 23.4,11.4 L3.1,11.4 L3.1,11.5 Z M32.2,11.5 C30.9,11.5 29.9,12.5 29.9,13.8 L29.9,28.8 C29.9,29.2 30.2,29.5 30.6,29.5 L53.3,29.5 C53.7,29.5 54,29.2 54,28.8 L54,13.5 C54,12.4 53.1,11.4 51.9,11.4 L32.2,11.4 L32.2,11.5 Z" id="Path" stroke="#000000" stroke-width="0.735" fill="#A7A9AC" fill-rule="nonzero"></path>
                    <path d="M24.9,24.4 L0.9,24.4 L0.9,13.7 C0.9,12.5 1.9,11.5 3.1,11.5 L23.4,11.5 C24.3,11.5 25,12.2 25,13.1 L25,24.4 L24.9,24.4 Z M53,24.4 L30.8,24.4 C30.3,24.4 29.9,24 29.9,23.5 L29.9,13.8 C29.9,12.5 30.9,11.5 32.2,11.5 L51.8,11.5 C52.9,11.5 53.9,12.4 53.9,13.6 L53.9,23.5 C53.9,24 53.5,24.4 53,24.4 Z" id="Path" stroke="#231F20" stroke-width="0.5" fill="#F4A62A" fill-rule="nonzero"></path>
                    <path d="M12.9,0.1 C7.8,0.1 3.6,2.2 3.6,4.9 L3.6,17.3 C3.6,19.9 7.8,22.1 12.9,22.1 C18,22.1 22.2,20 22.2,17.3 L22.2,4.9 C22.2,2.2 18.1,0.1 12.9,0.1 Z" id="Path" stroke="#000000" stroke-width="0.75" fill="#BCBEC0"></path>
                    <ellipse id="Oval" stroke="#231F20" stroke-width="0.5" fill="#F4A62A" cx="12.9" cy="4.9" rx="9.3" ry="4.8"></ellipse>
                    <path d="M41.9,0.1 C36.8,0.1 32.6,2.2 32.6,4.9 L32.6,17.3 C32.6,19.9 36.8,22.1 41.9,22.1 C47,22.1 51.2,20 51.2,17.3 L51.2,4.9 C51.2,2.2 47,0.1 41.9,0.1 Z" id="Path" stroke="#000000" stroke-width="0.75" fill="#BCBEC0"></path>
                    <ellipse id="Oval" stroke="#231F20" stroke-width="0.5" fill="#F4A62A" cx="41.9" cy="4.9" rx="9.3" ry="4.8"></ellipse>
                    <path d="M59.3,55.6 L59.3,16.3 L77.9,16.3 L77.9,55.6 C77.9,56.8 77,57.7 75.8,57.7 L61.4,57.7 C60.2,57.7 59.3,56.8 59.3,55.6 Z" id="Path" stroke="#000000" stroke-width="0.735" fill="#A7A9AC"></path>
                    <path d="M59.3,50.7 L59.3,13 C59.3,12 60.1,11.2 61.1,11.2 L76,11.2 C77,11.2 77.8,12 77.8,13 L77.8,50.7 C77.8,51.7 77,52.5 76,52.5 L61.1,52.5 C60.1,52.6 59.3,51.7 59.3,50.7 Z" id="Path" stroke="#231F20" stroke-width="0.5" fill="#F4A62A"></path>
                    <circle id="Oval" stroke="#231F20" stroke-width="0.566" cx="64.2" cy="17" r="3"></circle>
                    <circle id="Oval" stroke="#231F20" stroke-width="0.566" cx="64.2" cy="27.6" r="3"></circle>
                    <circle id="Oval" stroke="#231F20" stroke-width="0.566" cx="64.2" cy="47.5" r="3"></circle>
                    <circle id="Oval" stroke="#231F20" stroke-width="0.566" cx="64.2" cy="37.9" r="3"></circle>
                    <path d="M35.3,27.4 L35.3,33.8 C35.3,34.6 34.6,35.3 33.8,35.3 L22.7,35.3 C21.9,35.3 21.2,34.6 21.2,33.8 L21.2,27.6 M39.9,27.4 L39.9,38 C39.9,38.8 39.2,39.5 38.4,39.5 L18.4,39.5 C17.6,39.5 16.9,38.8 16.9,38 L16.9,27.7 M63.4,55.6 L63.4,59.6 C63.4,60.4 62.7,61.1 61.9,61.1 L53.3,61.1 C52.5,61.1 51.8,60.4 51.8,59.6 L51.8,27.3 M68.5,55.7 L68.5,64.3 C68.5,65.1 67.8,65.8 67,65.8 L47,65.8 C46.2,65.8 45.5,65.1 45.5,64.3 L45.5,27.4 M74.4,55.6 L74.4,69.1 C74.4,69.9 73.7,70.6 72.9,70.6 L37.7,70.4 C36.9,70.4 36.2,69.7 36.2,68.9 L36.2,46.9 C36.2,46.1 35.5,45.4 34.7,45.4 L11.5,45.4 C10.7,45.4 10,44.7 10,43.9 L9.8,27.7" id="Shape" stroke="#231F20" stroke-width="2.841" stroke-linecap="round"></path>
                </g>
                <rect id="sideRect" stroke="#000000" fill="#E6E7E8" fill-rule="nonzero" x="0.5" y="0.5" width="25" height="93"></rect>
                <text id="txtEngNWs" transform="translate(12.500000, 46.000000) rotate(-90.000000) translate(-12.500000, -46.000000) " font-family="HelveticaNeue-Bold, Helvetica Neue" font-size="7" font-weight="bold" line-spacing="8" fill="#000000">
                    <tspan x="-25" y="49"> </tspan>
                </text>
            </g>
            <g id="cardLowVoltage" transform="translate(0.000000, 465.000000)">
                <rect id="mainRect" stroke="#242424" fill="#F4F4F4" fill-rule="nonzero" x="25.5" y="0.5" width="147" height="93"></rect>
                <g id="picLowVoltage" transform="translate(40.000000, 13.000000)">
                    <path d="M81.4225352,25 L28.5774648,25 C27.7170294,25 27,24.1712707 27,23.1767956 L27,11.8232044 C27,10.8287293 27.7170294,10 28.5774648,10 L81.4225352,10 C82.2829706,10 83,10.8287293 83,11.8232044 L83,23.1767956 C83,24.1712707 82.2829706,25 81.4225352,25 Z" id="Path" stroke="#000000" stroke-width="0.735" fill="#A7A9AC"></path>
                    <path d="M81.4225352,20 L28.5774648,20 C27.7170294,20 27,19.1712707 27,18.1767956 L27,6.82320442 C27,5.82872928 27.7170294,5 28.5774648,5 L81.4225352,5 C82.2829706,5 83,5.82872928 83,6.82320442 L83,18.1767956 C83,19.1712707 82.2829706,20 81.4225352,20 Z" id="Path" stroke="#231F20" stroke-width="0.744" fill="#FFFFFF"></path>
                    <path d="M40.3813559,8 L30.4237288,8 C30.2118644,8 30,8.23762376 30,8.47524752 L30,13.3069307 C30,13.5445545 30.2118644,13.7821782 30.4237288,13.7821782 L32.6836158,13.7821782 C32.8954802,13.7821782 33.0367232,13.9405941 33.0367232,14.1782178 L33.0367232,15.4455446 C33.0367232,15.7623762 33.2485876,16 33.5310734,16 L37.2740113,16 C37.5564972,16 37.7683616,15.7623762 37.7683616,15.4455446 L37.7683616,14.1782178 C37.7683616,13.9405941 37.9096045,13.7821782 38.1214689,13.7821782 L40.4519774,13.7821782 C40.6638418,13.7821782 40.8050847,13.6237624 40.8050847,13.3861386 L40.8050847,8.31683168 C40.6638418,8.15841584 40.5225989,8 40.3813559,8 Z M53.6581921,8 L43.7711864,8 C43.559322,8 43.3474576,8.23762376 43.3474576,8.47524752 L43.3474576,13.3069307 C43.3474576,13.5445545 43.559322,13.7821782 43.7711864,13.7821782 L46.0310734,13.7821782 C46.2429379,13.7821782 46.3841808,13.9405941 46.3841808,14.1782178 L46.3841808,15.4455446 C46.3841808,15.7623762 46.5960452,16 46.8785311,16 L50.5508475,16 C50.8333333,16 51.0451977,15.7623762 51.0451977,15.4455446 L51.0451977,14.1782178 C51.0451977,13.9405941 51.1864407,13.7821782 51.3983051,13.7821782 L53.7288136,13.7821782 C53.940678,13.7821782 54.0819209,13.6237624 54.0819209,13.3861386 L54.0819209,8.31683168 C54.0112994,8.15841584 53.8700565,8 53.6581921,8 Z M66.6525424,8 L56.6949153,8 C56.4830508,8 56.2711864,8.23762376 56.2711864,8.47524752 L56.2711864,13.3069307 C56.2711864,13.5445545 56.4830508,13.7821782 56.6949153,13.7821782 L58.9548023,13.7821782 C59.1666667,13.7821782 59.3079096,13.9405941 59.3079096,14.1782178 L59.3079096,15.4455446 C59.3079096,15.7623762 59.519774,16 59.8022599,16 L63.5451977,16 C63.8276836,16 64.039548,15.7623762 64.039548,15.4455446 L64.039548,14.1782178 C64.039548,13.9405941 64.180791,13.7821782 64.3926554,13.7821782 L66.7231638,13.7821782 C66.9350282,13.7821782 67.0762712,13.6237624 67.0762712,13.3861386 L67.0762712,8.31683168 C67.0056497,8.15841584 66.8644068,8 66.6525424,8 Z M79.5762712,8 L69.6186441,8 C69.4067797,8 69.1949153,8.23762376 69.1949153,8.47524752 L69.1949153,13.3069307 C69.1949153,13.5445545 69.4067797,13.7821782 69.6186441,13.7821782 L71.8785311,13.7821782 C72.0903955,13.7821782 72.2316384,13.9405941 72.2316384,14.1782178 L72.2316384,15.4455446 C72.2316384,15.7623762 72.4435028,16 72.7259887,16 L76.4689266,16 C76.7514124,16 76.9632768,15.7623762 76.9632768,15.4455446 L76.9632768,14.1782178 C76.9632768,13.9405941 77.1045198,13.7821782 77.3163842,13.7821782 L79.6468927,13.7821782 C79.8587571,13.7821782 80,13.6237624 80,13.3861386 L80,8.31683168 C79.8587571,8.15841584 79.7175141,8 79.5762712,8 Z" id="Path" stroke="#231F20" stroke-width="0.5" fill="#F4A62A" fill-rule="nonzero"></path>
                    <path d="M75.8354098,10.878628 L75.8354098,1.55408971 C75.8354098,0.736147757 76.4072131,0 77.1934426,0 L85.5560656,0 C86.2708197,0 86.9140984,0.654353562 86.9140984,1.55408971 L86.9140984,14.9683377 C86.9140984,15.7862797 87.4859016,16.5224274 88.2721311,16.5224274 L109,16.5224274 M62.3980328,10.878628 L62.3980328,1.55408971 C62.3980328,0.736147757 62.9698361,0 63.7560656,0 L71.4039344,0 C72.1186885,0 72.7619672,0.654353562 72.7619672,1.55408971 L72.7619672,29.0369393 C72.7619672,29.8548813 73.3337705,30.591029 74.12,30.591029 L109,30.591029 M35.8091803,10.878628 L35.8091803,1.55408971 C35.8091803,0.736147757 35.237377,0 34.4511475,0 L24.1586885,0 C23.4439344,0 22.8006557,0.654353562 22.8006557,1.55408971 L22.8006557,14.9683377 C22.8006557,15.7862797 22.2288525,16.5224274 21.442623,16.5224274 L1.42108547e-14,16.5224274 M49.532459,10.878628 L49.532459,1.55408971 C49.532459,0.736147757 48.9606557,0 48.1744262,0 L40.5980328,0 C39.8832787,0 39.24,0.654353562 39.24,1.55408971 L39.24,29.4459103 C39.24,30.2638522 38.6681967,31 37.8819672,31 L0,31" id="Path" stroke="#231F20" stroke-width="1.859" stroke-linecap="round"></path>
                    <path d="M81.4225352,62 L28.5774648,62 C27.7170294,62 27,61.1712707 27,60.1767956 L27,48.8232044 C27,47.8287293 27.7170294,47 28.5774648,47 L81.4225352,47 C82.2829706,47 83,47.8287293 83,48.8232044 L83,60.2596685 C83,61.2541436 82.2829706,62 81.4225352,62 Z" id="Path" stroke="#000000" stroke-width="0.735" fill="#A7A9AC"></path>
                    <path d="M81.4225352,56 L28.5774648,56 C27.7170294,56 27,55.1712707 27,54.1767956 L27,42.8232044 C27,41.8287293 27.7170294,41 28.5774648,41 L81.4225352,41 C82.2829706,41 83,41.8287293 83,42.8232044 L83,54.1767956 C83,55.1712707 82.2829706,56 81.4225352,56 Z" id="Path" stroke="#231F20" stroke-width="0.744" fill="#FFFFFF"></path>
                    <path d="M40.3813559,44 L30.4237288,44 C30.2118644,44 30,44.2673267 30,44.5346535 L30,49.970297 C30,50.2376238 30.2118644,50.5049505 30.4237288,50.5049505 L32.6836158,50.5049505 C32.8954802,50.5049505 33.0367232,50.6831683 33.0367232,50.950495 L33.0367232,52.3762376 C33.0367232,52.7326733 33.2485876,53 33.5310734,53 L37.2740113,53 C37.5564972,53 37.7683616,52.7326733 37.7683616,52.3762376 L37.7683616,50.950495 C37.7683616,50.6831683 37.9096045,50.5049505 38.1214689,50.5049505 L40.4519774,50.5049505 C40.6638418,50.5049505 40.8050847,50.3267327 40.8050847,50.0594059 L40.8050847,44.3564356 C40.6638418,44.1782178 40.5225989,44 40.3813559,44 Z M53.6581921,44 L43.7711864,44 C43.559322,44 43.3474576,44.2673267 43.3474576,44.5346535 L43.3474576,49.970297 C43.3474576,50.2376238 43.559322,50.5049505 43.7711864,50.5049505 L46.0310734,50.5049505 C46.2429379,50.5049505 46.3841808,50.6831683 46.3841808,50.950495 L46.3841808,52.3762376 C46.3841808,52.7326733 46.5960452,53 46.8785311,53 L50.5508475,53 C50.8333333,53 51.0451977,52.7326733 51.0451977,52.3762376 L51.0451977,50.950495 C51.0451977,50.6831683 51.1864407,50.5049505 51.3983051,50.5049505 L53.7288136,50.5049505 C53.940678,50.5049505 54.0819209,50.3267327 54.0819209,50.0594059 L54.0819209,44.3564356 C54.0112994,44.1782178 53.8700565,44 53.6581921,44 Z M66.6525424,44 L56.6949153,44 C56.4830508,44 56.2711864,44.2673267 56.2711864,44.5346535 L56.2711864,49.970297 C56.2711864,50.2376238 56.4830508,50.5049505 56.6949153,50.5049505 L58.9548023,50.5049505 C59.1666667,50.5049505 59.3079096,50.6831683 59.3079096,50.950495 L59.3079096,52.3762376 C59.3079096,52.7326733 59.519774,53 59.8022599,53 L63.5451977,53 C63.8276836,53 64.039548,52.7326733 64.039548,52.3762376 L64.039548,50.950495 C64.039548,50.6831683 64.180791,50.5049505 64.3926554,50.5049505 L66.7231638,50.5049505 C66.9350282,50.5049505 67.0762712,50.3267327 67.0762712,50.0594059 L67.0762712,44.3564356 C67.0056497,44.1782178 66.8644068,44 66.6525424,44 Z M79.5762712,44 L69.6186441,44 C69.4067797,44 69.1949153,44.2673267 69.1949153,44.5346535 L69.1949153,49.970297 C69.1949153,50.2376238 69.4067797,50.5049505 69.6186441,50.5049505 L71.8785311,50.5049505 C72.0903955,50.5049505 72.2316384,50.6831683 72.2316384,50.950495 L72.2316384,52.3762376 C72.2316384,52.7326733 72.4435028,53 72.7259887,53 L76.4689266,53 C76.7514124,53 76.9632768,52.7326733 76.9632768,52.3762376 L76.9632768,50.950495 C76.9632768,50.6831683 77.1045198,50.5049505 77.3163842,50.5049505 L79.6468927,50.5049505 C79.8587571,50.5049505 80,50.3267327 80,50.0594059 L80,44.3564356 C79.8587571,44.1782178 79.7175141,44 79.5762712,44 Z" id="Path" stroke="#231F20" stroke-width="0.5" fill="#F4A62A" fill-rule="nonzero"></path>
                    <path d="M75.8354098,47.878628 L75.8354098,38.5540897 C75.8354098,37.7361478 76.4072131,37 77.1934426,37 L85.5560656,37 C86.2708197,37 86.9140984,37.6543536 86.9140984,38.5540897 L86.9140984,51.9683377 C86.9140984,52.7862797 87.4859016,53.5224274 88.2721311,53.5224274 L109,53.5224274 M62.3980328,47.878628 L62.3980328,38.5540897 C62.3980328,37.7361478 62.9698361,37 63.7560656,37 L71.4039344,37 C72.1186885,37 72.7619672,37.6543536 72.7619672,38.5540897 L72.7619672,66.0369393 C72.7619672,66.8548813 73.3337705,67.591029 74.12,67.591029 L109,67.591029 M35.8091803,47.878628 L35.8091803,38.5540897 C35.8091803,37.7361478 35.237377,37 34.4511475,37 L24.1586885,37 C23.4439344,37 22.8006557,37.6543536 22.8006557,38.5540897 L22.8006557,51.9683377 C22.8006557,52.7862797 22.2288525,53.5224274 21.442623,53.5224274 L1.42108547e-14,53.5224274 M49.532459,47.878628 L49.532459,38.5540897 C49.532459,37.7361478 48.9606557,37 48.1744262,37 L40.5980328,37 C39.8832787,37 39.24,37.6543536 39.24,38.5540897 L39.24,66.4459103 C39.24,67.2638522 38.6681967,68 37.8819672,68 L0,68" id="Shape" stroke="#231F20" stroke-width="1.859" stroke-linecap="round"></path>
                </g>
                <rect id="sideRect" stroke="#000000" fill="#E6E7E8" fill-rule="nonzero" x="0.5" y="0.5" width="25" height="93"></rect>
                <text id="txtLowVoltage" transform="translate(12.500000, 47.000000) rotate(-90.000000) translate(-12.500000, -47.000000) " font-family="HelveticaNeue-Bold, Helvetica Neue" font-size="7" font-weight="bold" line-spacing="8" fill="#000000">
                    <tspan x="-16" y="46"></tspan>
                    <tspan x="-16" y="54"></tspan>
                </text>
            </g>
            <g id="cardCommonStroy" transform="translate(0.000000, 558.000000)">
                <rect id="mainRect" stroke="#242424" fill="#F4F4F4" fill-rule="nonzero" x="25.5" y="0.5" width="147" height="93"></rect>
                <g id="picCommonStroy" transform="translate(50.000000, 24.000000)">
                    <path d="M20.5556781,44 L4.94377067,44 L0,38.3322034 L0,28.9355932 L4.94377067,23.2677966 L20.5556781,23.2677966 C21.2712238,23.2677966 21.7916207,23.9389831 21.7916207,24.6847458 L21.7916207,42.5084746 C21.7916207,43.3288136 21.2712238,44 20.5556781,44 Z M56.5931643,8.65084746 L36.4277839,8.65084746 C35.061742,8.65084746 34.0209482,7.08474576 34.0209482,5.22033898 L34.0209482,3.43050847 C34.0209482,1.49152542 35.1267916,0 36.4277839,0 L56.5931643,0 C57.9592062,0 59,1.56610169 59,3.43050847 L59,5.22033898 C59,7.08474576 57.8941566,8.65084746 56.5931643,8.65084746 Z" id="Path" stroke="#231F20" fill="#F4A62A" fill-rule="nonzero"></path>
                    <path d="M79.8056335,43 L74.189334,43 C73.5285929,43 73,42.4122449 73,41.677551 L73,26.322449 C73,25.5877551 73.5285929,25 74.189334,25 L79.8056335,25 C80.4663746,25 80.9949675,25.5877551 80.9949675,26.322449 L80.9949675,41.677551 C81.0610416,42.4122449 80.4663746,43 79.8056335,43 Z" id="Path" stroke="#231F20" fill="#BCBEC0"></path>
                    <path d="M77.0249172,38 C76.4315441,38 76,37.4375 76,36.734375 L76,30.265625 C76,29.5625 76.4315441,29 76.9709742,29 L77.0249172,29 C77.5643473,29 77.9958914,29.5625 77.9958914,30.265625 L77.9958914,36.734375 C78.0498345,37.4375 77.5643473,38 77.0249172,38 Z" id="Path" stroke="#000000" fill="#E6E7E8"></path>
                    <path d="M47.6666667,47 L45.3333333,47 C44.0666667,47 43,45.8148148 43,44.4074074 L43,23.5925926 C43,22.1851852 44.0666667,21 45.3333333,21 L47.6666667,21 C48.9333333,21 50,22.1851852 50,23.5925926 L50,44.4074074 C50,45.8888889 49,47 47.6666667,47 Z" id="Path" stroke="#231F20" fill="#BCBEC0"></path>
                    <path d="M20,34 L27.6183395,34 C27.8810409,34 28.1437423,33.85 28.3407683,33.625 L35.5650558,25.375 C35.7620818,25.15 36.0247831,25 36.2874845,25 L55.070632,25 C55.3333333,25 55.5960347,25.15 55.7930607,25.375 L62.6889715,33.25 C62.8859975,33.475 63.1486989,33.625 63.4114002,33.625 L73,33.625" id="Path" stroke="#231F20" stroke-width="3.107" stroke-linecap="round"></path>
                    <path d="M59.1203704,5 L59.7685185,5 C60.4166667,5 61,5.60952381 61,6.44761905 L61,9.11428571 C61,9.8 60.6111111,10.3333333 60.0277778,10.4857143 L47.9722222,13.5333333 C47.3888889,13.6857143 47,14.2190476 47,14.9047619 L47,21" id="Path" stroke="#231F20" stroke-width="1.776" stroke-linecap="round"></path>
                </g>
                <rect id="sideRect" stroke="#000000" fill="#E6E7E8" fill-rule="nonzero" x="0.5" y="0.5" width="25" height="93"></rect>
                <text id="txtCommonStroy" transform="translate(12.500000, 47.000000) rotate(-90.000000) translate(-12.500000, -47.000000) " font-family="HelveticaNeue-Bold, Helvetica Neue" font-size="7" font-weight="bold" line-spacing="8" fill="#000000">
                    <tspan x="-29" y="46"></tspan>
                    <tspan x="-29" y="54"></tspan>
                </text>
            </g>
        </g>
    </g>
</svg>