<svg width="976" height="281" xmlns="http://www.w3.org/2000/svg" xmlns:xlink="http://www.w3.org/1999/xlink"><defs><path id="a" d="M0 0h976v281H0z"/><path id="c" d="M434.5 181l61.5-2v67l-62-1z"/><path id="e" d="M580.5 211.83H598V247h-17.5z"/><path id="g" d="M547 102.739V131l19-3v-28z"/><path id="i" d="M580 98v30l19-2V96z"/><path id="k" d="M684 92v29l6.5 2V94z"/><path id="m" d="M703.5 97v29l9.5 2v-28z"/><path id="o" d="M725.5 103v27l9.5 2v-26z"/><path id="q" d="M744.5 108v26l9.5 2v-25z"/><path id="s" d="M763.5 113v25l8.5 2v-24z"/><path id="u" d="M778.5 117v24l8.5 2v-23z"/><path id="w" d="M796 123v21l6.5 1v-20z"/><path id="y" d="M808.5 126v20l4.5 1v-19z"/><filter x="-3.2%" y="-3%" width="106.5%" height="106%" filterUnits="objectBoundingBox" id="d"><feGaussianBlur stdDeviation="1.5" in="SourceAlpha" result="shadowBlurInner1"/><feOffset dy="1" in="shadowBlurInner1" result="shadowOffsetInner1"/><feComposite in="shadowOffsetInner1" in2="SourceAlpha" operator="arithmetic" k2="-1" k3="1" result="shadowInnerInner1"/><feColorMatrix values="0 0 0 0 0 0 0 0 0 0 0 0 0 0 0 0 0 0 0.5 0" in="shadowInnerInner1"/></filter><filter x="-11.4%" y="-5.7%" width="122.9%" height="111.4%" filterUnits="objectBoundingBox" id="f"><feGaussianBlur stdDeviation="1.5" in="SourceAlpha" result="shadowBlurInner1"/><feOffset dy="1" in="shadowBlurInner1" result="shadowOffsetInner1"/><feComposite in="shadowOffsetInner1" in2="SourceAlpha" operator="arithmetic" k2="-1" k3="1" result="shadowInnerInner1"/><feColorMatrix values="0 0 0 0 0 0 0 0 0 0 0 0 0 0 0 0 0 0 0.5 0" in="shadowInnerInner1"/></filter><filter x="-10.5%" y="-6.5%" width="121.1%" height="112.9%" filterUnits="objectBoundingBox" id="h"><feGaussianBlur stdDeviation="1.5" in="SourceAlpha" result="shadowBlurInner1"/><feOffset dy="1" in="shadowBlurInner1" result="shadowOffsetInner1"/><feComposite in="shadowOffsetInner1" in2="SourceAlpha" operator="arithmetic" k2="-1" k3="1" result="shadowInnerInner1"/><feColorMatrix values="0 0 0 0 0 0 0 0 0 0 0 0 0 0 0 0 0 0 0.5 0" in="shadowInnerInner1"/></filter><filter x="-10.5%" y="-6.2%" width="121.1%" height="112.5%" filterUnits="objectBoundingBox" id="j"><feGaussianBlur stdDeviation="1.5" in="SourceAlpha" result="shadowBlurInner1"/><feOffset dy="1" in="shadowBlurInner1" result="shadowOffsetInner1"/><feComposite in="shadowOffsetInner1" in2="SourceAlpha" operator="arithmetic" k2="-1" k3="1" result="shadowInnerInner1"/><feColorMatrix values="0 0 0 0 0 0 0 0 0 0 0 0 0 0 0 0 0 0 0.5 0" in="shadowInnerInner1"/></filter><filter x="-30.8%" y="-6.5%" width="161.5%" height="112.9%" filterUnits="objectBoundingBox" id="l"><feGaussianBlur stdDeviation="1.5" in="SourceAlpha" result="shadowBlurInner1"/><feOffset dy="1" in="shadowBlurInner1" result="shadowOffsetInner1"/><feComposite in="shadowOffsetInner1" in2="SourceAlpha" operator="arithmetic" k2="-1" k3="1" result="shadowInnerInner1"/><feColorMatrix values="0 0 0 0 0 0 0 0 0 0 0 0 0 0 0 0 0 0 0.5 0" in="shadowInnerInner1"/></filter><filter x="-21.1%" y="-6.5%" width="142.1%" height="112.9%" filterUnits="objectBoundingBox" id="n"><feGaussianBlur stdDeviation="1.5" in="SourceAlpha" result="shadowBlurInner1"/><feOffset dy="1" in="shadowBlurInner1" result="shadowOffsetInner1"/><feComposite in="shadowOffsetInner1" in2="SourceAlpha" operator="arithmetic" k2="-1" k3="1" result="shadowInnerInner1"/><feColorMatrix values="0 0 0 0 0 0 0 0 0 0 0 0 0 0 0 0 0 0 0.5 0" in="shadowInnerInner1"/></filter><filter x="-21.1%" y="-6.9%" width="142.1%" height="113.8%" filterUnits="objectBoundingBox" id="p"><feGaussianBlur stdDeviation="1.5" in="SourceAlpha" result="shadowBlurInner1"/><feOffset dy="1" in="shadowBlurInner1" result="shadowOffsetInner1"/><feComposite in="shadowOffsetInner1" in2="SourceAlpha" operator="arithmetic" k2="-1" k3="1" result="shadowInnerInner1"/><feColorMatrix values="0 0 0 0 0 0 0 0 0 0 0 0 0 0 0 0 0 0 0.5 0" in="shadowInnerInner1"/></filter><filter x="-21.1%" y="-7.1%" width="142.1%" height="114.3%" filterUnits="objectBoundingBox" id="r"><feGaussianBlur stdDeviation="1.5" in="SourceAlpha" result="shadowBlurInner1"/><feOffset dy="1" in="shadowBlurInner1" result="shadowOffsetInner1"/><feComposite in="shadowOffsetInner1" in2="SourceAlpha" operator="arithmetic" k2="-1" k3="1" result="shadowInnerInner1"/><feColorMatrix values="0 0 0 0 0 0 0 0 0 0 0 0 0 0 0 0 0 0 0.5 0" in="shadowInnerInner1"/></filter><filter x="-23.5%" y="-7.4%" width="147.1%" height="114.8%" filterUnits="objectBoundingBox" id="t"><feGaussianBlur stdDeviation="1.5" in="SourceAlpha" result="shadowBlurInner1"/><feOffset dy="1" in="shadowBlurInner1" result="shadowOffsetInner1"/><feComposite in="shadowOffsetInner1" in2="SourceAlpha" operator="arithmetic" k2="-1" k3="1" result="shadowInnerInner1"/><feColorMatrix values="0 0 0 0 0 0 0 0 0 0 0 0 0 0 0 0 0 0 0.5 0" in="shadowInnerInner1"/></filter><filter x="-23.5%" y="-7.7%" width="147.1%" height="115.4%" filterUnits="objectBoundingBox" id="v"><feGaussianBlur stdDeviation="1.5" in="SourceAlpha" result="shadowBlurInner1"/><feOffset dy="1" in="shadowBlurInner1" result="shadowOffsetInner1"/><feComposite in="shadowOffsetInner1" in2="SourceAlpha" operator="arithmetic" k2="-1" k3="1" result="shadowInnerInner1"/><feColorMatrix values="0 0 0 0 0 0 0 0 0 0 0 0 0 0 0 0 0 0 0.5 0" in="shadowInnerInner1"/></filter><filter x="-30.8%" y="-9.1%" width="161.5%" height="118.2%" filterUnits="objectBoundingBox" id="x"><feGaussianBlur stdDeviation="1.5" in="SourceAlpha" result="shadowBlurInner1"/><feOffset dy="1" in="shadowBlurInner1" result="shadowOffsetInner1"/><feComposite in="shadowOffsetInner1" in2="SourceAlpha" operator="arithmetic" k2="-1" k3="1" result="shadowInnerInner1"/><feColorMatrix values="0 0 0 0 0 0 0 0 0 0 0 0 0 0 0 0 0 0 0.5 0" in="shadowInnerInner1"/></filter><filter x="-44.4%" y="-9.5%" width="188.9%" height="119%" filterUnits="objectBoundingBox" id="z"><feGaussianBlur stdDeviation="1.5" in="SourceAlpha" result="shadowBlurInner1"/><feOffset dy="1" in="shadowBlurInner1" result="shadowOffsetInner1"/><feComposite in="shadowOffsetInner1" in2="SourceAlpha" operator="arithmetic" k2="-1" k3="1" result="shadowInnerInner1"/><feColorMatrix values="0 0 0 0 0 0 0 0 0 0 0 0 0 0 0 0 0 0 0.5 0" in="shadowInnerInner1"/></filter></defs><g fill="none" fill-rule="evenodd"><mask id="b" fill="#fff"><use xlink:href="#a"/></mask><use fill="#FFF" fill-rule="nonzero" xlink:href="#a"/><path d="M181.148 234.206c-18.139.561-36.412.639-54.418 1.683-9.472.549-19.269 1.236-27.668 3.077-8.576 1.879-31.673 11.085-18.558 16.634 4.76 2.014 11.803 2.923 18.082 4.089 22.767 4.228 37.498 2.914 66.094 4.45 23.971 1.288 47.686 3.334 71.73 4.382 98.64 4.3 47.295.706 134.356 1.937 200.005 2.825-29.996 3.515 256.636 2.235 41.053-.183 57.032 5.815 113.592 4.307 34.879-.93 53.056-4.044 88.006-4.307 27.062-.204 82.664-4.735 96.215-18.403 13.55-13.668-27.52-18.835-35.473-19.473-10.272-.824-20.078-2.697-30.527-2.995-21.477-.612-43.061.42-64.59.283-68.092-.433-136.146-1.68-204.242-1.994-258.78-1.196 8.272 1.283-193.43 1.689-55.773.112-111.54-.56-167.312-.664-9.72-.019-19.451.036-29.149.294-2.554.068-4.992.454-7.488.682l-11.856 2.094z" stroke="#979797" stroke-width="2" fill="#E9E9E9" fill-rule="nonzero" stroke-dasharray="7,5" mask="url(#b)"/><path stroke="#000" fill="#E7E7E7" fill-rule="nonzero" mask="url(#b)" d="M188 148v94l321 3.5 2-138.164z"/><path d="M194 165.5v75.67M226 162.5v78.67M259.452 159.5v81.67M297.676 157v84.17M344.6 151.5v94M393.342 147l-.742 96.5M449.5 142.5V177M188 173.048L509 144M188 184l321.5-24.5M188 194l241-13M188 206.437L428 198M188 217.5l238.5-5.67M188 228h238.5" stroke="#979797" mask="url(#b)"/><path stroke="#000" fill="#EFA01E" fill-rule="nonzero" mask="url(#b)" d="M181.5 105.739V149L511 107.739 509 247l161 2V9.733z"/><path stroke="#000" fill="#D8D8D8" fill-rule="nonzero" mask="url(#b)" d="M670.5 9.733L824.5 74v167l-154 6z"/><path d="M185 241.5l485 6c104.667-5.185 157-7.185 157-6v7.085L670 256l-485-8.5v-6z" fill="#1B1B1B" fill-rule="nonzero" mask="url(#b)"/><path d="M193 149.441v15.508l315.5-30.902v-23.98L193 149.44z" stroke="#000" fill="#B1B1B1" fill-rule="nonzero" mask="url(#b)"/><path d="M182.5 117.68L668.5 31M183 130l485.5-79.522M181.5 141l487-71M512.5 109.5l156-18.5M511.5 126l157-17M511 144l157.5-14M511 159.5L668.5 149M510 177l159-7.345M509 194l159.5-6M510 211.83l158-3.393M510 228h159.5M223 97v45.5M257.5 91v46.281M297 81.75V134M340.5 74v54M391 63.383V123M447 54.5V116M509.5 43v63M585 28.1V203" stroke="#979797" mask="url(#b)"/><path fill="#4A4A4A" fill-rule="nonzero" mask="url(#b)" d="M429.5 244.5l.5-69 72-2.452V246.5h-6V179l-61.5 2v63.5z"/><path fill="#969595" fill-rule="nonzero" opacity=".744" mask="url(#b)" d="M502 173.048h8L526 198v48l-24 1z"/><g fill-rule="nonzero" mask="url(#b)"><use fill="#716A6A" xlink:href="#c"/><use fill="#000" filter="url(#d)" xlink:href="#c"/></g><path fill="#9E670D" fill-rule="nonzero" mask="url(#b)" d="M570 203h33l24.5 44H595z"/><g fill-rule="nonzero" mask="url(#b)"><use fill="#2E2E2E" xlink:href="#e"/><use fill="#000" filter="url(#f)" xlink:href="#e"/></g><path fill="#202020" fill-rule="nonzero" mask="url(#b)" d="M554.5 206l15-3h33l-15 3z"/><path d="M201.5 148.25v16.25M211.5 147v16.5M220.5 146v16.5M229.5 144.625V160.5M238.5 144v16.5M248.5 143v16.5M259.5 141v17.5M270.5 140v16.375M280.5 138.625v17.625M292.5 137v18.25M303.5 135.625v18.625M316.5 134v18.563M328.5 133v18.25M340.5 131v19.25M354.5 129v19.75M369.5 127v20.188M382.5 126v20.125M397.5 124v21M412.5 122v21M427.5 120v22M444.5 118v22.125M461.5 116v22.375M479.5 114v22.5M496.5 111.5V135" stroke="#4A4A4A" mask="url(#b)"/><path fill="#A16502" fill-rule="nonzero" mask="url(#b)" d="M670.5 9.733L720.5 31v71L684 92v29l36.5 9v114.5l-50 3z"/><g fill-rule="nonzero" mask="url(#b)"><use fill="#3A3A3A" xlink:href="#g"/><use fill="#000" filter="url(#h)" xlink:href="#g"/></g><g fill-rule="nonzero" mask="url(#b)"><use fill="#3A3A3A" xlink:href="#i"/><use fill="#000" filter="url(#j)" xlink:href="#i"/></g><path fill="#A06606" fill-rule="nonzero" mask="url(#b)" d="M793 61.383V119.5l24 6.5v22l-24-4.5v98h31V74"/><g fill-rule="nonzero" mask="url(#b)"><use fill="#717171" xlink:href="#k"/><use fill="#000" filter="url(#l)" xlink:href="#k"/></g><g fill-rule="nonzero" mask="url(#b)"><use fill="#717171" xlink:href="#m"/><use fill="#000" filter="url(#n)" xlink:href="#m"/></g><g fill-rule="nonzero" mask="url(#b)"><use fill="#717171" xlink:href="#o"/><use fill="#000" filter="url(#p)" xlink:href="#o"/></g><g fill-rule="nonzero" mask="url(#b)"><use fill="#717171" xlink:href="#q"/><use fill="#000" filter="url(#r)" xlink:href="#q"/></g><g fill-rule="nonzero" mask="url(#b)"><use fill="#717171" xlink:href="#s"/><use fill="#000" filter="url(#t)" xlink:href="#s"/></g><g fill-rule="nonzero" mask="url(#b)"><use fill="#717171" xlink:href="#u"/><use fill="#000" filter="url(#v)" xlink:href="#u"/></g><g fill-rule="nonzero" mask="url(#b)"><use fill="#717171" xlink:href="#w"/><use fill="#000" filter="url(#x)" xlink:href="#w"/></g><g fill-rule="nonzero" mask="url(#b)"><use fill="#717171" xlink:href="#y"/><use fill="#000" filter="url(#z)" xlink:href="#y"/></g><path d="M671.5 31.5l152 56M669.5 50.478L824 102M670.5 71L824 115M670.5 130L824 157.5M671 149l153 20.655M670.5 169.655L824 186M670.5 188l153 12M671 208.437l152.5 3.393M671 228h153M758.5 48.148V242.5" stroke="#979797" mask="url(#b)"/><g mask="url(#b)"><path d="M881.036 247.933c-1.562-1.664-2.886-2.219-2.886-2.219-.927-2.271-10.882-2.879-13.45-2.773-11.04.423-7.255-.423-18.084 1.902-3.283.713-7.148 4.57-6.301 7.66 1.138 4.12-.503 5.388 3.654 6.312 4.633 1.057 5.825 1.162 10.75 1.638 4.42.449 7.704.37 12.02-.66 1.006-.238 10.855-1.242 12.1-2.88.397-.448 4.95-6.048 2.197-8.98zM898.22 54.72c.185-3.592.714-8.32.317-8.426-5.428-1.136-11.358-.132-12.762-.132-3.574 0-6.804 1.611-9.876 3.09-3.865 1.876-8.313 6.525-10.987 9.906-3.469 4.358-4.951 10.406-5.402 11.7-3.627 10.434-2.462 25.463-1.985 36.345 1.032 23.165.264 37.56.609 60.619.132 8.135-.08 7.633.344 15.742.212 3.83 0 19.097 0 19.097-1.271 1.03 1.88 3.46 2.595.819.132-.502 4.024-4.517 4.05-5.045 2.436-1.48 4.396-4.596 6.805-6.102 1.35-1.69 5.348-2.087 6.407-3.909 2.966-1.823 8.367-2.589 11.306-4.411 2.17-1.347 8.949-.581 10.246-1.083 0 0-1.059-1.373-.556-5.494.318-2.562-.476-4.728-.582-7.29-.133-3.038-1.35-15.346-1.456-18.384-.954-23.349-1.245-38.642-1.35-61.939-.054-9.007.873-16.983.873-20.311.053-3.46 1.218-11.464 1.403-14.792z" fill="#F7923F"/><g transform="translate(839.6 45)"><path d="M17.66 80.296c.238 26.123.476 52.272.688 78.395 0 .74 1.139.74 1.139 0a77381.42 77381.42 0 01-.689-78.395c0-.713-1.138-.713-1.138 0zM19.46 159.483c-.08 13.84.133 27.655.53 41.495.026.74 1.165.74 1.138 0-.397-13.814-.609-27.654-.53-41.495 0-.713-1.138-.713-1.138 0z" fill="#000"/><path d="M59.096.74C51.682-.45 44.136-.45 37.279 3.01c-6.01 3.038-11.014 8.056-14.403 13.814-3.786 6.445-5.11 13.92-5.534 21.263-.476 8.267-.053 16.64.08 24.908.08 5.81.185 11.621.264 17.432 0 .74 1.139.74 1.139 0l-.397-26.386c-.133-8.057-.45-16.192 1.006-24.142 1.35-7.396 4.607-14.184 9.902-19.572 5.454-5.547 12.47-8.902 20.255-9.166 3.098-.105 6.195.211 9.24.713.688.08.98-1.003.265-1.135zM21.631 159.774c8.34-12.863 23.326-21.184 38.736-21.236.741 0 .741-1.136 0-1.136-15.807.053-31.163 8.61-39.715 21.79-.397.608.582 1.19.98.582z" fill="#000"/><path d="M60.817 137.402a1004.057 1004.057 0 01-4.051-80.798c0-.74-1.139-.74-1.139 0a1004.057 1004.057 0 004.051 80.798c.053.74 1.192.74 1.139 0z" fill="#000"/><path d="M58.778 1.585c-1.8 18.41-3.468 36.846-3.23 55.362 0 .74 1.138.74 1.138 0-.238-18.516 1.43-36.952 3.23-55.362.054-.713-1.085-.713-1.138 0zM.874 205.284c2.277 2.403 5.904 2.668 9.002 3.222 3.892.687 7.863.925 11.808.766 3.972-.158 7.917-.819 11.782-1.796 2.701-.66 4.952-1.426 7.123-3.196 2.462-2.007-1.8-4.279-3.257-4.94-3.177-1.452-6.751-1.9-10.193-1.98-5.481-.132-11.2.422-16.601 1.4-3.283.58-9.69 1.77-9.823 6.128-.027.74 1.112.74 1.138 0 .053-1.981 2.145-3.011 3.76-3.645 2.383-.951 4.978-1.374 7.52-1.744 2.727-.396 5.507-.607 8.26-.766 3.363-.211 6.699-.37 10.035.132a22.35 22.35 0 015.348 1.48 16.17 16.17 0 012.304 1.241c.344.211 1.482 1.11 1.006 1.664-.212.264-.503.449-.768.634-2.674 1.928-5.878 2.536-9.055 3.196a54.246 54.246 0 01-12.391 1.11c-4.184-.106-8.182-.925-12.285-1.718-1.589-.317-2.728-.74-3.866-1.954-.53-.555-1.35.238-.847.766z" fill="#000"/><path d="M.185 205.76c-.053 2.165-.317 4.886 1.033 6.761 1.059 1.453 3.389 2.007 5.03 2.377 5.19 1.215 10.803 1.294 16.125 1.03 5.375-.264 10.405-1.056 15.515-2.8.45-.158.82-.475 1.192-.739.45-.343 1.006-.502 1.43-.898.873-.74 1.429-1.638 1.72-2.747.477-1.664.133-3.83.106-5.547 0-.74-1.138-.74-1.138 0 .026 1.559.08 3.09.053 4.649-.053 2.536-2.966 3.962-5.031 4.649-4.554 1.452-9.055 2.06-13.82 2.298-4.952.264-9.824 0-14.722-.766-1.72-.265-3.574-.766-5.057-1.744-1.8-1.188-1.324-4.701-1.27-6.524 0-.713-1.14-.713-1.166 0z" fill="#000"/><path d="M53.721 28.817h-2.833a13.53 13.53 0 00-.556-1.955 11.528 11.528 0 00-1.112-2.298l1.906-1.901a.16.16 0 000-.212L47.5 18.833a.161.161 0 00-.212 0l-1.906 1.901a12.097 12.097 0 00-2.277-1.109 16.674 16.674 0 00-1.88-.528v-2.853c0-.08-.08-.158-.159-.158H35.93c-.08 0-.16.079-.16.158v2.88c-1.508.343-2.911.924-4.182 1.742l-2.145-2.033a.161.161 0 00-.212 0l-3.574 3.724a.16.16 0 000 .211l2.092 2.008a12.76 12.76 0 00-1.642 4.067h-3.124c-.08 0-.16.08-.16.159v5.15c0 .08.08.159.16.159h3.177c.132.58.291 1.162.503 1.743a11.85 11.85 0 001.165 2.404l-2.145 2.086a.16.16 0 000 .212l3.601 3.698a.161.161 0 00.212 0l2.277-2.193c.688.423 1.403.766 2.171 1.03.635.212 1.244.397 1.88.529v3.064c0 .079.08.158.159.158h5.136c.08 0 .16-.08.16-.158V43.82c1.429-.317 2.78-.872 3.97-1.612l2.066 2.087a.161.161 0 00.212 0l3.68-3.619a.16.16 0 000-.21l-2.039-2.061a12.101 12.101 0 001.721-4.068h2.886c.08 0 .159-.079.159-.158v-5.15c-.053-.133-.132-.212-.212-.212z" stroke="#000" fill="#000"/><ellipse stroke="#000" fill="#FFF" cx="38.418" cy="31.432" rx="7.758" ry="7.739"/><ellipse stroke="#000" fill="#000" cx="38.444" cy="31.511" rx="3.866" ry="3.856"/><path d="M51.682 60.935l1.033 69.731c.026.898-.741 1.664-1.668 1.664l-9.743.132c-.874 0-1.616-.633-1.457-1.452.027-.185.053-.37.027-.555L38.84 61.49c0-.185-.026-.37-.053-.555-.185-.818.53-1.479 1.404-1.505l9.743-.132c.953 0 1.747.713 1.747 1.637z" stroke="#000" fill="#FFF"/><g fill="#000"><path d="M41.833 129.16l-.08-4.516 1.801-.026.027 1.796 1.694-.027-.026-1.69 1.694-.026.027 1.69 1.959-.026-.027-1.981 1.8-.027.08 4.702zM41.674 117.645l8.95-.132.026 2.377-4.051 1.479 4.077-.053.027 2.272-8.95.132-.026-2.272 3.998-1.585-4.024.053zM44.851 110.275l.053 2.72h-.82c-.503 0-.821.027-.954.08-.132.053-.185.185-.185.37 0 .158.053.29.159.343.106.053.397.08.847.08l4.29-.053c.397 0 .661-.053.794-.106.132-.053.185-.185.185-.37s-.08-.343-.212-.396c-.132-.08-.423-.106-.847-.106l-1.06.027v.555l-1.35.026-.052-3.17 4.792-.079.026 1.69-.635.265c.291.185.503.422.635.686.133.291.212.608.212 1.004 0 .45-.08.872-.265 1.294-.185.397-.423.714-.688.925a1.877 1.877 0 01-.874.396c-.317.053-.767.08-1.376.106l-2.648.026c-.847 0-1.483-.026-1.853-.132-.398-.106-.742-.396-1.086-.898-.318-.502-.503-1.162-.503-1.955 0-.792.106-1.452.397-1.98.265-.529.61-.872.98-1.03.37-.16.953-.265 1.668-.265l.37-.053zM41.489 106.577l8.949-.132.053 2.721-8.95.132zM41.383 99.446l8.95-.132.026 2.377-4.051 1.48 4.077-.054.027 2.272-8.95.132-.026-2.272 3.998-1.584-4.025.052zM41.383 98.363l-.08-4.517 1.801-.026.026 1.796 1.695-.026-.027-1.69 1.695-.027.026 1.69 1.96-.026-.027-1.981 1.8-.027.08 4.702zM41.304 92.869l-.08-4.517 1.8-.026.027 1.796 1.695-.026-.027-1.69 1.695-.027.026 1.69 1.96-.026-.027-1.981 1.8-.027.08 4.702z"/><path d="M41.224 87.401l-.026-1.928c-.027-1.268 0-2.14.08-2.588.079-.45.29-.819.635-1.11.344-.29.9-.449 1.668-.449.688 0 1.165.08 1.403.291.238.211.397.581.45 1.189.106-.529.265-.898.45-1.083.185-.185.37-.317.53-.344.158-.053.609-.079 1.323-.079l2.357-.026.026 2.509-2.965.053c-.477 0-.768.052-.9.132-.106.079-.16.317-.16.686l4.025-.052.053 2.72-8.949.08zm1.483-2.72l1.986-.027c0-.316-.053-.528-.106-.633-.08-.133-.318-.185-.715-.185h-.503c-.292 0-.477.052-.556.185-.08.105-.106.343-.106.66z" fill-rule="nonzero"/><path d="M41.065 77.602l8.95-.132.052 2.72-8.949.133zM40.96 70.47l8.948-.132.027 2.378-4.051 1.479 4.077-.053.027 2.272-8.95.132-.026-2.272 3.998-1.585-4.024.053zM44.137 63.101l.053 2.72h-.821c-.503 0-.821.027-.953.08-.133.053-.186.185-.186.37 0 .158.053.29.16.343.105.053.396.08.846.08l4.29-.053c.397 0 .661-.053.794-.106.132-.053.185-.185.185-.37s-.08-.343-.212-.396c-.132-.08-.423-.106-.847-.106l-1.059.027v.554l-1.35.027-.053-3.17 4.792-.079.027 1.69-.636.265c.291.185.503.422.636.686.132.29.211.608.211 1.004 0 .45-.08.872-.264 1.294-.186.397-.424.713-.689.925a1.877 1.877 0 01-.874.396c-.317.053-.767.08-1.376.106l-2.648.026c-.847 0-1.483-.026-1.853-.132-.397-.106-.742-.396-1.086-.898-.344-.502-.503-1.162-.503-1.955 0-.792.106-1.452.397-1.98.265-.529.61-.872.98-1.03.37-.16.953-.265 1.668-.265l.37-.053z"/></g><g fill="#000"><path d="M23.352 131.353l-.053-3.671c-.026-1.004.053-1.77.16-2.298.132-.529.317-.951.555-1.215.239-.264.556-.45.9-.555.371-.106.927-.158 1.669-.158l1.059-.027c.767 0 1.323.08 1.694.264.344.185.636.502.82 1.004.186.502.292 1.136.319 1.928l.026.977 4.845-.079.053 3.645-12.047.185zm1.986-3.671l3.071-.053v-.264c0-.344-.079-.555-.211-.687-.133-.132-.45-.185-.874-.185l-.98.026c-.423 0-.688.08-.794.238-.159.132-.212.45-.212.925zM23.22 122.452l-.026-2.589c-.027-1.717.026-2.879.132-3.486a2.54 2.54 0 01.847-1.506c.45-.396 1.218-.58 2.224-.607.927-.027 1.562.105 1.907.37.317.264.53.792.608 1.584.133-.713.345-1.215.61-1.452.264-.265.476-.423.714-.476.212-.053.821-.105 1.774-.105l3.177-.053.053 3.38-3.998.053c-.635 0-1.032.08-1.191.185-.159.132-.212.423-.212.925l5.428-.08.053 3.646-12.1.21zm1.986-3.672l2.674-.026c0-.423-.053-.687-.159-.872-.106-.158-.424-.237-.953-.237h-.662c-.37 0-.635.079-.741.237-.106.185-.16.476-.16.898zM29.998 104.464c1.218-.026 2.065 0 2.568.053.503.053.98.264 1.377.608.424.343.741.819.98 1.4.238.58.344 1.294.37 2.086 0 .74-.08 1.427-.29 2.034-.213.608-.504 1.083-.928 1.453-.423.37-.873.58-1.376.66-.503.08-1.35.132-2.595.132l-2.065.027c-1.218.026-2.065 0-2.568-.053a2.504 2.504 0 01-1.377-.608c-.424-.343-.742-.818-.98-1.4-.238-.58-.344-1.294-.37-2.086 0-.74.079-1.427.29-2.034.212-.608.504-1.083.927-1.453.424-.37.874-.58 1.377-.66.503-.08 1.35-.132 2.595-.132l2.065-.027zm-3.892 3.698c-.556 0-.927.053-1.086.132-.158.08-.238.212-.238.45 0 .184.08.343.185.422.133.106.504.132 1.112.132l5.614-.08c.688 0 1.138-.052 1.297-.105.159-.08.238-.238.238-.475 0-.238-.106-.396-.291-.476-.185-.079-.636-.105-1.35-.079l-5.481.08z" fill-rule="nonzero"/><path d="M22.929 103.197l-.08-6.181 2.41-.027.026 2.536 2.277-.026-.026-2.245 2.303-.027.027 2.245 5.057-.079.053 3.645zM22.717 88.379l2.41-.027.026 2.166 9.637-.132.053 3.645-9.637.132.026 2.166-2.41.027zM22.69 87.956l-.079-6.075 2.41-.026.026 2.43 2.277-.027-.027-2.271 2.304-.027.026 2.272 2.648-.027-.053-2.667 2.41-.027.105 6.313zM27.721 72.003l.053 3.645-2.092.026c-.609 0-.98.053-1.138.132-.159.08-.212.264-.212.528 0 .29.106.502.291.555.186.08.583.106 1.192.106l5.586-.08c.583 0 .98-.052 1.139-.132.185-.079.265-.264.265-.554 0-.264-.106-.45-.265-.529-.186-.079-.61-.105-1.271-.105l-1.51.026-.052-3.645h.476c1.245-.026 2.145.08 2.648.264.53.185.98.634 1.403 1.347.397.687.61 1.559.636 2.589.026 1.056-.133 1.954-.45 2.641-.318.687-.768 1.162-1.35 1.4-.583.238-1.457.37-2.648.37l-3.522.053c-.873 0-1.509 0-1.959-.08-.424-.052-.847-.264-1.27-.607a3.6 3.6 0 01-.98-1.426c-.239-.608-.371-1.295-.371-2.087-.027-1.083.159-1.955.503-2.668.344-.713.794-1.162 1.324-1.4.53-.237 1.35-.343 2.488-.37h1.086zM22.32 62.388l12.047-.185.053 3.645-5.057.08.026 1.082 5.057-.079.053 3.645-12.047.185-.053-3.645 4.316-.053-.027-1.083-4.315.053z"/></g></g><path d="M858.53 203.717l2.198.766" stroke="#000" stroke-width="5.32"/></g></g></svg>