<svg xmlns="http://www.w3.org/2000/svg" viewBox="0 0 3401.6 902.1"><switch><g><path fill="#939598" stroke="#414042" stroke-width="4.59" stroke-miterlimit="10" d="M-2 47.1H3401.6V902.1H-2z"/><g fill="#E6E7E8" stroke="#414042" stroke-miterlimit="10"><path stroke-width="4.57" d="M38.8 856.5L915.3 671.8 915.3 3.5 7 1.5 7 856.5z"/><path stroke-width="4.59" d="M2879.9 677.8L3410.6 756.2 3410.6 3.5 2879.9 3.5z"/></g><path fill="#D1D3D4" stroke="#414042" stroke-width="4.59" stroke-miterlimit="10" d="M906.3 49.1H2870.8999999999996V723.4H906.3z"/><path fill="none" stroke="#414042" stroke-width="10" stroke-miterlimit="10" d="M915.3 677.1L565.4 749.1 565.4 36 915.3 180.9z"/><path fill="#BCBEC0" stroke="#414042" stroke-width="4.59" stroke-miterlimit="10" d="M969.8 402.2L883.3 390.2 883.3 311.9 969.8 332zM838.5 515L673.1 516.6 673.1 431 838.5 443zM829.9 311.5H880.9V390.6H829.9zM899.7 281.1L702.9 226.9 702.9 158.6 899.7 226.1zM619.9 157.6H699.4V226.6H619.9zM928.6 152.4L752.1 72.5 752.1 19.5 928.6 109.2z"/><path fill="none" stroke="#414042" stroke-width="10" stroke-miterlimit="10" d="M1420.6 722.7L1295.8 794.7 1295.8 81.6 1420.6 226.5z"/><path fill="none" stroke="#414042" stroke-width="4.76" stroke-miterlimit="10" d="M1018.6 615.2L838.5 643.6 838.5 553.3 1018.6 543.5z"/><path fill="#BCBEC0" stroke="#414042" stroke-width="4.59" stroke-miterlimit="10" d="M919.6 543.7L1018.5 543.7 846.5 553.6 721.9 553.6zM596.9 432H670.4V516.2H596.9zM669.4 18.2H748.9V72.1H669.4z"/><path fill="#E6E7E8" stroke="#414042" stroke-width="5" stroke-miterlimit="10" d="M806.1 670L555.9 670 926 619.4 1096.4 619.4z"/><path fill="#BCBEC0" stroke="#414042" stroke-width="4.59" stroke-miterlimit="10" d="M1018.8 616L838.7 644.4 838.7 554.1 1018.8 544.3z"/><path fill="#D1D3D4" stroke="#414042" stroke-width="5" stroke-miterlimit="10" d="M809.4 366.5L552 366.5 914.6 411.9 1091.8 411.9zM1552.5 417.5L1305.6 417.5 1406.9 457 1584.7 457z"/><path fill="#A7A9AC" stroke="#414042" stroke-width="5" stroke-miterlimit="10" d="M811.3,217.5H561.6c-0.7,0,14.2,4.8,17.3,5.6 l338.5,86c0.1,0,0.2,0,0.2,0h172.4c0.5,0-5.3-2.7-7-3.2l-271.2-88.4C811.5,217.6,811.4,217.5,811.3,217.5z"/><path fill="#939598" stroke="#414042" stroke-width="5" stroke-miterlimit="10" d="M796.3 76.2H555.9c-1.4 0 20 10.1 26.6 12.6l337.2 125.7c.4.1.7.2.8.2H1085c1 0-7.2-5.4-10.8-7.1L797.9 76.8C797.1 76.4 796.5 76.2 796.3 76.2zM1533.4 112.7h-238.4c-1.4 0 2.3 10.3 4.6 12.8L1417 253.1c.1.2.3.2.4.2H1581c1 0 2.3-5.5 1.6-7.3l-48.8-132.7C1533.7 112.9 1533.5 112.7 1533.4 112.7z"/><path fill="none" stroke="#414042" stroke-width="4.76" stroke-miterlimit="10" d="M558.3 521.3L1087.6 521.3"/><path fill="#BCBEC0" stroke="#414042" stroke-width="4.59" stroke-miterlimit="10" d="M721.9 553.6H835.9V644.2H721.9z"/><path fill="none" stroke="#414042" stroke-width="4.76" stroke-miterlimit="10" d="M558.5 522.2L1087.7 522.2"/><path fill="none" stroke="#414042" stroke-width="10" stroke-miterlimit="10" d="M1089 674L803.7 747.9 803.7 44.8 1089 190.9z"/><path fill="#E6E7E8" stroke="#414042" stroke-width="5" stroke-miterlimit="10" d="M1534.6 650.7L1294.7 650.7 1433.5 607.4 1599 607.4z"/><path fill="#A7A9AC" stroke="#414042" stroke-width="5" stroke-miterlimit="10" d="M1553.5,241.7h-256.6c-0.7,0,1.8,5.3,2.8,6.2 L1418,342c0,0,0.1,0,0.1,0h175.6c0.5,0,1.7-2.9,1.4-3.5l-41.5-96.7C1553.6,241.8,1553.6,241.7,1553.5,241.7z"/><path fill="none" stroke="#414042" stroke-width="3.46" stroke-miterlimit="10" d="M1495.1 520.8L1604.2 520.8 1554.3 541.2 1300 541.2z"/><path fill="#939598" stroke="#414042" stroke-width="4.59" stroke-miterlimit="10" d="M-2 47.1H3401.6V902.1H-2z"/><path fill="#D1D3D4" stroke="#414042" stroke-width="4.59" stroke-miterlimit="10" d="M905.3 -2H2869.8999999999996V672.3H905.3z"/><g fill="#E6E7E8" stroke="#414042" stroke-miterlimit="10"><path stroke-width="4.57" d="M31.8 856.5L908.3 671.8 908.3 3.5 0 1.5 0 856.5z"/><path stroke-width="4.59" d="M2872.9 677.8L3403.6 756.2 3403.6 3.5 2872.9 3.5z"/></g><path fill="none" stroke="#414042" stroke-width="23" stroke-miterlimit="10" d="M2160.7 674.4l203.9 74.2V44c0-.2-.2-.3-.4-.2l-203.5 146.5V674.4zM915.3 677.1l-349.9 71.9v-710c0-1.5 1.5-2.5 2.9-1.9l347.1 143.8V677.1z"/><path fill="#BCBEC0" stroke="#414042" stroke-width="4.59" stroke-miterlimit="10" d="M969.8 402.2L883.3 390.2 883.3 311.9 969.8 332zM838.5 515L673.1 516.6 673.1 431 838.5 443zM829.9 311.5H880.9V390.6H829.9zM899.7 281.1L702.9 226.9 702.9 158.6 899.7 226.1zM619.9 157.6H699.4V226.6H619.9zM928.6 152.4L752.1 72.5 752.1 19.5 928.6 109.2z"/><path fill="none" stroke="#414042" stroke-width="23" stroke-miterlimit="10" d="M1420.6,722.7l-124.8,71.9v-713 c0,0,0.1-0.1,0.1,0l124.7,144.9V722.7z"/><path fill="none" stroke="#414042" stroke-width="4.76" stroke-miterlimit="10" d="M1018.6 615.2L838.5 643.6 838.5 553.3 1018.6 543.5z"/><path fill="#BCBEC0" stroke="#414042" stroke-width="4.59" stroke-miterlimit="10" d="M919.6 543.7L1018.5 543.7 846.5 553.6 721.9 553.6zM596.9 432H670.4V516.2H596.9zM669.4 18.2H748.9V72.1H669.4z"/><path fill="#E6E7E8" stroke="#414042" stroke-width="5" stroke-miterlimit="10" d="M806.1 670L555.9 670 926 619.4 1096.4 619.4zM2365.9 663.5L2115.6 663.5 2002.4 613.5 2170.6 613.5z"/><path fill="#BCBEC0" stroke="#414042" stroke-width="4.59" stroke-miterlimit="10" d="M1018.8 616L838.7 644.4 838.7 554.1 1018.8 544.3z"/><path fill="#D1D3D4" stroke="#414042" stroke-width="5" stroke-miterlimit="10" d="M809.4 366.5L552 366.5 914.6 411.9 1091.8 411.9zM1552.5 417.5L1305.6 417.5 1406.9 457 1584.7 457zM2361.7 391.4L2130.8 391.4 1997.7 423.5 2167.2 423.5z"/><path fill="#A7A9AC" stroke="#414042" stroke-width="5" stroke-miterlimit="10" d="M811.3,217.5H561.6c-0.7,0,14.2,4.8,17.3,5.6 l338.5,86c0.1,0,0.2,0,0.2,0h172.4c0.5,0-5.3-2.7-7-3.2l-271.2-88.4C811.5,217.6,811.4,217.5,811.3,217.5z"/><path fill="#939598" stroke="#414042" stroke-width="5" stroke-miterlimit="10" d="M796.3 76.2H555.9c-1.4 0 20 10.1 26.6 12.6l337.2 125.7c.4.1.7.2.8.2H1085c1 0-7.2-5.4-10.8-7.1L797.9 76.8C797.1 76.4 796.5 76.2 796.3 76.2zM1533.4 112.7h-238.4c-1.4 0 2.3 10.3 4.6 12.8L1417 253.1c.1.2.3.2.4.2H1581c1 0 2.3-5.5 1.6-7.3l-48.8-132.7C1533.7 112.9 1533.5 112.7 1533.4 112.7zM2367.2 76.9h-233.1c-1.4 0-16.8 9.8-19.1 12.2l-122.4 123c-.1.1-.2.2-.1.2h161.1c1 0 12.5-5.4 15.1-7l197.8-127.8C2367.1 77.1 2367.4 76.9 2367.2 76.9z"/><path fill="none" stroke="#414042" stroke-width="4.76" stroke-miterlimit="10" d="M558.3 521.3L1087.6 521.3"/><path fill="#BCBEC0" stroke="#414042" stroke-width="4.59" stroke-miterlimit="10" d="M721.9 553.6H835.9V644.2H721.9z"/><path fill="none" stroke="#414042" stroke-width="4.76" stroke-miterlimit="10" d="M558.5 522.2L1087.7 522.2"/><path fill="none" stroke="#414042" stroke-width="23" stroke-miterlimit="10" d="M1089,674l-285.3,73.9v-700 c0-1.4,1.5-2.3,2.7-1.6L1089,190.9V674z"/><path fill="#E6E7E8" stroke="#414042" stroke-width="5" stroke-miterlimit="10" d="M1534.6 650.7L1294.7 650.7 1433.5 607.4 1599 607.4z"/><path fill="#A7A9AC" stroke="#414042" stroke-width="5" stroke-miterlimit="10" d="M2379.2 219.3H2131c-.7 0-12.1 4.8-13.3 5.6L1987.9 310c0 0-.1 0 0 0h171.7c.5 0 9.2-2.7 10.5-3.2l208.9-87.4C2379.2 219.3 2379.2 219.3 2379.2 219.3zM1553.5 241.7h-256.6c-.7 0 1.8 5.3 2.8 6.2L1418 342c0 0 .1 0 .1 0h175.6c.5 0 1.7-2.9 1.4-3.5l-41.5-96.7C1553.6 241.8 1553.6 241.7 1553.5 241.7z"/><path fill="none" stroke="#414042" stroke-width="23" stroke-miterlimit="10" d="M1588.8 719.6l-53.3 73.9V92.7c0-.4.6-21.6.8-21.1l52.6 165V719.6zM1998.3 677.5l124.5 72.3V34.6c0 0 0 0 0 0l-124.4 145.6V677.5zM2879.9 671.8l443.6 64.9V42.2c0-3.2-3.1-5.5-6.2-4.5l-437.5 144.8V671.8z"/><path fill="none" stroke="#414042" stroke-width="3.46" stroke-miterlimit="10" d="M1993 516.7L2080.5 516.7 2360.8 523.5 2219.2 523.5zM2734.2 515.7L2756.3 515.7 3326.3 521.1 3292.5 521.1zM1495.1 520.8L1604.2 520.8 1554.3 541.2 1300 541.2z"/><path fill="#939598" stroke="#414042" stroke-width="5" stroke-miterlimit="10" d="M3339.8,144.4h-202.3c-1.2,0-34.6,7.2-41.5,9 l-373.1,94.2c-0.5,0.1-0.6,0.2-0.6,0.2h145.9c0.9,0,23.1-4.3,29.2-5.6l440.7-97.3C3339.3,144.5,3339.9,144.4,3339.8,144.4z"/><path fill="#A7A9AC" stroke="#414042" stroke-width="5" stroke-miterlimit="10" d="M3327.3,264.5h-209c-0.6,0-24.2,3.4-27.4,4 L2714,332.2c-0.1,0-0.2,0-0.2,0H2866c0.4,0,16.6-2.1,19.6-2.5l441.2-65.2C3327.2,264.5,3327.4,264.5,3327.3,264.5z"/><path fill="#D1D3D4" stroke="#414042" stroke-width="5" stroke-miterlimit="10" d="M3318.7 401.4L3107.9 401.4 2726 428.8 2884.6 428.8z"/><path fill="#E6E7E8" stroke="#414042" stroke-width="5" stroke-miterlimit="10" d="M3329.5 644L3110.3 644 2719.9 604 2873.4 604z"/><path fill="none" stroke="#414042" stroke-width="23" stroke-miterlimit="10" d="M2729.5,674.7l363.3,63.2V29c0-1-1.1-1.8-2-1.4 l-361.3,144.8V674.7z"/><path fill="#FCAF17" d="M1748.1,649.4c-0.7-0.8-1.7-1.3-3.1-1.3c-2.6-0.1-5.2-0.2-7.9-0.3c-24.9-3.6-49.7-7.2-74.6-10.7 c-0.4-1.4-0.7-2.8-1.2-4.2c-0.3-0.9-0.9-1.6-1.6-2.2c-0.4-4.6-6.2-4.8-8-1.3c-0.7-3.6-5-4.5-7.2-2.5c-0.9-1.8-2.9-2.4-4.7-2.1 c-2.4-0.5-5.2,0.9-5.6,4c0,0.2,0,0.3,0,0.5c-0.1-0.9-0.3-1.9-0.4-2.8c-0.5-3.6-4.9-3.8-7.1-1.8c0-0.1-0.1-0.1-0.1-0.2 c0-0.3,0-0.6,0-0.8c0-2.1-1.1-3.4-2.6-3.9c-0.4-0.6-0.7-1.2-1.1-1.9c-1.7-2.7-5.4-2.6-7.1-0.5c-0.5-4.1-1.1-8.2-1.7-12.3 c-0.7-4.1-7.7-4.2-8.3,0c-0.9,5.6-1.8,11.3-2.6,16.9c-1.4-0.5-3-0.4-4,0.6c-0.3-6.2-0.7-12.3-1.4-18.5c-0.6-5.5-8.1-5.6-8.6,0 c-0.1,1.2-0.3,2.5-0.4,3.7c0-1.1,0-2.2,0-3.3c0-2.8-1.9-4.1-3.9-4.1c-1.4-1.9-3.5-3.1-6.3-3.4c-1.9-0.2-3.7,1.5-4.2,3.2 c-0.1,0.3-0.2,0.6-0.2,0.9c-1.9-3.6-8.6-1.2-7.9,3.7c1.6,11.3,2.1,22.6,1.5,33.9c-0.1,1.2,0.3,2.2,0.9,2.8 c-3.6,16.9-5.2,34.3-4.8,51.7c0.1,5.1,6.8,5.6,8.5,1.1c3.7-9.8,6.6-19.8,8.9-29.9c2.5,1.7,6.9,0.6,7-3.4c0,0,0,0,0-0.1 c0.6-0.5,1.1-1.2,1.3-2.3c0.2-0.7,0.3-1.5,0.4-2.2c0.1,0.2,0.1,0.4,0.2,0.6c1.2,2.9,4.2,3.7,6.4,2.5c0.3,0,0.5,0,0.8,0l-1,6.7 c-0.8,5.4,7.1,7.8,8.3,2.3c0.2-1.1,0.5-2.2,0.7-3.4c1.3,0.3,2.6,0.1,3.6-0.7c0.9,2.4,3.3,3,5.3,2.2c0,1.2,0,2.4-0.1,3.5 c-0.1,5.7,8,5.4,8.6,0c0.4-3,0.5-6.1,0.6-9.1c1.4-0.4,2.6-1.5,2.9-3.2c0.9,1.1,2.4,1.6,3.9,1.5c0.3,2.1,0.6,4.1,0.9,6.2 c0.8,5.2,8,3.3,8.5-1.1c0-0.2,0-0.4,0.1-0.6c1.1,0.3,2.3,0.2,3.4-0.4c0.9,4.8,8.5,4.6,8.5-0.7c0-2.2,0-4.3,0.1-6.5 c0.8,2,3,2.9,5,2.6c2.1,2.2,6.2,1.4,7.2-2c25.7,2.1,51.5,2.1,77.3,0.2c1.5,0.2,3.1,0.4,4.6,0.7 C1750.9,658.4,1753.2,650.4,1748.1,649.4z"/><path fill="#6D6E71" d="M1914.2,621.7l-14-52.7c-0.5-1.7-1.9-2.7-3.4-3l-21.2-89c-0.7-3.1-4.1-3.7-6.4-2.4 c-0.2-0.7-0.4-1.4-0.6-2c0.2-0.4,0.3-0.9,0.3-1.5c0.4-15.1-3.1-29.3-10.2-42.6c2-3.9,2-8.8-0.4-13.2c-1.1-2.1-3.2-2.5-4.9-1.9 c-0.6-3-1.9-6-4.1-8.8c-0.3-0.4-0.7-0.7-1.1-1c-0.1-1.1-0.7-2.1-1.6-2.8c0-23.8-11.8-46-31.3-59.7c-2.8-6.1-6.7-11.6-11.8-15.9 c3.4-0.4,6.9-0.7,10.3-1.1c0.4,0,0.7-0.1,1-0.2c1.7,1.2,4,1,5.5-0.5c0.1-0.1,0.1-0.1,0.2-0.2c0,0,0.1,0,0.1-0.1 c0.1-0.1,0.2-0.1,0.4-0.2c0.1,0,0.1,0,0.3-0.1c0.1,0,0.1,0,0.2-0.1c0,0,0,0,0.1,0c0.2,0,0.4,0,0.5,0c0,0,0.1,0,0.1,0 c2.3,0.5,4.7-0.7,5.3-3c0.6-2.2-0.7-4.8-3-5.3c-3-0.7-5.9-0.2-8.4,1.4c-0.6-0.3-1.4-0.5-2.3-0.4c-8,0.8-16,1.7-24,2.5 c-1.4,0.1-2.5,0.8-3.2,1.7c-8.1-7.2-21.9-5-31.8-4.9c-18,0.2-36,0.4-53.9,0.6c-1.1,0-1.9,0.4-2.6,0.9c-35.4-4.4-71.1-4.4-106.6,0 c-0.6-1.1-1.8-2-3.6-1.9c-1.6,0-3.1-0.1-4.6-0.2c-0.9-0.5-2-0.7-3.1-0.5c-1.3-0.3-2.5-0.6-3.8-1c-5.2-1.7-7.4,6.2-2.6,8.2 c-6.4,11.7-9.5,24.7-9.1,38.1c-1.1,0.7-2,1.8-2.2,3.4c-0.6,5.6-1.2,11.3-1.7,16.9c-1,4.1-1.4,8.3-1.2,12.6 c-1.8,20.9-3.3,41.9-4.5,62.9c-0.3,0.5-0.5,1.2-0.6,1.9c-2.9,39.4-5.9,78.7-8.8,118.1c-0.3,0.5-0.6,1-0.7,1.7 c-4.5,25.6-6.4,51.4-5.7,77.3c0.1,2.1,1.4,3.5,3.2,4.1c-1.9,1.5-2.5,4.8-0.5,6.6c8.1,7.2,18,8.5,28.4,8.4 c15.4-0.2,30.9-1.5,46.3-2.1c0.5,0,1.1,0,1.6-0.1c0.1,0.2,0.3,0.4,0.5,0.5c2.9,2.9,6.8,3.2,10.7,3.2c9-0.1,18-0.7,27-1.1 c25.3-1,50.7-2.1,76-3.1c0.1,2.1,1.5,4.1,4.1,4.1c34.3,1,68.6,1.9,102.9,2.9c4.5,0.1,5.3-5.3,2.6-7.6c0.1-0.2,0.2-0.5,0.3-0.7 c1,0.3,2.1,0.2,3.2-0.6c2.5-1.8,5.1-3.5,7.7-5.1c12.5-2.8,24.7-7.1,36.1-13.6c1.1-0.6,1.8-1.5,2-2.4c0.5-0.1,1-0.1,1.5-0.2 c1.6-0.2,2.9-0.8,3.7-2.1c0.6,0.4,1.2,0.8,1.8,1.1c4.1,2.4,7.5-2.2,5.9-5.9c-1.7-3.9-2.8-7.9-3.5-12c2.1-0.2,4-1.7,3.9-4.2 c-0.1-0.9-0.1-1.8-0.2-2.7c0.3,0.8,0.6,1.6,0.9,2.5C1907.7,629.1,1915.6,627.1,1914.2,621.7z M1555.5,571.3c-0.3,1-0.5,2-0.8,3 l0.2-2.8c0.3-0.4,0.5-0.9,0.7-1.4c0-0.1,0-0.2,0.1-0.3C1555.7,570.3,1555.6,570.8,1555.5,571.3z M1829,383.3 c-0.3-0.7-0.5-1.4-0.8-2.1c-0.9-2.9-1.9-5.8-2.8-8.7C1826.9,376,1828.1,379.6,1829,383.3z M1893,607.5c-0.4,2.6-0.7,5.1-0.9,7.6 c-0.7,0.3-1.3,0.9-1.8,1.7c-0.3,0.6-0.6,1.2-0.8,1.8c-0.4,0.2-0.9,0.5-1.2,0.8c-13.3,12.9-28.2,23.3-44.8,31.4 c-2.4,1.2-2.6,4-1.4,5.9c-11,1.8-22.3,2.5-33.5,2.9c-28.2,0.8-56.5-0.2-84.8,0c-29.8,0.2-59.7-2.6-89.5-1.6 c-1.9,0.1-3.7,0.1-5.6,0.2c-0.3-1.9-1.6,0-4.1,0.1c-19.1,0.8-38.2,0.8-57.2,0c0.6-0.8,1-1.8,1-2.7c-1.3-20.6-2.1-41.2-2.2-61.8 c0.4-5.6,0.7-11.2,1.1-16.8c0.1-1.2-0.4-2.2-1.1-2.9c0-4.1,0.1-8.2,0.2-12.3c6.6-26.3,11.6-52.6,6.6-79.8 c4.3-28.6,7.3-57.5,8.9-86.4c0.6-3,1.1-5.9,1.4-8.9c0.5-4.4,0.4-9.1,0.3-13.8c0.2-0.7,0.3-1.3,0.5-2c3.2-11.7,7.4-23.2,9.5-35.1 c5.5-4.3,13.7-4.9,20.4-5.3c23.3,6,47.7,5.9,70.9-0.2c0.7,0.8,1.7,1.3,3.1,1.3h97.3c0.1,1.6,0.7,3.1,1.9,4.3 c6.5,6.2,12.4,12.9,17.7,20.3c1.7,2.4,3.3,4.8,4.8,7.3c1.1,3,2.2,6.1,3.3,9.1l1.3,3.6c0.6,5.2,1.2,10.1,2.1,14.5 c1.7,8.5,4.6,19.1,12.2,24.1c0.4,0.9,0.7,1.9,1.1,2.8c0.4,1,1.1,1.8,1.9,2.3c1.6,2.6,3.6,4.7,5.9,6.3c-0.9,5.3,0.7,10.7,4.7,14.6 c0.8,0.8,1.7,1.1,2.5,1.2c12.8,40.6,26.6,80.9,41.4,120.7c0.3,0.8,0.8,1.5,1.4,1.9c2.3,9.8,4.6,19.5,7,29.3 c0.1,0.3,0.2,0.6,0.3,0.8c0.2,3.3,0.4,6.6,0.6,9.9C1894.2,605.1,1893.2,606.1,1893,607.5z"/><path fill="#FCAF17" d="M1770.3,611.3c-1-8.4-2.8-16.1-7.4-22.9c4.8-4.9,2.4-14.3-5.9-14.6l-29-1.1c-1.8-0.1-3.3,0.3-4.5,1 c-10.8-1.7-21.5-3.2-32.3-4.6c-26.6-3.4-53.4-4.9-80.1-2.7c-0.3,0-0.5,0.1-0.8,0.1c-6.5-4.3-12.7-9.1-18.5-14.4 c-5.5-5-12.9-1.1-14.6,4.2c-3.6-0.3-7.2,1.6-8.3,6.1c-1.5,6.2-0.9,11.7,1,16.4c-0.2,0.8-0.3,1.8-0.2,2.8 c1.3,19.7,7.6,36.1,29.2,38.9c3.3,0.4,6.7,0.6,10.1,0.6c8.7,4.6,19.3,6.7,29.3,7.7c6.8,0.7,13.7,1.4,20.5,2.1 c0.5,0.2,1,0.3,1.5,0.4c9.5,1.4,19,2.8,28.4,4.3c23.7,8.8,48.5,13.7,74,14.3c8.4,0.2,10.5-9.7,6.1-14.6 C1772,628.1,1771.2,619.2,1770.3,611.3z M1671.9,612.8c0,0.2,0.1,0.5,0.1,0.7c-1.4-0.5-2.7-0.9-4.1-1.4 C1669.3,612.3,1670.6,612.6,1671.9,612.8z"/><path fill="#FCAF17" d="M1834,696.5c2-2.8,1.5-6.5-0.4-9.3c0.1,0,0.1,0,0.2,0c11.1-0.7,11.1-17.9,0-17.3 c-14.2,0.9-28.4,1.7-42.5,2.6c-2.8,0.2-4.9,1.4-6.2,3.1c-20.2-1.1-40.3-2.2-60.5-3.2c-1.1-0.1-2.1,0.1-3,0.3 c-1.1-0.5-2.4-0.7-3.9-0.6c-29.4,1.5-58.9,3.1-88.2,5.4c-12.3-2-24.6-3.5-37.1-3.9c-9.5-0.3-18.8,0.6-28.2,2 c-5.7,0.9-10.9,2.2-16.3-0.4c-4.1-1.9-7.5-5.2-10.9-8.3l0,0c0,0,0-0.1,0-0.1c2.4-29.1,3-58.3,1.8-87.4c-0.1-1.6-0.5-3-1.1-4.1 c7.8-7.4,2-23.4-3.6-29.9c-2.6-3.1-6-5-9.6-6c3.4-29.8,3.8-59.8,0.9-89.8c-1-11-18.3-11.1-17.3,0c2.9,30.3,2.6,60.7-1.1,90.9 c-1.5,0.6-3,1.2-4.3,2c-3-6.6-7.8-12.2-15.4-15.7c-1.7-0.8-3.4-1-5-0.8c-3.2,0.2-5.5,1.8-6.7,4c-1.5-0.2-3-0.3-4.5-0.1 c-0.5,0.1-1,0.2-1.4,0.3c-3.3-2.9-8.2-4-11.5,0.1c-2.8,3.4-5,6.9-6.6,10.7c-1.8-0.4-3.7-0.9-5.5-1.3c-4.8-1.2-8.4,1.5-9.9,5.1 c-3.2-0.5-6.4-1.1-9.6-1.6c-4.4-0.7-7.7,1.5-9.5,4.6c-0.6-0.3-1.3-0.5-1.9-0.8c-6.2-2.8-11.9,1.8-13,6.8 c-14.1-1.6-28.3-2.4-42.5-2.5c-8.9,0-10.7,11-5.4,15.4c-4,3.3-5.4,9.7-0.3,13c-7.6,3.5-6.6,17.1,3.3,16.4 c6.3-0.4,12.7-0.7,19-0.9c-1.7,0.6-3.3,1.9-4.4,4.1c-9.9,20.2-18.8,40.9-27,61.9c-4.2,0.3-8.2,2.3-9.4,6.9 c-1.5,5.6-0.8,11,2,15.6c-1.9,11.9-1.2,24.1,1.9,36.1c0.2,0.6,0.4,1.2,0.8,1.8c-3.9,2.5-4.8,8.1-2.7,12 c-2.8,5.1-0.5,13.2,7.2,13.2c2.1,0,3.7-0.6,5-1.6c-3.9,15.7-2.9,34.4,9.5,45.3c5.8,5.1,17.9,0.3,14.4-8.4 c-4.5-11.2-4.5-22.7,1-33.5c5.3-10.5,15.8-18.2,22.8-27.6c7.4-9.8,11.6-21.7,12.9-34c2.1-0.7,4.1-1.3,6.3-1.9 c11.5-3,23.4-3.9,35.3-3.5c18.2,0.6,36,5.5,52.1,13.8c0.3,2.3,1.5,4.5,4.1,6c30,17.3,47.1,50.7,44.3,85.1c-0.2,2.2,0.4,4,1.4,5.4 c-1.1,5.4,3.4,12.4,10.6,11c6.7-1.3,13.3-2.6,20-3.9c6.4,3.8,16.9,4.3,22.9,4.2c20.4,0,40.9-0.1,61.3-0.1 c40.9-0.1,81.8-0.1,122.6-0.2c1.8,0,3.5-0.7,4.9-1.7c3.2-1,5.8-4,6.2-8.1c1.5-15.2,0.7-30.3-2.4-45.1c2.1-1.1,3.9-2.9,4.2-5.3 c0.4-2.7,0.8-5.4,1.2-8c0.2-1.2,0.3-2.4,0.2-3.5c0.3-0.6,0.6-1.2,0.9-1.8c5-11.4,9.7-20.5,19.4-27.3c-9.1,10-15.8,21.5-20.2,34.4 c-1.4,3.9,0.1,7,2.7,8.8c-3.9,17-4.5,34.7-1.8,52.3c1.7,11,18.3,6.3,16.6-4.6c-4.5-29.4,2.8-59.1,19.3-83.7 C1846.9,702.8,1840.3,695.9,1834,696.5z M1383.8,700.9c-3.1,5.8-9.5,9.5-14.6,13.5c-7.6,6-12.6,12.5-16.2,21.3 c-0.2-0.8-0.5-1.6-0.9-2.3c1.4-2.5,1.5-5.6,0.5-8.2c4.1-1.3,7.1-4.1,9.2-8.4c0.6-1.2,1.3-5.9,2.2-6.5c3-2.3,7-3.1,10.1-5.5 c3.8-2.9,6.6-6.8,9.2-10.8c0.3,0,0.6,0,0.9-0.1c-0.2,0.5-0.3,1-0.5,1.6C1382.9,697.3,1383.1,699.2,1383.8,700.9z M1444.7,619.9 c-0.2-0.1-0.3-0.3-0.5-0.4c0.4-1,0.8-2,1.2-3c0.1,0.9,0.1,1.7,0.2,2.6C1445.3,619.3,1445,619.6,1444.7,619.9z M1514.8,657.7 c0.2-1.3,0.4-2.7,0.6-4c0,0.5,0.1,1.1,0.1,1.6c0.1,1.2,0.4,2.3,0.8,3.2L1514.8,657.7z M1631.7,730c-0.7-2.5-1.3-5-2-7.4 c1-0.1,2.1-0.1,3.1-0.2c0,0.8,0,1.5,0,2.3C1632.5,726.4,1632.1,728.2,1631.7,730z M1692.5,737.9c0.2-0.8,0.3-1.5,0.5-2.3 c0.3,0,0.5-0.1,0.8-0.1c0,0.1,0,0.2,0,0.4C1693.4,736.6,1692.9,737.2,1692.5,737.9z M1770.9,719c-0.1-0.3-0.2-0.6-0.4-0.9 c0.4-0.1,0.8-0.2,1.2-0.3c0.1,0.2,0.2,0.5,0.3,0.8C1771.6,718.7,1771.3,718.8,1770.9,719z"/><path fill="#414042" d="M1952.5 609c-1.3-4.8-6-6.9-10.6-6-4.1.8-8.3 1.5-12.4 2.3-1.4-1.4-3.4-2.4-5.9-2.4-9.2 0-10.8 11.8-4.8 15.9.6 3.8 3.3 7.1 8.2 7.1 3.5 0 5.9-1.7 7.2-4 4.1-.7 8.2-1.5 12.3-2.2C1951.1 618.8 1953.7 613.2 1952.5 609zM1860.8 560.5c-.2-2.4-.5-5.6-1.7-7.7-1.4-2.3-4-3.9-6.6-4.7-.2 0-.3-.1-.5-.1-.8-.6-1.7-1-2.6-1.2-3.2-.9-6 .1-8 2.1-.3.1-.7.3-1 .5-6.6 3.7-9.5 12.1-6.8 19 .1 1.3.5 2.7 1.3 4 2.2 3.8 6.6 7 11.2 6.8C1856 578.7 1861.6 569.7 1860.8 560.5z"/><path fill="#FCAF17" d="M1694.9,753.8c-0.9-6.5-1.8-13-2.7-19.5c-0.7-4.8-7.5-3.6-8.4,0.5c-0.3-1-0.5-2-0.8-3 c-1-3.2-4.6-3.9-6.8-2.2c-0.7-3.4-1.7-6.8-3.1-10.1c-1.5-3.8-7-4.4-8.3,0c-0.1,0.3-0.2,0.5-0.2,0.8c-0.3-1.8-0.7-3.6-1.1-5.3 c-1.1-4.5-6.9-3.7-8.3,0c-2.4,6.4-4.9,12.9-7.3,19.3c-0.6-8.8-1.6-17.6-2.9-26.4c-0.7-4.5-7.1-3.7-8.3,0l-1.3,4.1 c-0.7-3.6-6.1-5.4-8-1.6c-4,8.5-8,17-12,25.5c0-6.6,0-13.3,0-19.9c0-5.6-8.6-5.6-8.6,0c0,13,0,26.1,0.1,39.1c0,4.1,6.1,6.2,8,2.2 l12.5-26.6c0.1,2,0.1,3.9,0.2,5.9c0.1,4.9,7,5.8,8.5,1.1c1-3,1.9-5.9,2.9-8.9c0.8,8.8,1.2,17.7,1.2,26.6c0,5.1,6.8,5.5,8.5,1.1 c3-7.9,6-15.7,9-23.6c0.2,4.2,0.1,8.5-0.3,12.8c-0.5,5,7.1,5.6,8.5,1.1c1-3.5,2.1-7,3.1-10.5c0.6,4.9,0.6,9.9-0.1,15 c-0.8,5.4,6.6,7.7,8.3,2.3c0.1-0.3,0.2-0.5,0.2-0.8c0,1.1-0.1,2.2-0.2,3.4c-0.4,4.5,5.9,5.5,8,2.2c0.6-0.9,1.1-1.8,1.6-2.7l0,0.3 C1687.3,761.6,1695.6,759.2,1694.9,753.8z"/><path fill="#FCAF17" d="M1729.3 716.5c-3.6 1.4-7.2 2.8-10.8 4.2.5-.4 1.1-.9 1.6-1.3 2.8-2.4 5.2-6.7 4.8-10.2 2.7-1.9 2.4-7.1-1.3-7.8-20.9-3.5-41.7-2.4-62 3.6-4.9 1.4-3.4 8.5 1 8.5-6.2 1.3-12.4 2.7-18.6 4.2-5.4 1.3-3.1 9.5 2.3 8.3 13.7-2.9 27.4-5.8 41.1-8.7 4.3-.8 8.7-1.6 13-2.3 4.3-.7 8.6-1.4 12.8-2.1 5.5-1 5.1-.6-1 1.5-1.7 1.2-3.5 2.4-5.2 3.6-7.8 5.4-15.6 10.8-23.5 16.2-3.8 2.6-1.5 9.8 3.3 7.9 12.4-4.8 24.8-9.6 37.2-14.4-3.5 11.8-9 22.7-16.8 32.4-3.4 4.3 2.6 10.5 6.1 6.1 10.5-13.1 17.6-27.9 21.1-44.4C1735.2 718.9 1732.6 715.3 1729.3 716.5zM1685.3 709c-6.6 1.2-13.3 2.5-19.9 3.9 6.9-1.9 13.8-3.3 20.7-4.1-.1 0-.2 0-.3.1C1685.7 708.9 1685.5 709 1685.3 709zM1373.6 690.3c-1.6 6.9-5 12.2-10.5 16.7-3.7 3-3.1 9.1 0 12.2 3.6 3.6 8.6 3 12.2 0 7.5-6.1 12.8-14.8 15-24.3C1392.7 684 1376.1 679.4 1373.6 690.3zM1448.3 599.2c-4.9-1.3-8.9 1.6-10.6 6-1.8 4.8-3.7 9.5-5.5 14.3-1.7 4.4 1.8 9.5 6 10.6 4.9 1.3 8.9-1.6 10.6-6 1.8-4.8 3.7-9.5 5.5-14.3C1456 605.4 1452.5 600.3 1448.3 599.2zM1570.3 680.7c-13.2-.8-25-11.8-36-18.3-13.1-7.7-27-13.9-41.2-19.3-10.4-3.9-14.9 12.8-4.6 16.6 14.8 5.5 28.9 12.5 42.4 20.7 12.7 7.7 24 16.5 39.4 17.4C1581.5 698.7 1581.4 681.4 1570.3 680.7zM1592 790.6l-19.5-6.4c-10.6-3.5-15.1 13.2-4.6 16.6 6.5 2.1 13 4.3 19.5 6.4C1598 810.7 1602.6 794.1 1592 790.6zM1658.9 670.7c-9.4.2-18.8.4-28.3.6-4.3.1-8.5.3-12.7 1.3-2.6.7-6.7 5.5-8.9 5.4-11.1-.8-11 16.5 0 17.3 3.8.3 6-.5 9.4-2.2 1.3-1 2.6-2 3.7-3.2 2-1.8 6.1-1.3 8.5-1.3 9.4-.2 18.8-.4 28.3-.6C1670 687.7 1670 670.5 1658.9 670.7z"/><path fill="#FCAF17" d="M1778.6 710.8c-12.8.1-25.7.2-38.5.3-11.1.1-11.1 17.3 0 17.3 12.8-.1 25.7-.2 38.5-.3C1789.7 728 1789.7 710.7 1778.6 710.8zM1809.4 722.5c-5.2 0-8 4-8.6 8.6-1.2 9.2-3.4 18.3-6.3 27.1-3.4 10.6 13.2 15.1 16.6 4.6 3.4-10.4 5.5-20.9 6.9-31.7C1818.7 726.5 1813.7 722.5 1809.4 722.5zM1838.1 673.8c-9.8 6.6-18 14.9-24.4 24.9-6.1 9.4 8.9 18 14.9 8.7 4.8-7.4 10.9-13.8 18.2-18.7C1856 682.5 1847.4 667.5 1838.1 673.8zM1695.1 623.7c-2.7-.1-5.1-.6-7.5-1.5 1.1-3.1 1.1-6.6-.3-10-1.5-3.6-4.1-6.3-8.3-6.3-22.2.1-44.5.1-66.7.2-11.1 0-11.1 17.3 0 17.3 17.9 0 35.7-.1 53.6-.1-.4 2.5.3 5.1 2.5 7 7.8 6.7 16.5 10.3 26.8 10.8C1706.3 641.4 1706.2 624.2 1695.1 623.7zM1729.1 572.1c-2.9-.6-5.7-1.2-8.6-1.9-4.6-1-9.3 1.3-10.6 6-1.2 4.3 1.4 9.6 6 10.6 2.9.6 5.7 1.2 8.6 1.9 4.6 1 9.3-1.3 10.6-6C1736.3 578.4 1733.7 573.1 1729.1 572.1zM1576.7 553.4c-11.1 0-11.1 17.3 0 17.3S1587.8 553.4 1576.7 553.4z"/><path fill="#414042" d="M1958.3,639c-19.9-0.1-39.4,3.1-58.5,9.3c-19.5,6.5-37.6,12.6-54.4,25.6c-4.9,3.8-0.2,12.7,4.7,8.8 c7.1-5.5,14.4-10.1,22.3-14.1c8.6-4.3,17.8-6.1,26.6-9.4c19-7.1,39.1-10.2,59.2-10.1C1964.3,649.3,1964.3,639,1958.3,639z"/><path fill="#FCAF17" d="M1448.1 537c-5.3 1.8-10.6 3.6-15.9 5.4-5.8 2-12.6 5.4-18.9 4.5-5.4-.9-7.8 7.5-2.3 8.3 13 2 27.3-5.7 39.4-9.9C1455.7 543.6 1453.4 535.2 1448.1 537zM1508.8 540.5c-4.8-.1-9.1-1.6-13.1-4.3-4.6-3.1-8.9 4.4-4.4 7.5 5.2 3.5 11.2 5.3 17.5 5.5C1514.4 549.2 1514.3 540.6 1508.8 540.5z"/><path fill="#6D6E71" d="M1875.9 522.1c-.9-1.2-1.7-1.9-3.1-2.4-1-.4-2.1-.3-3.1-.1-2.1.3-3.9 2.1-4.4 4.1-.7 2.3.8 4.7 3 5.3 1.2.3 2.3.1 3.3-.4 1 .1 2 0 2.8-.5C1876.2 526.9 1877.4 524 1875.9 522.1zM1876.2 484.6c-2.3-5.2-4.6-10.4-6.8-15.6-2.2-5.1-9.7-.7-7.5 4.4 2.3 5.2 4.6 10.4 6.8 15.6C1870.9 494.1 1878.4 489.7 1876.2 484.6zM1834.8 371.4c-2-5.1-10.4-2.9-8.3 2.3 1.9 4.6-3.7 5.1-5.7 8.3-2.6 4-1 8.8 3.3 10.4 4 1.6 6.2-3.1 4.7-6.2.4-.3.9-.5 1.3-.8 1.7-1 2.9-2.4 3.9-4C1835.9 378.6 1836 374.5 1834.8 371.4zM1822.1 349.4c-1.7-2.5-3.4-5-5.1-7.5-1.3-1.9-3.8-2.8-5.9-1.5-1.9 1.1-2.9 4-1.5 5.9 1.7 2.5 3.4 5 5.1 7.5 1.3 1.9 3.8 2.8 5.9 1.5C1822.5 354.2 1823.4 351.4 1822.1 349.4zM1704.3 318.2c-5.4-.9-10.7-1.8-16.1-2.6-5.4-.9-7.8 7.4-2.3 8.3 5.4.9 10.7 1.8 16.1 2.6C1707.5 327.4 1709.8 319.1 1704.3 318.2zM1593.3 333.6c-5.6 0-5.6 8.6 0 8.6C1598.9 342.2 1598.9 333.6 1593.3 333.6zM1893 611.7c-3.5 3.9-6.1 8.2-8 13.1-.9 2.2.9 4.7 3 5.3 2.4.7 4.5-.8 5.3-3 1.3-3.4 3.4-6.6 5.8-9.3C1902.9 613.7 1896.8 607.6 1893 611.7z"/><path fill="#414042" d="M1920.5,616.7c-6.6,1.5-13.2,3.1-19.9,4.6c-5.4,1.3-3.1,9.6,2.3,8.3c6.6-1.5,13.2-3.1,19.9-4.6 C1928.2,623.7,1925.9,615.4,1920.5,616.7z"/><path fill="#6D6E71" d="M1557,563.4c-9.2,2.5-16.6,10.3-18,19.8c-0.3,2.3,0.5,4.6,3,5.3c2,0.6,4.8-0.6,5.3-2.9 c1.1,0.6,2.5,0.7,4-0.1c6.8-3.6,10.8-10.4,11.2-18.1C1562.6,564.7,1559.6,562.7,1557,563.4z"/><path fill="#58595B" d="M1916.9 621.8c-1.8-1.8-4.3-1.5-6.1 0-4.3 3.4-4.9 9.2-2.9 14 .9 2.2 4.1 2.6 5.9 1.5 2.2-1.3 2.5-3.7 1.5-5.9.2.5-.1-.8 0-.2-.1-.8-.1-.8.1-1.3.2-.9.5-1.3 1.5-2.1C1918.7 626.4 1918.4 623.3 1916.9 621.8zM1740.6 548.5c-10.8-13.4-27.7-12.4-43.2-10.5-6.4.8-20.4.7-28.2 5.2-8.9.5-17.8 1.5-26.7 2.8 0-2.4-1.9-4-3.9-4.5 1.1-.5 2-1.1 2.9-2.1 2.6-2.9 2.6-3.8 2.2-7.9-.8-6.8-1.6-13.6-2.4-20.4-.1-1.2-.6-2.1-1.3-2.8-3.2-12-10.3-24-14.7-33.6-.6-1.3-1.5-2-2.5-2.2 0-.8-.1-1.8-.4-2.8-.5-1.9-1.5-3.5-2.8-4.6.1-.9 0-1.9-.3-3.1-1.9-6.9-13.7-4.5-18.5-4.5-5.3-.1-5.5 7.8-.7 8.5.1.4.3.8.7 1.2 2.1 2.7 3.9 5.5 5.6 8.3-.2.1-.3.2-.5.4-1.5 1.2-1.6 3.7-.7 5.2.7 1.1 1.4 2.3 2 3.4-.1.6-.1 1.2 0 1.8 1.1 5.1 2.2 10.1 3.3 15.2-.1 1.1-.3 2.2-.4 3.3-.2 1.6.9 3.5 2.3 5.4.6 2.7 1.2 5.3 1.7 8 .4 1.7.8 3.6 1.2 5.5-.1.5-.1 1-.1 1.5-.6 7.3.4 17 7.4 20.2 2 .9 5.1.6 6.7-1.3.6-.7 1.1-1.4 1.6-2.1 1.4.2 2.7.3 4.1.2-.5.5-.9 1.2-1 2.1-.1.7-.2 1.4-.3 2.1-2.3-.1-4.5 1.1-4.2 4.1.5 4.3 1.1 8.7 1.6 13 .5 4.4 7.7 6.4 8.5 1.1l.1-.9c29.9 1.6 59.7 3.2 89.6 4.7.9.4 1.8.7 2.9.8C1746.6 572.1 1747.5 557 1740.6 548.5zM1831.4 552.6c-.8-1.4-1.4-2.7-2.1-4.1-.8-4.1.8-9.5.9-12.9.2-4.6-1.2-9.3-2.9-13.5-1.7-4-4.9-9-8.8-12.5.3-.6.6-1.2.9-1.8 1.6-4.3-2.2-8-5.7-9.2-2.4-.8-4.5 1-5.3 3-.5 1.1-.8 2.2-.9 3.3-4.7.2-9.7 2.8-8.2 8.6 1.4 5.2 4.7 9.3 7.6 13.8 3.9 5.9 7.8 11.9 11.7 17.8.9 3 2.2 5.9 3.7 8.7.4 1.1 1 2.1 1.7 3.1 0 0 0 0 0 .1 0 0 0 0 0 0 .2.3.4.6.7.9C1827.8 561.7 1833.8 556.8 1831.4 552.6zM1858.6 477.4c-.9-1.3-2.2-1.9-3.5-1.9-1.2-5.5-2.2-11.1-3.1-16.7-.5-3.2-3.5-3.7-5.8-2.6-1.7-7.2-3.8-14.4-6.4-21.4-.7-2.1-3-3.8-5.3-3-6.7 2.4-7.3 7.7-6.5 14.1.8 6.2 2.2 12.3 3.7 18.5 1 5.3 2.5 10.6 4.4 15.8.6 1.6 1.8 2.5 3.2 2.8-.2 2.6 1.1 5 3.5 6.4 0 0 0 .1 0 .1.3 4.5 5.5 5.4 7.7 2.6 0 .2.1.3.1.5 2.3 8 3 16.1 10.9 19.7 2.9 1.3 6.4-.2 6.5-3.7C1868.3 497.2 1865.2 486.7 1858.6 477.4zM1874.5 611.7c-1-1.4-2.5-2-4-2-.3-.3-.6-.6-1-.8-7.6-4-14.2.1-19.7 5.8-3.9 4.1-8.5 4.1-11.9 8.4-3.8 4.8-7.9 9.6-11.4 14.6-3.6 5.1-.3 9.1 4 11.1-14.3 3.2-28.6 2.4-42.7-2.1-1.5-.5-2.7-.2-3.6.6-7.9.6-15.8 1.3-23.7 1.9-5.5.4-5.5 9.1 0 8.6 8.3-.7 16.7-1.3 25-2 .5 0 1-.2 1.4-.4 16.1 4.9 32.7 5.1 49.1.9 3.3-.9 3.7-4.3 2.3-6.5 2.9-.6 4.8-2.3 6.1-4.6 1.1 1.6 2.4 2.8 4.2 3.4 1.4.4 3.3 0 4.2-1.1 1.4-1.6 2-3.8 2.2-6.2 1.9 1.5 4.7 1.3 6.1-.9.7.2 1.5.3 2.4.1C1876.7 637.4 1882.4 623.1 1874.5 611.7zM1999.3 290.9c-5.8-5.8-16.2-2.8-23.2-2-11.9 1.4-23.8 2.7-35.7 4.1-3.6.4-6.4 1.1-9.6 2.7-.6.3-1.5 1.3-2.5 2.6-1.1.1-2.2.3-3.3.5-3.4.6-3.8 4.3-2.2 6.6-1 1-1.9 1.6-2.5 1.3-4.9-2.7-9.2 4.8-4.4 7.5 3.2 1.7 7 2 10.1.3.7 1.1 1.9 2 3.4 2.2 9.7 1.3 18.9.2 28-3.2.6-.2 1.1-.5 1.5-.8 3.2-.1 6.4-.2 9.5-.1 5.6 2.6 11 5.9 15.8 10 .3.6.6 1.2.9 1.9 2.1 4.1 4.5 6.4 8.7 8 2 .7 3.6 0 4.4-1.4 1-.8 1.7-2 1.7-3.3 0-1.5 0-2.9.1-4.4.4-1.9.4-4-.1-6.4-.1-.3-.1-.6-.2-.8.6-.7 1-1.6 1.1-2.8C2001.1 305.7 2005.6 297.2 1999.3 290.9zM1994.1 300.8c0 .2 0 .3 0 .5-.7-1.8-1.6-3.4-2.8-4.8C1992.9 297.1 1994 298.3 1994.1 300.8z"/><path fill="#58595B" d="M1982.7 451.5c4-43.4 2.9-86.8-3-130-.2-1.4-1.7-2.7-3-3-7.8-2.1-17.9-4.4-25.5-.2-9.3 5.2-10.6 14.5-10.1 24.3 1.5 31.9 3.6 63.7 5.4 95.6.2 4.3-.2 11.4 1.4 17l-1.8 11.5c-.3 1.8.4 3.2 1.5 4.1-.4 4.5.2 9.4 1 14 .3 1.7.6 3.3.8 5-.6 16.6-.7 33.1-.3 49.7-.6.7-1 1.6-.8 2.8.4 3.4.8 6.9 1.2 10.3-2.3-.1-4.8 1.5-4.7 4.2.5 12.4 1.1 24.8 1.6 37.1.2 4 4.5 5.4 7.4 3.1 1.4-1.1 2.8-2.2 4.1-3.4.5.3 1.1.6 1.6.8 2.2.9 4.8-.9 5.3-3 .1-.4.2-.9.3-1.3 2 2.4 7 2 7.5-1.6 0-.3.1-.7.1-1 2.7 1.2 7-1.1 6.3-5.1-.7-3.7-1.1-7.4-1.3-11.1 1.5-.1 2.8-1.1 3.2-3.1 1.8-10.6.9-20.6-3-30.5.2-2.9.3-5.7.4-8.6.2-.4.4-.9.5-1.4 2.6-16.9 3.2-34.1.6-51.1-.3-1.9-.8-4.2-1.6-6.5.7-.7 1.2-1.7 1.2-3.1 0-3.9-.1-7.7-.2-11.5C1980.8 455.3 1982.5 453.8 1982.7 451.5zM1975 407.4c.5.1.9.2 1.4.1 0 3.1-.1 6.2-.2 9.3-.4-3.1-.8-6.2-1.2-9.3C1975 407.4 1975 407.4 1975 407.4zM1983.2 601c-.1-1.5-.8-2.6-1.8-3.4.4-3-2.9-6.4-6.5-4.6-6.2 3.1-12.4 6.2-18.6 9.3-.3.1-.6.3-.9.4 0 0 0 0-.1 0-1.4.7-2.8 1.4-4.2 2.1-4 2-1.7 8.6 2.4 8.1-.4.9-.6 2-.4 3-.7.6-1.2 1.4-1.4 2.5-2.2-.7-4.9.2-5.7 2.8-1.1 3.9-1.1 7.1.2 10.4-4.5.9-9 1.4-13.6 1.6-3 .1-6.1.1-9.1.1-.3 0-1.6 0-3.3-.2 5.2-11.7-11.7-12.4-17.2 2.2-3.1 8.2 5.9 5.8 12.4 6.3 12.3.9 25.2.5 37.1-2.8.4 3.8 6.1 5.8 8 1.9.5-1.1 1-2.2 1.4-3.2.3 1.4.7 2.9 1.1 4.3 1.5 4.9 8 3.6 8.5-1.1.1-.9.1-1.7.2-2.6.1 0 .2.1.3.1.1.9.2 1.7.3 2.6.6 4.2 7.7 4.1 8.3 0C1982.8 627.7 1983.7 614.4 1983.2 601zM1960.2 610c1.5-.8 3.1-1.5 4.6-2.3-.1.3-.1.6-.2.9C1963.3 609.1 1961.8 609.6 1960.2 610zM2228.1 773.4l-91.1 2.1c-7.9.2-15.7.4-23.6.6-1.7 0-3.6 0-5.5.3-1-1-1.9-2-2.8-2.9 9.2.5 18.4-.3 27.6-2.5 1.2-.3 2.1-1 2.5-1.8 16.6.2 33.2-.4 49.7-1.8 5.5-.5 5.5-9.1 0-8.6-22.7 2-45.4 2.4-68.2 1.2-1.5-.1-2.5.5-3.2 1.3-7.3-.5-14.4.3-21.6 2.2-.2.1-.4.1-.5.2.5-8.6-.6-17.2-3.3-25.7-.4-7.2-1.2-14.2-1.5-20.1-.1-1.7-.2-3.4-.2-5.2 9.1-58.3 9.2-117.3.4-175.6-.2-11.4-.7-22.9-1.2-34.3-.2-4.3-5.4-5.3-7.6-2.9-1.2-4.7-8.4-2.7-8.2 2.2-.6.7-.9 1.5-1 2.5-1.7 32.4-2.2 64.8-1.7 97.2-.3 4.6-.6 9.2-.8 13.9-.1.1-.3.1-.4.2-8.3 4.1-20.9-4.9-28.2 3.2-.5.5-.9 1.1-1.3 1.7-.4-.2-.8-.5-1.2-.8 0-3.4.1-6.8.1-10.3.9-4.9 1.8-9.8 2.5-14.7 1.7-10.6 1.4-20.8-3-30.6-.4-16.6-1.1-33.2-2-49.7-.3-5.5-8.9-5.6-8.6 0 1 17.7 1.7 35.4 2.1 53.2-2.1 11.9-3.6 23.9-4.5 36-.4 5.7-.1 12 2.6 17.1-.9 4.6-1.8 9.3-2.6 13.9-.6 3.1 1.9 6.3 5.3 5.3 1.6-.5 3.2-.9 4.8-1.4 1.9-.6 3.1-2.2 3.2-4.2 0-.7 0-1.5 0-2.2.4.9 1 1.7 1.7 2.5 2.8 3.4 7.1.3 7.1-3.2 7.7 1.3 16.4 1.1 22.2-2.1-.2 15.4.4 30.8 1.8 46.1-1.1 13.5-.9 26.9 2.6 40-2.9-2-7.9.3-6.7 4.6.9 3.1 1.6 6.2 2.3 9.3-.2.5-.2 1.1-.2 1.7.3 3.4.7 6.9 1 10.3.1 1.3.8 2.4 1.8 3.2 1 8.2 1.5 16.5 1.3 24.9 0 1.4.7 2.6 1.7 3.4-.7 2.2.1 5 2.8 5.5 8.4 1.6 16 4.8 22.8 10.1 2.1 1.6 5 1.4 6.4-.4 1.4.9 3.3 1.2 5.4.5 1.8-.6 2.8-1.9 3.1-3.7.5 0 .9-.1 1.4-.3 2.2-.1 4.5-.1 6.7-.2l16.9-.4c10.1-.2 20.2-.5 30.4-.7 20.2-.5 40.5-1 60.7-1.4C2233.6 781.9 2233.6 773.3 2228.1 773.4zM2075.8 602.6c-.1-1.1-.1-2.3-.1-3.5 0-.6-.1-1.1-.3-1.6-.1-6.6-.1-13.2-.1-19.8.2 1.8.4 3.6.6 5.3C2076 589.6 2075.9 596.1 2075.8 602.6zM2083.7 657c-.4-7.7-.7-15.4-1.1-23.2.3-3.5.5-7 .7-10.5.2-1.2.3-2.4.5-3.6.3-2.4.5-4.7.8-7.1C2084.9 627.4 2084.6 642.2 2083.7 657zM2096.2 774.8l-.1 2.9c-2-1.2-4-2.2-6.1-3.2.2-1.1.4-2.2.6-3.3.4.3.9.5 1.4.6 1.7.3 3.3.6 4.9.8C2096.5 773.3 2096.2 774 2096.2 774.8z"/><path fill="#414042" d="M1498.7,416.2c2.1,2.3,4.7,2.8,7.7,3.1c2,0.2,2-0.5,2,1.4c0,1.6,0.1,3.3,0.8,4.8 c3.2,6.5,10.8,5.9,14.8,0.7c1.4-1.8,0.4-4.9-1.5-5.9c-0.9-0.8-1.9-0.9-3-0.4c1.5-0.6,3.4-0.6,5-0.9c3.6-0.6,7.2-1.3,10.8-1.9 c-0.8-2.8-1.5-5.5-2.3-8.3c-4.7,1.7-9.4,3.4-14,5c-3.2,1.2-4,4.6-1.9,7.2c0.3,0.4,0.7,0.8,1,1.2c3.5,4.3,9.6-1.8,6.1-6.1 c-0.3-0.4-0.7-0.8-1-1.2c-0.6,2.4-1.3,4.8-1.9,7.2c4.7-1.7,9.4-3.4,14-5c5.3-1.9,3.2-9.3-2.3-8.3c-6.3,1.1-15,0.9-20,5.3 c-5.3,4.7,0.9,11.5,5.1,13.6c-0.5-2-1-3.9-1.5-5.9c2-2.6-0.3-7.9-2.8-9.4c-2.3-1.4-7.3-0.7-8.9-2.4 C1501,406,1495,412.1,1498.7,416.2L1498.7,416.2z"/><path fill="#FBB040" d="M1498.2,388.4c7.3-0.9,14.6-1.9,21.9-2.8"/><path fill="#F7941E" d="M1498.2,392.7c7.3-0.9,14.6-1.9,21.9-2.8c5.4-0.7,5.5-9.3,0-8.6c-7.3,0.9-14.6,1.9-21.9,2.8 C1492.7,384.8,1492.7,393.4,1498.2,392.7L1498.2,392.7z"/><path fill="#6D6E71" d="M1508.6 437.9c3.6 1.7 7.2 2.7 11.1 3.1 4.8.5 5.9-7.5 1.1-8.5-3-.6-5.8-.2-8.5 1.2-2.1 1.1-2.7 3.9-1.5 5.9 1.2 2.1 3.8 2.6 5.9 1.5.6-.3 1.2-.4 1.8-.3.4-2.8.8-5.6 1.1-8.5-2.3-.2-4.7-.9-6.8-1.9-2.1-1-4.6-.6-5.9 1.5C1505.9 433.9 1506.4 436.9 1508.6 437.9L1508.6 437.9zM1533.3 336.1c5.7.8 11.1.7 16.7-.3-1.6-.7-3.2-1.3-4.9-2 .6 1 .6 3-1.1 2.1-2-1-4.8-.6-5.9 1.5-.5.9-1 1.9-1.5 2.8 2.5 0 5 0 7.5 0-.8-1.6-1.7-3.2-2.5-4.7-2.6-4.9-10.1-.5-7.4 4.4.8 1.6 1.7 3.2 2.5 4.7 1.5 2.8 6 2.8 7.5 0 .5-.9 1-1.9 1.5-2.8-2 .5-3.9 1-5.9 1.5 4.2 2.1 8.7 1.5 12.1-1.8 3.2-3.1 3.2-8.6.8-12.2-1.2-1.7-2.8-2.4-4.9-2-4 .7-8.1.9-12.1.3-2.3-.3-4.6.5-5.3 3C1529.7 332.8 1530.9 335.8 1533.3 336.1L1533.3 336.1z"/><path fill="#414042" d="M1547.2 348.6c-.5 5.4 3 9.4 8.3 10 5 .6 8.7-5.5 6.9-9.8-2.1-5-9.9-3.2-8.3 2.3 1.1 4 1.6 8.1 1 12.3-.3 2.3.5 4.6 3 5.3 2 .6 5-.7 5.3-3 .8-5.7.6-11.3-1-16.9-2.8.8-5.5 1.5-8.3 2.3.5-1 1.1-1.4 1.8-1-.1-.5-.1-1 0-1.5C1556.4 343 1547.7 343.1 1547.2 348.6L1547.2 348.6zM1585.3 383.9c-.2 3.3-.5 6.6-.7 10-.4 5 7.1 5.7 8.5 1.1 5.3-17.6-5.2-47.5 19.6-52.6 10.8-2.2 23-.3 33.9 0 12.6.4 25.2.7 37.8 1.1 24.7.7 49.6 2.5 74.3.5 5.5-.4 10.9-1.4 16.5-1.5 6.2-.1 11 2.8 15.1 7.2 7.3 7.8 10.7 18.7 17.4 27 1-2.5 2-4.9 3.1-7.4-4 .3-6.2-4.8-8.2-7.7-2.5-3.7-5.5-7.1-8.8-10.1-6.2-5.8-13.8-9.8-21.9-12.4-.8 2.8-1.5 5.5-2.3 8.3 3.1.4 6.4 0 9-.3-3.8.3-8.8-1.9-12.5-2.6-9-1.7-18.2-2.6-27.3-3.2-18.3-1.1-36.8-.2-55.1 0-18.5.2-36.4-1.5-54.7-3.1-14.8-1.3-31 2.9-37.1 17.8-2 4.8 5.3 7 7.9 3.3 6.8-9.7 24.8-7.9 35.1-8.5 15.2-1 30.5-2 45.7-3 29.9-1.9 59.9-3.4 89.8-.6-.4-2.8-.8-5.6-1.1-8.5-4.4 1.6-5.1-1.2-7.7-3.8-2.8-2.9-10.9-2.2-14.7-2.5-11.7-.8-23.4-.3-35.1.1-23.6.8-47.1 1.6-70.7 2.4-5.5.2-5.6 8.8 0 8.6 19-.6 38-1.3 57-1.9 19.7-.7 39.7-2.3 59.3.5-.9-.7-1.7-1.3-2.6-2 2.9 6.2 10.3 9.2 16.7 6.9 4.7-1.7 3.8-8-1.1-8.5-32.5-3.1-65.1-1-97.6 1.1-16.6 1.1-33.2 2.2-49.9 3.3-11.4.7-23.5 2-30.6 12 2.6 1.1 5.3 2.2 7.9 3.3 7.7-18.6 36.5-10.2 51.2-9.1 20.3 1.6 40.6.5 60.9.3 20.4-.2 40.9.5 60.8 5.4 5.9 1.4 15.2.8 15.2-7.4 0-3.4-2.2-5.9-5.1-7.4-3.6-2-7.4-.4-11.2-1-5.4-.7-7.7 6.6-2.3 8.3 9.3 2.9 17.1 8.3 23.4 15.7 5 5.9 8.4 15.4 17.7 14.8 3.9-.3 5.5-4.4 3.1-7.4-7.2-8.7-10.6-19.8-18.5-28.1-8.5-9-19.4-9-30.9-7.6-27 3.3-54.9.8-82 0-13.9-.4-27.9-.8-41.8-1.2-11.3-.3-23.5-1.8-34.5 1.5-9.9 3-15.7 11.4-18.1 21-2.9 12 .4 24.6-3.2 36.5 2.8.4 5.6.8 8.5 1.1.2-3.3.5-6.6.7-10C1594.3 378.4 1585.7 378.4 1585.3 383.9L1585.3 383.9z"/><path fill="#FBB040" d="M1853.6,368.9c0.7,2.7,3.7,4.6,6.5,4.1c0.8-1.2-2.1-2.4-1.6-3.8c0.3-0.7,1.4-0.8,2-0.3 c0.6,0.5,0.8,1.3,0.9,2.1c1,5.3,0.8,10.8-0.5,16.1c-0.8-2.9-1.6-5.8-2.4-8.7c-0.2,2.5-0.3,5.1,0.3,7.5c0.6,2.4,2.2,4.8,4.6,5.6"/><path fill="#F7941E" d="M1849.4,370.1c1.8,4.6,5.5,7.6,10.6,7.2c1.8-0.1,3.7-1.2,4.2-3.2c0.3-1.5,0.3-2.6-0.3-3.9 c-0.2-0.6-0.5-1.1-1-1.5c-0.7-1-0.7-0.8-0.1,0.5c-0.4,1-0.8,2-1.3,3.1c0.2-0.2,0.3-0.3,0.5-0.5c-1,0.4-2,0.8-3.1,1.3 c-1.9-1.5-2.4-1.1-1.5,1.2c0.1,1.1,0.2,2.2,0.2,3.2c0.1,2.9-0.3,5.7-0.9,8.5c2.8,0,5.5,0,8.3,0c-0.8-2.9-1.6-5.8-2.4-8.7 c-1.3-4.9-8.2-3.6-8.5,1.1c-0.4,6.6,0.5,13.7,7,16.9c5,2.4,9.3-5,4.4-7.5c-3.6-1.8-3-6.1-2.8-9.5c-2.8,0.4-5.6,0.8-8.5,1.1 c0.8,2.9,1.6,5.8,2.4,8.7c1.1,4,7.4,4.3,8.3,0c0.9-4.1,1.3-8.2,1.2-12.4c-0.1-3-0.2-9.2-3.6-10.7c-2.9-1.2-6.1-1.2-7.9,1.8 c-1.8,3.1,0.5,5,1.7,7.5c-0.1-1.1-0.3-2.2-0.4-3.3c0,0.2-0.1,0.4-0.1,0.6c1.4-1.1,2.8-2.1,4.2-3.2c-1,0.3-1.7,0-2.3-0.9 C1855.7,362.7,1847.4,364.9,1849.4,370.1L1849.4,370.1z"/><path fill="#A7A9AC" d="M1832,514.2c-0.1,4.6-0.3,9.2-0.4,13.8c-0.2,4.9,7.2,5.8,8.5,1.1c1.2-4.7,2.4-9.3,3.7-14 c-2.4,0.6-4.8,1.3-7.2,1.9c3.5,4,5.7,8.7,6.2,14c0.5,5.6,7.9,5.5,8.6,0c0.6-4.4,1.1-8.8,1.7-13.2c-2.5,1-4.9,2-7.4,3.1 c0.3,0.4-5.1,3.5-5.6,3.8c-2,1.2-4.3,3.6-4.9,5.9c-0.5,2.1-0.7,4.1,0.2,6.1c0.6,1.2,1.2,2,2,3c0.3,0.3,0.6,0.6,0.9,0.9 c1.4,1.8,3.4,1.8,5.9-0.1c0.1,1.1,0.3,2.2,0.4,3.3c0-0.2,0.1-0.5,0.1-0.7c0.6-4.5-5.4-8-7.9-3.3c-0.6,1.1-1.2,2.2-1.8,3.3 c2.6,0.3,5.3,0.7,7.9,1c-2.6-13.2-6.6-25.8-11.9-38.1c-1.8-4.1-8-1.8-8,2.2c0,5.2,2.1,9.4,4.9,13.7c2.4,3.7,8,10.5,3.8,14.7 c2.4,0.6,4.8,1.3,7.2,1.9c-1-6.5-2.3-13-2.4-19.6c-0.1-5.9,3.7-14.6,11.1-12.1c-0.6-2.4-1.3-4.8-1.9-7.2c-3,3.4-6,6.7-9,10.1 c-2.6,2.9-0.7,7.1,3.1,7.4c6.3,0.5,12-2.8,14.9-8.4c-2.5,0-5,0-7.5,0c2.8,4.4,5.4,8.9,7.7,13.7c1.4,2.8,2.6,5.7,3.7,8.6 c0.7,1.9,3,6,2.2,8c0.7-0.9,1.3-1.7,2-2.6c2.2-1.4-5-12-7-13.5c-3.7-2.8-8.4-2.9-12.5-1c-4.9,2.4-4.5,8.5-2.5,12.6 c1.4,2.8,4.5,5,6.7,7c3.3,3,6.6,5.9,9.9,8.9c3.1,2.7,8.5,0.1,7.2-4.2c-3.2-10.6-6.5-21.2-9.7-31.7c-2.6,1.1-5.3,2.2-7.9,3.3 c16.9,24.1,22.4,53.5,27.4,81.9c2.8-0.8,5.5-1.5,8.3-2.3c-3.3-12.4-14.2-20.9-26.9-21.7c1.2,2.2,2.5,4.3,3.7,6.5 c3.6-6.7,7.3-13.4,10.9-20.1c-2.6-0.3-5.3-0.7-7.9-1c0.9,6.2,0.3,12.2-1.5,18.1c-1.7,5.5,6.3,7.3,8.3,2.3 c7.2-17.9,5.8-38.1-3.3-55c-2.5,1.5-5,2.9-7.4,4.4c8.1,12.5,12.6,26.4,16.4,40.7c3.7,14.2,9.2,30.1,5,44.7c2.8,0,5.5,0,8.3,0 c-3.5-15.7-13.5-29.2-27.5-37.1c-4.5-2.5-8.2,3.1-5.2,6.8c6.4,8,12.8,16,19.2,24.1c3.5,4.4,9.5-1.8,6.1-6.1 c-6.4-8-12.8-16-19.2-24.1c-1.7,2.3-3.5,4.5-5.2,6.8c12.2,6.8,20.6,18.3,23.6,31.9c0.9,4.3,7.2,4,8.3,0 c4.5-15.8-0.7-32.2-4.6-47.6c-3.9-15.5-8.9-30.9-17.7-44.4c-3-4.7-10.1-0.6-7.4,4.4c8.1,15,8.8,32.6,2.4,48.4 c2.8,0.8,5.5,1.5,8.3,2.3c2.3-7.5,2.6-15,1.5-22.7c-0.6-3.8-6.2-4.1-7.9-1c-3.6,6.7-7.3,13.4-10.9,20.1c-1.6,3,0.4,6.3,3.7,6.5 c8.9,0.5,16.3,6.8,18.6,15.4c1.5,5.5,9.3,3.1,8.3-2.3c-5.2-29.2-11-59.3-28.3-84c-2.7-3.8-9.4-1.6-7.9,3.3 c3.2,10.6,6.5,21.2,9.7,31.7c2.4-1.4,4.8-2.8,7.2-4.2c-3.3-3-6.6-5.9-9.9-8.9c-1.9-1.7-3.9-3.2-5.4-5.3 c-1.3-1.8,1.5-0.9,2.3-0.5c3,1.5,4.1,8,5.4,10.8c1.4,3.1,4.6,4.7,7.9,4.6c15.4-0.7-5.9-35.6-9.2-40.8c-1.7-2.6-5.9-3-7.5,0 c-1.6,3.1-4,4.4-7.4,4.1c1,2.5,2,4.9,3.1,7.4c3-3.4,6-6.7,9-10.1c2.2-2.5,1.2-6.1-1.9-7.2c-8.2-2.8-16.5,2.5-19.9,9.9 c-4.6,9.9-0.9,22.3,0.7,32.5c0.5,3.3,5.1,4,7.2,1.9c4.2-4.2,4.5-9.6,3-15.1c-1.9-6.9-9.2-12-9.2-19.4c-2.7,0.7-5.4,1.5-8,2.2 c5,11.6,8.6,23.7,11,36.1c0.7,3.7,6.2,4.2,7.9,1c0.6-1.1,1.2-2.2,1.8-3.3c-2.6-1.1-5.3-2.2-7.9-3.3 c-1.6,11.2,16.4,7.5,11.1-2.4c-0.9-1.6-4.8-4.6-3.5-6.1c1.8-2,5.2-3.1,7.3-5c3.8-3.3,3.4-9.2,0.3-12.6 c-2.8-3.1-6.9-0.3-7.4,3.1c-0.6,4.4-1.1,8.8-1.7,13.2c2.9,0,5.8,0,8.6,0c-0.7-7.7-3.6-14.3-8.7-20.1c-2.2-2.4-6.4-1.1-7.2,1.9 c-1.2,4.7-2.4,9.3-3.7,14c2.8,0.4,5.6,0.8,8.5,1.1c0.1-4.6,0.3-9.2,0.4-13.8C1840.9,508.6,1832.2,508.6,1832,514.2L1832,514.2z"/><path fill="#6D6E71" d="M1509.3,723c2.3,7.1,7.1,12,14,14.8c1.7,0.7,4-0.5,4.9-2c3.4-6.1,1.4-12.6-2.8-17.8 c-5.6-6.8-11.6-13.3-17.5-19.9c-1.8-2.1-5.5-1.4-6.8,0.9c-4.1,7.2-1.2,15,4.3,20.6c2.9,3,6.7,5.1,9.9,7.6 c3.7,2.9,6.9,6.5,9.6,10.3c5.5,7.7,8,16.5,9.1,25.8c1,8.2,3.4,17,11.6,20.6c3.7,1.7,6.9-1,6.3-4.9 c-3.4-25.4-8.8-54.1-33.1-67.9c-4.8-2.7-9.2,4.7-4.4,7.5c22.1,12.5,26.1,39.8,29.2,62.7c2.1-1.6,4.2-3.2,6.3-4.9 c-8-3.6-7.2-14-8.4-21.4c-1.2-6.8-4-13.5-7.5-19.4c-3.6-6-8.4-11.2-13.8-15.5c-4.5-3.6-15.9-9.5-11.7-16.8 c-2.3,0.3-4.5,0.6-6.8,0.9c3.8,4.3,7.6,8.6,11.4,12.9c2.9,3.3,10.4,9.2,7.5,14.3c1.6-0.7,3.2-1.3,4.9-2c-3.9-1.6-6.7-4.9-8-8.8 C1515.9,715.5,1507.5,717.7,1509.3,723L1509.3,723z"/><path fill="#FBB040" d="M1997.6,567c-2.7,4.2-3.5,9.6-2.1,14.5s5.1,8.9,9.7,10.9c-2.1-6.1-3.7-12.3-4.7-18.7 c-0.3-1.8-0.5-3.9,0.6-5.4c1.3-1.8,3.9-2,6.2-2c3.3,0,7.3,0.3,8.7,3.3c0.4,0.9,0.6,1.9,0.7,3c0.8,7.1,1.6,14.2,2.3,21.4 c-2.4,0.9-4.9,1.3-7.5,1c-1.3-4.1-2.6-8.2-3.9-12.2c-0.7-2.2-1.4-4.5-1.1-6.9c0.3-2.3,1.9-4.7,4.2-5c2.5-0.4,4.8,1.7,5.7,4 c0.9,2.4,0.6,5,0.4,7.5s-0.3,5.1,0.8,7.4c-1.1-4.3-2.3-8.6-3.4-12.9c-0.3-1.1-0.6-2.2-1.4-3c-0.8-0.8-2.2-1-3-0.2"/><path fill="#F7941E" d="M1993.9,564.9c-6.6,11.3-2.7,25.5,9.1,31.3c3.1,1.5,7.7-1,6.3-4.9c-1.3-3.9-2.4-7.8-3.4-11.8 c-0.4-1.7-0.7-3.4-1-5.2c-0.6-3.3,0.8-3.7,3.6-3.7c5.2,0.1,4.2,5.7,4.7,9.7c0.5,4.5,1,9.1,1.5,13.6c1.1-1.4,2.1-2.8,3.2-4.2 c-2.2,0.7-4,1-6.3,0.9c1.4,1.1,2.8,2.1,4.2,3.2c-0.9-2.9-1.9-5.8-2.8-8.7c-0.4-1.2-0.7-2.3-1.1-3.5c-0.2-0.6-0.3-1.1-0.5-1.7 c-0.8-1.5-0.5-2.8,0.8-4c1.4,1.9,0.4,5.8,0.3,8c-0.2,2.4,0.2,4.8,1,7.1c1.9,5.2,9.8,3.2,8.3-2.3c-1.7-6.4-3.4-24-14.1-18.6 c-5,2.5-0.6,9.9,4.4,7.5c-2.1-1.1-2.8-0.9-2,0.6c0.3,1.2,0.7,2.4,1,3.7c0.8,3.1,1.6,6.1,2.4,9.2c2.8-0.8,5.5-1.5,8.3-2.3 c-1.9-5.2,0.8-10.8-1.6-15.9c-1.7-3.6-6.2-7.5-10.6-6c-13.1,4.4-5,20.6-2.2,29.4c0.6,1.9,2.2,3.1,4.2,3.2 c3,0.1,5.8-0.2,8.6-1.2c1.7-0.6,3.4-2.2,3.2-4.2c-0.9-8-1.6-16.1-2.7-24c-0.9-6.4-8.1-7.9-13.3-7.9c-5.4-0.1-11.5,2.6-11.3,8.9 c0.2,7.6,2.6,15.5,5.1,22.6c2.1-1.6,4.2-3.2,6.3-4.9c-7.6-3.8-10.4-12-6.1-19.5C2004.2,564.4,1996.7,560.1,1993.9,564.9 L1993.9,564.9z"/><path fill="#A7A9AC" d="M1982.4,608.5c3.7,10.6,4.3,21.4,1.5,32.3c2.8,0.4,5.6,0.8,8.5,1.1c0.1-7.3,0.2-14.7,0.3-22 c0.1-5.6-8.5-5.6-8.6,0c-0.2,9.8-0.3,19.5-0.5,29.3c-0.1,5.4-2.7,18.6,5.4,19.8c2.7,0.4,5.5-1.1,5.5-4.2 c-0.1-2.7,0.4-4.8,1.8-7.1c-2.6-0.3-5.3-0.7-7.9-1c2.4,9.5,8.4,17.4,17,22.2c2.1,1.2,4.7,0.5,5.9-1.5 c3.6-5.7,1.5-13.7-4.7-16.5c-3.5-1.6-8.6,2-5.9,5.9c5.1,7.2,14.8,4.7,18.4-2.7c2.3-4.7,1.7-10.6,1.7-15.7 c-0.1-6.4-0.2-12.8,0-19.2c0.2-5.9,1.5-11.5,2.2-17.3c0.5-3.8-0.7-8.7-4.2-10.8c-4.1-2.5-8.3-1.7-12.8-0.7 c-6.8,1.5-13.1-4.2-9.8-11.2c-2.6-1.1-5.3-2.2-7.9-3.3c-0.5,0.5-1.1,1-1.6,1.4c2,0.5,3.9,1,5.9,1.5c-0.1-0.6-0.1-1.1-0.2-1.7 c-2.7-0.7-5.4-1.5-8-2.2c-1.9,14.8,0.9,29.4,7.5,42.7c2,4.1,7.8,1.8,8-2.2c0.3-6.2,0.7-12.4,1-18.6c-2.8,0.4-5.6,0.8-8.5,1.1 c1.4,6.6,4.1,12.7,8,18.3c2.4,3.4,8.1,2.4,8-2.2c0-5.8,0-11.5,0-17.3c-2.8,0.4-5.6,0.8-8.5,1.1c2.9,10.4,4.7,20.9,5.4,31.6 c0.4,5.5,8.4,5.6,8.6,0c0.4-10.5,0.8-21,1.2-31.5c0.2-5.6-8.4-5.5-8.6,0c-0.4,10.5-0.8,21-1.2,31.5c2.9,0,5.8,0,8.6,0 c-0.8-11.5-2.7-22.8-5.8-33.9c-1.3-4.7-8.5-3.7-8.5,1.1c0,5.8,0,11.5,0,17.3c2.7-0.7,5.4-1.5,8-2.2c-3.5-5-5.8-10.3-7.1-16.2 c-1.1-5-8.2-3.5-8.5,1.1c-0.3,6.2-0.7,12.4-1,18.6c2.7-0.7,5.4-1.5,8-2.2c-6-12-8-25.1-6.3-38.4c0.5-4.2-6.4-6-8-2.2 c-1.6,3.7-1.6,6.8,0.2,10.4c1.1,2.1,3.9,2.6,5.9,1.5c2.9-1.6,4.3-3.6,5.5-6.6c1.8-4.5-5.8-7.7-7.9-3.3c-3.3,7-2.4,14.4,3.1,20 c2.4,2.5,6.2,4.1,9.6,4.4c4,0.4,7.6-1.1,11.5-1.3c3.4-0.2,0.3,11.1,0.1,12.5c-0.7,4.8-0.9,9.6-0.9,14.5 c-0.1,5.1,0.1,10.2,0.2,15.4c0,2.3,0,4.7-0.1,7c0,0.6-2.2,7.5-3.9,5.1c-2,2-3.9,3.9-5.9,5.9c2.1,1,2.9,2.7,1.6,4.7 c2-0.5,3.9-1,5.9-1.5c-6.7-3.8-11.1-9.7-13-17.1c-0.9-3.6-6.1-4.3-7.9-1c-2.1,3.6-3,7.3-2.9,11.5c1.8-1.4,3.6-2.8,5.5-4.2 c1.1,0.6,1.4,0.1,0.8-1.7c0-2,0.1-3.9,0.1-5.9c0.1-3.9,0.1-7.8,0.2-11.7c0.1-7.2,0.2-14.3,0.3-21.5c-2.9,0-5.8,0-8.6,0 c-0.1,7.3-0.2,14.7-0.3,22c-0.1,4.9,7.3,5.9,8.5,1.1c3.1-12.3,2.6-24.9-1.5-36.9C1988.9,601,1980.6,603.2,1982.4,608.5 L1982.4,608.5z"/><path fill="#FBB040" d="M1354.2,599.5c1.3,1.2,3.4,0.7,5.2,0.6c1.8-0.2,4.2,0.7,4,2.5c-0.1,1.1-1.2,1.9-2.2,2.3 c-1.1,0.4-2.2,0.6-3.1,1.3c-2,1.6-1.5,4.6-1.3,7.1c0.4,4.2-0.5,8.6-2.6,12.3c-1.5-2.7,0.2-6.1,2.1-8.6s4.2-5.2,3.8-8.3"/><path fill="#F7941E" d="M1352,603.2c2.4,1.4,4.6,1.5,7.4,1.2c-2.1,0.2,1.4-4.8-2.5-2.6c-1.2,0.7-2.7,1.7-3.3,3 c-2.6,6,0,12.4-3.1,18.5c2.6,0.3,5.3,0.7,7.9,1c-1.1-3,2-5.6,3.6-7.8c1.7-2.4,2.5-5,2.5-7.9c0.1-5.6-8.6-5.6-8.6,0 c0,3.3-3.4,6.1-5,8.8c-1.6,2.9-1.9,6.1-0.8,9.2c1.2,3.2,6.1,4.6,7.9,1c1.8-3.7,2.8-7.3,3.2-11.3c0.2-1.9-0.1-3.9-0.2-5.8 c-0.1-1.8,3.2-2.1,4.4-3.2c2.5-2.3,3.4-6.1,1-8.8c-0.9-1-2.1-2-3.5-2.3c-1.7-0.4-5,0.3-6.4-0.4 C1351.5,593.1,1347.1,600.5,1352,603.2L1352,603.2z"/><path fill="#6D6E71" d="M1405.8,690.9c-4.2,3.7-3.1,9.7,0.7,13.3c4.8,4.5,12.7,1.8,17.9-0.4c5.8-2.6,5.7-9.3,2-13.5 c-4.6-5.1-12-1.9-16.6,1.3c2.1,1.6,4.2,3.2,6.3,4.9c0.6-1.6,13.1-1,15.2-1.1c7.3-0.3,14.7-0.7,22-1c3.9-0.2,6.4-6.2,2.2-8 c-11.6-4.9-23.9-3.3-33.9,4.5c-2.5,2-1.1,6.7,1.9,7.2c14.8,2.7,29.7,1.9,44.1-2.6c3.4-1.1,4.5-6.1,1-7.9 c-4.5-2.3-9.1-3.6-14.1-4.2c-4.9-0.5-5.8,7.4-1.1,8.5c10.5,2.5,21,5.1,31.5,7.6c3.2,0.8,8.7,1.5,9.2,5.4 c0.2,1.6,0.4,3.5,1.3,4.9c1.2,1.9,3.1,3.5,4,5.6c0.9,2.2,2.9,3.7,5.3,3c1.1-0.3,3,2.3,3.9,3c1.5,1.1,2.9,1.8,4.7,2.1 c3.3,0.4,6.3-1.2,7.6-4.3c1.1-2.7,1.2-6.9-0.9-9.2c-3.8-4.2-7.6-8.4-11.5-12.6c-3.7-4.1-9.8,2-6.1,6.1c2.1,2.3,4.2,4.7,6.4,7 c0.8,0.9,1.7,1.9,2.5,2.8c0.4,0.5,0.8,0.9,1.3,1.4c0.2,1.3,0.7,1.3,1.6,0.1c-2.1-1-3.7-3.4-5.9-4.5c-1.9-1-3.9-0.9-5.9-0.3 c1.8,1,3.5,2,5.3,3c-0.8-2.1-1.8-3.7-3.2-5.4c-2-2.6-1.6-5.1-2.9-7.9c-1.9-4.1-5.7-5.9-9.7-7.3c-11.5-4.2-24.3-6-36.2-8.9 c-0.4,2.8-0.8,5.6-1.1,8.5c3.5,0.4,6.7,1.4,9.8,3c0.3-2.6,0.7-5.3,1-7.9c-12.8,4-26.2,5-39.5,2.6c0.6,2.4,1.3,4.8,1.9,7.2 c6.5-5.1,15.7-6.4,23.4-3.1c0.7-2.7,1.5-5.4,2.2-8c-10,0.5-20,0.9-30,1.4c-6.3,0.3-12.9,0.4-15.5,7.1c-1.3,3.5,3.3,7,6.3,4.9 c0.8-0.6,1.6-1.1,2.5-1.6c1.6-1,1.9-0.2,3.4-1.1c-1.2,0.7-3,1-4.4,1.4c0.9-0.2-5.5,0.8-3.8-0.7 C1416.1,693.3,1409.9,687.2,1405.8,690.9L1405.8,690.9z"/><path fill="#F7941E" d="M1832.2,711c-3.7,13.2-6,26.7-6.9,40.4c-0.9,13.3-0.4,26.7,5.5,38.9c1.9,3.9,8.2,2,8-2.2 c-0.4-8.7-1.1-17.4-2.3-26.1c-0.6-4.5-1.3-8.9-2.1-13.3c-0.3-1.9-0.7-3.8-1.1-5.7c-0.2-1-1.8-9.2-2.1-9 c2.4,1.4,4.8,2.8,7.2,4.2c1.9-11.1,8.1-20.4,13.9-29.8c5.9-9.5,12.2-18.7,20.9-25.9c3.8-3.2-1.1-9.3-5.2-6.8 c-13.7,8.3-24.8,20-32.3,34.1c-2.2,4.1,3.6,9.2,6.8,5.2c11.5-14.5,23.3-29.3,38.9-39.6c17.7-11.8,39.3-13.9,60-15.8 c5.5-0.5,5.5-9.1,0-8.6c-21.3,1.9-42.8,4.3-61.6,15.3c-17.7,10.3-30.8,26.9-43.4,42.7c2.3,1.7,4.5,3.5,6.8,5.2 c6.8-12.9,16.8-23.5,29.2-31c-1.7-2.3-3.5-4.5-5.2-6.8c-8.8,7.3-15.3,16.6-21.3,26.2c-6.5,10.4-13.5,21-15.7,33.3 c-0.7,4.2,3.9,7.3,7.2,4.2c3.7-3.4,2.5-9.5-2.1-11.5c-5.6-2.4-11.6,3.2-11.4,8.9c0.2,7.6,2.7,15.4,3.9,23 c1.4,9.1,2.1,18.4,2.5,27.6c2.7-0.7,5.4-1.5,8-2.2c-5.2-10.7-4.9-22.9-4.3-34.5c0.7-12.9,3.1-25.7,6.6-38.1 C1842,707.9,1833.7,705.6,1832.2,711L1832.2,711z"/><path fill="#A7A9AC" d="M1781.4,492.6c5.8-1.9,10.8-4.8,15.4-8.7c-2.4-0.6-4.8-1.3-7.2-1.9c0.4,2.8-0.6,5.3-2.3,7.5 c-2.6,3.4,1.7,6.9,4.9,6.3c0.5-0.1,0.7,0.3,0.9,0.6c3,4.7,10.4,0.4,7.5-4.4c-2.4-3.9-6.3-5.3-10.7-4.6c1.6,2.1,3.2,4.2,4.9,6.3 c3.2-4.1,4-9,3.2-14.1c-0.5-3.5-5-3.8-7.2-1.9c-3.4,2.9-7.4,5.1-11.6,6.5C1773.9,486,1776.1,494.3,1781.4,492.6L1781.4,492.6z"/><path fill="#6D6E71" d="M1473.8,701.6c7.7,3.8,15.8,5.7,24.4,5.5c5.6-0.2,5.6-8.8,0-8.6c-7,0.2-13.7-1.2-20-4.3 C1473.2,691.7,1468.8,699.2,1473.8,701.6L1473.8,701.6z"/><path fill="#F7941E" d="M1530.1 399.7c3.6.2 7.3.3 10.9.5 5.6.3 5.5-8.4 0-8.6-3.6-.2-7.3-.3-10.9-.5C1524.5 390.8 1524.5 399.5 1530.1 399.7L1530.1 399.7zM1538.9 462c-.7 2.7-.7 5.3-.3 8.1.2 1.1 1.4 6.7-.6 6.8-5.5.3-5.6 9 0 8.6 4.7-.3 7.6-3.1 9.2-7.3 1.7-4.6-1.2-9.4 0-14C1548.7 459 1540.4 456.7 1538.9 462L1538.9 462z"/><path fill="#939598" d="M2013.3,350.4c-10.9,25.8-21.8,51.5-32.7,77.3c-2.1,5,5,9.5,7.5,4.4c8.5-18.1,13.1-37.5,13.4-57.4 c-2.9,0-5.8,0-8.6,0c0.4,24.2,0.7,48.4,1.1,72.6c0.1,4.9,7,5.8,8.5,1.1c8.5-27.8,13.8-56.4,16-85.3c-2.9,0-5.8,0-8.6,0 c3.2,30.1,6.5,60.3,9.7,90.4c0.6,5.5,8.3,5.6,8.6,0c1.7-29.5-0.5-59.1-6.5-88.1c-1-4.9-8.3-3.6-8.5,1.1 c-0.8,31.6-1.7,63.3-2.5,94.9c-0.1,5.6,8.3,5.5,8.6,0c1.4-27.8,0.5-55.7-2.7-83.4c-0.5-4.5-7.4-6.3-8.5-1.1 c-7,33.5-10.6,67.6-10.5,101.8c0,5.6,8.6,5.6,8.6,0c0.2-36.4,0.4-72.9,0.6-109.3c-2.9,0-5.8,0-8.6,0 c0.7,27.6,1.5,55.3,2.2,82.9c2.8-0.4,5.6-0.8,8.5-1.1c-7.7-38.2-12.9-76.8-15.7-115.7c-2.8,0.4-5.6,0.8-8.5,1.1 c1.3,4.7,5.5,7,10.2,6.8c5.6-0.2,9-4.4,10.9-9.3c1-2.6,1.1-5.8,1.3-8.6c0.3-4.3,0.8-8.6,1.7-12.8c0.7-3.5,1.8-7,3-10.4 c1.5-4.4,1.1-7.2,0.5-11.8c-2.8,0.4-5.6,0.8-8.5,1.1c8,25.6,12.3,52.1,12.8,78.9c2.8-0.4,5.6-0.8,8.5-1.1 c-3.6-20.9-7.1-41.9-10.7-62.8c-0.8-5-8.3-3.5-8.5,1.1c-0.8,20.9-1.6,41.7-2.4,62.6c-0.2,4.8,7.6,6,8.5,1.1 c2.4-13.1,3-28.9-11.5-34.8c-2.5-1-5.6,1.6-5.5,4.2c0.6,10.3,1.2,20.5,1.8,30.8c2.8-0.4,5.6-0.8,8.5-1.1 c-3-9.8-6.1-19.6-9.1-29.4c-1.4-4.6-8.6-3.8-8.5,1.1c0.1,4.4-1,8.1-3.5,11.7c2.7,0.7,5.4,1.5,8,2.2c0.1-2.7,0.1-5.4,0.2-8.1 c-2.9,0-5.8,0-8.6,0c0.3,56.1,0.5,112.2,0.8,168.3c0,6.4,0,12.8,0.1,19.2c0.1,4.5,2.5,8.9,7.2,9.6c4.8,0.7,7.4-2.6,7.2-7 c-0.2-7.3-0.5-14.6-0.7-21.8c-0.9-28.5-1.8-56.9-2.7-85.4c-2.9,0-5.8,0-8.6,0c2.2,28.7,4.5,57.4,6.7,86.2 c0.4,5.5,8.5,5.6,8.6,0c0.9-34.9,1.7-69.8,2.6-104.6c-2.9,0-5.8,0-8.6,0c2.9,26.5,5.8,53,8.6,79.5c0.5,4.5,7.5,6.3,8.5,1.1 c5.9-31.2,10.2-62.6,12.8-94.2c0.4-4.9-7.3-5.8-8.5-1.1c-6.4,24.1-12.7,48.1-19.1,72.2c2.8,0.4,5.6,0.8,8.5,1.1 c-0.6-24.5,0.4-49.1,3-73.5c-2.9,0-5.8,0-8.6,0c1.4,31-0.4,62-5.3,92.6c-0.9,5.4,7.3,7.8,8.3,2.3c5.2-27.9,10.4-55.9,15.7-83.8 c1-5.4-6.8-7.7-8.3-2.3c-7.7,27.1-9.9,55.6-6.2,83.6c0.4,3.2,4.6,6.3,7.4,3.1c8.9-10.8,11.7-25.3,6.6-38.5 c-1.6-4.1-9.1-4.1-8.5,1.1c3.3,27.2,4.6,54.5,3.9,81.8c-0.1,3.3-0.2,6.5-0.3,9.8c-0.2,5.1-2.1,1.2-2.3-1.7 c-0.5-7.1-0.2-14.3-0.3-21.4c-0.2-14.5-0.4-29.1-0.6-43.6c-2.9,0-5.8,0-8.6,0c1.9,22.4,3.8,44.9,5.6,67.3 c0.5,5.5,8.8,5.6,8.6,0c-0.8-25.1-1.5-50.2-2.3-75.3c-0.1-4.1-6-6.2-8-2.2c-5.5,10.7-9.2,22.2-10.6,34.2 c-0.8,6.5-1,12.9-0.6,19.5c0.2,2.8,0.6,5.6,0.8,8.4c0.1,1.8,0,3.6-0.7,5.2c0.4-0.9-3.4,4.2-2.8,1.4c-2.8-0.4-5.6-0.8-8.5-1.1 c0.5,4.1,0.9,8.3,1.4,12.4c0.2,2.1,1.2,3.4,3.2,4.2c9,3.4,19.4-4.6,18.4-14.2c-2.7,0.7-5.4,1.5-8,2.2c1.9,3.2,0.3,8.8-3.9,9.4 c-4,0.5-7.3-4.9-5.8-8.3c-2.6-0.3-5.3-0.7-7.9-1c1.8,11.1,2.3,22.3,1.8,33.6c2.9,0,5.8,0,8.6,0c-0.6-6.3-0.2-12.4,1.3-18.6 c-2.4,0.6-4.8,1.3-7.2,1.9c1.2,0.8,1.8,2,1.6,3.5c2.4-0.6,4.8-1.3,7.2-1.9c2.3,2.7,0.9,2.2,4.4,2.5c1.8,0.2,3.7,0.3,5.5,0.5 c3.7,0.3,7.3,0.6,11,1c4,0.4,5.3-4.8,3.1-7.4c-10.8-12-14.1-29.1-8.9-44.4c1.8-5.3-6.6-7.5-8.3-2.3 c-6.1,18.2-1.7,38.5,11.1,52.7c1-2.5,2-4.9,3.1-7.4c-7.5-0.7-15.9-2.6-23.3-1.3c-5.8,1-6.9,8.2-3.6,12.1c2,2.3,6.7,1.2,7.2-1.9 c0.8-4.6-0.2-8.6-3.8-11.9c-2.3-2.1-6.4-1.4-7.2,1.9c-1.7,6.9-2.3,13.8-1.6,20.9c0.5,5.5,8.4,5.6,8.6,0c0.5-12-0.2-24-2.1-35.9 c-0.6-3.6-6.4-4.3-7.9-1c-4.3,9.7,2.3,21.2,13.2,21.3c10.9,0.1,16.4-13.9,11.4-22.4c-2.1-3.4-8.5-2.3-8,2.2 c0.5,4.3-3.4,7.4-7.5,5.9c1.1,1.4,2.1,2.8,3.2,4.2c-0.5-4.1-0.9-8.3-1.4-12.4c-0.5-4.5-7.3-6.3-8.5-1.1 c-1.3,6.1,4,12.9,10.7,11.2c7.9-2,10.2-9.8,9.6-17.2c-0.7-9.7-1.3-18.9,0.3-28.6c1.5-9.6,4.7-18.8,9.1-27.5 c-2.7-0.7-5.4-1.5-8-2.2c0.8,25.1,1.5,50.2,2.3,75.3c2.9,0,5.8,0,8.6,0c-1.9-22.4-3.8-44.9-5.6-67.3c-0.5-5.5-8.7-5.6-8.6,0 c0.3,17.9,0.5,35.7,0.8,53.6c0.1,6.6-1.2,15.3,3,20.9c3.4,4.6,10.8,5.7,14.4,0.7c3.8-5.3,2.6-13.9,2.8-20 c0.2-9.1,0.2-18.2,0-27.3c-0.4-17.6-1.8-35.1-3.9-52.5c-2.8,0.4-5.6,0.8-8.5,1.1c4,10.1,2.7,21.6-4.4,30.1c2.5,1,4.9,2,7.4,3.1 c-3.6-27.3-1.6-54.8,5.9-81.3c-2.8-0.8-5.5-1.5-8.3-2.3c-5.2,27.9-10.4,55.9-15.7,83.8c2.8,0.8,5.5,1.5,8.3,2.3 c5.1-31.4,7-63.1,5.7-94.9c-0.2-5.7-8-5.4-8.6,0c-2.6,24.4-3.6,48.9-3,73.5c0.1,4.8,7.2,5.9,8.5,1.1 c6.4-24.1,12.7-48.1,19.1-72.2c-2.8-0.4-5.6-0.8-8.5-1.1c-2.6,30.9-6.8,61.5-12.5,92c2.8,0.4,5.6,0.8,8.5,1.1 c-2.9-26.5-5.8-53-8.6-79.5c-0.6-5.4-8.5-5.7-8.6,0c-0.9,34.9-1.7,69.8-2.6,104.6c2.9,0,5.8,0,8.6,0 c-2.2-28.7-4.5-57.4-6.7-86.2c-0.4-5.5-8.8-5.6-8.6,0c1.2,36.4,2.3,72.8,3.5,109.2c0.4-1,0.8-2,1.3-3.1 c2.7-2.2,1.4-7.5,1.4-10.8c0-4,0-7.9-0.1-11.9c0-7.9-0.1-15.8-0.1-23.8c-0.1-15.8-0.1-31.7-0.2-47.5c-0.1-31.7-0.3-63.4-0.4-95 c0-5.6-8.5-5.6-8.6,0c-0.1,2.7-0.1,5.4-0.2,8.1c-0.1,4.5,5.8,5.6,8,2.2c3.2-4.9,4.8-10.3,4.6-16.1c-2.8,0.4-5.6,0.8-8.5,1.1 c3,9.8,6.1,19.6,9.1,29.4c1.4,4.5,8.8,3.9,8.5-1.1c-0.6-10.3-1.2-20.5-1.8-30.8c-1.8,1.4-3.6,2.8-5.5,4.2 c9.2,3.8,6.9,16.7,5.5,24.2c2.8,0.4,5.6,0.8,8.5,1.1c0.8-20.9,1.6-41.7,2.4-62.6c-2.8,0.4-5.6,0.8-8.5,1.1 c3.6,20.9,7.1,41.9,10.7,62.8c0.8,4.9,8.6,3.6,8.5-1.1c-0.5-27.5-4.9-54.9-13.1-81.2c-1.4-4.4-9.1-3.9-8.5,1.1 c0.2,1.8,0.5,3.6,0.7,5.4c0.3,2.4-1.3,5.2-2,7.4c-1.5,4.6-2.4,9.3-3.1,14c-0.5,3.7-0.7,7.4-1,11.1c-0.2,1.9-0.7,4.7-2.4,5.8 c-0.6,0.4-2.5,0.8-2.7-0.1c-1.3-4.6-8.8-3.8-8.5,1.1c2.8,39.6,8.2,79,16,117.9c1,4.8,8.6,3.7,8.5-1.1 c-0.7-27.6-1.5-55.3-2.2-82.9c-0.1-5.6-8.6-5.6-8.6,0c-0.2,36.4-0.4,72.9-0.6,109.3c2.9,0,5.8,0,8.6,0 c-0.1-33.5,3.3-66.8,10.2-99.5c-2.8-0.4-5.6-0.8-8.5-1.1c3.2,27.7,4.1,55.5,2.7,83.4c2.9,0,5.8,0,8.6,0 c0.8-31.6,1.7-63.3,2.5-94.9c-2.8,0.4-5.6,0.8-8.5,1.1c5.8,28.2,7.9,57,6.2,85.8c2.9,0,5.8,0,8.6,0 c-3.2-30.1-6.5-60.3-9.7-90.4c-0.6-5.5-8.2-5.6-8.6,0c-2.1,28.2-7.4,56-15.7,83c2.8,0.4,5.6,0.8,8.5,1.1 c-0.4-24.2-0.7-48.4-1.1-72.6c-0.1-5.6-8.5-5.6-8.6,0c-0.3,18.4-4.4,36.4-12.3,53.1c2.5,1.5,5,2.9,7.5,4.4 c10.9-25.8,21.8-51.5,32.7-77.3C2022.9,349.6,2015.5,345.2,2013.3,350.4L2013.3,350.4z"/><path fill="#939598" d="M2013.5,272.5c-4.5,14.9-6.4,30.4-5.7,46c0.2,3.5,4.8,6.1,7.4,3.1c12.2-14.3,11.1-32.8,8.9-50.4 c-0.7-5.4-8.7-5.7-8.6,0c0.2,20.3,0.4,40.6,0.6,60.8c0.1,5.7,7.9,5.3,8.6,0c2.2-16.4,1-33.6-10.7-46.3 c-5.2-5.7-12.2-8.5-19.7-9.5c-8.8-1.2-18.2,1.8-26.5-2.1c-1.1,2.6-2.2,5.3-3.3,7.9c16,3.6,32.4,3.4,48.3-0.7 c2-0.5,3-2.2,3.2-4.2c0.2-1.8,0.4-3.6,0.5-5.4c0.2-2.3-2.1-4.4-4.3-4.3c-16.6,0.9-33.1,1.7-49.7,2.6c-3.2,0.2-5.5,3.6-3.7,6.5 c1.9,3.2,0.2,6.1-3.4,6c-5.7-0.1-5.4,8.1,0,8.6c9.3,1,18.7,1.8,28.1,1.2c4.4-0.3,8.8-1.1,13-2.2c2.2-0.6,4.4-1.4,6.5-2.3 c1.1-0.4,6.3-2.1,6.6-3.1c-1.5,5.4,6.8,7.6,8.3,2.3c1.2-4-1-8.9-5.3-10c-6-1.6-11.2,2.5-16.7,4.3c-12.9,4.3-27.2,2.6-40.4,1.2 c0,2.9,0,5.8,0,8.6c10.2,0.2,16.1-10.3,10.8-19c-1.2,2.2-2.5,4.3-3.7,6.5c16.6-0.9,33.1-1.7,49.7-2.6c-1.4-1.4-2.9-2.9-4.3-4.3 c-0.2,1.8-0.4,3.6-0.5,5.4c1.1-1.4,2.1-2.8,3.2-4.2c-14.4,3.7-29.2,4-43.7,0.7c-4.6-1-8,5.8-3.3,7.9c13.2,6,28.8-1,41.1,7.2 c13.8,9.1,13.5,28.8,11.6,43.2c2.9,0,5.8,0,8.6,0c-0.2-20.3-0.4-40.6-0.6-60.8c-2.9,0-5.8,0-8.6,0c1.8,14.8,4,32-6.4,44.3 c2.5,1,4.9,2,7.4,3.1c-0.7-14.9,1.1-29.4,5.4-43.7C2023.4,269.4,2015.1,267.2,2013.5,272.5L2013.5,272.5z"/><path fill="#58595B" d="M2084.4,624.2c0.5-4.5-0.1-9.2-1.9-13.7c-0.4-1.1-1.1-1.9-1.9-2.4c0.9-0.6,1.7-1.4,2.1-2.5 c3.6-8.7,3.9-17.6,1.1-26.6c-0.5-1.7-2.2-3.3-4.2-3.2c-3.2,0.3-6.3,0.6-9.5,0.9c-5.4,0.5-5.5,8.8-0.3,8.6 c-0.1,0.9-0.1,1.7-0.1,2.6c-1.1,15.9-0.7,31.7,1.1,47.5c0.4,3.8,4,5.2,6.7,3.4c4.6,39.3,6.6,78.8,5.8,118.3 c-0.1,5.6,8.5,5.6,8.6,0C2092.9,712.7,2090.3,668.2,2084.4,624.2z"/><path fill="#939598" d="M2042.4 617.1c9.8 3.8 20.3-.3 25.2-9.5 2-3.6 3.7-9.8-.6-12.3-3.9-2.3-7.7.5-10 3.5-1.1 1.5-1.2 3.9-1.5 5.7.7-3.5.1-7.8.4-11.4.6-6.7 1.6-13.3 1.5-20 0-6.6-1.7-12.7-4.2-18.7-2.5-6.2-5.3-12.4-2.8-19-2.6.3-5.3.7-7.9 1 4.2 6 6.2 12.6 6.2 19.9 0 5.6 8.5 5.6 8.6 0 .2-13 2.8-25.6 7.6-37.6 2.1-5.2-6.3-7.4-8.3-2.3-5.1 12.8-7.7 26.2-7.9 39.9 2.9 0 5.8 0 8.6 0 .1-8.8-2.4-17.1-7.4-24.3-2.2-3.2-6.5-2.5-7.9 1-3.4 8.7.1 17.2 3.5 25.3 4.2 10.1 3.2 20.4 2 31-.9 7.8-3.2 17.8 4.3 22.9 2.5 1.7 6.8 1.4 8.9-.7 1.1-1.1 2-2.2 2.5-3.7.3-.8.5-1.5.6-2.4.1-.4.1-.8.2-1.2.7-1.4.1-2-1.9-1.6-.4-1-.8-2-1.3-3.1-.9 8.4-9.1 11.9-16.4 9.1C2039.5 606.7 2037.3 615.1 2042.4 617.1L2042.4 617.1zM2052.1 638.9c0 4.9 0 9.8 0 14.7 0 5 7 5.7 8.5 1.1 2.1-6.5 2.3-12.9.9-19.5-.8-3.8-6-4.1-7.9-1-4.8 7.9-7.4 16.6-7.9 25.8 2.7-.7 5.4-1.5 8-2.2-5.1-6.7-7-14.6-5-22.8-2.8-.4-5.6-.8-8.5-1.1-.9 10.6-.4 21 1.5 31.4.7 3.8 6.1 4.1 7.9 1 6-10.5 9.3-22 9.6-34.1.1-4.4-5.9-5.7-8-2.2-3.7 6.1-12.8 7.8-18.3 3.1-1.9-1.7-5.5-1.8-6.8.9-5 10.6-1.9 22.5 7.5 29.4 2.8 2.1 6.3-.8 6.5-3.7.3-5.7.6-11.5.8-17.2.3-5.6-8.1-5.4-8.6 0-.8 8.1-1.7 16.1-2.5 24.2 2.9 0 5.8 0 8.6 0 .4-6.3 2.5-11.9 5.9-17.2-2.6-.3-5.3-.7-7.9-1 4.4 16.5 7.7 33.2 9.7 50.2 2.8-.4 5.6-.8 8.5-1.1-2.9-11.5-5.9-23-8.8-34.5-1.2-4.8-8.4-3.7-8.5 1.1-.3 19.6-.6 39.1-.8 58.7-.1 5.7 8 5.4 8.6 0 2-17.6.3-35.2-4.8-52.1-1.3-4.2-7-4-8.3 0-2.3 7.1-3.1 14.5-2.2 21.9 2.8-.4 5.6-.8 8.5-1.1-2.1-12.9-4.2-25.9-6.3-38.8-.8-5-8.2-3.4-8.5 1.1-.6 10.1-4.3 19.2-10.4 27.2-.9 1.1-.8 3.2 0 4.4 4.6 6.8 9.3 13.6 13.9 20.5 2.7 4 9.1 1.6 7.9-3.3-2-7.8-4-15.7-6-23.5-2.4 1.4-4.8 2.8-7.2 4.2 16.3 14.2 25.8 34.6 25.9 56.2 2.8-.4 5.6-.8 8.5-1.1-4.8-19.2-10.3-38.9-24.4-53.5-3.1-3.2-8.1.1-7.2 4.2 3.8 16.5 7.7 32.9 11.8 49.3 2.1 8.2 4.2 16.4 6.4 24.5.7 2.8 1 7.3 3.1 9.4 2.2 2.2 7.3 2.7 10.3 3.5 3.1.9 6.3-2.2 5.3-5.3-7.9-23.8-15.7-47.6-23.6-71.4-2.4 1.4-4.8 2.8-7.2 4.2 12.1 13.9 19.1 31.5 20.2 49.8.3 4.3.1 8.6-.3 12.9-.3 3.2.9 6.2 4.3 7.1 9.6 2.6 9.3-11.1 9.2-16.7-.3-36.7-24-71.7-15.3-108.6-2.8 0-5.5 0-8.3 0 3.9 11.9 7.7 23.7 11.6 35.6 1.5 4.5 8.7 3.9 8.5-1.1-.4-10.1-.8-20.2-1.2-30.3-.2-5-6.8-5.6-8.5-1.1-2.5 6.7 2 14.6 9.1 15.7 3.7.6 6.8-2.7 4.9-6.3-.9-1.7-1.8-3.3-2.7-5-2-3.8-8.2-2.1-8 2.2.7 22.4 1.4 44.8 2.1 67.3.2 5.6 8.2 5.5 8.6 0 1.1-13-.1-26-3.3-38.7-.9-3.6-6.1-4.2-7.9-1-5.2 9.2-6.9 19.2-5.4 29.7.7 4.9 8.5 3.6 8.5-1.1 0-5.8 0-11.5 0-17.3-1.1 1.4-2.1 2.8-3.2 4.2 2.1-.5 4.2-1 6.3-1.4-1.8-1-3.5-2-5.3-3 6.8 23.3 8.2 47.8 4 71.7 2.8.4 5.6.8 8.5 1.1-2.9-24.2-5.3-48.4-8.7-72.5-2.7-19.5-7.9-39.4-22-53.9-.6 2.4-1.3 4.8-1.9 7.2 8.4-1.4 16.7-2.7 25.1-4.1-1.8-1.4-3.6-2.8-5.5-4.2 2.5 30.1 5 60.1 7.5 90.2.5 5.5 9.1 5.5 8.6 0-2.5-30.1-5-60.1-7.5-90.2-.2-3-2.5-4.6-5.5-4.2-8.4 1.4-16.7 2.7-25.1 4.1-3.3.5-4 5.1-1.9 7.2 13.6 13.8 17.6 33.5 20.1 52.1 3 22.7 5.4 45.5 8.1 68.2.5 4.4 7.6 6.4 8.5 1.1 4.5-25.5 3.2-51.5-4-76.3-.7-2.3-3-3.5-5.3-3-2.1.5-4.2 1-6.3 1.4-1.9.4-3.2 2.3-3.2 4.2 0 5.8 0 11.5 0 17.3 2.8-.4 5.6-.8 8.5-1.1-1.2-8.1.5-16 4.5-23-2.6-.3-5.3-.7-7.9-1 3 12 3.9 24.1 3 36.4 2.9 0 5.8 0 8.6 0-.7-22.4-1.4-44.8-2.1-67.3-2.7.7-5.4 1.5-8 2.2.9 1.7 1.8 3.3 2.7 5 1.6-2.1 3.2-4.2 4.9-6.3-2.8-.4-4.1-2.4-3.1-5.1-2.8-.4-5.6-.8-8.5-1.1.4 10.1.8 20.2 1.2 30.3 2.8-.4 5.6-.8 8.5-1.1-3.9-11.9-7.7-23.7-11.6-35.6-1.3-3.9-7.3-4.4-8.3 0-7.8 33.3 8.6 65 13.8 97.4.6 3.9 1 7.9 1.1 11.9.1 2.2.1 4.4 0 6.5 0 1.1-.1 2.2-.2 3.3 3.1 2.5 4.4 2.5 4.2-.2.8-7.9.1-15.9-1.3-23.7-2.8-16.2-10.5-31.3-21.3-43.6-2.8-3.2-8.5.2-7.2 4.2 7.9 23.8 15.7 47.6 23.6 71.4 1.8-1.8 3.5-3.5 5.3-5.3-2.8-.8-5.6-1.6-8.3-2.4 1 1 2 2 3 3-7.3-27-14-54.1-20.2-81.4-2.4 1.4-4.8 2.8-7.2 4.2 13 13.5 17.7 32 22.2 49.7 1.2 4.8 8.5 3.7 8.5-1.1-.1-23.8-10.4-46.7-28.4-62.3-3.2-2.8-8.3-.2-7.2 4.2 2 7.8 4 15.7 6 23.5 2.6-1.1 5.3-2.2 7.9-3.3-4.6-6.8-9.3-13.6-13.9-20.5 0 1.5 0 2.9 0 4.4 7.1-9.2 10.9-20 11.6-31.6-2.8.4-5.6.8-8.5 1.1 2.1 12.9 4.2 25.9 6.3 38.8.8 4.8 9.1 3.7 8.5-1.1-.8-6.8-.3-13.2 1.9-19.7-2.8 0-5.5 0-8.3 0 4.9 16.2 6.4 33 4.5 49.8 2.9 0 5.8 0 8.6 0 .3-19.6.6-39.1.8-58.7-2.8.4-5.6.8-8.5 1.1 2.9 11.5 5.9 23 8.8 34.5 1.2 4.6 9 3.8 8.5-1.1-2.1-17.7-5.4-35.2-10-52.5-1-3.7-5.9-4.1-7.9-1-4.3 6.6-6.5 13.8-7.1 21.6-.4 5.6 8.1 5.4 8.6 0 .8-8.1 1.7-16.1 2.5-24.2-2.9 0-5.8 0-8.6 0-.3 5.7-.6 11.5-.8 17.2 2.2-1.2 4.3-2.5 6.5-3.7-5.3-4-7.2-11.6-4.4-17.6-2.3.3-4.5.6-6.8.9 9.7 8.3 25 6.2 31.8-4.8-2.7-.7-5.4-1.5-8-2.2-.3 10.6-3.1 20.6-8.4 29.8 2.6.3 5.3.7 7.9 1-1.7-9.7-2.1-19.4-1.2-29.1.4-4.9-7.4-5.8-8.5-1.1-2.5 10.3-.5 21 5.9 29.5 2.5 3.4 7.8 2.4 8-2.2.4-7.7 2.7-14.8 6.7-21.4-2.6-.3-5.3-.7-7.9-1 1.1 5.1.7 10-.9 15 2.8.4 5.6.8 8.5 1.1 0-4.9 0-9.8 0-14.7C2060.7 633.3 2052.1 633.3 2052.1 638.9L2052.1 638.9z"/><path fill="#58595B" d="M1947.5 625.8c-8-2.3-16.6-1-23.5 3.7-4.2 2.8-1 9.3 3.1 8 2.4.5 4.8 1.1 7.2 1.6 2.7.6 4.6-1.2 5.2-3.2 2.7-.5 5.3-1.1 7.9-1.8C1951.7 633 1951.6 627 1947.5 625.8zM2086.6 506.2v-4.5c0-5.6-8.6-5.6-8.6 0v56.1c0 2.5 1.7 3.8 3.6 4.1-.7 31.7-1.4 63.4-2.2 95.1-.1 5.6 8.5 5.6 8.6 0 1.1-48.9 2.2-97.8 3.3-146.7C2091.4 507.3 2088.9 505.9 2086.6 506.2zM2034.2 548.3c0-1.2-.5-2.1-1.1-2.8-.4-4.4-7.4-5.9-8.4-.9-2.5 12.1-2 24.1 1.8 35.9 1.5 4.5 8.6 3.9 8.5-1.1L2034.2 548.3z"/><path fill="#FBB040" d="M1525.3,524.6c2.7-0.2,5.5,1.8,6.1,4.4c0.6,2.7-0.9,5.7-3.4,6.7c-1.4-3.4-1-7.5,0.9-10.7"/><path fill="#F7941E" d="M1525.3,528.9c2.4-0.1,2.4,2.2,0.5,3.1c2.1,0.9,4.2,1.7,6.3,2.6c-0.9-2.6-0.9-5,0.5-7.3 c2.8-4.8-4.7-9.2-7.4-4.4c-2.4,4.2-3,9.4-1.3,14c1,2.8,3.7,3.8,6.3,2.6c4.1-1.9,6.3-6.6,5.5-11c-0.9-4.9-5.5-8.3-10.4-8.2 C1519.8,520.4,1519.8,529,1525.3,528.9L1525.3,528.9z"/><path fill="#010101" d="M1901.5,631.2c4.9-1.2,9.8-2.5,14.8-3.7c4.2-1.1,2.4-7.5-1.8-6.5c-4.9,1.2-9.8,2.5-14.8,3.7 C1895.5,625.8,1897.3,632.3,1901.5,631.2L1901.5,631.2z"/><path fill="#58595B" d="M1962.3,600.9H1952c-5.6,0-5.6,8.6,0,8.6h10.4C1967.9,609.5,1967.9,600.9,1962.3,600.9z"/><path fill="#6D6E71" d="M1486.6,409.4c17.8-2.2,35.6-3.1,53.5-2.6c2.7,0.1,5-2.8,4.2-5.5c-3.3-10.3-14.3-8.2-22.7-7.4 c-11.6,1-23.3,0.8-35-0.4c-5.5-0.5-5.5,8.1,0,8.6c8.4,0.8,16.8,1.1,25.2,0.9c3.9-0.1,7.8-0.4,11.6-0.7 c2.8-0.3,11.2-2.6,12.4,1.2c1.4-1.8,2.8-3.6,4.2-5.5c-17.9-0.5-35.8,0.4-53.5,2.6C1481.1,401.4,1481,410.1,1486.6,409.4 L1486.6,409.4z"/><path fill="#010101" d="M1349.8,552.2c-0.7,7.9-1.5,15.7-2.2,23.6c-0.7,7.5-1.8,13.7,1.1,20.8c1.4,3.3-0.1,8.4-0.4,11.8 c-0.4,3.9-0.8,7.8-1.2,11.8c-0.9,8.5-1.7,17-2.6,25.5c0.8-1.1,1.6-2.2,2.5-3.2c-1.2,0.2-2.4,0.4-3.6,0.7 c-2.3,0.4-2.9,3.2-2,4.9c3.4,6.8-3.4,9.7-5.7,15.1c-2.5,5.9-0.9,12.3-2.2,18.4c-0.9,4.2,5.6,6,6.5,1.8 c0.7-3.4,0.8-6.8,0.8-10.3c0-4.8,1.1-7.9,4.4-11.4c4.5-4.7,4.9-11.3,2-17c-0.7,1.6-1.3,3.3-2,4.9c1.2-0.2,2.4-0.4,3.6-0.7 c1.6-0.3,2.3-1.8,2.5-3.2c0.8-7.8,1.6-15.7,2.4-23.5c0.8-8.1,2.7-16.7,2.1-24.8c-0.2-3-2.2-5.4-2.4-8.5 c-0.3-3.6,0.6-7.5,0.9-11.1c0.8-8.5,1.6-17,2.4-25.5C1356.9,547.8,1350.2,547.9,1349.8,552.2L1349.8,552.2z"/><path fill="#010101" d="M1352.5,788.2c-4.2-17.5-7.5-35.2-10.1-53c-1.3-9.2-2.4-18.5-3.2-27.8c-0.7-7.5-3.4-18.5,0.7-25.4 c2.2-3.7-3.6-7.1-5.8-3.4c-4.2,7-2.7,15.3-2.1,23c0.8,10.2,2,20.5,3.3,30.7c2.6,19.4,6.2,38.7,10.7,57.7 C1347,794.2,1353.5,792.4,1352.5,788.2L1352.5,788.2z"/><path fill="#414042" d="M1529.7,443.7c3.7-0.4,2.5,9.1,2.5,11.1c0,3.3,0.8,7.8-0.1,10.9c1.4-1.1,2.8-2.1,4.2-3.2 c-0.3,0-0.6,0-0.9-0.1c1,0.4,2,0.8,3.1,1.3c-1.8-2.2-2-7-2.3-9.7c-0.4-3.5-0.4-7.1-0.4-10.6c-2.9,0-5.8,0-8.6,0 c0.2,5.8,0.3,11.7,0.5,17.5c0.1,3.2,0.2,6.5,0.3,9.7c0,1.8,1,6.4,0.1,7.9c0.9-0.7,1.7-1.3,2.6-2c-0.3,0-0.5,0.1-0.8,0.1 c1.1,0.1,2.2,0.3,3.3,0.4c-0.2-0.1-0.4-0.3-0.7-0.4c0.7,1.2,1.4,2.5,2.1,3.7c0-0.2,0-0.4,0-0.7c-1.1,1.4-2.1,2.8-3.2,4.2 c2.1-0.7,4.3-1.4,6.4-2.2c2.2-0.8,3.6-2.9,3-5.3c-1.5-5.6,3.6-11.4,5.5-16.5c1.9-4.9,1.8-10.4,0.9-15.6 c0.1-1.9-1.1-2.5-3.4-1.9c0.4,1.4,0.1,3.5,0.1,4.9c0,3.2,0,6.4,0,9.6s0,6.4,0,9.6c0,3.5,0.9,8.2-0.5,11.5 c0.7-0.9,1.3-1.7,2-2.6c0.1,0,0.2,0,0.3,0c1,0.4,2,0.8,3.1,1.3c-0.2-0.2-0.5-0.4-0.7-0.6c-4.2-3.6-10.3,2.5-6.1,6.1 c2.6,2.3,6.1,2.7,8.7,0c3.5-3.5,1.9-11.3,1.9-15.7c0-5.8,0-11.6,0-17.4c0-3.8,0.9-10.1-2.3-13c-2.6-2.3-5.8-2.9-8.8-0.8 c-3.8,2.6-3.4,7.2-2.5,11.1c2.5,11.9-9.5,20.3-6.4,32c1-1.8,2-3.5,3-5.3c-2.1,0.7-4.3,1.4-6.4,2.2c-1.8,0.6-3.3,2.2-3.2,4.2 c0.2,2.8,1.9,5.4,5,5.4c4,0,5.5-3.3,5.8-6.7c0.7-11.5-0.6-23.5-0.9-35.1c-0.1-5.6-8.7-5.6-8.6,0c0,7.1-1,27,9.2,27.8 c1.9,0.1,3.6-1.4,4.2-3.2c0.9-3,0.4-6.4,0.4-9.5c0-4.2,0.1-8.5-0.2-12.8c-0.4-5.8-4.7-11.3-10.9-10.7 C1524.3,435.7,1524.2,444.3,1529.7,443.7L1529.7,443.7z"/><circle fill="#414042" stroke="#010101" stroke-width="6.73" stroke-miterlimit="10" cx="1451.8" cy="779.6" r="81.7"/><ellipse fill="#939598" stroke="#010101" stroke-width="6.73" stroke-miterlimit="10" cx="1451.8" cy="779.6" rx="47.5" ry="46.6"/><circle fill="#58595B" stroke="#010101" stroke-width="6.73" stroke-miterlimit="10" cx="1451.8" cy="779.6" r="16.5"/><path fill="#939598" d="M2033.9,526.7c11.1-6.2,22.3-12.3,33.4-18.5c4.1-2.3,1.8-7.6-2.2-8c-13.5-1.5-20.6,11.9-32.8,13.9 c1.4,0.4,2.8,0.7,4.2,1.1c0.1,1.7,0.9,2.6,2.4,2.8c1.5,0.5,3,1,4.5,1.3c2.5,0.5,5,0.5,7.5,0.3c5.8-0.5,9.9-2.4,13-7.2 c3-4.7-4.5-9-7.4-4.4c-4.4,6.9-13.6,0.9-19.4,0.6c-5.6-0.2-10.7,4.1-8.6,10c2.6,7.1,11.7,2.5,16-0.1 c6.7-3.9,12.3-10.7,20.7-9.8c-0.7-2.7-1.5-5.4-2.2-8c-11.1,6.2-22.3,12.3-33.4,18.5C2024.7,522,2029,529.4,2033.9,526.7 L2033.9,526.7z"/><path fill="#010101" d="M1350.1,791.6c5.9,2.4,12,2.8,18.2,1.7c4.3-0.7,2.5-7.2-1.8-6.5c-5,0.9-9.9,0.2-14.7-1.7 C1347.9,783.5,1346.1,790,1350.1,791.6L1350.1,791.6z"/><path fill="#010101" d="M1351.3,790.2c4.3,0,4.3-6.7,0-6.7S1347,790.2,1351.3,790.2L1351.3,790.2z"/><path fill="#58595B" d="M1976.9,569.5c-0.2,2.3-0.4,4.6-0.5,6.9"/><path fill="#939598" d="M1947.7,658.9c2.4-0.1,27.4-1.6,27.5,0c-0.4-5.5-9-5.6-8.6,0c0.8,10.2,16.5,6.5,13.2-2.2 c-1.9-5-5.7-6.8-10.9-7.1c-7-0.3-14.2,0.5-21.1,0.7C1942.1,650.5,1942.1,659.1,1947.7,658.9L1947.7,658.9z"/><path fill="#010101" d="M1354.1,784.7c-12.3-25.4-1.5-54.7,18.3-72.8c20.8-19,51-27,78.6-26.4c28.2,0.7,55.2,12.5,74.2,33.5 c20,22.1,24.4,52,25,80.7c0.1,4.3,6.8,4.3,6.7,0c-0.6-27.8-4.6-56-21.6-78.8c-15.4-20.8-38.8-34.4-63.9-39.7 c-49.4-10.3-116.1,12.5-127.8,66.9c-2.9,13.5-1.3,27.6,4.7,40.1C1350.1,792,1355.9,788.6,1354.1,784.7L1354.1,784.7z"/><path fill="#010101" d="M1822.2 798.8c-89.7 3.4-179.6 3.7-269.3.9-4.3-.1-4.3 6.6 0 6.7 89.8 2.9 179.6 2.6 269.3-.9C1826.5 805.3 1826.5 798.6 1822.2 798.8L1822.2 798.8zM1352.3 555.2c28-2.9 55.7-6.4 83.5-10.9 5.5-.9 11.4-1.2 16.5-3.7 1.6-.8 2.8-2.3 3.8-3.7 1.7-2.5.6-6.3 4.4-6.6 6.7-.5 13.6.2 20.3.4 2.9.1 21.3-1 17.7 6.1-1.1 2.3.2 5 2.9 5.1 7.6.1 15.1.2 22.7.3 3.9.1 7.6-.3 9.2 4 1.2 3.2 1.3 6.8 1.7 10.1 1.8 15.4 2.7 30.8 2.8 46.3.1 15.3-1.3 30.5-2.2 45.7-.6 10.8 3.2 23 14.7 26.2 4.2 1.2 6-5.3 1.8-6.5-14.9-4.1-9-27.5-8.3-38.4 1-16.1 1-32.2.1-48.3-.4-7.7-1.1-15.4-1.9-23.1-.6-5.7-.9-11.8-3.5-17-2.4-4.7-7.7-5.6-12.4-5.7-8.2-.2-16.4-.2-24.6-.3 1 1.7 1.9 3.4 2.9 5.1 2.3-4.5 1.1-8.7-2.2-12.3-4.1-4.4-12-3.8-17.4-3.9-8-.2-16.1-.4-24.1-.4-6.3 0-8.5 3.9-10 9.4-.8 3-6.4 3.2-8.8 3.6-4.5.7-8.9 1.4-13.4 2.2-8.3 1.3-16.6 2.6-25 3.8-16.9 2.4-34 4.2-51 5.9C1348 548.9 1348 555.6 1352.3 555.2L1352.3 555.2z"/><path fill="#010101" d="M1508.5 700.8c7.1-3.5 12.7-10 18.2-15.5 5.6-5.7 10.6-11.9 14.4-19 2-3.8-3.8-7.2-5.8-3.4-3.5 6.6-8.1 12.2-13.3 17.6-5 5.2-10.4 11.2-16.9 14.4C1501.3 696.9 1504.7 702.7 1508.5 700.8L1508.5 700.8zM1550 677c99.1-.7 198.2-1.5 297.3-2.2 4.3 0 4.3-6.8 0-6.7-99.1.7-198.2 1.5-297.3 2.2C1545.6 670.3 1545.6 677 1550 677L1550 677z"/><path fill="#010101" d="M1980.2,640.5c-45.9-10.5-95.4-0.4-133.4,27.4c-3.5,2.5-0.1,8.4,3.4,5.8 c36.6-26.8,83.9-36.8,128.2-26.7C1982.6,647.9,1984.4,641.4,1980.2,640.5L1980.2,640.5z"/><path fill="#010101" d="M1824.4,803.7c4.5-8.4,5-17.7,3.8-27c-1.6-11.7-4.3-22.8-3.3-34.7c1.7-21.5,13.3-41.4,28.6-56 c33.8-32.1,83.5-37.1,127.8-34.6c4.3,0.2,4.3-6.5,0-6.7c-45.3-2.6-93,3.1-128.9,33.3c-16.3,13.7-28,32.7-32.7,53.5 c-2.3,10.5-2.2,21.2-0.6,31.8c1.9,12.3,5.8,25.4-0.5,37C1816.6,804.1,1822.4,807.5,1824.4,803.7L1824.4,803.7z"/><path fill="#010101" d="M1755.3 752c19.6 1.2 39.2 1.5 58.8.8 4.3-.2 4.3-6.9 0-6.7-19.6.7-39.2.4-58.8-.8C1750.9 745 1751 751.8 1755.3 752L1755.3 752zM1564 554.7c1.8 13.9-.8 27.9 1.9 41.7 2.3 11.7 9.7 20.6 20.3 25.7 11.5 5.6 25 6.9 37.4 9.2 16.2 3 32.5 5.9 48.7 8.9 15.6 2.8 31.2 5.7 46.8 8.5 7.8 1.4 15.6 2.8 23.4 4.3 5.9 1.1 12.5 3 18.5 1.9 13.9-2.7 9.8-18.4 8.9-28.7-1.4-16.2-2.7-32.4-4.1-48.6-.4-4.3-7.1-4.3-6.7 0 1.1 13.6 2.3 27.2 3.4 40.8.5 6.5 1.1 13 1.6 19.4.2 3 1.1 6.7-1.1 9.2-1.8 2-5.7 1.5-8.1 1.4-6.2-.4-12.4-2.1-18.5-3.2-7.1-1.3-14.3-2.6-21.4-3.9-14.3-2.6-28.6-5.2-42.9-7.8-13.6-2.5-27.3-5-40.9-7.5-12.3-2.2-25-3.8-37-7.7-11.6-3.8-19.1-11.6-21.9-23.5-3-13 0-26.7-1.7-39.9C1570.2 550.5 1563.5 550.4 1564 554.7L1564 554.7z"/><path fill="#010101" d="M1569.3,556.2c7.1-0.5,14.1-1,21,1.3c3.6,1.2,6.8,3.7,10.1,5.4c3.3,1.7,6.9,2.8,10.5,3.6 c7.3,1.6,15,1.6,22.4,2c8.7,0.5,17.3,0.9,26,1.4c33.9,1.8,67.9,3.6,101.8,5.4c4.3,0.2,4.3-6.5,0-6.7 c-33.9-1.8-67.9-3.6-101.8-5.4c-8-0.4-16-0.8-24-1.3c-8.1-0.4-16.3-0.5-24.3-2.3c-7.5-1.7-13.3-6.8-20.6-9.2 c-6.7-2.2-14.3-1.5-21.2-1C1565,549.8,1565,556.5,1569.3,556.2L1569.3,556.2z"/><path fill="#939598" d="M2033.9,526.4c-1.9,18.8-0.3,37.7,4.5,56c2.1,7.9,7.9,18.3,4.3,26.4c2,1.2,2.8,1,2.3-0.7 c0.1-1.2,0.1-2.4,0.2-3.6c0.2-2.6,0.6-5.2,1-7.7c0.8-4.7,2.1-9.3,3.7-13.9c-2.8,0-5.5,0-8.3,0c1.3,9,2.7,17.9,4,26.9 c0.6,4.3,7.5,4,8.3,0c3.3-15.8,5.6-31.7,6.8-47.8c-2.9,0-5.8,0-8.6,0c-0.4,12.1-0.2,24.2,0.6,36.3c0.3,4.6,7.5,6.2,8.5,1.1 c3.6-18.6,5.3-37.5,5-56.4c-0.1-7.2,1.1-17.5-5.1-22.7c-6.1-5-14-2.2-20.3,0.7c-1.4,0.6-2.1,2.3-2.1,3.7 c-0.8,18.2-1.6,36.3-2.5,54.5c-0.2,5.3,6.8,5.3,8.5,1.1c7-17.2,6-35.9,4.7-54c-0.4-5.5-8.9-5.6-8.6,0c1.1,21.3,2.3,42.7,3.4,64 c0.3,5,6.8,5.7,8.5,1.1c6.7-17.9,7.4-37.2,6.4-56.1c-0.3-6.3,0.8-17.2-8.5-16.5c-8.7,0.6-8.9,10.1-6.7,16.4 c1.8,5.2,10.1,3,8.3-2.3c-0.4-1.1-2.6-10.1-2.2-4.8c0.2,3,0.4,6,0.6,9c0.3,6,0.4,12.1,0.2,18.1c-0.4,11.6-2.3,23-6.4,33.9 c2.8,0.4,5.6,0.8,8.5,1.1c-1.1-21.3-2.3-42.7-3.4-64c-2.9,0-5.8,0-8.6,0c1.3,17.4,2.3,35.2-4.4,51.7c2.8,0.4,5.6,0.8,8.5,1.1 c0.8-18.2,1.6-36.3,2.5-54.5c-0.7,1.2-1.4,2.5-2.1,3.7c2.5-1.2,5-2.3,7.9-2.4c4.1-0.1,4,4.4,4.1,7.3c0.4,7,0.5,14,0.3,21.1 c-0.3,14.3-2,28.6-4.7,42.6c2.8,0.4,5.6,0.8,8.5,1.1c-0.8-12.1-1-24.2-0.6-36.3c0.2-5.6-8.2-5.5-8.6,0 c-1.2,15.3-3.4,30.4-6.5,45.5c2.8,0,5.5,0,8.3,0c-1.3-9-2.7-17.9-4-26.9c-0.7-4.6-7.1-3.6-8.3,0c-1.9,5.7-3.3,11.5-4.3,17.4 c-0.7,4.6-2.4,11.4,0.1,15.7c1.9,3.3,5.8,5.1,9.4,3c4.5-2.6,5.5-8.9,5.5-13.6c0.1-5.4-1.9-10.9-3.6-16 c-2.1-6.4-3.7-13-4.9-19.7c-2.5-13.5-2.7-27.4-1.4-41.1C2043.1,520.9,2034.4,520.9,2033.9,526.4L2033.9,526.4z"/><path fill="#010101" d="M1769.3,649.9c13.5,0.7,27.1,1.4,40.6,2.1c12.5,0.7,25.2,2,37.4-1.3c23.2-6.3,38.4-27.3,51.6-45.8 c2.5-3.5-3.3-6.9-5.8-3.4c-13.1,18.3-27.6,38.1-50.8,43.6c-11.6,2.7-24.5,0.7-36.3,0.1c-12.3-0.6-24.5-1.3-36.8-1.9 C1765,642.9,1765,649.7,1769.3,649.9L1769.3,649.9z"/><path fill="#010101" d="M1817.1 648c10.9 2.8 14-9 16.5-16.8 2-6.3 9.2-9 14.7-11.5 6.5-3.1 13.1-6.1 19.6-9.2 3.9-1.8.5-7.6-3.4-5.8-9.7 4.6-20.5 8.4-29.5 14.5-3.2 2.2-5.9 5.2-7.3 8.8-1.5 3.7-2.7 15.1-8.8 13.6C1814.7 640.4 1812.9 646.9 1817.1 648L1817.1 648zM1756.9 505.8c20.8-14.9 41-30.8 60.3-47.6 3.3-2.9-1.5-7.6-4.8-4.8-18.9 16.5-38.5 32-58.9 46.5C1750 502.5 1753.3 508.3 1756.9 505.8L1756.9 505.8z"/><path fill="#010101" d="M1796.7 513.1c3.2 11.4 8.9 21.6 14.7 31.8 5.3 9.3 10.7 18.4 17.8 26.4 7.8 8.9 18.5 13.6 27.3 21.3 9 7.9 15 18.7 20.9 29 2.2 3.8 8 .4 5.8-3.4-5.1-9-10.4-17.8-17.3-25.6-7.8-8.9-18.7-13.5-27.4-21.3-8.3-7.4-14.2-17.3-19.7-26.8-6.1-10.6-12.3-21.2-15.7-33.1C1802 507.1 1795.5 508.9 1796.7 513.1L1796.7 513.1zM1813.4 495.5c-1 7.6 4.6 12.7 11.9 13.5 10.1 1.1 16.9-9.9 26.6-10.4-1.1-.8-2.2-1.6-3.2-2.5 2.2 9 7.8 16.1 13 23.5 5.7 8.2 10.1 17.2 13.7 26.4 7.4 18.7 11.2 38.7 15 58.4.8 4.3 7.3 2.4 6.5-1.8-3.7-19.2-7.6-38.4-14.4-56.8-3.3-8.8-7.3-17.3-12.2-25.3-5.3-8.6-12.7-16.2-15.1-26.2-.3-1.4-1.8-2.6-3.2-2.5-5.7.3-10.2 2.8-15 5.8-2.5 1.6-5 3.1-7.8 4.1-3 1.1-9.8.4-9.2-4.5C1820.4 493 1813.9 491.2 1813.4 495.5L1813.4 495.5z"/><path fill="#010101" d="M1800,514.6c6-5.9,12.3-11.2,19.3-15.9c3.6-2.4,0.2-8.3-3.4-5.8c-7.4,5-14.3,10.6-20.6,16.9 C1792.2,512.9,1796.9,517.6,1800,514.6L1800,514.6z"/><path fill="#FBB040" d="M1997.3,632.4c-0.8,3.3-1.5,6.8-0.7,10.1c1.1,4.8,5.1,8.3,8.9,11.5c-1.3,0.9-3.4,0.7-4.5-0.5 c-1.1-1.2-1.1-3.2-0.1-4.5c1.2-2,4.6-1.6,6,0.3s1.6,4.4,1.5,6.8c0.6-9-1.6-18.2-6.1-26c-0.2,4.8-0.5,9.5-0.7,14.3"/><path fill="#F7941E" d="M1993.2,631.2c-1.1,5-1.9,10,0.2,14.9c2,4.5,5.5,7.8,9.2,11c0.3-2.3,0.6-4.5,0.9-6.8 c0.6-0.3,0.9,5.2,0.9,5.8c0,5.6,8.4,5.5,8.6,0c0.5-9.9-1.9-19.5-6.7-28.1c-2.2-3.9-7.8-2-8,2.2c-0.2,4.8-0.5,9.5-0.7,14.3 c-0.3,5.6,8.3,5.5,8.6,0c0.2-4.8,0.5-9.5,0.7-14.3c-2.7,0.7-5.4,1.5-8,2.2c4.1,7.4,5.9,15.3,5.5,23.8c2.9,0,5.8,0,8.6,0 c0-4-0.6-7.8-3.7-10.6c-2.6-2.4-7.9-3-10.5-0.3c-6.6,6.9,0.4,16.4,9,12.5c2.4-1.1,2.9-5.1,0.9-6.8c-2.4-2-4.8-4-6.5-6.6 c-2.2-3.3-1.4-7.2-0.6-10.8C2002.7,628.1,1994.4,625.8,1993.2,631.2L1993.2,631.2z"/><path fill="#939598" d="M1990.3,345.2c5.2,4.9,13.9,5.4,19.3,0.4c2.9-2.6,4.5-5.5,2.5-9.2c-2-3.7-6.4-5.5-10.4-5.7 c-1.8-0.1-3.8,1.4-4.2,3.2c-1.7,7.5-2.2,15.1-1.5,22.8c0.5,5.5,9.2,5.5,8.6,0c-0.7-6.9-0.3-13.7,1.2-20.5 c-1.4,1.1-2.8,2.1-4.2,3.2c1.7,0.1,2.7,0.9,3.5,2.4c0-1.5,0-2.9,0-4.4c-1.7,3.2-6.1,4.3-8.8,1.7 C1992.3,335.3,1986.2,341.4,1990.3,345.2L1990.3,345.2z"/><path fill="#010101" d="M1787.9 396.4c10.7 11.8 19.3 25 25.9 39.5 1.8 3.9 7.6.5 5.8-3.4-6.8-15-15.9-28.7-26.9-40.8C1789.8 388.4 1785 393.2 1787.9 396.4L1787.9 396.4zM1571.9 316.7c84.9-1.2 169.8-.9 254.7.9 4.3.1 4.3-6.6 0-6.7-84.9-1.9-169.8-2.2-254.7-.9C1567.6 310 1567.6 316.7 1571.9 316.7L1571.9 316.7z"/><path fill="#010101" d="M1807.4 333.3c9-5.4 18-10.8 27-16.2 3.7-2.2.3-8-3.4-5.8-9 5.4-18 10.8-27 16.2C1800.3 329.7 1803.6 335.5 1807.4 333.3L1807.4 333.3zM1569 311.9c-15.1 88-24.5 176.8-28 266-.2 4.3 6.6 4.3 6.7 0 3.5-88.6 12.8-176.9 27.8-264.2C1576.2 309.4 1569.8 307.6 1569 311.9L1569 311.9zM1480.5 396.7c21.5 0 43.1-.7 64.6-2.1 4.3-.3 4.3-7 0-6.7-21.5 1.4-43 2.1-64.6 2.1C1476.1 390 1476.1 396.7 1480.5 396.7L1480.5 396.7zM1483.2 413.9c19.7-.7 39.4-1.4 59.2-2.1 4.3-.2 4.3-6.9 0-6.7-19.7.7-39.4 1.4-59.2 2.1C1478.8 407.3 1478.8 414 1483.2 413.9L1483.2 413.9z"/><path fill="#010101" d="M1540.5 391c.7 5.4 1.3 10.7 2 16.1.5 4.2 7.3 4.3 6.7 0-.7-5.4-1.3-10.7-2-16.1C1546.7 386.7 1540 386.7 1540.5 391L1540.5 391zM1478.7 394.1c.1 4.9.2 9.9.3 14.8.1 4.3 6.8 4.3 6.7 0-.1-4.9-.2-9.9-.3-14.8C1485.3 389.8 1478.6 389.7 1478.7 394.1L1478.7 394.1zM1504.1 338.9c-3 9.4 7.8 14.1 12.4 20.4 5.9 8 7.8 18.6 5.5 28.3-1 4.2 5.5 6 6.5 1.8 2.1-8.6 1.5-17.5-2-25.7-1.7-3.9-3.8-7.4-6.5-10.8-2.6-3.2-10.9-7.6-9.4-12.2C1511.9 336.5 1505.4 334.7 1504.1 338.9L1504.1 338.9z"/><path fill="#BCBEC0" d="M1484.4,390.8c15.7-7.8,34.8-8.7,51.2-2.5"/><path fill="#010101" d="M1486.1 393.7c15.3-7.3 32.7-7.9 48.6-2.1 4.1 1.5 5.8-5 1.8-6.5-17.6-6.5-36.9-5.3-53.8 2.8C1478.8 389.7 1482.2 395.5 1486.1 393.7L1486.1 393.7zM1493.4 419.9c3.7-2.1 7.6.2 9.8 3.4 2.8 4.1 2.4 10 2.4 14.8-.1 10.5-.2 21-.3 31.5-.2 21-.4 42-.6 63 0 4.3 6.7 4.3 6.7 0 .3-25.6.5-51.2.8-76.8.1-6.5.1-13 .2-19.4 0-4.9-.2-10.5-2.5-15-3.8-7.1-12.2-11.6-19.7-7.3C1486.3 416.3 1489.7 422.1 1493.4 419.9L1493.4 419.9zM1535.7 416.6c-2.1-1.3-2.8-1.7-5.3-1.3-2 .3-3.4 1-4.9 2.4-3 2.7-1.9 9.8-2 13.4-.5 11.8-1 23.6-1.4 35.4-1 23.6-1.9 47.1-2.9 70.7-.2 4.3 6.5 4.3 6.7 0 1-25.5 2.1-51.1 3.1-76.6.3-6.5.5-13.1.8-19.6.1-3.3.3-6.5.4-9.8 0-1.1-.4-8.6.7-9.1 1.7-.7 4.6-.1 6.5-.4 1.5-.3 3.1-1.6 3.8-2.9 1.7-2.9.7-6.3-2.1-7.9C1535.3 408.6 1531.9 414.4 1535.7 416.6L1535.7 416.6zM1802.5 333.1c23.8 9.6 34.6 34.8 41.9 57.7 8.5 26.9 16.2 54.2 24.2 81.2 16.5 55.4 33 110.7 49.5 166.1 1.2 4.1 7.7 2.4 6.5-1.8-17.1-57.3-34.1-114.6-51.2-171.8-8.4-28.1-15.9-56.6-25.4-84.2-7.8-22.5-20.7-44.3-43.7-53.6C1800.3 325 1798.5 331.5 1802.5 333.1L1802.5 333.1zM1776.8 330c-33.2-.2-66.4-.5-99.6-.7-16.3-.1-32.5-.4-48.8-.7-12.4-.3-25.9-2.6-34.9 7.7-8 9.1-10.2 22.3-11.4 33.9-1.7 16.2-2.8 32.4-4.1 48.6-2.8 33-5.5 65.9-8.3 98.9-1 11.9-2 23.7-3 35.6-.4 4.3 6.4 4.3 6.7 0 2.8-33 5.5-65.9 8.3-98.9 1.4-16.5 2.8-33 4.1-49.5 1.3-15.8 1.4-32.4 5.1-47.9 1.3-5.7 3.6-11.4 7.3-16 4.9-6.2 11.3-5.9 18.6-5.9 16.1.1 32.3.7 48.4.8 33.2.2 66.4.5 99.6.7 4 0 8 .1 12 .1C1781.2 336.8 1781.2 330 1776.8 330L1776.8 330z"/><path fill="#010101" d="M1779.1,336.7c16.4,3.5,24.5,19.2,29.4,33.7c2.6,7.8,4.7,15.8,7.5,23.6c3,8.4,6.7,16.5,10.5,24.5 c15.4,32,35.6,63.1,39,99.3c0.4,4.3,7.1,4.3,6.7,0c-3.6-38.1-24.6-70.6-40.8-104.4c-4.1-8.6-7.8-17.4-10.9-26.5 c-3-8.8-5.2-17.9-8.7-26.5c-5.6-13.9-15.8-27-31.1-30.3C1776.6,329.3,1774.8,335.8,1779.1,336.7L1779.1,336.7z"/><path fill="#010101" d="M1830.1 429.7c-11 4.6-6.6 19.9-4.9 28.9 2.6 13.6 7.8 26.7 14.8 38.6 2.2 3.7 8 .4 5.8-3.4-4.9-8.5-8.8-17.3-11.6-26.7-1.4-4.5-2.3-9.1-3.2-13.8-.6-3.3-3.6-15.3.9-17.1C1835.8 434.6 1834.1 428.1 1830.1 429.7L1830.1 429.7zM1811.1 420.9c10.6 2.2 8.2-11.2 7.5-17.3-1.3-11.5-2.7-23.1-4-34.6-.5-4.3-7.2-4.3-6.7 0 .9 7.7 1.8 15.4 2.7 23.1.2 2 1.7 22.2 2.4 22.4C1808.7 413.6 1806.9 420.1 1811.1 420.9L1811.1 420.9zM1852.6 367.9c4.2 0 8.4 0 12.6 0 4.3 0 4.3-6.7 0-6.7-4.2 0-8.4 0-12.6 0C1848.3 361.1 1848.3 367.9 1852.6 367.9L1852.6 367.9z"/><path fill="#939598" d="M1946.3,288.2c0.6-2.1,1.4-3.7,2.6-5.6c0.5-0.7,1.3-1.6,1.8-2c-0.1,0.1,1.3-0.7,0.7-0.5 c0.3-0.1,0.7-0.2,0.6-0.2c-1.1-1.4-2.1-2.8-3.2-4.2c0.1,2.6-1.5,4.4-3.5,5.9c-1.9,1.4-1.5,4.6,0,6.1c1.8,1.8,4.2,1.4,6.1,0 c3.6-2.8,6.2-7.3,6-12c-0.1-1.8-1.2-3.8-3.2-4.2c-8.6-1.4-14.4,7-16.4,14.4C1936.5,291.3,1944.9,293.6,1946.3,288.2 L1946.3,288.2z"/><path fill="#58595B" d="M2114.2,758.8h-27.6c-5.6,0-5.6,8.6,0,8.6h27.6C2119.7,767.4,2119.7,758.8,2114.2,758.8z"/><path fill="#010101" d="M1852.2,398.2c4.6,1.1,9.2,1.6,13.9,1.6c4.3,0,4.3-6.7,0-6.7c-4.1,0-8.1-0.4-12.1-1.3 C1849.7,390.7,1847.9,397.2,1852.2,398.2L1852.2,398.2z"/><path fill="#010101" d="M1863.2 364.1c-.7 11 0 21.9 1.8 32.7.7 4.3 7.2 2.5 6.5-1.8-1.8-10.2-2.2-20.6-1.6-30.9C1870.2 359.7 1863.5 359.7 1863.2 364.1L1863.2 364.1zM1848.6 365c1 9.3 1.9 18.5 2.9 27.8.4 4.3 7.2 4.3 6.7 0-1-9.3-2-18.5-2.9-27.8C1854.8 360.7 1848.1 360.7 1848.6 365L1848.6 365zM1855.7 358.4c2.2.3 4.5.6 6.7.9 1.8.2 3.4-1.7 3.4-3.4 0-2-1.5-3.1-3.4-3.4-2.2-.3-4.5-.6-6.7-.9-1.8-.2-3.4 1.7-3.4 3.4C1852.4 357.1 1853.9 358.2 1855.7 358.4L1855.7 358.4zM1529.3 489.3c6.4-.2 12.8-.5 19.3-.7 4.3-.2 4.3-6.9 0-6.7-6.4.2-12.8.5-19.3.7C1525 482.7 1525 489.4 1529.3 489.3L1529.3 489.3zM1526.7 436.1c7.9 1.1 15.8 1.6 23.7 1.5 4.3-.1 4.3-6.8 0-6.7-7.3.1-14.7-.2-21.9-1.2C1524.2 429 1522.4 435.5 1526.7 436.1L1526.7 436.1zM1598.2 461.2c12.6-5.5 21.7 10.4 26.6 19.3 6 10.9 10 22.9 12.4 35.2.8 4 1.4 8 2 12 .5 2.9 1.8 8.9-.3 11.5-1.8 2.2-8.1 1.6-10.6 1.6-3.9 0-7.8-.3-11.7-.1 1.1 1.1 2.2 2.2 3.4 3.4-2.5-29.4-5.4-59.5-19.7-85.9-2.1-3.8-7.9-.4-5.8 3.4 13.7 25.3 16.4 54.3 18.8 82.5.2 1.8 1.4 3.4 3.4 3.4 8.3-.3 20.1 2.5 27-3.5 3.5-3 3-9.4 2.6-13.5-.5-5.5-1.6-11.1-2.6-16.5-2.7-15.1-8.6-29.7-16.5-42.8-6.9-11.3-18.4-21.7-32.3-15.7C1590.8 457.2 1594.2 462.9 1598.2 461.2L1598.2 461.2z"/><path fill="#010101" d="M1645.6,547.3c20.8-3.1,41.7-5.3,62.7-6.7c9.2-0.6,20.1-2,27.6,4.5c5.9,5.2,7.5,14.6,4.1,21.5 c-1.9,3.9,3.9,7.3,5.8,3.4c3.7-7.5,3.3-15.4-0.2-22.9c-4.2-9.1-13.6-12.8-23-13.6c-12.9-1.1-26.6,1.2-39.4,2.4 c-13.2,1.3-26.3,3-39.3,4.9C1639.5,541.4,1641.4,547.9,1645.6,547.3L1645.6,547.3z"/><path fill="#010101" d="M1625.3,546.5c0.6,3.3,0.6,7.9,3.8,9.9c3.2,2,7.1,1.7,10.8,1.5c12.8-0.6,25.7,0.4,38.5,0.3 c13.2-0.2,26.3-0.7,39.5-1.5c9.5-0.6,21.9-1.4,24.5-12.6c1-4.2-5.5-6-6.5-1.8c-2.3,9.5-18.5,7.7-26,8.1 c-10.5,0.6-21.1,0.9-31.6,1.1c-9.6,0.1-19.3,0.1-28.9-0.1c-4-0.1-8-0.2-12.1,0c-1.9,0.1-4.2,0.6-4.9-1.7 c-0.4-1.5-0.5-3.2-0.8-4.8C1630.9,540.5,1624.5,542.3,1625.3,546.5L1625.3,546.5z"/><path fill="#010101" d="M1631.6 563.6c.4-3.1.8-6.3 1.2-9.4.2-1.8-1.7-3.4-3.4-3.4-2 0-3.1 1.5-3.4 3.4-.4 3.1-.8 6.3-1.2 9.4-.2 1.8 1.7 3.4 3.4 3.4C1630.2 567 1631.3 565.4 1631.6 563.6L1631.6 563.6zM1775 492.8c3.3 3 7.1 3.9 11.4 4.6 6.3 1 12 3.2 17.4 6.7 3.7 2.4 7-3.5 3.4-5.8-4-2.6-8.2-4.5-12.8-6-4.6-1.5-10.9-.9-14.6-4.3C1776.5 485.1 1771.7 489.9 1775 492.8L1775 492.8z"/><path fill="#010101" d="M1793.9 472.5c.4 10.5 2.4 20.8 6.2 30.7 1.5 4 8 2.3 6.5-1.8-3.6-9.3-5.6-18.9-5.9-28.9C1800.5 468.2 1793.8 468.2 1793.9 472.5L1793.9 472.5zM1833.7 565.8c-.4-10.3 6.6-18.8 17-19.7 4.3-.3 4.3-7.1 0-6.7-13.9 1.1-24.3 12.3-23.8 26.4C1827.2 570.1 1833.9 570.1 1833.7 565.8L1833.7 565.8z"/><path fill="#010101" d="M1849.1 585.7c3.8-4.3 7.7-8.7 11.5-13 2.7-3.1 5.3-6 6.5-10 2.8-9.3-7.1-15.8-13.9-19.3-3.9-2-7.3 3.8-3.4 5.8 5.5 2.8 13.9 7.3 9.4 14.7-3.8 6.2-10.1 11.6-14.9 17C1841.5 584.2 1846.3 589 1849.1 585.7L1849.1 585.7zM1816.3 503.6c4.5 16.4 9 32.8 13.5 49.2 1.1 4.2 7.6 2.4 6.5-1.8-4.5-16.4-9-32.8-13.5-49.2C1821.6 497.6 1815.1 499.4 1816.3 503.6L1816.3 503.6zM1913.1 608.2c10.9-.6 21.6-2 32.3-4.2 4.2-.9 2.4-7.3-1.8-6.5-10.1 2.1-20.2 3.4-30.5 4C1908.8 601.8 1908.8 608.5 1913.1 608.2L1913.1 608.2zM1921.1 631.4c9.8-4.1 20.1-6.8 30.7-8 4.3-.5 4.3-7.2 0-6.7-11.8 1.3-23.1 4.2-34.1 8.9C1913.7 627.3 1917.1 633.1 1921.1 631.4L1921.1 631.4z"/><path fill="#010101" d="M1941,604.5c5.5,3.2,8.8,8.4,9.7,14.6c0.7,4.3,7.1,2.5,6.5-1.8c-1.2-7.9-6-14.6-12.8-18.6 C1940.7,596.5,1937.3,602.3,1941,604.5L1941,604.5z"/><path fill="#010101" d="M1913.1 320.3c5.2.1 10.6.5 15.8.1 3.5-.2 8.1-1.8 9.2 2.3 1 3.7.6 7.9.4 11.7-.2 5.2.1 10.3.3 15.5 1.1 27.9 2 55.8 2.6 83.6 1.2 54.7 1.3 109.4.4 164.1-.1 4.3 6.7 4.3 6.7 0 .9-58.7.7-117.4-.7-176.1-.4-14.6-.8-29.2-1.3-43.8-.5-13.4-1.7-26.9-1.5-40.2.1-7 1.7-16.1-3.2-21.8-2.4-2.8-7.4-2.3-10.5-2.1-6.1.3-12.2.2-18.3.1C1908.8 313.5 1908.8 320.2 1913.1 320.3L1913.1 320.3zM1942.1 288c5.2-14.7 22.3-18 36.1-17.8 15.6.2 31.1 3.6 46.4-1.3 4.1-1.3 2.4-7.8-1.8-6.5-18.1 5.7-37-.5-55.5 1.5-13.6 1.5-26.8 8.9-31.6 22.3C1934.2 290.3 1940.7 292 1942.1 288L1942.1 288z"/><path fill="#010101" d="M1912.8,316.2c6.6-6.1,12.4-13,17.5-20.4c2.4-3.6-3.4-7-5.8-3.4c-4.7,7-10.2,13.3-16.4,19.1 C1904.9,314.4,1909.7,319.1,1912.8,316.2L1912.8,316.2z"/><path fill="#58595B" d="M1985.6,420.3c-3.1-7.5-6.2-15-9.3-22.5c-2.1-5.1-10.4-2.8-8.3,2.3c3.1,7.5,6.2,15,9.3,22.5 C1979.3,427.6,1987.7,425.4,1985.6,420.3z"/><path fill="#010101" d="M1928.4 295.2c29-.4 58-.8 87-1.1 4.3-.1 4.3-6.8 0-6.7-29 .4-58 .8-87 1.1C1924 288.6 1924 295.3 1928.4 295.2L1928.4 295.2zM2021.9 267.7c-.3 41.7-.7 83.3-1 125-.2 20.5-.3 41-.5 61.5-.2 19.6-.1 39.2 4.7 58.4 1.1 4.2 7.5 2.4 6.5-1.8-4.8-19.2-4.6-38.9-4.4-58.6.2-20.5.3-41 .5-61.5.3-41 .7-82 1-123C2028.7 263.3 2022 263.3 2021.9 267.7L2021.9 267.7zM2086 499.8c3 87.9 3 175.8-.1 263.7-.2 4.3 6.6 4.3 6.7 0 3.1-87.9 3.1-175.8.1-263.7C2092.5 495.5 2085.8 495.5 2086 499.8L2086 499.8z"/><path fill="#010101" d="M2062.6,500.8c-0.7,66.2-1.4,132.4,0.3,198.6c0.4,16.5,1,33.1,1.7,49.6c0.5,11.3-1.2,27.3,10,34.1 c4.1,2.5,9.1,3.1,13.7,3.6c6.2,0.7,12.5,1.3,18.8,1.9c16,1.5,32.1,1.6,48.1,1.1c29.6-0.9,59.1-3.7,88.6-6 c29.5-2.2,59-4.5,88.4-6.7c4.3-0.3,4.3-7.1,0-6.7c-32.8,2.5-65.5,5-98.3,7.5c-32.8,2.5-65.6,5.7-98.5,5.5 c-14.6-0.1-28.9-1.7-43.4-2.9c-5.2-0.4-10.6-0.9-15.1-3.6c-6.2-3.8-5.1-15.6-5.4-21.7c-1.6-33.1-2.4-66.2-2.8-99.2 c-0.6-51.6,0-103.3,0.5-154.9C2069.4,496.5,2062.7,496.5,2062.6,500.8L2062.6,500.8z"/><path fill="#010101" d="M2091.6,762.4c67.3,0.9,134.5,1.2,201.8,0.4c4.3-0.1,4.3-6.8,0-6.7c-67.3,0.8-134.5,0.5-201.8-0.4 C2087.2,755.6,2087.2,762.3,2091.6,762.4L2091.6,762.4z"/><path fill="#939598" d="M1959.4,281.3c2.8-1.4,6.7-0.5,8.6,2.1c0-1.5,0-2.9,0-4.4c-2.1,3-5.7,1-6.4-1.9c-0.7,1.6-1.3,3.2-2,4.9 c3-1.3,6.3-1.5,9.5-1.1c2.3,0.3,4.3-2.2,4.3-4.3c0-2.6-2-4-4.3-4.3c-4.9-0.6-9.4,0.3-13.9,2.3c-1.8,0.8-2.4,3.2-2,4.9 c1,4.6,4.6,8.2,9.1,9.4c5.1,1.4,10.1-1.4,13-5.4c0.8-1.1,0.8-3.2,0-4.4c-4.7-6.6-13.1-8.8-20.4-5.2 C1950.1,276.3,1954.5,283.7,1959.4,281.3L1959.4,281.3z"/><path fill="#010101" d="M2064.7,501.2c6.9-0.1,13.8-0.2,20.6-0.3c4.3-0.1,4.3-6.8,0-6.7c-6.9,0.1-13.8,0.2-20.6,0.3 C2060.3,494.6,2060.3,501.3,2064.7,501.2L2064.7,501.2z"/><path fill="#010101" d="M2034.5 514.7c8.4-6.1 17.6-10.6 27.6-13.3 4.2-1.2 2.4-7.6-1.8-6.5-10.5 2.9-20.3 7.6-29.2 14C2027.6 511.4 2031 517.3 2034.5 514.7L2034.5 514.7zM1371.5 713.9c4.5-.3 7.3 4.1 10.6 6.6 3.4 2.6 6.7 3.9 11 3.1 4.3-.8 2.5-7.3-1.8-6.5-4.2.8-7.6-4.5-10.6-6.7-2.7-2.1-5.7-3.5-9.2-3.2C1367.2 707.5 1367.1 714.2 1371.5 713.9L1371.5 713.9zM1403.3 693.9c.5-.1 1-.2 1.6-.3-1.4-.8-2.8-1.6-4.1-2.3.9 4.8 1.4 9.6 1.6 14.4.1 4.3 6.8 4.3 6.7 0-.1-5.5-.8-10.9-1.8-16.2-.4-1.9-2.5-2.7-4.1-2.3-.5.1-1 .2-1.6.3C1397.3 688.3 1399.1 694.8 1403.3 693.9L1403.3 693.9zM1531.9 781.2c7.4 3.4 14.3 7.8 20.4 13.2 3.2 2.9 8-1.9 4.8-4.8-6.6-5.8-13.8-10.6-21.8-14.2C1531.4 773.6 1527.9 779.4 1531.9 781.2L1531.9 781.2zM1355.8 787.2c1.9-10.1 7.5-18.6 16.2-24 3.7-2.3.3-8.1-3.4-5.8-10.1 6.3-17.1 16.3-19.3 28C1348.6 789.7 1355.1 791.5 1355.8 787.2L1355.8 787.2zM1343.6 665.4c7.9.9 15.9 1.1 23.8.5 4.3-.3 4.3-7 0-6.7-8 .5-15.9.4-23.8-.5C1339.3 658.1 1339.4 664.9 1343.6 665.4L1343.6 665.4zM1353.2 599.1c60.8 6.6 121.8 12.1 182.9 16.4 4.3.3 4.3-6.4 0-6.7-61-4.3-122-9.8-182.9-16.4C1348.9 591.9 1348.9 598.6 1353.2 599.1L1353.2 599.1z"/><path fill="#010101" d="M1350.3 650.7c7.7-15.3 15.6-30.6 23.5-45.9 2-3.8-3.8-7.2-5.8-3.4-8 15.2-15.8 30.5-23.5 45.9C1342.5 651.2 1348.3 654.6 1350.3 650.7L1350.3 650.7zM1358 554.8c30.3-4.2 61.5.7 91.7 3.5 30.8 2.9 61.7 5.8 92.5 8.7 4.3.4 4.3-6.3 0-6.7-31.5-3-63-5.9-94.5-8.9-30.3-2.9-61.1-7.3-91.6-3.1C1351.9 548.9 1353.8 555.4 1358 554.8L1358 554.8zM1837 424.4c8.1-6.7 13.8-15.6 16.6-25.8 1.1-4.2-5.3-6-6.5-1.8-2.5 9.1-7.5 16.8-14.8 22.8C1829 422.4 1833.7 427.1 1837 424.4L1837 424.4zM1774.7 317.4c10 3 22 5 30.6 11.3 3.5 2.6 6.8-3.3 3.4-5.8-9.1-6.7-21.6-8.8-32.2-12C1772.3 309.7 1770.6 316.1 1774.7 317.4L1774.7 317.4zM1949.5 307.7c6.5 5.3 14.8 6.2 21.9 10.3 7.8 4.4 9.6 14.7 18.4 18.2 3.2 1.3 6.4 1.5 9.7.3 3.8-1.4 3.4-8.3 3.8-11.7 1.5-10.9 1.9-21.9 1.4-32.9-.2-4.3-6.9-4.3-6.7 0 .6 13.6-.3 27.1-2.7 40.5.8-.8 1.6-1.6 2.3-2.3-9 3.3-14.4-10.8-19.8-15.7-6.7-6.1-16.7-5.8-23.6-11.4C1950.9 300.2 1946.2 305 1949.5 307.7L1949.5 307.7z"/><path fill="#010101" d="M1985.2 671.6c-.1-115.1-.2-230.2-.4-345.2 0-4.3-6.7-4.3-6.7 0 .1 115.1.2 230.2.4 345.2C1978.5 676 1985.3 676 1985.2 671.6L1985.2 671.6zM2006.1 689c11.9-7 16.5-20 17.9-33.1.9-8.7.6-17.6.7-26.3.1-9.3.2-18.6.3-28 .4-36.6.8-73.3 1.2-109.9 0-4.3-6.7-4.3-6.7 0-.4 34-.7 67.9-1.1 101.9-.2 16.6-.3 33.2-.5 49.7-.2 14.4-1.3 31.7-15.1 39.8C1998.9 685.4 2002.3 691.2 2006.1 689L2006.1 689zM2058.4 649c-10.1 16.1-8.4 35.7-7.8 53.8.8 22.9 1.5 45.8 2.3 68.7.1 4.3 6.9 4.3 6.7 0-.7-20.9-1.4-41.9-2.1-62.8-.6-18.5-3.6-39.8 6.7-56.3C2066.5 648.7 2060.6 645.4 2058.4 649L2058.4 649z"/><path fill="#010101" d="M2037.8 658c7 4.1 6.6 14 6.9 21 .4 10.5.7 21 .8 31.5.2 20.4-.4 40.7-1.5 61.1-.2 4.3 6.5 4.3 6.7 0 1.3-23 1.7-46 1.4-69-.2-10.5-.2-21.2-1.1-31.7-.7-7.4-3-14.8-9.7-18.8C2037.5 650 2034.1 655.8 2037.8 658L2037.8 658zM2032.4 621.6c10.5 0 20.9 0 31.4 0 4.3 0 4.3-6.7 0-6.7-10.5 0-20.9 0-31.4 0C2028 614.9 2028 621.6 2032.4 621.6L2032.4 621.6zM2029.7 639.5c11.4-2.1 22.9-2.8 34.5-2 4.3.3 4.3-6.5 0-6.7-12.2-.8-24.3 0-36.3 2.3C2023.6 633.8 2025.5 640.2 2029.7 639.5L2029.7 639.5zM1980.4 673.6c9.1-.6 17.6 3.2 22.8 10.7 2.4 3.6 8.3.2 5.8-3.4-6.5-9.4-17.1-14.9-28.6-14.1C1976.1 667.1 1976 673.9 1980.4 673.6L1980.4 673.6zM1955 612.6c9.1-3.2 18-6.8 26.8-10.9 3.9-1.8.5-7.6-3.4-5.8-8.2 3.8-16.6 7.2-25.2 10.2C1949.2 607.6 1950.9 614.1 1955 612.6L1955 612.6zM1946.6 605.8c11.4-5.1 23-9.6 34.7-13.7 4.1-1.4 2.3-7.9-1.8-6.5-12.3 4.2-24.4 9-36.4 14.3C1939.2 601.7 1942.7 607.5 1946.6 605.8L1946.6 605.8zM1942.3 623.7c2.6 3 3.4 6.9 2.5 10.7-1.1 4.2 5.4 6 6.5 1.8 1.6-6.2 0-12.4-4.2-17.2C1944.2 615.6 1939.4 620.4 1942.3 623.7L1942.3 623.7zM1827 796c4.9 0 9.9 0 14.8 0 4.3 0 4.3-6.7 0-6.7-4.9 0-9.9 0-14.8 0C1822.7 789.3 1822.7 796 1827 796L1827 796zM1527.7 328.2c0 6.1 3.1 28.1 13.5 23.5 3.3-1.4 6.4-3.3 9.6-5 2.1-1.1 4.5-2.5 5.7-4.6 3.2-5.5.5-10.8 1.6-16.6.8-4.2-5.7-6-6.5-1.8-.6 3.4-.3 6.5 0 9.9.5 5.5-3.3 6.8-7.5 9-1.6.9-3.2 1.7-4.9 2.6-.7.4-2.7-4.6-2.9-5-1.6-3.8-2.1-7.9-2-12C1534.5 323.8 1527.8 323.8 1527.7 328.2L1527.7 328.2z"/><path fill="#010101" d="M1526.9 329.9c9.1 2.4 18.4 1.1 26.5-3.8 3.7-2.2.3-8.1-3.4-5.8-6.6 4-13.9 5.1-21.3 3.2C1524.5 322.3 1522.7 328.8 1526.9 329.9L1526.9 329.9zM1544.1 349.9c4.5 6.9 7.9 14.3 10 22.2 1.2 4.2 7.6 2.4 6.5-1.8-2.3-8.5-5.9-16.5-10.7-23.8C1547.5 342.9 1541.7 346.3 1544.1 349.9L1544.1 349.9z"/><path fill="#58595B" d="M1944.2,313.6v15.5c0,5.6,8.6,5.6,8.6,0v-15.5C1952.8,308,1944.2,308,1944.2,313.6z"/><path fill="#010101" d="M1547.7 348c5.5 1.8 11.2 2.6 17 2.3 4.3-.2 4.3-6.9 0-6.7-5.2.2-10.2-.5-15.2-2.1C1545.4 340.1 1543.6 346.6 1547.7 348L1547.7 348zM2248 756c-51.1 7.4-102.6 11.9-154.2 13.7-4.3.1-4.3 6.9 0 6.7 52.2-1.8 104.3-6.4 156-13.9C2254.1 761.9 2252.3 755.4 2248 756L2248 756zM1541.1 439.7c.7-.1 1.4-.2 2-.3-1.4-1.1-2.8-2.2-4.3-3.2 1.2 14.5.8 29.1-1.1 43.5-.6 4.3 6.2 4.2 6.7 0 1.9-14.5 2.2-29 1.1-43.5-.2-2.4-2-3.5-4.3-3.2-.7.1-1.4.2-2 .3C1535 433.8 1536.8 440.2 1541.1 439.7L1541.1 439.7zM2040.4 616.5c-.3-11.8-.7-23.6-1-35.4-.3-11.3-.1-22.8-1.1-34.1-.6-6.4-3.1-15.1-.4-21.2 1.2-2.8 7.3-2.7 9.9-3.1 5.7-.8 11.3-2.4 16.9-3.6 4.2-.9 2.4-7.4-1.8-6.5-5.6 1.2-11.2 2.7-16.9 3.6-3.9.6-8.6.8-11.7 3.5-5.8 5-4.1 15-3.4 21.7 1.2 11.2 1.2 22.5 1.6 33.8.4 13.8.8 27.5 1.2 41.3C2033.8 620.8 2040.5 620.8 2040.4 616.5L2040.4 616.5zM1984.5 587.7c6.1-3.3 10.1-6.9 10.9-14 .6-5.1 3.4-6.6 8.2-6.7 4.6-.1 8.9.8 13.5.1 4.3-.6 2.5-7.1-1.8-6.5-7.4 1.1-16.2-2.7-22.5 3-2.5 2.3-3.7 5-4 8.4-.5 5.5-3.2 7.4-7.8 9.8C1977.2 584 1980.6 589.8 1984.5 587.7L1984.5 587.7zM1988.6 607.9c-.8.7 3.5 7.4 4.2 8.1 2.2 2.3 6.1 2.5 9.1 2.4 7-.1 13.2-4.3 17.2-9.8 2.5-3.5-3.3-6.9-5.8-3.4-2.4 3.3-5.6 5.2-9.4 6.2-1.7.4-3.5.4-5.2.1-2.2-.4-2.5-3.4-3.2-5-2.1-4.9-7.3-7.3-11.6-3.4C1980.7 606.1 1985.4 610.8 1988.6 607.9L1988.6 607.9z"/><path fill="#010101" d="M1991.6 581.7c-4.8 15.2 12.4 28.1 25.5 18.8 3.5-2.5.2-8.3-3.4-5.8-8.3 5.8-18.7-1.4-15.6-11.2C1999.4 579.3 1992.9 577.6 1991.6 581.7L1991.6 581.7zM1983 267.9c2.1 6.4 3 12.7 2.7 19.4-.2 4.3 6.5 4.3 6.7 0 .3-7.2-.6-14.3-2.9-21.2C1988.1 262 1981.6 263.8 1983 267.9L1983 267.9zM1954.4 274.9c.3 1.6 1.1 4.2 0 5.6-1 1.3-2.9 1.7-4.3 2.2-3.4 1.1-6.6 2.4-8.4 5.7-2.1 3.8 3.7 7.2 5.8 3.4 1.7-3 7.2-3.2 9.9-5 4.7-3.1 4.5-8.7 3.5-13.6C1960.1 268.9 1953.6 270.7 1954.4 274.9L1954.4 274.9zM1898.9 631.3c.2 4.2 1.9 8.1 5.1 10.9 1.4 1.2 3.4 1.4 4.8 0 1.2-1.2 1.4-3.6 0-4.8-1.9-1.6-3-3.7-3.1-6.1C1905.5 626.9 1898.8 626.9 1898.9 631.3L1898.9 631.3zM1537.4 661.5c100.9 0 201.8-.1 302.7-.1 1.4 0 3-1 3.2-2.5.4-2.2.8-4.4 1.1-6.5.7-4.2-5.7-6.1-6.5-1.8-.4 2.2-.8 4.4-1.1 6.5 1.1-.8 2.2-1.6 3.2-2.5-100.9 0-201.8.1-302.7.1C1533.1 654.8 1533.1 661.5 1537.4 661.5L1537.4 661.5z"/><path fill="#010101" d="M1565.3 549.2c.1 36.2.2 72.3.3 108.5 0 4.3 6.7 4.3 6.7 0-.1-36.2-.2-72.3-.3-108.5C1572.1 544.9 1565.3 544.9 1565.3 549.2L1565.3 549.2zM2032.8 679.1c2.5.3 5.1.7 7.6 1 1.8.2 3.4-1.7 3.4-3.4 0-2-1.5-3.1-3.4-3.4-2.5-.3-5.1-.7-7.6-1-1.8-.2-3.4 1.7-3.4 3.4C2029.5 677.7 2031 678.8 2032.8 679.1L2032.8 679.1zM2031.5 738.3c3.5.3 6.6 1.5 9.5 3.6 3.5 2.5 6.9-3.3 3.4-5.8-3.8-2.7-8.2-4.1-12.8-4.5C2027.2 731.2 2027.2 737.9 2031.5 738.3L2031.5 738.3z"/><path fill="#010101" d="M2028.1,677.4c0,18.4,0,36.8,0,55.1c0,4.3,6.7,4.3,6.7,0c0-18.4,0-36.8,0-55.1 C2034.9,673.1,2028.1,673.1,2028.1,677.4L2028.1,677.4z"/><circle fill="#414042" stroke="#010101" stroke-width="6.73" stroke-miterlimit="10" cx="1938" cy="759.5" r="101.8"/><ellipse fill="#939598" stroke="#010101" stroke-width="6.73" stroke-miterlimit="10" cx="1938" cy="759.5" rx="59.2" ry="58.1"/><circle fill="#58595B" stroke="#010101" stroke-width="6.73" stroke-miterlimit="10" cx="1938" cy="759.5" r="20.5"/><path fill="#010101" d="M2040.4 775.4c8.8 3.2 18.2 3.2 27 0 4-1.5 2.3-8-1.8-6.5-7.8 2.8-15.6 2.9-23.4 0C2038.1 767.4 2036.4 773.9 2040.4 775.4L2040.4 775.4zM1945.9 436.2c11.3-1.9 22.6-2.7 34-2.5 4.3.1 4.3-6.6 0-6.7-12-.3-24 .6-35.8 2.7C1939.8 430.4 1941.7 436.9 1945.9 436.2L1945.9 436.2zM1941.6 649.2c0 1.5 0 3 0 4.5 0 1.8 1.5 3.4 3.4 3.4 1.8 0 3.4-1.5 3.4-3.4 0-1.5 0-3 0-4.5 0-1.8-1.5-3.4-3.4-3.4C1943.1 645.8 1941.6 647.4 1941.6 649.2L1941.6 649.2zM1599.2 367c3.6-9 13.8-11.6 22.6-12.2 10.3-.7 20.8 0 31.1.1 21.1.2 42.2.4 63.4.6 10.6.1 21.1.2 31.7.3 10 .1 20.1 0 29.8 2.5 15.9 4.1 28 17.9 31.8 33.5 1 4.2 7.5 2.4 6.5-1.8-3.9-16-15.4-30-30.8-36.2-9.5-3.9-19.7-4.5-29.8-4.7-12.4-.2-24.8-.3-37.3-.4-24.4-.2-48.8-.5-73.3-.7-17.9-.2-43.9-3.5-52.2 17.1C1591.1 369.2 1597.6 370.9 1599.2 367L1599.2 367z"/><path fill="#010101" d="M1575.6 552.3c-.6-62.2 7.8-124.1 24.9-183.9 1.2-4.2-5.3-5.9-6.5-1.8-17.3 60.3-25.8 122.9-25.1 185.7C1568.9 556.7 1575.7 556.7 1575.6 552.3L1575.6 552.3zM1511 447.9c4-.5 8.1-1 12.1-1.5 1.8-.2 3.4-1.4 3.4-3.4 0-1.7-1.5-3.6-3.4-3.4-4 .5-8.1 1-12.1 1.5-1.8.2-3.4 1.4-3.4 3.4C1507.6 446.2 1509.2 448.1 1511 447.9L1511 447.9zM1509.6 433.8c5.1 0 10.2 0 15.2 0 4.3 0 4.3-6.7 0-6.7-5.1 0-10.2 0-15.2 0C1505.3 427 1505.3 433.8 1509.6 433.8L1509.6 433.8zM1525.3 523c3.4 0 6.8 0 10.1 0-1.1-.8-2.2-1.6-3.2-2.5 1.2 7.2 1.4 14.3.8 21.6-.4 4.3 6.4 4.3 6.7 0 .6-7.8.2-15.6-1-23.3-.2-1.4-1.9-2.5-3.2-2.5-3.4 0-6.8 0-10.1 0C1521 516.3 1521 523 1525.3 523L1525.3 523zM1937.3 319.7c12.3-.1 24.5-.2 36.8-.3 4.3 0 4.3-6.8 0-6.7-12.3.1-24.5.2-36.8.3C1933 313 1933 319.7 1937.3 319.7L1937.3 319.7zM1994.7 629.8c5.2.5 10.4 1 15.7 1.5 4.3.4 4.3-6.3 0-6.7-5.2-.5-10.4-1-15.7-1.5C1990.4 622.6 1990.4 629.3 1994.7 629.8L1994.7 629.8zM1997.8 663c3.7-1 7.2-.9 10.9.2 4.2 1.2 5.9-5.3 1.8-6.5-4.8-1.4-9.7-1.4-14.4-.2C1991.8 657.6 1993.6 664.1 1997.8 663L1997.8 663z"/><path fill="#010101" d="M2006.8 628.4c3.3 10.3 4.1 20.8 2.7 31.5-.6 4.3 6.2 4.2 6.7 0 1.5-11.3.4-22.5-3-33.3C2012 622.5 2005.5 624.3 2006.8 628.4L2006.8 628.4zM1991.6 625.9c-1.8 11.2-1.3 22.3 1.6 33.3 1.1 4.2 7.6 2.4 6.5-1.8-2.6-9.8-3.2-19.7-1.6-29.7C1998.8 623.5 1992.3 621.6 1991.6 625.9L1991.6 625.9zM1804.4 802.9c4.9-6.4 3.9-15.3 3.6-22.9-.4-10-1.6-20-3.3-29.8-.7-4.3-7.2-2.5-6.5 1.8 1.5 8.7 2.5 17.3 3 26.1.4 6.8 1.8 15.7-2.6 21.4C1796 803 1801.8 806.3 1804.4 802.9L1804.4 802.9z"/><g><path fill="#010101" d="M1806.6,745c8.8-25.2,23.7-47.8,43.3-65.9c3.2-2.9-1.6-7.7-4.8-4.8c-20.5,18.9-35.9,42.5-45,68.8 C1798.7,747.4,1805.2,749.1,1806.6,745L1806.6,745z"/></g><g><path fill="#010101" d="M1758.4,495.2c4.3,0,4.3-6.7,0-6.7S1754.1,495.2,1758.4,495.2L1758.4,495.2z"/></g><g><path fill="#010101" d="M2086.2,765.9c-4.9,5.5-0.2,11.9,6.1,13c4.4,0.7,9.2,0.3,13.7,0.3c6,0,12,0,18,0 c23.3,0,46.5-0.2,69.8-0.6c45.9-0.8,91.7-2.3,137.6-4.5c4.3-0.2,4.3-6.9,0-6.7c-39.9,1.9-79.7,3.3-119.6,4.2 c-19.9,0.4-39.9,0.7-59.8,0.8c-10,0.1-19.9,0.1-29.9,0.1c-5.3,0-10.6,0-16,0c-2.7,0-5.3,0-8,0c-0.3,0-8.4-0.3-7.1-1.8 C2093.8,767.4,2089.1,762.6,2086.2,765.9L2086.2,765.9z"/></g><path fill="#58595B" d="M1995.1,292.9c-2.4,0-4.3,2-4.3,4.3v2.6c0,2.4,2,4.3,4.3,4.3c2.4,0,4.3-2,4.3-4.3v-2.6 C1999.4,294.8,1997.5,292.9,1995.1,292.9z"/><path fill="#F7941E" stroke="#BC8132" stroke-width="14.89" stroke-linecap="round" stroke-miterlimit="10" d="M2263.2,764.3 h-112.9c-6.8,0-12.3-5.5-12.3-12.3V627c0-6.8,5.5-12.3,12.3-12.3h112.9c6.8,0,12.3,5.5,12.3,12.3V752 C2275.5,758.8,2270,764.3,2263.2,764.3z"/><g><path fill="#939598" d="M1997.7,558.3c4,0,8.1,0,12.1,0c5.6,0,5.6-8.6,0-8.6c-4,0-8.1,0-12.1,0 C1992.1,549.7,1992.1,558.3,1997.7,558.3L1997.7,558.3z"/></g><g><path fill="#939598" d="M1989.2,399c-1.2,13.7-0.4,27.4,2.3,40.9c1.1,5.5,9.4,3.1,8.3-2.3c-2.5-12.8-3.1-25.7-2-38.6 C1998.3,393.5,1989.7,393.5,1989.2,399L1989.2,399z"/></g><g fill="none" stroke="#000" stroke-width="4.35" stroke-miterlimit="10"><path d="M2255.3,678.3h-8.9c-0.4-2-1-4.1-1.7-6.2 c-0.9-2.5-2.1-5-3.5-7.2l6-6c0.2-0.2,0.2-0.5,0-0.7l-11.4-11.4c-0.2-0.2-0.5-0.2-0.7,0l-6,6c-2.2-1.4-4.6-2.6-7.2-3.5 c-2-0.7-3.9-1.2-5.9-1.6v-9c0-0.3-0.2-0.5-0.5-0.5h-16.1c-0.3,0-0.5,0.2-0.5,0.5v9c-4.7,1-9.2,2.9-13.1,5.5l-6.7-6.4 c-0.2-0.2-0.5-0.2-0.7,0l-11.2,11.7c-0.2,0.2-0.2,0.5,0,0.7l6.6,6.3c-2.4,3.9-4.2,8.2-5.2,12.8h-9.8c-0.3,0-0.5,0.2-0.5,0.5V695 c0,0.3,0.2,0.5,0.5,0.5h9.9c0.4,1.8,0.9,3.7,1.6,5.5c0.9,2.7,2.2,5.2,3.7,7.5l-6.8,6.5c-0.2,0.2-0.2,0.5,0,0.7l11.3,11.6 c0.2,0.2,0.5,0.2,0.7,0l7.1-6.9c2.1,1.3,4.4,2.4,6.8,3.2c2,0.7,3.9,1.2,5.9,1.6v9.6c0,0.3,0.2,0.5,0.5,0.5h16.1 c0.3,0,0.5-0.2,0.5-0.5v-9.6c4.5-1,8.7-2.7,12.5-5.1l6.4,6.5c0.2,0.2,0.5,0.2,0.7,0l11.5-11.4c0.2-0.2,0.2-0.5,0-0.7l-6.4-6.5 c2.5-3.8,4.4-8.1,5.4-12.8h9.1c0.3,0,0.5-0.2,0.5-0.5v-16.2C2255.8,678.6,2255.5,678.3,2255.3,678.3z"/><circle cx="2207.3" cy="686.6" r="24.3"/><circle cx="2207.3" cy="686.8" r="12.1"/></g><g><path fill="#FFF" stroke="#000" stroke-width="2.48" stroke-miterlimit="10" d="M1779.2,781.9h-198.3 c-2.6,0-4.7-2.2-4.7-4.8v-27.6c0-2.5,1.8-4.5,4.2-4.1c0.5,0.1,1,0.1,1.5,0.1h196.2c0.5,0,1,0,1.5-0.1c2.4-0.5,4.2,1.6,4.2,4.1 v27.6C1783.8,779.8,1781.7,781.9,1779.2,781.9z"/><path d="M1585.6 751.1h12.8v5.1h-5.1v4.8h4.8v4.8h-4.8v5.6h5.7v5.1h-13.4V751.1zM1618.3 751.1v25.4h-6.8l-4-11.5v11.5h-6.4v-25.4h6.4l4.3 11.4v-11.4H1618.3zM1639.1 760.5h-7.7v-2.3c0-1.5-.1-2.4-.2-2.7-.1-.4-.5-.5-1-.5-.5 0-.8.2-1 .5-.2.3-.3 1.1-.3 2.4v12.2c0 1.1.1 1.9.3 2.3.2.4.5.5 1 .5.6 0 .9-.2 1.1-.6.2-.4.3-1.2.3-2.4v-3h-1.6v-3.9h9v13.6h-4.8l-.7-1.8c-.5.8-1.2 1.4-2 1.8-.8.4-1.7.6-2.8.6-1.3 0-2.5-.3-3.6-.8-1.1-.5-2-1.2-2.6-2-.6-.8-1-1.6-1.1-2.5-.1-.9-.2-2.2-.2-3.9v-7.5c0-2.4.2-4.2.5-5.3.3-1.1 1.2-2.1 2.6-3 1.4-.9 3.3-1.4 5.6-1.4 2.3 0 4.1.4 5.6 1.2 1.5.8 2.5 1.7 2.9 2.8.5 1.1.7 2.7.7 4.8V760.5zM1649.8 751.1v25.4h-7.7v-25.4H1649.8zM1670.1 751.1v25.4h-6.8l-4-11.5v11.5h-6.4v-25.4h6.4l4.3 11.4v-11.4H1670.1zM1673.2 751.1h12.8v5.1h-5.1v4.8h4.8v4.8h-4.8v5.6h5.7v5.1h-13.4V751.1zM1688.7 751.1h12.8v5.1h-5.1v4.8h4.8v4.8h-4.8v5.6h5.7v5.1h-13.4V751.1zM1704.3 751.1h5.5c3.6 0 6.1.1 7.4.4 1.3.2 2.3.9 3.1 1.8.8 1 1.2 2.6 1.2 4.7 0 2-.3 3.3-.9 4-.6.7-1.7 1.1-3.4 1.2 1.5.3 2.5.8 3.1 1.3.5.5.9 1 1 1.5.1.5.2 1.7.2 3.8v6.7h-7.2v-8.4c0-1.4-.1-2.2-.4-2.5-.3-.3-.9-.5-2-.5v11.4h-7.7V751.1zM1712 755.5v5.6c.9 0 1.5-.1 1.8-.3.3-.2.5-.9.5-2v-1.4c0-.8-.2-1.3-.5-1.6C1713.5 755.6 1712.9 755.5 1712 755.5zM1732.2 751.1v25.4h-7.7v-25.4H1732.2zM1752.5 751.1v25.4h-6.8l-4-11.5v11.5h-6.4v-25.4h6.4l4.3 11.4v-11.4H1752.5zM1773.3 760.5h-7.7v-2.3c0-1.5-.1-2.4-.2-2.7-.1-.4-.5-.5-1-.5-.5 0-.8.2-1 .5-.2.3-.3 1.1-.3 2.4v12.2c0 1.1.1 1.9.3 2.3.2.4.5.5 1 .5.6 0 .9-.2 1.1-.6.2-.4.3-1.2.3-2.4v-3h-1.6v-3.9h9v13.6h-4.8l-.7-1.8c-.5.8-1.2 1.4-2 1.8-.8.4-1.7.6-2.8.6-1.3 0-2.5-.3-3.6-.8-1.1-.5-2-1.2-2.6-2-.6-.8-1-1.6-1.1-2.5-.1-.9-.2-2.2-.2-3.9v-7.5c0-2.4.2-4.2.5-5.3.3-1.1 1.2-2.1 2.6-3 1.4-.9 3.3-1.4 5.6-1.4 2.3 0 4.1.4 5.6 1.2 1.5.8 2.5 1.7 2.9 2.8.5 1.1.7 2.7.7 4.8V760.5z"/><g><path d="M1581.8 703.4h10.4c2.8 0 5 .2 6.5.6s2.7.9 3.4 1.6c.8.7 1.3 1.6 1.6 2.6.3 1 .4 2.6.4 4.7v3c0 2.2-.3 3.8-.8 4.8-.5 1-1.5 1.8-2.9 2.3-1.4.5-3.2.8-5.5.8h-2.8v13.8h-10.4V703.4zM1592.2 709.2v8.7c.3 0 .6 0 .8 0 1 0 1.6-.2 2-.6.4-.4.6-1.2.6-2.5V712c0-1.2-.2-1.9-.6-2.3C1594.4 709.4 1593.5 709.2 1592.2 709.2zM1607.1 703.4h7.3c4.9 0 8.2.2 9.9.5 1.7.3 3.1 1.2 4.2 2.5 1.1 1.3 1.6 3.5 1.6 6.4 0 2.7-.4 4.4-1.2 5.4-.8.9-2.3 1.5-4.6 1.6 2.1.4 3.4 1 4.1 1.8.7.7 1.1 1.4 1.3 2 .2.6.3 2.3.3 5.1v9h-9.6v-11.4c0-1.8-.2-3-.5-3.4-.3-.4-1.2-.7-2.6-.7v15.4h-10.4V703.4zM1617.5 709.2v7.6c1.2 0 2-.1 2.5-.4.5-.3.7-1.2.7-2.7v-1.9c0-1.1-.2-1.8-.7-2.1C1619.5 709.4 1618.7 709.2 1617.5 709.2zM1658 723.4c0 3.4-.1 5.9-.3 7.3-.2 1.4-.8 2.7-1.8 3.9-1 1.2-2.3 2.1-4 2.7-1.7.6-3.7.9-5.9.9-2.1 0-4.1-.3-5.8-.9-1.7-.6-3.1-1.5-4.1-2.7-1-1.2-1.7-2.5-1.8-3.9-.2-1.4-.3-3.9-.3-7.4v-5.8c0-3.4.1-5.9.3-7.3.2-1.4.8-2.7 1.8-3.9 1-1.2 2.3-2.1 4-2.7 1.7-.6 3.7-.9 5.9-.9 2.1 0 4.1.3 5.8.9 1.7.6 3.1 1.5 4.1 2.7 1 1.2 1.7 2.5 1.8 3.9.2 1.4.3 3.9.3 7.4V723.4zM1647.6 712.2c0-1.6-.1-2.6-.3-3.1-.2-.4-.6-.7-1.3-.7-.5 0-1 .2-1.2.5-.3.4-.4 1.4-.4 3.2v16c0 2 .1 3.2.3 3.7.2.5.6.7 1.3.7.7 0 1.2-.3 1.4-.8.2-.5.3-1.8.3-3.8V712.2zM1661.8 703.4h17.6v6.8h-7.2v6.5h6.4v6.5h-6.4v14.4h-10.4V703.4zM1702.8 703.4v6.8h-6.2v27.3h-10.4v-27.3h-6.1v-6.8H1702.8zM1705.2 703.4h17.3v6.8h-6.9v6.5h6.5v6.5h-6.5v7.5h7.6v6.8h-18V703.4zM1750.4 718.3H1740v-5.9c0-1.7-.1-2.8-.3-3.2-.2-.4-.7-.6-1.5-.6-.9 0-1.4.3-1.6.8-.2.5-.3 1.6-.3 3.4v15.9c0 1.7.1 2.7.3 3.3.2.5.7.8 1.6.8.8 0 1.3-.3 1.5-.8.2-.5.4-1.7.4-3.6v-4.3h10.4v1.3c0 3.5-.3 6-.9 7.5-.6 1.5-1.9 2.8-3.9 3.9-2 1.1-4.5 1.7-7.4 1.7-3 0-5.5-.5-7.5-1.4-2-.9-3.3-2.2-3.9-3.9-.6-1.7-1-4.2-1-7.5v-10c0-2.5.1-4.3.3-5.5.2-1.2.8-2.4 1.8-3.6 1-1.1 2.3-2 4.1-2.7 1.7-.7 3.7-1 6-1 3.1 0 5.6.5 7.6 1.5 2 1 3.3 2.3 3.9 3.8.6 1.5.9 3.9.9 7.1V718.3zM1777.9 703.4v34.2h-10.4v-14.4h-3.1v14.4h-10.4v-34.2h10.4v12.2h3.1v-12.2H1777.9z"/></g></g></g></switch></svg>