<svg width="1375" height="788" xmlns="http://www.w3.org/2000/svg" viewBox="0 0 1470 790"><g stroke-miterlimit="10"><path fill="#FFF" stroke="#000" stroke-width="5.095" d="M465.2 215.1l898.6 260.8v50.6c0 .8-1.2 1.5-2.1 1.2l-897-284.8v-27.5c0-.2.3-.4.5-.3z"/><path fill="#939598" stroke="#000" stroke-width="5.095" d="M465.6 215.2L1363 475.7v50.5c0 .8-1.2 1.5-2.1 1.2L465.1 242.9v-27.5c0-.1.3-.2.5-.2z"/><path fill="#F7923F" stroke="#545453" stroke-width="6" d="M1451.1 472.5L909.7 815.4c-1 .6-2.3-.1-2.3-1.3v-74.5l540-312.5c1.7-1 3.8.3 3.8 2.2v43.2z"/><path fill="#FFF" stroke="#000" stroke-width="5.095" d="M586.9 232.5l-383.2 69.2c-.4.1-.8-.2-.8-.4V132.9l209-91.1 175 52.4v138.3z"/><path fill="#D1D3D4" stroke="#000" stroke-width="5.095" d="M576.2 202.9l28.8 52.7 608.3 178.1-321.7 148.6L198 263.4c-.2-.1-9.8 36-9.8 36S882.7 648.5 883.7 648l429.7-216.7-737.2-228.4z"/><path fill="#F1F2F2" stroke="#000" stroke-width="5.095" d="M1449 423.6L564.6 202.9 82.5 279.5c-.2 0-.3.4-.1.5l824.8 461.1 542.4-312.9c2-1.1 1.6-4-.6-4.6zm-144.4 11.6l-421.7 212h-.1l-679-341.3c-.1-.1-.1-.2 0-.2l382.2-69h.1l718.4 196.9c.7.2.8 1.3.1 1.6z"/><path fill="#6D6E71" stroke="#000" stroke-width="5.095" d="M586.6 96.6l702.6 108c12 1.8 20.9 12.2 20.9 24.4l-.4 189.8c0 8.9-8.4 15.3-17 13L602.3 241.1c-10.7-2.9-18-12.6-18-23.7v-121c0-.8 1.1 0 2.3.2z"/><path fill="#6D6E71" stroke="#000" stroke-width="5.095" d="M911 323.9l-14.5 4.1V150.1l14.5-2.3z"/><path fill="#6D6E71" stroke="#000" stroke-width="5.407" d="M729.8 296l-13.4 3.5v-175l13.4-2z"/><path fill="#808285" stroke="#000" stroke-width="5.095" d="M1019.2 354.2l-14.8 4.8V163.4l14.8-2.7z"/><path fill="none" stroke="#000" stroke-width="5.095" d="M588.4 97.9s715.8 106.2 710.6 107.5L882.4 321.6c3.1-.8 2.8-.8 2.5-.8 0 0-672.4-190.5-670.4-190.7L588 92.8c.1 0 .3 5.1.4 5.1z"/><path fill="#58595B" stroke="#000" stroke-width="5.095" d="M1297.4 200.7L1130.6 133c-.1 0-.2-.1-.3-.1L823.4 94c-.3 0-.5 0-.8.2L770 123.3c-1.1.6-.8 2.2.4 2.4l526.2 78c1.8.2 2.4-2.4.8-3z"/><path fill="#6D6E71" stroke="#000" stroke-width="5.095" d="M647.8 253.5l-14.2 2.8V110.4l14.2-1.5z"/><path fill="#FFF" stroke="#000" stroke-width=".849" d="M885.4 644.4l.8-319.3"/><path fill="#6D6E71" stroke="#000" stroke-width="5.095" d="M1149.6 390.6l-14.2 5.7V187.2l14.2-3.2zM805.8 296.2l-14.6 3.6V133.3l14.6-2.1z"/><path fill="none" stroke="#414042" stroke-width="5.095" d="M723.8 279.3l247.8-165.7 185.7 68.8L724.1 280c-.4 0-.6-.4-.3-.7z"/><path fill="#A7A9AC" stroke="#000" stroke-width="5.095" d="M913 633.1l-27 13.5v-327l246.9-184.5-219.9 177z"/><path fill="none" stroke="#000" stroke-width="5.095" d="M722.7 81.1L911 147"/><path fill="#FFF" stroke="#000" stroke-width="5.095" d="M224.1 297.4l-20.4 3.6V132.8l20.4-2zM590.1 231.5l-13.9 2.5V95.3l13.9-1.4zM1305.6 432.8l-.1.1c-4.4 2.2-9.6-1-9.6-5.9V214.3c0-3 2-5.6 4.8-6.4h.1c4.2-1.2 8.4 2 8.4 6.4V427c.1 2.4-1.3 4.7-3.6 5.8z"/><path fill="none" stroke="#414042" stroke-width="5.095" d="M585.3 240.8L830.9 95l188.5 65.5z"/><path fill="#A7A9AC" stroke="#000" stroke-width="5.095" d="M739.8 554.2l-18.5 7.4c-2.4.9-4.9-.8-4.9-3.3v-276c0-.4.3-.8.7-.9l254.6-167.7-228.5 160.8c-.8.6-1.1 1.5-1.1 2.5 0 0 0 0 0 0v273.9c0 1.4-.9 2.8-2.3 3.3z"/><path fill="#A7A9AC" stroke="#000" stroke-width="5.095" d="M612.9 488.2l-25.4 8.4V239.9L830.9 95l-218 140.3z"/><path fill="#FFF" stroke="#000" stroke-width="5.095" d="M504.6 433.6l-24.1 6.8V210.8l24.1-3.8zM414.8 390l-23.1 5.7V185.8l23.1-3.2zM340.5 353.9l-22.2 4.8V165.1l22.2-2.7zM272.8 321l-21.2 4.2V146.3l21.2-2.3z"/><path fill="#F1F2F2" stroke="#000" stroke-width="5.095" d="M585.3 240.8l-380-109c-1.3-.4-1.5-2.2-.2-2.8l204.6-89.3L830.9 95 585.3 240.8z"/><path fill="#FFF" stroke="#414042" stroke-width="5.095" d="M253.6 147.2l216.2-98"/><path fill="#FFDA99" stroke="#545453" stroke-width="6" d="M83.6 278.2l824.6 463.1v74.5c0 1.2-1.3 1.9-2.3 1.3L83.2 311.6v-33.2c0-.1.2-.3.4-.2z"/><path fill="#FFF" stroke="#414042" stroke-width="5.095" d="M320.1 166L544.7 58.7M389.5 185.6l232-117.2"/><path fill="none" stroke="#414042" stroke-width="5.095" d="M480.4 213.1L720.1 82.6"/><path fill="#D1D3D4" stroke="#000" stroke-width="5.095" d="M205.5 131.4l382.1 107.7-.6 259.7-382.8-192.1V131.2c0-1 .6 0 1.3.2z"/><path fill="#A7A9AC" stroke="#000" stroke-width="5.095" d="M1133.4 134.7L886.2 319.9v325.9c0 .5.5.8 1 .6l424.3-214.6v-225c0-.4-.2-.7-.6-.8l-177.5-71.3zm83.5 344.8l-195.6 98.8-134.8 67.5-.2-325.9L1133 135.1c.2-.2.6 0 .6.3l-.1 141.5 83.5-26.7v229.3z"/><path fill="#F1F2F2" stroke="#414042" stroke-width="5.095" d="M587.5 335.7l297.9 108.7v-13l-297.9-106zM588 419.3l298 130.5v-13L588 409z"/><path fill="none" stroke="#D1D3D4" stroke-width="5.095" stroke-linecap="round" d="M954.8 268.5l-298-70.2M1030.6 211l-298-57.7M1110.6 148.8L811.7 106"/><path fill="#FFDA99" stroke="#545453" stroke-width="6" d="M213.9 198.9l362.3 124.2v-59.4L213.9 158.5z"/><path fill="#FDBD56" stroke="#545453" stroke-width="6" d="M476.4 301.7l58.2 22v147.7l-58.2-29.5zM345.7 258.9l41 15.6v123.4l-41-20.9zM238.8 222l29.6 11.3v104.6l-29.6-15.1z"/><path fill="none" stroke="#414042" stroke-width="5.095" stroke-linecap="round" d="M487.5 237.9v54.8M394.7 211v47.9M320.1 192.6v43.2M253.6 170.8v40.1"/></g></svg>