<svg width="1375" height="788" xmlns="http://www.w3.org/2000/svg"><g fill="none" fill-rule="evenodd"><path d="M425.409 196.4l859.4 246.1V493c0 .8-1.2 1.5-2.1 1.2l-895.8-284.5 35.2-16.7c33.8 11.5 35.3 13 3.3 3.4z" stroke="#000" stroke-width="5.095" fill="#939598"/><path d="M508.709 198.3l-383.2 69.2c-.4.1-.8-.2-.8-.4V98.8l209-91.1 175 52.4v138.2z" stroke="#414042" stroke-width="5.095"/><g fill="#D1D3D4" stroke="#000" stroke-width="5.095"><path d="M476.409 183.4l-18.3 8.3 9.3 2.5c2.6-.5 5-.9 7.2-1.3l1.8-9.5z"/><path d="M495.809 201.8l-8.1-11.1c-2 .2-6.5 1-13.1 2.2l-.6 3.1-6.6-1.8c-80.9 14.8-362.4 71-362.4 71s694.5 349.2 695.5 348.7l428.4-216-733.1-196.1zm-278 74.8l290.6-57.5 621.6 180.5-321.7 148.6-590.5-271.6z" fill-rule="nonzero"/></g><path d="M1371.809 439.3l-541.4 342.9c-1 .6-2.3-.1-2.3-1.3v-74.5l540-312.5c1.7-1 3.8.3 3.8 2.2v43.2h-.1z" stroke="#545453" stroke-width="6" fill="#F7923F"/><path d="M1369.709 395.8l-884.4-220.7-482.1 71.2c-.2 0-.3.4-.1.5l824.8 461.1 542.4-312.9c2-1.1 1.6-4-.6.8zm-144.4 6.3L803.609 614h-.1l-679-341.3c-.1-.1-.1-.2 0-.2l382.2-68.9h.1l718.4 196.9c.8.1.9 1.2.1 1.6z" stroke="#414042" stroke-width="5.095" fill="#F1F2F2" fill-rule="nonzero"/><path stroke="#000" stroke-width="5.407" fill="#6D6E71" d="M650.609 260.8l-13.5 3.5v-175l13.5-2z"/><path stroke="#000" stroke-width="5.095" fill="#6D6E71" d="M568.509 217.4l-14.1 2.7V74.2l14.1-1.5zM726.509 261l-14.6 3.6V98.1l14.6-2zM510.809 200.3l-13.9.5V62.1l13.9.6z"/><path d="M406.209 175l231.2-124.7c.2-.1.5-.2.8-.1l189.7 63.2c1 .3.9 1.8-.2 1.9l-420.9 61.5c-1.1.2-1.6-1.3-.6-1.8z" stroke="#414042" stroke-width="5.095"/><path d="M314.509 150.2l227.6-114.9c.1-.1.2-.1.3 0l182.3 59.6c.4.1.4.8-.1.8l-409.8 55.3c-.5.1-.7-.5-.3-.8z" stroke="#414042" stroke-width="5.095"/><path d="M246.209 130.2l219.1-104.7c.1 0 .2-.1.3 0l183.1 61.2c.4.1.4.8-.1.8l-402.1 43.5c-.5.1-.7-.6-.3-.8z" stroke="#414042" stroke-width="5.095"/><path d="M179.409 110l210.8-93.9c.3-.1.6-.1.9 0l171.8 54.8c1.3.4 1.1 2.3-.2 2.4l-382.7 39.1c-1.4.1-1.9-1.8-.6-2.4z" stroke="#414042" stroke-width="5.095"/><path stroke="#000" stroke-width="5.095" fill="#6D6E71" d="M831.809 290.7l-14.5 4.1V117l14.5-2.3zM1070.409 357.5l-14.2 5.6V154l14.2-3.2z"/><path stroke="#000" stroke-width="5.095" fill="#808285" d="M940.009 322l-14.8 4.9V131.3l14.8-2.7z"/><path d="M806.109 611.2l.9-319.3" stroke="#000" stroke-width=".849" fill="#FFF"/><path stroke="#000" stroke-width="5.095" fill="#6D6E71" d="M508.409 219l-.7 30-234.3 52-53.7-23.6z"/><path d="M644.609 246.2l247.8-165.7 185.7 68.8-433.2 97.5c-.4.1-.6-.4-.3-.6z" stroke="#414042" stroke-width="5.095"/><path stroke="#000" stroke-width="5.095" fill="#A7A9AC" d="M833.709 599.9l-26.9 13.5V286.5l246.8-184.6-219.9 177z"/><path stroke="#000" stroke-width="5.095" fill="#6D6E71" d="M1226.009 400.8l-13.4 6.8V179.1l13.4-3.8z"/><path d="M509.409 206.2l241.8-143.5 188.4 65.5s0 0 0 0l-429.7 79.5c-.8.1-1.3-1.1-.5-1.5z" stroke="#414042" stroke-width="5.095"/><path d="M660.609 521l-18.5 7.4c-2.4.9-4.9-.8-4.9-3.3V263.2c0-.4.3-14.8.7-14.9l254.6-167.7-228.5 160.8c-.8.6-1.1 1.5-1.1 2.5 0 0 0 0 0 0v273.9c-.1 1.4-1 2.7-2.3 3.2z" stroke="#000" stroke-width="5.095" fill="#A7A9AC"/><path stroke="#000" stroke-width="5.095" fill="#A7A9AC" d="M533.709 455l-25.4 8.4V206.8l243.4-145-218 140.3zM390.609 16l-218.2 97.1V292l21.2-4.2v-177z"/><path d="M4.309 245.1l824.6 463.1v74.5c0 1.2-1.3 1.9-2.3 1.3L4.009 278.5v-33.2c-.1-.2.1-.3.3-.2z" stroke="#545453" stroke-width="6" fill="#FFDA99"/><path stroke="#000" stroke-width="5.095" fill="#A7A9AC" d="M244.009 131.3l-4.9.6v193.7l22.1-4.9V129.2l204.3-103.7z"/><path stroke="#000" stroke-width="5.095" fill="#A7A9AC" d="M542.309 35.2l-230 116.2.1 3.8v207.3l23.1-5.7V150.3z"/><path stroke="#414042" stroke-width="5.095" fill="#F1F2F2" d="M508.309 302.6l297.8 108.6v-13l-297.8-106zM508.709 386.1l298.1 130.5v-13l-298.1-127.8z"/><path stroke="#000" stroke-width="5.095" fill="#A7A9AC" d="M125.509 98.9v170.2l20.4-3.7V127.5l.1.2-.1-29.9 188.1-90.4zM425.409 173.8l215.5-124.4-239.7 128.2v229.6l24.2-6.8v-214z"/><path d="M509.209 62.7s723.4 108.7 718.2 110l-424.2 115.7c3.1-.8 2.8-.8 2.5-.8 0 0-683.1-187.7-681.1-187.9-.1-.1 384.4-37 384.6-37z" stroke="#000" stroke-width="5.095"/><path d="M1054.109 102.1l171.1 69.7c.7.3.7 1.3-.1 1.5l-415.3 113.1c-.9.2-1.4-.9-.7-1.4l244.2-182.8c.2-.2.5-.2.8-.1z" stroke="#000" stroke-width="5.095"/><path d="M334.009 7.4l719.3 94.8" stroke="#414042" stroke-width="14" stroke-linecap="round"/></g></svg>