<svg xmlns="http://www.w3.org/2000/svg" viewBox="0 0 283.5 283.5" id="suege"><path fill="#D1D3D4" stroke="#939598" stroke-width="1.623" stroke-miterlimit="10" d="M12.5 174.6L100.2 124 264.3 221.7 179.1 270.7z"/><path opacity=".5" fill="#808285" stroke="#545453" stroke-width="3.467" stroke-miterlimit="10" d="M99.8 73.8l-.1 48.1-86.1 49.7v-49.8l85.9-48.1C99.7 73.6 99.8 73.7 99.8 73.8zM264.3 219v-54.2L101.4 74.4c-.1-.1-.2 0-.2.1v48.6l162.3 96.3C263.9 219.7 264.3 219.4 264.3 219z"/><path opacity=".2" fill="#808285" stroke="#545453" stroke-width="3.467" stroke-miterlimit="10" d="M239 153L99.8 72.7 13.7 120.9 8.5 118"/><g fill="#808285" stroke="#545453" stroke-width="3.467" stroke-miterlimit="10"><path opacity=".5" d="M99.8 73.8l-.1 48.1-86.1 49.7v-49.8l85.9-48.1C99.7 73.6 99.8 73.7 99.8 73.8zM264.3 219.4v-53.1L101.4 73.4c-.1-.1-.2 0-.2.1v49.6l163 96.4C264.2 219.6 264.3 219.5 264.3 219.4z"/><path opacity=".2" d="M13.7 120.9L8.5 118 99.8 66.4 270.2 161.1 264.3 164.8 99.8 72.7z"/></g><path fill="none" stroke="#58595B" stroke-width="2.737" stroke-linecap="round" stroke-miterlimit="10" d="M65.1,119.6L47.6,109	c-1.7-1-2.7-2.8-2.7-4.8V91"/><path fill="#FDBD56" stroke="#545453" stroke-width="1.095" stroke-miterlimit="10" d="M160.7,179.6L160.7,179.6L160.7,179.6	c0-7.2-2.6-12.3-6.7-14.6l-10.4-6v-2.2c0,0-0.1-0.1-0.1-0.1l0,0c0,0,0-0.1,0-0.1L73.3,116l-10.7,6.3c0,0,0,0,0,0l0,0c0,0,0,0,0,0v7	l0.4,0.2c-10.1,8.5-17.7,23.3-17.7,35.7c0,8,3.1,13.3,8,15.3l68.1,39.7c0.1,0.1,0.2,0.1,0.3,0.2c0,0,0,0,0,0	c0.2,0.1,0.5,0.3,0.7,0.4c0,0,0,0,0.1,0c0.2,0.1,0.5,0.2,0.8,0.3c0,0,0.1,0,0.1,0c0.3,0.1,0.5,0.2,0.8,0.3c0,0,0.1,0,0.1,0	c0.3,0.1,0.5,0.1,0.8,0.2c0,0,0.1,0,0.1,0c0.3,0.1,0.5,0.1,0.8,0.1c0,0,0.1,0,0.1,0c0.3,0,0.6,0.1,0.8,0.1c0,0,0.1,0,0.1,0	c0.3,0,0.6,0,0.9,0c0,0,0.1,0,0.1,0c0.3,0,0.6,0,0.9-0.1c0,0,0.1,0,0.1,0c0.3,0,0.6-0.1,0.9-0.1c0,0,0.1,0,0.1,0	c0.3,0,0.6-0.1,0.9-0.2c0,0,0.1,0,0.1,0c0.3-0.1,0.6-0.2,1-0.2c0,0,0.1,0,0.1,0c0.3-0.1,0.7-0.2,1-0.3c0,0,0.1,0,0.1,0	c0.3-0.1,0.7-0.2,1-0.4c0,0,0.1,0,0.1,0c0.4-0.1,0.7-0.3,1.1-0.5c0,0,0,0,0.1,0c0.4-0.2,0.7-0.4,1.1-0.5c0,0,0,0,0,0	c0.4-0.2,0.8-0.4,1.2-0.6c11.7-6.8,21.4-22.5,22.7-36.3c0-0.3,0-0.6,0.1-0.9C160.7,181,160.7,180.3,160.7,179.6z"/><path fill="none" stroke="#545453" stroke-width="1.071" stroke-linecap="round" stroke-miterlimit="10" d="M147.5,162.7l1.5-0.2	c0.5-0.1,0.9,0.3,1,0.8c2,19-25.2,18-28.2,4.4l10.5-5l10.8-6.4c0,0,0.1,0,0.1,0.1v2.6C143.2,161.3,145.2,163,147.5,162.7z"/><path fill="#F7923F" stroke="#545453" stroke-width="1.071" stroke-miterlimit="10" d="M62.4,122.7v0.7c0,4.3-1.7,8.3-4.7,11.4l0,0	l69.6,40.8l0.5-0.5c3.1-3.2,4.8-7.5,4.8-12l0-0.1l-69.9-40.5C62.5,122.5,62.4,122.6,62.4,122.7z"/><path fill="#FDBD56" stroke="#545453" stroke-width="1.071" stroke-miterlimit="10" d="M160.7,179.3c0,14.4-10.2,32.1-22.8,39.3	s-22.8,1.4-22.8-13c0-10,4.9-21.4,12-30c0.1-0.1,0.1-0.1,0.2-0.2l21.9-13c0.2-0.1,0.5-0.2,0.7-0.1	C155.3,164.1,160.7,169,160.7,179.3z"/><path fill="#FFDA99" stroke="#545453" stroke-width="1.071" stroke-miterlimit="10" d="M62.5,122.3l70.2,40.6l10.8-6.4	c0,0,0-0.1,0-0.1l-70.2-40.5L62.5,122.3C62.5,122.3,62.5,122.3,62.5,122.3z"/><path fill="none" stroke="#F7923F" stroke-width="16.306" stroke-linecap="round" stroke-miterlimit="10" d="M54.9 158.2L108 188.3"/><path fill="none" stroke="#FFDA99" stroke-width="3.899" stroke-linecap="round" stroke-miterlimit="10" d="M54.9 142.2L117.8 178.6"/><path fill="none" stroke="#58595B" stroke-width="2.737" stroke-linecap="round" stroke-miterlimit="10" d="M134.9,191.2l-9.1-5.3	c-0.9-0.5-0.9-1.7,0-2.2l43.8-25.2c1-0.6,2.3-0.6,3.4,0l9.5,5.5"/><g stroke-miterlimit="10"><path fill="#FDBD56" stroke="#545453" stroke-width=".741" d="M230.8,194.7L230.8,194.7L230.8,194.7 c0-3.7-1.3-6.3-3.4-7.5L222,184v-1.2c0,0,0,0,0,0l0,0c0,0,0,0,0-0.1l-36.1-20.9l-5.5,3.3c0,0,0,0,0,0l0,0c0,0,0,0,0,0v3.6l0.2,0.1 c-5.2,4.4-9.1,12-9.1,18.4c0,4.1,1.6,6.8,4.1,7.9l35.1,20.5c0.1,0,0.1,0.1,0.2,0.1c0,0,0,0,0,0c0.1,0.1,0.3,0.1,0.4,0.2 c0,0,0,0,0,0c0.1,0.1,0.3,0.1,0.4,0.2c0,0,0,0,0,0c0.1,0,0.3,0.1,0.4,0.1c0,0,0,0,0.1,0c0.1,0,0.3,0.1,0.4,0.1c0,0,0,0,0.1,0 c0.1,0,0.3,0,0.4,0.1c0,0,0,0,0.1,0c0.1,0,0.3,0,0.4,0c0,0,0,0,0.1,0c0.1,0,0.3,0,0.4,0c0,0,0,0,0.1,0c0.1,0,0.3,0,0.5,0 c0,0,0,0,0.1,0c0.2,0,0.3,0,0.5-0.1c0,0,0,0,0.1,0c0.2,0,0.3-0.1,0.5-0.1c0,0,0,0,0.1,0c0.2,0,0.3-0.1,0.5-0.1c0,0,0,0,0.1,0 c0.2,0,0.3-0.1,0.5-0.2c0,0,0,0,0.1,0c0.2-0.1,0.4-0.1,0.5-0.2c0,0,0,0,0,0c0.2-0.1,0.4-0.2,0.5-0.2c0,0,0,0,0,0 c0.2-0.1,0.4-0.2,0.6-0.3c0,0,0,0,0,0c0.2-0.1,0.4-0.2,0.6-0.3c6-3.5,11-11.6,11.7-18.7c0-0.2,0-0.3,0-0.5 C230.8,195.4,230.8,195,230.8,194.7z"/><path fill="none" stroke="#545453" stroke-width=".547" stroke-linecap="round" d="M224,186.1l1.2-0.2 c1.6,10.3-12.9,9.9-14.5,2.7l5.4-2.6l5.5-3.3c0,0,0,0,0,0v1.4C221.8,185.4,222.9,186.3,224,186.1z"/><path fill="#F7923F" stroke="#545453" stroke-width=".741" d="M180.2,165.5v0.4c0,2.2-0.9,4.3-2.4,5.8 l0,0l35.8,21l0.3-0.3c1.6-1.6,2.5-3.9,2.5-6.2l0,0l-36-20.9C180.3,165.4,180.2,165.4,180.2,165.5z"/><path fill="#FDBD56" stroke="#545453" stroke-width=".73" d="M230.8,194.7c0,7.4-5.3,16.5-11.7,20.2 c-6.5,3.7-11.7,0.7-11.7-6.7c0-5.2,2.5-11.1,6.2-15.5l11.5-6.8C227.9,186.7,230.8,189.2,230.8,194.7z"/><path fill="#FFDA99" stroke="#545453" stroke-width=".741" d="M180.3,165.2l36.1,20.9l5.5-3.3 c0,0,0,0,0-0.1L185.8,162L180.3,165.2C180.3,165.2,180.3,165.2,180.3,165.2z"/><path fill="none" stroke="#F7923F" stroke-width="8.395" stroke-linecap="round" d="M176.3 185.7L203.7 201.2"/><path fill="none" stroke="#FFDA99" stroke-width="2.007" stroke-linecap="round" d="M176.3 177.4L208.7 196.2"/></g><path fill="none" stroke="#58595B" stroke-width="2.737" stroke-linecap="round" stroke-miterlimit="10" d="M158.4 176.5L138.2 164.3"/><g stroke-miterlimit="10"><path fill="#FDBD56" stroke="#545453" stroke-width=".741" d="M206.9,208.4L206.9,208.4L206.9,208.4 c0-3.7-1.3-6.3-3.4-7.5l-5.4-3.1v-1.2c0,0,0,0,0,0l0,0c0,0,0,0,0-0.1l-36.1-20.9l-5.5,3.3c0,0,0,0,0,0l0,0c0,0,0,0,0,0v3.6l0.2,0.1 c-5.2,4.4-9.1,12-9.1,18.4c0,4.1,1.6,6.8,4.1,7.9l35.1,20.5c0.1,0,0.1,0.1,0.2,0.1c0,0,0,0,0,0c0.1,0.1,0.3,0.1,0.4,0.2 c0,0,0,0,0,0c0.1,0.1,0.3,0.1,0.4,0.2c0,0,0,0,0,0c0.1,0,0.3,0.1,0.4,0.1c0,0,0,0,0.1,0c0.1,0,0.3,0.1,0.4,0.1c0,0,0,0,0.1,0 c0.1,0,0.3,0,0.4,0.1c0,0,0,0,0.1,0c0.1,0,0.3,0,0.4,0c0,0,0,0,0.1,0c0.1,0,0.3,0,0.4,0c0,0,0,0,0.1,0c0.1,0,0.3,0,0.5,0 c0,0,0,0,0.1,0c0.2,0,0.3,0,0.5-0.1c0,0,0,0,0.1,0c0.2,0,0.3-0.1,0.5-0.1c0,0,0,0,0.1,0c0.2,0,0.3-0.1,0.5-0.1c0,0,0,0,0.1,0 c0.2,0,0.3-0.1,0.5-0.2c0,0,0,0,0.1,0c0.2-0.1,0.4-0.1,0.5-0.2c0,0,0,0,0,0c0.2-0.1,0.4-0.2,0.5-0.2c0,0,0,0,0,0 c0.2-0.1,0.4-0.2,0.6-0.3c0,0,0,0,0,0c0.2-0.1,0.4-0.2,0.6-0.3c6-3.5,11-11.6,11.7-18.7c0-0.2,0-0.3,0-0.5 C206.9,209.1,206.9,208.8,206.9,208.4z"/><path fill="none" stroke="#545453" stroke-width=".547" stroke-linecap="round" d="M200.1,199.9l1.2-0.2 c1.6,10.3-12.9,9.9-14.5,2.7l5.4-2.6l5.5-3.3c0,0,0,0,0,0v1.4C197.9,199.2,199,200.1,200.1,199.9z"/><path fill="#F7923F" stroke="#545453" stroke-width=".741" d="M156.3,179.2v0.4c0,2.2-0.9,4.3-2.4,5.8 l0,0l35.8,21l0.3-0.3c1.6-1.6,2.5-3.9,2.5-6.2l0,0l-36-20.9C156.3,179.1,156.3,179.2,156.3,179.2z"/><path fill="#FDBD56" stroke="#545453" stroke-width=".73" d="M206.9,208.4c0,7.4-5.3,16.5-11.7,20.2 c-6.5,3.7-11.7,0.7-11.7-6.7c0-5.2,2.5-11.1,6.2-15.5l11.5-6.8C204,200.5,206.9,203,206.9,208.4z"/><path fill="#FFDA99" stroke="#545453" stroke-width=".741" d="M156.4,179l36.1,20.9l5.5-3.3 c0,0,0,0,0-0.1l-36.1-20.9L156.4,179C156.4,179,156.4,179,156.4,179z"/><path fill="none" stroke="#F7923F" stroke-width="8.395" stroke-linecap="round" d="M152.4 199.4L179.8 215"/><path fill="none" stroke="#FFDA99" stroke-width="2.007" stroke-linecap="round" d="M152.4 191.2L184.8 210"/></g><g stroke-miterlimit="10"><path fill="#FDBD56" stroke="#545453" stroke-width=".741" d="M182.8,222.2L182.8,222.2L182.8,222.2 c0-3.7-1.3-6.3-3.4-7.5l-5.4-3.1v-1.2c0,0,0,0,0,0l0,0c0,0,0,0,0-0.1l-36.1-20.9l-5.5,3.3c0,0,0,0,0,0l0,0c0,0,0,0,0,0v3.6l0.2,0.1 c-5.2,4.4-9.1,12-9.1,18.4c0,4.1,1.6,6.8,4.1,7.9l35.1,20.5c0.1,0,0.1,0.1,0.2,0.1c0,0,0,0,0,0c0.1,0.1,0.3,0.1,0.4,0.2 c0,0,0,0,0,0c0.1,0.1,0.3,0.1,0.4,0.2c0,0,0,0,0,0c0.1,0,0.3,0.1,0.4,0.1c0,0,0,0,0.1,0c0.1,0,0.3,0.1,0.4,0.1c0,0,0,0,0.1,0 c0.1,0,0.3,0,0.4,0.1c0,0,0,0,0.1,0c0.1,0,0.3,0,0.4,0c0,0,0,0,0.1,0c0.1,0,0.3,0,0.4,0c0,0,0,0,0.1,0c0.1,0,0.3,0,0.5,0 c0,0,0,0,0.1,0c0.2,0,0.3,0,0.5-0.1c0,0,0,0,0.1,0c0.2,0,0.3-0.1,0.5-0.1c0,0,0,0,0.1,0c0.2,0,0.3-0.1,0.5-0.1c0,0,0,0,0.1,0 c0.2,0,0.3-0.1,0.5-0.2c0,0,0,0,0.1,0c0.2-0.1,0.4-0.1,0.5-0.2c0,0,0,0,0,0c0.2-0.1,0.4-0.2,0.5-0.2c0,0,0,0,0,0 c0.2-0.1,0.4-0.2,0.6-0.3c0,0,0,0,0,0c0.2-0.1,0.4-0.2,0.6-0.3c6-3.5,11-11.6,11.7-18.7c0-0.2,0-0.3,0-0.5 C182.8,222.9,182.8,222.6,182.8,222.2z"/><path fill="none" stroke="#545453" stroke-width=".547" stroke-linecap="round" d="M176,213.7l1.2-0.2 c1.6,10.3-12.9,9.9-14.5,2.7l5.4-2.6l5.5-3.3c0,0,0,0,0,0v1.4C173.8,213,174.9,213.9,176,213.7z"/><path fill="#F7923F" stroke="#545453" stroke-width=".741" d="M132.2,193v0.4c0,2.2-0.9,4.3-2.4,5.8l0,0 l35.8,21l0.3-0.3c1.6-1.6,2.5-3.9,2.5-6.2l0,0l-36-20.9C132.3,192.9,132.2,193,132.2,193z"/><path fill="#FDBD56" stroke="#545453" stroke-width=".73" d="M182.8,222.2c0,7.4-5.3,16.5-11.7,20.2 c-6.5,3.7-11.7,0.7-11.7-6.7c0-5.2,2.5-11.1,6.2-15.5l11.5-6.8C179.9,214.3,182.8,216.8,182.8,222.2z"/><path fill="#FFDA99" stroke="#545453" stroke-width=".741" d="M132.3,192.8l36.1,20.9l5.5-3.3 c0,0,0,0,0-0.1l-36.1-20.9L132.3,192.8C132.3,192.8,132.3,192.8,132.3,192.8z"/><path fill="none" stroke="#F7923F" stroke-width="8.395" stroke-linecap="round" d="M128.3 213.3L155.7 228.8"/><path fill="none" stroke="#FFDA99" stroke-width="2.007" stroke-linecap="round" d="M128.3 205L160.7 223.8"/></g><path fill="none" stroke="#58595B" stroke-width="2.737" stroke-linecap="round" stroke-miterlimit="10" d="M171.1,242.5l10,5.4	c0.3,0.1,0.6,0.1,0.8,0l49.2-27.4c0.1-0.1,0.1-0.3,0-0.3l-10.2-6"/><path fill="none" stroke="#58595B" stroke-width="2.737" stroke-linecap="round" stroke-miterlimit="10" d="M197 228.8L212.6 237.8 221.2 242.8M195.2 201.2L211.9 210.9M211.9 201.9L211.9 237.4"/><g stroke="#545453" stroke-width=".608" stroke-miterlimit="10"><path fill="#FDBD56" d="M127,146.7L127,146.7 c0-0.4-0.1-0.8-0.2-1.2l-1.8-9.3h-15.5l-1.7,9.2c-0.2,0.4-0.2,0.9-0.2,1.3l0,0h0c0,1.4,1,2.9,2.9,4c3.8,2.2,10,2.2,13.8,0 C126.1,149.6,127,148.1,127,146.7L127,146.7z"/><path fill="#FFDA99" d="M122.8,139.6c-3,1.7-7.9,1.7-11,0 c-3-1.8-3.1-4.6,0-6.3c3-1.7,7.9-1.7,11,0C125.8,135,125.8,137.8,122.8,139.6z"/><g><path fill="#FDBD56" d="M123.2,135.4v-1c0.2-1-0.4-2.1-1.7-2.9 c-2.3-1.4-6.1-1.4-8.4,0c-1,0.6-1.6,1.3-1.7,2.1h0v0c0,0.2,0,0.4,0,0.6v1.2c0,0.2,0,0.4,0,0.6v0l0,0c0.1,0.8,0.7,1.5,1.7,2.1 c2.3,1.4,6.1,1.4,8.4,0c1-0.6,1.5-1.3,1.7-2l0,0v0C123.3,135.9,123.3,135.7,123.2,135.4z"/><path fill="#FFDA99" d="M121.5,136.4c-2.3,1.3-6.1,1.3-8.4,0 c-2.3-1.4-2.4-3.5,0-4.9c2.3-1.3,6.1-1.3,8.4,0S123.8,135.1,121.5,136.4z"/></g></g><path d="M106.9 91.5l2.7 1.6c.7.4 1.3.8 1.7 1.1.4.3.7.7.9 1 .2.3.3.7.4 1 .1.3.1.8.1 1.5v.9c0 .6-.1 1.1-.2 1.3-.1.2-.4.3-.7.3-.4-.1-.8-.2-1.4-.6l-.7-.4v4.1l-2.7-1.5V91.5zM109.6 94.7v2.6c.1 0 .1.1.2.1.2.1.4.2.5.1.1-.1.1-.3.1-.7v-.8c0-.3-.1-.6-.2-.8C110.2 95.1 109.9 94.9 109.6 94.7zM113.5 95.2l1.9 1.1c1.3.7 2.1 1.3 2.6 1.6.4.4.8.8 1.1 1.4.3.6.4 1.3.4 2.1 0 .8-.1 1.3-.3 1.4-.2.2-.6.1-1.2-.2.5.4.9.8 1.1 1.1.2.3.3.6.3.8 0 .2.1.7.1 1.5v2.7l-2.5-1.4V104c0-.5 0-.9-.1-1.1-.1-.2-.3-.4-.7-.6v4.6l-2.7-1.5V95.2zM116.1 98.5v2.3c.3.2.5.3.6.2.1 0 .2-.2.2-.7v-.6c0-.3-.1-.6-.2-.7C116.7 98.9 116.4 98.7 116.1 98.5zM126.6 108.8c0 1 0 1.7-.1 2.1 0 .4-.2.7-.5.9-.3.2-.6.3-1 .2-.4-.1-.9-.3-1.5-.6-.6-.3-1-.7-1.5-1.1-.4-.4-.8-.9-1.1-1.4-.3-.5-.4-1-.5-1.4-.1-.4-.1-1.2-.1-2.2v-1.7c0-1 0-1.7.1-2.1 0-.4.2-.7.5-.9.3-.2.6-.3 1-.2.4.1.9.3 1.5.6.6.3 1 .7 1.5 1.1.4.4.8.9 1.1 1.4.3.5.4 1 .5 1.4.1.4.1 1.2.1 2.2V108.8zM123.9 103.9c0-.5 0-.8-.1-1-.1-.2-.2-.3-.3-.4-.1-.1-.2-.1-.3 0-.1.1-.1.4-.1.9v4.7c0 .6 0 1 .1 1.1 0 .2.2.3.3.4.2.1.3.1.4 0 .1-.1.1-.5.1-1.1V103.9zM127.6 103.4l4.5 2.6v2l-1.9-1.1v1.9l1.7 1v1.9l-1.7-1v4.3l-2.7-1.5V103.4zM138.2 109.5v2l-1.6-.9v8.1l-2.7-1.5v-8.1l-1.6-.9v-2L138.2 109.5zM138.8 109.9l4.5 2.6v2l-1.8-1v1.9l1.7 1v1.9l-1.7-1v2.2l2 1.1v2l-4.6-2.7V109.9zM150.5 121l-2.7-1.5v-1.8c0-.5 0-.8-.1-1-.1-.2-.2-.3-.4-.4-.2-.1-.4-.1-.4 0-.1.1-.1.4-.1 1v4.7c0 .5 0 .8.1 1s.2.3.4.5c.2.1.3.1.4 0 .1-.1.1-.5.1-1v-1.3l2.7 1.5v.4c0 1-.1 1.8-.2 2.1-.2.4-.5.5-1 .6-.5 0-1.2-.2-1.9-.6-.8-.5-1.4-1-1.9-1.5-.5-.6-.8-1.2-1-1.7-.2-.6-.2-1.4-.2-2.4v-3c0-.7 0-1.3.1-1.6.1-.3.2-.6.5-.8.3-.2.6-.3 1.1-.2.4.1 1 .3 1.5.6.8.5 1.4 1 2 1.6.5.6.9 1.2 1 1.7.2.5.2 1.3.2 2.2V121zM157.6 120.7v10.1l-2.7-1.5v-4.3l-.8-.5v4.3l-2.7-1.5v-10.1l2.7 1.5v3.6l.8.5v-3.6L157.6 120.7z"/><g><path fill="#FFF" stroke="#000" stroke-width=".885" stroke-miterlimit="10" d="M231.4,175.6l-69-39.8 c-0.9-0.5-1.6-1.8-1.6-2.9v-11c0-1,0.6-1.4,1.5-0.8c0.2,0.1,0.4,0.3,0.5,0.4l68.3,39.4c0.2,0.1,0.4,0.2,0.5,0.3 c0.8,0.3,1.5,1.5,1.5,2.5v11C233,175.6,232.3,176.1,231.4,175.6z"/><g fill="#F5A722"><path d="M163.6 124.1l4.5 2.6v2l-1.8-1v1.9l1.7 1v1.9l-1.7-1v2.2l2 1.1v2l-4.6-2.7V124.1zM175 130.7v10.1l-2.4-1.4-1.4-5.4v4.6l-2.2-1.3v-10.1l2.2 1.3 1.5 5.4v-4.6L175 130.7zM182.2 138.6l-2.7-1.5v-.9c0-.6 0-1-.1-1.1-.1-.2-.2-.3-.4-.4-.2-.1-.3-.1-.3 0-.1.1-.1.4-.1.9v4.9c0 .5 0 .8.1 1 .1.2.2.3.4.4.2.1.3.1.4 0 .1-.1.1-.4.1-.9v-1.2l-.5-.3v-1.5l3.1 1.8v5.4l-1.7-1-.2-.9c-.2.2-.4.3-.7.3-.3 0-.6-.1-1-.3-.5-.3-.9-.6-1.3-1.1-.4-.4-.7-.9-.9-1.3-.2-.4-.3-.8-.4-1.2-.1-.4-.1-.9-.1-1.6v-3c0-1 .1-1.6.2-2 .1-.4.4-.6.9-.7.5-.1 1.2.1 2 .6.8.5 1.4 1 2 1.6.5.6.9 1.2 1 1.7.2.5.2 1.2.2 2V138.6zM185.9 137v10.1l-2.7-1.5v-10.1L185.9 137zM193 141.1v10.1l-2.3-1.4-1.4-5.4v4.6l-2.2-1.3v-10.1l2.2 1.3 1.5 5.4v-4.6L193 141.1zM194.1 141.7l4.5 2.6v2l-1.8-1v1.9l1.7 1v1.9l-1.7-1v2.2l2 1.1v2l-4.6-2.7V141.7zM199.5 144.8l4.5 2.6v2l-1.8-1v1.9l1.7 1v1.9l-1.7-1v2.2l2 1.1v2l-4.6-2.7V144.8zM204.9 147.9l1.9 1.1c1.3.7 2.1 1.3 2.6 1.6.4.4.8.8 1.1 1.4s.4 1.3.4 2.1c0 .8-.1 1.3-.3 1.4-.2.2-.6.1-1.2-.2.5.4.9.8 1.1 1.1.2.3.3.6.3.8 0 .2.1.7.1 1.5v2.7l-2.5-1.4v-3.4c0-.5 0-.9-.1-1.1-.1-.2-.3-.4-.7-.6v4.6l-2.7-1.5V147.9zM207.6 151.2v2.3c.3.2.5.3.6.2.1 0 .2-.2.2-.7v-.6c0-.3-.1-.6-.2-.7C208.1 151.6 207.9 151.4 207.6 151.2zM214.6 153.6v10.1l-2.7-1.5V152L214.6 153.6zM221.7 157.6v10.1l-2.4-1.4-1.4-5.4v4.6l-2.2-1.3v-10.1l2.2 1.3 1.5 5.4v-4.6L221.7 157.6zM228.9 165.5l-2.7-1.5v-.9c0-.6 0-1-.1-1.1-.1-.2-.2-.3-.4-.4-.2-.1-.3-.1-.3 0-.1.1-.1.4-.1.9v4.9c0 .5 0 .8.1 1 .1.2.2.3.4.4.2.1.3.1.4 0 .1-.1.1-.4.1-.9v-1.2l-.5-.3v-1.5l3.1 1.8v5.4l-1.7-1-.2-.9c-.2.2-.4.3-.7.3-.3 0-.6-.1-1-.3-.5-.3-.9-.6-1.3-1.1-.4-.4-.7-.9-.9-1.3-.2-.4-.3-.8-.4-1.2-.1-.4-.1-.9-.1-1.6v-3c0-1 .1-1.6.2-2 .1-.4.4-.6.9-.7.5-.1 1.2.1 2 .6.8.5 1.4 1 2 1.6.5.6.9 1.2 1 1.7.2.5.2 1.2.2 2V165.5z"/></g></g><g stroke="#000" stroke-miterlimit="10"><path stroke-width=".595" d="M46.2,126.9l-2.3,1.3c-0.1-0.5-0.3-1.1-0.4-1.6 c-0.2-0.6-0.5-1.2-0.9-1.6l1.6-2.7c0-0.1,0-0.2,0-0.2l-3-1.7c0,0-0.1,0-0.2,0.1l-1.6,2.7c-0.6-0.1-1.2-0.1-1.9,0 c-0.5,0.1-1,0.2-1.5,0.4V121c0-0.1-0.1-0.1-0.1-0.1l-4.2,2.4c-0.1,0-0.1,0.1-0.1,0.2v2.7c-1.2,1-2.4,2.3-3.4,3.6l-1.7-0.9 c-0.1,0-0.1,0-0.2,0.1l-2.9,5.2c0,0.1,0,0.2,0,0.2l1.7,0.9c-0.6,1.5-1.1,3.1-1.3,4.6l-2.6,1.5c-0.1,0-0.1,0.1-0.1,0.2v4.8 c0,0.1,0.1,0.1,0.1,0.1l2.6-1.5c0.1,0.5,0.2,1,0.4,1.4c0.2,0.7,0.6,1.2,1,1.7l-1.8,3c-0.1,0.1-0.1,0.2,0,0.2l2.9,1.8 c0,0,0.1,0,0.2-0.1l1.9-3.1c0.6,0.1,1.1,0,1.8-0.1c0.5-0.1,1-0.2,1.5-0.4v2.9c0,0.1,0.1,0.1,0.1,0.1l4.2-2.4c0.1,0,0.1-0.1,0.1-0.2 v-2.9c1.2-1,2.3-2.1,3.3-3.4l1.7,1c0,0,0.1,0,0.2-0.1l3-5.1c0-0.1,0.1-0.2,0-0.2l-1.7-1c0.7-1.5,1.1-3.1,1.4-4.6l2.4-1.4 c0.1,0,0.1-0.1,0.1-0.2V127C46.4,126.9,46.3,126.9,46.2,126.9z"/><path fill="#E6E7E8" stroke-width=".414" d="M40.1,132.9c0,4-2.8,8.9-6.3,10.9 c-3.5,2-6.3,0.4-6.3-3.6c0-4,2.8-8.9,6.3-10.9C37.2,127.3,40.1,128.9,40.1,132.9z"/><path stroke-width=".595" d="M36.9,134.8c0,2-1.4,4.4-3.2,5.5c-1.7,1-3.2,0.2-3.2-1.8 c0-2,1.4-4.4,3.2-5.5C35.5,132,36.9,132.8,36.9,134.8z"/></g><g stroke="#000" stroke-miterlimit="10"><path stroke-width=".282" d="M178,224.1l-1.1,0.6c-0.1-0.3-0.1-0.5-0.2-0.8 c-0.1-0.3-0.3-0.6-0.4-0.8l0.7-1.3c0,0,0-0.1,0-0.1l-1.4-0.8c0,0-0.1,0-0.1,0l-0.7,1.3c-0.3,0-0.6,0-0.9,0c-0.2,0-0.5,0.1-0.7,0.2 v-1.3c0,0,0-0.1-0.1,0l-2,1.2c0,0-0.1,0.1-0.1,0.1v1.3c-0.6,0.5-1.1,1.1-1.6,1.7l-0.8-0.4c0,0-0.1,0-0.1,0.1l-1.4,2.5 c0,0,0,0.1,0,0.1l0.8,0.4c-0.3,0.7-0.5,1.5-0.6,2.2l-1.2,0.7c0,0-0.1,0.1-0.1,0.1v2.3c0,0,0,0.1,0.1,0l1.2-0.7 c0,0.2,0.1,0.5,0.2,0.7c0.1,0.3,0.3,0.6,0.5,0.8l-0.8,1.4c0,0,0,0.1,0,0.1l1.4,0.8c0,0,0.1,0,0.1,0l0.9-1.5c0.3,0,0.5,0,0.8,0 c0.2,0,0.5-0.1,0.7-0.2v1.4c0,0,0,0.1,0.1,0l2-1.2c0,0,0.1-0.1,0.1-0.1v-1.4c0.6-0.5,1.1-1,1.5-1.6l0.8,0.5c0,0,0.1,0,0.1,0 l1.4-2.4c0,0,0-0.1,0-0.1l-0.8-0.5c0.3-0.7,0.5-1.5,0.7-2.2l1.1-0.6c0,0,0.1-0.1,0.1-0.1L178,224.1 C178.1,224.1,178.1,224.1,178,224.1z"/><path fill="#E6E7E8" stroke-width=".196" d="M175.1,227c0,1.9-1.3,4.2-3,5.2 c-1.7,1-3,0.2-3-1.7c0-1.9,1.3-4.2,3-5.2C173.8,224.3,175.1,225,175.1,227z"/><path stroke-width=".282" d="M173.6,227.9c0,0.9-0.7,2.1-1.5,2.6s-1.5,0.1-1.5-0.9 s0.7-2.1,1.5-2.6C172.9,226.5,173.6,226.9,173.6,227.9z"/></g><g stroke="#000" stroke-miterlimit="10"><path stroke-width=".282" d="M201.1,210.5l-1.1,0.6c-0.1-0.3-0.1-0.5-0.2-0.8 c-0.1-0.3-0.3-0.6-0.4-0.8l0.7-1.3c0,0,0-0.1,0-0.1l-1.4-0.8c0,0-0.1,0-0.1,0l-0.7,1.3c-0.3,0-0.6,0-0.9,0c-0.2,0-0.5,0.1-0.7,0.2 v-1.3c0,0,0-0.1-0.1,0l-2,1.2c0,0-0.1,0.1-0.1,0.1v1.3c-0.6,0.5-1.1,1.1-1.6,1.7l-0.8-0.4c0,0-0.1,0-0.1,0.1l-1.4,2.5 c0,0,0,0.1,0,0.1l0.8,0.4c-0.3,0.7-0.5,1.5-0.6,2.2l-1.2,0.7c0,0-0.1,0.1-0.1,0.1v2.3c0,0,0,0.1,0.1,0l1.2-0.7 c0,0.2,0.1,0.5,0.2,0.7c0.1,0.3,0.3,0.6,0.5,0.8l-0.8,1.4c0,0,0,0.1,0,0.1l1.4,0.8c0,0,0.1,0,0.1,0l0.9-1.5c0.3,0,0.5,0,0.8,0 c0.2,0,0.5-0.1,0.7-0.2v1.4c0,0,0,0.1,0.1,0l2-1.2c0,0,0.1-0.1,0.1-0.1v-1.4c0.6-0.5,1.1-1,1.5-1.6l0.8,0.5c0,0,0.1,0,0.1,0 l1.4-2.4c0,0,0-0.1,0-0.1l-0.8-0.5c0.3-0.7,0.5-1.5,0.7-2.2l1.1-0.6c0,0,0.1-0.1,0.1-0.1L201.1,210.5 C201.2,210.5,201.2,210.5,201.1,210.5z"/><path fill="#E6E7E8" stroke-width=".196" d="M198.2,213.3c0,1.9-1.3,4.2-3,5.2 c-1.7,1-3,0.2-3-1.7s1.3-4.2,3-5.2C196.9,210.7,198.2,211.4,198.2,213.3z"/><path stroke-width=".282" d="M196.7,214.2c0,0.9-0.7,2.1-1.5,2.6 c-0.8,0.5-1.5,0.1-1.5-0.9s0.7-2.1,1.5-2.6C196,212.9,196.7,213.3,196.7,214.2z"/></g><g stroke="#000" stroke-miterlimit="10"><path stroke-width=".282" d="M226.2,196.4l-1.1,0.6c-0.1-0.3-0.1-0.5-0.2-0.8 c-0.1-0.3-0.3-0.6-0.4-0.8l0.7-1.3c0,0,0-0.1,0-0.1l-1.4-0.8c0,0-0.1,0-0.1,0l-0.7,1.3c-0.3,0-0.6,0-0.9,0c-0.2,0-0.5,0.1-0.7,0.2 v-1.3c0,0,0-0.1-0.1,0l-2,1.2c0,0-0.1,0.1-0.1,0.1v1.3c-0.6,0.5-1.1,1.1-1.6,1.7l-0.8-0.4c0,0-0.1,0-0.1,0.1l-1.4,2.5 c0,0,0,0.1,0,0.1l0.8,0.4c-0.3,0.7-0.5,1.5-0.6,2.2l-1.2,0.7c0,0-0.1,0.1-0.1,0.1v2.3c0,0,0,0.1,0.1,0l1.2-0.7 c0,0.2,0.1,0.5,0.2,0.7c0.1,0.3,0.3,0.6,0.5,0.8l-0.8,1.4c0,0,0,0.1,0,0.1l1.4,0.8c0,0,0.1,0,0.1,0l0.9-1.5c0.3,0,0.5,0,0.8,0 c0.2,0,0.5-0.1,0.7-0.2v1.4c0,0,0,0.1,0.1,0l2-1.2c0,0,0.1-0.1,0.1-0.1v-1.4c0.6-0.5,1.1-1,1.5-1.6l0.8,0.5c0,0,0.1,0,0.1,0 l1.4-2.4c0,0,0-0.1,0-0.1l-0.8-0.5c0.3-0.7,0.5-1.5,0.7-2.2l1.1-0.6c0,0,0.1-0.1,0.1-0.1L226.2,196.4 C226.2,196.4,226.2,196.4,226.2,196.4z"/><path fill="#E6E7E8" stroke-width=".196" d="M223.2,199.3c0,1.9-1.3,4.2-3,5.2 c-1.7,1-3,0.2-3-1.7c0-1.9,1.3-4.2,3-5.2C221.9,196.6,223.2,197.4,223.2,199.3z"/><path stroke-width=".282" d="M221.7,200.2c0,0.9-0.7,2.1-1.5,2.6 c-0.8,0.5-1.5,0.1-1.5-0.9s0.7-2.1,1.5-2.6C221.1,198.8,221.7,199.2,221.7,200.2z"/></g></svg>