<svg xmlns="http://www.w3.org/2000/svg" viewBox="0 0 283.5 283.5" id="vent"><path fill="#E6E7E8" stroke="#6D6E71" stroke-width="1.545" stroke-miterlimit="10" d="M17.4,189.9l100.8,58c2.4,1.4,5.4,1.4,7.8,0	L270.9,164c5.2-3,5.2-10.6,0-13.6L170.1,92.9c-2.4-1.4-5.4-1.4-7.8,0L17.4,176.3C12.1,179.3,12.1,186.9,17.4,189.9z"/><path fill="#E6E7E8" stroke="#545453" stroke-width="1.545" stroke-miterlimit="10" d="M131.4,29.5L32.7,86.1l25.4,14.8l97.7-56.2	c0.2-0.1,0.2-0.5,0-0.6L131.4,29.5z"/><path fill="#BCBEC0" stroke="#545453" stroke-width="1.545" stroke-miterlimit="10" d="M155.9,44.7l-97.7,56.2v21.3	c0,0.2,0.1,0.3,0.2,0.4l9.2,5.2l98-56.4c0.1,0,0.1-0.2,0-0.2l-9.2-5.8l0.1-20.4C156.4,44.7,156.1,44.6,155.9,44.7z"/><path fill="#939598" stroke="#545453" stroke-width="1.545" stroke-miterlimit="10" d="M58.1,122.2v-21.3L32.7,86.1v93l34.6,20.3	c0.1,0,0.2,0,0.2-0.1v-71.5l-9.2-5.2C58.2,122.5,58.1,122.4,58.1,122.2z"/><path fill="none" stroke="#545453" stroke-width="1.545" stroke-miterlimit="10" d="M165.7,71.6v71.3l-98,56.6	c-0.1,0-0.2,0-0.2-0.1v-71.5l98-56.4C165.6,71.4,165.7,71.5,165.7,71.6z"/><path fill="#BCBEC0" stroke="#545453" stroke-width="1.545" stroke-miterlimit="10" d="M165.7,71.6v71.3l-98,56.6	c-0.1,0-0.2,0-0.2-0.1v-71.5l98-56.4C165.6,71.4,165.7,71.5,165.7,71.6z"/><path fill="#E6E7E8" stroke="#545453" stroke-width="1.545" stroke-miterlimit="10" d="M58.8,122.1l97.5-56.6l9.2,5.8	c0.1,0,0.1,0.2,0,0.2l-98,56.4l-8.7-5C58.5,122.7,58.5,122.3,58.8,122.1z"/><path fill="#A7A9AC" stroke="#545453" stroke-width="1.545" stroke-miterlimit="10" d="M175.5,136.7V85.2v-9.4	c0-0.4,0.4-0.6,0.7-0.4l51.5,30v62c0,0.1-0.1,0.2-0.2,0.1l-52-29.8V136.7z"/><path fill="#E6E7E8" stroke="#545453" stroke-width="1.545" stroke-miterlimit="10" d="M176.2 74.5l25-15 53.7 30.9c0 0 0 .1 0 .1l-27.1 15.1-51.5-30.2C175.9 75.1 175.9 74.6 176.2 74.5zM49 107.2l-7.7-3.9c-.4-.2-1-.2-1.4 0l-16.9 9.7c0 0 0 .1 0 .1l7.8 4.2L49 107.2C49 107.3 49 107.3 49 107.2z"/><path fill="#BCBEC0" stroke="#545453" stroke-width="1.545" stroke-miterlimit="10" d="M37.9,110V89.3H24.1v20.2	c-1.2,1.6-0.7,3.5,1.5,4.8c4.3,2.5,6.2,2.5,10.5,0C38.2,113.1,38.8,111.4,37.9,110z"/><path fill="#A7A9AC" stroke="#545453" stroke-width="1.545" stroke-miterlimit="10" d="M20.5,81.8l3,6.1c-0.4,1.3,0.3,2.7,2.1,3.7	c2.9,1.7,7.6,1.7,10.5,0c1.7-1,2.4-2.4,2.1-3.7l3.1-6.2c2.1-2.5,1.3-5.5-2.3-7.6c-4.5-2.6-11.8-2.6-16.3,0	C19.2,76.3,18.4,79.4,20.5,81.8z"/><path fill="#BCBEC0" stroke="#545453" stroke-width="1.545" stroke-miterlimit="10" d="M41.2,75.4l-3-6.1c0.4-1.3-0.3-2.7-2.1-3.7	c-2.9-1.7-7.6-1.7-10.5,0c-1.7,1-2.4,2.4-2.1,3.7l-3.1,6.2c-2.1,2.5-1.3,5.5,2.3,7.6c4.5,2.6,11.8,2.6,16.3,0	C42.6,80.9,43.3,77.9,41.2,75.4z"/><path fill="#E6E7E8" stroke="#545453" stroke-width="1.545" stroke-miterlimit="10" d="M36.1,71.5c-2.9,1.7-7.6,1.7-10.5,0	c-2.9-1.7-2.9-4.4,0-6s7.6-1.7,10.5,0C39,67.2,39,69.9,36.1,71.5z"/><path fill="#808285" stroke="#545453" stroke-width="1.545" stroke-miterlimit="10" d="M23.7,113.7c-0.7-0.3-1.5,0.1-1.5,0.9	l0,11.5c0,1.8,1,3.4,2.5,4.3l6.7,3.7l-0.6-16.7L23.7,113.7z"/><path fill="#BCBEC0" stroke="#545453" stroke-width="1.545" stroke-miterlimit="10" d="M30.9,117.3V128l0,3.5c0,3,3.3,4.9,5.9,3.4	l12.3-7.1v-20.4c0-0.1-0.1-0.1-0.1-0.1L30.9,117.3z"/><path fill="#A7A9AC" stroke="#545453" stroke-width="1.545" stroke-miterlimit="10" d="M30.9,129.8l-8.6-4.9v-11.1	c0-0.6,0.6-0.9,1.1-0.6l7.5,4V129.8z"/><g stroke="#545453" stroke-width=".927" stroke-linecap="round" stroke-miterlimit="10"><path fill="none" d="M103.5,54.8v-6.3 c0-3.6,1.9-6.9,5-8.7l11.8-7c0.1-0.1,0.2,0,0.2,0.2l-5.6,15.9c0,0-0.1,0.1-0.1,0.1l-2.5,0.4c-0.1,0-0.1,0.1-0.1,0.1v1.1 c0,0.1,0,0.1-0.1,0.1l-7.9,4.5C103.8,55.3,103.5,55.1,103.5,54.8z"/><path fill="#58595B" d="M103.5,48.1 l8.5,4.7l2.9-6.8l-8.2-5C105,42.4,103.4,45.9,103.5,48.1z"/><path fill="#989898" d="M111.9,60.4v-7 c0-3.6,1.9-6.9,5-8.7l11.8-7c0.1-0.1,0.2,0,0.2,0.2l-5.6,15.9c0,0-0.1,0.1-0.1,0.1l-2.5,0.4c-0.1,0-0.1,0.1-0.1,0.1v1.1 c0,0.1,0,0.1-0.1,0.1L111.9,60.4C111.9,60.4,111.9,60.4,111.9,60.4z"/><path fill="#E6E7E8" d="M120.4,32.7 l8.2,4.9L114.8,46l-8-4.8c-0.2-0.1-0.2-0.3,1.1-1.1C110.7,38.2,120.4,32.7,120.4,32.7z"/><path fill="#6D6E71" d="M111.8,60.4 l-8.3-4.8l0-7.4l8.5,4.8v7.4C111.9,60.4,111.9,60.5,111.8,60.4z"/></g><path fill="none" stroke="#545453" stroke-width=".467" stroke-linecap="round" stroke-miterlimit="10" d="M237.2,90.5l-0.1-6.3	c-0.1-3.6-2-6.9-5.1-8.6L220,68.7c-0.1-0.1-0.2,0-0.2,0.2l5.9,15.8c0,0,0.1,0.1,0.1,0.1l2.6,0.3c0.1,0,0.1,0.1,0.1,0.1l0,1.1	c0,0.1,0,0.1,0.1,0.1l8,4.4C236.8,90.9,237.2,90.8,237.2,90.5z"/><path fill="#58595B" stroke="#545453" stroke-width=".927" stroke-linecap="round" stroke-miterlimit="10" d="M237,83.8l-8.4,4.8	l-3-6.8l8.1-5.1C235.4,78,237.1,81.5,237,83.8z"/><path fill="#989898" stroke="#545453" stroke-width=".927" stroke-linecap="round" stroke-miterlimit="10" d="M228.8,96.2l-0.1-7	c-0.1-3.6-2-6.9-5.1-8.6l-11.9-6.8c-0.1-0.1-0.2,0-0.2,0.2l5.9,15.8c0,0,0.1,0.1,0.1,0.1l2.6,0.3c0.1,0,0.1,0.1,0.1,0.1l0,1.1	c0,0.1,0,0.1,0.1,0.1L228.8,96.2C228.8,96.2,228.8,96.2,228.8,96.2z"/><path fill="#BCBEC0" stroke="#545453" stroke-width="1.545" stroke-miterlimit="10" d="M254.9,151.7l-27,15.9	c-0.1,0.1-0.2,0-0.2-0.1v-62l27.1-15.1c0,0,0.1,0,0.1,0V151.7z"/><path fill="none" stroke="#A7A9AC" stroke-width="1.518" stroke-linecap="round" stroke-miterlimit="10" d="M76.4 123.2L76.4 193.5"/><path fill="none" stroke="#A7A9AC" stroke-width="1.545" stroke-linecap="round" stroke-miterlimit="10" d="M85.8 118.5L85.8 188.2"/><path fill="none" stroke="#A7A9AC" stroke-width="1.53" stroke-linecap="round" stroke-miterlimit="10" d="M94.4 112.4L94.4 183.1"/><path fill="none" stroke="#A7A9AC" stroke-width="1.545" stroke-linecap="round" stroke-miterlimit="10" d="M103.5 106.8L103.5 178"/><path fill="none" stroke="#A7A9AC" stroke-width="1.56" stroke-linecap="round" stroke-miterlimit="10" d="M121.1 98L121.1 167.6"/><path fill="none" stroke="#A7A9AC" stroke-width="1.545" stroke-linecap="round" stroke-miterlimit="10" d="M112.1 103.4L112.1 171.7M129.6 93.3L129.6 161.6"/><path fill="none" stroke="#A7A9AC" stroke-width="1.529" stroke-linecap="round" stroke-miterlimit="10" d="M139.1 87.8L139.1 156.8"/><path fill="none" stroke="#A7A9AC" stroke-width="1.527" stroke-linecap="round" stroke-miterlimit="10" d="M148 82L148 152.1"/><path fill="none" stroke="#A7A9AC" stroke-width="1.532" stroke-linecap="round" stroke-miterlimit="10" d="M156.8 77.8L156.8 147.5"/><path fill="#E6E7E8" stroke="#545453" stroke-width=".927" stroke-linecap="round" stroke-miterlimit="10" d="M219.8,68.7l-8.1,5	l13.9,8.2l7.9-5c0.2-0.1,0.2-0.4-1.1-1.1C229.6,74,219.8,68.7,219.8,68.7z"/><path fill="#6D6E71" stroke="#545453" stroke-width=".927" stroke-linecap="round" stroke-miterlimit="10" d="M228.9,96.2l8.2-5	l-0.1-7.4l-8.4,5l0.1,7.4C228.8,96.2,228.9,96.3,228.9,96.2z"/><path fill="none" stroke="#808285" stroke-width="12.981" stroke-linecap="round" stroke-miterlimit="10" d="M187,90.8l-63.4,38	c-0.2,0.1-20.1-11.4-20.1-11.4"/><path fill="none" stroke="#808285" stroke-width="8.963" stroke-linecap="round" stroke-miterlimit="10" d="M186.3,107l-70.8,42	c-1.5,0.9-1.4,3,0.1,3.8l30,16c0.8,0.5,0.9,1.7,0,2.1l-14.6,8.5c-1.3,0.8-3,0.8-4.3,0l-50-28.5"/><path fill="none" stroke="#808285" stroke-width="4.945" stroke-linecap="round" stroke-miterlimit="10" d="M203.6,107.6	l-53.9,31.6c-2.2,1.3-2.2,4.6,0,5.9l21.4,12.4c2.7,1.6,4.4,4.4,4.4,7.6l0,32.5c0,1.5-0.8,2.9-2.1,3.7l-38.1,22	c-2.8,1.6-6.4-0.4-6.4-3.7l-0.2-21.1c0-1.5-0.8-2.9-2.1-3.7l-49.8-29.1"/><path fill="none" stroke="#808285" stroke-width="12.672" stroke-linecap="round" stroke-miterlimit="10" d="M211.5,116.1	l-20.2,12.4c-3.6,2.2-5.8,6.1-5.8,10.4v26.1c0,4.3,4.7,7,8.4,4.9l21.5-12.3"/><g fill="none" stroke="#545453" stroke-linecap="round" stroke-miterlimit="10"><path stroke-width=".642" d="M40.6 173.1L57.6 183.1 57.6 164.4 40.6 154.4z"/><path stroke-width="1.236" d="M42.6 171.2L55.4 178.5M42.7 168.8L55.5 176M42.7 166.3L55.5 173.5M42.9 163.9L55.7 171.2M42.9 161.5L55.7 168.8M42.7 159L55.5 166.3"/></g><g fill="none" stroke="#545453" stroke-linecap="round" stroke-miterlimit="10"><path stroke-width=".483" d="M140.5 57.1L153.3 49.6 153.3 63.7 140.5 71.2z"/><path stroke-width=".931" d="M142 58.6L151.7 53.1M142.1 60.4L151.7 54.9M142.1 62.3L151.7 56.8M142.2 64.1L151.9 58.6M142.2 65.9L151.9 60.4M142.1 67.8L151.7 62.3"/></g><path fill="none" stroke="#F1F2F2" stroke-width="1.236" stroke-linecap="round" stroke-miterlimit="10" d="M101.4 116.5L120.5 127.5M124.7 126.9L187 90.2"/><path fill="none" stroke="#E6E7E8" stroke-width="1.236" stroke-linecap="round" stroke-miterlimit="10" d="M116.6 147L185.5 106.3"/><path fill="none" stroke="#F1F2F2" stroke-width="1.236" stroke-linecap="round" stroke-miterlimit="10" d="M128.4 179.4L146.9 168.5M135.2 222.7L173.4 200.7M187 131.2L211.7 115.4M193.8 169.6L214.7 157.2M76.7 164.9L124.7 192.6M76.7 149.1L124.7 176.6M115.5 150.5L145.5 166.7M149.4 138.2L203.6 106.6M150.2 144.1L171 156.2M176.5 196.4L176.4 163.3M129.4 196.4L129.6 220.3M187 136.2L187.1 165.8"/><path fill="none" stroke="#58595B" stroke-width="3.091" stroke-linecap="round" stroke-miterlimit="10" d="M188.6 133L213.7 116.7M75.7 151l50.5 29.5c1.4.8 3.1.8 4.5 0l16.4-9.4M120.5 147.3L188.4 107.6"/><path fill="none" stroke="#58595B" stroke-width="1.855" stroke-linecap="round" stroke-miterlimit="10" d="M76.7,166.3l51.3,30.2	l-0.1,22.8c0,4,4.3,6.5,7.8,4.5l40.9-23.1"/><path fill="none" stroke="#58595B" stroke-width="3.091" stroke-linecap="round" stroke-miterlimit="10" d="M113.8 152.1L140.2 166.3"/><path fill="none" stroke="#58595B" stroke-width="1.855" stroke-linecap="round" stroke-miterlimit="10" d="M149,145.2l23.2,13.8	c1.5,0.9,2.5,2.6,2.5,4.4v32"/><path fill="none" stroke="#58595B" stroke-width="3.091" stroke-linecap="round" stroke-miterlimit="10" d="M189.8,91.7l-64.8,37.6	c-1.7,1-3.8,1-5.6,0L100,118.3"/><path fill="none" stroke="#58595B" stroke-width="4.636" stroke-linecap="round" stroke-miterlimit="10" d="M184,134v31.8	c0,5.6,6.1,9.2,11,6.4l23.2-13.2"/><g fill="none" stroke="#A7A9AC" stroke-linecap="round" stroke-miterlimit="10"><path stroke-width="1.545" d="M67.5 96.7L67.5 117.3M76.7 90.6L76.7 111.2"/><path stroke-width="1.532" d="M85.8 85.1L85.8 107"/><path stroke-width="1.545" d="M94.4 80.3L94.4 101.1M103.5 75.5L103.5 96.2M111.9 69.6L111.9 91M121.1 65L121.1 86.2M130.5 60.4L130.5 78.8M139.1 55.6L139.1 75.5"/></g><path fill="none" stroke="#A7A9AC" stroke-width="1.545" stroke-linecap="round" stroke-miterlimit="10" d="M237.3 100.7L237.3 162M246.2 95.2L246.2 156.2"/><path fill="#BFBBBB" stroke="#545453" stroke-width=".642" stroke-linecap="round" stroke-miterlimit="10" d="M232.8 140.5L249.8 130.5 249.8 149.2 232.8 159.2z"/><path fill="none" stroke="#545453" stroke-width="1.236" stroke-linecap="round" stroke-miterlimit="10" d="M234.9 142.4L247.7 135.1M234.9 144.8L247.8 137.6M234.9 147.3L247.8 140M235.2 149.7L248 142.4M235.2 152.1L248 144.8M234.9 154.6L247.8 147.3"/><path d="M50.5 86.3l2.7-1.5c.7-.4 1.3-.7 1.8-.9.5-.2.9-.3 1.3-.3.4 0 .7 0 1.1.2.3.1.8.3 1.3.6l.8.4c.6.3.9.6 1 .8.1.2.1.5-.2.8C60 86.7 59.6 87 59 87.4l-.7.4 3.5 2-2.6 1.5L50.5 86.3zM54.6 85.6l2.2 1.3c.1 0 .1-.1.2-.1.2-.1.4-.3.4-.4 0-.1-.2-.3-.5-.4l-.7-.4c-.3-.2-.5-.3-.7-.2C55.3 85.3 55 85.4 54.6 85.6zM57 82.6l1.9-1.1c1.2-.7 2.1-1.2 2.7-1.4.5-.2 1.1-.3 1.7-.3.6 0 1.3.3 2 .7.7.4 1 .7 1.1 1 0 .2-.2.6-.7.9.6-.2 1.1-.4 1.5-.4.4 0 .6 0 .8.1.2.1.6.3 1.3.7l2.3 1.3-2.5 1.4-2.9-1.7c-.5-.3-.8-.4-1-.4-.2 0-.5.1-.8.3l3.9 2.2-2.6 1.5L57 82.6zM61.1 81.9L63 83c.3-.2.5-.3.5-.4 0-.1-.1-.3-.5-.5l-.5-.3c-.3-.2-.5-.2-.7-.2C61.6 81.6 61.4 81.7 61.1 81.9zM75 78c.9.5 1.5.9 1.8 1.1.3.2.5.5.5.8 0 .3-.1.6-.3 1-.3.3-.7.7-1.3 1-.5.3-1.1.6-1.7.7-.6.2-1.2.2-1.7.2-.6 0-1.1-.1-1.5-.3-.4-.2-1.1-.5-1.9-1l-1.5-.9c-.9-.5-1.5-.9-1.8-1.1-.3-.2-.5-.5-.5-.8 0-.3.1-.6.3-1 .3-.3.7-.7 1.3-1 .5-.3 1.1-.6 1.7-.7.6-.2 1.2-.2 1.7-.2.6 0 1.1.1 1.5.3.4.2 1.1.5 1.9 1L75 78zM69.5 77.9c-.4-.2-.7-.4-.8-.4-.2 0-.3 0-.5.1C68 77.7 68 77.8 68 77.9c0 .1.2.3.7.5l4 2.3c.5.3.8.5 1 .5.2 0 .3 0 .5-.1.2-.1.2-.2.1-.3-.1-.1-.4-.3-.9-.6L69.5 77.9zM70.9 74.5l4.5-2.6 1.7 1L75.3 74l1.6.9 1.6-.9 1.6.9-1.6.9 3.6 2.1-2.6 1.5L70.9 74.5zM81.3 68.5l1.7 1-1.6.9 6.9 4-2.6 1.5-6.9-4-1.6.9-1.7-1L81.3 68.5zM81.9 68.2l4.4-2.5 1.7 1-1.8 1 1.6.9 1.6-1 1.6.9-1.6 1 1.9 1.1 1.9-1.1 1.7 1-4.6 2.6L81.9 68.2zM97.2 63.7l-2.6 1.5L93 64.4c-.4-.3-.7-.4-.9-.4-.2 0-.3 0-.5.1-.2.1-.3.2-.2.4.1.1.3.3.8.5l4 2.3c.4.2.7.4.9.4.2 0 .4 0 .6-.1.2-.1.3-.2.2-.3-.1-.1-.3-.3-.8-.6L96 66.1l2.6-1.5.3.2c.9.5 1.5.9 1.7 1.2.2.3.2.7 0 1.1-.2.5-.7.9-1.5 1.3-.8.4-1.5.7-2.3.9-.7.2-1.4.2-2 0-.6-.1-1.3-.5-2.1-1l-2.5-1.5c-.6-.4-1.1-.6-1.3-.9-.3-.2-.4-.5-.5-.8 0-.3.1-.6.4-1 .3-.4.7-.7 1.3-1 .8-.4 1.5-.7 2.3-.9.8-.1 1.4-.2 2 0 .5.1 1.2.4 2 .9L97.2 63.7zM100.4 57.5l8.6 5-2.6 1.5-3.6-2.1-.8.5 3.6 2.1L103 66l-8.6-5 2.6-1.5 3.1 1.8.8-.5L97.8 59 100.4 57.5z"/><g><path fill="#FFF" stroke="#000" stroke-width=".872" stroke-miterlimit="10" d="M132.3,76.4l-67.9,39.2 c-0.9,0.5-1.6,0.1-1.6-1v-10.9c0-1,0.6-2.2,1.4-2.4c0.2-0.1,0.4-0.2,0.5-0.3l67.2-38.8c0.2-0.1,0.4-0.2,0.5-0.4 c0.8-0.7,1.4-0.2,1.4,0.8v10.9C133.9,74.6,133.2,75.9,132.3,76.4z"/><g fill="#F5A722"><path d="M65.5 102.8l4.4-2.5v2l-1.8 1v1.9l1.6-1v1.9l-1.6 1v2.2l1.9-1.1v2l-4.6 2.6V102.8zM76.7 96.3v10l-2.3 1.3-1.4-3.7v4.5l-2.2 1.3v-10l2.2-1.3 1.5 3.6v-4.5L76.7 96.3zM83.8 95.9l-2.6 1.5v-.9c0-.6 0-.9-.1-1-.1-.1-.2-.1-.4 0-.2.1-.3.2-.3.4-.1.2-.1.5-.1 1v4.8c0 .4 0 .7.1.8.1.1.2.1.4 0 .2-.1.3-.3.4-.5.1-.2.1-.5.1-1v-1.2l-.5.3v-1.5l3.1-1.8v5.4l-1.7 1-.2-.6c-.2.4-.4.8-.7 1.1-.3.3-.6.6-1 .8-.4.3-.9.4-1.2.4-.4 0-.7-.1-.9-.3-.2-.2-.3-.5-.4-.8-.1-.3-.1-.8-.1-1.5v-3c0-1 .1-1.7.2-2.2.1-.5.4-1.1.9-1.7.5-.6 1.1-1.2 1.9-1.6.8-.4 1.4-.7 1.9-.6.5 0 .8.2 1 .5.2.3.2.9.2 1.7V95.9zM87.5 90.1v10l-2.6 1.5v-10L87.5 90.1zM94.5 86.1v10l-2.3 1.3-1.4-3.7v4.5l-2.2 1.3v-10l2.2-1.3 1.5 3.6v-4.5L94.5 86.1zM95.5 85.5l4.4-2.5v2l-1.8 1v1.9l1.6-1v1.9l-1.6 1v2.2l1.9-1.1v2l-4.6 2.6V85.5zM100.9 82.4l4.4-2.5v2l-1.8 1v1.9l1.6-1v1.9l-1.6 1v2.2l1.9-1.1v2l-4.6 2.6V82.4zM106.2 79.3l1.9-1.1c1.2-.7 2.1-1.2 2.5-1.3.4-.2.8-.1 1.1.1.3.2.4.8.4 1.6 0 .8-.1 1.4-.3 1.7-.2.4-.6.8-1.2 1.2.5-.2.9-.2 1.1-.1.2.1.3.2.3.4 0 .2.1.6.1 1.4v2.6l-2.5 1.4V84c0-.5 0-.8-.1-.9-.1-.1-.3 0-.7.2v4.5l-2.6 1.5V79.3zM108.8 79.5v2.2c.3-.2.5-.3.6-.5.1-.1.2-.4.2-.9v-.5c0-.3-.1-.5-.2-.5C109.3 79.3 109.1 79.3 108.8 79.5zM115.7 73.8v10l-2.6 1.5v-10L115.7 73.8zM122.7 69.8v10l-2.3 1.3-1.4-3.7v4.5l-2.2 1.3v-10l2.2-1.3 1.5 3.6v-4.5L122.7 69.8zM129.8 69.4l-2.6 1.5V70c0-.6 0-.9-.1-1-.1-.1-.2-.1-.4 0-.2.1-.3.2-.3.4-.1.2-.1.5-.1 1v4.8c0 .4 0 .7.1.8.1.1.2.1.4 0 .2-.1.3-.3.4-.5.1-.2.1-.5.1-1v-1.2l-.5.3v-1.5l3.1-1.8v5.4l-1.7 1-.2-.6c-.2.4-.4.8-.7 1.1-.3.3-.6.6-1 .8-.4.3-.9.4-1.2.4-.4 0-.7-.1-.9-.3-.2-.2-.3-.5-.4-.8-.1-.3-.1-.8-.1-1.5v-3c0-1 .1-1.7.2-2.2.1-.5.4-1.1.9-1.7.5-.6 1.1-1.2 1.9-1.6.8-.4 1.4-.7 1.9-.6.5 0 .8.2 1 .5.2.3.2.9.2 1.7V69.4z"/></g></g><g stroke="#000" stroke-miterlimit="10"><path stroke-width=".38" d="M205,68.6l-1.5,0.9c-0.4-0.2-0.8-0.3-1.3-0.4 c-0.6-0.2-1.2-0.3-1.8-0.4l0-1.1c0,0-0.1-0.1-0.1-0.1l-3.8,0c-0.1,0-0.1,0-0.1,0.1l0,1.1c-0.6,0.1-1.2,0.2-1.8,0.4 c-0.4,0.1-0.9,0.3-1.2,0.4l-1.5-0.9c0,0-0.1,0-0.2,0l-2.7,1.6c0,0,0,0.1,0,0.1l1.5,0.9c-0.6,0.6-1,1.2-1.3,1.8l-2.2,0 c-0.1,0-0.1,0-0.1,0.1l0.1,2.2c0,0,0.1,0.1,0.1,0.1l2.1,0c0.2,0.6,0.7,1.2,1.3,1.7l-1.6,0.9c0,0,0,0.1,0,0.1l2.7,1.5 c0,0,0.1,0,0.2,0l1.7-1c0.4,0.1,0.8,0.3,1.2,0.4c0.6,0.2,1.2,0.3,1.9,0.4l0,1.3c0,0,0,0.1,0.1,0.1l3.8,0c0.1,0,0.1,0,0.1-0.1l0-1.3 c0.6-0.1,1.1-0.2,1.7-0.3c0.4-0.1,0.9-0.3,1.2-0.4l1.6,0.9c0,0,0.1,0,0.2,0l2.7-1.6c0,0,0-0.1,0-0.1l-1.6-0.9 c0.6-0.5,1-1.1,1.2-1.7l2.2,0c0.1,0,0.1,0,0.1-0.1l0-2.2c0,0,0-0.1-0.1-0.1l-2.1,0c-0.2-0.6-0.6-1.2-1.2-1.7l1.5-0.9 c0,0,0-0.1,0-0.1l-2.7-1.5C205.1,68.6,205.1,68.6,205,68.6z"/><path fill="#E6E7E8" stroke-width=".264" d="M202.4,71.7c2.2,1.3,2.2,3.4,0,4.7 s-5.9,1.3-8.1,0c-2.2-1.3-2.2-3.4,0-4.7C196.6,70.4,200.2,70.4,202.4,71.7z"/><path stroke-width=".38" d="M200.5,72.9c1.1,0.6,1.1,1.7,0,2.3s-2.9,0.6-4,0 s-1.1-1.7,0-2.3C197.6,72.2,199.4,72.2,200.5,72.9z"/></g><g stroke="#000" stroke-miterlimit="10"><path stroke-width=".286" d="M46.6,118l-1.1,0.6c-0.1-0.3-0.1-0.5-0.2-0.8 c-0.1-0.3-0.3-0.6-0.4-0.8l0.7-1.3c0,0,0-0.1,0-0.1l-1.4-0.8c0,0-0.1,0-0.1,0l-0.7,1.3c-0.3,0-0.6,0-0.9,0c-0.2,0-0.5,0.1-0.7,0.2 v-1.3c0,0,0-0.1-0.1,0l-2,1.2c0,0-0.1,0.1-0.1,0.1v1.3c-0.6,0.5-1.1,1.1-1.6,1.7l-0.8-0.4c0,0-0.1,0-0.1,0.1l-1.4,2.5 c0,0,0,0.1,0,0.1l0.8,0.4c-0.3,0.7-0.5,1.5-0.6,2.2l-1.2,0.7c0,0-0.1,0.1-0.1,0.1v2.3c0,0,0,0.1,0.1,0l1.2-0.7 c0,0.2,0.1,0.5,0.2,0.7c0.1,0.3,0.3,0.6,0.5,0.8l-0.8,1.4c0,0,0,0.1,0,0.1l1.4,0.9c0,0,0.1,0,0.1,0L38,129c0.3,0,0.6,0,0.9,0 c0.2,0,0.5-0.1,0.7-0.2v1.4c0,0,0,0.1,0.1,0l2-1.2c0,0,0.1-0.1,0.1-0.1v-1.4c0.6-0.5,1.1-1,1.6-1.6l0.8,0.5c0,0,0.1,0,0.1,0 l1.4-2.5c0,0,0-0.1,0-0.1l-0.8-0.5c0.3-0.7,0.5-1.5,0.7-2.2l1.1-0.7c0,0,0.1-0.1,0.1-0.1L46.6,118C46.7,118,46.6,118,46.6,118z"/><path fill="#E6E7E8" stroke-width=".199" d="M43.6,120.9c0,1.9-1.4,4.3-3,5.3 c-1.7,1-3,0.2-3-1.7c0-1.9,1.4-4.3,3-5.3C42.3,118.2,43.6,118.9,43.6,120.9z"/><path stroke-width=".286" d="M42.1,121.8c0,1-0.7,2.1-1.5,2.6c-0.8,0.5-1.5,0.1-1.5-0.9 c0-1,0.7-2.1,1.5-2.6C41.4,120.4,42.1,120.8,42.1,121.8z"/></g></svg>