<svg xmlns="http://www.w3.org/2000/svg" viewBox="0 0 283.5 283.5" id="warming"><path fill="#D1D3D4" stroke="#939598" stroke-width="1.623" stroke-miterlimit="10" d="M77.1,142.3l-49.9,28.9	c-1.1,0.6-1.1,2.2,0,2.8l178.4,102.2c0.5,0.3,1.1,0.3,1.6,0l48.5-27.9c1.1-0.6,1.1-2.2,0-2.8L78.7,142.3	C78.2,142.1,77.6,142.1,77.1,142.3z"/><path fill="none" stroke="#545453" stroke-width="1.86" stroke-miterlimit="10" d="M35.6 125.7L35.6 172.3"/><g opacity=".2" fill="#58595B" stroke="#000" stroke-width="2.232" stroke-linecap="round" stroke-miterlimit="10"><path d="M27.2 169.9l49.5-28.7c.7-.4 1.1-1.1 1.1-1.9V8.7c0-1.7-1.9-2.8-3.3-1.9L25 35.1c-.7.4-1.1 1.1-1.1 1.9v131C23.9 169.7 25.8 170.8 27.2 169.9zM81.2 6.8L258.4 109c.7.4 1.1 1.1 1.1 1.9v131.6c0 1.7-1.9 2.8-3.4 1.9L78.9 141.3c-.7-.4-1.1-1.1-1.1-1.9V8.7C77.8 7 79.7 5.9 81.2 6.8z"/></g><path fill="none" stroke="#545453" stroke-width="1.86" stroke-miterlimit="10" d="M107.8 60.2L107.8 93.7M117.8 63.4L117.8 92.4M98.2 54.8L98.1 101.3"/><path fill="none" stroke="#545453" stroke-width="1.86" stroke-linecap="round" stroke-miterlimit="10" d="M90.7 47.6L90.7 147.5"/><path fill="none" stroke="#545453" stroke-width="1.86" stroke-miterlimit="10" d="M169.1 93.7L172.9 113.4 172.9 149M192.6 109.5L192.6 155.8"/><path fill="none" stroke="#58595B" stroke-width="2.976" stroke-linecap="round" stroke-miterlimit="10" d="M28.9,77.5l38.5-22.2	c1.5-0.8,2.4-2.4,2.4-4.1l0-8.2"/><path fill="none" stroke="#545453" stroke-width="1.86" stroke-miterlimit="10" d="M36.3 73.2L41.6 89.2 41.6 116.4M45.8 68.7L45.8 116.1M58.9 60.2L53.5 79 53.5 109M64.8 57.1L64.8 104.8M200.8 112.9L200.8 164.1M210.8 120.3L214.6 137.7 214.6 167.9M228.9 129.1l-6.1 6.7c-2 2.2-3.1 5-3.1 8l0 28.2M234.6 132.1L234.6 181.3M243.6 184.2L243.6 134.4"/><path fill="#F7923F" stroke="#545453" stroke-width="1.509" stroke-miterlimit="10" d="M193.6,201.1	C193.6,201.1,193.6,201,193.6,201.1v-0.8c0,0,0-0.1-0.1-0.1c-0.4-2.8-2.4-5.5-6-7.6c-8.1-4.7-21.2-4.7-29.3-0.1	c-4.6,2.6-6.5,6.2-5.9,9.6v26.1c-0.6,3.5,1.4,7.1,6,9.7c8.1,4.7,21.2,4.7,29.3,0.1c4.1-2.4,6.1-5.5,6-8.6c0,0,0,0,0,0V201.1z"/><path fill="#FDBD56" stroke="#545453" stroke-width="1.509" stroke-miterlimit="10" d="M193.1,198.1c-0.7-4.1-11.7-11.6-11.7-11.6	h-0.3c-0.4-0.6-1-1.1-1.9-1.6c-3.3-1.9-8.7-1.9-12,0c-0.8,0.5-1.5,1-1.9,1.6h-0.2c0,0-12.7,8-12.6,12.1c-1.1,3.7,0.9,7.6,5.8,10.5	c8.1,4.7,21.2,4.7,29.3,0.1C192.8,206.1,194.6,201.9,193.1,198.1z"/><path fill="#FFDA99" stroke="#545453" stroke-width="1.509" stroke-miterlimit="10" d="M178.6,191.9c-3.3,1.9-8.7,1.9-12,0	s-3.4-5,0-7s8.7-1.9,12,0C181.9,186.9,181.9,190,178.6,191.9z"/><path fill="none" stroke="#545453" stroke-width="1.86" stroke-linecap="round" stroke-miterlimit="10" d="M164,145.2v8.6	c0,4.5,2.4,8.7,6.4,10.9l52.1,29.6c3.9,2.2,6.4,6.4,6.4,10.9v27.3"/><path fill="none" stroke="#7B7B7B" stroke-width="1.86" stroke-linecap="round" stroke-miterlimit="10" d="M172.5,188.5l-0.1-17.9	c0-3.8,2-7.4,5.3-9.3l9.4-5.4"/><path fill="none" stroke="#545453" stroke-width="1.978" stroke-linecap="round" stroke-miterlimit="10" d="M41.6 119.2L41.6 166.7"/><path fill="none" stroke="#545453" stroke-width="1.86" stroke-linecap="round" stroke-miterlimit="10" d="M47.6 117.5L47.7 162.3M58.9 110.5L53.5 129.1 53.5 159.3M61.7 111.7L61.7 156M64.8 106.1L69.9 119 69.9 151.6"/><path fill="none" stroke="#717173" stroke-width="7.067" stroke-linecap="round" stroke-miterlimit="10" d="M30.8 124.8l46-26.6c3.7-2.1 8.2-2.1 11.8 0L249 191.6M69.9 16.8L69.9 31c0 3 1.6 5.8 4.2 7.3l178.8 102.8"/><path fill="none" stroke="#F36E25" stroke-width="10.224" stroke-linecap="round" stroke-miterlimit="10" d="M182.6 217.2L182.6 234.4"/><path fill="#545453" stroke="#FDCE81" stroke-width="3.929" stroke-linecap="round" stroke-miterlimit="10" d="M158.8 212.6L158.8 235"/><g stroke-miterlimit="10"><path fill="#FDBD56" stroke="#545453" stroke-width="1.447" d="M148.2,96L148.2,96c0-4.4-3-8.7-8.7-12 c-11.6-6.7-30.3-6.7-41.8-0.1C91.9,87.2,89,91.6,89,96l0,0v94.2c0,0,0,0.1,0,0.1v0l0,0c0,4.4,3,8.7,8.7,12 c11.6,6.7,30.3,6.7,41.8,0.1c5.8-3.3,8.6-7.7,8.6-12.1h0V96z"/><path fill="#545453" stroke="#FFDA99" stroke-width="14.266" stroke-linecap="round" d="M101 121.2L101 195.2"/><path fill="none" stroke="#58595B" stroke-width="2.647" stroke-linecap="round" d="M94.5 139.5c0 1.2-.5 1.9-1.1 1.5-.6-.3-1.1-1.6-1.1-2.8s.5-1.9 1.1-1.5S94.5 138.3 94.5 139.5zM94.5 158.5c0 1.2-.5 1.9-1.1 1.5s-1.1-1.6-1.1-2.8.5-1.9 1.1-1.5C94 156.1 94.5 157.3 94.5 158.5z"/><path fill="none" stroke="#F7923F" stroke-width="14.266" stroke-linecap="round" d="M134.7 120.9L134.7 196.9"/><path fill="#F7923F" stroke="#545453" stroke-width="1.447" d="M138.8,112.4c-11.5,6.6-30.2,6.6-41.8-0.1 c-11.6-6.7-11.6-17.5-0.1-24.1s30.2-6.6,41.8,0.1C150.2,94.9,150.3,105.7,138.8,112.4z"/><path fill="#FFDA99" stroke="#545453" stroke-width="1.447" d="M138.8,108.8c-11.5,6.6-30.2,6.6-41.8-0.1 s-11.6-17.5-0.1-24.1c11.5-6.6,30.2-6.6,41.8,0.1C150.2,91.3,150.3,102.1,138.8,108.8z"/><g stroke="#000"><path stroke-width=".686" d="M130.5,85.9l-2.7,1.5c-0.7-0.3-1.5-0.5-2.4-0.8 c-1-0.3-2.1-0.5-3.2-0.6l0-2.1c0-0.1-0.1-0.1-0.2-0.1l-6.8,0c-0.1,0-0.2,0.1-0.2,0.1l0,2.1c-1.1,0.1-2.2,0.4-3.2,0.6 c-0.8,0.2-1.5,0.5-2.3,0.7l-2.7-1.6c-0.1,0-0.2,0-0.3,0l-4.8,2.8c-0.1,0-0.1,0.1,0,0.2l2.7,1.6c-1.1,1-1.9,2.1-2.3,3.2l-3.9,0.1 c-0.1,0-0.2,0.1-0.2,0.1l0.1,4c0,0.1,0.1,0.1,0.2,0.1l3.8-0.1c0.4,1.1,1.2,2.1,2.3,3.1l-3,1.7c-0.1,0-0.1,0.1,0,0.2l4.8,2.8 c0.1,0,0.2,0,0.3,0l3-1.7c0.7,0.2,1.4,0.5,2.1,0.7c1.1,0.3,2.2,0.5,3.4,0.7l-0.1,2.3c0,0.1,0.1,0.1,0.2,0.1l6.9,0.1 c0.1,0,0.2-0.1,0.2-0.1l0.1-2.4c1-0.1,2-0.4,3-0.6c0.8-0.2,1.5-0.5,2.3-0.7l2.9,1.7c0.1,0,0.2,0,0.3,0l4.8-2.8 c0.1,0,0.1-0.1,0-0.2l-2.9-1.7c1.1-0.9,1.8-2,2.2-3l3.9,0c0.1,0,0.2-0.1,0.2-0.1l0.1-4c0-0.1-0.1-0.1-0.2-0.1l-3.9,0 c-0.4-1.1-1.1-2.2-2.2-3.1l2.7-1.6c0.1,0,0.1-0.1,0-0.2l-4.8-2.8C130.7,85.9,130.6,85.9,130.5,85.9z"/><path fill="#E6E7E8" stroke-width=".477" d="M125.8,91.5c4,2.3,4,6.1,0,8.4 s-10.6,2.3-14.6,0s-4-6.1,0-8.4C115.3,89.1,121.8,89.1,125.8,91.5z"/><path stroke-width=".686" d="M122.3,93.6c2,1.2,2,3,0,4.2s-5.3,1.2-7.3,0 c-2-1.2-2-3,0-4.2S120.3,92.4,122.3,93.6z"/></g></g><path d="M92.8 21.1l3.2 1.8c.9.5 1.5 1 2 1.4.5.4.8.8 1 1.2.2.4.4.8.5 1.2.1.4.1 1 .1 1.7v1c0 .8-.1 1.3-.2 1.5-.2.3-.5.4-.9.3-.4-.1-1-.3-1.7-.7l-.9-.5v4.8l-3.2-1.8V21.1zM95.9 25V28c.1.1.2.1.2.1.3.2.5.2.6.1.1-.1.2-.3.2-.8v-1c0-.4-.1-.7-.2-.9C96.6 25.4 96.3 25.2 95.9 25zM100.5 25.6l2.2 1.3c1.5.9 2.5 1.5 3 1.9.5.4 1 1 1.3 1.6.3.7.5 1.5.5 2.5 0 .9-.1 1.5-.4 1.7-.2.2-.7.1-1.4-.2.6.5 1.1 1 1.3 1.3.2.4.4.7.4.9.1.2.1.9.1 1.8v3.2l-2.9-1.7v-4c0-.6-.1-1.1-.2-1.3-.1-.2-.4-.4-.8-.7v5.4l-3.2-1.8V25.6zM103.7 29.5v2.7c.4.2.6.3.8.3.1 0 .2-.3.2-.8v-.7c0-.4-.1-.7-.2-.9C104.3 29.9 104.1 29.7 103.7 29.5zM116.1 41.6c0 1.2 0 2-.1 2.5-.1.5-.2.8-.5 1.1-.3.2-.7.3-1.2.2-.5-.1-1.1-.3-1.8-.7-.7-.4-1.2-.8-1.8-1.3-.5-.5-.9-1.1-1.3-1.7-.3-.6-.5-1.2-.6-1.7-.1-.5-.1-1.4-.1-2.6v-2.1c0-1.2 0-2 .1-2.5.1-.5.2-.8.5-1.1.3-.2.7-.3 1.2-.2.5.1 1.1.3 1.8.7.7.4 1.2.8 1.8 1.3.5.5.9 1.1 1.3 1.7.3.6.5 1.2.6 1.7.1.5.1 1.4.1 2.6V41.6zM112.9 35.8c0-.6 0-.9-.1-1.1-.1-.2-.2-.3-.4-.5-.2-.1-.3-.1-.4 0-.1.1-.1.4-.1 1v5.6c0 .7 0 1.1.1 1.3.1.2.2.4.4.5.2.1.4.1.4 0 .1-.2.1-.6.1-1.3V35.8zM117.3 35.3l5.4 3.1v2.4l-2.2-1.3v2.3l2 1.1v2.3l-2-1.1v5l-3.2-1.8V35.3zM129.8 42.5v2.4l-1.9-1.1v9.6l-3.2-1.8V42l-1.9-1.1v-2.4L129.8 42.5zM130.5 42.9l5.3 3.1v2.4l-2.1-1.2v2.3l2 1.1v2.3l-2-1.1v2.6l2.3 1.3v2.4l-5.5-3.2V42.9zM144.4 56.1l-3.2-1.8v-2.1c0-.6 0-1-.1-1.2-.1-.2-.2-.4-.4-.5-.3-.2-.4-.2-.5 0-.1.1-.1.5-.1 1.1v5.6c0 .6 0 1 .1 1.2.1.2.2.4.5.5.2.1.4.1.5 0 .1-.1.1-.5.1-1.2v-1.5l3.2 1.8v.5c0 1.2-.1 2.1-.3 2.5-.2.4-.6.6-1.2.7-.6 0-1.4-.2-2.3-.7-.9-.5-1.7-1.1-2.3-1.8-.6-.7-1-1.4-1.2-2.1-.2-.7-.3-1.6-.3-2.8v-3.5c0-.9 0-1.5.1-1.9.1-.4.2-.7.5-.9.3-.2.7-.3 1.2-.2.5.1 1.1.3 1.8.7.9.5 1.7 1.2 2.3 1.9.6.7 1 1.4 1.2 2 .2.6.3 1.5.3 2.6V56.1zM152.8 55.8v12l-3.2-1.8v-5l-1-.5v5l-3.2-1.8v-12l3.2 1.8v4.3l1 .5v-4.3L152.8 55.8z"/><g><path fill="#FFF" stroke="#000" stroke-width="1.049" stroke-miterlimit="10" d="M240,120.7l-81.7-47.2 c-1.1-0.6-1.9-2.1-1.9-3.4V57c0-1.2,0.8-1.7,1.7-0.9c0.2,0.2,0.4,0.3,0.6,0.4l80.9,46.7c0.2,0.1,0.4,0.2,0.6,0.3 c1,0.3,1.7,1.7,1.7,2.9v13.1C241.9,120.8,241,121.3,240,120.7z"/><g fill="#F5A722"><path d="M159.6 59.7l5.3 3.1v2.4l-2.1-1.2v2.3l2 1.1v2.3l-2-1.1v2.6l2.3 1.3v2.4l-5.5-3.2V59.7zM173.1 67.5v12l-2.8-1.6-1.7-6.4V77l-2.7-1.5v-12l2.7 1.5 1.8 6.4V66L173.1 67.5zM181.7 76.9l-3.2-1.8v-1.1c0-.7 0-1.1-.1-1.3-.1-.2-.2-.4-.4-.5-.2-.1-.3-.1-.4 0-.1.1-.1.5-.1 1.1v5.8c0 .5 0 .9.1 1.1.1.2.2.4.4.5.2.1.4.1.5 0 .1-.1.1-.5.1-1.1v-1.4l-.6-.4v-1.8l3.7 2.1v6.4l-2-1.2-.3-1c-.2.2-.5.4-.8.4-.3 0-.7-.1-1.2-.4-.5-.3-1-.7-1.5-1.2-.5-.5-.8-1-1.1-1.6-.2-.5-.4-1-.5-1.4-.1-.4-.1-1.1-.1-1.9v-3.6c0-1.1.1-1.9.2-2.4.1-.4.5-.7 1.1-.8.6-.1 1.4.1 2.3.7.9.5 1.7 1.2 2.3 1.9.6.7 1 1.4 1.2 2 .2.6.3 1.4.3 2.4V76.9zM186.1 75v12l-3.2-1.8v-12L186.1 75zM194.5 79.8v12l-2.8-1.6-1.7-6.4v5.5l-2.7-1.5v-12l2.7 1.5 1.8 6.4v-5.4L194.5 79.8zM195.7 80.6l5.3 3.1V86l-2.1-1.2v2.3l2 1.1v2.3l-2-1.1V92l2.3 1.3v2.4l-5.5-3.2V80.6zM202.2 84.3l5.3 3.1v2.4l-2.1-1.2v2.3l2 1.1v2.3l-2-1.1v2.6l2.3 1.3v2.4l-5.5-3.2V84.3zM208.6 88l2.2 1.3c1.5.9 2.5 1.5 3 1.9.5.4 1 1 1.3 1.6.3.7.5 1.5.5 2.5 0 .9-.1 1.5-.4 1.7-.2.2-.7.1-1.4-.2.6.5 1.1 1 1.3 1.3.2.4.4.7.4.9.1.2.1.9.1 1.8v3.2l-2.9-1.7v-4c0-.6-.1-1.1-.2-1.3-.1-.2-.4-.4-.8-.7v5.4l-3.2-1.8V88zM211.8 91.9v2.7c.4.2.6.3.8.3.1 0 .2-.3.2-.8v-.7c0-.4-.1-.7-.2-.9C212.4 92.3 212.1 92.1 211.8 91.9zM220.1 94.6v12l-3.2-1.8v-12L220.1 94.6zM228.4 99.4v12l-2.8-1.6-1.7-6.4v5.5l-2.7-1.5v-12l2.7 1.5 1.8 6.4v-5.4L228.4 99.4zM237 108.8l-3.2-1.8v-1.1c0-.7 0-1.1-.1-1.3-.1-.2-.2-.4-.4-.5-.2-.1-.3-.1-.4 0-.1.1-.1.5-.1 1.1v5.8c0 .5 0 .9.1 1.1.1.2.2.4.4.5.2.1.4.1.5 0 .1-.1.1-.5.1-1.1V110l-.6-.4v-1.8l3.7 2.1v6.4l-2-1.2-.3-1c-.2.2-.5.4-.8.4-.3 0-.7-.1-1.2-.4-.5-.3-1-.7-1.5-1.2-.5-.5-.8-1-1.1-1.6-.2-.5-.4-1-.5-1.4-.1-.4-.1-1.1-.1-1.9v-3.6c0-1.1.1-1.9.2-2.4.1-.4.5-.7 1.1-.8.6-.1 1.4.1 2.3.7.9.5 1.7 1.2 2.3 1.9.6.7 1 1.4 1.2 2 .2.6.3 1.4.3 2.4V108.8z"/></g></g></svg>