<svg xmlns="http://www.w3.org/2000/svg" viewBox="0 0 283.5 283.5" id="waterResist"><path fill="#E2E2E1" d="M26.4,215l62.3,35.9c0.1,0.1,0.3,0.1,0.4,0.1l104.9,0.2c0.1,0,0.3,0,0.4-0.1c3.6-2.1,54.4-31.4,63-36.5	c0.6-0.3,0.5-1.1,0-1.5l-77-44.7c-0.1-0.1-0.3-0.1-0.5-0.1l-85.2,5.9c-0.1,0-0.3,0-0.4,0.1l-67.9,39.1	C25.8,213.8,25.8,214.6,26.4,215z"/><path fill="#B7B7B8" stroke="#545553" stroke-width="1.109" stroke-miterlimit="10" d="M27.1,195.4l62.3,35.9	c0.3,0.2,0.6,0.3,1,0.3l104.3,0.2c0.4,0,0.7-0.1,1-0.3c5.8-3.4,64.3-37.1,63.9-37.1l0.1-25.1c0-1.8-1.2-3.3-2.9-3.8l-72.9-18	c-0.2-0.1-0.5-0.1-0.7,0L27.8,167.1c-1,0.1-1.8,1-1.8,2v24.5C26.1,194.4,26.5,195,27.1,195.4z"/><path fill="#FFEACC" stroke="#696A6A" stroke-width="1.109" stroke-miterlimit="10" d="M143.3,100.4l116.3,66	c0.3,0.2,0.3,0.7,0,0.9l-63.8,37.2l-105.5,0.1c-0.1,0-0.2,0-0.3-0.1l-62.6-36.2c-0.7-0.4-0.7-1.4,0-1.8	C27.5,166.5,143.2,100.3,143.3,100.4z"/><path fill="#E0CEB9" stroke="#696A6A" stroke-width="1.109" stroke-miterlimit="10" d="M26.6 166.7L26.6 96.4 142.8 29.1 144.2 99.8z"/><path fill="#FFEACC" stroke="#696A6A" stroke-width="1.109" stroke-miterlimit="10" d="M26.6,96.4L16,90.2c0,0,0-0.1,0-0.1	l126.8-73l126.5,72.7c0,0,0,0.1,0,0.1L258.6,96L142.8,29.1L26.6,96.4z"/><path fill="#B7B7B8" stroke="#545553" stroke-width="1.109" stroke-miterlimit="10" d="M258.6,194.8l10.9-6.4V89.9c0,0,0-0.1-0.1,0	L258.6,96V194.8z"/><path fill="#E0CEB9" stroke="#696A6A" stroke-width="1.109" stroke-miterlimit="10" d="M142.9,29.4l-0.4,70.2c0,0.1,0,0.2,0.1,0.2	l116.1,66.7c0.1,0.1,0.3,0,0.3-0.2l-0.5-70.2c0-0.1,0-0.2-0.1-0.2L143.2,29.2C143.1,29.2,142.9,29.3,142.9,29.4z"/><path fill="#B7B7B8" stroke="#545553" stroke-width="1.109" stroke-miterlimit="10" d="M16,89.9l10.8,6.3v98.7L16,188.7L16,89.9	C16,89.9,16,89.8,16,89.9z"/><g stroke="#545453" stroke-width="1.497" stroke-miterlimit="10"><path fill="#FDBD56" d="M39,97.8v48.5c0,0.1,0.1,0.1,0.1,0.1 l53.2-30.2c0,0,0,0,0-0.1V67.5c0-0.1-0.1-0.1-0.1-0.1L39,97.8C39,97.8,39,97.8,39,97.8z"/><path fill="#FFF" d="M39,134.7V97.8c0,0,0-0.1,0-0.1l42.1-23.9 c0.1,0,0.1,0,0.1,0.1v36.5c0,0,0,0.1,0,0.1l-42.1,24.3C39.1,134.9,39,134.8,39,134.7z"/><path fill="#FFF" stroke-linecap="round" d="M81.3 110.5L91.3 116"/></g><path fill="#939598" stroke="#545553" stroke-width="1.109" stroke-miterlimit="10" d="M234.7,152.1V82.3c0-0.2-0.2-0.4-0.4-0.2	l-4.5,2.6c-0.1,0.1-0.1,0.1-0.1,0.2l0,69.6c0,0.2,0.2,0.4,0.4,0.2l4.5-2.5C234.7,152.3,234.7,152.2,234.7,152.1z"/><path fill="#A7A9AC" stroke="#545553" stroke-width="1.109" stroke-miterlimit="10" d="M229.2,155.2l-91.7-53.2	c-0.1-0.1-0.1-0.2-0.1-0.3V32c0-0.2,0.3-0.4,0.5-0.3l91.7,53.3c0.1,0.1,0.1,0.2,0.1,0.3l0,69.6C229.7,155.1,229.4,155.3,229.2,155.2	z"/><path fill="#939598" stroke="#545553" stroke-width="1.109" stroke-miterlimit="10" d="M229.7,144.2l-92.5-47.3	c-0.1-0.1-92.1,52.6-92.1,52.6l0,6.4l49.8,28.8c0.1,0,0.1,0.1,0.2,0.1l83.9-0.1l50.7-29.6L229.7,144.2z"/><path fill="#D1D3D4" stroke="#545553" stroke-width="1.109" stroke-miterlimit="10" d="M137.3 96.9l86.8 56.4c.1 0 .1.1 0 .2l-45 26.2-83.9.1c-.1 0-.1 0-.2-.1l-49.8-28.8c-.5-.3-.5-1.1 0-1.4C45.2 149.5 137.2 96.8 137.3 96.9zM229.5 85.1L234.7 82.1 143 29.1 137.4 32 229.7 85.3"/><path fill="#D1D3D4" stroke="#545553" stroke-width="1.109" stroke-miterlimit="10" d="M137.5,90.5l-5,9.5l91.1,53	c0.3,0.2,0.6,0.1,0.8-0.2l5.2-8.7c0.1-0.1,0-0.2-0.1-0.3L137.5,90.5z"/><path d="M91.2 213.2h2.2c.6 0 1 0 1.4.1s.6.2.7.3c.2.1.3.3.3.5.1.2.1.5.1 1v.6c0 .5-.1.8-.2 1-.1.2-.3.4-.6.5-.3.1-.7.2-1.1.2h-.6v2.9h-2.2V213.2zM93.4 214.4v1.8c.1 0 .1 0 .2 0 .2 0 .3 0 .4-.1.1-.1.1-.3.1-.5V215c0-.2 0-.4-.1-.5C93.8 214.4 93.7 214.4 93.4 214.4zM96.5 213.2H98c1 0 1.7 0 2.1.1.4.1.7.2.9.5.2.3.3.7.3 1.3 0 .6-.1.9-.2 1.1-.2.2-.5.3-.9.3.4.1.7.2.9.4.1.2.2.3.3.4s.1.5.1 1.1v1.9h-2v-2.4c0-.4 0-.6-.1-.7-.1-.1-.3-.1-.6-.1v3.2h-2.2V213.2zM98.7 214.4v1.6c.2 0 .4 0 .5-.1.1-.1.1-.2.1-.6V215c0-.2 0-.4-.1-.4C99.1 214.4 98.9 214.4 98.7 214.4zM107.1 217.4c0 .7 0 1.2-.1 1.5 0 .3-.2.6-.4.8-.2.2-.5.4-.8.6-.4.1-.8.2-1.2.2-.4 0-.8-.1-1.2-.2-.4-.1-.6-.3-.9-.6-.2-.2-.3-.5-.4-.8 0-.3-.1-.8-.1-1.5v-1.2c0-.7 0-1.2.1-1.5 0-.3.2-.6.4-.8.2-.2.5-.4.8-.6.4-.1.8-.2 1.2-.2.4 0 .8.1 1.2.2.4.1.6.3.9.6.2.2.3.5.4.8 0 .3.1.8.1 1.5V217.4zM104.9 215c0-.3 0-.5-.1-.6 0-.1-.1-.1-.3-.1-.1 0-.2 0-.3.1-.1.1-.1.3-.1.7v3.3c0 .4 0 .7.1.8 0 .1.1.1.3.1.1 0 .2-.1.3-.2 0-.1.1-.4.1-.8V215zM107.9 213.2h3.7v1.4H110v1.3h1.3v1.4H110v3h-2.2V213.2zM116.4 213.2v1.4h-1.3v5.7H113v-5.7h-1.3v-1.4H116.4zM116.9 213.2h3.6v1.4h-1.4v1.3h1.3v1.4h-1.3v1.6h1.6v1.4h-3.7V213.2zM126.3 216.3h-2.2V215c0-.4 0-.6-.1-.7 0-.1-.1-.1-.3-.1-.2 0-.3.1-.3.2 0 .1-.1.3-.1.7v3.3c0 .3 0 .6.1.7 0 .1.2.2.3.2.2 0 .3-.1.3-.2 0-.1.1-.4.1-.7v-.9h2.2v.3c0 .7-.1 1.3-.2 1.6-.1.3-.4.6-.8.8-.4.2-.9.3-1.5.3-.6 0-1.2-.1-1.6-.3-.4-.2-.7-.5-.8-.8-.1-.3-.2-.9-.2-1.6v-2.1c0-.5 0-.9.1-1.2 0-.3.2-.5.4-.7.2-.2.5-.4.8-.6.4-.1.8-.2 1.2-.2.6 0 1.2.1 1.6.3.4.2.7.5.8.8.1.3.2.8.2 1.5V216.3zM132.1 213.2v7.1h-2.2v-3h-.6v3h-2.2v-7.1h2.2v2.5h.6v-2.5H132.1z"/><path fill="#FFF" stroke="#000" stroke-width=".695" stroke-miterlimit="10" d="M191.5,221.8h-55.6c-0.7,0-1.3-0.6-1.3-1.4 v-7.7c0-0.7,0.5-1.3,1.2-1.1c0.1,0,0.3,0,0.4,0h55c0.1,0,0.3,0,0.4,0c0.7-0.1,1.2,0.4,1.2,1.1v7.7 C192.8,221.2,192.2,221.8,191.5,221.8z"/><g fill="#F5A722"><path d="M136.9 213.1h3.6v1.4H139v1.3h1.3v1.4H139v1.6h1.6v1.4h-3.7V213.1zM146 213.1v7.1h-1.9L143 217v3.2h-1.8v-7.1h1.8l1.2 3.2v-3.2H146zM151.9 215.7h-2.2v-.6c0-.4 0-.7-.1-.8 0-.1-.1-.2-.3-.2-.1 0-.2 0-.3.1 0 .1-.1.3-.1.7v3.4c0 .3 0 .5.1.6 0 .1.1.2.3.2.2 0 .3-.1.3-.2.1-.1.1-.3.1-.7v-.8h-.4v-1.1h2.5v3.8h-1.4l-.2-.5c-.1.2-.3.4-.6.5-.2.1-.5.2-.8.2-.4 0-.7-.1-1-.2-.3-.2-.6-.3-.7-.6-.2-.2-.3-.5-.3-.7 0-.2-.1-.6-.1-1.1v-2.1c0-.7 0-1.2.1-1.5.1-.3.3-.6.7-.8.4-.3.9-.4 1.6-.4.6 0 1.2.1 1.6.3.4.2.7.5.8.8.1.3.2.8.2 1.3V215.7zM154.9 213.1v7.1h-2.2v-7.1H154.9zM160.6 213.1v7.1h-1.9l-1.1-3.2v3.2h-1.8v-7.1h1.8l1.2 3.2v-3.2H160.6zM161.4 213.1h3.6v1.4h-1.4v1.3h1.3v1.4h-1.3v1.6h1.6v1.4h-3.7V213.1zM165.8 213.1h3.6v1.4h-1.4v1.3h1.3v1.4h-1.3v1.6h1.6v1.4h-3.7V213.1zM170.2 213.1h1.5c1 0 1.7 0 2.1.1.4.1.7.2.9.5.2.3.3.7.3 1.3 0 .6-.1.9-.2 1.1-.2.2-.5.3-.9.3.4.1.7.2.9.4.1.2.2.3.3.4s.1.5.1 1.1v1.9h-2v-2.4c0-.4 0-.6-.1-.7-.1-.1-.3-.1-.6-.1v3.2h-2.2V213.1zM172.3 214.3v1.6c.2 0 .4 0 .5-.1.1-.1.1-.2.1-.6v-.4c0-.2 0-.4-.1-.4C172.7 214.4 172.6 214.3 172.3 214.3zM178 213.1v7.1h-2.2v-7.1H178zM183.7 213.1v7.1h-1.9l-1.1-3.2v3.2h-1.8v-7.1h1.8l1.2 3.2v-3.2H183.7zM189.5 215.7h-2.2v-.6c0-.4 0-.7-.1-.8 0-.1-.1-.2-.3-.2-.1 0-.2 0-.3.1 0 .1-.1.3-.1.7v3.4c0 .3 0 .5.1.6 0 .1.1.2.3.2.2 0 .3-.1.3-.2.1-.1.1-.3.1-.7v-.8h-.4v-1.1h2.5v3.8h-1.4l-.2-.5c-.1.2-.3.4-.6.5-.2.1-.5.2-.8.2-.4 0-.7-.1-1-.2-.3-.2-.6-.3-.7-.6-.2-.2-.3-.5-.3-.7 0-.2-.1-.6-.1-1.1v-2.1c0-.7 0-1.2.1-1.5.1-.3.3-.6.7-.8.4-.3.9-.4 1.6-.4.6 0 1.2.1 1.6.3.4.2.7.5.8.8.1.3.2.8.2 1.3V215.7z"/></g><g stroke="#000" stroke-miterlimit="10"><path stroke-width=".34" d="M83.4,213.4l-1.3-0.8c-0.1-0.4-0.1-0.8-0.3-1.2 c-0.1-0.5-0.3-1-0.5-1.5l0.9-0.5c0,0,0-0.1,0-0.1l-1.7-2.9c0,0-0.1-0.1-0.1-0.1l-0.9,0.5c-0.3-0.4-0.7-0.8-1.1-1.2 c-0.3-0.3-0.6-0.5-0.9-0.8v-1.5c0,0,0-0.1-0.1-0.1l-2.4-1.4c0,0-0.1,0-0.1,0v1.5c-0.7-0.2-1.4-0.3-2-0.2l-1-1.7 c0,0-0.1-0.1-0.1-0.1l-1.7,1c0,0,0,0.1,0,0.1l1,1.6c-0.4,0.5-0.6,1-0.8,1.7l-1.5-0.8c0,0-0.1,0-0.1,0v2.8c0,0,0,0.1,0.1,0.1 l1.5,0.9c0.1,0.3,0.1,0.7,0.2,1.1c0.1,0.5,0.3,1.1,0.5,1.6l-1,0.5c0,0,0,0.1,0,0.1l1.7,3c0,0,0.1,0.1,0.1,0.1l1.1-0.6 c0.3,0.4,0.7,0.8,1,1.1c0.3,0.3,0.6,0.5,0.9,0.8v1.6c0,0,0,0.1,0.1,0.1l2.4,1.4c0,0,0.1,0,0.1,0V218c0.7,0.2,1.3,0.3,1.9,0.2 l1,1.7c0,0,0.1,0.1,0.1,0.1l1.7-1c0,0,0-0.1,0-0.1l-1-1.7c0.4-0.4,0.6-1,0.8-1.7l1.4,0.8c0,0,0.1,0,0.1,0v-2.8 C83.5,213.5,83.5,213.4,83.4,213.4z"/><path fill="#E6E7E8" stroke-width=".236" d="M79.9,212.7c0,2.3-1.6,3.2-3.6,2.1 s-3.6-4-3.6-6.3c0-2.3,1.6-3.2,3.6-2.1C78.3,207.7,79.9,210.4,79.9,212.7z"/><path stroke-width=".34" d="M78.1,211.7c0,1.1-0.8,1.6-1.8,1c-1-0.6-1.8-2-1.8-3.1 s0.8-1.6,1.8-1C77.3,209.2,78.1,210.6,78.1,211.7z"/></g></svg>