<svg xmlns="http://www.w3.org/2000/svg" viewBox="0 0 283.5 283.5" id="waterProviding"><path fill="#E6E7E8" stroke="#6D6E71" stroke-width="1.43" stroke-miterlimit="10" d="M24.2 228.8L106.9 276.1 262.8 185.6 178.7 137.8z"/><path fill="none" stroke="#A7A9AC" stroke-width="2.574" stroke-linecap="round" stroke-miterlimit="10" d="M55,190.5l-14.3-8.1 c-1-0.6-1-2,0-2.6l86.3-49.8c1.8-1,4-1,5.8,0l12.6,7.1"/><path fill="none" stroke="#A7A9AC" stroke-width="2.574" stroke-linecap="round" stroke-miterlimit="10" d="M55,185l-14.3-8.1 c-1-0.6-1-2,0-2.6l86.4-49.6c1.8-1,4-1,5.8,0l12.5,7.2"/><path fill="none" stroke="#A7A9AC" stroke-width="2.574" stroke-linecap="round" stroke-miterlimit="10" d="M55,178l-14.5-9.4 c-0.9-0.6-0.9-2,0.1-2.6l86.5-49.1c1.9-1.1,4.1-1,6,0.1l12.3,7.6"/><path fill="none" stroke="#6D6E71" stroke-width="5.148" stroke-linecap="round" stroke-miterlimit="10" d="M191.5,138.5l0,46 c0,0.9-0.6,1.6-1.5,1.7l-82.2,11.6c-0.1,0-0.2,0-0.3,0.1c-1.3,0.4-2.7-0.6-2.7-2v-120"/><path fill="none" stroke="#545453" stroke-width="6.864" stroke-linecap="round" stroke-miterlimit="10" d="M221.2 125.8L221.2 169.1M155.4 133.3L155.4 181"/><path opacity=".1" fill="#58595B" stroke="#000" stroke-width="1.716" stroke-linecap="round" stroke-miterlimit="10" d="M23,224.2V96c0-0.7,0.4-1.4,1-1.8L175.7,7c1.4-0.8,3.1,0.2,3.1,1.8v127.1c0,0.7-0.4,1.4-1,1.8L26.1,226 C24.7,226.8,23,225.8,23,224.2z"/><path opacity=".1" fill="#58595B" stroke="#000" stroke-width="1.716" stroke-linecap="round" stroke-miterlimit="10" d="M180.9,6.5L262,51.9c0.5,0.3,0.8,0.8,0.8,1.3V183c0,1.1-1.2,1.8-2.2,1.3l-81.1-46.8c-0.5-0.3-0.7-0.8-0.7-1.3V7.8 C178.7,6.6,180,5.9,180.9,6.5z"/><path fill="#FDBD56" stroke="#545453" stroke-width="1.716" stroke-miterlimit="10" d="M228.7,87.6c2.1-6.8-1.5-14-10.6-19.3 c-14.8-8.5-38.6-8.6-53.3-0.1C156.6,73,153,79.3,154,85.5c-0.1,0.2-0.1,0.5-0.1,0.7v51.6c0,0.2,0,0.4,0.1,0.6 c-0.9,6.2,2.8,12.6,11,17.3c14.8,8.5,38.6,8.6,53.3,0.1c8.9-5.2,11-12.3,10.4-19V87.6z"/><path fill="#FFDA99" stroke="#545453" stroke-width="1.716" stroke-miterlimit="10" d="M218.3,99.2c-14.7,8.5-38.6,8.4-53.3-0.1 c-14.8-8.5-14.8-22.3-0.2-30.8s38.6-8.4,53.3,0.1C232.9,76.9,232.9,90.7,218.3,99.2z"/><path fill="none" stroke="#545453" stroke-width="6.864" stroke-linecap="round" stroke-miterlimit="10" d="M202 160.9L202 208.2"/><path fill="none" stroke="#6D6E71" stroke-width="5.148" stroke-linecap="round" stroke-miterlimit="10" d="M145.4 176.7L145.4 52.3"/><path fill="#BCBEC0" stroke="#545453" stroke-width=".858" stroke-miterlimit="10" d="M147.1 78.3v-4.7c0 0 0 0 0 0v-.1c0 0 0 0 0 0-.1-1.6-1.2-3.2-3.3-4.5-4.4-2.5-11.5-2.5-15.8 0-2.1 1.2-3.1 2.7-3.2 4.3 0 0 0 0 0 0v5h0c0 .4.1.8.2 1.2 0 .1 0 .2 0 .3 0 0 4.1 28.7 4.2 28.8-.3 1.2.4 2.4 1.9 3.3 2.7 1.5 7 1.5 9.6 0 1.6-.9 2.2-2.1 1.9-3.3.1-.2 4.2-28.8 4.2-28.8 0-.1 0-.2 0-.3C147.1 79.2 147.1 78.8 147.1 78.3L147.1 78.3 147.1 78.3C147.1 78.4 147.1 78.3 147.1 78.3zM86.6 112.9v-4.7c0 0 0 0 0 0V108c0 0 0 0 0 0-.1-1.6-1.2-3.2-3.3-4.5-4.4-2.5-11.5-2.5-15.8 0-2.1 1.2-3.1 2.7-3.2 4.3 0 0 0 0 0 0v5h0c0 .4.1.8.2 1.2 0 .1 0 .2 0 .3 0 0 4.1 28.7 4.2 28.8-.3 1.2.4 2.4 1.9 3.3 2.7 1.5 7 1.5 9.6 0 1.6-.9 2.2-2.1 1.9-3.3.1-.2 4.2-28.8 4.2-28.8 0-.1 0-.2 0-.3C86.6 113.7 86.6 113.3 86.6 112.9L86.6 112.9 86.6 112.9C86.6 112.9 86.6 112.9 86.6 112.9z"/><path fill="#A7A9AC" stroke="#545453" stroke-width=".858" stroke-miterlimit="10" d="M86.6,112.9v-4.7c0,0,0,0,0,0V108 c0,0,0,0,0,0c-0.1-1.6-1.2-3.2-3.3-4.5c-4.4-2.5-11.5-2.5-15.8,0c-2.1,1.2-3.1,2.7-3.2,4.3c0,0,0,0,0,0v5h0c0,1.6,1.1,3.3,3.3,4.5 c4.4,2.5,11.5,2.5,15.8,0C85.5,116.2,86.6,114.6,86.6,112.9L86.6,112.9L86.6,112.9C86.6,112.9,86.6,112.9,86.6,112.9z"/><path fill="#D1D3D4" stroke="#545453" stroke-width="1.231" stroke-miterlimit="10" d="M83.4,112.7c-4.3,2.5-11.4,2.5-15.8,0 c-4.4-2.5-4.4-6.6,0-9.1s11.4-2.5,15.8,0C87.7,106.1,87.7,110.2,83.4,112.7z"/><path fill="#A7A9AC" stroke="#545453" stroke-width=".858" stroke-miterlimit="10" d="M147.1,78.3v-4.7c0,0,0,0,0,0v-0.1 c0,0,0,0,0,0c-0.1-1.6-1.2-3.2-3.3-4.5c-4.4-2.5-11.5-2.5-15.8,0c-2.1,1.2-3.1,2.7-3.2,4.3c0,0,0,0,0,0v5h0c0,1.6,1.1,3.3,3.3,4.5 c4.4,2.5,11.5,2.5,15.8,0C146,81.7,147.1,80,147.1,78.3L147.1,78.3L147.1,78.3C147.1,78.4,147.1,78.3,147.1,78.3z"/><path fill="#D1D3D4" stroke="#545453" stroke-width=".858" stroke-miterlimit="10" d="M143.9,78.1c-4.3,2.5-11.4,2.5-15.8,0 s-4.4-6.6,0-9.1c4.3-2.5,11.4-2.5,15.8,0C148.2,71.5,148.2,75.6,143.9,78.1z"/><path fill="none" stroke="#545453" stroke-width="1.231" stroke-miterlimit="10" d="M127.2 72.4l8.5 4.9 5.4-3.1c.1-.1.1-.2 0-.2l-8.2-4.8L127.2 72.4zM66.7 106.9l8.5 4.9 5.4-3.1c.1-.1.1-.2 0-.2l-8.2-4.8L66.7 106.9z"/><path fill="#939598" stroke="#939598" stroke-width="5.148" stroke-linecap="round" stroke-miterlimit="10" d="M55 114.7L145.4 62.7"/><path fill="#E6E7E8" stroke="#545453" stroke-width=".858" stroke-miterlimit="10" d="M75.5,111.8l5.5-3.1c0.1,0,0.1-0.1,0.1-0.2 c0-1-0.4-7.9-4.9-8.5c-1.6-0.2-7.1,3-5.5,3.2C75.3,104.1,75.4,111.4,75.5,111.8C75.5,111.8,75.5,111.8,75.5,111.8z"/><path fill="none" stroke="#F7923F" stroke-width="16.357" stroke-linecap="round" stroke-miterlimit="10" d="M169.5 110.5L169.5 147.9"/><path fill="#545453" stroke="#FFDA99" stroke-width="9.875" stroke-linecap="round" stroke-miterlimit="10" d="M215.1 107.1L215.1 151.3"/><path fill="#E6E7E8" stroke="#545453" stroke-width=".858" stroke-miterlimit="10" d="M136,77.3l5.5-3.1c0.1,0,0.1-0.1,0.1-0.2 c0-1-0.4-7.9-4.9-8.5c-1.6-0.2-7.1,3-5.5,3.2C135.8,69.5,135.9,76.9,136,77.3C136,77.3,136,77.3,136,77.3z"/><path fill="#FDBD56" stroke="#545453" stroke-width=".858" stroke-miterlimit="10" d="M94,76.3c-0.6-0.2-1.1-0.5-1.5-0.9 c-1.2-0.9-3-0.9-4.9,0.2c-3.6,2.1-6.5,7.1-6.5,11.2c0,2.2,0.8,3.6,2.1,4.3c0.7,0.3,1.3,0.7,1.9,1.1c1.2,0.8,2.9,0.7,4.8-0.4 c3.6-2.1,6.5-7.1,6.5-11.2C96.3,78.4,95.4,76.8,94,76.3z"/><path fill="#FFEBCC" stroke="#545453" stroke-width=".858" stroke-miterlimit="10" d="M96.3,80.6c0,4.1-2.9,9.1-6.5,11.2 c-3.6,2.1-6.5,0.4-6.5-3.7s2.9-9.1,6.5-11.2C93.4,74.9,96.3,76.5,96.3,80.6z"/><path fill="none" stroke="#545453" stroke-width="1.061" stroke-linecap="round" stroke-miterlimit="10" d="M88.7 92.1L88.7 95.3"/><path fill="none" stroke="#545453" stroke-width=".286" stroke-linecap="round" stroke-miterlimit="10" d="M89.8 84.4L94.1 78.9"/><path fill="none" stroke="#A7A9AC" stroke-width="2.574" stroke-linecap="round" stroke-miterlimit="10" d="M104.8,151l-8.1,4.3 c-0.3,0.2-0.5,0.4-0.5,0.8V174c0,0.7-0.7,1.1-1.3,0.7l-6.6-4c-0.3-0.2-0.6-0.2-0.9,0l-22.8,13.5c-0.6,0.3-0.6,1.2,0,1.5l6.6,3.9 c0.3,0.2,0.4,0.4,0.4,0.7v18c0,0.3-0.2,0.6-0.4,0.8L55,218.3"/><path fill="none" stroke="#6D6E71" stroke-width="5.148" stroke-linecap="round" stroke-miterlimit="10" d="M55 228.8L55 105.5"/><path fill="#FFDA99" stroke="#545453" stroke-width=".858" stroke-miterlimit="10" d="M122.9,76.6c0-0.4,0.1-3.2-1.3-4l-7.1-4.4 c-2.5-1.5-3.6,1.4-4,2.5c-0.3,0.8-0.7,1.9-0.8,3.2c0,0-0.1,1.2-0.1,1.2v14.4v3.6l3.6,2c1.7,1,4.5-1.1,4.5-1.1l3.5-2.1 c1-0.6,1.7-1.7,1.8-2.9c0-0.2,0-0.3,0-0.5V76.6z"/><path fill="#F7923F" stroke="#545453" stroke-width=".858" stroke-miterlimit="10" d="M109.6,74.9v18l3.6,2 c2.1,1.2,4.6-0.3,4.6-2.7v-12c0-1.1-0.6-2.1-1.5-2.7l-5.6-3.3C110.1,74.1,109.6,74.4,109.6,74.9z"/><path fill="#FDBD56" stroke="#545453" stroke-width=".858" stroke-miterlimit="10" d="M119.3,93.8c-0.7,0.4-1.6-0.1-1.6-0.9V80.3 c0-5.8,4.8-10.7,5.1-3.9l0.2,13.1c0,1.3-0.7,2.5-1.8,3.1L119.3,93.8z"/><path fill="#FFDA99" stroke="#545453" stroke-width=".858" stroke-miterlimit="10" d="M113.5,81.7c0-0.4,0.1-3.2-1.3-4l-7.1-4.4 c-2.5-1.5-3.6,1.4-4,2.5c-0.3,0.8-0.7,1.9-0.8,3.2c0,0-0.1,1.2-0.1,1.2v14.4v3.6l3.6,2c1.7,1,4.5-1.1,4.5-1.1l3.5-2.1 c1-0.6,1.7-1.7,1.8-2.9c0-0.2,0-0.3,0-0.5V81.7z"/><path fill="#F7923F" stroke="#545453" stroke-width=".858" stroke-miterlimit="10" d="M100.2,80v18l3.6,2c2.1,1.2,4.6-0.3,4.6-2.7 v-12c0-1.1-0.6-2.1-1.5-2.7l-5.6-3.3C100.8,79.1,100.2,79.5,100.2,80z"/><path fill="#FDBD56" stroke="#545453" stroke-width=".858" stroke-miterlimit="10" d="M110,98.8c-0.7,0.4-1.6-0.1-1.6-0.9V85.4 c0-5.8,4.8-10.7,5.1-3.9l0.2,13.1c0,1.3-0.7,2.5-1.8,3.1L110,98.8z"/><g stroke="#000" stroke-miterlimit="10"><path stroke-width=".73" d="M203.9,71.1l-2.8,1.6c-0.8-0.3-1.6-0.6-2.5-0.8 c-1.1-0.3-2.2-0.5-3.4-0.7l0-2.2c0-0.1-0.1-0.1-0.2-0.1l-7.3,0c-0.1,0-0.2,0.1-0.2,0.1l0,2.2c-1.2,0.2-2.3,0.4-3.4,0.7 c-0.9,0.2-1.6,0.5-2.4,0.8l-2.9-1.7c-0.1,0-0.2,0-0.3,0l-5.2,3c-0.1,0-0.1,0.1,0,0.2l2.9,1.7c-1.2,1.1-2,2.2-2.4,3.4l-4.2,0.1 c-0.1,0-0.2,0.1-0.2,0.1l0.1,4.2c0,0.1,0.1,0.1,0.2,0.1l4.1-0.1c0.5,1.2,1.3,2.3,2.4,3.3l-3.1,1.8c-0.1,0-0.1,0.1,0,0.2l5.1,3 c0.1,0,0.2,0,0.3,0l3.2-1.8c0.7,0.3,1.5,0.5,2.3,0.7c1.1,0.3,2.3,0.5,3.6,0.7l-0.1,2.4c0,0.1,0.1,0.1,0.2,0.1l7.3,0.1 c0.1,0,0.2-0.1,0.2-0.1l0.1-2.6c1.1-0.2,2.2-0.4,3.2-0.7c0.9-0.2,1.6-0.5,2.4-0.8l3.1,1.8c0.1,0,0.2,0,0.3,0l5.2-3 c0.1,0,0.1-0.1,0-0.2l-3.1-1.8c1.1-1,1.9-2.1,2.4-3.2l4.1,0c0.1,0,0.2-0.1,0.2-0.1l0.1-4.2c0-0.1-0.1-0.1-0.2-0.1l-4.1,0 c-0.4-1.2-1.2-2.3-2.3-3.3l2.9-1.7c0.1,0,0.1-0.1,0-0.2l-5.1-3C204.1,71.1,204,71.1,203.9,71.1z"/><path fill="#E6E7E8" stroke-width=".508" d="M199,77c4.3,2.5,4.2,6.5,0,9 c-4.3,2.5-11.2,2.5-15.5,0c-4.3-2.5-4.2-6.5,0-9C187.7,74.5,194.7,74.5,199,77z"/><path stroke-width=".73" d="M195.1,79.3c2.1,1.2,2.1,3.2,0,4.5 c-2.1,1.2-5.6,1.2-7.7,0c-2.1-1.2-2.1-3.2,0-4.5C189.6,78,193,78,195.1,79.3z"/></g><path d="M35 92.9l2.9-1.7c.8-.4 1.4-.7 1.8-.9.4-.1.7-.1.9 0 .2.1.4.3.4.6.1.3.1.8.1 1.4v.9c0 .7-.1 1.2-.2 1.6-.1.4-.4.8-.8 1.2-.4.4-.9.8-1.5 1.1l-.8.4v4.3l-2.9 1.6V92.9zM37.8 93.1v2.7c.1 0 .2-.1.2-.1.3-.2.4-.3.5-.5.1-.2.2-.5.2-.9v-.9c0-.4-.1-.6-.2-.6C38.4 92.8 38.2 92.9 37.8 93.1zM41.9 88.9l2-1.2c1.3-.8 2.3-1.3 2.7-1.4.5-.2.9-.1 1.2.1.3.2.5.8.5 1.7 0 .8-.1 1.5-.3 1.9-.2.4-.6.8-1.3 1.2.6-.2.9-.2 1.1-.1.2.1.3.3.4.4 0 .2.1.7.1 1.6V96l-2.7 1.5V94c0-.6 0-.9-.1-1-.1-.1-.3 0-.7.2v4.9l-2.9 1.6V88.9zM44.8 89.1v2.4c.3-.2.5-.4.7-.5s.2-.5.2-1v-.6c0-.3-.1-.5-.2-.6C45.4 88.8 45.1 88.9 44.8 89.1zM56 87.2c0 1.1 0 1.9-.1 2.3-.1.5-.2 1-.5 1.5-.3.5-.6 1-1.1 1.5-.5.5-1 .9-1.6 1.2-.6.3-1.1.5-1.6.6-.5.1-.8 0-1.1-.2-.3-.2-.5-.5-.5-.9-.1-.4-.1-1.2-.1-2.3v-1.8c0-1.1 0-1.9.1-2.3.1-.5.2-1 .5-1.5.3-.5.6-1 1.1-1.5.5-.5 1-.9 1.6-1.2.6-.3 1.1-.5 1.6-.6.5-.1.8 0 1.1.2.3.2.5.5.5.9.1.4.1 1.2.1 2.3V87.2zM53.1 85.3c0-.5 0-.8-.1-.9-.1-.1-.2-.1-.3 0-.1.1-.3.2-.3.4-.1.2-.1.5-.1 1.1v5c0 .6 0 1 .1 1.1.1.1.2.1.4 0 .2-.1.3-.3.4-.5.1-.2.1-.6.1-1.3V85.3zM57 80.2l4.8-2.8v2.2l-2 1.1v2l1.8-1v2.1l-1.8 1v4.5L57 91V80.2zM68.3 73.7v2.2l-1.7 1v8.6l-2.9 1.6v-8.6l-1.7 1v-2.2L68.3 73.7zM68.9 73.3l4.8-2.7v2.2l-1.9 1.1v2l1.8-1v2.1l-1.8 1v2.4l2.1-1.2v2.2l-4.9 2.9V73.3zM81.4 70.9l-2.9 1.6v-1.9c0-.5 0-.9-.1-1-.1-.1-.2-.1-.4 0-.2.1-.4.3-.4.5-.1.2-.1.6-.1 1.1v5c0 .5 0 .8.1 1 .1.1.2.1.4 0 .2-.1.4-.3.4-.5.1-.2.1-.6.1-1.2v-1.4l2.9-1.6V73c0 1.1-.1 2-.2 2.5-.2.6-.5 1.2-1.1 1.8-.5.7-1.2 1.2-2 1.7-.8.5-1.5.7-2.1.7-.5 0-.9-.2-1.1-.6-.2-.4-.3-1.2-.3-2.2v-3.2c0-.8 0-1.4.1-1.8.1-.4.2-.9.5-1.4.3-.5.6-1 1.1-1.5.5-.5 1-.9 1.6-1.3.8-.5 1.5-.7 2.1-.7.5 0 .9.2 1.1.6.2.4.3 1.1.3 2.1V70.9zM89 61.8v10.8l-2.9 1.6v-4.5l-.9.5v4.5l-2.9 1.6V65.6l2.9-1.6v3.9l.9-.5v-3.9L89 61.8z"/><g fill="#F5A722"><path d="M95.3 58l4.8-2.7v2.2l-1.9 1.1v2l1.8-1v2.1l-1.8 1V65l2.1-1.2v2.2l-4.9 2.9V58zM107.5 51v10.8l-2.5 1.4-1.5-4.1v4.9l-2.4 1.4V54.7l2.4-1.4 1.6 3.9v-4.9L107.5 51zM115.2 50.5l-2.9 1.6v-1c0-.6 0-1-.1-1.1-.1-.1-.2-.1-.4 0-.2.1-.3.2-.4.4-.1.2-.1.5-.1 1.1v5.2c0 .5 0 .8.1.9.1.1.2.1.4 0 .2-.1.3-.3.4-.5.1-.2.1-.6.1-1.1v-1.3l-.6.3v-1.6l3.3-1.9v5.8l-1.8 1-.3-.6c-.2.4-.4.8-.7 1.2-.3.3-.6.6-1 .9-.5.3-.9.4-1.3.4-.4 0-.7-.1-1-.3-.2-.2-.4-.5-.4-.8-.1-.3-.1-.9-.1-1.6v-3.2c0-1 .1-1.8.2-2.3.1-.5.4-1.1 1-1.8.5-.7 1.2-1.3 2.1-1.8.8-.5 1.5-.7 2.1-.7.6 0 .9.2 1.1.6.2.4.3 1 .3 1.9V50.5zM119.1 44.3v10.8l-2.9 1.6V45.9L119.1 44.3zM126.6 39.9v10.8l-2.5 1.4-1.5-4.1V53l-2.4 1.4V43.6l2.4-1.4 1.6 3.9v-4.9L126.6 39.9zM127.8 39.3l4.8-2.7v2.2l-1.9 1.1v2l1.8-1v2.1l-1.8 1v2.4l2.1-1.2v2.2l-4.9 2.9V39.3zM133.6 35.9l4.8-2.7v2.2l-1.9 1.1v2l1.8-1v2.1l-1.8 1v2.4l2.1-1.2v2.2l-4.9 2.9V35.9zM139.3 32.6l2-1.2c1.3-.8 2.3-1.3 2.7-1.4.5-.2.9-.1 1.2.1.3.2.5.8.5 1.7 0 .8-.1 1.5-.3 1.9-.2.4-.6.8-1.3 1.2.6-.2.9-.2 1.1-.1.2.1.3.3.4.4 0 .2.1.7.1 1.6v2.8l-2.7 1.5v-3.6c0-.6 0-.9-.1-1-.1-.1-.3 0-.7.2v4.9l-2.9 1.6V32.6zM142.2 32.8v2.4c.3-.2.5-.4.7-.5s.2-.5.2-1v-.6c0-.3-.1-.5-.2-.6C142.7 32.5 142.5 32.6 142.2 32.8zM149.7 26.6v10.8l-2.9 1.6V28.3L149.7 26.6zM157.2 22.3v10.8l-2.5 1.4-1.5-4.1v4.9l-2.4 1.4V26l2.4-1.4 1.6 3.9v-4.9L157.2 22.3zM164.9 21.8l-2.9 1.6v-1c0-.6 0-1-.1-1.1-.1-.1-.2-.1-.4 0-.2.1-.3.2-.4.4-.1.2-.1.5-.1 1.1V28c0 .5 0 .8.1.9.1.1.2.1.4 0 .2-.1.3-.3.4-.5.1-.2.1-.6.1-1.1v-1.3l-.6.3v-1.6l3.3-1.9v5.8l-1.8 1-.3-.6c-.2.4-.4.8-.7 1.2-.3.3-.6.6-1 .9-.5.3-.9.4-1.3.4-.4 0-.7-.1-1-.3-.2-.2-.4-.5-.4-.8-.1-.3-.1-.9-.1-1.6v-3.2c0-1 .1-1.8.2-2.3.1-.5.4-1.1 1-1.8.5-.7 1.2-1.3 2.1-1.8.8-.5 1.5-.7 2.1-.7.6 0 .9.2 1.1.6.2.4.3 1 .3 1.9V21.8z"/></g><path fill="none" stroke="#000" stroke-width=".984" stroke-miterlimit="10" d="M167.5,29.4L94.1,71.8c-1,0.6-1.7,0.1-1.7-1 V59c0-1.1,0.8-2.5,1.7-2.7l73.5-42.4c1-0.9,1.7-0.5,1.7,0.7v11.7C169.3,27.5,168.5,28.9,167.5,29.4z"/></svg>