<svg xmlns="http://www.w3.org/2000/svg" viewBox="0 0 283.5 283.5" id="plants"><path fill="#D1D3D4" stroke="#545453" stroke-width=".781" stroke-miterlimit="10" d="M11.6,152.5l87.3-49.9 c1.1-0.6,2.5-0.6,3.6,0l171.4,97.5c2.4,1.4,2.4,4.9,0,6.3l-88.1,50.4c-1.1,0.6-2.5,0.6-3.6,0L11.6,158.8 C9.2,157.4,9.2,153.9,11.6,152.5z"/><path fill="#F7923F" stroke="#545453" stroke-width=".946" stroke-miterlimit="10" d="M149.3,135.4l-55.7-32 c-1.3-0.7-20,10.2-20.7,11.4c-0.7,1.1-1.4,2.5-1.4,4.4c0,2.1,0.2,4.3,1.2,6.5c0,0,1.3,3.7,4.2,6.7c0,0,53.9,31.2,54.3,31.2 c1.3,0.6,2.5,0.7,3.6,0.5c2.1-0.5,15.9-9.3,16.7-9.6c2-0.9,3.5-2.5,3.5-5.6C155,145.1,152.9,137.5,149.3,135.4z"/><path fill="#B77E53" stroke="#545453" stroke-width=".946" stroke-miterlimit="10" d="M132.6,145l-55.7-32 c-1.3-0.7-3.2,0.6-4,1.7c-0.7,1.1-1.4,2.5-1.4,4.4c0,2.1,0.2,4.3,1.2,6.5c0,0,1.3,3.7,4.2,6.7c0,0,53.9,31.2,54.3,31.2 c4,1.7,7.1-0.4,7.1-5.2C138.3,154.8,136.1,147.2,132.6,145z"/><path fill="#FDBD56" stroke="#545453" stroke-width=".781" stroke-miterlimit="10" d="M75.8,112.9l57.4,32.6c0,0,0.1,0,0.2,0 l16.8-9c0.1-0.1,0.1-0.2,0-0.3l-57.3-33.3c-0.1,0-0.1,0-0.2,0l-16.9,9.8C75.7,112.7,75.7,112.9,75.8,112.9z"/><path fill="#B77E53" stroke="#545453" stroke-width=".946" stroke-miterlimit="10" d="M129.5,145c-2.6-1.5-4.9-1.2-6.1,0.5 c-1.2-3.1-3.5-6-6.1-7.5c-2.5-1.5-4.8-1.2-6,0.4c-1.2-3.1-3.5-6-6.1-7.4c-2.6-1.5-5-1.2-6.2,0.6c-1.2-3.1-3.5-6.1-6.1-7.6 c-2.7-1.5-5-1.2-6.2,0.6c-1.2-3.2-3.5-6.2-6.2-7.8c-3.9-2.3-7.1-0.5-7.1,4c0,4.5,3.2,10,7.1,12.2c2.7,1.5,5,1.2,6.2-0.6 c1.2,3.2,3.5,6.2,6.2,7.8c2.6,1.5,5,1.2,6.2-0.6c1.2,3.1,3.5,6.1,6.1,7.6c2.5,1.5,4.8,1.2,6-0.4c1.2,3.1,3.5,6,6.1,7.4 c2.6,1.5,4.9,1.2,6.1-0.5c1.2,3.1,3.5,6,6.1,7.5c3.9,2.3,7.1,0.5,7.1-4C136.6,152.7,133.4,147.3,129.5,145z"/><path fill="#58595B" stroke="#545453" stroke-width=".395" stroke-miterlimit="10" d="M84.3 127.2c0 2.7-1.9 3.8-4.3 2.4s-4.3-4.7-4.3-7.4 1.9-3.8 4.3-2.4S84.3 124.5 84.3 127.2zM96.9 134.5c0 2.7-1.9 3.8-4.3 2.4-2.4-1.4-4.3-4.7-4.3-7.4 0-2.7 1.9-3.8 4.3-2.4C95 128.4 96.9 131.8 96.9 134.5zM109.3 141.7c0 2.7-1.9 3.8-4.3 2.4-2.4-1.4-4.3-4.7-4.3-7.4s1.9-3.8 4.3-2.4C107.4 135.7 109.3 139 109.3 141.7zM133.7 155.8c0 2.7-1.9 3.8-4.3 2.4-2.4-1.4-4.3-4.7-4.3-7.4 0-2.7 1.9-3.8 4.3-2.4C131.8 149.7 133.7 153 133.7 155.8zM121.4 148.6c0 2.7-1.9 3.8-4.3 2.4s-4.3-4.7-4.3-7.4c0-2.7 1.9-3.8 4.3-2.4S121.4 145.9 121.4 148.6z"/><g stroke="#545453" stroke-miterlimit="10"><path fill="#F7923F" stroke-width=".946" d="M117.7,154.3l-55.7-32 c-1.3-0.7-20,10.2-20.7,11.4c-0.7,1.1-1.4,2.5-1.4,4.4c0,2.1,0.2,4.3,1.2,6.5c0,0,1.3,3.7,4.2,6.7c0,0,53.9,31.2,54.3,31.2 c1.3,0.6,2.5,0.7,3.6,0.5c2.1-0.5,15.9-9.3,16.7-9.6c2-0.9,3.5-2.5,3.5-5.6C123.4,164,121.3,156.4,117.7,154.3z"/><path fill="#F7923F" stroke-width=".946" d="M101,163.9l-55.7-32 c-1.3-0.7-3.2,0.6-4,1.7c-0.7,1.1-1.4,2.5-1.4,4.4c0,2.1,0.2,4.3,1.2,6.5c0,0,1.3,3.7,4.2,6.7c0,0,53.9,31.2,54.3,31.2 c4,1.7,7.1-0.4,7.1-5.2C106.6,173.7,104.5,166.1,101,163.9z"/><path fill="#FDBD56" stroke-width=".781" d="M44.2,131.8l57.4,32.6c0,0,0.1,0,0.2,0 l16.8-9c0.1-0.1,0.1-0.2,0-0.3l-57.3-33.3c-0.1,0-0.1,0-0.2,0l-16.9,9.8C44.1,131.6,44.1,131.8,44.2,131.8z"/><path fill="#F7923F" stroke-width=".654" d="M97.9,163.9c-2.6-1.5-4.9-1.2-6.1,0.5 c-1.2-3.1-3.5-6-6.1-7.5c-2.5-1.5-4.8-1.2-6,0.4c-1.2-3.1-3.5-6-6.1-7.4c-2.6-1.5-5-1.2-6.2,0.6c-1.2-3.1-3.5-6.1-6.1-7.6 c-2.7-1.5-5-1.2-6.2,0.6c-1.2-3.2-3.5-6.2-6.2-7.8c-3.9-2.3-7.1-0.5-7.1,4c0,4.5,3.2,10,7.1,12.2c2.7,1.5,5,1.2,6.2-0.6 c1.2,3.2,3.5,6.2,6.2,7.8c2.6,1.5,5,1.2,6.2-0.6c1.2,3.1,3.5,6.1,6.1,7.6c2.5,1.5,4.8,1.2,6-0.4c1.2,3.1,3.5,6,6.1,7.4 c2.6,1.5,4.9,1.2,6.1-0.5c1.2,3.1,3.5,6,6.1,7.5c3.9,2.3,7.1,0.5,7.1-4C105,171.6,101.8,166.2,97.9,163.9z"/><path fill="#58595B" stroke-width=".395" d="M52.7 146.1c0 2.7-1.9 3.8-4.3 2.4-2.4-1.4-4.3-4.7-4.3-7.4 0-2.7 1.9-3.8 4.3-2.4C50.8 140 52.7 143.3 52.7 146.1zM65.3 153.4c0 2.7-1.9 3.8-4.3 2.4-2.4-1.4-4.3-4.7-4.3-7.4 0-2.7 1.9-3.8 4.3-2.4C63.4 147.3 65.3 150.6 65.3 153.4zM77.7 160.6c0 2.7-1.9 3.8-4.3 2.4-2.4-1.4-4.3-4.7-4.3-7.4 0-2.7 1.9-3.8 4.3-2.4S77.7 157.9 77.7 160.6zM102.1 174.7c0 2.7-1.9 3.8-4.3 2.4-2.4-1.4-4.3-4.7-4.3-7.4 0-2.7 1.9-3.8 4.3-2.4C100.2 168.6 102.1 171.9 102.1 174.7zM89.8 167.5c0 2.7-1.9 3.8-4.3 2.4-2.4-1.4-4.3-4.7-4.3-7.4s1.9-3.8 4.3-2.4S89.8 164.8 89.8 167.5z"/></g><path fill="#939598" stroke="#545453" stroke-width=".781" stroke-miterlimit="10" d="M107.1,198.6l71-41.3 c0.1-0.1,0.2-0.1,0.3,0l76,44.5c0.2,0.1,0.2,0.4,0,0.5l-70.4,41.5c-0.1,0.1-0.2,0.1-0.3,0l-76.7-44.6 C106.9,199,106.9,198.7,107.1,198.6z"/><path fill="#FFDA99" stroke="#545453" stroke-width=".781" stroke-miterlimit="10" d="M81.7,108.9l6.3-3.6c3.7-2.1,8.3-2.1,12,0 l50.2,29c2,1.2,2,4.1,0,5.3l-10.4,6c-0.9,0.5-2.1,0.5-3,0l-55-31.5C79.6,113,79.6,110.1,81.7,108.9z"/><path fill="none" stroke="#686868" stroke-width=".514" stroke-miterlimit="10" d="M104.4,140l26.6-15.1c0.4-0.2,0.4-0.7,0-1 l-26.4-15.9l-28.3,16.4L104.4,140z"/><path fill="#F7923F" stroke="#545453" stroke-width=".781" stroke-miterlimit="10" d="M142.5 124.1L82 94.1l-38.1 17c-.2.1-.3.3-.3.5l0 9.9c0 1.8 1 3.5 2.5 4.4l58 33.3c.1.1.3.1.4 0l38.1-21.9 0-12.7C142.8 124.4 142.7 124.2 142.5 124.1zM89 44.4l.1 32.7c0 .2.1.4.3.4 1.6.6 9.3 4.3 13.2 16.1.2.5.9.4.9-.1V52.3c0-.2-.1-.3-.2-.4L89.7 44C89.4 43.9 89 44.1 89 44.4zM102 82.5c0 1.4-1.8 1.8-2.5.6-3.1-5.9-7.4-7.9-8.5-8.4-.2-.1-.3-.2-.3-.4l-.1-25.4c0-.4.4-.6.7-.4l10.4 6c.1.1.2.2.2.4V82.5z"/><path fill="#6D6E71" stroke="#545453" stroke-width=".781" stroke-miterlimit="10" d="M178.7,176.7l59.8,35 c0.1,0.1,0.2,0.1,0.3,0l16.1-9.5c0.2-0.1,0.2-0.4,0-0.5l-76-44.5c-0.1-0.1-0.2-0.1-0.3,0l-71,41.3c-0.2,0.1-0.2,0.4,0,0.5l16.1,9.4 c0.1,0.1,0.2,0.1,0.3,0l54.5-31.7C178.5,176.7,178.6,176.7,178.7,176.7z"/><path fill="#FFDA99" stroke="#545453" stroke-width=".781" stroke-miterlimit="10" d="M86.8,74l0.1,0.1 c9.1,4.9,14.8,14.4,14.8,24.7v5.7l-14.9-8.3V74z"/><path fill="#FFDA99" stroke="#545453" stroke-width=".781" stroke-miterlimit="10" d="M104.4,146.2l37.5-21 c0.6-0.3,0.6-1.1,0-1.5L82,91.3l-35.8,18.5c-1.1,0.7-1.1,2.3,0,3L104.4,146.2z"/><path fill="#FDBD56" stroke="#545453" stroke-width=".781" stroke-miterlimit="10" d="M104.6,159.2v-13l37.3-20.9 c0.4-0.2,0.8,0.1,0.8,0.5v11.5L104.6,159.2z"/><path fill="#F7923F" stroke="#545453" stroke-width=".781" stroke-miterlimit="10" d="M123.7,59.1l-19.5-11.2 c-0.2-0.1-0.4,0-0.4,0.3l0.5,57c0,0.1,0.1,0.2,0.1,0.2l24.4,14.1c0.2,0.1,0.5,0,0.4-0.3l-5.5-59.9 C123.8,59.2,123.8,59.1,123.7,59.1z M105.9,51.9L105.9,51.9c0-0.2,0.2-0.4,0.4-0.2l15,9.1c0.1,0,0.1,0.1,0.1,0.2l1.4,19.2 c0,0.2-0.2,0.4-0.4,0.3c-3.4-1.3-4.7,3-5,4.3c0,0.2-0.2,0.3-0.4,0.2l-11-5.8c-0.1-0.1-0.2-0.1-0.2-0.3V51.9z M106.3,82.5l17.4,9.3 c0.1,0,0.1,0.1,0.2,0.2l2.1,22.3c0,0.2-0.2,0.4-0.4,0.3l-19.7-11.2V82.7C105.9,82.5,106.1,82.4,106.3,82.5z"/><path fill="#F7923F" stroke="#545453" stroke-width=".781" stroke-miterlimit="10" d="M125.3,56.8L88.7,35.9 c-0.7-0.4-1.6,0.1-1.6,0.9v62.5l43.8,24.5c0.4,0.2,0.9-0.1,0.8-0.5L126.1,58C126.1,57.5,125.8,57,125.3,56.8z M90.8,40l32.3,18.7 c0.5,0.3,0.7,0.7,0.8,1.2l5.2,58.7c0,0.5-0.4,0.8-0.8,0.5L89.2,97V41C89.2,40.1,90.1,39.6,90.8,40z"/><path fill="#FDBD56" stroke="#545453" stroke-width=".781" stroke-miterlimit="10" d="M49 88.9L75.6 73.5 86.6 79.3 59.7 95.3z"/><path fill="#939598" stroke="#545453" stroke-width=".392" stroke-miterlimit="10" d="M86.8 72.8L62.1 86.9 62 112.7 86.8 110.6z"/><path fill="#FFDA99" stroke="#545453" stroke-width=".781" stroke-miterlimit="10" d="M109.5,130.3l13.7-7.9 c0.2-0.1,0.2-0.5,0-0.6L120,120c-1.2-0.7-2.6-0.7-3.8,0l-14.4,8.3c-0.1,0.1-0.1,0.3,0,0.3l2.8,1.6 C106.1,131.1,108,131.1,109.5,130.3z"/><path opacity=".2" d="M63 57.9L96.9 76.2 123.9 60 131 122.2 105 136.2 76.7 122.2 62.3 87.3z"/><path fill="#D1D3D4" stroke="#686868" stroke-width=".514" stroke-miterlimit="10" d="M76.7,104.8l-17-9.5l26.9-16l16.3,9.1 c0.6,0.3,0.6,1.1,0,1.5L76.7,104.8z"/><path fill="#A7A9AC" stroke="#545453" stroke-width=".392" stroke-miterlimit="10" d="M76.7,104.8l-0.4,19.6l26.2-15.2 c1.3-0.8,2.1-2.2,2.1-3.7l0-15.1c0-0.6-0.7-1-1.2-0.7L76.7,104.8z"/><path fill="#F7923F" stroke="#545453" stroke-width=".781" stroke-miterlimit="10" d="M98.4,72.7L60.4,51c-0.3-0.2-0.7,0-0.7,0.4 v63.3c0,0.2,0.1,0.3,0.2,0.4l43.7,24.5c0.3,0.2,0.7-0.1,0.7-0.4L98.7,73C98.7,72.9,98.6,72.8,98.4,72.7z M62.5,55.1l33.7,19.6 c0.1,0.1,0.2,0.2,0.2,0.4l5.3,59.5c0,0.4-0.4,0.6-0.7,0.4l-39-22.1c-0.1-0.1-0.2-0.2-0.2-0.4V55.5C61.8,55.1,62.2,54.9,62.5,55.1z"/><path fill="#FDBD56" stroke="#545453" stroke-width=".781" stroke-miterlimit="10" d="M61.8,90.4l0.1-1.8 c9.1,4.9,14.8,16.3,14.8,26.6v5.7l-14.9-8.3V90.4z"/><path fill="#FDBD56" stroke="#545453" stroke-width=".781" stroke-miterlimit="10" d="M76.7,124.6L76.7,124.6l-0.4-0.7l-1.3-2.5 l0,0l-13.2-25L49,88.9c-0.1,0-0.1,0-0.2,0c-0.1-0.1-0.2-0.1-0.3,0l-1.8,1c0,0,0,0.1-0.1,0.1c0,0,0,0,0,0v19.5l27.9,16.4 c0,0,0,0,0,0l-0.2-0.5c0.2,0.2,0.6,0.3,0.9,0.1l1.4-0.8L76.7,124.6z"/><path fill="#F7923F" stroke="#545453" stroke-width=".781" stroke-miterlimit="10" d="M74,125.5l-27.2-16c-0.1,0-0.1-0.1-0.1-0.2 v-19c0-0.2,0.2-0.3,0.3-0.2l12.6,7.4c0,0,0.1,0.1,0.1,0.1l14.5,27.6C74.5,125.4,74.2,125.6,74,125.5z"/><g stroke="#686868" stroke-width=".514" stroke-miterlimit="10"><path fill="#808285" d="M83.8,97.6l8.6-4.9c1-0.5,0.9-1.9,0-2.5 L84.6,86c-0.4-0.2-1-0.2-1.4,0L75.1,91c-0.9,0.5-0.9,1.9,0,2.4l7.4,4.2C82.9,97.8,83.4,97.9,83.8,97.6z"/><path fill="#A7A9AC" d="M83.8,86l-3.4-13.3c-0.3-1-1.4-1.5-2.3-1 l-4.3,2.4c-0.7,0.4-1.1,1.2-1,2L74.2,92L83.8,86z"/></g><path fill="#F7923F" stroke="#545453" stroke-width=".781" stroke-miterlimit="10" d="M62.7,55.2c-0.4-0.2-0.9,0.1-0.9,0.5 L61.9,89c0,0.2,0.1,0.4,0.3,0.4c1.6,0.6,9.3,4.3,13.2,16.1c0.2,0.5,0.9,0.4,0.9-0.1V63.5c0-0.2-0.1-0.4-0.3-0.5L62.7,55.2z M74.7,94.3c0,1.4-1.8,1.8-2.5,0.6c-3.1-5.9-7.4-7.9-8.5-8.4c-0.2-0.1-0.3-0.2-0.3-0.4L63.4,60c0-0.5,0.5-0.7,0.9-0.5l10.2,5.9 c0.2,0.1,0.3,0.3,0.3,0.5V94.3z"/><path fill="#FDBD56" stroke="#545453" stroke-width=".781" stroke-miterlimit="10" d="M96.1,74.6L76.6,63.4 c-0.2-0.1-0.4,0-0.4,0.3l0.5,57c0,0.1,0.1,0.2,0.1,0.2l24.4,14.1c0.2,0.1,0.5,0,0.4-0.3l-5.5-59.9C96.2,74.7,96.2,74.6,96.1,74.6z M78.3,67.5L78.3,67.5c0-0.2,0.2-0.4,0.4-0.2l15,9.1c0.1,0,0.1,0.1,0.1,0.2l1.4,19.2c0,0.2-0.2,0.4-0.4,0.3c-3.4-1.3-4.7,3-5,4.3 c0,0.2-0.2,0.3-0.4,0.2l-11-5.8c-0.1-0.1-0.2-0.1-0.2-0.3V67.5z M78.7,98l17.4,9.3c0.1,0,0.1,0.1,0.2,0.2l2.1,22.3 c0,0.2-0.2,0.4-0.4,0.3c0,0-19.7-11-19.7-11.1V98.3C78.3,98.1,78.5,97.9,78.7,98z"/><path fill="none" stroke="#545453" stroke-width=".781" stroke-miterlimit="10" d="M121.8 149.3L134.2 142.2"/><path fill="#FDBD56" stroke="#545453" stroke-width=".781" stroke-miterlimit="10" d="M131.8,123.4l-5.3-61.7 c-0.2-2.5-2.9-3.9-5.1-2.6L98.8,72.3c-0.1,0.1-0.1,0.1-0.1,0.2l5.6,65.9c0.1,0.6,0.7,1,1.3,0.7l25.8-14.9 C131.7,124.1,131.8,123.8,131.8,123.4z M101.2,74.2l21-12.2c0.9-0.5,2.1,0.1,2.2,1.1l2.4,30.5c0,0.2-0.1,0.4-0.3,0.6l-21.8,12.4 c-0.4,0.2-0.8,0-0.9-0.5l-2.7-31.7C101.1,74.3,101.2,74.2,101.2,74.2z M128.6,121.7l-21.7,12.6c-0.3,0.2-0.6,0-0.6-0.3l-1.9-23 c0-0.2,0.1-0.4,0.3-0.6l21.7-12.3c0.4-0.2,0.8,0,0.9,0.5l1.8,22.2C129,121.2,128.8,121.6,128.6,121.7z"/><path fill="#FFDA99" stroke="#545453" stroke-width=".781" stroke-miterlimit="10" d="M123.7,55.7L88.1,35.5 c-0.4-0.3-1-0.3-1.4,0L60.9,49.9c-0.5,0.3-0.6,1.1,0,1.4l37.3,21.3c0.2,0.1,0.6,0.1,0.8,0l24.6-14.2 C124.7,57.8,124.7,56.3,123.7,55.7z M115.7,56.6l-13.7,7.9c-1.5,0.9-3.3,0.9-4.8,0l-2.8-1.6c-0.1-0.1-0.1-0.3,0-0.3l14.4-8.3 c1.2-0.7,2.6-0.7,3.8,0l3.1,1.7C116,56.1,116,56.5,115.7,56.6z"/><path fill="#FDBD56" stroke="#545453" stroke-width=".781" stroke-miterlimit="10" d="M126.5,140.6V153c0,0.1,0.1,0.2,0.2,0.1 l11-6.6c0,0,0.1-0.1,0.1-0.1v-12.5c0,0,0,0,0,0l-11.2,6.6C126.5,140.5,126.5,140.5,126.5,140.6z"/><path fill="#F7923F" stroke="#545453" stroke-width=".781" stroke-miterlimit="10" d="M126.4,140.3l-5.4-3.1 c-0.1,0-0.2,0-0.2,0.1v12.8c0,0,0,0.1,0.1,0.1l5.4,2.8c0.1,0,0.2,0,0.2-0.1v-12.6C126.5,140.4,126.4,140.4,126.4,140.3z"/><path fill="#FFDA99" stroke="#545453" stroke-width=".781" stroke-miterlimit="10" d="M132.2,130.7l5.5,3.1c0,0,0,0,0,0 l-11.2,6.4c0,0-0.1,0-0.1,0l-5.4-3.1c-0.1,0-0.1-0.2,0-0.2l11-6.3C132.1,130.7,132.1,130.7,132.2,130.7z"/><path fill="#FDBD56" stroke="#545453" stroke-width=".781" stroke-miterlimit="10" d="M137.3,134.2l0,15.7l7.1,4.1 c3.9-1.6,0.5-5.9-2.7-12.1l-1.1-5.6L137.3,134.2C137.4,134.2,137.3,134.2,137.3,134.2z"/><path fill="#F7923F" stroke="#545453" stroke-width=".781" stroke-miterlimit="10" d="M144,104.7l37.3,13c1.3,0.5,1,2.4-0.4,2.4 l-30-0.7c-0.5,0-1,0.3-1.2,0.8l-15.8,38.4c-0.3,0.7-1.1,1-1.8,0.6l-3.4-2.1c-0.5-0.3-0.7-0.9-0.5-1.4l14.2-50.2 C142.6,104.9,143.3,104.5,144,104.7z"/><path fill="#FFDA99" stroke="#545453" stroke-width=".781" stroke-miterlimit="10" d="M191.5 110.8l-33.1-11.5L155 98c-.3-.1-.6-.2-.8-.2-.5-.2-1.4-.1-1.3.4 2.1 10.3-9.7 5.9-9.7 5.9-.1.1-.3-.1.4.2l37.3 13c.9.3 1 1.3.6 1.9l9.6-6 .1 0C192.5 113.3 192.8 111.3 191.5 110.8zM181.2 193.6l25.2-13.8c.8-.5 1.8-.1 2 .8l4 13c.2.6 0 1.6-.5 2-18 17.4-31.4-.4-31.4-.4C180.3 194.7 180.6 193.9 181.2 193.6z"/><path fill="#FDBD56" stroke="#545453" stroke-width=".781" stroke-miterlimit="10" d="M202.9,188.9l19.4-11.4 c0.8-0.5,1.8-0.1,2,0.8l4.2,13.4c0.2,0.6-0.1,1.3-0.6,1.6l-19,10.8c-0.7,0.4-1.7,0.1-2-0.7l-4.6-12.8 C202,189.9,202.3,189.2,202.9,188.9z"/><path fill="#B77E53" stroke="#545453" stroke-width=".946" stroke-miterlimit="10" d="M149.6,120.4l-10.6,28.7 c-0.2,0.5,0.1,1.1,0.5,1.4l3.4,2.1c0.6,0.4,1.5,0.1,1.8-0.6l13.1-32.2l-7.1-0.2C150.3,119.6,149.8,120,149.6,120.4z"/><path fill="#BCBEC0" stroke="#545453" stroke-width=".781" stroke-miterlimit="10" d="M177.9,86.1c0.6,1-0.3,2.8-0.7,3.1 L151.1,104c-1.9,1.3-4.5,0.6-5.8-1.5l0,0c-1.3-2.2-0.5-4.8,1.5-5.8l29.2-12C176.5,84.5,177.3,85.1,177.9,86.1L177.9,86.1z"/><path fill="#F7923F" stroke="#545453" stroke-width=".781" stroke-miterlimit="10" d="M179.9,195.7c3.2,2.1,17.6,4.3,21.6-5.5 c0.1-0.3,0.5-0.3,0.6,0c3.7,8.4,10.5,24.6-0.9,22.6c-8.4-1.5-20.6-13-22-16.6C179.1,195.8,179.6,195.4,179.9,195.7z"/><path fill="#FDBD56" stroke="#545453" stroke-width=".781" stroke-miterlimit="10" d="M217.3,171.6l-15-33.8 c-3.8-9.4-6.4-16.6-5.4-17.4c5.3-4.1-16.2-35.7-16.2-35.7c-0.3-0.7-3.8-4.9-3.4-3.4c4.5,16.5-10.2,5.7-10.2,5.7 s33.3,90.8,45.6,108.7l10.9-5.8C223.6,190,220.8,179.1,217.3,171.6z"/><path fill="#F7923F" stroke="#545453" stroke-width=".781" stroke-miterlimit="10" d="M227.6 193.7l-18.9 10.6c-1.1.6-2 9.4 3.2 5.5l16-9C229.7 200.2 231.5 190.8 227.6 193.7zM212.5 195.7l-4.9-8.9c0 0-36.3-71.9-40.4-99.1-.5-3.5 3.1 1.8 3.4 2.6 0 0 21.6 31.5 16.2 35.7-2.8 2.2 21.9 54.7 25.8 62.8C212.8 189.1 212.9 195.9 212.5 195.7z"/><path fill="#FDBD56" stroke="#545453" stroke-width=".781" stroke-miterlimit="10" d="M126.5,140.6l0,15.7l7.1,4.1 c3.9-1.6,0.5-5.9-2.7-12.1l-1.1-5.6L126.5,140.6C126.6,140.6,126.5,140.6,126.5,140.6z"/><defs><path id="a" d="M175.9 160.5H247.7V219.9H175.9z"/></defs><path fill="none" stroke="#545453" stroke-width=".868" stroke-linecap="round" stroke-miterlimit="10" d="M178.6 157.2L178.6 176.8"/><path fill="#FFF" stroke="#000" stroke-width=".418" stroke-miterlimit="10" d="M102,154l-31.3-18 c-0.4-0.2-0.7-0.8-0.7-1.3v-5c0-0.5,0.3-0.7,0.7-0.4c0.1,0.1,0.2,0.1,0.2,0.2l30.9,17.8c0.1,0,0.2,0.1,0.2,0.1 c0.4,0.1,0.7,0.7,0.7,1.1v5C102.7,154,102.4,154.2,102,154z"/><path d="M45.6 115.9l1.2.7c.3.2.6.4.8.5.2.2.3.3.4.5.1.1.1.3.2.5 0 .2 0 .4 0 .7v.4c0 .3 0 .5-.1.6-.1.1-.2.1-.3.1-.2 0-.4-.1-.6-.3l-.3-.2v1.8l-1.2-.7V115.9zM46.8 117.4v1.2c0 0 .1 0 .1.1.1.1.2.1.2.1 0 0 .1-.1.1-.3V118c0-.2 0-.3-.1-.3C47 117.6 46.9 117.5 46.8 117.4zM48.5 117.6l.9.5c.6.3 1 .6 1.2.7.2.2.4.4.5.6.1.3.2.6.2 1 0 .4 0 .6-.1.6-.1.1-.3 0-.5-.1.2.2.4.4.5.5.1.1.1.3.2.4 0 .1 0 .3 0 .7v1.2l-1.1-.7v-1.5c0-.2 0-.4-.1-.5 0-.1-.1-.2-.3-.3v2.1l-1.2-.7V117.6zM49.7 119.1v1c.1.1.2.1.3.1.1 0 .1-.1.1-.3v-.3c0-.1 0-.3-.1-.3C50 119.3 49.9 119.2 49.7 119.1zM54.5 123.7c0 .5 0 .8 0 1 0 .2-.1.3-.2.4-.1.1-.3.1-.5.1-.2 0-.4-.1-.7-.3-.2-.1-.5-.3-.7-.5-.2-.2-.4-.4-.5-.6-.1-.2-.2-.4-.2-.6 0-.2 0-.5 0-1v-.8c0-.5 0-.8 0-1 0-.2.1-.3.2-.4.1-.1.3-.1.5-.1.2 0 .4.1.7.3.2.1.5.3.7.5.2.2.4.4.5.6.1.2.2.4.2.6s0 .5 0 1V123.7zM53.3 121.5c0-.2 0-.4 0-.4 0-.1-.1-.1-.1-.2-.1 0-.1 0-.1 0 0 0-.1.2-.1.4v2.1c0 .3 0 .4 0 .5 0 .1.1.1.2.2.1 0 .1 0 .2 0s0-.2 0-.5V121.5zM54.9 121.3l2.1 1.2v.9l-.8-.5v.9l.7.4v.9l-.7-.4v1.9l-1.2-.7V121.3zM59.7 124.1v.9l-.7-.4v3.7l-1.2-.7v-3.7l-.7-.4v-.9L59.7 124.1zM60 124.2l2 1.2v.9l-.8-.5v.9l.8.4v.9l-.8-.4v1l.9.5v.9l-2.1-1.2V124.2zM65.3 129.3l-1.2-.7v-.8c0-.2 0-.4 0-.5 0-.1-.1-.1-.2-.2-.1-.1-.2-.1-.2 0 0 .1 0 .2 0 .4v2.1c0 .2 0 .4 0 .5s.1.2.2.2c.1.1.1.1.2 0 0-.1 0-.2 0-.5v-.6l1.2.7v.2c0 .5 0 .8-.1 1-.1.2-.2.2-.5.3-.2 0-.5-.1-.9-.3-.4-.2-.6-.4-.9-.7-.2-.3-.4-.5-.5-.8-.1-.3-.1-.6-.1-1.1v-1.3c0-.3 0-.6 0-.7 0-.2.1-.3.2-.4.1-.1.3-.1.5-.1.2 0 .4.1.7.3.4.2.7.4.9.7.2.3.4.5.5.8.1.2.1.6.1 1V129.3zM68.5 129.2v4.6l-1.2-.7v-1.9l-.4-.2v1.9l-1.2-.7v-4.6l1.2.7v1.6l.4.2v-1.6L68.5 129.2z"/><g fill="#F5A722"><path d="M71.2 130.7l2 1.2v.9l-.8-.5v.9l.8.4v.9l-.8-.4v1l.9.5v.9l-2.1-1.2V130.7zM76.4 133.7v4.6l-1.1-.6-.6-2.5v2.1l-1-.6v-4.6l1 .6.7 2.5v-2.1L76.4 133.7zM79.7 137.2l-1.2-.7v-.4c0-.3 0-.4 0-.5s-.1-.1-.2-.2c-.1 0-.1 0-.2 0 0 0 0 .2 0 .4v2.2c0 .2 0 .3 0 .4 0 .1.1.1.2.2.1.1.1 0 .2 0s0-.2 0-.4v-.5l-.2-.1v-.7l1.4.8v2.5l-.8-.4-.1-.4c-.1.1-.2.1-.3.1-.1 0-.3-.1-.4-.2-.2-.1-.4-.3-.6-.5-.2-.2-.3-.4-.4-.6-.1-.2-.2-.4-.2-.6 0-.2 0-.4 0-.7v-1.4c0-.4 0-.7.1-.9 0-.2.2-.3.4-.3.2 0 .5.1.9.3.4.2.7.4.9.7.2.3.4.5.5.8.1.2.1.5.1.9V137.2zM81.4 136.5v4.6l-1.2-.7v-4.6L81.4 136.5zM84.6 138.4v4.6l-1.1-.6-.6-2.5v2.1l-1-.6v-4.6l1 .6.7 2.5v-2.1L84.6 138.4zM85 138.7l2 1.2v.9l-.8-.5v.9l.8.4v.9l-.8-.4v1l.9.5v.9l-2.1-1.2V138.7zM87.5 140.1l2 1.2v.9l-.8-.5v.9l.8.4v.9l-.8-.4v1l.9.5v.9l-2.1-1.2V140.1zM90 141.5l.9.5c.6.3 1 .6 1.2.7.2.2.4.4.5.6.1.3.2.6.2 1 0 .4 0 .6-.1.6s-.3 0-.5-.1c.2.2.4.4.5.5.1.1.1.3.2.4 0 .1 0 .3 0 .7v1.2l-1.1-.7v-1.5c0-.2 0-.4-.1-.5 0-.1-.1-.2-.3-.3v2.1l-1.2-.7V141.5zM91.2 143v1c.1.1.2.1.3.1.1 0 .1-.1.1-.3v-.3c0-.1 0-.3-.1-.3C91.4 143.1 91.3 143.1 91.2 143zM94.3 144v4.6l-1.2-.7v-4.6L94.3 144zM97.5 145.9v4.6l-1.1-.6-.6-2.5v2.1l-1-.6v-4.6l1 .6.7 2.5v-2.1L97.5 145.9zM100.8 149.4l-1.2-.7v-.4c0-.3 0-.4 0-.5s-.1-.1-.2-.2c-.1 0-.1 0-.2 0 0 0 0 .2 0 .4v2.2c0 .2 0 .3 0 .4 0 .1.1.1.2.2.1.1.1 0 .2 0 0-.1 0-.2 0-.4v-.5l-.2-.1v-.7l1.4.8v2.5l-.8-.4-.1-.4c-.1.1-.2.1-.3.1-.1 0-.3-.1-.4-.2-.2-.1-.4-.3-.6-.5-.2-.2-.3-.4-.4-.6-.1-.2-.2-.4-.2-.6 0-.2 0-.4 0-.7v-1.4c0-.4 0-.7.1-.9 0-.2.2-.3.4-.3.2 0 .5.1.9.3.4.2.7.4.9.7.2.3.4.5.5.8.1.2.1.5.1.9V149.4z"/></g><g stroke="#000" stroke-miterlimit="10"><path stroke-width=".323" d="M62.8,107.4l-1.3-0.7c-0.1-0.4-0.1-0.7-0.2-1.1 c-0.1-0.5-0.3-1-0.5-1.5l0.8-0.5c0,0,0-0.1,0-0.1l-1.6-2.8c0,0-0.1-0.1-0.1-0.1l-0.8,0.5c-0.3-0.4-0.7-0.8-1-1.1 c-0.3-0.3-0.6-0.5-0.8-0.7v-1.5c0,0,0-0.1-0.1-0.1l-2.3-1.3c0,0-0.1,0-0.1,0v1.5c-0.7-0.2-1.3-0.3-1.9-0.2L52,96 c0,0-0.1-0.1-0.1-0.1l-1.6,1c0,0,0,0.1,0,0.1l0.9,1.6c-0.3,0.4-0.6,1-0.7,1.7l-1.4-0.8c0,0-0.1,0-0.1,0v2.6c0,0,0,0.1,0.1,0.1 l1.4,0.8c0.1,0.3,0.1,0.7,0.2,1c0.1,0.5,0.3,1,0.5,1.5l-1,0.5c0,0,0,0.1,0,0.1l1.6,2.8c0,0,0.1,0.1,0.1,0.1l1-0.5 c0.3,0.4,0.6,0.7,1,1.1c0.3,0.3,0.6,0.5,0.8,0.7v1.6c0,0,0,0.1,0.1,0.1l2.3,1.3c0,0,0.1,0,0.1,0v-1.6c0.6,0.2,1.2,0.3,1.8,0.2 l0.9,1.6c0,0,0.1,0.1,0.1,0.1l1.6-0.9c0,0,0-0.1,0-0.1l-0.9-1.6c0.4-0.4,0.6-1,0.8-1.6l1.3,0.7c0,0,0.1,0,0.1,0v-2.6 C62.8,107.4,62.8,107.4,62.8,107.4z"/><path fill="#E6E7E8" stroke-width=".225" d="M59.4,106.8c0,2.2-1.5,3.1-3.4,2 c-1.9-1.1-3.4-3.8-3.4-5.9s1.5-3.1,3.4-2C57.9,101.9,59.4,104.6,59.4,106.8z"/><path stroke-width=".323" d="M57.7,105.8c0,1.1-0.8,1.5-1.7,1c-0.9-0.5-1.7-1.9-1.7-3 c0-1.1,0.8-1.5,1.7-1C56.9,103.4,57.7,104.7,57.7,105.8z"/></g></svg>